# Blender 4.0.2
# www.blender.org
mtllib isolated_plate_wall_roof_3500_win_600x600.mtl
o isolated_plate_wall_roof_3500_win_600x600
v 0.011276 0.559207 0.883170
v 0.000000 0.380993 1.095560
v 0.000000 0.200992 1.310078
v 0.024937 0.560000 0.882225
v 0.011276 0.379207 1.097688
v 0.024937 0.380000 1.096743
v 0.024937 0.740000 0.667707
v 0.000000 0.560992 0.881042
v 0.000937 0.560000 0.882225
v 0.000937 0.200000 1.311261
v 0.000000 0.740993 0.666524
v 0.024938 0.200000 1.311261
v 0.010527 0.560000 0.882225
v 0.011276 0.739207 0.668652
v 0.010527 0.380000 1.096743
v 0.010527 0.740000 0.667708
v 0.000937 0.740000 0.667708
v 0.000937 0.380000 1.096743
v 0.001219 1.300267 0.000000
v 0.000000 1.280993 0.022970
v 0.000937 0.920000 0.453189
v 0.010527 0.920000 0.453189
v 0.011276 1.099207 0.239616
v 0.011276 1.279207 0.025098
v 0.024937 0.920000 0.453189
v 0.000937 1.100000 0.238671
v 0.010527 1.100000 0.238671
v 0.024937 1.100000 0.238671
v 0.000000 1.100993 0.237488
v 0.024937 1.280000 0.024153
v 0.011276 0.919208 0.454134
v 0.010527 1.280000 0.024153
v 0.000937 1.280000 0.024153
v 0.024937 1.300267 0.000000
v 0.000000 0.920993 0.452006
v 0.011276 0.559207 -0.883170
v 0.024937 0.560000 -0.882225
v 0.024937 0.740000 -0.667707
v 0.000000 0.560993 -0.881042
v 0.000937 0.560000 -0.882225
v 0.000000 1.280993 -0.022970
v 0.000000 0.740993 -0.666524
v 0.010527 0.560000 -0.882225
v 0.011276 0.739207 -0.668652
v 0.000937 0.920000 -0.453189
v 0.010527 0.920000 -0.453189
v 0.011276 1.099207 -0.239616
v 0.011276 1.279207 -0.025098
v 0.010527 0.740000 -0.667707
v 0.000937 0.740000 -0.667707
v 0.024937 0.920000 -0.453189
v 0.000937 1.100000 -0.238671
v 0.010527 1.100000 -0.238671
v 0.024937 1.100000 -0.238671
v 0.000000 1.100993 -0.237488
v 0.024937 1.280000 -0.024153
v 0.011276 0.919207 -0.454134
v 0.010527 1.280000 -0.024153
v 0.000937 1.280000 -0.024153
v 0.000000 0.920993 -0.452006
v 0.000000 0.380993 -1.095560
v 0.000000 0.200993 -1.310078
v 0.011276 0.379207 -1.097688
v 0.024937 0.380000 -1.096743
v 0.000937 0.200000 -1.311261
v 0.024938 0.200000 -1.311261
v 0.010527 0.380000 -1.096743
v 0.000937 0.380000 -1.096743
v 0.011276 0.379207 0.320000
v 0.011276 0.379207 -0.320000
v 0.010527 0.380000 -0.320000
v 0.010527 0.380000 0.320000
v 0.000937 0.380000 0.320000
v 0.000937 0.380000 -0.320000
v 0.024937 0.890000 -0.320000
v 0.024937 0.740000 0.320000
v 0.024937 0.890000 0.320000
v 0.024937 0.740000 -0.320000
v 0.010527 0.560000 0.320000
v 0.010527 0.560000 -0.320000
v 0.000937 0.560000 0.320000
v 0.000937 0.560000 -0.320000
v 0.003101 0.250000 0.320000
v 0.003101 0.250000 -0.320000
v 0.024937 0.560000 0.320000
v 0.024937 0.560000 -0.320000
v 0.024937 0.380000 0.320000
v 0.024937 0.380000 -0.320000
v 0.024937 0.250000 0.320000
v 0.024937 0.250000 -0.320000
v 0.000937 0.740000 0.320000
v 0.000937 0.740000 -0.320000
v 0.000000 0.740993 -0.320000
v 0.000000 0.740993 0.320000
v 0.011276 0.739207 0.320000
v 0.011276 0.739207 -0.320000
v 0.010527 0.740000 -0.320000
v 0.010527 0.740000 0.320000
v 0.000000 0.380993 0.320000
v 0.000000 0.380993 -0.320000
v 0.011276 0.559207 -0.320000
v 0.011276 0.559207 0.320000
v 0.009428 0.890000 -0.320000
v 0.009428 0.890000 0.320000
v 0.000000 0.560993 0.320000
v 0.000000 0.560993 -0.320000
vn -0.7271 -0.6865 -0.0000
vn 1.0000 -0.0000 -0.0000
vn -0.0000 -1.0000 -0.0000
vn -0.0000 0.7660 -0.6428
vn -0.7272 -0.6865 -0.0000
vn -0.9980 0.0631 -0.0000
vn -0.7270 -0.6867 -0.0000
vn 0.0001 0.7658 0.6431
vn -0.7272 -0.6864 -0.0000
vn -0.7273 -0.6864 -0.0000
vn -0.7271 -0.6866 -0.0000
vn -0.0000 -0.0000 1.0000
vn -0.0000 1.0000 -0.0000
vn -0.0000 -0.0000 -1.0000
vn -0.0000 0.7661 -0.6428
vn -0.0000 0.7661 -0.6427
vn -0.0000 0.7662 -0.6426
vn -0.0000 0.7659 -0.6429
vn -0.0000 0.7660 -0.6429
vn -0.0000 0.7661 0.6427
vn -0.0000 0.7660 0.6428
vn -0.0000 0.7662 0.6426
vn -0.0000 0.7664 0.6423
vn -0.0000 0.7661 0.6428
vn -0.0000 0.7660 0.6429
vn -0.0000 0.7659 0.6429
vn -0.0000 0.7663 0.6425
vn -0.7273 -0.6863 -0.0000
vn -0.7270 -0.6866 -0.0000
vn -0.0000 -0.0001 1.0000
vt 1.241886 1.135734
vt 0.999338 1.133942
vt 1.242181 1.133942
vt 0.556943 1.135734
vt 0.799491 1.133942
vt 0.799490 1.135734
vt 0.757905 1.783565
vt 0.973947 1.726355
vt 1.040934 1.783565
vt 1.241885 0.167494
vt 0.999338 0.164516
vt 1.241885 0.164516
vt 0.556943 0.164515
vt 0.799490 0.167494
vt 0.556943 0.167494
vt -1.843269 0.773561
vt -1.931587 0.773561
vt -1.843658 0.777869
vt 0.757905 1.339151
vt 1.040934 1.339151
vt 0.799495 1.348686
vt 0.891873 0.578689
vt 0.906587 0.580478
vt 0.892242 0.580478
vt 1.174900 0.989884
vt 0.999339 0.986906
vt 1.174900 0.986906
vt 0.623930 0.989884
vt 0.799491 0.986906
vt 0.799491 0.989884
vt 0.490327 1.078402
vt 1.308502 1.078402
vt 0.799491 1.093675
vt 0.757606 0.718169
vt 1.040927 0.719958
vt 0.757900 0.719958
vt -1.667021 1.050180
vt -1.666633 1.054488
vt -1.666633 1.049944
vt 0.891873 0.575711
vt 0.906957 0.578689
vt 0.891877 2.248210
vt 0.899419 2.241769
vt 0.906961 2.248210
vt 0.824591 0.964886
vt 0.973942 0.966675
vt 0.824886 0.966675
vt 0.891577 0.389213
vt 0.973572 0.333761
vt 0.907251 0.389213
vt 0.757902 0.904667
vt 1.040928 0.907645
vt 0.757901 0.907645
vt 0.489959 1.069145
vt 1.308872 1.076610
vt 0.489959 1.076610
vt 0.891877 1.803796
vt 0.973947 1.861005
vt 0.824891 1.861005
vt 0.824886 0.331972
vt 0.825256 0.333761
vt 1.174906 2.113559
vt 0.999344 2.170768
vt 0.999343 2.113559
vt 0.799495 2.170768
vt 0.623932 2.113559
vt 0.799495 2.113559
vt 1.308878 1.706124
vt 0.489960 1.706124
vt 0.999344 1.690232
vt 1.107544 0.662717
vt 0.999339 0.660928
vt 1.107914 0.660928
vt 0.691284 0.662717
vt 0.799491 0.660928
vt 0.799490 0.662717
vt 1.107913 1.048914
vt 0.999338 1.047125
vt 1.108209 1.047125
vt 0.690914 1.048914
vt 0.799491 1.047125
vt 0.799490 1.048914
vt 1.175194 0.224734
vt 0.999338 0.169282
vt 1.241516 0.169282
vt 0.623634 0.224734
vt 0.799491 0.169282
vt 0.799490 0.224734
vt 0.899414 0.586475
vt 1.174899 0.226523
vt 0.999338 0.224734
vt 0.623929 0.226523
vt 0.799490 0.226523
vt 0.891872 0.391001
vt 0.906956 0.391001
vt 0.999338 0.657950
vt 1.107914 0.657950
vt 0.690916 0.657950
vt 0.799491 0.657950
vt 1.107920 1.958677
vt 0.999343 2.015887
vt 0.999343 1.958678
vt 0.690919 1.958677
vt 0.799495 2.015887
vt 0.623932 2.015887
vt 1.040558 0.909434
vt 0.974237 0.964886
vt 0.999338 0.167494
vt 0.557313 0.169282
vt 0.799490 0.167494
vt 0.799490 0.169282
vt 0.799490 0.709081
vt 0.999338 0.709081
vt 1.041223 0.718169
vt 0.999338 0.991673
vt 1.174530 0.991673
vt 0.690620 1.047125
vt 0.799490 0.991673
vt 0.799491 1.047125
vt 0.758270 0.909434
vt 0.824886 0.328994
vt 0.973942 0.331972
vt 0.999339 0.989884
vt 0.624299 0.991673
vt 0.799491 0.989884
vt 0.783333 0.397222
vt 0.783333 0.355556
vt 0.800306 0.711111
vt 0.806372 0.711111
vt 0.794445 0.085891
vt 0.794445 0.086111
vt 0.817483 0.355556
vt 0.813175 0.355556
vt 0.999338 1.135734
vt 0.556649 1.133942
vt 0.824891 1.726355
vt 0.799490 0.164515
vt -1.843269 0.778105
vt -1.843269 0.781130
vt -1.842782 0.781425
vt -1.755340 0.777869
vt -1.931587 0.781130
vt -1.931100 0.781425
vt -1.754951 0.778105
vt -1.754951 0.781130
vt -1.754464 0.781425
vt -1.754951 0.773561
vt -1.667021 0.777869
vt -1.666633 0.778105
vt -1.666632 0.781130
vt -1.666145 0.781426
vt -1.666633 0.773561
vt -1.578703 0.777869
vt -1.578314 0.778105
vt -1.578314 0.781130
vt -1.577827 0.781425
vt -1.578314 0.773561
vt -1.490385 0.777869
vt -1.489996 0.778105
vt -1.489996 0.781130
vt -1.489509 0.781426
vt -1.489996 0.773561
vt -1.402067 0.777869
vt -1.401677 0.778105
vt -1.401678 0.781130
vt -1.401191 0.781425
vt -1.391734 0.781041
vt -1.401677 0.773561
vt -1.391734 0.773561
vt 0.799495 1.396360
vt 0.690919 1.396360
vt 1.107920 1.396360
vt 0.999343 1.396360
vt 0.999343 1.348686
vt 0.623930 0.986906
vt 0.999338 1.093675
vt 0.999338 1.133942
vt -1.577827 1.046623
vt -1.578314 1.046919
vt -1.578314 1.049943
vt -1.578703 1.050180
vt -1.666145 1.046623
vt -1.666633 1.046919
vt -1.490385 1.050180
vt -1.578314 1.054488
vt -1.489509 1.046623
vt -1.489996 1.046919
vt -1.489996 1.049944
vt -1.402067 1.050180
vt -1.489996 1.054488
vt -1.401190 1.046623
vt -1.401677 1.046919
vt -1.401677 1.049943
vt -1.391734 1.047008
vt -1.401677 1.054488
vt -1.391734 1.054488
vt -1.754950 1.054488
vt -1.754951 1.049944
vt -1.755340 1.050180
vt -1.931587 1.054488
vt -1.843269 1.054488
vt -1.843658 1.050180
vt -1.843269 1.049944
vt -1.931100 1.046624
vt -1.931587 1.046919
vt -1.842782 1.046623
vt -1.843269 1.046919
vt -1.754464 1.046623
vt -1.754951 1.046919
vt 0.906957 0.575711
vt 1.040928 0.904667
vt 1.308872 1.069145
vt 0.906961 1.803796
vt 1.241892 2.170768
vt 0.556946 2.170768
vt 0.999344 1.648914
vt 1.241892 1.648914
vt 0.556946 1.648914
vt 0.799495 1.690232
vt 0.799495 1.648914
vt 0.999338 0.662717
vt 0.690916 0.660928
vt 0.999337 1.048914
vt 0.999338 0.224734
vt 0.999338 0.226523
vt 0.999339 0.660928
vt 1.174906 2.015887
vt 0.799495 1.958677
vt 0.999338 0.169282
vt 0.973942 0.328994
vt 0.783333 0.496947
vt 0.783333 0.497222
vt 0.783333 0.497442
vt 0.866667 0.533333
vt 0.783333 0.447443
vt 0.783333 0.497222
vt 0.783333 0.446947
vt 0.783333 0.447222
vt 0.783333 0.397443
vt 0.783333 0.396947
vt 0.794445 0.136111
vt 0.794445 0.136387
vt 0.877778 0.177778
vt 0.794444 0.036111
vt 0.794445 -0.000000
vt 0.794445 0.035891
vt 0.794445 0.036111
vt 0.794445 0.135891
vt 0.794445 0.086387
vt 0.794445 0.036387
s 0
usemtl wood
f 15/1/1 69/2/1 5/3/1
f 67/4/1 70/5/1 71/6/1
f 51/7/2 28/8/2 25/9/2
f 18/10/3 72/11/3 15/12/3
f 67/13/3 74/14/3 68/15/3
f 64/16/4 66/17/4 63/18/4
f 51/19/2 25/20/2 75/21/2
f 59/22/5 20/23/5 41/24/5
f 9/25/3 79/26/3 13/27/3
f 40/28/3 80/29/3 82/30/3
f 62/31/6 3/32/6 84/33/6
f 57/34/7 22/35/7 46/36/7
f 14/37/8 7/38/8 16/39/8
f 58/40/3 33/41/3 59/22/3
f 56/42/2 34/43/2 30/44/2
f 47/45/1 27/46/1 53/47/1
f 48/48/6 29/49/6 24/50/6
f 46/51/3 21/52/3 45/53/3
f 66/54/3 10/55/3 65/56/3
f 56/57/2 28/58/2 54/59/2
f 52/60/9 29/49/9 55/61/9
f 4/62/2 87/63/2 85/64/2
f 88/65/2 37/66/2 86/67/2
f 12/68/2 66/69/2 89/70/2
f 11/71/5 91/72/5 17/73/5
f 42/74/10 92/75/10 93/76/10
f 16/77/5 95/78/5 14/79/5
f 49/80/7 96/81/7 97/82/7
f 1/83/6 99/84/6 2/85/6
f 36/86/6 100/87/6 101/88/6
f 20/23/6 19/89/6 41/24/6
f 13/90/1 102/91/1 1/83/1
f 43/92/1 101/88/1 80/93/1
f 58/94/1 24/50/1 32/95/1
f 17/73/3 98/96/3 16/97/3
f 92/75/3 49/98/3 97/99/3
f 7/100/2 85/101/2 76/102/2
f 38/103/2 86/104/2 37/105/2
f 47/45/6 35/106/6 23/107/6
f 2/85/1 73/108/1 18/10/1
f 61/109/1 74/110/1 100/111/1
f 103/112/6 104/113/6 31/114/6
f 14/79/6 105/115/6 8/116/6
f 44/117/6 106/118/6 96/119/6
f 65/56/1 3/32/1 62/31/1
f 45/53/9 35/106/9 60/120/9
f 53/121/3 26/122/3 52/60/3
f 8/116/11 81/123/11 9/25/11
f 39/124/1 82/125/1 106/118/1
f 78/126/12 75/127/12 97/126/12
f 84/128/13 89/129/13 90/129/13
f 102/130/14 79/131/14 85/131/14
f 75/132/3 104/133/3 103/133/3
f 15/1/1 72/134/1 69/2/1
f 67/4/1 63/135/1 70/5/1
f 51/7/2 54/136/2 28/8/2
f 18/10/3 73/108/3 72/11/3
f 67/13/3 71/137/3 74/14/3
f 67/138/15 68/139/15 61/140/15
f 67/138/16 61/140/16 64/16/16
f 61/140/4 36/141/4 64/16/4
f 65/142/4 62/143/4 66/17/4
f 62/143/4 63/18/4 66/17/4
f 63/18/17 67/138/17 64/16/17
f 43/144/4 40/145/4 39/146/4
f 43/144/16 39/146/16 37/147/16
f 39/146/4 44/148/4 37/147/4
f 49/149/4 50/150/4 42/151/4
f 36/141/18 43/144/18 37/147/18
f 49/149/4 42/151/4 38/152/4
f 42/151/4 57/153/4 38/152/4
f 44/148/4 49/149/4 38/152/4
f 46/154/19 45/155/19 60/156/19
f 36/141/4 37/147/4 64/16/4
f 46/154/18 60/156/18 51/157/18
f 60/156/4 47/158/4 51/157/4
f 57/153/16 46/154/16 51/157/16
f 53/159/16 52/160/16 55/161/16
f 44/148/4 38/152/4 37/147/4
f 53/159/16 55/161/16 54/162/16
f 55/161/4 48/163/4 54/162/4
f 47/158/15 53/159/15 54/162/15
f 58/164/4 59/165/4 41/166/4
f 57/153/4 51/157/4 38/152/4
f 51/157/4 47/158/4 54/162/4
f 58/164/4 41/166/4 19/167/4
f 48/163/16 58/164/16 56/168/16
f 58/164/4 19/167/4 34/169/4
f 34/169/4 56/168/4 58/164/4
f 56/168/4 54/162/4 48/163/4
f 78/170/2 38/171/2 51/19/2
f 25/20/2 7/172/2 76/173/2
f 25/20/2 76/173/2 77/174/2
f 75/21/2 78/170/2 51/19/2
f 25/20/2 77/174/2 75/21/2
f 59/22/1 33/41/1 20/23/1
f 9/25/3 81/123/3 79/26/3
f 40/28/3 43/175/3 80/29/3
f 70/5/6 63/135/6 84/33/6
f 63/135/6 62/31/6 84/33/6
f 3/32/6 5/3/6 83/176/6
f 5/3/6 69/177/6 83/176/6
f 3/32/6 83/176/6 84/33/6
f 57/34/7 31/114/7 22/35/7
f 35/178/20 21/179/20 22/180/20
f 31/181/21 11/182/21 7/38/21
f 11/182/22 17/183/22 16/39/22
f 23/184/21 35/178/21 25/185/21
f 35/178/20 22/180/20 25/185/20
f 11/182/23 16/39/23 7/38/23
f 22/180/20 31/181/20 25/185/20
f 29/186/22 26/187/22 27/188/22
f 24/189/21 29/186/21 28/190/21
f 29/186/22 27/188/22 28/190/22
f 20/191/21 33/192/21 32/193/21
f 27/188/24 23/184/24 28/190/24
f 19/194/21 20/191/21 32/193/21
f 24/189/21 28/190/21 30/195/21
f 19/194/21 32/193/21 34/196/21
f 32/193/24 24/189/24 30/195/24
f 34/196/21 32/193/21 30/195/21
f 25/185/21 28/190/21 23/184/21
f 4/197/21 7/38/21 14/37/21
f 7/38/21 25/185/21 31/181/21
f 4/197/25 13/198/25 1/199/25
f 12/200/21 6/201/21 5/202/21
f 6/201/21 4/197/21 1/199/21
f 5/202/26 6/201/26 15/203/26
f 3/204/27 10/205/27 12/200/27
f 5/202/21 3/204/21 12/200/21
f 15/203/22 6/201/22 2/206/22
f 2/206/20 18/207/20 15/203/20
f 6/201/21 1/199/21 2/206/21
f 13/198/22 4/197/22 8/208/22
f 8/208/22 9/209/22 13/198/22
f 4/197/21 14/37/21 8/208/21
f 58/40/3 32/210/3 33/41/3
f 47/45/11 23/107/11 27/46/11
f 48/48/6 55/61/6 29/49/6
f 46/51/3 22/211/3 21/52/3
f 66/54/3 12/212/3 10/55/3
f 56/57/2 30/213/2 28/58/2
f 52/60/5 26/122/5 29/49/5
f 4/62/2 6/214/2 87/63/2
f 88/65/2 64/215/2 37/66/2
f 87/216/2 6/217/2 89/70/2
f 6/217/2 12/68/2 89/70/2
f 66/69/2 64/218/2 90/219/2
f 64/218/2 88/220/2 90/219/2
f 66/69/2 90/219/2 89/70/2
f 11/71/9 94/221/9 91/72/9
f 42/74/28 50/222/28 92/75/28
f 16/77/1 98/223/1 95/78/1
f 49/80/29 44/117/29 96/81/29
f 1/83/6 102/224/6 99/84/6
f 36/86/6 61/109/6 100/87/6
f 13/90/1 79/225/1 102/91/1
f 43/92/9 36/86/9 101/88/9
f 58/94/9 48/48/9 24/50/9
f 17/73/3 91/226/3 98/96/3
f 92/75/3 50/222/3 49/98/3
f 7/100/2 4/227/2 85/101/2
f 38/103/2 78/228/2 86/104/2
f 47/45/6 60/120/6 35/106/6
f 2/85/1 99/229/1 73/108/1
f 61/109/11 68/15/11 74/110/11
f 94/221/6 11/71/6 31/114/6
f 57/34/6 42/74/6 93/76/6
f 57/34/6 93/76/6 103/112/6
f 104/113/6 94/221/6 31/114/6
f 57/34/6 103/112/6 31/114/6
f 14/79/6 95/78/6 105/115/6
f 44/117/6 39/124/6 106/118/6
f 65/56/11 10/55/11 3/32/11
f 45/53/5 21/52/5 35/106/5
f 53/121/3 27/230/3 26/122/3
f 8/116/1 105/115/1 81/123/1
f 39/124/9 40/28/9 82/125/9
f 100/231/12 74/232/12 71/232/12
f 70/233/12 84/234/12 90/234/12
f 101/235/12 100/231/12 71/232/12
f 70/233/12 90/234/12 88/236/12
f 101/235/12 71/232/12 88/236/12
f 71/232/30 70/233/30 88/236/30
f 106/237/12 82/238/12 80/238/12
f 96/239/12 106/237/12 80/238/12
f 101/235/12 88/236/12 86/238/12
f 96/239/12 80/238/12 86/238/12
f 80/238/12 101/235/12 86/238/12
f 93/240/12 92/126/12 97/126/12
f 103/127/12 93/240/12 97/126/12
f 96/239/12 86/238/12 78/126/12
f 103/127/12 97/126/12 75/127/12
f 97/126/30 96/239/30 78/126/30
f 84/128/13 83/128/13 89/129/13
f 91/241/14 94/242/14 98/241/14
f 94/242/14 104/243/14 98/241/14
f 104/243/14 77/243/14 98/241/14
f 77/243/14 76/241/14 98/241/14
f 85/131/14 87/244/14 102/130/14
f 87/244/14 89/245/14 69/246/14
f 102/130/14 87/244/14 72/247/14
f 76/241/14 85/131/14 95/248/14
f 81/131/14 105/249/14 79/131/14
f 105/249/14 95/248/14 79/131/14
f 95/248/14 98/241/14 76/241/14
f 95/248/14 85/131/14 79/131/14
f 89/245/14 83/245/14 69/246/14
f 72/247/14 73/247/14 99/250/14
f 72/247/14 99/250/14 102/130/14
f 69/246/14 72/247/14 87/244/14
f 75/132/3 77/132/3 104/133/3
