# Blender 4.0.2
# www.blender.org
mtllib isolated_plate_wall_roof_6000_win_600x600.mtl
o isolated_plate_wall_roof_6000_win_600x600
v 0.011276 0.559207 2.133173
v 0.000000 0.380992 2.345562
v 0.000000 0.200993 2.560079
v 0.024937 0.560000 2.132228
v 0.011276 0.379207 2.347690
v 0.024937 0.380000 2.346744
v 0.024937 0.740000 1.917711
v 0.000937 1.460001 1.059644
v 0.010527 1.460001 1.059644
v 0.000000 0.560993 2.131045
v 0.011276 1.459208 1.060588
v 0.000937 0.560000 2.132228
v 0.024937 1.460001 1.059643
v 0.000000 1.460993 1.058460
v 0.000937 0.200000 2.561261
v 0.000000 1.280993 1.272977
v 0.000000 0.740993 1.916528
v 0.024938 0.200000 2.561261
v 0.010527 0.560000 2.132228
v 0.011276 0.739207 1.918656
v 0.010527 0.380000 2.346744
v 0.000937 0.920000 1.703194
v 0.010527 0.920000 1.703194
v 0.011276 1.099207 1.489622
v 0.011276 1.279207 1.275105
v 0.010527 0.740000 1.917711
v 0.000937 0.740000 1.917711
v 0.024937 0.920000 1.703194
v 0.000937 1.100000 1.488677
v 0.010527 1.100000 1.488677
v 0.000937 0.380000 2.346744
v 0.024937 1.100000 1.488677
v 0.000000 1.100993 1.487494
v 0.024937 1.280000 1.274161
v 0.011276 0.919207 1.704139
v 0.010527 1.280000 1.274161
v 0.000937 1.280000 1.274161
v 0.000000 0.920993 1.702011
v 0.000937 1.640001 0.845127
v 0.000000 2.180993 0.200393
v 0.010639 2.349142 0.000000
v 0.024937 2.180001 0.201576
v 0.011276 1.639208 0.846072
v 0.010527 1.640001 0.845127
v 0.000000 1.640993 0.843944
v 0.024938 1.640001 0.845127
v 0.011276 1.999208 0.417038
v 0.000000 2.000993 0.414910
v 0.011276 1.819208 0.631555
v 0.011276 2.179208 0.202521
v 0.000000 1.820993 0.629427
v 0.024938 2.000001 0.416093
v 0.010527 2.180001 0.201576
v 0.000937 2.180001 0.201576
v 0.010527 2.000001 0.416093
v 0.010527 1.820001 0.630610
v 0.000937 1.820001 0.630610
v 0.000937 2.000001 0.416093
v 0.024937 2.349142 0.000000
v 0.024938 1.820001 0.630610
v 0.000937 1.640000 -0.845126
v 0.000000 2.180993 -0.200393
v 0.024937 2.180001 -0.201576
v 0.011276 1.639208 -0.846072
v 0.010527 1.640000 -0.845127
v 0.000000 1.640993 -0.843944
v 0.024937 1.640000 -0.845127
v 0.011276 1.999208 -0.417038
v 0.000000 2.000993 -0.414910
v 0.011276 1.819208 -0.631554
v 0.011276 2.179208 -0.202521
v 0.000000 1.820993 -0.629427
v 0.024938 2.000001 -0.416093
v 0.010527 2.180001 -0.201576
v 0.000937 2.180001 -0.201576
v 0.010527 2.000001 -0.416093
v 0.010527 1.820001 -0.630610
v 0.000937 1.820001 -0.630610
v 0.000937 2.000001 -0.416093
v 0.024937 1.820001 -0.630610
v 0.011276 0.559207 -2.133173
v 0.000000 0.380993 -2.345562
v 0.000000 0.200993 -2.560079
v 0.024937 0.560000 -2.132228
v 0.011276 0.379207 -2.347690
v 0.024937 0.380000 -2.346745
v 0.024937 0.740000 -1.917711
v 0.000937 1.460000 -1.059644
v 0.010527 1.460000 -1.059644
v 0.000000 0.560993 -2.131045
v 0.011276 1.459208 -1.060589
v 0.000937 0.560000 -2.132229
v 0.024937 1.460000 -1.059644
v 0.000000 1.460993 -1.058461
v 0.000937 0.200000 -2.561262
v 0.000000 1.280993 -1.272978
v 0.000000 0.740993 -1.916529
v 0.024938 0.200000 -2.561262
v 0.010527 0.560000 -2.132229
v 0.011276 0.739207 -1.918656
v 0.010527 0.380000 -2.346745
v 0.000937 0.920000 -1.703194
v 0.010527 0.920000 -1.703194
v 0.011276 1.099207 -1.489622
v 0.011276 1.279207 -1.275106
v 0.010527 0.740000 -1.917711
v 0.000937 0.740000 -1.917711
v 0.024937 0.920000 -1.703194
v 0.000937 1.100000 -1.488677
v 0.010527 1.100000 -1.488677
v 0.000937 0.380000 -2.346745
v 0.024937 1.100000 -1.488678
v 0.000000 1.100993 -1.487495
v 0.024937 1.280000 -1.274160
v 0.011276 0.919207 -1.704139
v 0.010527 1.280000 -1.274160
v 0.000937 1.280000 -1.274160
v 0.000000 0.920993 -1.702011
v 0.024937 0.920000 0.320000
v 0.024937 0.916877 0.320000
v 0.024937 0.916877 -0.320000
v 0.024937 0.920000 -0.320000
v 0.010527 1.280000 0.320000
v 0.010527 1.280000 -0.320000
v 0.000937 1.280000 0.320000
v 0.000937 1.280000 -0.320000
v 0.010527 1.460001 0.320000
v 0.010527 1.460001 -0.320000
v 0.000937 1.460001 0.320000
v 0.000937 1.460001 -0.320000
v 0.024937 1.280000 0.320000
v 0.024937 1.280000 -0.320000
v 0.024937 1.100000 0.320000
v 0.024937 1.100000 -0.320000
v 0.011129 0.916877 0.320000
v 0.011276 0.919207 0.320000
v 0.011276 0.919207 -0.320000
v 0.011129 0.916877 -0.320000
v 0.000000 1.460993 -0.320000
v 0.000000 1.460993 0.320000
v 0.011276 1.279207 0.320000
v 0.011276 1.279207 -0.320000
v 0.000000 1.100993 0.320000
v 0.000000 1.100993 -0.320000
v 0.000000 1.280993 0.320000
v 0.000000 1.280993 -0.320000
v 0.011276 1.459208 -0.320000
v 0.011276 1.459208 0.320000
v 0.010527 0.920000 0.320000
v 0.010527 0.920000 -0.320000
v 0.000937 0.920000 0.320000
v 0.000937 0.920000 -0.320000
v 0.010527 1.100000 0.320000
v 0.010527 1.100000 -0.320000
v 0.000937 1.100000 0.320000
v 0.000937 1.100000 -0.320000
v 0.000000 0.920993 0.320000
v 0.000000 0.920993 -0.320000
v 0.011276 1.099207 0.320000
v 0.011276 1.099207 -0.320000
v 0.024937 1.460001 0.320000
v 0.024937 1.460001 -0.320000
v 0.006067 1.556877 -0.320000
v 0.006067 1.556877 0.320000
v 0.024937 1.556877 -0.320000
v 0.024937 1.556877 0.320000
vn -0.9980 0.0631 -0.0000
vn 1.0000 -0.0000 -0.0000
vn -0.0000 -1.0000 -0.0000
vn -0.0000 0.7661 -0.6427
vn -0.7272 -0.6864 -0.0000
vn -0.0000 0.7661 0.6427
vn -0.7271 -0.6865 -0.0000
vn -0.7273 -0.6864 -0.0000
vn -0.7270 -0.6866 -0.0000
vn -0.7272 -0.6865 -0.0000
vn -0.7274 -0.6862 -0.0000
vn -0.7271 -0.6866 -0.0000
vn -0.7273 -0.6863 -0.0000
vn -0.0000 -0.0000 1.0000
vn -0.0000 1.0000 -0.0000
vn -0.0000 -0.0000 -1.0000
vn -0.0000 0.7659 -0.6430
vn -0.0000 0.7659 -0.6429
vn -0.0000 0.7660 -0.6428
vn -0.0000 0.7662 -0.6426
vn -0.0000 0.7660 -0.6429
vn -0.0000 0.7662 -0.6427
vn -0.0000 0.7661 -0.6428
vn -0.0000 0.7663 -0.6425
vn -0.0000 0.7660 0.6428
vn -0.0000 0.7661 0.6428
vn -0.0000 0.7659 0.6429
vn -0.0000 0.7662 0.6426
vn -0.0000 0.7663 0.6425
vn -0.0000 0.7659 0.6430
vn -0.0000 0.7658 0.6431
vn -0.0000 0.7662 0.6427
vn -0.0000 0.7663 0.6424
vn -0.7270 -0.6867 -0.0000
vn -0.0000 0.0001 1.0000
vn -0.0000 0.0001 -1.0000
vt 0.702868 0.416000
vt 1.029639 0.471452
vt 0.769189 0.471452
vt 0.233306 0.224734
vt 1.631843 0.169283
vt 1.565522 0.224734
vt 0.233602 2.113559
vt 1.632222 2.170768
vt 0.166616 2.170768
vt 0.635515 0.825406
vt 1.163315 0.822428
vt 1.163315 0.825406
vt 1.498250 1.396360
vt 0.799495 1.340143
vt 0.999343 1.340143
vt 0.635517 2.325651
vt 1.096336 2.268441
vt 1.163321 2.325651
vt 0.149511 1.925276
vt 0.149900 1.925512
vt 0.149900 1.920967
vt 0.300291 1.047125
vt 1.564857 0.991673
vt 1.498537 1.047125
vt 1.297286 0.578689
vt 0.999339 0.575711
vt 1.297286 0.575711
vt 0.501544 0.578689
vt 0.799491 0.575711
vt 0.799491 0.578689
vt 1.096330 0.414211
vt 1.095960 0.416000
vt 1.230301 0.743167
vt 0.999339 0.740189
vt 1.230301 0.740189
vt 0.568529 0.743167
vt 0.799491 0.740189
vt 0.799491 0.743167
vt -0.394086 1.925512
vt -0.393696 1.925276
vt -0.394086 1.920968
vt 1.297293 1.803796
vt 0.999344 1.861005
vt 0.999344 1.803796
vt 0.501545 1.803796
vt 0.799495 1.861005
vt 0.434559 1.861005
vt 0.300956 0.662717
vt 0.999338 0.717444
vt 0.799490 0.717444
vt 0.836175 0.306973
vt 0.962358 0.308762
vt 0.836469 0.308762
vt 0.100000 1.078402
vt 1.699199 1.076610
vt 1.698829 1.078402
vt 0.233602 2.015887
vt 1.498250 1.958677
vt 1.565236 2.015887
vt 1.229931 0.744956
vt 0.999339 0.743167
vt 0.568898 0.744956
vt 0.799491 0.744956
vt 0.635219 0.800408
vt 1.163314 0.802196
vt 0.635513 0.802196
vt 1.297286 0.391001
vt 0.999338 0.389213
vt 1.297581 0.389213
vt 0.501542 0.391001
vt 0.799491 0.389213
vt 0.799490 0.391001
vt 0.702500 0.414211
vt 1.096330 0.411233
vt 0.233602 0.989884
vt 0.233971 0.991673
vt 0.999338 0.333761
vt 1.363901 0.333761
vt 0.501248 0.389213
vt 0.799490 0.333761
vt 0.799491 0.389213
vt 0.836839 0.498239
vt 0.962359 0.496450
vt 0.961989 0.498239
vt 0.836470 0.493472
vt 0.836470 0.496450
vt 0.769484 0.246755
vt 1.029344 0.249733
vt 0.769484 0.249733
vt 1.230595 0.635930
vt 0.999338 0.580478
vt 1.296916 0.580478
vt 0.568233 0.635930
vt 0.799491 0.580478
vt 0.799491 0.635930
vt 0.300588 0.657950
vt 1.498242 0.660928
vt 0.300588 0.660928
vt 0.702204 0.882647
vt 1.096329 0.884436
vt 0.702499 0.884436
vt 1.230300 0.637718
vt 0.999338 0.635930
vt 0.568528 0.637718
vt 0.799491 0.635930
vt 0.799490 0.637718
vt 1.431257 0.907645
vt 0.999339 0.904667
vt 1.431257 0.904667
vt 0.367573 0.907645
vt 0.799491 0.904667
vt 0.799491 0.907645
vt 0.702503 1.473801
vt 1.029350 1.416591
vt 1.096336 1.473801
vt 1.364271 0.331972
vt 0.999338 0.328994
vt 1.364271 0.328994
vt 0.434557 0.331972
vt 0.799490 0.328994
vt 0.799490 0.331972
vt 1.632509 1.133942
vt 0.166321 1.133942
vt 1.028975 0.251522
vt 0.962654 0.306973
vt 1.162946 0.827195
vt 1.096625 0.882647
vt 1.364566 0.964886
vt 0.999338 0.909434
vt 1.430887 0.909434
vt 0.434262 0.964886
vt 0.799491 0.909434
vt 0.799491 0.964886
vt 0.166616 1.648914
vt 1.699208 1.706124
vt 0.099630 1.706124
vt 0.769854 0.251522
vt 1.230307 2.191000
vt 0.999343 2.248210
vt 0.999343 2.191000
vt 0.568531 2.191000
vt 0.799495 2.248210
vt 0.501545 2.248210
vt 0.799491 0.774790
vt 0.999338 0.774790
vt 1.163610 0.800408
vt 0.166616 0.164515
vt 1.632212 0.167494
vt 0.166616 0.167494
vt 1.029344 0.473241
vt 0.769484 0.473241
vt 1.497872 0.662717
vt 1.431256 0.719958
vt 0.999338 0.718169
vt 1.431551 0.718169
vt 0.367571 0.719958
vt 0.799490 0.718169
vt 0.799490 0.719958
vt 0.635517 2.345882
vt 1.163321 2.345882
vt 0.799495 2.372301
vt 0.999338 0.331972
vt 0.434927 0.333761
vt 0.799490 0.331972
vt 1.632213 1.135734
vt 0.166615 1.135734
vt 0.233602 0.986906
vt 1.565227 0.989884
vt 0.899414 0.550559
vt 0.999339 0.907645
vt 0.367941 0.909434
vt 0.799490 0.909434
vt 0.635883 0.827195
vt 0.999339 0.578689
vt 0.501912 0.580478
vt 0.300586 1.048913
vt 1.498242 1.048914
vt 0.099632 1.069145
vt 0.099632 1.076610
vt 1.364271 0.966675
vt 0.999338 0.964886
vt 0.434557 0.966675
vt 0.799491 0.964886
vt 0.799490 0.966675
vt 1.565227 0.226523
vt 0.233600 0.226523
vt 0.836474 1.318919
vt 0.899419 1.265161
vt 0.962364 1.318919
vt 0.166985 0.169282
vt 1.364279 1.726355
vt 0.999343 1.783565
vt 0.999343 1.726355
vt 0.434559 1.726355
vt 0.799495 1.783565
vt 0.367573 1.783565
vt 0.769488 1.938446
vt 0.962364 1.881237
vt 1.029350 1.938446
vt 0.533333 0.482686
vt 0.533333 0.532466
vt 0.639705 0.533333
vt 0.635869 0.533333
vt 0.533333 0.534201
vt 0.533333 0.583981
vt 0.639705 0.711111
vt 0.634463 0.711111
vt 1.565236 2.113559
vt 0.635514 0.822428
vt 0.999343 1.339151
vt 1.431265 1.339151
vt 0.300588 1.396360
vt 0.367573 1.339150
vt 0.799495 1.339150
vt 0.702502 2.268441
vt 0.503172 1.925512
vt 0.503172 1.928537
vt 0.503659 1.928832
vt 0.503172 1.920968
vt 0.591101 1.925276
vt 0.414854 1.928537
vt 0.415341 1.928832
vt 0.414854 1.925512
vt 0.502783 1.925276
vt 0.414854 1.920967
vt 0.591490 1.925512
vt 0.591490 1.928537
vt 0.591977 1.928832
vt 0.591490 1.920967
vt 0.679419 1.925276
vt 0.679808 1.925512
vt 0.679808 1.928537
vt 0.680295 1.928832
vt 0.679808 1.920967
vt 0.767737 1.925276
vt 0.768126 1.925512
vt 0.768126 1.928537
vt 0.768613 1.928832
vt 0.768126 1.920967
vt 0.856055 1.925276
vt 0.856444 1.925512
vt 0.856444 1.928537
vt 0.856931 1.928832
vt 0.856444 1.920967
vt 0.944373 1.925276
vt 0.944762 1.925512
vt 0.944762 1.928537
vt 0.945249 1.928832
vt 0.944762 1.920968
vt 1.027753 1.925477
vt 1.027753 1.920967
vt 0.326536 1.920967
vt 0.238218 1.920967
vt 0.326147 1.925276
vt 0.237829 1.925276
vt 0.326536 1.925512
vt 0.414465 1.925276
vt 0.326536 1.928537
vt 0.327023 1.928832
vt 0.061582 1.920967
vt -0.026736 1.920967
vt 0.061193 1.925276
vt -0.026736 1.928537
vt -0.026249 1.928832
vt 0.238705 1.928832
vt 0.238218 1.925512
vt 0.238218 1.928537
vt 0.150387 1.928832
vt 0.061582 1.925512
vt 0.061582 1.928537
vt 0.062069 1.928832
vt 0.149900 1.928537
vt 0.999339 0.578689
vt 0.501544 0.575711
vt 0.999339 0.743167
vt 0.568529 0.740189
vt -1.011922 1.925276
vt -0.924481 1.928832
vt -0.923994 1.920967
vt -0.923994 1.928537
vt -0.923994 1.925512
vt -1.012799 1.928832
vt -1.012312 1.928537
vt -1.012312 1.925512
vt -0.923604 1.925276
vt -1.100240 1.925276
vt -1.012312 1.920967
vt -1.101117 1.928832
vt -1.100630 1.928537
vt -1.100629 1.925512
vt -1.188559 1.925276
vt -1.100630 1.920967
vt -1.189435 1.928832
vt -1.188948 1.928537
vt -1.188948 1.925512
vt -1.271938 1.925477
vt -1.271938 1.920967
vt -1.188948 1.920968
vt -0.835676 1.920967
vt -0.570722 1.920967
vt -0.659040 1.920967
vt -0.658650 1.925276
vt -0.747357 1.920968
vt -0.746969 1.925276
vt -0.835287 1.925276
vt -0.747845 1.928832
vt -0.836163 1.928832
vt -0.835676 1.925512
vt -0.835676 1.928537
vt -0.747357 1.925512
vt -0.482404 1.920967
vt -0.570333 1.925276
vt -0.747357 1.928537
vt -0.482015 1.925276
vt -0.659527 1.928832
vt -0.659040 1.925512
vt -0.217450 1.920967
vt -0.305768 1.920968
vt -0.305378 1.925276
vt -0.217936 1.928832
vt -0.217450 1.928537
vt -0.306254 1.928832
vt -0.571209 1.928832
vt -0.482404 1.925512
vt -0.659040 1.928537
vt -0.305768 1.928537
vt -0.305768 1.925512
vt -0.570722 1.928537
vt -0.570722 1.925512
vt -0.482891 1.928832
vt -0.482404 1.928537
vt -0.394573 1.928832
vt -0.394086 1.928537
vt 1.364279 1.861005
vt 0.799495 1.803796
vt 0.799491 0.718169
vt 0.367277 0.718169
vt 0.999338 0.718169
vt 0.300588 1.958677
vt 0.999338 0.744956
vt 0.999338 0.391001
vt 0.702500 0.411233
vt 0.999338 0.389213
vt 0.962359 0.493472
vt 1.029344 0.246755
vt 1.498242 0.657950
vt 0.999338 0.637718
vt 0.999339 0.907645
vt 0.367573 0.904667
vt 0.769488 1.416591
vt 0.999338 0.331972
vt 0.434557 0.328994
vt 0.999338 0.964886
vt 1.632222 1.648914
vt 1.297293 2.248210
vt 0.799495 2.191000
vt 0.799491 0.744956
vt 1.632212 0.164516
vt 0.999338 0.719958
vt 0.799495 2.403091
vt 0.568531 2.403091
vt 1.230307 2.403091
vt 0.999343 2.403091
vt 0.999344 2.372301
vt 0.999338 0.333761
vt 1.565227 0.986906
vt 0.999338 0.909434
vt 1.699199 1.069145
vt 0.999337 0.966675
vt 1.431265 1.783565
vt 0.799495 1.726355
vt 0.836474 1.881237
vt 0.533333 0.382190
vt 0.533333 0.382466
vt 0.533333 0.382686
vt 0.533333 0.432190
vt 0.533333 0.432466
vt 0.533333 0.355556
vt 0.533333 0.482466
vt 0.533333 0.432686
vt 0.616667 0.533333
vt 0.533333 0.532686
vt 0.533333 0.482190
vt 0.533333 0.532190
vt 0.533333 0.584201
vt 0.533333 0.584477
vt 0.533333 0.633981
vt 0.533333 0.634201
vt 0.533333 0.634477
vt 0.533333 0.683981
vt 0.533333 0.684201
vt 0.533333 0.684477
vt 0.616667 0.711111
vt 0.533333 0.533333
vt 0.533333 0.533981
vt 0.533333 0.534477
vt 0.639705 0.711111
s 0
usemtl wood
f 72/1/1 47/2/1 68/3/1
f 81/4/1 2/5/1 1/6/1
f 84/7/2 6/8/2 86/9/2
f 61/10/3 44/11/3 39/12/3
f 7/13/2 121/14/2 120/15/2
f 67/16/2 60/17/2 46/18/2
f 81/19/4 99/20/4 84/21/4
f 100/22/1 10/23/1 20/24/1
f 37/25/3 123/26/3 36/27/3
f 117/28/3 124/29/3 126/30/3
f 72/1/5 57/31/5 51/32/5
f 8/33/3 127/34/3 9/35/3
f 88/36/3 128/37/3 130/38/3
f 19/39/6 1/40/6 4/41/6
f 34/42/2 133/43/2 131/44/2
f 114/45/2 134/46/2 112/47/2
f 97/48/1 135/49/1 138/50/1
f 71/51/7 53/52/7 74/53/7
f 83/54/7 15/55/7 3/56/7
f 84/57/2 7/58/2 4/59/2
f 14/60/8 129/61/8 8/33/8
f 94/62/5 130/38/5 139/63/5
f 64/64/9 44/65/9 65/66/9
f 36/67/7 141/68/7 25/69/7
f 116/70/10 142/71/10 124/72/10
f 78/73/3 56/74/3 57/31/3
f 92/75/5 10/23/5 90/76/5
f 25/69/1 143/77/1 33/78/1
f 105/79/1 144/80/1 142/81/1
f 62/82/7 54/83/7 40/84/7
f 74/85/3 54/83/3 75/86/3
f 76/87/3 58/88/3 79/89/3
f 11/90/1 145/91/1 16/92/1
f 91/93/1 146/94/1 147/95/1
f 106/96/3 27/97/3 107/98/3
f 70/99/5 56/100/5 77/101/5
f 9/102/7 148/103/7 11/90/7
f 89/104/5 147/105/5 128/106/5
f 22/107/3 149/108/3 23/109/3
f 102/110/3 150/111/3 152/112/3
f 80/113/2 52/114/2 60/115/2
f 29/116/3 153/117/3 30/118/3
f 109/119/3 154/120/3 156/121/3
f 83/54/1 5/122/1 85/123/1
f 71/51/1 48/124/1 50/125/1
f 70/99/1 45/126/1 49/127/1
f 24/128/1 157/129/1 38/130/1
f 104/131/1 158/132/1 160/133/1
f 86/134/2 18/135/2 98/136/2
f 79/89/7 48/124/7 69/137/7
f 13/138/2 131/139/2 161/140/2
f 93/141/2 132/142/2 114/143/2
f 163/144/1 164/145/1 43/146/1
f 101/147/3 31/148/3 111/149/3
f 68/3/11 55/150/11 76/151/11
f 107/98/7 17/152/7 97/48/7
f 23/153/12 136/154/12 35/155/12
f 103/156/10 137/157/10 150/158/10
f 67/159/2 46/160/2 165/161/2
f 33/78/7 155/162/7 29/116/7
f 113/163/7 156/164/7 144/80/7
f 85/123/7 21/165/7 101/166/7
f 99/167/3 12/168/3 92/75/3
f 40/84/1 41/169/1 62/82/1
f 38/130/7 151/170/7 22/107/7
f 118/171/7 152/112/7 158/172/7
f 61/10/13 45/126/13 66/173/13
f 16/92/7 125/174/7 37/25/7
f 96/175/7 126/30/7 146/94/7
f 106/176/7 20/24/7 26/177/7
f 98/178/3 15/55/3 95/179/3
f 30/180/9 159/181/9 24/128/9
f 110/182/7 160/183/7 154/184/7
f 81/4/9 19/185/9 99/186/9
f 63/187/2 59/188/2 42/189/2
f 82/190/5 31/148/5 2/5/5
f 32/191/2 119/192/2 133/193/2
f 112/194/2 122/195/2 108/196/2
f 73/197/2 42/198/2 52/199/2
f 160/200/14 150/201/14 122/201/14
f 120/202/15 138/203/15 135/203/15
f 119/204/16 149/204/16 159/205/16
f 165/206/3 164/207/3 163/207/3
f 72/1/1 51/32/1 47/2/1
f 81/4/1 82/190/1 2/5/1
f 84/7/2 4/208/2 6/8/2
f 61/10/3 65/209/3 44/11/3
f 119/210/2 28/211/2 120/15/2
f 28/211/2 7/13/2 120/15/2
f 7/13/2 87/212/2 121/14/2
f 87/212/2 108/213/2 121/14/2
f 108/213/2 122/214/2 121/14/2
f 67/16/2 80/215/2 60/17/2
f 116/216/17 117/217/17 96/218/17
f 116/216/18 96/218/18 114/219/18
f 96/218/19 91/220/19 114/219/19
f 109/221/18 113/222/18 110/223/18
f 113/222/19 105/224/19 112/225/19
f 110/223/18 113/222/18 112/225/18
f 105/224/20 116/216/20 114/219/20
f 89/226/21 88/227/21 94/228/21
f 89/226/18 94/228/18 93/229/18
f 94/228/19 64/230/19 93/229/19
f 65/231/18 61/232/18 66/233/18
f 91/220/4 89/226/4 93/229/4
f 65/231/19 66/233/19 67/234/19
f 66/233/19 70/235/19 67/234/19
f 64/230/4 65/231/4 67/234/4
f 77/236/20 78/237/20 72/238/20
f 77/236/4 72/238/4 80/239/4
f 72/238/19 68/240/19 80/239/19
f 76/241/4 79/242/4 69/243/4
f 70/235/21 77/236/21 80/239/21
f 76/241/22 69/243/22 73/244/22
f 69/243/19 71/245/19 73/244/19
f 80/239/19 68/240/19 73/244/19
f 68/240/17 76/241/17 73/244/17
f 74/246/4 75/247/4 62/248/4
f 74/246/22 62/248/22 63/249/22
f 62/248/19 41/250/19 59/251/19
f 63/249/19 62/248/19 59/251/19
f 71/245/17 74/246/17 63/249/17
f 63/249/19 73/244/19 71/245/19
f 80/239/19 67/234/19 70/235/19
f 67/234/19 93/229/19 64/230/19
f 93/229/19 114/219/19 91/220/19
f 114/219/19 112/225/19 105/224/19
f 108/252/19 87/253/19 115/254/19
f 87/253/19 84/21/19 100/255/19
f 108/252/23 115/254/23 103/256/23
f 112/225/19 108/252/19 104/257/19
f 112/225/23 104/257/23 110/223/23
f 102/258/4 118/259/4 103/256/4
f 118/259/19 104/257/19 108/252/19
f 103/256/19 118/259/19 108/252/19
f 86/260/19 98/261/19 85/262/19
f 98/261/19 95/263/19 83/264/19
f 84/21/19 86/260/19 81/19/19
f 115/254/19 87/253/19 97/265/19
f 87/253/17 100/255/17 106/266/17
f 98/261/19 83/264/19 85/262/19
f 107/267/19 97/265/19 106/266/19
f 106/266/24 97/265/24 87/253/24
f 100/255/19 84/21/19 90/268/19
f 86/260/17 85/262/17 101/269/17
f 101/269/23 111/270/23 82/271/23
f 101/269/21 82/271/21 86/260/21
f 82/271/19 81/19/19 86/260/19
f 92/272/23 90/268/23 99/20/23
f 99/20/21 90/268/21 84/21/21
f 100/22/1 90/76/1 10/23/1
f 37/25/3 125/273/3 123/26/3
f 117/28/3 116/274/3 124/29/3
f 72/1/9 78/73/9 57/31/9
f 8/33/3 129/275/3 127/34/3
f 88/36/3 89/276/3 128/37/3
f 49/277/25 45/278/25 46/279/25
f 45/278/6 39/280/6 44/281/6
f 45/278/25 44/281/25 46/279/25
f 51/282/25 57/283/25 56/284/25
f 44/281/25 43/285/25 46/279/25
f 47/286/25 51/282/25 60/287/25
f 51/282/25 56/284/25 60/287/25
f 56/284/26 49/277/26 60/287/26
f 48/288/26 58/289/26 55/290/26
f 50/291/25 48/288/25 52/292/25
f 48/288/25 55/290/25 52/292/25
f 40/293/27 54/294/27 53/295/27
f 55/290/25 47/286/25 52/292/25
f 41/296/25 40/293/25 59/297/25
f 40/293/27 53/295/27 42/298/27
f 40/293/25 42/298/25 59/297/25
f 53/295/6 50/291/6 42/298/6
f 60/287/25 52/292/25 47/286/25
f 52/292/25 42/298/25 50/291/25
f 13/299/25 46/279/25 43/285/25
f 46/279/25 60/287/25 49/277/25
f 28/300/25 32/301/25 24/302/25
f 32/301/25 34/303/25 25/304/25
f 11/305/25 34/303/25 13/299/25
f 34/303/25 11/305/25 16/306/25
f 13/299/25 43/285/25 14/307/25
f 11/305/27 13/299/27 9/308/27
f 14/307/28 8/309/28 9/308/28
f 25/304/27 34/303/27 36/310/27
f 7/311/25 28/300/25 35/312/25
f 14/307/29 9/308/29 13/299/29
f 16/306/28 37/313/28 36/310/28
f 4/41/25 7/311/25 20/314/25
f 32/301/25 25/304/25 33/315/25
f 24/302/6 32/301/6 30/316/6
f 18/317/25 6/318/25 5/319/25
f 6/318/25 4/41/25 1/40/25
f 3/320/30 15/321/30 18/317/30
f 5/319/25 3/320/25 18/317/25
f 6/318/25 1/40/25 2/322/25
f 16/306/28 36/310/28 34/303/28
f 28/300/25 24/302/25 38/323/25
f 20/314/27 7/311/27 26/324/27
f 33/315/25 29/325/25 30/316/25
f 33/315/28 30/316/28 32/301/28
f 2/322/31 31/326/31 21/327/31
f 2/322/31 21/327/31 6/318/31
f 38/323/6 22/328/6 23/329/6
f 38/323/32 23/329/32 28/300/32
f 23/329/25 35/312/25 28/300/25
f 35/312/25 17/330/25 7/311/25
f 17/330/6 27/331/6 26/324/6
f 17/330/6 26/324/6 7/311/6
f 21/327/33 5/319/33 6/318/33
f 10/332/25 12/333/25 19/39/25
f 20/314/25 10/332/25 4/41/25
f 10/332/27 19/39/27 4/41/27
f 34/42/2 32/334/2 133/43/2
f 114/45/2 132/335/2 134/46/2
f 137/336/1 115/337/1 138/50/1
f 115/337/1 97/48/1 138/50/1
f 97/48/1 17/152/1 135/49/1
f 17/152/1 35/155/1 135/49/1
f 35/155/1 136/338/1 135/49/1
f 71/51/7 50/125/7 53/52/7
f 83/54/10 95/179/10 15/55/10
f 84/57/2 87/339/2 7/58/2
f 14/60/9 140/340/9 129/61/9
f 94/62/9 88/36/9 130/38/9
f 64/64/5 43/146/5 44/65/5
f 36/67/10 123/341/10 141/68/10
f 116/70/7 105/79/7 142/71/7
f 78/73/3 77/342/3 56/74/3
f 92/75/7 12/168/7 10/23/7
f 25/69/1 141/343/1 143/77/1
f 105/79/1 113/163/1 144/80/1
f 62/82/5 75/86/5 54/83/5
f 74/85/3 53/344/3 54/83/3
f 76/87/3 55/345/3 58/88/3
f 11/90/1 148/103/1 145/91/1
f 91/93/1 96/175/1 146/94/1
f 106/96/3 26/346/3 27/97/3
f 70/99/34 49/127/34 56/100/34
f 9/102/34 127/347/34 148/103/34
f 89/104/7 91/93/7 147/105/7
f 22/107/3 151/348/3 149/108/3
f 102/110/3 103/349/3 150/111/3
f 80/113/2 73/350/2 52/114/2
f 29/116/3 155/351/3 153/117/3
f 109/119/3 110/352/3 154/120/3
f 83/54/1 3/56/1 5/122/1
f 71/51/1 69/137/1 48/124/1
f 70/99/1 66/173/1 45/126/1
f 24/128/1 159/353/1 157/129/1
f 104/131/1 118/171/1 158/132/1
f 86/134/2 6/354/2 18/135/2
f 79/89/9 58/88/9 48/124/9
f 13/138/2 34/355/2 131/139/2
f 93/141/2 162/356/2 132/142/2
f 140/340/1 14/60/1 43/146/1
f 64/64/1 94/62/1 139/357/1
f 64/64/1 139/357/1 163/144/1
f 164/145/1 140/340/1 43/146/1
f 64/64/1 163/144/1 43/146/1
f 101/147/3 21/358/3 31/148/3
f 68/3/12 47/2/12 55/150/12
f 107/98/10 27/97/10 17/152/10
f 23/153/10 149/359/10 136/154/10
f 103/156/7 115/337/7 137/157/7
f 162/360/2 93/361/2 67/159/2
f 46/160/2 13/362/2 161/363/2
f 46/160/2 161/363/2 166/364/2
f 165/161/2 162/360/2 67/159/2
f 46/160/2 166/364/2 165/161/2
f 33/78/7 143/365/7 155/162/7
f 113/163/5 109/119/5 156/164/5
f 85/123/34 5/122/34 21/165/34
f 99/167/3 19/366/3 12/168/3
f 38/130/7 157/367/7 151/170/7
f 118/171/9 102/110/9 152/112/9
f 61/10/12 39/12/12 45/126/12
f 16/92/5 145/91/5 125/174/5
f 96/175/7 117/28/7 126/30/7
f 106/176/5 100/22/5 20/24/5
f 98/178/3 18/368/3 15/55/3
f 30/180/7 153/369/7 159/181/7
f 110/182/7 104/131/7 160/183/7
f 81/4/5 1/6/5 19/185/5
f 82/190/5 111/149/5 31/148/5
f 32/191/2 28/370/2 119/192/2
f 112/194/2 134/371/2 122/195/2
f 73/197/2 63/372/2 42/198/2
f 139/373/14 130/374/14 128/374/14
f 147/375/14 146/376/14 124/377/14
f 146/376/14 126/377/14 124/377/14
f 163/378/14 139/373/14 128/374/14
f 163/378/14 128/374/14 165/378/14
f 128/374/14 147/375/14 162/374/14
f 162/374/14 165/378/14 128/374/14
f 134/379/14 132/377/14 142/380/14
f 132/377/14 162/374/14 147/375/14
f 142/380/14 132/377/14 124/377/14
f 138/381/14 121/381/14 137/382/14
f 121/381/14 122/201/14 137/382/14
f 122/201/14 134/379/14 160/200/14
f 147/375/14 124/377/14 132/377/14
f 142/380/14 144/383/14 154/379/14
f 144/383/14 156/379/14 154/379/14
f 158/384/14 152/201/14 150/201/14
f 150/201/35 137/382/35 122/201/35
f 134/379/14 142/380/14 154/379/14
f 160/200/14 134/379/14 154/379/14
f 160/200/14 158/384/14 150/201/14
f 120/202/15 121/202/15 138/203/15
f 155/385/16 143/386/16 153/385/16
f 143/386/16 141/387/16 153/385/16
f 123/388/36 125/388/36 145/389/36
f 123/388/16 145/389/16 148/390/16
f 159/205/16 153/385/16 133/385/16
f 153/385/16 141/387/16 133/385/16
f 141/387/16 123/388/16 131/388/16
f 123/388/16 148/390/16 131/388/16
f 127/391/16 129/391/16 140/392/16
f 127/391/16 140/392/16 164/393/16
f 164/393/16 166/393/16 127/391/16
f 166/393/16 161/391/16 127/391/16
f 131/388/16 133/385/16 141/387/16
f 133/385/16 119/204/16 159/205/16
f 161/391/16 131/388/16 148/390/16
f 148/390/16 127/391/16 161/391/16
f 119/204/16 120/394/16 136/395/16
f 120/394/16 135/394/16 136/395/16
f 149/204/16 151/204/16 157/396/16
f 119/204/36 136/395/36 149/204/36
f 149/204/16 157/396/16 159/205/16
f 165/206/3 166/397/3 164/207/3
