# Blender 4.0.2
# www.blender.org
mtllib isolated_plate_wall_roof_5000_frame_win_600x600.mtl
o isolated_plate_wall_roof_5000_frame_win_600x600
v 0.094938 0.250000 -2.001674
v 0.094938 0.250000 2.001674
v 0.024938 0.250000 -2.001674
v 0.024938 0.250000 2.001674
v 0.094938 0.200000 -2.061262
v 0.094938 0.200000 2.061261
v 0.024938 0.200000 -2.061262
v 0.024938 0.200000 2.061261
v 0.094938 1.908626 0.025000
v 0.094938 0.250000 2.001674
v 0.024938 1.908626 0.025000
v 0.024938 0.250000 2.001674
v 0.094938 1.843356 0.025000
v 0.094938 0.250000 1.923888
v 0.024938 1.843356 0.025000
v 0.024938 0.250000 1.923888
v 0.094938 1.908626 0.025000
v 0.094938 1.466877 0.025000
v 0.024938 1.908626 0.025000
v 0.024938 1.466877 0.025000
v 0.094938 1.908626 -0.025000
v 0.094938 1.466877 -0.025000
v 0.024938 1.908626 -0.025000
v 0.024938 1.466877 -0.025000
v 0.094938 1.299910 0.672653
v 0.094938 0.250000 0.672653
v 0.024938 1.299910 0.672653
v 0.024938 0.250000 0.672653
v 0.094938 1.257956 0.722653
v 0.094938 0.250000 0.722653
v 0.024938 1.257956 0.722653
v 0.024938 0.250000 0.722653
v 0.094938 0.962300 1.075000
v 0.094938 0.250000 1.075000
v 0.024938 0.962300 1.075000
v 0.024938 0.250000 1.075000
v 0.094938 0.920346 1.125000
v 0.094938 0.250000 1.125000
v 0.024938 0.920346 1.125000
v 0.024938 0.250000 1.125000
v 0.094938 0.500796 1.625000
v 0.094938 0.250000 1.625000
v 0.024938 0.500796 1.625000
v 0.024938 0.250000 1.625000
v 0.094938 0.458842 1.675000
v 0.094938 0.250000 1.675000
v 0.024938 0.458842 1.675000
v 0.024938 0.250000 1.675000
v 0.024938 0.250000 -1.675000
v 0.024938 0.458842 -1.675000
v 0.094938 0.250000 -1.675000
v 0.094938 0.458842 -1.675000
v 0.024938 0.250000 -1.625000
v 0.024938 0.500796 -1.625000
v 0.094938 0.250000 -1.625000
v 0.094938 0.500796 -1.625000
v 0.024938 0.250000 -1.125000
v 0.024938 0.920346 -1.125000
v 0.094938 0.250000 -1.125000
v 0.094938 0.920346 -1.125000
v 0.024938 0.250000 -1.075000
v 0.024938 0.962300 -1.075000
v 0.094938 0.250000 -1.075000
v 0.094938 0.962300 -1.075000
v 0.024938 0.250000 -1.923888
v 0.024938 1.843356 -0.025000
v 0.094938 0.250000 -1.923888
v 0.094938 1.843356 -0.025000
v 0.024938 0.250000 -2.001674
v 0.024938 1.908626 -0.025000
v 0.094938 0.250000 -2.001674
v 0.094938 1.908626 -0.025000
v 0.094938 0.776877 -0.320000
v 0.094938 0.776877 0.320000
v 0.024938 0.776877 -0.320000
v 0.024938 0.776877 0.320000
v 0.094938 0.726878 -0.320000
v 0.094938 0.726877 0.320000
v 0.024938 0.726877 -0.320000
v 0.024938 0.726877 0.320000
v 0.094938 1.466877 -0.320000
v 0.094938 1.466877 0.320000
v 0.024938 1.466877 -0.320000
v 0.024938 1.466877 0.320000
v 0.094938 1.416877 -0.320000
v 0.094938 1.416877 0.320000
v 0.024938 1.416877 -0.320000
v 0.024938 1.416877 0.320000
v 0.094938 0.726877 0.025000
v 0.094938 0.250000 0.025000
v 0.024938 0.726877 0.025000
v 0.024938 0.250000 0.025000
v 0.094938 0.726877 -0.025000
v 0.094938 0.250000 -0.025000
v 0.024938 0.726877 -0.025000
v 0.024938 0.250000 -0.025000
v 0.094938 1.595821 0.319999
v 0.094938 0.250000 0.320000
v 0.024938 1.595821 0.319999
v 0.024938 0.250000 0.320000
v 0.094938 1.553867 0.369999
v 0.094938 0.250000 0.370000
v 0.024938 1.553867 0.369999
v 0.024938 0.250000 0.370000
v 0.094938 1.299910 -0.672653
v 0.094938 0.250000 -0.672653
v 0.024938 1.299910 -0.672653
v 0.024938 0.250000 -0.672653
v 0.094938 1.257956 -0.722653
v 0.094938 0.250000 -0.722653
v 0.024938 1.257956 -0.722653
v 0.024938 0.250000 -0.722653
v 0.094938 1.595821 -0.319999
v 0.094938 0.250000 -0.320000
v 0.024938 1.595821 -0.319999
v 0.024938 0.250000 -0.320000
v 0.094938 1.553867 -0.369999
v 0.094938 0.250000 -0.370000
v 0.024938 1.553867 -0.369999
v 0.024938 0.250000 -0.370000
vn -0.0000 1.0000 -0.0000
vn -0.0000 -1.0000 -0.0000
vn -0.0000 0.7660 -0.6428
vn -1.0000 -0.0000 -0.0000
vn 1.0000 -0.0000 -0.0000
vn -0.0000 0.7660 0.6428
vn -0.0000 -0.7660 -0.6428
vn -0.0000 -0.0000 -1.0000
vn -0.0000 -0.0000 1.0000
vn -0.0000 -0.7660 0.6428
vt 2.026316 0.869281
vt 0.718033 0.869281
vt 0.718033 0.892157
vt 2.026316 0.892157
vt 2.045787 0.915033
vt 2.045788 0.892157
vt 0.698560 0.892157
vt 0.698560 0.915033
vt 0.369283 0.293029
vt 0.369283 0.309369
vt 0.392158 0.309369
vt 0.392158 0.293029
vt 0.218034 0.743692
vt 0.198561 0.760033
vt 1.545790 0.760030
vt 1.526319 0.743690
vt -0.539389 0.782907
vt -0.558860 0.799247
vt 0.788368 0.799247
vt 0.768896 0.782907
vt 0.392155 0.276687
vt 0.392155 0.293027
vt 0.415031 0.293027
vt 0.415031 0.276687
vt 1.805767 0.869281
vt 1.159796 0.869282
vt 1.159796 0.892157
vt 1.805768 0.892157
vt 1.780345 0.915033
vt 1.780346 0.892157
vt 1.159795 0.892158
vt 1.159795 0.915034
vt 1.062637 -0.373840
vt 1.054989 -0.364728
vt 1.072510 -0.350021
vt 1.080158 -0.359133
vt 0.599564 0.026940
vt 0.613276 0.043282
vt 1.423352 0.043326
vt 1.442825 0.026985
vt -0.478080 0.048658
vt -0.458607 0.064998
vt 0.351440 0.064973
vt 0.365149 0.048632
vt 0.363178 0.484305
vt 0.354099 0.493385
vt 0.370278 0.509557
vt 0.379357 0.500477
vt 0.130719 1.380345
vt 0.130719 1.380345
vt 0.107843 1.380345
vt 0.084967 1.364004
vt 0.107843 1.364004
vt 0.107843 1.364004
vt 0.084967 1.364004
vt 1.575016 0.369293
vt 1.574994 0.392168
vt 0.798367 0.880383
vt 0.798363 0.864039
vt 0.653995 0.864031
vt 0.653998 0.880374
vt 0.614768 0.106570
vt 0.614766 0.122912
vt 0.759129 0.122909
vt 0.759131 0.106566
vt -0.166054 0.392158
vt -0.166049 0.392157
vt -0.166034 0.415033
vt -0.166074 0.415035
vt 0.130719 1.380345
vt 0.107843 1.380345
vt 0.130719 1.380345
vt 0.084967 1.364004
vt 0.084967 1.364004
vt 0.107843 1.364004
vt 0.107843 1.364004
vt 1.575015 0.369289
vt 1.574993 0.392164
vt 1.574993 0.392164
vt 1.575015 0.369289
vt 0.599498 1.271838
vt 0.256368 1.271812
vt 0.256373 1.288155
vt 0.585791 1.288179
vt 0.217144 -0.284851
vt 0.560254 -0.284868
vt 0.546546 -0.301209
vt 0.217146 -0.301193
vt -0.166605 0.392194
vt -0.166607 0.415070
vt -0.166629 0.415072
vt -0.166627 0.392196
vt 0.130719 1.380345
vt 0.084966 1.364004
vt 0.084966 1.364004
vt 0.107842 1.364004
vt 0.107842 1.364004
vt 1.575014 0.369294
vt 1.574993 0.392168
vt 1.574993 0.392169
vt 1.575014 0.369295
vt 0.489192 1.583097
vt 0.256402 1.583084
vt 0.256403 1.599422
vt 0.475482 1.599437
vt 0.217184 -0.596106
vt 0.449962 -0.596114
vt 0.436253 -0.612455
vt 0.217186 -0.612448
vt -0.167036 0.392221
vt -0.167044 0.415098
vt -0.167063 0.415098
vt -0.167059 0.392222
vt 0.107843 1.380345
vt 0.084965 1.364004
vt 0.084965 1.364004
vt 0.107841 1.364004
vt 1.575015 0.369291
vt 1.574994 0.392166
vt 1.574994 0.392165
vt 1.575015 0.369290
vt 0.338397 1.942614
vt 0.256434 1.942610
vt 0.256439 1.958948
vt 0.324691 1.958952
vt 0.217226 -0.955608
vt 0.299187 -0.955611
vt 0.285480 -0.971951
vt 0.217232 -0.971947
vt -0.167538 0.392250
vt -0.167538 0.415129
vt -0.167564 0.415132
vt -0.167553 0.392251
vt 0.084967 1.364004
vt 0.107843 1.364004
vt 0.431767 0.010153
vt 0.415427 0.010154
vt 0.415401 0.219334
vt 0.431742 0.219334
vt -0.166522 0.392189
vt -0.166522 0.392189
vt -0.166525 0.415066
vt 1.575011 0.369291
vt 1.575012 0.369291
vt 1.574991 0.392166
vt 1.574991 0.392166
vt 0.470952 0.767598
vt 0.454609 0.767596
vt 0.454647 0.976788
vt 0.470988 0.976788
vt 1.575015 0.369292
vt 1.575015 0.369292
vt 1.574993 0.392167
vt 1.574993 0.392167
vt 0.696474 0.767612
vt 0.680132 0.767611
vt 0.680170 0.976803
vt 0.696513 0.976805
vt 0.657261 0.010149
vt 0.640921 0.010150
vt 0.640897 0.219330
vt 0.657237 0.219330
vt -0.166522 0.392188
vt -0.166522 0.392188
vt -0.166525 0.415065
vt -0.166525 0.415065
vt 0.107843 1.380345
vt 0.107843 1.380345
vt 0.084967 1.364004
vt 0.107843 1.364004
vt 0.107843 1.364004
vt 0.454644 0.880362
vt 0.454640 0.864019
vt 0.298792 0.864009
vt 0.298795 0.880353
vt 0.259578 0.106579
vt 0.259576 0.122922
vt 0.415419 0.122918
vt 0.415421 0.106575
vt 0.107843 1.380345
vt 0.084967 1.364004
vt 0.107842 1.364004
vt 1.575018 0.369291
vt 1.574996 0.392166
vt 1.574996 0.392166
vt 1.575017 0.369291
vt 0.696178 1.156579
vt 0.256336 1.156543
vt 0.256341 1.172885
vt 0.682472 1.172921
vt 0.217128 -0.169591
vt 0.656940 -0.169612
vt 0.643232 -0.185953
vt 0.217131 -0.185933
vt -0.166447 0.392180
vt -0.166449 0.415056
vt -0.166471 0.415058
vt -0.166469 0.392182
s 0
usemtl wood.002
f 2/1/1 1/2/1 3/3/1 4/4/1
f 6/5/2 8/6/2 7/7/2 5/8/2
f 1/9/3 5/10/3 7/11/3 3/12/3
f 3/13/4 7/14/4 8/15/4 4/16/4
f 2/17/5 6/18/5 5/19/5 1/20/5
f 4/21/6 8/22/6 6/23/6 2/24/6
f 10/25/6 9/26/6 11/27/6 12/28/6
f 14/29/7 16/30/7 15/31/7 13/32/7
f 9/33/8 13/34/8 15/35/8 11/36/8
f 11/37/4 15/38/4 16/39/4 12/40/4
f 10/41/5 14/42/5 13/43/5 9/44/5
f 12/45/2 16/46/2 14/47/2 10/48/2
f 18/49/9 17/50/9 19/51/9 20/51/9
f 22/52/8 24/53/8 23/54/8 21/55/8
f 17/56/1 21/56/1 23/57/1 19/57/1
f 19/58/4 23/59/4 24/60/4 20/61/4
f 18/62/5 22/63/5 21/64/5 17/65/5
f 20/66/2 24/67/2 22/68/2 18/69/2
f 26/70/8 28/71/8 27/71/8 25/72/8
f 30/73/9 29/74/9 31/75/9 32/76/9
f 25/77/6 27/78/6 31/79/6 29/80/6
f 27/81/4 28/82/4 32/83/4 31/84/4
f 26/85/5 25/86/5 29/87/5 30/88/5
f 28/89/2 26/90/2 30/91/2 32/92/2
f 34/70/8 36/71/8 35/71/8 33/93/8
f 38/94/9 37/95/9 39/96/9 40/97/9
f 33/98/6 35/99/6 39/100/6 37/101/6
f 35/102/4 36/103/4 40/104/4 39/105/4
f 34/106/5 33/107/5 37/108/5 38/109/5
f 36/110/2 34/111/2 38/112/2 40/113/2
f 42/70/8 44/71/8 43/114/8 41/49/8
f 46/115/9 45/116/9 47/117/9 48/117/9
f 41/118/6 43/119/6 47/120/6 45/121/6
f 43/122/4 44/123/4 48/124/4 47/125/4
f 42/126/5 41/127/5 45/128/5 46/129/5
f 44/130/2 42/131/2 46/132/2 48/133/2
f 51/115/8 49/117/8 50/117/8 52/116/8
f 55/70/9 56/49/9 54/114/9 53/71/9
f 54/122/4 50/125/4 49/124/4 53/123/4
f 55/126/5 51/129/5 52/128/5 56/127/5
f 53/130/2 49/133/2 51/132/2 55/131/2
f 56/118/3 52/121/3 50/120/3 54/119/3
f 59/94/8 57/97/8 58/96/8 60/95/8
f 63/70/9 64/93/9 62/71/9 61/71/9
f 62/102/4 58/105/4 57/104/4 61/103/4
f 63/106/5 59/109/5 60/108/5 64/107/5
f 61/110/2 57/113/2 59/112/2 63/111/2
f 64/98/3 60/101/3 58/100/3 62/99/3
f 67/29/10 68/32/10 66/31/10 65/30/10
f 71/25/3 69/28/3 70/27/3 72/26/3
f 70/37/4 69/40/4 65/39/4 66/38/4
f 71/41/5 72/44/5 68/43/5 67/42/5
f 69/45/2 71/48/2 67/47/2 65/46/2
f 72/33/9 70/36/9 66/35/9 68/34/9
f 74/49/1 73/49/1 75/71/1 76/71/1
f 78/134/2 80/135/2 79/135/2 77/134/2
f 74/136/5 78/137/5 77/138/5 73/139/5
f 76/140/9 80/141/9 78/142/9 74/142/9
f 73/143/8 77/144/8 79/145/8 75/146/8
f 75/147/4 79/148/4 80/149/4 76/150/4
f 82/49/1 81/49/1 83/71/1 84/71/1
f 86/134/2 88/135/2 87/135/2 85/134/2
f 81/151/8 85/152/8 87/153/8 83/154/8
f 83/155/4 87/156/4 88/157/4 84/158/4
f 82/159/5 86/160/5 85/161/5 81/162/5
f 84/163/9 88/164/9 86/165/9 82/166/9
f 90/49/9 89/49/9 91/167/9 92/168/9
f 94/169/8 96/170/8 95/171/8 93/169/8
f 89/56/1 93/56/1 95/57/1 91/57/1
f 91/172/4 95/173/4 96/174/4 92/175/4
f 90/176/5 94/177/5 93/178/5 89/179/5
f 92/66/2 96/67/2 94/68/2 90/69/2
f 98/70/8 100/71/8 99/180/8 97/72/8
f 102/73/9 101/181/9 103/182/9 104/76/9
f 97/183/6 99/184/6 103/185/6 101/186/6
f 99/187/4 100/188/4 104/189/4 103/190/4
f 98/191/5 97/192/5 101/193/5 102/194/5
f 100/195/2 98/196/2 102/197/2 104/198/2
f 106/70/9 105/72/9 107/71/9 108/71/9
f 110/73/8 112/76/8 111/75/8 109/74/8
f 105/77/3 109/80/3 111/79/3 107/78/3
f 107/81/4 111/84/4 112/83/4 108/82/4
f 106/85/5 110/88/5 109/87/5 105/86/5
f 108/89/2 112/92/2 110/91/2 106/90/2
f 114/70/9 113/72/9 115/180/9 116/71/9
f 118/73/8 120/76/8 119/182/8 117/181/8
f 113/183/3 117/186/3 119/185/3 115/184/3
f 115/187/4 119/190/4 120/189/4 116/188/4
f 114/191/5 118/194/5 117/193/5 113/192/5
f 116/195/2 120/198/2 118/197/2 114/196/2
