# Blender 4.0.2
# www.blender.org
mtllib tri_window_4000.mtl
o tri_window_4000
v 0.002000 0.201286 1.559729
v 0.000000 0.202000 1.555766
v 0.002000 0.200000 1.559261
v 0.002000 1.422756 0.104033
v 0.002000 1.422042 0.102501
v 0.000000 1.419753 0.104501
v 0.002000 0.202000 0.102501
v 0.002000 0.200000 0.104501
v 0.000000 0.202000 0.104501
v 0.002000 0.246286 1.436092
v 0.002000 0.245000 1.435624
v 0.000000 0.243000 1.443119
v 0.002000 1.326254 0.149033
v 0.000000 1.331828 0.145501
v 0.002000 1.325539 0.147501
v 0.002000 0.247000 0.147501
v 0.000000 0.243000 0.145501
v 0.002000 0.245000 0.149501
v 0.035000 0.246286 1.436092
v 0.035000 0.245000 1.435624
v 0.035000 1.325539 0.147501
v 0.035000 1.326254 0.149033
v 0.035000 0.245000 0.149501
v 0.035000 0.247000 0.147501
v 0.068000 0.201286 1.559729
v 0.068000 0.200000 1.559261
v 0.070000 0.202000 1.555766
v 0.068000 1.422756 0.104033
v 0.070000 1.419753 0.104501
v 0.068000 1.422042 0.102501
v 0.068000 0.202000 0.102501
v 0.070000 0.202000 0.104501
v 0.068000 0.200000 0.104501
v 0.068000 0.246286 1.436092
v 0.070000 0.243000 1.443119
v 0.068000 0.245000 1.435624
v 0.068000 1.326254 0.149033
v 0.068000 1.325539 0.147501
v 0.070000 1.331828 0.145501
v 0.068000 0.247000 0.147501
v 0.068000 0.245000 0.149501
v 0.070000 0.243000 0.145501
v 0.002000 0.247000 -0.147501
v 0.002000 0.245000 -0.149501
v 0.000000 0.243000 -0.145501
v 0.002000 1.326254 -0.149033
v 0.002000 1.325539 -0.147501
v 0.000000 1.331828 -0.145501
v 0.002000 0.246286 -1.436092
v 0.000000 0.243000 -1.443119
v 0.002000 0.245000 -1.435624
v 0.002000 0.200000 -0.104501
v 0.002000 0.202000 -0.102501
v -0.000000 0.202000 -0.104501
v 0.002000 1.422042 -0.102501
v 0.002000 1.422756 -0.104033
v 0.000000 1.419753 -0.104501
v 0.002000 0.201286 -1.559729
v 0.002000 0.200000 -1.559261
v 0.000000 0.202000 -1.555766
v 0.035000 0.247000 -0.147501
v 0.035000 0.245000 -0.149501
v 0.035000 1.326254 -0.149033
v 0.035000 1.325539 -0.147501
v 0.035000 0.245000 -1.435624
v 0.035000 0.246286 -1.436092
v 0.068000 0.247000 -0.147501
v 0.070000 0.243000 -0.145501
v 0.068000 0.245000 -0.149501
v 0.068000 1.325539 -0.147501
v 0.068000 1.326254 -0.149033
v 0.070000 1.331828 -0.145501
v 0.068000 0.246286 -1.436092
v 0.068000 0.245000 -1.435624
v 0.070000 0.243000 -1.443119
v 0.068000 0.202000 -0.102501
v 0.068000 0.200000 -0.104501
v 0.070000 0.202000 -0.104501
v 0.068000 1.422042 -0.102501
v 0.070000 1.419753 -0.104501
v 0.068000 1.422756 -0.104033
v 0.068000 0.201286 -1.559729
v 0.070000 0.202000 -1.555766
v 0.068000 0.200000 -1.559261
vn -0.0000 -0.0000 1.0000
vn -0.0000 -1.0000 -0.0000
vn -0.0000 -0.7660 -0.6428
vn -0.0000 -0.0000 -1.0000
vn -0.0000 1.0000 -0.0000
vn -1.0000 -0.0000 -0.0000
vn 1.0000 -0.0000 -0.0000
vn -0.0000 -0.7660 0.6428
vn -0.0000 0.7660 -0.6428
vn -0.8930 -0.1539 0.4229
vn -0.8250 0.5122 -0.2388
vn -0.5773 -0.5774 -0.5774
vn -0.9681 0.0857 -0.2355
vn -0.9563 -0.2649 0.1235
vn -0.9045 0.3015 0.3015
vn 0.8930 -0.1539 0.4229
vn 0.8250 0.5122 -0.2388
vn 0.5774 -0.5774 -0.5774
vn 0.9681 0.0857 -0.2355
vn 0.9563 -0.2648 0.1235
vn 0.9045 0.3015 0.3015
vn -0.9045 0.3015 -0.3015
vn -0.9563 -0.2648 -0.1235
vn -0.9681 0.0858 0.2355
vn -0.5773 -0.5773 0.5774
vn -0.8250 0.5122 0.2388
vn -0.8930 -0.1538 -0.4229
vn 0.9045 0.3015 -0.3015
vn 0.9563 -0.2649 -0.1235
vn 0.9681 0.0857 0.2355
vn 0.5773 -0.5773 0.5774
vn 0.8250 0.5122 0.2388
vn 0.8930 -0.1539 -0.4229
vn -0.7071 -0.5417 -0.4545
vn -0.7071 -0.0000 0.7071
vn -0.7071 0.7071 -0.0000
vn -0.7071 0.5417 0.4545
vn -0.7071 -0.0000 -0.7071
vn -0.7071 -0.7071 -0.0000
vn -0.0000 0.7071 0.7071
vn -0.0000 0.3420 -0.9397
vn -0.0000 -0.9063 0.4226
vn 0.7071 -0.5417 -0.4545
vn 0.7071 -0.0000 0.7071
vn 0.7071 0.7071 -0.0000
vn 0.7071 0.5417 0.4545
vn 0.7071 -0.0000 -0.7071
vn 0.7071 -0.7071 -0.0000
vn -0.0000 -0.7071 -0.7071
vn -0.0000 -0.3420 0.9397
vn -0.0000 0.9063 -0.4226
vn -0.0000 0.9063 0.4226
vn -0.0000 -0.9063 -0.4226
vn -0.0000 -0.3420 -0.9397
vn -0.0000 0.7071 -0.7071
vn -0.0000 -0.7071 0.7071
vn -0.0000 0.3420 0.9397
vn -0.7071 -0.5417 0.4545
vn -0.7071 0.5417 -0.4545
vn 0.7071 -0.5417 0.4545
vn 0.7071 0.5417 -0.4545
vn -0.0000 0.7660 0.6428
vt 2.511864 2.024219
vt 2.511858 2.036701
vt 2.099754 2.036482
vt 2.099761 2.024000
vt 0.393286 1.600341
vt -0.162584 1.600341
vt -0.162584 1.575123
vt 0.393286 1.575122
vt 2.485486 1.034132
vt 2.485486 1.046711
vt 1.861119 1.046627
vt 1.861119 1.034214
vt -0.072897 1.469523
vt 0.393286 1.469523
vt 0.393286 1.494742
vt -0.072898 1.494742
vt 2.485486 1.026147
vt 1.861127 1.026147
vt 1.861127 1.013538
vt 2.485486 1.013538
vt 1.928041 -0.115634
vt 1.928036 -0.128115
vt 2.419460 -0.128334
vt 2.419465 -0.115853
vt 2.403799 0.640885
vt 2.419466 0.656551
vt 1.864931 0.656551
vt 1.907974 0.640885
vt 1.934953 1.230745
vt 1.901357 1.215079
vt 2.366666 1.215079
vt 2.351000 1.230745
vt 1.673673 2.154736
vt 1.261581 2.154735
vt 1.261581 2.142126
vt 1.673673 2.142126
vt 2.403800 0.630151
vt 1.907973 0.630151
vt 1.864931 0.614485
vt 2.419466 0.614485
vt 1.954753 -0.071908
vt 2.370800 -0.071908
vt 2.386466 -0.056242
vt 1.921157 -0.056242
vt 1.292245 1.914672
vt 1.939499 1.914671
vt 1.973095 1.930337
vt 1.249202 1.930338
vt 1.941252 1.535697
vt 2.432665 1.535696
vt 2.432665 1.548306
vt 1.941252 1.548306
vt -0.199340 1.950138
vt -0.242383 1.934472
vt 0.481511 1.934471
vt 0.447914 1.950137
vt 2.485486 1.026147
vt 1.861127 1.026147
vt 2.419465 -0.115853
vt 1.673674 2.154736
vt 1.261581 2.154735
vt 1.939499 1.914671
vt 0.393286 1.600341
vt 0.393286 1.575122
vt 1.110844 1.495923
vt 1.822187 1.495923
vt 1.822187 1.521142
vt 1.110844 1.521142
vt -0.072897 1.469523
vt -0.072898 1.494742
vt 2.403799 0.630151
vt 2.432666 1.535697
vt 2.099761 2.024000
vt 2.419466 0.656551
vt 2.485486 1.034132
vt -0.243718 1.933707
vt -0.243808 1.933953
vt -0.073171 1.494742
vt -0.072023 1.495507
vt 0.394050 1.575122
vt 0.393286 1.574358
vt 1.927863 -0.115634
vt 1.927278 -0.114877
vt 2.486229 1.033369
vt 2.485752 1.034131
vt 2.349472 1.231509
vt 2.350236 1.231509
vt -0.162763 1.600341
vt -0.161249 1.601106
vt 1.973970 1.931101
vt 1.974107 1.930808
vt 0.393286 1.468759
vt 0.394051 1.469523
vt 1.295109 1.913907
vt 1.294930 1.913907
vt 1.261308 2.154735
vt 1.260817 2.155499
vt 2.433430 1.535697
vt 2.433430 1.534932
vt 1.674438 2.154735
vt 1.674438 2.155500
vt 1.860384 1.026911
vt 1.860953 1.026147
vt 1.822455 1.495924
vt 1.821331 1.495159
vt 1.110668 1.495923
vt 1.112152 1.495159
vt 1.860945 1.034214
vt 1.860376 1.033462
vt 0.394051 1.494742
vt 0.393286 1.495506
vt -0.073171 1.494742
vt 1.112152 1.521906
vt 1.110668 1.521142
vt 1.937356 1.231509
vt 2.420230 -0.115096
vt 0.482386 1.933706
vt 1.900482 1.214315
vt 2.366666 1.214314
vt -0.161249 1.574359
vt 2.420224 -0.128334
vt 2.420229 -0.115853
vt 1.927277 -0.115634
vt 1.927272 -0.128115
vt 2.098990 2.036481
vt 2.098996 2.024000
vt 1.937096 1.913906
vt 1.957156 -0.072672
vt 2.369272 -0.072672
vt 1.940487 1.534932
vt 1.247867 1.931102
vt -0.072023 1.468759
vt 0.393286 1.601106
vt 2.433430 1.548306
vt 1.940488 1.548306
vt 1.940487 1.535697
vt 1.260817 2.154735
vt 1.260817 2.142126
vt 0.394051 1.600341
vt -0.163348 1.600341
vt -0.163348 1.575123
vt -0.073662 1.494742
vt -0.073662 1.469523
vt 1.822936 1.495923
vt 1.822936 1.521142
vt 1.110095 1.521142
vt 1.110095 1.495923
vt 1.863595 0.613720
vt 2.419466 0.613721
vt 1.674438 2.142126
vt 1.860384 1.026147
vt 1.860384 1.013538
vt 2.402271 0.630915
vt 1.910837 0.630915
vt 2.486229 1.034131
vt 2.486229 1.046711
vt 2.486229 1.026911
vt 1.860376 1.046627
vt 1.860376 1.034214
vt 2.420230 -0.115853
vt 1.910838 0.640120
vt 2.402271 0.640121
vt 1.821330 1.521906
vt 0.393286 1.495506
vt 1.110843 1.495923
vt 1.822187 1.495923
vt 1.822187 1.521142
vt 1.110843 1.521142
s 0
usemtl plastic_black
f 16/1/1 24/2/1 21/3/1 15/4/1
f 33/5/2 26/6/2 3/7/2 8/8/2
f 13/9/3 22/10/3 19/11/3 10/12/3
f 30/13/4 31/14/4 7/15/4 5/16/4
f 37/17/3 34/18/3 19/19/3 22/20/3
f 11/21/5 20/22/5 23/23/5 18/24/5
f 17/25/6 9/26/6 2/27/6 12/28/6
f 14/29/6 6/30/6 9/31/6 17/32/6
f 40/33/1 38/34/1 21/35/1 24/36/1
f 42/37/7 35/38/7 27/39/7 32/40/7
f 48/41/6 45/42/6 54/43/6 57/44/6
f 39/41/7 42/42/7 32/43/7 29/44/7
f 35/45/7 39/46/7 29/47/7 27/48/7
f 36/49/5 41/50/5 23/51/5 20/52/5
f 12/53/6 2/54/6 6/55/6 14/56/6
f 46/57/8 49/58/8 66/19/8 63/20/8
f 74/21/5 65/22/5 62/23/5 69/59/5
f 43/60/4 47/61/4 64/35/4 61/36/4
f 50/45/6 48/62/6 57/47/6 60/48/6
f 52/63/2 59/6/2 84/7/2 77/64/2
f 58/65/9 56/66/9 81/67/9 82/68/9
f 72/29/7 80/30/7 78/31/7 68/32/7
f 55/69/1 53/14/1 76/15/1 79/70/1
f 45/71/6 50/38/6 60/39/6 54/40/6
f 51/49/5 44/72/5 62/51/5 65/52/5
f 75/53/7 83/54/7 80/55/7 72/56/7
f 67/1/4 61/2/4 64/3/4 70/73/4
f 68/25/7 78/74/7 83/27/7 75/28/7
f 71/75/8 63/10/8 66/11/8 73/12/8
f 1/76/10 2/54/10 3/77/10
f 4/78/11 5/16/11 6/79/11
f 7/80/12 8/8/12 9/81/12
f 10/82/13 11/21/13 12/83/13
f 13/9/14 14/84/14 15/85/14
f 16/86/15 17/32/15 18/87/15
f 25/88/16 26/6/16 27/89/16
f 28/90/17 29/47/17 30/91/17
f 31/14/18 32/92/18 33/93/18
f 34/94/19 35/45/19 36/95/19
f 37/96/20 38/34/20 39/97/20
f 40/98/21 41/50/21 42/99/21
f 43/60/22 44/100/22 45/101/22
f 46/96/23 47/61/23 48/97/23
f 49/58/24 50/102/24 51/103/24
f 52/93/25 53/14/25 54/92/25
f 55/104/26 56/66/26 57/105/26
f 58/65/27 59/106/27 60/107/27
f 67/86/28 68/32/28 69/87/28
f 70/85/29 71/75/29 72/84/29
f 73/12/30 74/108/30 75/109/30
f 76/15/31 77/110/31 78/111/31
f 79/70/32 80/79/32 81/112/32
f 82/68/33 83/113/33 84/114/33
f 12/109/34 14/84/34 13/9/34 10/12/34
f 14/29/35 17/32/35 16/86/35 15/115/35
f 17/116/36 12/83/36 11/21/36 18/24/36
f 1/76/37 4/117/37 6/55/37 2/54/37
f 5/118/38 7/119/38 9/31/38 6/30/38
f 8/8/39 3/7/39 2/120/39 9/81/39
f 18/24/40 23/23/40 24/121/40 16/122/40
f 20/22/41 11/21/41 10/123/41 19/124/41
f 15/4/42 21/3/42 22/125/42 13/126/42
f 34/94/43 37/127/43 39/46/43 35/45/43
f 38/128/44 40/129/44 42/42/44 39/41/44
f 41/50/45 36/49/45 35/130/45 42/99/45
f 27/48/46 29/47/46 28/90/46 25/131/46
f 29/132/47 32/92/47 31/14/47 30/13/47
f 32/133/48 27/89/48 26/6/48 33/5/48
f 40/98/40 24/134/40 23/51/40 41/50/40
f 19/135/41 34/136/41 36/49/41 20/52/41
f 37/137/42 22/138/42 21/35/42 38/34/42
f 7/80/49 31/139/49 33/5/49 8/8/49
f 25/140/50 1/141/50 3/7/50 26/6/50
f 4/142/51 28/143/51 30/13/51 5/16/51
f 81/67/52 56/66/52 55/144/52 79/145/52
f 46/137/53 63/138/53 64/35/53 47/61/53
f 58/65/54 82/68/54 84/146/54 59/147/54
f 54/40/39 60/39/39 59/148/39 52/149/39
f 43/60/55 61/36/55 62/150/55 44/100/55
f 76/15/56 53/14/56 52/93/56 77/110/56
f 66/19/57 49/58/57 51/151/57 65/152/57
f 44/153/36 51/154/36 50/38/36 45/71/36
f 70/155/53 64/156/53 63/10/53 71/75/53
f 47/61/38 43/60/38 45/101/38 48/97/38
f 49/58/58 46/57/58 48/157/58 50/102/58
f 65/158/57 74/159/57 73/12/57 66/11/57
f 69/59/55 62/23/55 61/121/55 67/160/55
f 60/107/59 57/105/59 56/66/59 58/65/59
f 57/132/35 54/92/35 53/14/35 55/69/35
f 77/64/48 84/7/48 83/120/48 78/81/48
f 68/25/45 75/28/45 74/161/45 69/162/45
f 75/109/60 72/84/60 71/75/60 73/12/60
f 72/29/47 68/32/47 67/86/47 70/115/47
f 82/68/61 81/67/61 80/163/61 83/113/61
f 79/70/44 76/15/44 78/164/44 80/79/44
f 25/165/62 28/166/62 4/167/62 1/168/62
