# Blender 4.0.2
# www.blender.org
mtllib tiled_roof_headstock_5500.mtl
o tiled_roof_headstock_5500
v 0.200000 2.214976 0.037500
v 0.000000 2.214976 0.037500
v 0.000000 2.226058 0.037500
v 0.200000 2.226058 0.037500
v 0.000000 2.160435 0.102500
v 0.200000 2.160435 0.102500
v 0.200000 0.200000 0.102500
v 0.000000 0.200000 0.102500
v 0.200000 2.214976 -0.037500
v 0.000000 2.214976 -0.037500
v 0.000000 2.226058 -0.037500
v 0.200000 2.226058 -0.037500
v 0.000000 2.160435 -0.102500
v 0.200000 2.160435 -0.102500
v 0.200000 0.200000 -0.102500
v 0.000000 0.200000 -0.102500
vn -0.0000 -0.0000 1.0000
vn -0.0000 -1.0000 -0.0000
vn 1.0000 -0.0000 -0.0000
vn -0.0000 0.7660 0.6428
vn -0.0000 1.0000 -0.0000
vn -0.0000 -0.0000 -1.0000
vn -0.0000 0.7660 -0.6428
vn -1.0000 -0.0000 -0.0000
vt 0.343387 0.541646
vt 0.343387 0.484237
vt 0.906131 0.484236
vt 0.906130 0.541646
vt 0.597799 0.275779
vt 0.540389 0.275779
vt 0.540389 0.278960
vt 0.597799 0.278960
vt 0.576265 0.527294
vt 0.635110 0.527294
vt 0.635111 0.584704
vt 0.576265 0.584704
vt 0.912153 0.442614
vt 0.912153 0.464143
vt 0.896498 0.482802
vt 0.333752 0.482801
vt 0.333752 0.423956
vt 0.896496 0.423956
vt 0.497327 0.697252
vt 0.554737 0.697251
vt 0.554738 0.715010
vt 0.497328 0.715011
vt 0.561913 0.584704
vt 0.561913 0.563175
vt 0.619323 0.563175
vt 0.619323 0.584704
vt 0.906131 0.541647
vt 0.906131 0.599056
vt 0.343387 0.599056
vt 0.482974 0.275783
vt 0.482974 0.278964
vt 0.540384 0.278963
vt 0.540384 0.275782
vt 0.475798 0.440581
vt 0.475798 0.422823
vt 0.533207 0.422823
vt 0.533207 0.440580
vt 0.912151 0.487106
vt 0.912151 0.508635
vt 0.896496 0.527294
vt 0.333752 0.527294
vt 0.333752 0.468449
vt 0.896495 0.468448
vt 0.915332 0.487106
vt 0.915333 0.508635
vt 0.915334 0.442614
vt 0.915334 0.464144
s 0
usemtl wood
f 8/1/1 7/2/1 6/3/1 5/4/1
f 4/5/1 3/6/1 2/7/1 1/8/1
f 15/9/2 7/10/2 8/11/2 16/12/2
f 9/13/3 1/14/3 6/15/3 7/16/3 15/17/3 14/18/3
f 5/19/4 6/20/4 1/21/4 2/22/4
f 11/23/5 3/24/5 4/25/5 12/26/5
f 16/1/6 13/27/6 14/28/6 15/29/6
f 12/30/6 9/31/6 10/32/6 11/33/6
f 13/34/7 10/35/7 9/36/7 14/37/7
f 2/38/8 10/39/8 13/40/8 16/41/8 8/42/8 5/43/8
f 3/44/8 11/45/8 10/39/8 2/38/8
f 12/46/3 4/47/3 1/14/3 9/13/3
