# Blender 4.0.2
# www.blender.org
mtllib tile_ridge_beam.mtl
o tile_ridge_beam
v 1.000000 -0.000000 -0.037500
v -0.000000 -0.000000 -0.037500
v 1.000000 0.250000 -0.037500
v -0.000000 0.250000 -0.037500
v 1.000000 -0.000000 0.037500
v 0.000000 -0.000000 0.037500
v 1.000000 0.250000 0.037500
v -0.000000 0.250000 0.037500
vn -0.0000 -0.0000 -1.0000
vn -0.0000 1.0000 -0.0000
vn -0.0000 -0.0000 1.0000
vn -0.0000 -1.0000 -0.0000
vn 1.0000 -0.0000 -0.0000
vn -1.0000 -0.0000 -0.0000
vt 0.263852 0.130284
vt 1.695178 0.130172
vt 1.695178 0.201738
vt 0.263852 0.201850
vt 0.263848 -0.138828
vt 1.695178 -0.138828
vt 1.695178 -0.117358
vt 0.263848 -0.117358
vt 0.263857 -0.458039
vt 1.695178 -0.457924
vt 1.695178 -0.386358
vt 0.263858 -0.386473
vt 0.263847 -0.095888
vt 1.695178 -0.095888
vt 1.695178 -0.074418
vt 0.263847 -0.074418
vt 1.662973 -0.457924
vt 1.684443 -0.457924
vt 1.684443 -0.386357
vt 1.662973 -0.386357
vt 1.705912 -0.457925
vt 1.727383 -0.457925
vt 1.727383 -0.386357
vt 1.705912 -0.386357
s 0
usemtl wood.011
f 1/1/1 2/2/1 4/3/1 3/4/1
f 3/5/2 4/6/2 8/7/2 7/8/2
f 7/9/3 8/10/3 6/11/3 5/12/3
f 5/13/4 6/14/4 2/15/4 1/16/4
f 3/17/5 7/18/5 5/19/5 1/20/5
f 8/21/6 4/22/6 2/23/6 6/24/6
