# Blender 4.0.2
# www.blender.org
mtllib window_800x1200_frame.001.mtl
o window_800x1200_frame.001
v 0.109609 0.328100 -0.018010
v 0.107614 0.329947 -0.017863
v 0.107614 0.327942 -0.015857
v 0.107614 0.300258 -0.015857
v 0.107615 0.298252 -0.017863
v 0.109609 0.300100 -0.018010
v 0.107633 0.298243 -0.248000
v 0.107626 0.300250 -0.250000
v 0.109626 0.300090 -0.248000
v 0.107614 0.329947 -0.248000
v 0.109610 0.328100 -0.248000
v 0.107610 0.327940 -0.250000
v 0.084015 0.326137 -0.014043
v 0.084014 0.328142 -0.016049
v 0.082021 0.325990 -0.015890
v 0.084020 0.326128 -0.250000
v 0.082020 0.325980 -0.248000
v 0.084014 0.328133 -0.248000
v 0.084021 0.300057 -0.016049
v 0.084021 0.302063 -0.014043
v 0.082026 0.302210 -0.015890
v 0.084021 0.300057 -0.248000
v 0.082026 0.302210 -0.248000
v 0.084026 0.302062 -0.250000
v 0.109609 0.328100 0.018010
v 0.107614 0.327942 0.015857
v 0.107614 0.329947 0.017863
v 0.107614 0.300258 0.015857
v 0.109609 0.300100 0.018010
v 0.107615 0.298252 0.017863
v 0.107633 0.298243 0.248000
v 0.109626 0.300090 0.248000
v 0.107626 0.300250 0.250000
v 0.107614 0.329947 0.248000
v 0.107610 0.327940 0.250000
v 0.109610 0.328100 0.248000
v 0.084015 0.326137 0.014043
v 0.082021 0.325990 0.015890
v 0.084014 0.328142 0.016049
v 0.084021 0.326128 0.250000
v 0.084014 0.328133 0.248000
v 0.082021 0.325980 0.248000
v 0.084021 0.300057 0.016049
v 0.082026 0.302210 0.015890
v 0.084021 0.302063 0.014043
v 0.084021 0.300057 0.248000
v 0.084027 0.302062 0.250000
v 0.082027 0.302210 0.248000
v 0.109626 0.072000 0.014000
v 0.107633 0.072000 0.015847
v 0.107626 0.070000 0.013840
v 0.107610 0.070000 -0.013851
v 0.107614 0.072000 -0.015857
v 0.109610 0.072000 -0.014010
v 0.109610 0.568000 -0.014010
v 0.107614 0.568000 -0.015857
v 0.107610 0.570000 -0.013851
v 0.107633 0.568000 0.015847
v 0.109626 0.568000 0.014000
v 0.107626 0.570000 0.013840
v 0.084026 0.070000 0.012028
v 0.084021 0.072000 0.014033
v 0.082026 0.072000 0.011880
v 0.082026 0.568000 0.011880
v 0.084021 0.568000 0.014033
v 0.084026 0.570000 0.012028
v 0.084021 0.070000 -0.012038
v 0.082021 0.072000 -0.011890
v 0.084014 0.072000 -0.014043
v 0.084014 0.568000 -0.014043
v 0.082021 0.568000 -0.011890
v 0.084021 0.570000 -0.012038
v 0.033000 0.022000 -0.300000
v 0.031000 0.022000 -0.298000
v 0.033000 0.020000 -0.298000
v 0.033000 0.020000 0.298000
v 0.031000 0.022000 0.298000
v 0.033000 0.022000 0.300000
v 0.033000 0.618000 -0.300000
v 0.033000 0.620000 -0.298000
v 0.031000 0.618000 -0.298000
v 0.033000 0.618000 0.300000
v 0.031000 0.618000 0.298000
v 0.033000 0.620000 0.298000
v 0.033000 0.568000 -0.250000
v 0.031000 0.572000 -0.252000
v 0.033000 0.570000 -0.248000
v 0.033000 0.072000 -0.250000
v 0.033000 0.070000 -0.248000
v 0.031000 0.068000 -0.252000
v 0.033000 0.070000 0.248000
v 0.033000 0.072000 0.250000
v 0.031000 0.068000 0.252000
v 0.033000 0.568000 0.250000
v 0.033000 0.570000 0.248000
v 0.031000 0.572000 0.252000
v 0.143000 0.618000 -0.300000
v 0.145000 0.618000 -0.298000
v 0.143000 0.620000 -0.298000
v 0.143000 0.022000 -0.300000
v 0.143000 0.020000 -0.298000
v 0.145000 0.022000 -0.298000
v 0.143000 0.020000 0.298000
v 0.143000 0.022000 0.300000
v 0.145000 0.022000 0.298000
v 0.143000 0.618000 0.300000
v 0.143000 0.620000 0.298000
v 0.145000 0.618000 0.298000
v 0.096000 0.070000 -0.248000
v 0.096000 0.072000 -0.250000
v 0.098000 0.072000 -0.248000
v 0.096000 0.570000 -0.248000
v 0.098000 0.568000 -0.248000
v 0.096000 0.568000 -0.250000
v 0.096000 0.570000 0.248000
v 0.096000 0.568000 0.250000
v 0.098000 0.568000 0.248000
v 0.096000 0.070000 0.248000
v 0.098000 0.072000 0.248000
v 0.096000 0.072000 0.250000
v 0.143000 0.553858 -0.235858
v 0.143000 0.555858 -0.233858
v 0.145000 0.557858 -0.237858
v 0.145000 0.082142 -0.237858
v 0.143000 0.084142 -0.233858
v 0.143000 0.086142 -0.235858
v 0.145000 0.082142 0.237858
v 0.143000 0.086142 0.235858
v 0.143000 0.084142 0.233858
v 0.143000 0.553858 0.235858
v 0.145000 0.557858 0.237858
v 0.143000 0.555858 0.233858
v 0.100000 0.084142 -0.233858
v 0.098000 0.082142 -0.237858
v 0.100000 0.086142 -0.235858
v 0.100000 0.555858 0.233858
v 0.098000 0.557858 0.237858
v 0.100000 0.553858 0.235858
v 0.100000 0.084142 0.233858
v 0.100000 0.086142 0.235858
v 0.098000 0.082142 0.237858
v 0.100000 0.555858 -0.233858
v 0.100000 0.553858 -0.235858
v 0.098000 0.557858 -0.237858
vn -0.0000 -0.0000 -1.0000
vn -0.0764 0.9971 -0.0000
vn -0.0764 -0.9971 -0.0000
vn 0.0766 -0.0000 0.9971
vn 1.0000 0.0003 -0.0000
vn -1.0000 -0.0002 -0.0000
vn -0.0000 -0.0000 1.0000
vn 0.0766 -0.0000 -0.9971
vn -0.0000 -1.0000 -0.0000
vn -1.0000 -0.0000 0.0002
vn -0.0766 -0.0000 -0.9971
vn -0.0766 -0.0000 0.9971
vn -0.0000 1.0000 -0.0000
vn 1.0000 -0.0000 -0.0006
vn -1.0000 -0.0000 -0.0000
vn 1.0000 -0.0000 -0.0000
vn 0.5775 0.5773 0.5773
vn 0.5775 -0.5773 0.5773
vn 0.5469 -0.5901 -0.5939
vn 0.5466 0.5906 -0.5937
vn -0.5773 0.5774 0.5774
vn -0.6058 0.5609 -0.5643
vn -0.5772 -0.5775 0.5774
vn -0.6057 -0.5611 -0.5642
vn 0.5775 0.5773 -0.5773
vn 0.5775 -0.5773 -0.5773
vn 0.5469 -0.5901 0.5939
vn 0.5466 0.5906 0.5937
vn -0.5773 0.5774 -0.5774
vn -0.6058 0.5609 0.5643
vn -0.5772 -0.5775 -0.5774
vn -0.6057 -0.5611 0.5642
vn 0.5468 -0.5939 0.5901
vn 0.5466 -0.5937 -0.5906
vn 0.5466 0.5937 -0.5906
vn 0.5468 0.5940 0.5901
vn -0.6057 -0.5642 0.5611
vn -0.6057 0.5643 0.5611
vn -0.6058 -0.5643 -0.5609
vn -0.6058 0.5643 -0.5609
vn 0.5774 0.5773 0.5773
vn 0.5774 0.5774 -0.5773
vn 0.5774 -0.5773 0.5774
vn 0.5774 -0.5774 -0.5773
vn 0.9045 0.3015 -0.3015
vn 0.9045 -0.3015 -0.3015
vn 0.9045 -0.3015 0.3015
vn 0.9045 0.3015 0.3015
vn -0.5773 -0.5774 0.5774
vn -0.5773 -0.5774 -0.5774
vn 0.5773 -0.5774 -0.5774
vn 0.5774 0.5774 -0.5774
vn 0.5774 0.5773 0.5774
vn 0.5773 -0.5774 0.5774
vn -0.9045 0.3015 -0.3015
vn -0.9045 -0.3015 -0.3015
vn -0.9045 -0.3015 0.3015
vn -0.9045 0.3015 0.3015
vn 0.7337 -0.0000 0.6795
vn 0.6797 -0.7335 0.0001
vn 0.0003 0.7071 0.7071
vn 0.6794 0.7337 -0.0000
vn 0.0003 -0.7071 0.7071
vn 0.7071 0.0004 -0.7071
vn -0.0542 0.7050 -0.7071
vn -0.0542 -0.7050 -0.7071
vn -0.7337 0.6795 -0.0000
vn -0.6795 -0.0002 0.7337
vn -0.7071 -0.0002 -0.7071
vn -0.7335 -0.6796 -0.0000
vn 0.7337 -0.0000 -0.6795
vn 0.6797 -0.7335 -0.0001
vn 0.0003 0.7071 -0.7071
vn 0.0003 -0.7071 -0.7071
vn 0.7071 0.0004 0.7071
vn -0.0542 0.7050 0.7071
vn -0.0542 -0.7050 0.7071
vn -0.6795 -0.0002 -0.7337
vn -0.7071 -0.0002 0.7071
vn -0.7336 -0.6796 -0.0000
vn 0.7071 -0.7071 -0.0004
vn 0.6793 -0.0000 -0.7339
vn -0.0542 -0.7071 0.7050
vn -0.0542 -0.7071 -0.7050
vn -0.0542 0.7071 -0.7050
vn -0.7071 0.7071 0.0002
vn 0.6797 -0.0000 0.7335
vn -0.7338 -0.0000 -0.6794
vn 0.7071 0.7071 -0.0004
vn -0.0542 0.7071 0.7050
vn -0.7336 -0.0000 0.6796
vn -0.7071 -0.7071 0.0002
vn 0.7071 -0.0000 -0.7071
vn 0.7071 -0.7071 -0.0000
vn 0.7071 -0.0000 0.7071
vn 0.7071 0.7071 -0.0000
vn -0.7071 -0.0000 0.7071
vn -0.7071 0.7071 -0.0000
vn -0.7071 -0.0000 -0.7071
vn -0.7071 -0.7071 -0.0000
vn -0.0000 0.7071 -0.7071
vn -0.0000 -0.7071 0.7071
vn -0.0000 0.7071 0.7071
vn -0.0000 -0.7071 -0.7071
vt 0.335722 0.704345
vt 0.347011 0.704344
vt 0.346267 0.713966
vt 0.336455 0.713963
vt 0.263110 0.656372
vt 0.169281 0.656372
vt 0.169281 0.646721
vt 0.263849 0.646721
vt 0.169281 0.624110
vt 0.263110 0.624118
vt 0.263850 0.633765
vt 0.169281 0.633765
vt 0.333226 0.704276
vt 0.333962 0.713925
vt 0.322675 0.713925
vt 0.323411 0.704275
vt 0.263917 0.568915
vt 0.263917 0.580331
vt 0.170148 0.580331
vt 0.170148 0.568911
vt 0.263917 0.532127
vt 0.169284 0.532123
vt 0.169283 0.522432
vt 0.263917 0.522431
vt 0.348773 0.713825
vt 0.349506 0.704207
vt 0.359318 0.704204
vt 0.360062 0.713825
vt 0.129319 0.622478
vt 0.128580 0.612828
vt 0.223148 0.612828
vt 0.223148 0.622479
vt 0.169281 0.628595
vt 0.169281 0.618940
vt 0.263850 0.618940
vt 0.263110 0.628588
vt 0.320179 0.713922
vt 0.310364 0.713924
vt 0.309628 0.704274
vt 0.320915 0.704274
vt 0.250056 0.713895
vt 0.240244 0.713892
vt 0.239510 0.704274
vt 0.250800 0.704274
vt 0.263917 0.720578
vt 0.263917 0.730273
vt 0.169283 0.730273
vt 0.169283 0.720582
vt 0.590084 0.574068
vt 0.387860 0.574068
vt 0.387860 0.564376
vt 0.590084 0.564376
vt 0.347089 0.260805
vt 0.590084 0.260805
vt 0.590084 0.305653
vt 0.347089 0.305653
vt 0.590084 0.596635
vt 0.387860 0.596635
vt 0.387860 0.586984
vt 0.590084 0.586984
vt 0.590084 0.585354
vt 0.387860 0.585354
vt 0.387860 0.575699
vt 0.590084 0.575699
vt 0.252561 0.713896
vt 0.253295 0.704278
vt 0.263107 0.704275
vt 0.263851 0.713896
vt 0.590084 0.562746
vt 0.387860 0.562746
vt 0.387860 0.551326
vt 0.590084 0.551326
vt 0.347089 0.363663
vt 0.371610 0.339143
vt 0.565563 0.339143
vt 0.590084 0.363663
vt 0.306318 0.644745
vt 0.549313 0.644745
vt 0.549313 0.689593
vt 0.306318 0.689593
vt 0.590084 0.352132
vt 0.347089 0.352132
vt 0.347089 0.307284
vt 0.590084 0.307284
vt 0.549313 0.643114
vt 0.306318 0.643114
vt 0.306318 0.598266
vt 0.549313 0.598266
vt 0.590084 0.549695
vt 0.387860 0.549695
vt 0.387860 0.524009
vt 0.590084 0.524009
vt 0.549313 0.807594
vt 0.347089 0.807595
vt 0.351224 0.803459
vt 0.545178 0.803459
vt 0.549313 0.691223
vt 0.524792 0.715744
vt 0.330839 0.715744
vt 0.306318 0.691224
vt 0.387860 0.446836
vt 0.590084 0.446836
vt 0.590084 0.472522
vt 0.387860 0.472522
vt 0.365844 0.485976
vt 0.347089 0.467222
vt 0.590084 0.467221
vt 0.571329 0.485976
vt 0.387860 0.514923
vt 0.590084 0.514923
vt 0.585949 0.519058
vt 0.391995 0.519058
vt 0.571329 0.365294
vt 0.590084 0.384049
vt 0.347089 0.384049
vt 0.365844 0.365294
vt 0.325073 1.027292
vt 0.306319 1.008538
vt 0.549313 1.008538
vt 0.530559 1.027292
vt 0.061696 1.056239
vt 0.263920 1.056241
vt 0.259784 1.060374
vt 0.065830 1.060374
vt 0.590084 0.394533
vt 0.565563 0.419054
vt 0.371610 0.419054
vt 0.347089 0.394533
vt 0.061693 0.784297
vt 0.263917 0.784297
vt 0.263917 0.809983
vt 0.061693 0.809983
vt 0.549313 0.834911
vt 0.347089 0.834911
vt 0.347089 0.809225
vt 0.549313 0.809225
vt 0.530558 0.743526
vt 0.549313 0.762281
vt 0.306318 0.762281
vt 0.325073 0.743526
vt 0.067459 0.817380
vt 0.258151 0.817380
vt 0.258151 0.834911
vt 0.067459 0.834911
vt 0.543547 0.801829
vt 0.352855 0.801829
vt 0.352855 0.784297
vt 0.543547 0.784297
vt 0.393626 0.479918
vt 0.584318 0.479918
vt 0.584318 0.497450
vt 0.393626 0.497450
vt 0.584318 0.516612
vt 0.393626 0.516612
vt 0.393626 0.499081
vt 0.584318 0.499081
vt 0.590084 0.481608
vt 0.387860 0.481608
vt 0.391995 0.477472
vt 0.585949 0.477472
vt 0.306318 0.497270
vt 0.330838 0.472749
vt 0.524792 0.472750
vt 0.549312 0.497269
vt 0.263050 0.657125
vt 0.263928 0.656309
vt 0.334780 0.713988
vt 0.334027 0.714740
vt 0.347829 0.704342
vt 0.347077 0.703529
vt 0.169281 0.657125
vt 0.168465 0.656307
vt 0.264667 0.646659
vt 0.263914 0.645906
vt 0.168468 0.532183
vt 0.169284 0.532938
vt 0.334044 0.704339
vt 0.333167 0.703523
vt 0.169283 0.521616
vt 0.168468 0.522371
vt 0.309563 0.703459
vt 0.308810 0.704212
vt 0.320980 0.703459
vt 0.321733 0.704212
vt 0.169281 0.629348
vt 0.168466 0.628530
vt 0.223964 0.622414
vt 0.223148 0.623232
vt 0.310424 0.714677
vt 0.309546 0.713862
vt 0.223964 0.612768
vt 0.223148 0.612013
vt 0.263914 0.618125
vt 0.264667 0.618878
vt 0.168466 0.618880
vt 0.169281 0.618125
vt 0.590084 0.586106
vt 0.590899 0.585288
vt 0.238693 0.704272
vt 0.239446 0.703459
vt 0.387860 0.563499
vt 0.387045 0.562681
vt 0.387860 0.586106
vt 0.387045 0.585288
vt 0.590899 0.575638
vt 0.590084 0.574883
vt 0.387860 0.574883
vt 0.387045 0.574128
vt 0.590899 0.564316
vt 0.590084 0.563561
vt 0.387860 0.563561
vt 0.387045 0.564316
vt 0.590084 0.384864
vt 0.590491 0.384457
vt 0.549313 0.643929
vt 0.550128 0.644745
vt 0.305503 0.643114
vt 0.306318 0.643929
vt 0.347089 0.466406
vt 0.346682 0.466814
vt 0.367475 0.364479
vt 0.366659 0.364479
vt 0.346274 0.834911
vt 0.346274 0.835726
vt 0.550128 0.834911
vt 0.550128 0.835726
vt 0.387045 0.446836
vt 0.387045 0.446021
vt 0.347089 0.306468
vt 0.346274 0.305653
vt 0.590899 0.305653
vt 0.590084 0.306468
vt 0.550128 0.689593
vt 0.549313 0.690408
vt 0.550128 0.598266
vt 0.549313 0.597450
vt 0.346274 0.809225
vt 0.347089 0.808410
vt 0.061696 1.055424
vt 0.061288 1.055831
vt 0.387045 0.472522
vt 0.387860 0.473337
vt 0.549313 0.808410
vt 0.550128 0.809225
vt 0.392811 0.499081
vt 0.392811 0.498265
vt 0.332470 0.716559
vt 0.331654 0.716559
vt 0.565563 0.339143
vt 0.563932 0.338327
vt 0.564748 0.338327
vt 0.373241 0.338327
vt 0.372425 0.338327
vt 0.352855 0.802644
vt 0.351224 0.803459
vt 0.352040 0.802644
vt 0.258153 1.061190
vt 0.259784 1.060374
vt 0.258968 1.061190
vt 0.544362 0.801829
vt 0.544362 0.802644
vt 0.392811 0.516612
vt 0.392811 0.517428
vt 0.264732 0.789730
vt 0.264732 0.801016
vt 0.263916 0.801081
vt 0.263916 0.789665
vt 0.263977 0.801896
vt 0.170148 0.801900
vt 0.170147 0.801084
vt 0.264672 0.646660
vt 0.263932 0.656310
vt 0.263050 0.657187
vt 0.169281 0.657187
vt 0.334049 0.704339
vt 0.334785 0.713987
vt 0.169332 0.801019
vt 0.169332 0.789729
vt 0.170147 0.789665
vt 0.168465 0.646661
vt 0.347829 0.704342
vt 0.347084 0.713968
vt 0.169281 0.645906
vt 0.264732 0.522371
vt 0.264732 0.532186
vt 0.263852 0.521616
vt 0.263050 0.629403
vt 0.169281 0.629411
vt 0.309541 0.713862
vt 0.308805 0.704212
vt 0.223148 0.623294
vt 0.129379 0.623294
vt 0.264672 0.618878
vt 0.263933 0.628526
vt 0.169332 0.580266
vt 0.169332 0.568976
vt 0.168466 0.628530
vt 0.168466 0.618880
vt 0.128515 0.612013
vt 0.320119 0.714738
vt 0.310424 0.714740
vt 0.168468 0.730334
vt 0.168468 0.720522
vt 0.590899 0.551391
vt 0.590899 0.562681
vt 0.239426 0.713894
vt 0.251743 0.713898
vt 0.252477 0.704276
vt 0.253355 0.703462
vt 0.263046 0.703459
vt 0.590084 0.586169
vt 0.387860 0.586169
vt 0.263917 0.714711
vt 0.252497 0.714711
vt 0.263924 0.704272
vt 0.264669 0.713898
vt 0.590899 0.574128
vt 0.569698 0.364479
vt 0.326704 0.742711
vt 0.528927 0.742711
vt 0.569699 0.486791
vt 0.367475 0.486792
vt 0.528928 1.028108
vt 0.326704 1.028108
vt 0.347089 0.384864
vt 0.306318 0.643929
vt 0.590084 0.466406
vt 0.549313 0.643929
vt 0.306318 0.643929
vt 0.590084 0.306468
vt 0.590084 0.364479
vt 0.347089 0.364479
vt 0.306318 0.597450
vt 0.387045 0.549695
vt 0.387045 0.524009
vt 0.550128 0.809225
vt 0.550128 0.643114
vt 0.305503 0.689593
vt 0.305503 0.644745
vt 0.305503 0.598266
vt 0.590084 0.473337
vt 0.590084 0.482423
vt 0.387860 0.482423
vt 0.263920 1.055426
vt 0.585133 0.498265
vt 0.523162 0.716559
vt 0.332469 0.471934
vt 0.523162 0.471934
vt 0.352040 0.801829
vt 0.352040 0.784297
vt 0.392811 0.497450
vt 0.392811 0.479918
vt 0.544362 0.784297
vt 0.392811 0.479103
vt 0.585133 0.479103
vt 0.393626 0.476657
vt 0.584318 0.476657
vt 0.067461 1.061190
s 0
usemtl white
f 12/1/1 8/2/1 24/3/1 16/4/1
f 2/5/2 10/6/2 18/7/2 14/8/2
f 7/9/3 5/10/3 19/11/3 22/12/3
f 20/13/4 4/14/4 3/15/4 13/16/4
f 29/17/5 25/18/5 36/19/5 32/20/5
f 15/21/6 17/22/6 23/23/6 21/24/6
f 35/25/7 40/26/7 47/27/7 33/28/7
f 27/29/2 39/30/2 41/31/2 34/32/2
f 31/33/3 46/34/3 43/35/3 30/36/3
f 45/37/8 37/38/8 26/39/8 28/40/8
f 61/41/9 67/42/9 52/43/9 51/44/9
f 38/45/6 44/46/6 48/47/6 42/48/6
f 63/49/10 64/50/10 71/51/10 68/52/10
f 79/53/7 73/54/7 100/55/7 97/56/7
f 69/57/11 70/58/11 56/59/11 53/60/11
f 50/61/12 58/62/12 65/63/12 62/64/12
f 57/65/13 72/66/13 66/67/13 60/68/13
f 54/69/14 55/70/14 59/71/14 49/72/14
f 108/73/15 131/74/15 127/75/15 105/76/15
f 75/77/13 76/78/13 103/79/13 101/80/13
f 78/81/1 82/82/1 106/83/1 104/84/1
f 84/85/9 80/86/9 99/87/9 107/88/9
f 88/89/1 85/90/1 114/91/1 110/92/1
f 119/93/16 111/94/16 134/95/16 141/96/16
f 105/97/15 127/98/15 124/99/15 102/100/15
f 94/101/7 92/102/7 120/103/7 116/104/7
f 96/105/16 83/106/16 77/107/16 93/108/16
f 117/109/16 119/110/16 141/111/16 137/112/16
f 90/113/16 74/114/16 81/115/16 86/116/16
f 86/117/16 81/118/16 83/119/16 96/120/16
f 113/121/16 117/122/16 137/123/16 144/124/16
f 102/125/15 124/126/15 123/127/15 98/128/15
f 87/129/13 95/130/13 115/131/13 112/132/13
f 91/133/9 89/134/9 109/135/9 118/136/9
f 93/137/16 77/138/16 74/139/16 90/140/16
f 142/141/13 136/142/13 132/143/13 122/144/13
f 139/145/9 133/146/9 125/147/9 129/148/9
f 138/149/7 140/150/7 128/151/7 130/152/7
f 135/153/1 143/154/1 121/155/1 126/156/1
f 111/157/16 113/158/16 144/159/16 134/160/16
f 98/161/15 123/162/15 131/163/15 108/164/15
f 1/165/17 2/5/17 3/166/17
f 4/14/18 5/167/18 6/168/18
f 7/169/19 8/2/19 9/170/19
f 10/6/20 11/171/20 12/172/20
f 13/173/21 14/8/21 15/174/21
f 16/175/22 17/22/22 18/176/22
f 19/177/23 20/13/23 21/178/23
f 22/179/24 23/23/24 24/180/24
f 25/181/25 26/39/25 27/182/25
f 28/40/26 29/183/26 30/184/26
f 31/33/27 32/185/27 33/186/27
f 34/32/28 35/187/28 36/188/28
f 37/38/29 38/189/29 39/190/29
f 40/191/30 41/31/30 42/192/30
f 43/35/31 44/193/31 45/194/31
f 46/34/32 47/195/32 48/196/32
f 49/197/33 50/61/33 51/198/33
f 52/43/34 53/199/34 54/200/34
f 55/70/35 56/201/35 57/202/35
f 58/62/36 59/203/36 60/204/36
f 61/205/37 62/64/37 63/206/37
f 64/50/38 65/207/38 66/208/38
f 67/209/39 68/52/39 69/210/39
f 70/211/40 71/51/40 72/212/40
f 73/213/41 74/114/41 75/214/41
f 76/78/42 77/215/42 78/216/42
f 79/217/43 80/86/43 81/218/43
f 82/219/44 83/106/44 84/220/44
f 85/221/45 86/116/45 87/222/45
f 88/223/46 89/134/46 90/224/46
f 91/133/47 92/225/47 93/226/47
f 94/101/48 95/227/48 96/228/48
f 97/56/49 98/229/49 99/230/49
f 100/55/21 101/231/21 102/232/21
f 103/79/29 104/233/29 105/234/29
f 106/235/50 107/88/50 108/236/50
f 109/135/51 110/237/51 111/238/51
f 112/239/52 113/121/52 114/240/52
f 115/241/53 116/104/53 117/242/53
f 118/136/54 119/243/54 120/244/54
f 121/155/55 122/245/55 123/246/55
f 124/99/56 125/247/56 126/248/56
f 127/249/57 128/250/57 129/251/57
f 130/252/58 131/74/58 132/253/58
f 133/254/46 134/255/46 135/256/46
f 136/257/48 137/258/48 138/259/48
f 139/145/47 140/260/47 141/261/47
f 142/262/45 143/154/45 144/263/45
f 3/264/59 4/265/59 6/266/59 1/267/59
f 5/268/60 7/269/60 9/270/60 6/266/60
f 2/5/61 14/8/61 13/271/61 3/272/61
f 1/273/62 11/274/62 10/6/62 2/5/62
f 4/14/63 20/13/63 19/275/63 5/276/63
f 8/277/64 12/278/64 11/279/64 9/270/64
f 12/172/65 16/280/65 18/7/65 10/6/65
f 7/281/66 22/282/66 24/3/66 8/2/66
f 14/8/67 18/7/67 17/283/67 15/174/67
f 15/21/68 21/24/68 20/284/68 13/285/68
f 16/175/69 24/180/69 23/23/69 17/22/69
f 21/24/70 23/23/70 22/179/70 19/286/70
f 25/181/71 29/183/71 28/40/71 26/39/71
f 29/287/72 32/288/72 31/33/72 30/36/72
f 26/39/73 37/38/73 39/289/73 27/290/73
f 27/29/62 34/32/62 36/291/62 25/292/62
f 30/36/74 43/35/74 45/293/74 28/294/74
f 32/20/75 36/19/75 35/295/75 33/296/75
f 34/32/76 41/31/76 40/191/76 35/187/76
f 33/297/77 47/298/77 46/34/77 31/33/77
f 38/299/67 42/192/67 41/31/67 39/30/67
f 37/38/78 45/37/78 44/300/78 38/301/78
f 42/48/79 48/47/79 47/302/79 40/303/79
f 43/35/80 46/34/80 48/196/80 44/193/80
f 51/304/81 52/305/81 54/69/81 49/72/81
f 53/210/82 56/211/82 55/70/82 54/69/82
f 50/61/83 62/64/83 61/205/83 51/198/83
f 52/43/84 67/42/84 69/306/84 53/199/84
f 56/307/85 70/308/85 72/66/85 57/65/85
f 66/67/86 72/66/86 71/309/86 64/310/86
f 49/311/87 59/312/87 58/62/87 50/61/87
f 68/52/88 71/51/88 70/211/88 69/210/88
f 57/65/89 60/68/89 59/313/89 55/314/89
f 60/68/90 66/67/90 65/315/90 58/316/90
f 62/64/91 65/63/91 64/50/91 63/49/91
f 63/49/92 68/52/92 67/209/92 61/317/92
f 85/221/93 88/318/93 90/113/93 86/116/93
f 89/319/94 91/320/94 93/137/94 90/140/94
f 92/321/95 94/322/95 96/105/95 93/108/95
f 95/323/96 87/324/96 86/117/96 96/120/96
f 81/115/95 74/114/95 73/213/95 79/325/95
f 74/326/96 77/215/96 76/78/96 75/77/96
f 77/107/93 83/106/93 82/219/93 78/327/93
f 83/328/94 81/329/94 80/86/94 84/85/94
f 97/56/97 100/55/97 102/330/97 98/229/97
f 101/80/98 103/79/98 105/97/98 102/100/98
f 104/331/99 106/332/99 108/73/99 105/76/99
f 107/88/100 99/87/100 98/333/100 108/236/100
f 87/334/101 112/335/101 114/91/101 85/90/101
f 91/133/102 118/136/102 120/336/102 92/225/102
f 115/241/103 95/227/103 94/101/103 116/104/103
f 109/135/104 89/134/104 88/223/104 110/237/104
f 84/85/104 107/88/104 106/235/104 82/337/104
f 103/79/101 76/78/101 78/216/101 104/233/101
f 75/77/103 101/80/103 100/338/103 73/339/103
f 99/87/102 80/86/102 79/217/102 97/340/102
f 119/341/95 117/242/95 116/104/95 120/103/95
f 113/158/93 111/157/93 110/342/93 114/343/93
f 117/122/96 113/121/96 112/239/96 115/344/96
f 111/94/94 119/93/94 118/136/94 109/135/94
f 123/246/99 124/345/99 126/156/99 121/155/99
f 124/99/100 127/98/100 129/346/100 125/247/100
f 127/75/97 131/74/97 130/252/97 128/250/97
f 131/163/98 123/162/98 122/347/98 132/348/98
f 125/147/104 133/146/104 135/349/104 126/350/104
f 132/351/103 136/352/103 138/149/103 130/152/103
f 139/145/102 129/148/102 128/353/102 140/260/102
f 142/262/101 122/245/101 121/155/101 143/154/101
f 140/150/95 138/149/95 137/354/95 141/355/95
f 143/356/93 135/357/93 134/160/93 144/159/93
f 136/257/96 142/358/96 144/124/96 137/123/96
f 133/146/94 139/145/94 141/96/94 134/95/94
f 6/266/5 9/270/5 11/279/5 1/267/5
