# Blender 4.0.2
# www.blender.org
mtllib tiled_wall_roof_4500_frame_win_600x600.mtl
o tiled_wall_roof_4500_frame_win_600x600
v 0.094938 0.250000 -2.129267
v 0.094938 0.250000 1.879267
v 0.024938 0.250000 -2.129267
v 0.024938 0.250000 1.879267
v 0.094938 0.200000 -2.188855
v 0.094938 0.200000 1.938855
v 0.024938 0.200000 -2.188855
v 0.024938 0.200000 1.938855
v 0.094938 1.805915 0.025000
v 0.094938 0.250000 1.879267
v 0.024938 1.805915 0.025000
v 0.024938 0.250000 1.879267
v 0.094938 1.740645 0.025000
v 0.094938 0.250000 1.801481
v 0.024938 1.740645 0.025000
v 0.024938 0.250000 1.801481
v 0.094938 1.805915 0.025000
v 0.094938 1.190000 0.025000
v 0.024938 1.805915 0.025000
v 0.024938 1.190000 0.025000
v 0.094938 1.805915 -0.025000
v 0.094938 1.190000 -0.025000
v 0.024938 1.805915 -0.025000
v 0.024938 1.190000 -0.025000
v 0.094938 1.199713 0.669658
v 0.094938 0.250000 0.669658
v 0.024938 1.199713 0.669658
v 0.024938 0.250000 0.669658
v 0.094938 1.157758 0.719658
v 0.094938 0.250000 0.719658
v 0.024938 1.157758 0.719658
v 0.024938 0.250000 0.719658
v 0.094938 0.859590 1.075000
v 0.094938 0.250000 1.075000
v 0.024938 0.859590 1.075000
v 0.024938 0.250000 1.075000
v 0.094938 0.817635 1.125000
v 0.094938 0.250000 1.125000
v 0.024938 0.817635 1.125000
v 0.024938 0.250000 1.125000
v 0.094938 0.398085 1.625000
v 0.094938 0.250000 1.625000
v 0.024938 0.398085 1.625000
v 0.024938 0.250000 1.625000
v 0.094938 0.356130 1.674999
v 0.094938 0.250000 1.675000
v 0.024938 0.356130 1.675000
v 0.024938 0.250000 1.675000
v 0.024938 0.250000 -1.675000
v 0.024938 0.356130 -1.675000
v 0.094938 0.250000 -1.675000
v 0.094938 0.356130 -1.674999
v 0.024938 0.250000 -1.625000
v 0.024938 0.398085 -1.625000
v 0.094938 0.250000 -1.625000
v 0.094938 0.398085 -1.625000
v 0.024938 0.250000 -1.125000
v 0.024938 0.817635 -1.125000
v 0.094938 0.250000 -1.125000
v 0.094938 0.817635 -1.125000
v 0.024938 0.250000 -1.075000
v 0.024938 0.859590 -1.075000
v 0.094938 0.250000 -1.075000
v 0.094938 0.859590 -1.075000
v 0.024938 0.250000 -1.801481
v 0.024938 1.740645 -0.025000
v 0.094938 0.250000 -1.801481
v 0.094938 1.740645 -0.025000
v 0.024938 0.250000 -1.879267
v 0.024938 1.805915 -0.025000
v 0.094938 0.250000 -1.879267
v 0.094938 1.805915 -0.025000
v 0.094938 1.190000 -0.320000
v 0.094938 1.190000 0.320000
v 0.024938 1.190000 -0.320000
v 0.024938 1.190000 0.320000
v 0.094938 1.140000 -0.320000
v 0.094938 1.140000 0.320000
v 0.024938 1.140000 -0.320000
v 0.024938 1.140000 0.320000
v 0.094938 1.493111 0.320000
v 0.094938 0.250000 0.320000
v 0.024938 1.493111 0.320000
v 0.024938 0.250000 0.320000
v 0.094938 1.451156 0.369999
v 0.094938 0.250000 0.370000
v 0.024938 1.451156 0.370000
v 0.024938 0.250000 0.370000
v 0.094938 1.199713 -0.669658
v 0.094938 0.250000 -0.669658
v 0.024938 1.199713 -0.669658
v 0.024938 0.250000 -0.669658
v 0.094938 1.157758 -0.719658
v 0.094938 0.250000 -0.719658
v 0.024938 1.157758 -0.719658
v 0.024938 0.250000 -0.719658
v 0.094938 1.493111 -0.320000
v 0.094938 0.250000 -0.320000
v 0.024938 1.493111 -0.320000
v 0.024938 0.250000 -0.320000
v 0.094938 1.451156 -0.369999
v 0.094938 0.250000 -0.370000
v 0.024938 1.451156 -0.370000
v 0.024938 0.250000 -0.370000
v 0.094938 0.490000 -0.320000
v 0.094938 0.490000 0.320000
v 0.024938 0.490000 -0.320000
v 0.024938 0.490000 0.320000
v 0.094938 0.440000 -0.320000
v 0.094938 0.440000 0.320000
v 0.024938 0.440000 -0.320000
v 0.024938 0.440000 0.320000
v 0.094938 0.440000 0.025000
v 0.094938 0.250000 0.025000
v 0.024938 0.440000 0.025000
v 0.024938 0.250000 0.025000
v 0.094938 0.440000 -0.025000
v 0.094938 0.250000 -0.025000
v 0.024938 0.440000 -0.025000
v 0.024938 0.250000 -0.025000
vn -0.0000 1.0000 -0.0000
vn -0.0000 -1.0000 -0.0000
vn -0.0000 0.7660 -0.6428
vn -1.0000 -0.0000 -0.0000
vn 1.0000 -0.0000 -0.0000
vn -0.0000 0.7660 0.6428
vn -0.0000 -0.7660 -0.6428
vn -0.0000 -0.0000 -1.0000
vn -0.0000 -0.0000 1.0000
vn -0.0000 -0.7660 0.6428
vt 1.986315 0.869281
vt 0.676336 0.869281
vt 0.676336 0.892157
vt 1.986315 0.892157
vt 2.005785 0.915033
vt 2.005786 0.892157
vt 0.656863 0.892157
vt 0.656863 0.915033
vt 0.369283 0.313561
vt 0.369282 0.329901
vt 0.392158 0.329901
vt 0.392158 0.313561
vt 0.176337 0.743692
vt 0.156864 0.760033
vt 1.505788 0.760030
vt 1.486317 0.743690
vt -0.499387 0.782907
vt -0.518858 0.799247
vt 0.830065 0.799247
vt 0.810593 0.782907
vt 0.392155 0.256990
vt 0.392155 0.273330
vt 0.415031 0.273330
vt 0.415030 0.256990
vt 1.782293 0.869281
vt 1.176323 0.869281
vt 1.176324 0.892157
vt 1.782293 0.892157
vt 1.756871 0.915033
vt 1.756872 0.892157
vt 1.176323 0.892158
vt 1.176322 0.915034
vt 0.369312 -0.512799
vt 0.369311 -0.501617
vt 0.392186 -0.501613
vt 0.392187 -0.512796
vt 0.882598 0.544084
vt 0.896311 0.560426
vt 1.654171 0.560465
vt 1.673642 0.544125
vt -0.686696 0.583407
vt -0.667224 0.599748
vt 0.090607 0.599724
vt 0.104317 0.583383
vt 0.392155 0.605856
vt 0.392155 0.618697
vt 0.415030 0.618692
vt 0.415030 0.605852
vt -0.079237 1.183344
vt -0.079237 1.183344
vt -0.102113 1.183344
vt -0.124989 1.167003
vt -0.102113 1.167004
vt -0.102113 1.167003
vt -0.124989 1.167003
vt 1.365060 0.172292
vt 1.365038 0.195167
vt 0.554844 0.683380
vt 0.554840 0.667036
vt 0.353553 0.667025
vt 0.353556 0.683368
vt 0.314329 -0.090428
vt 0.314327 -0.074086
vt 0.515607 -0.074091
vt 0.515609 -0.090434
vt -0.376010 0.195157
vt -0.376005 0.195156
vt -0.375990 0.218033
vt -0.376030 0.218035
vt -0.079237 1.183344
vt -0.079237 1.183344
vt -0.124989 1.167003
vt -0.124989 1.167003
vt -0.102113 1.167004
vt -0.102113 1.167004
vt 1.365059 0.172288
vt 1.365038 0.195163
vt 1.365038 0.195163
vt 1.365059 0.172288
vt 0.356796 1.073855
vt 0.046412 1.073832
vt 0.046417 1.090175
vt 0.343088 1.090197
vt 0.007188 -0.480873
vt 0.317554 -0.480888
vt 0.303845 -0.497229
vt 0.007190 -0.497214
vt -0.376559 0.195193
vt -0.376561 0.218069
vt -0.376584 0.218071
vt -0.376582 0.195195
vt -0.124990 1.167003
vt -0.124990 1.167003
vt -0.102114 1.167003
vt -0.102114 1.167004
vt 1.365058 0.172293
vt 1.365036 0.195168
vt 1.365035 0.195168
vt 1.365057 0.172293
vt 0.245669 1.386095
vt 0.046446 1.386083
vt 0.046447 1.402422
vt 0.231959 1.402434
vt 0.007228 -0.793107
vt 0.206440 -0.793114
vt 0.192732 -0.809454
vt 0.007230 -0.809448
vt -0.376992 0.195220
vt -0.377000 0.218098
vt -0.377019 0.218098
vt -0.377015 0.195221
vt -0.102113 1.183344
vt -0.079237 1.183344
vt -0.124991 1.167003
vt -0.124991 1.167003
vt -0.102115 1.167004
vt -0.102115 1.167004
vt 1.365060 0.172290
vt 1.365038 0.195165
vt 1.365038 0.195165
vt 1.365060 0.172290
vt 0.094874 1.745612
vt 0.046478 1.745609
vt 0.046483 1.761947
vt 0.081168 1.761949
vt 0.007270 -1.152609
vt 0.055665 -1.152610
vt 0.041959 -1.168950
vt 0.007276 -1.168948
vt -0.377494 0.195249
vt -0.377494 0.218128
vt -0.377520 0.218131
vt -0.377509 0.195250
vt -0.079237 1.183344
vt -0.124989 1.167003
vt -0.102113 1.167004
vt -0.102113 1.167004
vt 1.365060 0.172292
vt 1.365060 0.172293
vt 1.365039 0.195168
vt 1.365039 0.195168
vt 0.353538 0.570603
vt 0.337198 0.570602
vt 0.337230 0.779792
vt 0.353571 0.779793
vt 0.314340 -0.186844
vt 0.298001 -0.186844
vt 0.297974 0.022332
vt 0.314313 0.022332
vt -0.376359 0.195178
vt -0.376359 0.195178
vt -0.376362 0.218055
vt -0.376362 0.218055
vt -0.124989 1.167003
vt -0.124989 1.167003
vt -0.102113 1.167004
vt 1.365060 0.172290
vt 1.365039 0.195165
vt 1.365038 0.195165
vt 1.365060 0.172290
vt 0.452657 0.959574
vt 0.046378 0.959539
vt 0.046382 0.975883
vt 0.438949 0.975916
vt 0.007174 -0.366592
vt 0.413418 -0.366611
vt 0.399709 -0.382952
vt 0.007176 -0.382934
vt -0.376402 0.195179
vt -0.376405 0.218056
vt -0.376428 0.218058
vt -0.376425 0.195181
vt 1.365060 0.172293
vt 1.365061 0.172293
vt 1.365040 0.195168
vt 1.365039 0.195168
vt 0.124770 0.570590
vt 0.108430 0.570590
vt 0.108462 0.779779
vt 0.124803 0.779781
vt 0.085589 -0.186840
vt 0.069250 -0.186840
vt 0.069222 0.022336
vt 0.085562 0.022335
vt -0.376360 0.195180
vt -0.376360 0.195180
vt -0.376363 0.218057
vt -0.376363 0.218057
vt -0.079237 1.183345
vt -0.079237 1.183345
vt -0.102113 1.183344
vt -0.124989 1.167003
vt -0.102113 1.167004
vt -0.102113 1.167004
vt 0.108448 0.683353
vt 0.108445 0.667010
vt 0.046351 0.667006
vt 0.046354 0.683349
vt 0.007139 -0.090420
vt 0.007137 -0.074078
vt 0.069228 -0.074080
vt 0.069230 -0.090422
s 0
usemtl wood.001
f 2/1/1 1/2/1 3/3/1 4/4/1
f 6/5/2 8/6/2 7/7/2 5/8/2
f 1/9/3 5/10/3 7/11/3 3/12/3
f 3/13/4 7/14/4 8/15/4 4/16/4
f 2/17/5 6/18/5 5/19/5 1/20/5
f 4/21/6 8/22/6 6/23/6 2/24/6
f 10/25/6 9/26/6 11/27/6 12/28/6
f 14/29/7 16/30/7 15/31/7 13/32/7
f 9/33/8 13/34/8 15/35/8 11/36/8
f 11/37/4 15/38/4 16/39/4 12/40/4
f 10/41/5 14/42/5 13/43/5 9/44/5
f 12/45/2 16/46/2 14/47/2 10/48/2
f 18/49/9 17/50/9 19/51/9 20/51/9
f 22/52/8 24/53/8 23/54/8 21/55/8
f 17/56/1 21/56/1 23/57/1 19/57/1
f 19/58/4 23/59/4 24/60/4 20/61/4
f 18/62/5 22/63/5 21/64/5 17/65/5
f 20/66/2 24/67/2 22/68/2 18/69/2
f 26/70/8 28/51/8 27/51/8 25/71/8
f 30/72/9 29/73/9 31/74/9 32/75/9
f 25/76/6 27/77/6 31/78/6 29/79/6
f 27/80/4 28/81/4 32/82/4 31/83/4
f 26/84/5 25/85/5 29/86/5 30/87/5
f 28/88/2 26/89/2 30/90/2 32/91/2
f 34/70/8 36/51/8 35/51/8 33/49/8
f 38/92/9 37/93/9 39/94/9 40/95/9
f 33/96/6 35/97/6 39/98/6 37/99/6
f 35/100/4 36/101/4 40/102/4 39/103/4
f 34/104/5 33/105/5 37/106/5 38/107/5
f 36/108/2 34/109/2 38/110/2 40/111/2
f 42/70/8 44/51/8 43/112/8 41/113/8
f 46/114/9 45/115/9 47/116/9 48/117/9
f 41/118/6 43/119/6 47/120/6 45/121/6
f 43/122/4 44/123/4 48/124/4 47/125/4
f 42/126/5 41/127/5 45/128/5 46/129/5
f 44/130/2 42/131/2 46/132/2 48/133/2
f 55/126/5 51/129/5 52/128/5 56/127/5
f 55/70/9 56/113/9 54/112/9 53/51/9
f 54/122/4 50/125/4 49/124/4 53/123/4
f 51/114/8 49/117/8 50/116/8 52/115/8
f 53/130/2 49/133/2 51/132/2 55/131/2
f 56/118/3 52/121/3 50/120/3 54/119/3
f 63/104/5 59/107/5 60/106/5 64/105/5
f 63/70/9 64/49/9 62/51/9 61/51/9
f 62/100/4 58/103/4 57/102/4 61/101/4
f 59/92/8 57/95/8 58/94/8 60/93/8
f 61/108/2 57/111/2 59/110/2 63/109/2
f 64/96/3 60/99/3 58/98/3 62/97/3
f 71/41/5 72/44/5 68/43/5 67/42/5
f 71/25/3 69/28/3 70/27/3 72/26/3
f 70/37/4 69/40/4 65/39/4 66/38/4
f 67/29/10 68/32/10 66/31/10 65/30/10
f 69/45/2 71/48/2 67/47/2 65/46/2
f 72/33/9 70/36/9 66/35/9 68/34/9
f 74/134/1 73/134/1 75/51/1 76/51/1
f 78/135/2 80/136/2 79/137/2 77/135/2
f 73/138/8 77/139/8 79/140/8 75/141/8
f 75/142/4 79/143/4 80/144/4 76/145/4
f 74/146/5 78/147/5 77/148/5 73/149/5
f 76/150/9 80/151/9 78/152/9 74/153/9
f 82/70/8 84/51/8 83/51/8 81/71/8
f 86/154/9 85/155/9 87/156/9 88/75/9
f 81/157/6 83/158/6 87/159/6 85/160/6
f 83/161/4 84/162/4 88/163/4 87/164/4
f 82/165/5 81/166/5 85/167/5 86/168/5
f 84/169/2 82/170/2 86/171/2 88/172/2
f 90/70/9 89/71/9 91/51/9 92/51/9
f 94/72/8 96/75/8 95/74/8 93/73/8
f 89/76/3 93/79/3 95/78/3 91/77/3
f 91/80/4 95/83/4 96/82/4 92/81/4
f 90/84/5 94/87/5 93/86/5 89/85/5
f 92/88/2 96/91/2 94/90/2 90/89/2
f 98/70/9 97/71/9 99/51/9 100/51/9
f 102/154/8 104/75/8 103/156/8 101/155/8
f 97/157/3 101/160/3 103/159/3 99/158/3
f 99/161/4 103/164/4 104/163/4 100/162/4
f 98/165/5 102/168/5 101/167/5 97/166/5
f 100/169/2 104/172/2 102/171/2 98/170/2
f 106/134/1 105/134/1 107/51/1 108/51/1
f 110/135/2 112/136/2 111/137/2 109/135/2
f 105/173/8 109/174/8 111/175/8 107/176/8
f 107/177/4 111/178/4 112/179/4 108/180/4
f 106/181/5 110/182/5 109/183/5 105/184/5
f 108/185/9 112/186/9 110/187/9 106/188/9
f 114/189/9 113/190/9 115/191/9 116/191/9
f 118/192/8 120/193/8 119/194/8 117/154/8
f 113/56/1 117/56/1 119/57/1 115/57/1
f 115/195/4 119/196/4 120/197/4 116/198/4
f 114/199/5 118/200/5 117/201/5 113/202/5
f 116/66/2 120/67/2 118/68/2 114/69/2
