# Blender 4.0.2
# www.blender.org
mtllib tiled_wall_roof_6000_frame_win_600x600.mtl
o tiled_wall_roof_6000_frame_win_600x600
v 0.094938 0.250000 -2.629267
v 0.094938 0.250000 2.629267
v 0.024938 0.250000 -2.629267
v 0.024938 0.250000 2.629267
v 0.094938 0.200000 -2.688855
v 0.094938 0.200000 2.688855
v 0.024938 0.200000 -2.688855
v 0.024938 0.200000 2.688855
v 0.094938 2.435485 0.024708
v 0.094938 0.250000 2.629267
v 0.024938 2.435485 0.024708
v 0.024938 0.250000 2.629267
v 0.094938 2.369970 0.025000
v 0.094938 0.250000 2.551481
v 0.024938 2.369970 0.025000
v 0.024938 0.250000 2.551481
v 0.094938 2.435485 -0.024708
v 0.094938 0.250000 -2.629268
v 0.024938 2.435485 -0.024708
v 0.024938 0.250000 -2.629268
v 0.094938 2.369970 -0.025000
v 0.094938 0.250000 -2.551482
v 0.024938 2.369970 -0.025000
v 0.024938 0.250000 -2.551482
v 0.094938 2.435833 0.025000
v 0.094938 1.536877 0.025000
v 0.024938 2.435833 0.025000
v 0.024938 1.536877 0.025000
v 0.094938 2.435833 -0.025000
v 0.094938 1.536877 -0.025000
v 0.024938 2.435833 -0.025000
v 0.024938 1.536877 -0.025000
v 0.094938 1.488915 -1.075000
v 0.094938 0.250000 -1.075000
v 0.024938 1.488915 -1.075000
v 0.024938 0.250000 -1.075000
v 0.094938 1.446960 -1.125000
v 0.094938 0.250000 -1.125000
v 0.024938 1.446960 -1.125000
v 0.024938 0.250000 -1.125000
v 0.094938 1.027410 -1.625000
v 0.094938 0.250000 -1.625000
v 0.024938 1.027410 -1.625000
v 0.024938 0.250000 -1.625000
v 0.094938 0.985456 -1.675000
v 0.094938 0.250000 -1.675000
v 0.024938 0.985456 -1.675000
v 0.024938 0.250000 -1.675000
v 0.094938 0.565905 -2.175000
v 0.094938 0.250000 -2.175000
v 0.024938 0.565905 -2.175000
v 0.024938 0.250000 -2.175000
v 0.094938 0.523950 -2.225000
v 0.094938 0.250000 -2.225000
v 0.024938 0.523950 -2.225000
v 0.024938 0.250000 -2.225000
v 0.094938 1.826524 0.672653
v 0.094938 0.250000 0.672654
v 0.024938 1.826524 0.672653
v 0.024938 0.250000 0.672654
v 0.094938 1.784569 0.722653
v 0.094938 0.250000 0.722654
v 0.024938 1.784569 0.722653
v 0.024938 0.250000 0.722654
v 0.094938 1.488915 1.075000
v 0.094938 0.250000 1.075000
v 0.024938 1.488915 1.075000
v 0.024938 0.250000 1.075000
v 0.094938 1.446960 1.125000
v 0.094938 0.250000 1.125000
v 0.024938 1.446960 1.125000
v 0.024938 0.250000 1.125000
v 0.094938 1.027410 1.625000
v 0.094938 0.250000 1.625000
v 0.024938 1.027410 1.625000
v 0.024938 0.250000 1.625000
v 0.094938 0.985456 1.674999
v 0.094938 0.250000 1.675000
v 0.024938 0.985456 1.675000
v 0.024938 0.250000 1.675000
v 0.094938 0.565905 2.175000
v 0.094938 0.250000 2.175000
v 0.024938 0.565905 2.175000
v 0.024938 0.250000 2.175000
v 0.094938 0.523950 2.224999
v 0.094938 0.250000 2.225000
v 0.024938 0.523950 2.225000
v 0.024938 0.250000 2.225000
v 0.094938 2.080480 0.370000
v 0.094938 0.250000 0.370000
v 0.024938 2.080480 0.370000
v 0.024938 0.250000 0.370000
v 0.094938 2.122435 0.320000
v 0.094938 0.250000 0.320000
v 0.024938 2.122435 0.320000
v 0.024938 0.250000 0.320000
v 0.024938 1.536877 -0.320000
v 0.024938 1.536877 0.320000
v 0.094938 1.536877 -0.320000
v 0.094938 1.536877 0.320000
v 0.024938 1.486877 -0.320000
v 0.024938 1.486877 0.320000
v 0.094938 1.486877 -0.320000
v 0.094938 1.486877 0.320000
v 0.024938 0.250000 -0.320000
v 0.024938 2.122435 -0.320000
v 0.094938 0.250000 -0.320000
v 0.094938 2.122435 -0.320000
v 0.024938 0.250000 -0.370000
v 0.024938 2.080480 -0.370000
v 0.094938 0.250000 -0.370000
v 0.094938 2.080480 -0.370000
v 0.094938 0.796877 0.025000
v 0.094938 0.250000 0.025000
v 0.024938 0.796877 0.025000
v 0.024938 0.250000 0.025000
v 0.094938 0.796877 -0.025000
v 0.094938 0.250000 -0.025000
v 0.024938 0.796877 -0.025000
v 0.024938 0.250000 -0.025000
v 0.094938 1.826524 -0.672653
v 0.094938 0.250000 -0.672654
v 0.024938 1.826524 -0.672653
v 0.024938 0.250000 -0.672654
v 0.094938 1.784569 -0.722653
v 0.094938 0.250000 -0.722654
v 0.024938 1.784569 -0.722653
v 0.024938 0.250000 -0.722654
v 0.024938 0.846877 -0.320000
v 0.024938 0.846877 0.320000
v 0.094938 0.846877 -0.320000
v 0.094938 0.846877 0.320000
v 0.024938 0.796878 -0.320000
v 0.024938 0.796877 0.320000
v 0.094938 0.796878 -0.320000
v 0.094938 0.796877 0.320000
vn -0.0000 1.0000 -0.0000
vn -0.0000 -1.0000 -0.0000
vn -0.0000 0.7660 -0.6428
vn -1.0000 -0.0000 -0.0000
vn 1.0000 -0.0000 -0.0000
vn -0.0000 0.7660 0.6428
vn -0.0000 -0.7660 -0.6428
vn -0.0000 -0.0045 -1.0000
vn -0.0000 -0.7660 0.6428
vn -0.0000 -0.0045 1.0000
vn -0.0000 -0.0000 1.0000
vn -0.0000 -0.0000 -1.0000
vt 2.231413 0.869281
vt 0.512937 0.869281
vt 0.512938 0.892157
vt 2.231413 0.892157
vt 2.250883 0.915033
vt 2.250884 0.892157
vt 0.493464 0.892157
vt 0.493464 0.915033
vt 0.369282 0.394019
vt 0.369281 0.410359
vt 0.392157 0.410358
vt 0.392157 0.394019
vt 0.012938 0.743692
vt -0.006535 0.760033
vt 1.750886 0.760029
vt 1.731415 0.743690
vt -0.744485 0.782907
vt -0.763956 0.799247
vt 0.993464 0.799247
vt 0.973992 0.782907
vt 0.392156 0.377677
vt 0.392156 0.394017
vt 0.415032 0.394017
vt 0.415032 0.377677
vt 1.926122 0.869281
vt 1.074959 0.869281
vt 1.074960 0.892157
vt 1.926123 0.892157
vt 1.900700 0.915033
vt 1.900701 0.892157
vt 1.075055 0.892158
vt 1.075054 0.915034
vt 0.369319 -0.631236
vt 0.369318 -0.618719
vt 0.392193 -0.618716
vt 0.392194 -0.631233
vt 0.750256 0.386519
vt 0.764093 0.402860
vt 1.841913 0.402915
vt 1.861384 0.386574
vt -0.874447 0.425857
vt -0.854975 0.442197
vt 0.222788 0.442163
vt 0.236621 0.425821
vt 0.392151 0.482047
vt 0.392151 0.494888
vt 0.415026 0.494883
vt 0.415026 0.482043
vt 0.917680 0.869281
vt 0.917681 0.892157
vt 1.065483 0.892157
vt 1.065483 0.869281
vt 0.922094 0.915034
vt 1.065466 0.915034
vt 1.065466 0.892158
vt 0.922094 0.892158
vt 0.369319 -0.631278
vt 0.392194 -0.631275
vt 0.392193 -0.618758
vt 0.369318 -0.618762
vt 0.994102 0.386592
vt -0.117231 0.386584
vt -0.097741 0.402935
vt 0.980265 0.402934
vt 1.104016 0.425822
vt -0.007180 0.425873
vt 0.006657 0.442210
vt 1.084539 0.442162
vt 0.392183 1.350122
vt 0.415060 1.350065
vt 0.415058 1.337233
vt 0.392184 1.337284
vt -0.079237 1.183344
vt -0.079237 1.183344
vt -0.102113 1.183344
vt -0.124989 1.167003
vt -0.102113 1.167004
vt -0.102113 1.167003
vt -0.124989 1.167003
vt 1.365060 0.172292
vt 1.365038 0.195167
vt 0.760708 0.683393
vt 0.760704 0.667049
vt 0.466916 0.667031
vt 0.466919 0.683375
vt 0.427688 -0.090431
vt 0.427686 -0.074089
vt 0.721463 -0.074096
vt 0.721465 -0.090440
vt -0.376010 0.195157
vt -0.376005 0.195156
vt -0.375990 0.218033
vt -0.376030 0.218035
vt -0.079237 1.183344
vt -0.124989 1.167003
vt -0.102113 1.167004
vt 0.451244 0.683374
vt 0.437530 0.667030
vt 0.046352 0.667007
vt 0.046353 0.683349
vt 0.007139 -0.090419
vt 0.007137 -0.074078
vt 0.398301 -0.074088
vt 0.412014 -0.090431
vt -0.102113 1.183344
vt 0.300419 0.683364
vt 0.286706 0.667021
vt 0.247482 -0.074084
vt 0.261195 -0.090427
vt 0.149594 0.683355
vt 0.135881 0.667012
vt 0.096663 -0.074081
vt 0.110376 -0.090422
vt -0.079237 1.183344
vt -0.124989 1.167003
vt -0.124989 1.167003
vt -0.102114 1.167004
vt 1.365059 0.172290
vt 1.365038 0.195165
vt 1.365038 0.195165
vt 1.365059 0.172290
vt 0.561649 1.074849
vt 0.046413 1.074811
vt 0.046417 1.091155
vt 0.547941 1.091191
vt 0.007188 -0.481852
vt 0.522396 -0.481877
vt 0.508688 -0.498219
vt 0.007190 -0.498194
vt -0.376561 0.195193
vt -0.376563 0.218069
vt -0.376585 0.218071
vt -0.376583 0.195195
vt -0.124990 1.167003
vt -0.124990 1.167003
vt -0.102114 1.167003
vt -0.102114 1.167004
vt 1.365061 0.172291
vt 1.365039 0.195167
vt 1.365039 0.195166
vt 1.365060 0.172292
vt 0.451342 1.386106
vt 0.046446 1.386083
vt 0.046447 1.402422
vt 0.437632 1.402448
vt 0.007228 -0.793107
vt 0.412102 -0.793121
vt 0.398394 -0.809461
vt 0.007230 -0.809448
vt -0.376992 0.195220
vt -0.377000 0.218098
vt -0.377019 0.218098
vt -0.377015 0.195221
vt -0.124991 1.167003
vt -0.124991 1.167003
vt -0.102115 1.167003
vt -0.102115 1.167004
vt 1.365060 0.172292
vt 1.365038 0.195166
vt 1.365038 0.195166
vt 1.365060 0.172291
vt 0.300544 1.745622
vt 0.046478 1.745609
vt 0.046483 1.761947
vt 0.286838 1.761961
vt 0.007270 -1.152609
vt 0.261331 -1.152617
vt 0.247619 -1.168961
vt 0.007276 -1.168948
vt -0.377494 0.195249
vt -0.377494 0.218128
vt -0.377520 0.218131
vt -0.377509 0.195250
vt -0.079237 1.183344
vt -0.124991 1.167003
vt -0.124991 1.167003
vt -0.102116 1.167004
vt -0.102115 1.167004
vt 1.365059 0.172291
vt 1.365038 0.195165
vt 1.365061 0.172293
vt 0.149732 2.105127
vt 0.046482 2.105097
vt 0.046489 2.121431
vt 0.136016 2.121481
vt 0.007321 -1.512079
vt 0.110570 -1.512093
vt 0.096852 -1.528437
vt 0.007331 -1.528422
vt -0.377993 0.195282
vt -0.377986 0.218160
vt -0.378012 0.218160
vt -0.378016 0.195286
vt -0.079237 1.183344
vt -0.102113 1.167004
vt -0.102113 1.167003
vt 1.365060 0.172292
vt 1.365060 0.172292
vt 1.365039 0.195167
vt 1.365038 0.195167
vt 0.644601 0.796158
vt 0.658309 0.779816
vt 0.046363 0.779769
vt 0.046365 0.796112
vt 0.007153 -0.203175
vt 0.007151 -0.186833
vt 0.619059 -0.186859
vt 0.605350 -0.203201
vt -0.376173 0.195167
vt -0.376150 0.195165
vt -0.376157 0.218043
vt -0.376179 0.218044
vt 0.411332 0.022329
vt 0.427672 0.022328
vt 0.427702 -0.186854
vt 0.411362 -0.186853
vt -0.079237 1.183344
vt 0.450595 0.779793
vt 0.466935 0.779793
vt 0.466900 0.570606
vt 0.450560 0.570606
vt -0.102113 1.167004
vt -0.375585 0.195125
vt -0.375584 0.195125
vt -0.375590 0.218002
vt -0.375591 0.218002
vt 1.365065 0.172292
vt 1.365065 0.172292
vt 1.365043 0.195167
vt 1.365043 0.195167
vt -0.079237 1.183344
vt -0.079237 1.183344
vt -0.102113 1.183344
vt -0.102113 1.183344
vt -0.124989 1.167003
vt -0.102113 1.167004
vt -0.102113 1.167004
vt 0.225079 0.683360
vt 0.225076 0.667017
vt 0.046350 0.667006
vt 0.046354 0.683350
vt 0.007139 -0.090420
vt 0.007137 -0.074078
vt 0.185855 -0.074083
vt 0.185857 -0.090425
vt 0.185836 0.022338
vt 0.202176 0.022337
vt 0.202205 -0.186844
vt 0.185866 -0.186844
vt 0.225098 0.779793
vt 0.241438 0.779793
vt 0.241403 0.570604
vt 0.225062 0.570605
vt -0.375594 0.195128
vt -0.375594 0.195128
vt -0.375599 0.218005
vt -0.375600 0.218005
vt 1.365063 0.172292
vt 1.365062 0.172292
vt 1.365040 0.195166
vt 1.365040 0.195167
s 0
usemtl wood.001
f 2/1/1 1/2/1 3/3/1 4/4/1
f 6/5/2 8/6/2 7/7/2 5/8/2
f 1/9/3 5/10/3 7/11/3 3/12/3
f 3/13/4 7/14/4 8/15/4 4/16/4
f 2/17/5 6/18/5 5/19/5 1/20/5
f 4/21/6 8/22/6 6/23/6 2/24/6
f 10/25/6 9/26/6 11/27/6 12/28/6
f 14/29/7 16/30/7 15/31/7 13/32/7
f 9/33/8 13/34/8 15/35/8 11/36/8
f 11/37/4 15/38/4 16/39/4 12/40/4
f 10/41/5 14/42/5 13/43/5 9/44/5
f 12/45/2 16/46/2 14/47/2 10/48/2
f 18/49/3 20/50/3 19/51/3 17/52/3
f 22/53/9 21/54/9 23/55/9 24/56/9
f 17/57/10 19/58/10 23/59/10 21/60/10
f 19/61/4 20/62/4 24/63/4 23/64/4
f 18/65/5 17/66/5 21/67/5 22/68/5
f 20/69/2 18/70/2 22/71/2 24/72/2
f 26/73/11 25/74/11 27/75/11 28/75/11
f 30/76/12 32/77/12 31/78/12 29/79/12
f 25/80/1 29/80/1 31/81/1 27/81/1
f 27/82/4 31/83/4 32/84/4 28/85/4
f 26/86/5 30/87/5 29/88/5 25/89/5
f 28/90/2 32/91/2 30/92/2 26/93/2
f 34/94/11 33/74/11 35/75/11 36/75/11
f 38/95/12 40/96/12 39/78/12 37/79/12
f 33/80/3 37/80/3 39/81/3 35/81/3
f 35/97/4 39/98/4 40/99/4 36/100/4
f 34/101/5 38/102/5 37/103/5 33/104/5
f 36/90/2 40/91/2 38/92/2 34/93/2
f 42/94/11 41/74/11 43/105/11 44/75/11
f 46/95/12 48/96/12 47/96/12 45/79/12
f 41/80/3 45/80/3 47/81/3 43/81/3
f 43/106/4 47/107/4 48/99/4 44/100/4
f 42/101/5 46/102/5 45/108/5 41/109/5
f 44/90/2 48/91/2 46/92/2 42/93/2
f 50/94/11 49/94/11 51/75/11 52/75/11
f 54/95/12 56/96/12 55/96/12 53/95/12
f 49/80/3 53/80/3 55/81/3 51/81/3
f 51/110/4 55/111/4 56/99/4 52/100/4
f 50/101/5 54/102/5 53/112/5 49/113/5
f 52/90/2 56/91/2 54/92/2 50/93/2
f 58/94/12 60/75/12 59/75/12 57/114/12
f 62/115/11 61/116/11 63/117/11 64/96/11
f 57/118/6 59/119/6 63/120/6 61/121/6
f 59/122/4 60/123/4 64/124/4 63/125/4
f 58/126/5 57/127/5 61/128/5 62/129/5
f 60/130/2 58/131/2 62/132/2 64/133/2
f 66/94/12 68/75/12 67/75/12 65/74/12
f 70/134/11 69/135/11 71/136/11 72/137/11
f 65/138/6 67/139/6 71/140/6 69/141/6
f 67/142/4 68/143/4 72/144/4 71/145/4
f 66/146/5 65/147/5 69/148/5 70/149/5
f 68/150/2 66/151/2 70/152/2 72/153/2
f 74/94/12 76/75/12 75/105/12 73/74/12
f 78/154/11 77/155/11 79/156/11 80/157/11
f 73/158/6 75/159/6 79/160/6 77/161/6
f 75/162/4 76/163/4 80/164/4 79/165/4
f 74/166/5 73/167/5 77/168/5 78/169/5
f 76/170/2 74/171/2 78/172/2 80/173/2
f 82/94/12 84/75/12 83/75/12 81/174/12
f 86/175/11 85/176/11 87/177/11 88/178/11
f 81/179/6 83/160/6 87/180/6 85/181/6
f 83/182/4 84/183/4 88/184/4 87/185/4
f 82/186/5 81/187/5 85/188/5 86/189/5
f 84/190/2 82/191/2 86/192/2 88/193/2
f 90/94/11 89/194/11 91/75/11 92/75/11
f 94/95/12 96/195/12 95/196/12 93/116/12
f 89/197/6 93/198/6 95/199/6 91/200/6
f 91/201/4 95/202/4 96/203/4 92/204/4
f 90/205/5 94/206/5 93/207/5 89/208/5
f 92/209/2 96/210/2 94/211/2 90/212/2
f 103/213/5 99/214/5 100/215/5 104/216/5
f 103/217/2 104/217/2 102/75/2 101/75/2
f 102/218/4 98/219/4 97/220/4 101/221/4
f 99/76/1 97/222/1 98/222/1 100/76/1
f 101/223/12 97/224/12 99/225/12 103/226/12
f 104/227/11 100/228/11 98/229/11 102/230/11
f 111/205/5 112/208/5 108/207/5 107/206/5
f 111/94/12 109/75/12 110/75/12 112/194/12
f 110/201/4 109/204/4 105/203/4 106/202/4
f 107/95/11 108/116/11 106/196/11 105/195/11
f 109/209/2 111/212/2 107/211/2 105/210/2
f 112/197/3 110/200/3 106/199/3 108/198/3
f 114/231/11 113/232/11 115/233/11 116/234/11
f 118/235/12 120/236/12 119/237/12 117/95/12
f 113/80/1 117/80/1 119/81/1 115/81/1
f 115/238/4 119/239/4 120/240/4 116/241/4
f 114/242/5 118/243/5 117/244/5 113/245/5
f 116/90/2 120/91/2 118/92/2 114/93/2
f 122/94/11 121/114/11 123/75/11 124/75/11
f 126/115/12 128/96/12 127/117/12 125/116/12
f 121/118/3 125/121/3 127/120/3 123/119/3
f 123/122/4 127/125/4 128/124/4 124/123/4
f 122/126/5 126/129/5 125/128/5 121/127/5
f 124/130/2 128/133/2 126/132/2 122/131/2
f 135/246/5 131/247/5 132/248/5 136/249/5
f 135/217/2 136/217/2 134/75/2 133/75/2
f 134/250/4 130/251/4 129/252/4 133/253/4
f 131/76/1 129/222/1 130/222/1 132/76/1
f 133/254/12 129/255/12 131/256/12 135/257/12
f 136/258/11 132/259/11 130/260/11 134/261/11
