# Blender 4.0.2
# www.blender.org
mtllib wall_potdeksel_small.mtl
o wall_potdeksel_small
v 2.772926 0.025330 0.049992
v 2.772926 0.020104 0.056146
v -0.002075 0.020102 0.056148
v -0.002075 0.025328 0.049994
v 2.772926 0.018459 0.056969
v 2.772926 -0.000042 0.058083
v -0.002075 -0.000044 0.058085
v -0.002075 0.018457 0.056971
v 2.772926 -0.000042 0.073992
v -0.002075 -0.000044 0.073994
v 2.771926 0.000956 0.074930
v 2.771919 0.180178 0.063652
v -0.001075 0.180176 0.063654
v -0.001075 0.000954 0.074932
v 2.771919 0.181177 0.064589
v 2.771919 0.181177 0.073992
v -0.001081 0.181175 0.073995
v -0.001076 0.181174 0.064591
v 2.771919 0.182175 0.074930
v 2.771919 0.361413 0.063651
v -0.001073 0.361411 0.063653
v -0.001082 0.182173 0.074932
v 2.771927 0.363409 0.074930
v 2.771921 0.542632 0.063652
v -0.001073 0.542630 0.063654
v -0.001073 0.363407 0.074932
v 2.771921 0.543630 0.064589
v 2.771921 0.543630 0.073992
v -0.001079 0.543628 0.073994
v -0.001074 0.543628 0.064591
v 2.771921 0.544628 0.074930
v 2.771921 0.723835 0.063653
v -0.001071 0.723833 0.063655
v -0.001080 0.544626 0.074932
v 2.771930 0.725831 0.074930
v 2.771923 0.905069 0.063651
v -0.001071 0.905067 0.063653
v -0.001071 0.725829 0.074932
v 2.771923 0.906067 0.064588
v 2.771923 0.906067 0.073992
v -0.001077 0.906065 0.073994
v -0.001071 0.906065 0.064590
v 2.771923 0.907065 0.074930
v 2.771923 1.086288 0.063652
v -0.001069 1.086286 0.063654
v -0.001078 0.907063 0.074932
v 2.771931 1.088284 0.074930
v 2.771925 1.267522 0.063651
v -0.001069 1.267520 0.063653
v -0.001069 1.088282 0.074932
v 2.771925 1.268520 0.064588
v 2.771925 1.268521 0.073992
v -0.001075 1.268518 0.073994
v -0.001070 1.268518 0.064590
v 2.771925 1.269519 0.074930
v 2.771918 1.448741 0.063652
v -0.001076 1.448739 0.063654
v -0.001076 1.269516 0.074932
v 2.771918 1.449739 0.064589
v 2.771918 1.449739 0.073993
v -0.001082 1.449737 0.073995
v -0.001076 1.449737 0.064591
v 2.771918 1.450738 0.074930
v 2.771918 1.629975 0.063651
v -0.001074 1.629973 0.063653
v -0.001083 1.450735 0.074932
v 2.771927 1.631972 0.074930
v 2.771925 1.666196 0.072705
v -0.001074 1.666203 0.072707
v -0.001074 1.631969 0.074932
v 2.771926 1.630974 0.073992
v -0.001074 1.630971 0.073994
v -0.001074 1.630971 0.064590
v 2.771919 1.630973 0.064588
v 2.771931 1.087286 0.073992
v -0.001069 1.087284 0.073995
v -0.001069 1.087284 0.064591
v 2.771924 1.087286 0.064589
v 2.771929 0.724833 0.073993
v -0.001071 0.724831 0.073995
v -0.001071 0.724831 0.064592
v 2.771921 0.724833 0.064590
v 2.771927 0.362411 0.073992
v -0.001073 0.362409 0.073995
v -0.001073 0.362409 0.064590
v 2.771919 0.362411 0.064588
v -0.002075 0.182174 0.062526
v -0.002075 0.182279 0.049994
v 2.772919 0.182176 0.062524
v 2.772919 0.182177 0.073928
v -0.002082 0.182175 0.073930
v 2.772919 0.363411 0.062524
v -0.002073 0.363409 0.062526
v 2.772928 0.363411 0.073928
v -0.002073 0.363409 0.073930
v 2.772921 0.544629 0.062525
v -0.002073 0.544627 0.062526
v 2.772921 0.544630 0.073927
v -0.002080 0.544628 0.073930
v 2.772921 0.725833 0.062526
v -0.002071 0.725831 0.062527
v 2.772930 0.725833 0.073928
v -0.002071 0.725831 0.073930
v 2.772923 0.907067 0.062524
v -0.002071 0.907065 0.062526
v 2.772923 0.907067 0.073927
v -0.002078 0.907065 0.073929
v 2.772923 1.088286 0.062524
v -0.002069 1.088284 0.062526
v 2.772932 1.088286 0.073928
v -0.002069 1.088284 0.073930
v 2.772925 1.269520 0.062524
v -0.002069 1.269518 0.062526
v 2.772925 1.269521 0.073927
v -0.002076 1.269518 0.073929
v 2.772918 1.450739 0.062524
v -0.002076 1.450737 0.062526
v 2.772918 1.450739 0.073928
v -0.002083 1.450737 0.073930
v 2.772918 1.631973 0.062524
v -0.002074 1.631971 0.062526
v 2.772927 1.631974 0.073927
v -0.002074 1.631971 0.073929
v 2.772926 1.666196 0.071703
v -0.002074 1.666203 0.071705
v -0.002074 1.666203 0.062526
v 2.772928 1.450820 0.049992
v 2.772928 1.632077 0.049992
v 2.772927 1.269334 0.049992
v 2.772927 1.088483 0.049992
v 2.772927 0.906888 0.049992
v 2.772927 0.725654 0.049992
v 2.772927 0.544394 0.049992
v 2.772926 0.363383 0.049992
v 2.772926 0.182386 0.049992
v -0.002074 0.363757 0.049994
v -0.002074 0.545115 0.049994
v -0.002074 0.725679 0.049994
v -0.002074 0.906617 0.049994
v -0.002073 1.088566 0.049994
v -0.002073 1.269652 0.049994
v -0.002073 1.451194 0.049994
v -0.002073 1.632369 0.049994
v -0.002073 1.666203 0.049994
v 2.772918 1.666196 0.062524
v 2.772928 1.666196 0.049992
vn -0.0000 -0.7622 -0.6473
vn -0.0000 -0.0601 -0.9982
vn -0.0000 -1.0000 -0.0000
vn -0.0000 0.0628 0.9980
vn -0.0000 -1.0000 0.0001
vn -0.0000 0.0649 0.9979
vn -1.0000 -0.0000 -0.0000
vn -0.9097 -0.2847 0.3022
vn 0.9096 -0.2842 0.3030
vn 0.5904 -0.5527 0.5881
vn -0.5904 -0.5528 0.5881
vn 0.9096 -0.2844 0.3030
vn -0.9096 -0.2844 0.3029
vn 0.5901 -0.5529 0.5883
vn -0.5906 -0.5523 0.5883
vn 0.9095 -0.2845 0.3030
vn -0.9097 -0.2847 0.3023
vn 0.5907 -0.5527 0.5879
vn -0.5902 -0.5532 0.5880
vn 0.9096 -0.2844 0.3029
vn -0.9097 -0.2843 0.3028
vn 0.5905 -0.5527 0.5881
vn -0.5906 -0.5524 0.5883
vn 0.9096 -0.2844 0.3028
vn 0.5907 -0.5525 0.5881
vn -0.5906 -0.5530 0.5877
vn 0.9097 -0.2846 0.3023
vn 0.5900 -0.5530 0.5882
vn -0.9097 -0.2848 0.3023
vn 0.5909 -0.5525 0.5879
vn 0.9096 -0.2843 0.3029
vn 0.5904 -0.5522 0.5886
vn 0.9097 -0.2847 0.3024
vn 0.5905 -0.5530 0.5879
vn -0.5908 -0.5526 0.5879
vn -0.0000 -0.4474 -0.8943
vn -0.0000 -0.6849 0.7287
vn 0.7068 0.0445 0.7060
vn 0.7074 0.0444 0.7054
vn -0.0000 -0.6841 0.7294
vn -0.0000 -0.6845 0.7290
vn -0.7072 0.0444 0.7056
vn -0.7067 0.0444 0.7061
vn 0.7068 -0.7074 0.0001
vn 0.7071 -0.7071 -0.0000
vn -0.7067 -0.7075 -0.0004
vn -0.7071 -0.7071 -0.0003
vn 0.7071 0.0444 0.7057
vn 0.7068 0.0444 0.7060
vn -0.7068 0.0445 0.7060
vn -0.7071 0.0444 0.7057
vn 0.7069 0.0445 0.7059
vn 0.7067 0.0444 0.7061
vn 0.7070 -0.7072 -0.0000
vn 0.7069 0.0444 0.7059
vn 0.7074 0.0445 0.7054
vn -0.7069 0.0444 0.7060
vn -0.7071 0.0444 0.7058
vn 0.7072 -0.7070 -0.0000
vn 0.7072 -0.7071 -0.0000
vn -0.7066 -0.7076 -0.0005
vn 0.7075 0.0444 0.7054
vn 0.7072 0.0444 0.7056
vn -0.7074 0.0444 0.7054
vn 0.7067 0.0445 0.7061
vn 0.7072 -0.7070 0.0001
vn -0.7071 -0.7072 -0.0004
vn -0.7066 -0.7076 -0.0004
vn -0.7067 -0.7075 -0.0005
vn 0.7072 0.0444 0.7057
vn 0.7068 0.0444 0.7061
vn 0.7075 0.0459 0.7053
vn 0.7066 0.0459 0.7062
vn -0.7071 -0.7071 -0.0000
vn 0.7069 -0.7073 -0.0005
vn 0.7068 -0.7074 -0.0005
vn -0.7072 -0.7070 -0.0000
vn 0.7069 -0.7074 -0.0006
vn 0.7067 -0.7076 -0.0005
vn -0.7071 -0.7072 -0.0000
vn 0.7065 -0.7077 -0.0006
vn 0.7068 -0.7074 -0.0006
vn 0.7066 -0.7076 -0.0006
vn 0.7068 -0.7075 -0.0006
vn -1.0000 -0.0000 -0.0006
vn 1.0000 -0.0000 -0.0000
vn 1.0000 -0.0000 0.0001
vn 1.0000 -0.0000 0.0002
vn 1.0000 -0.0000 -0.0007
vn 1.0000 -0.0000 -0.0008
vn 1.0000 -0.0000 0.0008
vn 1.0000 -0.0000 0.0003
vn 1.0000 -0.0000 0.0004
vn 1.0000 -0.0000 0.0005
vn 1.0000 -0.0000 0.0006
vn -1.0000 -0.0000 0.0001
vn -1.0000 -0.0000 0.0002
vn -1.0000 -0.0000 0.0003
vn -1.0000 -0.0000 -0.0002
vn -1.0000 -0.0000 -0.0001
vn -0.0000 -0.0000 -1.0000
vn -0.7074 0.0458 0.7054
vn -0.7071 0.0459 0.7056
vn 1.0000 -0.0000 -0.0009
vn -0.0000 1.0000 -0.0000
vn -0.0003 1.0000 -0.0000
vt 0.442927 0.672052
vt 0.443352 0.671972
vt 0.637671 0.000872
vt 0.637323 0.000747
vt 0.444734 0.672199
vt 0.446420 0.673421
vt 0.640689 0.000500
vt 0.638931 0.001419
vt 0.448625 0.672772
vt 0.642734 0.001700
vt 0.999500 0.981754
vt 0.954440 0.981752
vt 0.954440 0.285819
vt 0.999500 0.285819
vt 0.954120 0.981751
vt 0.951800 0.981751
vt 0.951800 0.285817
vt 0.954120 0.285818
vt 0.951513 0.981751
vt 0.906512 0.981750
vt 0.906511 0.285818
vt 0.951512 0.285816
vt 0.903756 0.981753
vt 0.858811 0.981751
vt 0.858811 0.285818
vt 0.903755 0.285818
vt 0.858602 0.981751
vt 0.856386 0.981751
vt 0.856386 0.285817
vt 0.858601 0.285818
vt 0.856197 0.981752
vt 0.811295 0.981751
vt 0.811294 0.285819
vt 0.856197 0.285817
vt 0.808771 0.981754
vt 0.763882 0.981751
vt 0.763882 0.285819
vt 0.808771 0.285819
vt 0.763724 0.981752
vt 0.761550 0.981752
vt 0.761550 0.285817
vt 0.763724 0.285819
vt 0.761392 0.981752
vt 0.716507 0.981751
vt 0.716507 0.285819
vt 0.761392 0.285817
vt 0.713982 0.981754
vt 0.669072 0.981752
vt 0.669072 0.285819
vt 0.713982 0.285819
vt 0.668882 0.981752
vt 0.666666 0.981752
vt 0.666665 0.285818
vt 0.668881 0.285819
vt 0.666455 0.981753
vt 0.621509 0.981750
vt 0.621509 0.285818
vt 0.666455 0.285818
vt 0.621276 0.981750
vt 0.619012 0.981751
vt 0.619012 0.285816
vt 0.621275 0.285817
vt 0.618752 0.981751
vt 0.573749 0.981750
vt 0.573748 0.285818
vt 0.618751 0.285816
vt 0.570818 0.981753
vt 0.562219 0.981752
vt 0.562216 0.285818
vt 0.570818 0.285818
vt 0.571138 0.981752
vt 0.571138 0.285818
vt 0.573459 0.285818
vt 0.573459 0.981750
vt 0.714158 0.981754
vt 0.714158 0.285819
vt 0.716343 0.285819
vt 0.716343 0.981752
vt 0.808935 0.981753
vt 0.808934 0.285819
vt 0.811119 0.285819
vt 0.811120 0.981751
vt 0.903989 0.981753
vt 0.903989 0.285818
vt 0.906252 0.285818
vt 0.906252 0.981751
vt 0.600920 0.018677
vt 0.599141 0.017121
vt 0.601271 0.018747
vt 0.601386 0.018749
vt 0.416892 0.640943
vt 0.417192 0.641113
vt 0.417149 0.640993
vt 0.418643 0.643103
vt 0.418784 0.643405
vt 0.418383 0.643321
vt 0.603816 0.018593
vt 0.604076 0.018923
vt 0.603743 0.018937
vt 0.447398 0.607764
vt 0.447166 0.608230
vt 0.447134 0.608191
vt 0.596126 0.063489
vt 0.596301 0.063748
vt 0.595704 0.063958
vt 0.446504 0.610436
vt 0.446326 0.610717
vt 0.446158 0.610358
vt 0.598651 0.064182
vt 0.598864 0.064519
vt 0.598526 0.064489
vt 0.491974 0.613369
vt 0.491431 0.613451
vt 0.491451 0.613402
vt 0.591156 0.109123
vt 0.591332 0.109391
vt 0.590734 0.109606
vt 0.489234 0.614163
vt 0.488895 0.614190
vt 0.489093 0.613838
vt 0.593681 0.109833
vt 0.593893 0.110170
vt 0.593555 0.110140
vt 0.510537 0.654507
vt 0.509943 0.654331
vt 0.510057 0.654147
vt 0.586098 0.154755
vt 0.586274 0.155024
vt 0.585675 0.155236
vt 0.507689 0.654863
vt 0.507347 0.654851
vt 0.507586 0.654535
vt 0.588619 0.155488
vt 0.588827 0.155828
vt 0.588490 0.155794
vt 0.518263 0.699319
vt 0.517681 0.699075
vt 0.517844 0.698859
vt 0.580652 0.200359
vt 0.580825 0.200652
vt 0.580210 0.200823
vt 0.515404 0.699573
vt 0.515062 0.699555
vt 0.515310 0.699246
vt 0.583124 0.201340
vt 0.583302 0.201700
vt 0.582968 0.201632
vt 0.522828 0.744687
vt 0.522250 0.744426
vt 0.522429 0.744199
vt 0.571684 0.245471
vt 0.571824 0.245829
vt 0.571180 0.245872
vt 0.519970 0.744941
vt 0.519630 0.744925
vt 0.519877 0.744615
vt 0.573892 0.247097
vt 0.573961 0.247511
vt 0.573667 0.247331
vt 0.526984 0.790133
vt 0.526406 0.789870
vt 0.526588 0.789640
vt 0.554228 0.288501
vt 0.553677 0.288935
vt 0.553786 0.288516
vt 0.524128 0.790395
vt 0.523787 0.790378
vt 0.524033 0.790068
vt 0.551105 0.289429
vt 0.550746 0.289200
vt 0.551065 0.289086
vt 0.531447 0.835532
vt 0.530876 0.835256
vt 0.531054 0.835038
vt 0.543015 0.244587
vt 0.542759 0.244402
vt 0.543237 0.243974
vt 0.528579 0.835667
vt 0.528238 0.835636
vt 0.528499 0.835338
vt 0.540412 0.244830
vt 0.540092 0.244594
vt 0.540417 0.244489
vt 0.534748 0.880941
vt 0.534144 0.880809
vt 0.534316 0.880497
vt 0.535407 0.199554
vt 0.535164 0.199266
vt 0.535731 0.199019
vt 0.532207 0.882045
vt 0.532013 0.882327
vt 0.531962 0.881866
vt 0.532844 0.198547
vt 0.532812 0.198093
vt 0.533052 0.198320
vt 0.448749 0.672781
vt 0.642805 0.001726
vt 0.536870 0.889530
vt 0.537696 0.889327
vt 0.536866 0.190399
vt 0.535593 0.190570
vt 0.534597 0.835302
vt 0.537847 0.881014
vt 0.530124 0.789790
vt 0.525975 0.744420
vt 0.521379 0.698806
vt 0.513462 0.653447
vt 0.493381 0.611212
vt 0.446452 0.605395
vt 0.415100 0.641033
vt 0.592563 0.063563
vt 0.587583 0.109356
vt 0.582547 0.154808
vt 0.577116 0.200174
vt 0.568152 0.245008
vt 0.553848 0.287800
vt 0.546308 0.243214
vt 0.538769 0.198264
vt 0.534644 0.190176
vt 0.403669 0.701282
vt 0.358187 0.701282
vt 0.358291 0.004961
vt 0.403752 0.004961
vt 0.312648 0.701282
vt 0.312737 0.004961
vt 0.267269 0.701281
vt 0.267299 0.004961
vt 0.221703 0.701281
vt 0.221645 0.004960
vt 0.176227 0.701280
vt 0.176243 0.004960
vt 0.130746 0.701280
vt 0.130936 0.004960
vt 0.085326 0.701280
vt 0.085430 0.004959
vt 0.039909 0.701279
vt 0.039893 0.004959
vt 0.000500 0.701278
vt 0.000510 0.004958
vt 0.537703 0.190569
vt 0.535584 0.889317
vt 0.534675 0.889584
vt 0.412230 0.701281
vt 0.412241 0.004961
s 0
f 1/1/1 2/2/1 3/3/1
f 1/1/1 3/3/1 4/4/1
f 5/5/2 6/6/2 7/7/2
f 5/5/2 7/7/2 8/8/2
f 6/6/3 9/9/3 10/10/3
f 6/6/3 10/10/3 7/7/3
f 11/11/4 12/12/4 13/13/4
f 11/11/4 13/13/4 14/14/4
f 15/15/3 16/16/3 17/17/3
f 15/15/5 17/17/5 18/18/5
f 19/19/4 20/20/4 21/21/4
f 19/19/4 21/21/4 22/22/4
f 23/23/4 24/24/4 25/25/4
f 23/23/4 25/25/4 26/26/4
f 27/27/3 28/28/3 29/29/3
f 27/27/3 29/29/3 30/30/3
f 31/31/4 32/32/4 33/33/4
f 31/31/4 33/33/4 34/34/4
f 35/35/4 36/36/4 37/37/4
f 35/35/4 37/37/4 38/38/4
f 39/39/3 40/40/3 41/41/3
f 39/39/3 41/41/3 42/42/3
f 43/43/4 44/44/4 45/45/4
f 43/43/4 45/45/4 46/46/4
f 47/47/4 48/48/4 49/49/4
f 47/47/4 49/49/4 50/50/4
f 51/51/5 52/52/5 53/53/5
f 51/51/3 53/53/3 54/54/3
f 55/55/4 56/56/4 57/57/4
f 55/55/4 57/57/4 58/58/4
f 59/59/3 60/60/3 61/61/3
f 59/59/3 61/61/3 62/62/3
f 63/63/4 64/64/4 65/65/4
f 63/63/4 65/65/4 66/66/4
f 67/67/6 68/68/6 69/69/6
f 67/67/6 69/69/6 70/70/6
f 71/71/3 72/72/3 73/73/3
f 71/71/5 73/73/5 74/74/5
f 75/75/3 76/76/3 77/77/3
f 75/75/3 77/77/3 78/78/3
f 79/79/3 80/80/3 81/81/3
f 79/79/3 81/81/3 82/82/3
f 83/83/3 84/84/3 85/85/3
f 83/83/3 85/85/3 86/86/3
f 3/3/7 87/87/7 88/88/7
f 3/3/7 88/88/7 4/4/7
f 13/89/8 18/90/8 87/87/8
f 89/91/9 15/92/9 12/93/9
f 90/94/10 19/95/10 16/96/10
f 17/97/11 22/98/11 91/99/11
f 92/100/12 86/101/12 20/102/12
f 21/103/13 85/104/13 93/105/13
f 94/106/14 23/107/14 83/108/14
f 84/109/15 26/110/15 95/111/15
f 96/112/16 27/113/16 24/114/16
f 25/115/17 30/116/17 97/117/17
f 98/118/18 31/119/18 28/120/18
f 29/121/19 34/122/19 99/123/19
f 100/124/20 82/125/20 32/126/20
f 33/127/21 81/128/21 101/129/21
f 102/130/22 35/131/22 79/132/22
f 80/133/23 38/134/23 103/135/23
f 104/136/24 39/137/24 36/138/24
f 37/139/13 42/140/13 105/141/13
f 106/142/25 43/143/25 40/144/25
f 41/145/26 46/146/26 107/147/26
f 108/148/27 78/149/27 44/150/27
f 45/151/21 77/152/21 109/153/21
f 110/154/28 47/155/28 75/156/28
f 76/157/15 50/158/15 111/159/15
f 112/160/12 51/161/12 48/162/12
f 49/163/29 54/164/29 113/165/29
f 114/166/30 55/167/30 52/168/30
f 53/169/26 58/170/26 115/171/26
f 116/172/31 59/173/31 56/174/31
f 57/175/21 62/176/21 117/177/21
f 118/178/32 63/179/32 60/180/32
f 61/181/11 66/182/11 119/183/11
f 120/184/33 74/185/33 64/186/33
f 65/187/13 73/188/13 121/189/13
f 122/190/34 67/191/34 71/192/34
f 72/193/35 70/194/35 123/195/35
f 2/2/36 5/5/36 8/8/36
f 2/2/36 8/8/36 3/3/36
f 9/9/37 11/196/37 14/197/37
f 9/9/37 14/197/37 10/10/37
f 11/196/38 9/9/38 89/91/38
f 11/196/39 89/91/39 12/93/39
f 12/12/40 15/15/40 18/18/40
f 12/12/41 18/18/41 13/13/41
f 13/89/42 87/87/42 10/10/42
f 13/89/43 10/10/43 14/197/43
f 15/92/44 89/91/44 90/94/44
f 15/92/45 90/94/45 16/96/45
f 16/16/37 19/19/37 22/22/37
f 16/16/41 22/22/41 17/17/41
f 17/97/46 91/99/46 87/87/46
f 17/97/47 87/87/47 18/90/47
f 19/95/48 90/94/48 92/100/48
f 19/95/49 92/100/49 20/102/49
f 20/20/41 86/86/41 85/85/41
f 20/20/41 85/85/41 21/21/41
f 21/103/50 93/105/50 91/99/50
f 21/103/51 91/99/51 22/98/51
f 23/107/52 94/106/52 96/112/52
f 23/107/53 96/112/53 24/114/53
f 24/24/41 27/27/41 30/30/41
f 24/24/41 30/30/41 25/25/41
f 25/115/42 97/117/42 95/111/42
f 25/115/51 95/111/51 26/110/51
f 26/26/41 84/84/41 83/83/41
f 26/26/37 83/83/37 23/23/37
f 27/113/44 96/112/44 98/118/44
f 27/113/54 98/118/54 28/120/54
f 28/28/37 31/31/37 34/34/37
f 28/28/37 34/34/37 29/29/37
f 29/121/46 99/123/46 97/117/46
f 29/121/46 97/117/46 30/116/46
f 31/119/39 98/118/39 100/124/39
f 31/119/55 100/124/55 32/126/55
f 32/32/41 82/82/41 81/81/41
f 32/32/41 81/81/41 33/33/41
f 33/127/42 101/129/42 99/123/42
f 33/127/51 99/123/51 34/122/51
f 35/131/56 102/130/56 104/136/56
f 35/131/53 104/136/53 36/138/53
f 36/36/41 39/39/41 42/42/41
f 36/36/41 42/42/41 37/37/41
f 37/139/57 105/141/57 103/135/57
f 37/139/58 103/135/58 38/134/58
f 38/38/41 80/80/41 79/79/41
f 38/38/41 79/79/41 35/35/41
f 39/137/59 104/136/59 106/142/59
f 39/137/60 106/142/60 40/144/60
f 40/40/37 43/43/37 46/46/37
f 40/40/37 46/46/37 41/41/37
f 41/145/46 107/147/46 105/141/46
f 41/145/61 105/141/61 42/140/61
f 43/143/62 106/142/62 108/148/62
f 43/143/63 108/148/63 44/150/63
f 44/44/41 78/78/41 77/77/41
f 44/44/41 77/77/41 45/45/41
f 45/151/42 109/153/42 107/147/42
f 45/151/64 107/147/64 46/146/64
f 47/155/65 110/154/65 112/160/65
f 47/155/53 112/160/53 48/162/53
f 48/48/41 51/51/41 54/54/41
f 48/48/41 54/54/41 49/49/41
f 49/163/57 113/165/57 111/159/57
f 49/163/51 111/159/51 50/158/51
f 50/50/41 76/76/41 75/75/41
f 50/50/37 75/75/37 47/47/37
f 51/161/59 112/160/59 114/166/59
f 51/161/66 114/166/66 52/168/66
f 52/52/37 55/55/37 58/58/37
f 52/52/37 58/58/37 53/53/37
f 53/169/46 115/171/46 113/165/46
f 53/169/67 113/165/67 54/164/67
f 55/167/63 114/166/63 116/172/63
f 55/167/39 116/172/39 56/174/39
f 56/56/41 59/59/41 62/62/41
f 56/56/41 62/62/41 57/57/41
f 57/175/42 117/177/42 115/171/42
f 57/175/64 115/171/64 58/170/64
f 59/173/59 116/172/59 118/178/59
f 59/173/45 118/178/45 60/180/45
f 60/60/40 63/63/40 66/66/40
f 60/60/41 66/66/41 61/61/41
f 61/181/68 119/183/68 117/177/68
f 61/181/69 117/177/69 62/176/69
f 63/179/70 118/178/70 120/184/70
f 63/179/71 120/184/71 64/186/71
f 64/64/41 74/74/41 73/73/41
f 64/64/41 73/73/41 65/65/41
f 65/187/50 121/189/50 119/183/50
f 65/187/51 119/183/51 66/182/51
f 67/191/72 122/190/72 124/198/72
f 67/191/73 124/198/73 68/199/73
f 70/70/37 72/72/37 71/71/37
f 70/70/37 71/71/37 67/67/37
f 72/193/74 123/195/74 121/189/74
f 72/193/74 121/189/74 73/188/74
f 74/185/75 120/184/75 122/190/75
f 74/185/76 122/190/76 71/192/76
f 76/157/74 111/159/74 109/153/74
f 76/157/77 109/153/77 77/152/77
f 78/149/78 108/148/78 110/154/78
f 78/149/79 110/154/79 75/156/79
f 80/133/74 103/135/74 101/129/74
f 80/133/80 101/129/80 81/128/80
f 82/125/81 100/124/81 102/130/81
f 82/125/82 102/130/82 79/132/82
f 84/109/74 95/111/74 93/105/74
f 84/109/74 93/105/74 85/104/74
f 86/101/83 92/100/83 94/106/83
f 86/101/84 94/106/84 83/108/84
f 93/105/7 95/111/7 97/117/7
f 87/87/85 91/99/85 93/105/85
f 8/8/7 7/7/7 10/10/7
f 3/3/7 8/8/7 10/10/7
f 3/3/7 10/10/7 87/87/7
f 97/117/85 99/123/85 101/129/85
f 101/129/7 103/135/7 105/141/7
f 105/141/85 107/147/85 109/153/85
f 109/153/7 111/159/7 113/165/7
f 113/165/85 115/171/85 117/177/85
f 117/177/85 119/183/85 121/189/85
f 121/189/7 123/195/7 125/200/7
f 121/189/7 125/200/7 126/201/7
f 9/9/86 6/6/86 5/5/86
f 89/91/87 9/9/87 5/5/87
f 89/91/88 5/5/88 2/2/88
f 92/100/86 90/94/86 89/91/86
f 96/112/89 94/106/89 92/100/89
f 100/124/86 98/118/86 96/112/86
f 104/136/89 102/130/89 100/124/89
f 108/148/86 106/142/86 104/136/86
f 112/160/90 110/154/90 108/148/90
f 116/172/86 114/166/86 112/160/86
f 120/184/86 118/178/86 116/172/86
f 120/184/91 116/172/91 127/202/91
f 120/184/91 127/202/91 128/203/91
f 116/172/87 112/160/87 129/204/87
f 116/172/91 129/204/91 127/202/91
f 112/160/92 108/148/92 130/205/92
f 112/160/88 130/205/88 129/204/88
f 108/148/92 104/136/92 131/206/92
f 108/148/93 131/206/93 130/205/93
f 104/136/94 100/124/94 132/207/94
f 104/136/93 132/207/93 131/206/93
f 100/124/93 96/112/93 133/208/93
f 100/124/94 133/208/94 132/207/94
f 96/112/94 92/100/94 134/209/94
f 96/112/94 134/209/94 133/208/94
f 92/100/95 89/91/95 135/210/95
f 92/100/95 135/210/95 134/209/95
f 89/91/86 2/2/86 1/1/86
f 89/91/95 1/1/95 135/210/95
f 87/87/96 93/105/96 136/211/96
f 87/87/7 136/211/7 88/88/7
f 93/105/96 97/117/96 137/212/96
f 93/105/96 137/212/96 136/211/96
f 97/117/97 101/129/97 138/213/97
f 97/117/96 138/213/96 137/212/96
f 101/129/97 105/141/97 139/214/97
f 101/129/97 139/214/97 138/213/97
f 105/141/98 109/153/98 140/215/98
f 105/141/97 140/215/97 139/214/97
f 109/153/98 113/165/98 141/216/98
f 109/153/98 141/216/98 140/215/98
f 113/165/99 117/177/99 142/217/99
f 113/165/98 142/217/98 141/216/98
f 117/177/100 121/189/100 143/218/100
f 117/177/99 143/218/99 142/217/99
f 121/189/100 126/201/100 144/219/100
f 121/189/100 144/219/100 143/218/100
f 128/220/101 127/221/101 142/222/101
f 128/220/101 142/222/101 143/223/101
f 127/221/101 129/224/101 141/225/101
f 127/221/101 141/225/101 142/222/101
f 129/224/101 130/226/101 140/227/101
f 129/224/101 140/227/101 141/225/101
f 130/226/101 131/228/101 139/229/101
f 130/226/101 139/229/101 140/227/101
f 131/228/101 132/230/101 138/231/101
f 131/228/101 138/231/101 139/229/101
f 132/230/101 133/232/101 137/233/101
f 132/230/101 137/233/101 138/231/101
f 133/232/101 134/234/101 136/235/101
f 133/232/101 136/235/101 137/233/101
f 134/234/101 135/236/101 88/237/101
f 134/234/101 88/237/101 136/235/101
f 135/236/101 1/238/101 4/239/101
f 135/236/101 4/239/101 88/237/101
f 125/200/102 123/195/102 70/194/102
f 125/200/103 70/194/103 69/240/103
f 124/198/90 122/190/90 120/184/90
f 124/198/104 120/184/104 145/241/104
f 145/241/91 120/184/91 128/203/91
f 145/241/91 128/203/91 146/242/91
f 146/243/101 128/220/101 143/223/101
f 146/243/101 143/223/101 144/244/101
f 68/199/105 124/198/105 145/241/105
f 68/199/106 145/241/106 146/242/106
f 68/199/105 146/242/105 144/219/105
f 68/199/105 144/219/105 126/201/105
f 68/199/105 126/201/105 125/200/105
f 68/199/105 125/200/105 69/240/105
