# Blender 4.0.2
# www.blender.org
mtllib balk_corner.mtl
o balk_corner
v 0.024000 2.170019 0.564896
v -0.024000 2.170019 0.564896
v 0.024000 1.605748 0.000625
v -0.024000 1.605748 0.000625
v 0.025000 2.169726 0.353886
v 0.025000 2.169726 0.563188
v 0.025000 1.816758 0.000918
v 0.025000 1.607455 0.000917
v 0.025000 1.816758 0.000918
v 0.025000 2.169726 0.563188
v 0.024000 1.817880 0.000625
v -0.024000 1.817880 0.000625
v 0.024000 2.170019 0.352764
v -0.024000 2.170019 0.352764
v -0.025000 1.816758 0.000918
v -0.025000 1.607455 0.000917
v -0.025000 2.169726 0.353886
v -0.025000 2.169726 0.563188
v -0.025000 2.169726 0.353886
v -0.025000 1.607455 0.000917
v 0.024000 2.170726 0.354471
v -0.024000 2.170726 0.354471
v 0.024000 2.170726 0.564603
v -0.024000 2.170726 0.564603
v -0.024000 1.816173 -0.000082
v 0.024000 1.816173 -0.000082
v -0.024000 1.606041 -0.000083
v 0.024000 1.606041 -0.000083
v -0.025000 2.169726 0.563188
v -0.024000 2.170019 0.564896
v -0.024000 2.170726 0.564603
v 0.025000 2.169726 0.563188
v 0.024000 2.170726 0.564603
v 0.024000 2.170019 0.564896
v -0.024000 1.606041 -0.000083
v -0.024000 1.605748 0.000625
v -0.025000 1.607455 0.000917
v 0.024000 1.606041 -0.000083
v 0.025000 1.607455 0.000917
v 0.024000 1.605748 0.000625
v 0.024000 1.817880 0.000625
v 0.025000 1.816758 0.000918
v 0.024000 1.816173 -0.000082
v 0.024000 2.170019 0.352764
v 0.024000 2.170726 0.354471
v 0.025000 2.169726 0.353886
v -0.024000 2.170019 0.352764
v -0.025000 2.169726 0.353886
v -0.024000 2.170726 0.354471
v -0.024000 1.817880 0.000625
v -0.024000 1.816173 -0.000082
v -0.025000 1.816758 0.000918
v -0.024000 2.170726 0.564603
v -0.024000 2.170019 0.564896
v 0.024000 2.170726 0.564603
v 0.024000 2.170019 0.564896
v -0.024000 1.605748 0.000625
v -0.024000 1.606041 -0.000083
v 0.024000 1.605748 0.000625
v -0.025000 1.607455 0.000917
v -0.024000 1.605748 0.000625
v -0.025000 2.169726 0.563188
v -0.024000 2.170019 0.564896
v -0.025000 2.169726 0.563188
v -0.024000 1.605748 0.000625
v 0.024000 1.605748 0.000625
v 0.025000 1.607455 0.000917
v 0.024000 2.170019 0.564896
v 0.024000 1.816173 -0.000082
v 0.025000 1.816758 0.000918
v 0.024000 1.606041 -0.000083
v 0.025000 1.607455 0.000917
v 0.024000 2.170019 0.352764
v 0.025000 2.169726 0.353886
v 0.024000 1.817880 0.000625
v 0.025000 1.816758 0.000918
v 0.024000 2.170726 0.564603
v 0.025000 2.169726 0.563188
v 0.024000 2.170726 0.354471
v 0.025000 2.169726 0.353886
v 0.024000 2.170726 0.354471
v 0.025000 2.169726 0.563188
v -0.024000 2.170019 0.352764
v -0.024000 2.170726 0.354471
v 0.024000 2.170019 0.352764
v -0.024000 1.816173 -0.000082
v -0.024000 1.817880 0.000625
v 0.024000 1.816173 -0.000082
v 0.024000 1.817880 0.000625
v -0.025000 2.169726 0.353886
v -0.024000 2.170019 0.352764
v -0.025000 1.816758 0.000918
v -0.024000 1.817880 0.000625
v -0.024000 2.170726 0.354471
v -0.025000 2.169726 0.353886
v -0.024000 2.170726 0.564603
v -0.025000 2.169726 0.563188
v -0.024000 1.606041 -0.000083
v -0.025000 1.607455 0.000917
v -0.024000 1.816173 -0.000082
v -0.025000 1.816758 0.000918
v -0.024000 1.816173 -0.000082
v -0.025000 1.607455 0.000917
v 0.024000 1.606041 -0.000083
v 0.025000 2.169726 0.563188
v 0.024000 2.170019 0.564896
v 0.025000 1.607455 0.000917
vn -0.0000 -0.7071 0.7071
vn 1.0000 -0.0000 -0.0000
vn -0.0000 0.7071 -0.7071
vn -1.0000 -0.0000 -0.0000
vn -0.0000 1.0000 -0.0000
vn -0.0000 -0.0000 -1.0000
vn -0.8605 0.1949 0.4708
vn 0.8605 0.1949 0.4708
vn -0.8605 -0.4708 -0.1948
vn 0.8605 -0.4708 -0.1948
vn 0.5735 0.3135 -0.7569
vn 0.5733 0.7570 -0.3134
vn -0.5733 0.7570 -0.3134
vn -0.5735 0.3135 -0.7569
vn -0.0000 0.3828 0.9238
vn -0.0000 0.3829 0.9238
vn -0.0000 -0.9238 -0.3828
vn -0.7073 -0.4999 0.4999
vn 0.7070 -0.5001 0.5001
vn 0.7071 -0.0000 -0.7071
vn 0.7073 0.4999 -0.4999
vn 0.7072 0.7070 -0.0000
vn -0.0000 0.9239 -0.3826
vn -0.0000 0.3826 -0.9239
vn -0.7073 0.4999 -0.4999
vn -0.7072 0.7070 -0.0000
vn -0.7071 -0.0000 -0.7071
vn -0.0000 -0.9239 -0.3826
vn 0.7071 -0.5000 0.5000
vt 0.217047 0.986742
vt 0.277032 0.986821
vt 0.218365 -0.010485
vt 0.278349 -0.010406
vt 0.017800 0.802544
vt 0.199677 0.984802
vt 0.018441 0.188469
vt 0.200699 0.006591
vt 0.546998 0.174670
vt 0.488300 0.174615
vt 0.546425 0.783657
vt 0.487727 0.783601
vt 0.477596 0.173792
vt 0.295719 -0.008466
vt 0.476955 0.787867
vt 0.294698 0.969744
vt 0.900068 0.026374
vt 0.827148 0.061615
vt 1.007204 0.241464
vt 0.948476 0.272674
vt 0.836442 0.220953
vt 0.893525 0.192493
vt 0.730679 0.056472
vt 0.779607 0.032078
vt 0.944060 0.272643
vt 0.948581 0.274092
vt 1.009708 0.237607
vt 1.008456 0.242463
vt 0.733381 0.068701
vt 0.741536 0.064635
vt 0.787746 0.041596
vt 0.793198 0.025302
vt 0.858250 0.155777
vt 0.871779 0.203335
vt 0.898972 0.022867
vt 0.902286 0.023749
vt 0.824850 0.058567
vt 0.823596 0.061950
vt 0.839160 0.219598
vt 0.847283 0.242699
vt 0.557129 0.784480
vt 0.557771 0.170405
s 0
f 1/1/1 2/2/1 3/3/1
f 4/4/1 3/3/1 2/2/1
f 5/5/2 6/6/2 7/7/2
f 8/8/2 9/7/2 10/6/2
f 11/9/3 12/10/3 13/11/3
f 14/12/3 13/11/3 12/10/3
f 15/13/4 16/14/4 17/15/4
f 18/16/4 19/15/4 20/14/4
f 21/17/5 22/18/5 23/19/5
f 24/20/5 23/19/5 22/18/5
f 25/21/6 26/22/6 27/23/6
f 28/24/6 27/23/6 26/22/6
f 29/25/7 30/26/7 31/20/7
f 32/27/8 33/19/8 34/28/8
f 35/23/9 36/29/9 37/30/9
f 38/24/10 39/31/10 40/32/10
f 41/33/11 42/34/11 43/22/11
f 44/35/12 45/17/12 46/36/12
f 47/37/13 48/38/13 49/18/13
f 50/39/14 51/21/14 52/40/14
f 53/20/15 54/26/15 55/19/15
f 56/28/16 55/19/16 54/26/16
f 57/29/17 58/23/17 59/32/17
f 60/14/18 61/4/18 62/16/18
f 63/2/18 64/16/18 65/4/18
f 66/3/19 67/8/19 68/1/19
f 69/22/20 70/34/20 71/24/20
f 72/31/20 71/24/20 70/34/20
f 73/11/21 74/41/21 75/9/21
f 76/42/21 75/9/21 74/41/21
f 77/19/22 78/27/22 79/17/22
f 80/36/22 81/17/22 82/27/22
f 83/37/23 84/18/23 85/35/23
f 86/21/24 87/39/24 88/22/24
f 89/33/24 88/22/24 87/39/24
f 90/15/25 91/12/25 92/13/25
f 93/10/25 92/13/25 91/12/25
f 94/18/26 95/38/26 96/20/26
f 97/25/26 96/20/26 95/38/26
f 98/23/27 99/30/27 100/21/27
f 101/40/27 102/21/27 103/30/27
f 104/24/28 59/32/28 58/23/28
f 105/6/29 106/1/29 107/8/29
