# Blender 4.0.2
# www.blender.org
mtllib zadeldak_wall_triangle_carcass_3500.mtl
o zadeldak_wall_triangle_carcass_3500
v -0.001007 0.192233 -1.555641
v -0.024820 0.192233 -1.555641
v -0.024811 0.192228 1.555663
v -0.000999 0.192228 1.555663
v -0.024819 0.142232 -1.642244
v -0.024810 0.142228 1.642267
v -0.000006 0.143232 -1.640512
v -0.000007 0.191232 -1.557373
v 0.000001 0.191228 1.557395
v 0.000002 0.143228 1.640535
v -0.001006 0.142232 -1.642244
v -0.000998 0.142228 1.642267
v -0.001006 1.018912 0.024014
v -0.001006 1.032637 0.000014
v -0.024818 1.032637 0.000014
v -0.024818 1.018912 0.024014
v -0.000006 1.017912 0.024014
v -0.000006 1.031637 0.000514
v -0.001005 1.018912 -0.023986
v -0.001005 1.017912 -0.024986
v -0.024818 1.017912 -0.024986
v -0.024818 1.018912 -0.023986
v -0.024818 1.017912 0.025014
v -0.001420 1.017912 0.025014
v -0.001006 1.017497 0.025014
v -0.001006 0.192264 0.025029
v -0.000005 0.192265 0.024029
v -0.000005 1.017912 -0.022986
v -0.000005 1.016911 -0.023986
v -0.000005 0.192297 -0.023972
v -0.000005 0.192281 0.000029
v -0.024817 0.192298 -0.024971
v -0.001005 0.192298 -0.024971
v -0.024818 0.192264 0.025029
v -0.024818 0.192281 0.000029
v -0.024811 0.192095 1.557901
v -0.001413 0.192095 1.557901
v -0.000998 0.192302 1.557542
v -0.001000 1.090389 -0.000000
v -0.024813 1.090388 -0.000000
v 0.000001 0.191759 1.460255
v 0.000000 1.033892 -0.000000
v 0.000000 1.089235 -0.000000
v 0.000002 0.191765 1.556469
v -0.024812 0.191759 1.458249
v -0.024813 1.032739 -0.000000
v -0.001000 1.032739 -0.000000
v -0.000999 0.191759 1.458248
v -0.024811 0.191765 1.557989
v -0.001313 0.191765 1.557989
v -0.000498 0.191765 1.557471
v -0.000012 0.191769 -1.554446
v -0.000005 1.089234 -0.000000
v -0.000005 1.033810 -0.000000
v -0.000012 0.191769 -1.458446
v -0.024824 0.191769 -1.556446
v -0.024818 1.090388 -0.000001
v -0.001005 1.090389 -0.000001
v -0.001012 0.191769 -1.556446
v -0.024825 0.191769 -1.456446
v -0.024818 1.032655 -0.000000
v -0.024818 1.090388 -0.000000
v -0.001012 0.191769 -1.456446
v -0.001005 1.032655 -0.000000
v -0.001005 1.090388 -0.000000
vn -0.0000 1.0000 -0.0000
vn -0.0000 0.9659 0.2588
vn -0.0000 0.9564 0.2919
vn -1.0000 -0.0000 -0.0000
vn 1.0000 -0.0000 -0.0000
vn -0.0000 -1.0000 -0.0000
vn 0.7074 0.7068 -0.0000
vn 0.7071 0.7071 -0.0000
vn 0.7071 -0.7071 -0.0000
vn 0.7072 -0.7071 -0.0000
vn 0.0002 0.8660 -0.5000
vn 0.0008 0.8660 -0.5000
vn -0.0000 0.8660 -0.5000
vn -0.0000 0.8660 0.5000
vn -0.0001 0.8660 0.5000
vn -0.0000 0.8026 0.5965
vn -0.0000 0.8681 0.4964
vn -0.0000 0.7946 0.6071
vn 0.6017 0.6045 0.5221
vn 0.5856 0.5856 0.5605
vn 0.5297 0.7362 0.4212
vn 0.5268 0.7378 0.4220
vn -0.0000 0.7946 -0.6071
vn -0.0000 0.7071 -0.7071
vn -0.0000 0.7071 0.7071
vn 0.7071 -0.0000 0.7071
vn 0.7068 -0.0000 0.7075
vn 0.5007 0.4996 0.7069
vn 0.5003 0.4998 0.7070
vn 0.8139 0.4633 -0.3505
vn 0.7787 0.1763 -0.6022
vn 0.8008 0.2622 -0.5385
vn 0.8135 0.4578 -0.3587
vn -0.0000 -0.0000 -1.0000
vn -0.0000 -0.0000 1.0000
vn 0.7068 -0.0000 -0.7075
vn -0.0000 0.8681 -0.4964
vn 0.7473 0.5768 -0.3300
vn 0.7448 0.5793 -0.3313
vn -0.0000 0.8663 0.4995
vn -0.0000 -0.8663 -0.4996
vn 0.7080 -0.6117 -0.3528
vn 0.7067 -0.6129 -0.3535
vn -0.0000 0.2574 0.9663
vn -0.0000 0.2572 0.9664
vn 0.5002 0.3616 0.7868
vn 0.5002 0.3618 0.7867
vn 0.5002 0.3615 0.7869
vn 0.5001 0.3613 0.7870
vn 0.7070 0.6127 0.3533
vn 0.7075 0.6122 0.3530
vn -0.0000 -0.8660 0.5000
vn 0.7071 0.6124 -0.3536
vn 0.7069 0.6125 -0.3536
vn 0.7072 -0.6123 0.3535
vn 0.7071 -0.6124 0.3536
vt 0.062758 0.603137
vt 0.051933 0.602757
vt 0.152305 0.630965
vt 0.140592 0.649711
vt 0.112430 0.655374
vt 0.102462 0.636640
vt 0.090300 0.577593
vt 0.079475 0.577219
vt 0.102163 0.636245
vt 0.079176 0.576824
vt 0.028431 0.944385
vt 0.033737 0.944382
vt 0.033743 0.955215
vt 0.028437 0.955218
vt 0.028431 0.944072
vt 0.033626 0.944071
vt 0.866022 0.380497
vt 0.866033 0.380185
vt 0.876860 0.380562
vt 0.876849 0.380874
vt 0.893947 0.386303
vt 0.893942 0.385889
vt 0.904676 0.386066
vt 0.904799 0.386330
vt 0.905051 0.386134
vt 0.904759 0.386018
vt 0.908390 0.275022
vt 0.908681 0.275157
vt 0.916278 0.385882
vt 0.916473 0.385645
vt 0.916776 0.385879
vt 0.916575 0.386125
vt 0.039040 0.839168
vt 0.039043 0.943850
vt 0.038822 0.944070
vt 0.033734 0.836104
vt 0.880510 0.275851
vt 0.869683 0.275474
vt 0.799339 0.756420
vt 0.709717 0.690663
vt 0.709670 0.690354
vt 0.712809 0.686076
vt 0.800035 0.750075
vt 0.897577 0.274760
vt 0.918510 0.281115
vt 0.918207 0.280980
vt 0.039043 0.944380
vt 0.039049 0.955212
vt 0.028427 0.833041
vt 0.715948 0.681797
vt 0.716257 0.681750
vt 0.800732 0.743731
vt 0.894839 0.011980
vt 0.905568 0.012367
vt 0.905645 0.012454
vt 0.901424 0.133463
vt 0.890615 0.133084
vt 0.999503 0.526956
vt 0.999487 0.642568
vt 0.988874 0.641029
vt 0.998395 0.526793
vt 0.988871 0.519900
vt 0.870100 0.019239
vt 0.873462 0.135060
vt 0.862635 0.134683
vt 0.870100 0.019239
vt 0.859273 0.018862
vt 0.990169 0.965580
vt 0.990094 0.965582
vt 0.901683 0.882709
vt 0.908077 0.873551
vt 0.991775 0.953513
vt 0.914312 0.052052
vt 0.914872 0.168185
vt 0.914568 0.168161
vt 0.914308 0.053453
vt 0.914005 0.053443
vt 0.905601 0.012298
vt 0.894844 0.011905
vt 0.905795 0.012400
vt 0.905941 0.012432
vt 0.901719 0.133500
vt 0.039033 0.598388
vt 0.039037 0.745844
vt 0.028425 0.746408
vt 0.028420 0.606613
vt 0.888911 0.034799
vt 0.883765 0.182443
vt 0.872938 0.182066
vt 0.878084 0.034421
vt 0.981649 0.890184
vt 0.869076 0.807587
vt 0.876088 0.799021
vt 0.876089 0.799021
vt 0.995200 0.886415
vt 0.915781 0.049090
vt 0.911218 0.188583
vt 0.900405 0.188288
vt 0.904970 0.048699
vt 0.922503 0.039942
vt 0.920058 0.187660
vt 0.919753 0.187673
vt 0.922196 0.040243
vt 0.916084 0.048840
vt 0.911514 0.188567
s 1
usemtl wood
f 1/1/1 2/2/1 3/2/2
f 1/1/1 3/2/2 4/1/3
f 2/3/4 5/4/4 6/4/4
f 2/3/4 6/4/4 3/3/4
f 7/5/5 8/6/5 9/6/5
f 7/5/5 9/6/5 10/5/5
f 5/7/6 11/8/6 12/8/6
f 5/7/6 12/8/6 6/7/6
f 8/6/7 1/9/7 4/9/8
f 8/6/7 4/9/8 9/6/8
f 11/8/9 7/10/9 10/10/10
f 11/8/9 10/10/10 12/8/10
f 1/1/11 8/6/12 7/5/13
f 1/1/11 7/5/13 11/8/13
f 1/1/11 11/8/13 5/7/13
f 1/1/11 5/7/13 2/3/13
f 3/2/2 6/4/14 12/8/14
f 3/2/2 12/8/14 10/10/15
f 3/2/2 10/10/15 9/6/14
f 3/2/2 9/6/14 4/9/3
f 13/11/16 14/12/17 15/13/17
f 13/11/16 15/13/17 16/14/18
f 13/11/19 17/15/20 18/16/21
f 13/11/19 18/16/21 14/12/22
f 19/17/23 20/18/24 21/19/24
f 19/17/23 21/19/24 22/20/23
f 16/21/18 23/22/25 24/23/25
f 16/21/18 24/23/25 13/24/16
f 17/25/26 25/26/26 26/27/27
f 17/25/26 26/27/27 27/28/27
f 13/24/19 24/23/28 25/26/29
f 13/24/19 25/26/29 17/25/20
f 28/29/30 29/30/31 20/31/32
f 28/29/30 20/31/32 19/32/33
f 30/33/5 29/34/5 28/35/5
f 30/33/5 28/35/5 18/16/5
f 30/33/5 18/16/5 31/36/5
f 32/37/34 21/19/34 20/18/34
f 32/37/34 20/18/34 33/38/34
f 34/39/4 23/40/4 16/41/4
f 34/39/4 16/41/4 15/42/4
f 34/39/4 15/42/4 35/43/4
f 26/27/35 25/26/35 24/23/35
f 26/27/35 24/23/35 23/22/35
f 26/27/35 23/22/35 34/44/35
f 33/45/36 20/31/32 29/30/31
f 33/45/36 29/30/31 30/46/36
f 14/12/37 19/47/23 22/48/23
f 14/12/37 22/48/23 15/13/37
f 18/16/38 28/35/30 19/47/33
f 18/16/38 19/47/33 14/12/39
f 18/16/5 17/15/5 27/49/5
f 18/16/5 27/49/5 31/36/5
f 15/42/4 22/50/4 21/51/4
f 15/42/4 21/51/4 32/52/4
f 15/42/4 32/52/4 35/43/4
f 36/53/40 37/54/40 38/55/40
f 36/53/40 38/55/40 39/56/40
f 36/53/40 39/56/40 40/57/40
f 41/58/5 42/59/5 43/60/5
f 41/61/5 43/60/5 44/62/5
f 45/63/41 46/64/41 47/65/41
f 45/66/41 47/65/41 48/67/41
f 49/68/4 36/69/4 40/70/4
f 49/68/4 40/70/4 46/71/4
f 49/68/4 46/71/4 45/72/4
f 48/73/42 47/74/43 42/75/43
f 48/76/42 42/75/43 41/77/42
f 50/78/44 37/54/44 36/53/45
f 50/78/44 36/53/45 49/79/45
f 51/80/46 38/55/47 37/54/48
f 51/80/46 37/54/48 50/78/49
f 39/56/50 38/55/51 51/80/51
f 39/56/50 51/80/51 44/81/51
f 39/56/50 44/81/51 43/82/50
f 52/83/5 53/84/5 54/85/5
f 52/83/5 54/85/5 55/86/5
f 56/87/13 57/88/13 58/89/13
f 56/87/13 58/89/13 59/90/13
f 60/91/4 61/92/4 62/93/4
f 60/91/4 62/93/4 57/94/4
f 60/91/4 57/94/4 56/95/4
f 63/96/52 64/97/52 61/98/52
f 63/96/52 61/98/52 60/99/52
f 59/100/5 58/101/5 65/101/5
f 59/100/53 65/101/54 53/102/54
f 59/100/53 53/102/54 52/103/53
f 64/97/55 63/96/56 55/104/56
f 64/97/55 55/104/56 54/105/55
