# Blender 4.0.2
# www.blender.org
mtllib zadeldak_wall_triangle_carcass_5500.mtl
o zadeldak_wall_triangle_carcass_5500
v -0.013863 0.192225 -2.557101
v -0.037675 0.192225 -2.557101
v -0.023819 0.192223 2.557102
v -0.000007 0.192223 2.557102
v -0.037674 0.142226 -2.643705
v -0.023818 0.142223 2.643705
v -0.012862 0.143226 -2.641972
v -0.012863 0.191226 -2.558833
v 0.000993 0.191223 2.558834
v 0.000994 0.143223 2.641973
v -0.013862 0.142226 -2.643705
v -0.000006 0.142223 2.643705
v -0.000008 1.597120 0.024015
v -0.000008 1.610846 0.000015
v -0.023820 1.610846 0.000015
v -0.023820 1.597120 0.024015
v 0.000992 1.596119 0.024015
v 0.000992 1.609844 0.000515
v -0.000007 1.597120 -0.023985
v -0.000007 1.596119 -0.024985
v -0.023820 1.596119 -0.024985
v -0.023820 1.597120 -0.023985
v -0.023820 1.596119 0.025015
v -0.000422 1.596119 0.025015
v -0.000008 1.595705 0.025015
v -0.000008 0.192175 0.025030
v 0.000992 0.192176 0.024030
v 0.000993 1.596119 -0.022985
v 0.000993 1.595119 -0.023985
v 0.000993 0.192208 -0.023971
v 0.000992 0.192192 0.000030
v -0.023820 0.192209 -0.024971
v -0.000007 0.192209 -0.024971
v -0.023820 0.192175 0.025030
v -0.023820 0.192192 0.000030
v -0.023819 0.192090 2.559339
v -0.000421 0.192090 2.559339
v -0.000006 0.192297 2.558980
v -0.000002 1.668596 -0.000000
v -0.023815 1.668596 -0.000000
v 0.000994 0.191763 2.461694
v 0.000998 1.612101 -0.000000
v 0.000998 1.667443 -0.000000
v 0.000994 0.191760 2.557907
v -0.023818 0.191763 2.459687
v -0.023815 1.610948 -0.000000
v -0.000002 1.610946 -0.000000
v -0.000006 0.191763 2.459687
v -0.023819 0.191760 2.559427
v -0.000321 0.191760 2.559427
v 0.000494 0.191760 2.558910
v -0.012868 0.191762 -2.555907
v 0.000992 1.667443 -0.000000
v 0.000992 1.612018 -0.000000
v -0.012868 0.191762 -2.459906
v -0.037680 0.191762 -2.557906
v -0.023820 1.668596 -0.000000
v -0.000008 1.668596 -0.000000
v -0.013868 0.191762 -2.557906
v -0.037680 0.191762 -2.457906
v -0.023820 1.610862 -0.000000
v -0.023820 1.668596 -0.000000
v -0.013868 0.191762 -2.457906
v -0.000008 1.610862 -0.000000
v -0.000007 1.668596 -0.000000
vn -0.0001 0.9565 -0.2917
vn -0.0000 0.9659 -0.2590
vn -0.0000 1.0000 -0.0000
vn -1.0000 -0.0045 0.0026
vn -1.0000 -0.0046 0.0026
vn -1.0000 0.0045 0.0027
vn -1.0000 0.0047 0.0027
vn 1.0000 0.0045 -0.0027
vn 1.0000 0.0047 -0.0027
vn 1.0000 -0.0045 -0.0026
vn -0.0000 -1.0000 -0.0000
vn 0.7051 0.7091 -0.0019
vn 0.7088 0.7055 -0.0019
vn 0.7087 -0.7055 -0.0019
vn 0.7056 -0.7086 -0.0018
vn -0.0008 0.8660 -0.5000
vn 0.0004 0.8660 -0.5000
vn 0.0001 0.8660 -0.5000
vn -0.0000 0.8660 -0.5000
vn -0.0000 0.8660 0.5000
vn -0.0001 0.8660 0.5000
vn -0.0000 0.8025 0.5967
vn -0.0000 0.8681 0.4965
vn -0.0000 0.7944 0.6074
vn 0.6019 0.6043 0.5220
vn 0.5859 0.5853 0.5604
vn 0.5311 0.7355 0.4208
vn 0.5282 0.7371 0.4216
vn -0.0000 0.7944 -0.6074
vn -0.0000 0.7067 -0.7075
vn -0.0000 0.7067 0.7075
vn 0.7071 -0.0000 0.7071
vn 0.4996 0.4999 0.7074
vn 0.5000 0.4998 0.7073
vn 0.8140 0.4632 -0.3504
vn 0.8164 0.4083 -0.4083
vn 0.8166 0.4081 -0.4083
vn 0.8136 0.4576 -0.3586
vn 1.0000 -0.0000 -0.0000
vn -0.0000 -0.0000 -1.0000
vn -1.0000 -0.0000 -0.0000
vn -0.0000 -0.0000 1.0000
vn 0.7071 -0.0000 -0.7071
vn -0.0000 0.8681 -0.4965
vn 0.7479 0.5762 -0.3297
vn 0.7454 0.5787 -0.3309
vn -0.0000 0.8662 0.4997
vn -0.0000 0.8663 0.4995
vn -0.0000 0.8662 0.4996
vn -0.0000 -0.8662 -0.4998
vn -0.0001 -0.8662 -0.4998
vn 0.7082 -0.6116 -0.3529
vn 0.7073 -0.6123 -0.3533
vn -0.0000 0.2574 0.9663
vn -0.0000 0.2572 0.9664
vn 0.4996 0.3622 0.7869
vn 0.4996 0.3631 0.7865
vn 0.4997 0.3617 0.7871
vn 0.4997 0.3608 0.7875
vn 0.7066 0.6129 0.3536
vn 0.7072 0.6124 0.3533
vn 0.7074 0.6122 0.3532
vn 0.7079 0.6118 0.3530
vn 1.0000 -0.0095 -0.0002
vn 1.0000 -0.0000 -0.0054
vn 1.0000 -0.0001 -0.0054
vn 1.0000 -0.0098 -0.0000
vn -0.0000 0.8659 -0.5002
vn -1.0000 -0.0000 0.0056
vn -1.0000 0.0094 -0.0000
vn -0.0000 -0.8660 0.5000
vn -0.0000 0.8658 -0.5004
vn 0.7098 0.6084 -0.3551
vn 0.7060 0.6117 -0.3570
vn 0.7085 -0.6129 0.3499
vn 0.7041 -0.6166 0.3521
vt 0.064072 0.603183
vt 0.053247 0.602803
vt 0.050619 0.602711
vt 0.064072 0.603183
vt 0.050619 0.602711
vt 0.061444 0.603091
vt 0.119506 0.683459
vt 0.107793 0.702205
vt 0.107800 0.702192
vt 0.119513 0.683446
vt 0.107798 0.702196
vt 0.119506 0.683458
vt 0.141506 0.710020
vt 0.131538 0.691286
vt 0.131531 0.691272
vt 0.141504 0.710017
vt 0.131533 0.691275
vt 0.141506 0.710018
vt 0.089046 0.577550
vt 0.078221 0.577175
vt 0.080729 0.577262
vt 0.089046 0.577550
vt 0.080729 0.577262
vt 0.091554 0.577636
vt 0.123692 0.664679
vt 0.123393 0.664286
vt 0.122527 0.663146
vt 0.123970 0.664968
vt 0.122805 0.663440
vt 0.123104 0.663831
vt 0.100114 0.604422
vt 0.099815 0.604028
vt 0.100641 0.605119
vt 0.099880 0.604210
vt 0.100407 0.604910
vt 0.100706 0.605308
vt 0.141506 0.747230
vt 0.181210 0.780733
vt 0.191178 0.799467
vt 0.179122 0.405741
vt 0.228794 0.457977
vt 0.195839 0.379822
vt 0.183500 0.415943
vt 0.200217 0.390025
vt 0.211042 0.390399
vt -0.385047 0.217665
vt -0.357504 0.192121
vt -0.295500 0.245493
vt 0.692305 0.941912
vt 0.780963 0.988866
vt 0.719847 0.916374
vt 0.221560 0.523712
vt 0.249103 0.498173
vt 0.248803 0.497780
vt -0.123276 0.152716
vt -0.096033 0.126783
vt -0.072747 0.186599
vt -0.601936 0.237537
vt -0.551407 0.271423
vt -0.551708 0.271030
vt 0.056525 0.944369
vt 0.061831 0.944366
vt 0.061837 0.955199
vt 0.056525 0.944370
vt 0.061837 0.955199
vt 0.056531 0.955202
vt 0.044680 0.983315
vt 0.044680 0.983013
vt 0.049875 0.983012
vt 0.048757 0.980114
vt 0.053952 0.979805
vt 0.054063 0.980118
vt 0.864597 0.426487
vt 0.864609 0.426176
vt 0.875434 0.426551
vt 0.864597 0.426559
vt 0.875435 0.426662
vt 0.875423 0.426973
vt 0.894936 0.447233
vt 0.894924 0.446819
vt 0.905665 0.446995
vt 0.884163 0.425159
vt 0.894886 0.424925
vt 0.895008 0.425190
vt 0.903945 0.419921
vt 0.903653 0.419805
vt 0.908915 0.258980
vt 0.903945 0.419913
vt 0.909206 0.259125
vt 0.895493 0.427498
vt 0.895393 0.427242
vt 0.895447 0.427189
vt 0.890831 0.433362
vt 0.890785 0.433052
vt 0.891077 0.433165
vt 0.918560 0.443789
vt 0.918747 0.443552
vt 0.919067 0.443785
vt 0.915665 0.446114
vt 0.916168 0.446110
vt 0.915970 0.446358
vt 0.039040 0.824029
vt 0.039043 0.975737
vt 0.038822 0.975957
vt 0.038822 0.976007
vt 0.033626 0.976008
vt 0.039040 0.823779
vt 0.033626 0.976483
vt 0.033734 0.820715
vt 0.881037 0.260723
vt 0.875749 0.412424
vt 0.864922 0.412047
vt 0.864922 0.412047
vt 0.870210 0.260346
vt 0.812287 0.765919
vt 0.682447 0.670655
vt 0.682400 0.670346
vt 0.682384 0.670335
vt 0.685501 0.666041
vt 0.811752 0.765527
vt 0.686665 0.666895
vt 0.812448 0.759182
vt 0.903653 0.419805
vt 0.903571 0.419854
vt 0.903583 0.419855
vt 0.892866 0.419678
vt 0.892836 0.419703
vt 0.898102 0.258705
vt 0.918761 0.265979
vt 0.916247 0.417758
vt 0.915944 0.417524
vt 0.915944 0.417525
vt 0.918458 0.265843
vt 0.005643 0.944390
vt 0.010949 0.944388
vt 0.010955 0.955221
vt 0.005643 0.944401
vt 0.010955 0.955233
vt 0.005649 0.955239
vt 0.023726 0.981518
vt 0.028922 0.981518
vt 0.029143 0.981831
vt 0.021190 0.983818
vt 0.026608 0.984131
vt 0.021301 0.984127
vt 0.033626 0.977856
vt 0.028431 0.977857
vt 0.028427 0.817000
vt 0.033626 0.976483
vt 0.028427 0.817652
vt 0.588135 0.591446
vt 0.591263 0.587158
vt 0.591568 0.587097
vt 0.687104 0.667216
vt 0.690552 0.662890
vt 0.812937 0.752685
vt 0.686665 0.666895
vt 0.813145 0.752838
vt 1.016602 -0.127014
vt 1.027344 -0.126637
vt 1.027527 -0.126545
vt 0.896174 -0.029207
vt 0.906980 -0.028733
vt 0.901185 0.141672
vt 0.896277 -0.029227
vt 0.901139 0.141673
vt 0.890329 0.141297
vt 0.943030 0.467789
vt 0.942938 0.634368
vt 0.932324 0.632829
vt 0.946414 0.474016
vt 0.936839 0.638834
vt 0.936615 0.467145
vt 0.870372 -0.022369
vt 0.873632 0.143354
vt 0.862805 0.142977
vt 0.870365 -0.022369
vt 0.862801 0.142977
vt 0.859536 -0.022746
vt 0.975511 1.018622
vt 0.975452 1.018623
vt 0.853996 0.903659
vt 0.994405 1.046916
vt 0.868979 0.929551
vt 0.875372 0.920393
vt 0.992568 1.039828
vt 0.873594 0.912414
vt 0.994397 1.027575
vt 0.876984 0.002662
vt 0.876102 0.169147
vt 0.875793 0.169121
vt 0.874218 0.023492
vt 0.876644 0.187866
vt 0.873913 0.023482
vt 0.921498 -0.056198
vt 0.921417 -0.056128
vt 0.910690 -0.056516
vt 0.906586 -0.060258
vt 0.895844 -0.060575
vt 0.895844 -0.060650
vt 0.824615 -0.085020
vt 0.824478 -0.084965
vt 0.824326 -0.085052
vt 0.879059 -0.106295
vt 0.878723 -0.106323
vt 0.878876 -0.106400
vt 0.862244 0.152630
vt 0.868576 -0.018505
vt 0.868729 -0.018559
vt 0.861252 0.146411
vt 0.864601 -0.024346
vt 0.864769 -0.024314
vt 0.862907 0.132796
vt 0.869789 -0.038031
vt 0.863213 0.132833
vt 0.095478 0.533785
vt 0.095494 0.742843
vt 0.084882 0.743407
vt 0.095493 0.534773
vt 0.084878 0.744483
vt 0.084880 0.542998
vt 0.888517 -0.015531
vt 0.883844 0.192483
vt 0.873017 0.192105
vt 0.888517 -0.015531
vt 0.873017 0.192105
vt 0.877690 -0.015909
vt 1.067187 0.882933
vt 0.904889 0.763837
vt 0.911901 0.755271
vt 1.066860 0.882678
vt 0.911588 0.755050
vt 1.080412 0.878910
vt 0.919688 -0.001055
vt 0.910439 0.198577
vt 0.899626 0.198282
vt 0.919688 -0.001058
vt 0.899626 0.198283
vt 0.908878 -0.001459
vt 0.923340 0.007507
vt 0.919861 0.195038
vt 0.919861 0.195042
vt 0.960873 -0.017351
vt 0.959156 0.191018
vt 0.958855 0.191031
vt 0.962639 -0.034248
vt 0.957294 0.175349
vt 0.962345 -0.033947
vt 0.948639 0.183102
vt 0.958687 -0.018766
vt 0.959007 -0.019016
vt 0.948643 0.191450
vt 0.955254 -0.009254
vt 0.948933 0.191434
s 1
usemtl wood
f 1/1/1 2/2/2 3/3/3
f 1/4/1 3/5/3 4/6/3
f 2/7/4 5/8/5 6/9/6
f 2/10/4 6/11/6 3/12/7
f 7/13/8 8/14/9 9/15/10
f 7/16/8 9/17/10 10/18/10
f 5/19/11 11/20/11 12/21/11
f 5/22/11 12/23/11 6/24/11
f 8/25/12 1/26/12 4/27/13
f 8/28/12 4/29/13 9/30/13
f 11/31/14 7/32/14 10/33/15
f 11/34/14 10/35/15 12/36/15
f 1/37/1 8/38/16 7/39/17
f 1/40/1 7/41/17 11/42/18
f 1/43/1 11/44/18 5/45/19
f 1/46/1 5/47/19 2/48/2
f 3/49/20 6/50/20 12/51/21
f 3/52/20 12/53/21 10/54/21
f 3/55/20 10/56/21 9/57/20
f 3/58/20 9/59/20 4/60/20
f 13/61/22 14/62/23 15/63/23
f 13/64/22 15/65/23 16/66/24
f 13/67/25 17/68/26 18/69/27
f 13/70/25 18/71/27 14/72/28
f 19/73/29 20/74/30 21/75/30
f 19/76/29 21/77/30 22/78/29
f 16/79/24 23/80/31 24/81/31
f 16/82/24 24/83/31 13/84/22
f 17/85/32 25/86/32 26/87/32
f 17/88/32 26/87/32 27/89/32
f 13/90/25 24/91/33 25/92/34
f 13/93/25 25/94/34 17/95/26
f 28/96/35 29/97/36 20/98/37
f 28/99/35 20/100/37 19/101/38
f 30/102/39 29/103/39 28/104/39
f 30/102/39 28/105/39 18/106/39
f 30/107/39 18/108/39 31/109/39
f 32/110/40 21/111/40 20/112/40
f 32/110/40 20/113/40 33/114/40
f 34/115/41 23/116/41 16/117/41
f 34/115/41 16/118/41 15/119/41
f 34/120/41 15/121/41 35/122/41
f 26/87/42 25/123/42 24/124/42
f 26/87/42 24/125/42 23/126/42
f 26/87/42 23/127/42 34/128/42
f 33/129/43 20/130/43 29/131/43
f 33/129/43 29/132/43 30/133/43
f 14/134/44 19/135/29 22/136/29
f 14/137/44 22/138/29 15/139/44
f 18/140/45 28/141/35 19/142/38
f 18/143/45 19/144/38 14/145/46
f 18/146/39 17/147/39 27/148/39
f 18/149/39 27/150/39 31/109/39
f 15/151/41 22/152/41 21/153/41
f 15/154/41 21/155/41 32/156/41
f 15/157/41 32/158/41 35/122/41
f 36/159/47 37/160/48 38/161/49
f 36/162/47 38/163/49 39/164/47
f 36/165/47 39/166/47 40/167/47
f 41/168/39 42/169/39 43/170/39
f 41/171/39 43/172/39 44/173/39
f 45/174/50 46/175/51 47/176/51
f 45/177/50 47/178/51 48/179/50
f 49/180/41 36/181/41 40/182/41
f 49/183/41 40/184/41 46/185/41
f 49/186/41 46/187/41 45/188/41
f 48/189/52 47/190/53 42/191/53
f 48/192/52 42/193/53 41/194/52
f 50/195/54 37/196/54 36/197/55
f 50/198/54 36/199/55 49/200/55
f 51/201/56 38/202/57 37/203/58
f 51/204/56 37/205/58 50/206/59
f 39/207/60 38/208/61 51/209/62
f 39/210/60 51/211/62 44/212/63
f 39/213/60 44/214/63 43/215/60
f 52/216/64 53/217/65 54/218/66
f 52/219/64 54/220/66 55/221/67
f 56/222/19 57/223/19 58/224/68
f 56/225/19 58/226/68 59/227/19
f 60/228/69 61/229/69 62/230/69
f 60/228/3 62/230/3 57/230/3
f 60/231/70 57/232/70 56/233/70
f 63/234/71 64/235/71 61/236/71
f 63/237/71 61/238/71 60/239/71
f 59/240/19 58/241/68 65/242/72
f 59/243/73 65/244/74 53/245/74
f 59/246/73 53/247/74 52/248/73
f 64/249/75 63/250/76 55/251/76
f 64/252/75 55/253/76 54/254/75
