# Blender 4.0.2
# www.blender.org
mtllib zadeldak_roof_side_5000.mtl
o zadeldak_roof_side_5000
v 0.019090 1.613643 -0.000880
v 0.020090 1.615145 -0.000020
v 0.019090 1.613643 0.000880
v 0.001090 1.613643 0.000880
v 0.000090 1.615145 -0.000020
v 0.001090 1.613643 -0.000880
v 0.019090 1.844584 -0.000850
v 0.019090 1.844584 0.000850
v 0.020090 1.844085 -0.000020
v 0.001090 1.844584 0.000880
v 0.001090 1.844584 -0.000850
v 0.000090 1.844085 -0.000020
v 0.001090 0.031731 2.740844
v 0.001090 0.032230 2.741704
v 0.000090 0.032960 2.740704
v 0.000090 0.261590 2.740704
v 0.001090 0.261170 2.741704
v 0.001090 0.262670 2.740844
v 0.019090 0.262668 2.740844
v 0.019090 0.261170 2.741704
v 0.020090 0.261590 2.740704
v 0.020090 0.032960 2.740704
v 0.019090 0.032230 2.741704
v 0.019090 0.031731 2.740844
v -0.229850 1.844584 0.000880
v -0.000910 1.844584 0.000850
v -0.000910 1.844584 -0.000850
v -0.229850 1.844584 -0.000850
v 0.000090 1.844085 -0.000020
v 0.000107 0.261588 2.740704
v 0.000107 0.243898 2.740704
v 0.000090 1.826083 0.000020
v -0.000893 0.262668 2.740844
v -0.229833 0.242670 2.740844
v -0.000893 0.242670 2.740844
v -0.000893 0.243168 2.741704
v -0.229833 0.243168 2.741704
v -0.000910 1.824584 0.000880
v -0.000910 1.824584 -0.000880
v -0.230850 1.844085 -0.000020
v -0.229850 1.824584 0.000880
v -0.230850 1.826083 -0.000020
v -0.229850 1.824584 -0.000880
v -0.230833 0.243898 2.740704
v -0.230833 0.261588 2.740704
v -0.229833 0.261168 2.741704
v -0.229833 0.262670 2.740844
v -0.000893 0.261168 2.741704
v -0.230833 0.261587 -2.740704
v -0.229833 0.262669 -2.740844
v -0.229833 0.261167 -2.741704
v -0.000893 0.242669 -2.740844
v 0.000107 0.243897 -2.740704
v -0.230833 0.243897 -2.740704
v -0.229833 0.242669 -2.740844
v -0.229833 0.243167 -2.741704
v -0.000893 0.243167 -2.741704
v 0.000107 0.261587 -2.740704
v -0.000893 0.262667 -2.740844
v -0.000893 0.261167 -2.741704
v 0.001090 0.031730 -2.740844
v 0.000090 0.032959 -2.740704
v 0.001090 0.032229 -2.741704
v 0.000090 0.261589 -2.740704
v 0.001090 0.262669 -2.740844
v 0.001090 0.261169 -2.741704
v 0.019090 0.262667 -2.740844
v 0.020090 0.261589 -2.740704
v 0.019090 0.261169 -2.741704
v 0.020090 0.032959 -2.740704
v 0.019090 0.031730 -2.740844
v 0.019090 0.032229 -2.741704
vn 0.8324 -0.5542 -0.0000
vn -0.8324 -0.5542 -0.0000
vn 0.4464 0.8949 -0.0000
vn -0.4464 0.8948 -0.0000
vn -0.7498 -0.5723 0.3321
vn -0.5500 0.4154 0.7245
vn 0.5497 0.4159 0.7245
vn 0.7498 -0.5723 0.3321
vn -0.6863 0.6299 0.3637
vn -0.7051 -0.6141 -0.3545
vn -0.6481 -0.6595 -0.3807
vn 0.0005 0.8660 0.5000
vn -0.0000 0.4976 0.8674
vn -0.7071 -0.0000 0.7071
vn -0.0000 1.0000 -0.0000
vn 1.0000 -0.0000 -0.0000
vn -0.0000 -1.0000 -0.0000
vn -1.0000 -0.0000 -0.0000
vn -0.0000 -0.8660 -0.5000
vn 0.7071 -0.0000 0.7071
vn -0.0000 -0.8649 0.5019
vn -0.0000 -0.0000 1.0000
vn 0.7051 -0.6141 -0.3545
vn 0.6834 0.6322 0.3650
vn 0.6477 -0.6598 -0.3810
vn -0.0000 -0.8654 0.5010
vn 0.8319 -0.5549 -0.0000
vn -0.4467 0.8947 -0.0000
vn -0.8319 -0.5549 -0.0000
vn 0.7496 -0.5728 0.3315
vn -0.7496 -0.5728 0.3315
vn -0.5503 0.4149 0.7246
vn 0.5500 0.4154 0.7245
vn -0.5503 0.4150 -0.7245
vn 0.7048 -0.6144 0.3547
vn -0.6556 -0.6539 0.3775
vn -0.6472 -0.6602 -0.3811
vn -0.7497 -0.5727 -0.3316
vn 0.7495 -0.5729 -0.3316
vn 0.7048 -0.6144 -0.3547
vn 0.6559 -0.6537 -0.3774
vn -0.0000 0.8660 0.5000
vn -0.0000 -0.8653 -0.5012
vn 0.6795 0.6354 -0.3668
vn -0.7071 -0.0000 -0.7071
vn -0.0000 0.4971 0.8677
vn -0.7048 -0.6144 -0.3547
vn 0.6830 0.6325 0.3652
vn 0.5500 0.4156 -0.7244
vn -0.6867 0.6296 0.3635
vn -0.7497 -0.5725 -0.3320
vn -0.5499 0.4156 -0.7245
vn 0.5496 0.4161 -0.7244
vn 0.7497 -0.5725 -0.3320
vn -0.6795 0.6354 -0.3669
vn -0.7051 -0.6141 0.3545
vn -0.6568 -0.6531 0.3770
vn -0.0000 0.8660 -0.5000
vn -0.0000 0.4976 -0.8674
vn -0.0000 -0.8660 0.5000
vn 0.7071 -0.0000 -0.7071
vn -0.0000 -0.8649 -0.5019
vn -0.0000 -0.0000 -1.0000
vn 0.7051 -0.6141 0.3545
vn 0.6565 -0.6533 0.3772
vn 0.6564 -0.6533 0.3772
vn 0.6791 0.6357 -0.3670
vn 0.6470 -0.6603 0.3813
vn -0.0000 0.4971 -0.8677
vn -0.7049 -0.6143 0.3547
vn -0.6798 0.6351 -0.3667
vt 0.006330 0.998840
vt 0.005870 0.999100
vt 0.006360 0.999300
vt 0.053800 0.718230
vt 0.053930 0.717710
vt 0.053440 0.717930
vt 0.123980 0.027630
vt 0.124330 0.027310
vt 0.123950 0.027250
vt 0.063140 0.716150
vt 0.063120 0.716620
vt 0.063430 0.716400
vt 0.192040 0.100202
vt 0.191811 0.100143
vt 0.191681 0.100532
vt 0.194305 0.000004
vt 0.194363 0.000004
vt 0.194759 -0.000056
vt 0.195200 0.015934
vt 0.194804 0.015934
vt 0.194752 0.015934
vt 0.177172 -0.079038
vt 0.177370 -0.078690
vt 0.177586 -0.078777
vt 0.000500 0.998270
vt 0.027872 0.158733
vt 0.041796 0.159281
vt 0.015140 0.998590
vt 0.025850 0.968370
vt 0.052506 0.129052
vt 0.067120 0.129700
vt 0.039570 0.969190
vt 0.051218 0.159573
vt 0.025360 0.998910
vt 0.223056 0.008693
vt 0.222686 0.003866
vt 0.222285 0.003896
vt 0.222656 0.008723
vt 0.074355 0.044305
vt 0.135735 0.046797
vt 0.135868 0.046613
vt 0.074405 0.044118
vt 0.124500 0.027740
vt 0.128960 0.025980
vt 0.128790 0.025550
vt 0.039990 0.999500
vt 0.065038 0.159897
vt 0.027918 0.128478
vt 0.002820 0.968040
vt 0.048810 0.716580
vt 0.053260 0.718350
vt 0.048980 0.716150
vt 0.066987 0.129696
vt 0.027984 0.158736
vt 0.016560 0.968070
vt 0.042417 0.128735
vt 0.130281 -0.020518
vt 0.070083 -0.008319
vt 0.070161 -0.008145
vt 0.130441 -0.020360
vt 0.241706 0.007393
vt 0.241284 0.002521
vt 0.241060 0.002536
vt 0.241482 0.007408
vt 0.062413 0.032575
vt 0.123063 0.025375
vt 0.122493 0.020605
vt 0.061843 0.027805
vt 0.038680 0.760080
vt 0.065170 0.703250
vt 0.065160 0.703240
vt 0.038660 0.760070
vt 0.027794 0.128475
vt 0.029090 0.001960
vt 0.023628 0.852393
vt 0.012563 0.857554
vt 0.018360 0.002800
vt 0.039880 0.009180
vt 0.035030 0.851293
vt 0.185338 0.852085
vt 0.217214 0.794028
vt 0.216631 0.793755
vt 0.184747 0.851816
vt 0.065280 0.703000
vt 0.063840 0.703250
vt 0.063820 0.703240
vt 0.063950 0.703000
vt 0.038550 0.760320
vt 0.037210 0.760360
vt 0.037090 0.760600
vt 0.037200 0.760350
vt 0.200484 0.618049
vt 0.200315 0.618719
vt 0.200994 0.618911
vt 0.038332 0.954395
vt 0.037842 0.954027
vt 0.037472 0.954651
vt -0.180583 0.782885
vt -0.180078 0.782413
vt -0.180968 0.782139
vt -0.065562 0.566784
vt -0.064831 0.567258
vt -0.064793 0.566601
vt 0.001506 0.862218
vt 0.012481 0.857589
vt -0.095098 0.881400
vt -0.088616 0.883095
vt -0.088125 0.882583
vt -0.094721 0.880857
vt 0.024556 0.868312
vt 0.040230 0.022310
vt 0.028680 0.008540
vt 0.001427 0.863071
vt 0.007510 0.013800
vt 0.006870 0.007440
vt 0.002488 0.850767
vt 0.034980 0.870175
vt 0.056242 0.568316
vt 0.050809 0.564883
vt 0.050656 0.565516
vt 0.056185 0.569009
vt 0.023714 0.852387
vt -0.033638 0.750770
vt -0.006470 0.693776
vt -0.012441 0.691268
vt -0.039548 0.748158
vt 0.024641 0.868414
vt 0.013905 0.856383
vt 0.017710 0.003420
vt -0.128595 0.634604
vt -0.156626 0.691802
vt -0.155818 0.692175
vt -0.127782 0.634977
vt 0.024851 0.870225
vt 0.065149 0.159900
s 0
f 1/1/1 2/2/1 3/3/1
f 4/4/2 5/5/2 6/6/2
f 7/7/3 8/8/3 9/9/3
f 10/10/4 11/11/4 12/12/4
f 13/13/5 14/14/5 15/15/5
f 16/16/6 17/17/6 18/18/6
f 19/19/7 20/20/7 21/21/7
f 22/22/8 23/23/8 24/24/8
f 12/25/9 16/26/9 18/27/9 10/28/9
f 4/29/10 13/30/10 15/31/10
f 4/29/11 15/31/11 5/32/11
f 10/28/12 18/27/12 19/33/12 8/34/12
f 19/35/13 18/36/13 17/37/13 20/38/13
f 16/39/14 15/40/14 14/41/14 17/42/14
f 7/43/15 11/44/15 10/45/15 8/8/15
f 9/46/16 21/47/16 22/48/16 2/49/16
f 3/50/17 4/51/17 6/6/17 1/52/17
f 5/32/18 15/53/18 16/54/18 12/25/18
f 3/55/19 24/56/19 13/30/19 4/29/19
f 22/57/20 21/58/20 20/59/20 23/60/20
f 13/61/21 24/62/21 23/63/21 14/64/21
f 17/65/22 14/66/22 23/67/22 20/68/22
f 25/69/15 26/70/15 27/71/15 28/72/15
f 22/73/23 24/56/23 2/49/23
f 29/74/16 30/75/16 31/76/16 32/77/16
f 26/78/24 33/79/24 30/75/24 29/74/24
f 24/56/25 3/55/25 2/49/25
f 34/80/26 35/81/26 36/82/26 37/83/26
f 27/71/3 26/70/3 29/84/3
f 38/85/27 39/86/27 32/87/27
f 28/72/28 40/88/28 25/69/28
f 41/89/29 42/90/29 43/91/29
f 31/92/30 36/93/30 35/94/30
f 34/95/31 37/96/31 44/97/31
f 45/98/32 46/99/32 47/100/32
f 33/101/33 48/102/33 30/103/33
f 49/98/34 50/100/34 51/99/34
f 32/77/35 52/104/35 53/105/35
f 45/106/14 44/107/14 37/108/14 46/109/14
f 54/110/36 43/111/36 42/112/36
f 38/85/17 41/89/17 43/91/17 39/86/17
f 44/110/37 42/112/37 41/111/37
f 55/95/38 54/97/38 56/96/38
f 53/92/39 52/94/39 57/93/39
f 32/77/40 31/76/40 35/104/40
f 32/77/41 35/113/41 38/114/41
f 25/115/42 47/116/42 33/79/42 26/78/42
f 55/80/43 56/83/43 57/82/43 52/81/43
f 38/114/19 35/113/19 34/117/19 41/111/19
f 31/118/20 30/119/20 48/120/20 36/121/20
f 27/78/44 29/74/44 58/122/44 59/79/44
f 37/123/22 36/124/22 48/125/22 46/126/22
f 49/106/45 51/109/45 56/108/45 54/107/45
f 42/112/18 44/127/18 45/128/18 40/129/18
f 33/130/46 47/131/46 46/132/46 48/133/46
f 34/117/47 44/134/47 41/111/47
f 19/33/48 21/135/48 9/46/48 8/34/48
f 29/74/16 32/77/16 53/105/16 58/122/16
f 59/101/49 58/103/49 60/102/49
f 45/128/50 47/116/50 25/115/50 40/129/50
f 61/13/51 62/15/51 63/14/51
f 64/16/52 65/18/52 66/17/52
f 67/19/53 68/21/53 69/20/53
f 70/22/54 71/24/54 72/23/54
f 12/25/55 11/28/55 65/27/55 64/26/55
f 6/29/56 62/31/56 61/30/56
f 6/29/57 5/32/57 62/31/57
f 11/28/58 7/34/58 67/33/58 65/27/58
f 67/35/59 69/38/59 66/37/59 65/36/59
f 64/39/45 66/42/45 63/41/45 62/40/45
f 9/46/16 2/49/16 70/48/16 68/47/16
f 5/32/18 12/25/18 64/54/18 62/53/18
f 1/55/60 6/29/60 61/30/60 71/56/60
f 70/57/61 72/60/61 69/59/61 68/58/61
f 61/61/62 63/64/62 72/63/62 71/62/62
f 66/65/63 69/68/63 72/67/63 63/66/63
f 70/73/64 2/49/64 71/56/64
f 71/56/65 2/49/66 1/55/66
f 67/33/67 7/34/67 9/46/67 68/135/67
f 32/77/68 39/114/68 52/113/68
f 28/115/58 27/78/58 59/79/58 50/116/58
f 39/114/60 43/111/60 55/117/60 52/113/60
f 53/118/61 57/121/61 60/120/61 58/119/61
f 56/123/63 51/126/63 60/125/63 57/124/63
f 42/112/18 40/129/18 49/128/18 54/127/18
f 59/130/69 60/133/69 51/132/69 50/131/69
f 55/117/70 43/111/70 54/134/70
f 49/128/71 40/129/71 28/115/71 50/116/71
