# Blender 4.0.2
# www.blender.org
mtllib zadeldak_roof_side_3000.mtl
o zadeldak_roof_side_3000
v -0.114930 1.272066 0.000870
v 0.114010 1.272066 0.000870
v 0.114010 1.272066 -0.000870
v -0.114930 1.272066 -0.000870
v 0.134640 0.037704 1.740864
v 0.134640 0.266332 1.740865
v 0.133650 0.265912 1.741865
v 0.133650 0.036974 1.741865
v 0.134640 0.037705 -1.740865
v 0.133650 0.036975 -1.741865
v 0.133650 0.265913 -1.741865
v 0.134640 0.266333 -1.740865
v 0.133650 0.267413 -1.741005
v 0.114650 0.266333 -1.740865
v 0.115643 0.267413 -1.741005
v 0.115640 0.265913 -1.741865
v 0.113656 0.267409 1.741005
v 0.114656 0.266329 1.740865
v 0.115010 1.271566 -0.000000
v 0.115010 1.042638 -0.000000
v 0.114640 0.037704 1.740864
v 0.114650 0.266332 1.740865
v 0.115010 1.271576 -0.000000
v 0.114010 1.252066 -0.000870
v -0.114930 1.252066 -0.000870
v -0.115284 0.247409 -1.741005
v 0.113656 0.247409 -1.741005
v 0.115010 1.253566 -0.000000
v 0.114656 0.248639 -1.740875
v 0.114656 0.266329 -1.740865
v 0.133650 0.267413 1.741005
v 0.115640 0.267412 1.741005
v 0.115640 0.265912 1.741865
v 0.134010 1.272076 -0.000870
v 0.116010 1.272076 -0.000870
v 0.116010 1.272076 0.000870
v 0.134010 1.272076 0.000870
v 0.115640 0.036974 1.741865
v 0.114010 1.252066 0.000870
v -0.115930 1.271566 -0.000000
v -0.114930 1.252066 0.000870
v -0.115930 1.253566 -0.000000
v 0.116010 1.041140 -0.000870
v 0.114640 0.037705 -1.740865
v -0.115284 0.247899 -1.741865
v -0.115284 0.265909 -1.741865
v 0.113656 0.265909 -1.741865
v 0.113656 0.247899 -1.741865
v 0.133650 0.036475 -1.741005
v 0.115643 0.036475 -1.741006
v 0.115640 0.036975 -1.741865
v 0.114656 0.248639 1.740875
v 0.113656 0.247899 1.741865
v 0.113656 0.247410 1.741005
v -0.115284 0.247409 1.741005
v -0.115284 0.247899 1.741865
v -0.116284 0.248639 1.740865
v -0.116284 0.266329 1.740865
v -0.115284 0.265909 1.741865
v -0.115284 0.267409 1.741005
v 0.113656 0.265909 1.741865
v 0.113656 0.267409 -1.741005
v -0.115284 0.267409 -1.741005
v -0.116284 0.266329 -1.740865
v -0.116284 0.248639 -1.740865
v 0.134010 1.041140 0.000870
v 0.116010 1.041140 0.000870
v 0.134010 1.041140 -0.000870
v 0.115640 0.036474 1.741005
v 0.133650 0.036474 1.741005
v 0.135010 1.271576 -0.000000
v 0.135010 1.042638 -0.000000
vn -0.0000 1.0000 -0.0000
vn 0.7108 -0.0000 0.7034
vn 0.7107 -0.0000 -0.7035
vn 0.5540 0.4141 -0.7223
vn -0.5533 0.4152 -0.7221
vn 0.6836 0.6320 0.3651
vn -1.0000 -0.0000 -0.0002
vn -0.0000 -0.8660 0.5000
vn 1.0000 -0.0000 -0.0002
vn -0.0000 0.4973 0.8676
vn -0.7091 -0.0000 0.7051
vn 0.4472 0.8945 -0.0000
vn 0.8321 -0.5547 -0.0000
vn -0.4472 0.8945 -0.0000
vn -0.8321 -0.5547 -0.0000
vn -0.6534 -0.6556 0.3785
vn -0.0000 -0.0000 -1.0000
vn -0.6854 0.6306 0.3640
vn -0.0000 -0.8644 -0.5028
vn 0.7495 -0.5752 0.3277
vn -0.7512 -0.5735 0.3269
vn -0.5500 0.4154 0.7245
vn 0.5500 0.4154 0.7245
vn 0.6836 0.6320 -0.3651
vn -0.6836 0.6321 0.3649
vn -0.6836 0.6321 -0.3649
vn -0.0000 -0.0000 1.0000
vn 0.7069 -0.6126 -0.3535
vn 0.6539 -0.6552 -0.3782
vn 0.7531 -0.5687 -0.3309
vn 0.7053 0.0002 -0.7089
vn -0.7041 -0.6149 0.3551
vn -1.0000 -0.0000 0.0002
vn -0.6538 -0.6553 -0.3784
vn -0.7495 -0.5733 -0.3310
vn 0.7056 0.0002 0.7086
vn -0.0000 0.8660 0.5000
vn -0.7054 -0.6138 0.3545
vn -0.7071 -0.0000 -0.7071
vn -0.0000 -1.0000 -0.0000
vn -0.0000 -0.8645 0.5026
vn -0.0000 -0.8691 0.4947
vn 1.0000 -0.0000 0.0002
vn -0.0000 -0.8660 -0.5000
vn -0.7053 -0.6138 -0.3545
vn 0.6856 0.6304 0.3641
vn -0.0000 0.4974 -0.8675
vn 0.6825 -0.6331 0.3653
vn -0.0000 0.8660 -0.5000
vn 0.8318 -0.5551 -0.0000
vn -0.8318 -0.5551 -0.0000
vn -0.7501 -0.5717 0.3324
vn -0.5539 0.4141 0.7223
vn 0.5541 0.4138 0.7223
vn 0.7533 -0.5686 0.3304
vn 0.6854 0.6305 -0.3642
vn -0.6849 0.6311 -0.3642
vn -0.7052 -0.6140 -0.3546
vn -0.6533 -0.6557 -0.3786
vn -0.7512 -0.5735 -0.3269
vn 0.7498 -0.5748 -0.3277
vn -0.0000 -0.8690 -0.4949
vn 0.6824 -0.6331 -0.3654
vn 0.7073 -0.6123 0.3533
vn 0.6539 -0.6552 0.3782
vn -0.5500 0.4154 -0.7245
vn 0.5500 0.4154 -0.7245
vn -0.6538 -0.6553 0.3784
vn -0.7089 -0.0000 -0.7053
vn -0.7071 -0.0000 0.7071
vn -0.0000 0.4974 0.8675
vt 0.103545 0.164997
vt 0.152305 0.114597
vt 0.151925 0.114227
vt 0.103165 0.164627
vt 0.224226 0.097029
vt 0.213767 0.001395
vt 0.213364 0.001540
vt 0.223835 0.097306
vt 0.215765 0.219719
vt 0.215381 0.219996
vt 0.204920 0.123634
vt 0.205318 0.123484
vt 0.105387 0.016371
vt 0.105767 0.016681
vt 0.105394 0.016923
vt 0.177254 0.194492
vt 0.177582 0.194126
vt 0.177689 0.194612
vt 0.329528 1.724124
vt 0.944364 1.751505
vt 0.944512 1.751072
vt 0.329388 1.723714
vt 0.651666 0.112624
vt 0.640153 0.719217
vt 0.724542 0.672627
vt 0.736140 0.065981
vt 0.793020 0.211043
vt 0.863061 0.214523
vt 0.832622 0.829215
vt 0.762582 0.825735
vt 0.332358 1.719064
vt 0.947426 1.746498
vt 0.944512 1.751077
vt 0.164949 0.015814
vt 0.159523 0.016410
vt 0.159571 0.016923
vt 0.164997 0.016326
vt 1.187009 1.755121
vt 1.186969 1.760601
vt 1.187459 1.760581
vt 1.187539 1.755171
vt 0.200480 0.000636
vt 0.211096 0.097126
vt 0.211534 0.097306
vt 0.200902 0.000691
vt 0.101007 0.203073
vt 0.101537 0.203073
vt 0.101267 0.202733
vt 0.046008 0.016923
vt 0.046538 0.016923
vt 0.046278 0.016373
vt 0.194082 0.190031
vt 0.194352 0.190381
vt 0.194612 0.190031
vt 0.151775 0.012142
vt 0.152045 0.012692
vt 0.152305 0.012142
vt 0.328958 1.853255
vt 0.328518 1.852844
vt 0.934982 1.869964
vt 0.131638 0.054078
vt 0.135382 0.058118
vt 0.083949 0.105767
vt 0.080206 0.101728
vt 1.187259 1.760941
vt 1.793679 1.781120
vt 1.793573 1.780701
vt 0.105747 0.176857
vt 0.105767 0.177077
vt 0.100320 0.177689
vt 0.100300 0.177475
vt 0.181432 0.203024
vt 0.181920 0.203073
vt 0.181844 0.202772
vt 0.126860 0.190381
vt 0.126921 0.190075
vt 0.126433 0.190122
vt 0.105340 0.156535
vt 0.105767 0.156405
vt 0.105324 0.156077
vt 0.016526 0.012692
vt 0.016923 0.012356
vt 0.016511 0.012219
vt 0.944552 1.757642
vt 0.944404 1.757207
vt 0.329378 1.779881
vt 0.329238 1.780291
vt 0.944552 1.757641
vt 0.187158 0.056418
vt 0.197707 0.152305
vt 0.203073 0.151709
vt 0.192523 0.055822
vt 0.947426 1.746502
vt 0.947674 1.746078
vt 0.332838 1.718684
vt 0.207304 0.096710
vt 0.201938 0.097306
vt 0.191388 0.001417
vt 0.196754 0.000821
vt 0.097306 0.105216
vt 0.096974 0.105767
vt 0.096882 0.105464
vt 0.090080 0.016923
vt 0.089644 0.016788
vt 0.092588 0.012250
vt 0.093075 0.012302
vt 1.187580 1.827439
vt 1.793602 1.844149
vt 1.793812 1.844580
vt 0.947434 1.762238
vt 0.332178 1.784961
vt 0.332648 1.785351
vt 0.164936 0.012692
vt 0.164554 0.012267
vt 0.164997 0.012387
vt 0.075672 0.071484
vt 0.072696 0.076025
vt 0.073124 0.076152
vt 0.076152 0.071528
vt 0.292491 1.006904
vt 0.306725 0.391629
vt 0.236619 0.390023
vt 0.222391 1.005304
vt 0.947435 1.762236
vt 0.947674 1.762658
vt 0.140433 0.020822
vt 0.140868 0.020705
vt 0.143843 0.025349
vt 0.143355 0.025384
vt 0.177529 0.127661
vt 0.177529 0.131151
vt 0.177689 0.129351
vt 0.177689 0.129471
vt 0.159524 0.105767
vt 0.164997 0.105081
vt 0.164976 0.104816
vt 0.159503 0.105502
vt 0.190156 0.028234
vt 0.139157 0.075921
vt 0.139367 0.076152
vt 0.190381 0.028466
vt 0.860712 0.297772
vt 0.830273 0.912464
vt 0.900313 0.915944
vt 0.930752 0.301252
vt 1.793693 1.775272
vt 1.793812 1.774860
vt 1.187379 1.754791
vt 1.187419 1.793594
vt 1.793651 1.810735
vt 1.793812 1.805305
vt 1.187579 1.788164
vt 0.459030 0.994212
vt 0.374906 0.946927
vt 0.368005 0.340259
vt 0.452036 0.387500
vt 1.793812 1.813766
vt 1.793652 1.819196
vt 1.187419 1.802055
vt 1.187579 1.796625
vt 0.160717 0.066587
vt 0.160766 0.067099
vt 0.155346 0.067691
vt 0.155296 0.067179
vt 1.793812 1.784931
vt 1.793582 1.785351
vt 1.187121 1.768131
vt 1.187581 1.767741
vt 0.214223 1.036519
vt 0.144123 1.034919
vt 0.158351 0.419638
vt 0.228457 0.421244
vt 1.793693 1.796425
vt 1.793574 1.801854
vt 1.187459 1.781734
vt 1.187539 1.776324
vt 0.160324 0.033606
vt 0.160766 0.033846
vt 0.160165 0.031796
vt 0.079782 0.004231
vt 0.080383 0.002181
vt 0.079941 0.002431
vt 0.122621 0.181920
vt 0.122690 0.181701
vt 0.122232 0.181519
vt 0.071495 0.202920
vt 0.071922 0.203073
vt 0.071823 0.202586
vt 0.113844 0.007928
vt 0.113855 0.008461
vt 0.114229 0.008200
vt 0.109998 0.151782
vt 0.109609 0.152034
vt 0.109698 0.152305
vt 1.187379 1.775944
vt 1.793812 1.796013
vt 1.187259 1.782094
vt 1.793679 1.802273
vt 1.221424 1.810516
vt 1.827658 1.827658
vt 1.827448 1.827227
vt 1.187789 1.844792
vt 1.793812 1.861503
vt 1.187348 1.844380
vt 0.190320 0.033846
vt 0.189907 0.033585
vt 0.190381 0.033540
vt 0.452035 0.387501
vt 0.177231 0.198795
vt 0.177688 0.198551
vt 0.177689 0.198842
vt 0.181692 0.146807
vt 0.181920 0.147033
vt 0.130616 0.194612
vt 0.130393 0.194384
vt 0.139223 0.104189
vt 0.139613 0.104595
vt 0.087990 0.152305
vt 0.087601 0.151898
vt 1.793583 1.789581
vt 1.793812 1.789161
vt 1.187614 1.771974
vt 1.187156 1.772361
vt 0.160354 0.076152
vt 0.160339 0.075695
vt 0.160766 0.076023
vt 0.168816 0.025384
vt 0.168816 0.024925
vt 0.169228 0.025064
vt 0.215765 0.097306
vt 0.215328 0.097111
vt 0.204859 0.001190
vt 0.205279 0.001254
vt 0.107666 0.169228
vt 0.156536 0.118938
vt 0.156155 0.118568
vt 0.107295 0.168858
vt 0.093893 0.020827
vt 0.096803 0.025384
vt 0.097306 0.025347
vt 0.094344 0.020708
vt 0.131638 0.041385
vt 0.080207 0.089035
vt 0.083952 0.093075
vt 0.135382 0.045425
vt 0.109544 0.173458
vt 0.160766 0.125556
vt 0.160416 0.125170
vt 0.109184 0.173065
s 0
usemtl wood
f 1/1/1 2/2/1 3/3/1 4/4/1
f 5/5/2 6/6/2 7/7/2 8/8/2
f 9/9/3 10/10/3 11/11/3 12/12/3
f 13/13/4 12/14/4 11/15/4
f 14/16/5 15/17/5 16/18/5
f 2/19/6 17/20/6 18/21/6 19/22/6
f 20/23/7 21/24/7 22/25/7 23/26/7
f 24/27/8 25/28/8 26/29/8 27/30/8
f 19/22/9 28/31/9 29/32/9 30/33/9
f 31/34/10 32/35/10 33/36/10 7/37/10
f 34/38/1 35/39/1 36/40/1 37/41/1
f 22/42/11 21/43/11 38/44/11 33/45/11
f 3/46/12 2/47/12 19/48/12
f 39/49/13 24/50/13 28/51/13
f 4/52/14 40/53/14 1/54/14
f 41/55/15 42/56/15 25/57/15
f 43/58/16 20/59/16 44/60/16
f 45/61/17 46/62/17 47/63/17 48/64/17
f 23/65/18 22/66/18 32/67/18 36/40/18
f 10/68/19 49/69/19 50/70/19 51/71/19
f 52/72/20 53/73/20 54/74/20
f 55/75/21 56/76/21 57/77/21
f 58/78/22 59/79/22 60/80/22
f 17/81/23 61/82/23 18/83/23
f 3/19/24 19/22/24 30/33/24 62/20/24
f 58/84/25 60/85/25 1/86/25 40/87/25
f 40/87/26 4/86/26 63/85/26 64/88/26
f 33/89/27 38/90/27 8/91/27 7/92/27
f 28/31/28 52/93/28 54/94/28
f 28/31/29 54/94/29 39/95/29
f 10/96/17 51/97/17 16/98/17 11/99/17
f 9/100/30 49/101/30 10/102/30
f 47/103/31 30/104/31 29/105/31 48/106/31
f 43/107/32 44/108/32 50/109/32
f 14/25/33 44/24/33 20/23/33 23/26/33
f 57/110/34 42/111/34 41/112/34
f 50/113/35 44/114/35 51/115/35
f 52/116/36 18/117/36 61/118/36 53/119/36
f 1/120/37 60/121/37 17/122/37 2/123/37
f 65/124/38 26/125/38 25/112/38
f 64/126/39 46/127/39 45/128/39 65/129/39
f 66/130/40 67/131/40 43/132/40 68/133/40
f 42/111/7 57/110/7 58/84/7 40/87/7
f 69/134/41 70/135/41 8/136/41 38/137/41
f 55/138/42 54/139/42 53/140/42 56/141/42
f 19/22/43 18/21/43 52/93/43 28/31/43
f 39/142/44 54/143/44 55/144/44 41/145/44
f 55/125/45 57/110/45 41/112/45
f 31/146/46 6/147/46 71/148/46 37/41/46
f 66/149/44 70/150/44 69/151/44 67/152/44
f 71/153/9 72/154/9 9/155/9 12/156/9
f 50/157/8 49/158/8 68/159/8 43/160/8
f 13/161/47 11/162/47 16/163/47 15/164/47
f 49/165/48 9/166/48 72/167/48 68/168/48
f 4/169/49 3/170/49 62/171/49 63/172/49
f 13/173/49 15/174/49 35/175/49 34/176/49
f 68/177/50 72/178/50 66/179/50
f 67/180/51 20/181/51 43/182/51
f 34/38/12 37/41/12 71/148/12
f 36/40/14 35/39/14 23/65/14
f 36/40/37 32/67/37 31/146/37 37/41/37
f 69/183/52 38/184/52 21/185/52
f 22/186/53 33/187/53 32/188/53
f 31/189/54 7/190/54 6/191/54
f 5/192/55 8/193/55 70/194/55
f 34/176/56 71/195/56 12/196/56 13/173/56
f 23/197/57 35/175/57 15/174/57 14/198/57
f 64/88/33 65/124/33 42/111/33 40/87/33
f 67/199/58 69/200/58 21/201/58
f 67/202/59 21/203/59 20/204/59
f 26/205/60 65/206/60 45/207/60
f 71/153/43 6/208/43 5/155/43 72/154/43
f 29/209/61 27/210/61 48/211/61
f 26/212/62 45/213/62 48/214/62 27/215/62
f 46/216/47 63/217/47 62/218/47 47/219/47
f 5/220/63 70/221/63 66/222/63 72/223/63
f 28/31/64 27/94/64 29/32/64
f 28/31/65 24/95/65 27/94/65
f 64/224/66 63/225/66 46/226/66
f 62/227/67 30/228/67 47/229/67
f 65/124/68 25/112/68 42/111/68
f 51/230/69 44/231/69 14/232/69 16/233/69
f 39/234/40 41/235/40 25/236/40 24/237/40
f 58/238/70 57/239/70 56/240/70 59/241/70
f 56/242/27 53/243/27 61/244/27 59/245/27
f 17/246/71 60/247/71 59/248/71 61/249/71
