# Blender 4.0.2
# www.blender.org
mtllib zadeldak_roof_side_3500.mtl
o zadeldak_roof_side_3500
v 0.114634 0.228833 1.990857
v 0.114634 0.037204 1.990857
v 0.115634 0.036474 1.991857
v 0.115634 0.228413 1.991857
v 0.134634 0.037203 -1.990857
v 0.133634 0.035973 -1.990997
v 0.133634 0.036473 -1.991857
v -0.115940 1.360403 -0.000010
v -0.115940 1.378403 -0.000010
v -0.116306 0.228836 -1.990857
v -0.116306 0.211146 -1.990857
v 0.115010 1.186463 -0.000010
v 0.115010 1.378403 -0.000010
v 0.134010 1.184963 0.000870
v 0.133634 0.035974 1.990997
v 0.115634 0.035974 1.990997
v 0.116010 1.184963 0.000870
v -0.116306 0.228836 1.990857
v -0.115296 0.229906 1.990997
v -0.114940 1.378903 0.000870
v 0.114000 1.358903 -0.000860
v -0.114940 1.358903 -0.000860
v -0.115296 0.209906 -1.990997
v 0.113634 0.209906 -1.990997
v -0.114940 1.378903 -0.000860
v 0.114000 1.378903 -0.000870
v 0.113644 0.229906 -1.990997
v -0.115296 0.229906 -1.990997
v 0.134010 1.378903 -0.000870
v 0.116010 1.378903 -0.000860
v 0.116010 1.378903 0.000870
v 0.134010 1.378903 0.000870
v 0.133634 0.228413 -1.991857
v 0.134634 0.228833 -1.990857
v 0.135010 1.378403 -0.000010
v 0.134634 0.228833 1.990857
v 0.134634 0.037204 1.990857
v 0.135010 1.186463 0.000010
v 0.114644 0.228836 -1.990857
v 0.113644 0.228406 -1.991857
v 0.114000 1.378903 0.000870
v 0.115000 1.378403 -0.000010
v 0.114000 1.358903 0.000870
v 0.115000 1.360403 -0.000010
v -0.114940 1.358903 0.000870
v 0.134010 1.184963 -0.000870
v 0.133634 0.036474 1.991857
v 0.133634 0.228413 1.991857
v 0.133634 0.229913 -1.990997
v 0.115634 0.228413 -1.991857
v 0.115634 0.229913 -1.990997
v 0.114634 0.211146 1.990867
v 0.113634 0.210406 1.991857
v 0.113634 0.209906 1.990997
v -0.115296 0.209906 1.990997
v -0.115296 0.210406 1.991857
v -0.116306 0.211146 1.990857
v -0.115296 0.228406 1.991857
v 0.113644 0.229906 1.990997
v 0.113644 0.228406 1.991857
v 0.114644 0.228836 1.990857
v 0.116010 1.184963 -0.000860
v 0.114634 0.037203 -1.990857
v 0.115634 0.035973 -1.990997
v 0.115634 0.036473 -1.991857
v -0.115296 0.210406 -1.991857
v 0.113634 0.210406 -1.991857
v -0.115296 0.228406 -1.991857
v 0.114634 0.211146 -1.990867
v 0.114634 0.228833 -1.990857
v 0.133634 0.229913 1.990997
v 0.115634 0.229913 1.990997
vn -0.7071 -0.0000 0.7071
vn 0.7499 -0.5718 -0.3326
vn -1.0000 -0.0000 0.0002
vn -1.0000 -0.0000 -0.0002
vn -0.0000 -0.8660 -0.5000
vn -0.6810 0.6342 0.3660
vn -0.0000 -0.8660 0.5000
vn -0.0000 0.8660 -0.5000
vn -0.0000 1.0000 -0.0000
vn 0.7071 -0.0000 -0.7071
vn 1.0000 -0.0000 0.0002
vn 0.5471 0.4164 -0.7262
vn 0.4473 0.8944 -0.0000
vn 0.8321 -0.5546 -0.0000
vn -0.4472 0.8944 -0.0000
vn -0.8321 -0.5546 -0.0000
vn 0.6517 -0.6569 0.3792
vn -0.0000 -0.0000 1.0000
vn -0.0000 0.4974 -0.8675
vn -0.0000 -1.0000 -0.0000
vn 0.7510 -0.5708 0.3320
vn -0.7491 -0.5727 0.3330
vn -0.5433 0.4177 0.7283
vn 0.5471 0.4164 0.7262
vn -0.7054 -0.6138 0.3545
vn -0.0000 -0.0000 -1.0000
vn -0.0000 -0.8644 -0.5027
vn -0.7036 -0.0000 -0.7106
vn -0.6581 -0.6521 0.3765
vn 0.7103 -0.6097 0.3518
vn -0.5433 0.4177 -0.7283
vn 0.7103 -0.6097 -0.3518
vn 0.6518 -0.6569 -0.3791
vn -0.0000 -0.8644 0.5027
vn 1.0000 -0.0003 -0.0000
vn 0.7071 -0.0000 0.7071
vn -0.7049 -0.6142 0.3547
vn -0.0001 0.8660 -0.5000
vn -0.6579 -0.6521 0.3766
vn 1.0000 -0.0000 -0.0002
vn -0.6817 0.6337 -0.3657
vn -0.0000 0.4973 0.8676
vn -0.0000 0.8660 0.5000
vn 0.6560 -0.6537 -0.3773
vn -0.0000 -0.8645 -0.5027
vn -0.0000 -0.8646 0.5025
vn -0.7491 -0.5727 -0.3330
vn 0.7510 -0.5708 -0.3320
vn 0.8321 -0.5547 -0.0000
vn -0.8320 -0.5547 -0.0000
vn -0.0000 0.4974 0.8675
vn 0.7054 -0.0002 0.7088
vn 0.6582 -0.6520 0.3763
vn -0.7500 -0.5719 0.3324
vn -0.5500 0.4154 0.7245
vn 0.5500 0.4154 0.7245
vn 0.7500 -0.5719 0.3324
vn 0.0001 -0.8660 0.5000
vn -0.6846 0.6313 0.3644
vn -0.5503 0.4153 -0.7243
vn -0.6516 -0.6569 -0.3793
vn -0.7054 -0.6138 -0.3545
vn -0.6515 -0.6570 -0.3794
vn 0.6829 0.6326 0.3654
vn 0.5500 0.4154 -0.7245
vn -0.7499 -0.5718 -0.3326
vn 0.7054 -0.0002 -0.7088
vn -0.7049 -0.6142 -0.3547
vn -0.6781 0.6365 -0.3674
vn 0.6809 0.6342 -0.3663
vn 0.6846 0.6312 0.3646
vn -0.7036 -0.0000 0.7106
vn 0.7055 -0.6139 -0.3542
vn 0.6827 0.6328 -0.3655
vn 0.7055 -0.6139 0.3542
vn -0.7071 -0.0000 -0.7071
vt 0.020147 0.081476
vt 0.025095 0.118344
vt 0.025384 0.118459
vt 0.020422 0.081509
vt 0.105767 0.219874
vt 0.105493 0.219996
vt 0.105430 0.219811
vt 0.796278 0.057252
vt 0.794548 0.054212
vt 1.241972 0.055963
vt 1.243682 0.058960
vt 1.286129 0.450910
vt 1.285749 0.003653
vt 1.253475 0.022319
vt 1.253809 0.469606
vt 1.236687 1.715897
vt 1.683793 1.717660
vt 1.683814 1.714164
vt 1.236707 1.712397
vt 1.241972 0.055965
vt 1.241889 0.055684
vt 0.794638 0.053952
vt 1.073552 1.590739
vt 1.029032 1.588939
vt 1.046998 1.142051
vt 1.091518 1.143851
vt 0.667116 1.700737
vt 0.622566 1.700187
vt 0.628124 1.252971
vt 0.672680 1.253514
vt 0.075822 0.059720
vt 0.075822 0.063210
vt 0.076152 0.063230
vt 0.076152 0.059700
vt 0.025384 0.067490
vt 0.025156 0.067691
vt 0.020070 0.030587
vt 0.020300 0.030436
vt 0.981336 1.692276
vt 0.981520 1.244981
vt 0.949240 1.226322
vt 0.948999 1.673579
vt 0.194286 0.219981
vt 0.194499 0.219736
vt 0.194612 0.219996
vt 0.112115 0.209194
vt 0.112015 0.208884
vt 0.112195 0.209124
vt 0.059801 0.451335
vt 0.059741 0.451025
vt 0.059531 0.451375
vt 0.156365 0.211454
vt 0.156495 0.211534
vt 0.156535 0.211204
vt 0.103301 0.461145
vt 0.103601 0.460715
vt 0.103301 0.460885
vt 0.774216 1.751505
vt 0.326819 1.749992
vt 0.327109 1.749742
vt 0.143816 0.001078
vt 0.148842 0.038076
vt 0.152305 0.037606
vt 0.147280 0.000608
vt 0.076105 0.126189
vt 0.076152 0.126501
vt 0.072642 0.126921
vt 0.072598 0.126609
vt 0.202803 0.113893
vt 0.202903 0.114229
vt 0.203073 0.114199
vt 0.177689 0.219784
vt 0.177518 0.219722
vt 0.177419 0.219996
vt 0.211427 0.016923
vt 0.211534 0.016710
vt 0.211208 0.016710
vt 0.177363 0.207289
vt 0.177689 0.207304
vt 0.177576 0.207044
vt 1.236707 1.741277
vt 1.683667 1.742772
vt 1.683814 1.743044
vt 0.021126 0.009540
vt 0.024590 0.009070
vt 0.029615 0.046068
vt 0.026152 0.046538
vt 0.190380 0.215740
vt 0.190209 0.215765
vt 0.190209 0.169995
vt 0.190381 0.170003
vt 0.165636 0.059126
vt 0.165711 0.058848
vt 0.169228 0.058952
vt 0.169092 0.059230
vt 0.796578 0.057512
vt 0.478068 0.292677
vt 0.478043 0.292984
vt 0.071815 0.215765
vt 0.071596 0.215552
vt 0.071922 0.215552
vt 0.021152 0.219971
vt 0.021153 0.174234
vt 0.020981 0.174226
vt 0.020981 0.219996
vt 0.059141 0.454885
vt 0.477574 0.296389
vt 0.025384 0.092874
vt 0.020300 0.055820
vt 0.020070 0.055971
vt 0.025156 0.093075
vt 1.243822 0.059230
vt 1.236607 1.698695
vt 1.236627 1.695185
vt 1.683734 1.696958
vt 1.683714 1.700461
vt 1.232624 1.745780
vt 1.232334 1.745520
vt 1.679583 1.747275
vt 1.236517 1.698945
vt 1.683797 1.700737
vt 0.080336 0.054267
vt 0.076829 0.054687
vt 0.076873 0.054999
vt 0.080383 0.054579
vt 1.229797 1.743044
vt 1.235361 1.295821
vt 1.190805 1.295278
vt 1.185247 1.742494
vt 0.774216 1.747274
vt 0.327110 1.745512
vt 0.326820 1.745764
vt 0.071922 0.118419
vt 0.071922 0.114969
vt 0.071572 0.114939
vt 0.071572 0.118459
vt 0.144417 0.101537
vt 0.144399 0.101369
vt 0.148059 0.100803
vt 0.148074 0.100972
vt 0.025384 0.169222
vt 0.021904 0.169228
vt 0.021904 0.124673
vt 0.025384 0.124668
vt 1.236607 1.707156
vt 1.683714 1.708922
vt 1.683734 1.705419
vt 1.236627 1.703646
vt 0.055572 0.008461
vt 0.059230 0.007896
vt 0.059216 0.007728
vt 0.055555 0.008293
vt 0.181920 0.198630
vt 0.181650 0.198842
vt 0.181749 0.198568
vt 1.124320 1.624584
vt 1.142286 1.177696
vt 1.097766 1.175896
vt 1.079800 1.622784
vt 0.113959 0.215429
vt 0.114229 0.215735
vt 0.114059 0.215765
vt 0.194261 0.211244
vt 0.194530 0.211534
vt 0.194612 0.211207
vt 0.186150 0.198842
vt 0.186071 0.198514
vt 0.185801 0.198814
vt 0.075942 0.059480
vt 0.075942 0.063460
vt 0.173124 0.086138
vt 0.173124 0.131121
vt 0.173458 0.131151
vt 0.173458 0.086169
vt 0.143709 0.050383
vt 0.140263 0.050487
vt 0.140336 0.050768
vt 0.143843 0.050660
vt 0.181920 0.122684
vt 0.181920 0.078130
vt 0.178440 0.078135
vt 0.178440 0.122690
vt 0.219996 0.177689
vt 0.219996 0.177537
vt 0.219721 0.177660
vt 0.181646 0.219889
vt 0.181920 0.219996
vt 0.181828 0.219644
vt 0.202783 0.118153
vt 0.202783 0.118459
vt 0.203073 0.118352
vt 0.097306 0.198720
vt 0.096969 0.198659
vt 0.097032 0.198842
vt 1.236687 1.728590
vt 1.236707 1.725090
vt 1.683814 1.726856
vt 1.683793 1.730352
vt 1.236517 1.707406
vt 1.683797 1.709198
vt 0.190107 0.114122
vt 0.190289 0.113877
vt 0.190381 0.114229
vt 1.236708 1.737048
vt 1.683814 1.738813
vt 1.683667 1.738543
vt 1.194548 1.750012
vt 1.641507 1.751505
vt 1.194258 1.749749
vt 0.059301 0.455095
vt 0.477600 0.296671
vt 0.147784 0.206998
vt 0.148074 0.207197
vt 0.147784 0.207304
vt 0.105767 0.215765
vt 0.105492 0.215736
vt 0.105767 0.215613
vt 0.185816 0.077677
vt 0.186150 0.077708
vt 0.186150 0.122690
vt 0.185816 0.122660
vt 0.156401 0.084229
vt 0.156535 0.084506
vt 0.153028 0.084614
vt 0.152955 0.084333
vt 1.683814 1.705143
vt 1.236527 1.703396
vt 0.093714 0.164893
vt 0.097170 0.164997
vt 0.097306 0.164719
vt 0.093789 0.164615
vt 1.679443 1.734582
vt 1.679583 1.734301
vt 1.232188 1.732790
vt 1.236527 1.694935
vt 1.683814 1.696682
vt 1.683673 1.721890
vt 1.236418 1.720099
vt 1.683814 1.721612
vt 0.075146 0.001093
vt 0.075421 0.001126
vt 0.080383 0.038076
vt 0.080094 0.037961
s 0
usemtl wood
f 1/1/1 2/2/1 3/3/1 4/4/1
f 5/5/2 6/6/2 7/7/2
f 8/8/3 9/9/3 10/10/3 11/11/3
f 12/12/4 2/13/4 1/14/4 13/15/4
f 14/16/5 15/17/5 16/18/5 17/19/5
f 18/20/6 19/21/6 20/22/6 9/9/6
f 21/23/7 22/24/7 23/25/7 24/26/7
f 25/27/8 26/28/8 27/29/8 28/30/8
f 29/31/9 30/32/9 31/33/9 32/34/9
f 5/35/10 7/36/10 33/37/10 34/38/10
f 35/39/11 36/40/11 37/41/11 38/42/11
f 27/43/12 39/44/12 40/45/12
f 26/46/13 41/47/13 42/48/13
f 43/49/14 21/50/14 44/51/14
f 25/52/15 9/53/15 20/54/15
f 45/55/16 8/56/16 22/57/16
f 6/58/17 38/59/17 46/60/17
f 4/61/18 3/62/18 47/63/18 48/64/18
f 49/65/19 33/66/19 50/67/19 51/68/19
f 43/49/20 45/55/20 22/57/20 21/50/20
f 52/69/21 53/70/21 54/71/21
f 55/72/22 56/73/22 57/74/22
f 18/75/23 58/76/23 19/77/23
f 59/78/24 60/79/24 61/80/24
f 62/81/25 63/82/25 64/83/25
f 50/84/26 33/85/26 7/86/26 65/87/26
f 23/88/27 66/89/27 67/90/27 24/91/27
f 10/92/28 68/93/28 66/94/28 11/95/28
f 11/11/29 22/96/29 8/8/29
f 44/51/30 24/97/30 69/98/30
f 10/99/31 28/100/31 68/101/31
f 44/51/32 52/98/32 54/97/32
f 44/51/33 54/97/33 43/50/33
f 55/102/34 54/103/34 53/104/34 56/105/34
f 42/106/35 44/51/35 69/98/35 39/107/35
f 37/108/36 36/109/36 48/110/36 47/111/36
f 23/112/37 22/96/37 11/11/37
f 30/113/38 29/114/38 49/115/38 51/116/38
f 62/117/39 12/118/39 63/119/39
f 35/39/40 38/42/40 5/41/40 34/40/40
f 13/120/41 30/113/41 51/116/41 70/121/41
f 71/122/42 72/123/42 4/124/42 48/125/42
f 20/126/43 19/127/43 59/128/43 41/129/43
f 8/8/4 57/11/4 18/20/4 9/9/4
f 15/130/44 14/131/44 38/132/44
f 14/133/20 17/134/20 62/135/20 46/136/20
f 64/137/45 65/138/45 7/139/45 6/140/45
f 42/106/35 61/107/35 52/98/35 44/51/35
f 66/141/26 68/142/26 40/143/26 67/144/26
f 31/145/43 72/146/43 71/147/43 32/148/43
f 16/149/46 15/150/46 47/151/46 3/152/46
f 23/153/47 11/154/47 66/155/47
f 43/156/5 54/157/5 55/158/5 45/159/5
f 69/160/48 24/161/48 67/162/48
f 46/163/49 38/164/49 14/165/49
f 17/166/50 12/167/50 62/168/50
f 29/31/13 32/34/13 35/169/13
f 31/33/15 30/32/15 13/170/15
f 59/171/51 19/172/51 58/173/51 60/174/51
f 52/175/52 61/176/52 60/177/52 53/178/52
f 44/51/53 21/50/53 24/97/53
f 56/179/18 53/180/18 60/181/18 58/182/18
f 16/183/54 3/184/54 2/185/54
f 1/186/55 4/187/55 72/188/55
f 71/189/56 48/190/56 36/191/56
f 37/192/57 47/193/57 15/194/57
f 46/195/58 62/196/58 64/197/58 6/198/58
f 13/199/59 1/200/59 72/146/59 31/145/59
f 70/201/60 51/202/60 50/203/60
f 57/11/61 8/8/61 45/96/61
f 17/204/62 16/205/62 2/206/62
f 17/207/63 2/208/63 12/209/63
f 41/210/64 59/211/64 61/107/64 42/106/64
f 49/212/65 34/213/65 33/214/65
f 64/215/66 63/216/66 65/217/66
f 27/218/19 40/219/19 68/220/19 28/221/19
f 69/222/67 67/223/67 40/224/67 39/225/67
f 55/112/68 57/11/68 45/96/68
f 10/10/69 9/9/69 25/22/69 28/21/69
f 26/210/70 42/106/70 39/107/70 27/211/70
f 71/147/71 36/226/71 35/227/71 32/148/71
f 18/228/72 57/229/72 56/230/72 58/231/72
f 20/54/9 41/47/9 26/46/9 25/52/9
f 37/232/73 15/233/73 38/234/73
f 49/115/74 29/114/74 35/235/74 34/236/74
f 5/237/75 38/238/75 6/239/75
f 12/12/3 13/15/3 70/14/3 63/13/3
f 70/240/76 50/241/76 65/242/76 63/243/76
