# Blender 4.0.2
# www.blender.org
mtllib zadeldak_roof_side_3500.mtl
o zadeldak_roof_side_3500
v -0.000006 0.228833 1.990857
v -0.000006 0.037204 1.990857
v 0.000994 0.036474 1.991857
v 0.000994 0.228413 1.991857
v 0.019994 0.037203 -1.990857
v 0.018994 0.035973 -1.990997
v 0.018994 0.036473 -1.991857
v -0.230580 1.360403 -0.000010
v -0.230580 1.378403 -0.000010
v -0.230946 0.228836 -1.990857
v -0.230946 0.211146 -1.990857
v 0.000370 1.186463 -0.000010
v 0.000370 1.378403 -0.000010
v 0.019370 1.184963 0.000870
v 0.018994 0.035974 1.990997
v 0.000994 0.035974 1.990997
v 0.001370 1.184963 0.000870
v -0.230946 0.228836 1.990857
v -0.229936 0.229906 1.990997
v -0.229580 1.378903 0.000870
v -0.000640 1.358903 -0.000860
v -0.229580 1.358903 -0.000860
v -0.229936 0.209906 -1.990997
v -0.001006 0.209906 -1.990997
v -0.229580 1.378903 -0.000860
v -0.000640 1.378903 -0.000870
v -0.000996 0.229906 -1.990997
v -0.229936 0.229906 -1.990997
v 0.019370 1.378903 -0.000870
v 0.001370 1.378903 -0.000860
v 0.001370 1.378903 0.000870
v 0.019370 1.378903 0.000870
v 0.018994 0.228413 -1.991857
v 0.019994 0.228833 -1.990857
v 0.020370 1.378403 -0.000010
v 0.019994 0.228833 1.990857
v 0.019994 0.037204 1.990857
v 0.020370 1.186463 0.000010
v 0.000004 0.228836 -1.990857
v -0.000996 0.228406 -1.991857
v -0.000640 1.378903 0.000870
v 0.000360 1.378403 -0.000010
v -0.000640 1.358903 0.000870
v 0.000360 1.360403 -0.000010
v -0.229580 1.358903 0.000870
v 0.019370 1.184963 -0.000870
v 0.018994 0.036474 1.991857
v 0.018994 0.228413 1.991857
v 0.018994 0.229913 -1.990997
v 0.000994 0.228413 -1.991857
v 0.000994 0.229913 -1.990997
v -0.000006 0.211146 1.990867
v -0.001006 0.210406 1.991857
v -0.001006 0.209906 1.990997
v -0.229936 0.209906 1.990997
v -0.229936 0.210406 1.991857
v -0.230946 0.211146 1.990857
v -0.229936 0.228406 1.991857
v -0.000996 0.229906 1.990997
v -0.000996 0.228406 1.991857
v 0.000004 0.228836 1.990857
v 0.001370 1.184963 -0.000860
v -0.000006 0.037203 -1.990857
v 0.000994 0.035973 -1.990997
v 0.000994 0.036473 -1.991857
v -0.229936 0.210406 -1.991857
v -0.001006 0.210406 -1.991857
v -0.229936 0.228406 -1.991857
v -0.000006 0.211146 -1.990867
v -0.000006 0.228833 -1.990857
v 0.018994 0.229913 1.990997
v 0.000994 0.229913 1.990997
vn -0.7071 -0.0000 0.7071
vn 0.7499 -0.5718 -0.3326
vn -1.0000 -0.0000 0.0002
vn -1.0000 -0.0000 -0.0002
vn -0.0000 -0.8660 -0.5000
vn -0.6810 0.6342 0.3660
vn -0.0000 -0.8660 0.5000
vn -0.0000 0.8660 -0.5000
vn -0.0000 1.0000 -0.0000
vn 0.7071 -0.0000 -0.7071
vn 1.0000 -0.0000 0.0002
vn 0.5471 0.4164 -0.7262
vn 0.4473 0.8944 -0.0000
vn 0.8321 -0.5546 -0.0000
vn -0.4472 0.8944 -0.0000
vn -0.8321 -0.5546 -0.0000
vn 0.6517 -0.6569 0.3792
vn -0.0000 -0.0000 1.0000
vn -0.0000 0.4974 -0.8675
vn -0.0000 -1.0000 -0.0000
vn 0.7510 -0.5708 0.3320
vn -0.7491 -0.5727 0.3330
vn -0.5433 0.4177 0.7283
vn 0.5471 0.4164 0.7262
vn -0.7054 -0.6138 0.3545
vn -0.0000 -0.0000 -1.0000
vn -0.0000 -0.8644 -0.5027
vn -0.7036 -0.0000 -0.7106
vn -0.6581 -0.6521 0.3765
vn 0.7103 -0.6097 0.3518
vn -0.5432 0.4177 -0.7283
vn 0.7103 -0.6097 -0.3518
vn 0.6518 -0.6569 -0.3791
vn -0.0000 -0.8644 0.5027
vn 1.0000 -0.0003 -0.0000
vn 0.7071 -0.0000 0.7071
vn -0.7049 -0.6142 0.3547
vn -0.0001 0.8660 -0.5000
vn -0.6580 -0.6521 0.3766
vn 1.0000 -0.0000 -0.0002
vn -0.6817 0.6337 -0.3657
vn -0.0000 0.4973 0.8676
vn -0.0000 0.8660 0.5000
vn 0.6560 -0.6537 -0.3773
vn -0.0000 -0.8645 -0.5027
vn -0.0000 -0.8646 0.5025
vn -0.7491 -0.5727 -0.3330
vn 0.7510 -0.5708 -0.3320
vn 0.8321 -0.5547 -0.0000
vn -0.8320 -0.5547 -0.0000
vn -0.0000 0.4974 0.8675
vn 0.7054 -0.0002 0.7088
vn 0.6582 -0.6520 0.3763
vn -0.7500 -0.5719 0.3324
vn -0.5500 0.4154 0.7245
vn 0.5500 0.4154 0.7245
vn 0.7500 -0.5719 0.3324
vn 0.0001 -0.8660 0.5000
vn -0.6846 0.6313 0.3644
vn -0.5503 0.4153 -0.7243
vn -0.6516 -0.6569 -0.3793
vn -0.7054 -0.6138 -0.3545
vn -0.6515 -0.6570 -0.3794
vn 0.6829 0.6326 0.3654
vn 0.5500 0.4154 -0.7245
vn -0.7499 -0.5718 -0.3326
vn 0.7054 -0.0002 -0.7088
vn -0.7049 -0.6142 -0.3547
vn -0.6781 0.6365 -0.3674
vn 0.6809 0.6342 -0.3663
vn 0.6846 0.6312 0.3646
vn -0.7036 -0.0000 0.7106
vn 0.7055 -0.6139 -0.3542
vn 0.6827 0.6328 -0.3655
vn 0.7055 -0.6139 0.3542
vn -0.7071 -0.0000 -0.7071
vt 0.642409 0.477824
vt 0.647357 0.514692
vt 0.647646 0.514807
vt 0.642684 0.477857
vt 1.145498 0.779702
vt 1.145224 0.779824
vt 1.145161 0.779639
vt 0.006600 0.986020
vt 0.004870 0.982980
vt 0.452294 0.984731
vt 0.454004 0.987728
vt 0.033320 0.688074
vt 0.032940 0.240817
vt 0.000666 0.259483
vt 0.001000 0.706770
vt 0.005921 0.977735
vt 0.453027 0.979498
vt 0.453048 0.976002
vt 0.005941 0.974235
vt 0.452294 0.984733
vt 0.452210 0.984452
vt 0.004960 0.982720
vt 0.913740 0.703260
vt 0.869220 0.701460
vt 0.887186 0.254572
vt 0.931706 0.256372
vt 0.848290 0.733050
vt 0.803740 0.732500
vt 0.809298 0.285284
vt 0.853854 0.285827
vt 0.451750 0.952420
vt 0.451750 0.955910
vt 0.452080 0.955930
vt 0.452080 0.952400
vt 0.891585 0.479853
vt 0.891357 0.480054
vt 0.886271 0.442950
vt 0.886501 0.442799
vt 0.990730 0.702400
vt 0.990914 0.255106
vt 0.958634 0.236447
vt 0.958393 0.683704
vt -0.160649 0.680348
vt -0.160436 0.680103
vt -0.160323 0.680363
vt 0.387610 0.235790
vt 0.387510 0.235480
vt 0.387690 0.235720
vt 0.388350 0.232170
vt 0.388290 0.231860
vt 0.388080 0.232210
vt 0.431860 0.238050
vt 0.431990 0.238130
vt 0.432030 0.237800
vt 0.431850 0.241980
vt 0.432150 0.241550
vt 0.431850 0.241720
vt 0.453094 0.983477
vt 0.005697 0.981964
vt 0.005987 0.981714
vt 0.763969 0.471046
vt 0.768995 0.508044
vt 0.772458 0.507574
vt 0.767433 0.470576
vt 0.757434 0.397693
vt 0.757481 0.398005
vt 0.753971 0.398425
vt 0.753927 0.398113
vt 0.010955 0.619885
vt 0.011055 0.620221
vt 0.011225 0.620191
vt 0.011357 0.935081
vt 0.011186 0.935019
vt 0.011087 0.935293
vt -0.160584 0.868730
vt -0.160477 0.868517
vt -0.160803 0.868517
vt 0.005880 0.969888
vt 0.452840 0.971383
vt 0.452987 0.971655
vt 0.094544 0.800950
vt 0.094373 0.800975
vt 0.094373 0.755205
vt 0.094545 0.755213
vt -0.098646 0.919063
vt -0.098571 0.918785
vt -0.095054 0.918889
vt -0.095190 0.919167
vt 0.006900 0.986280
vt 0.806617 0.073512
vt 0.806592 0.073819
vt 0.806123 0.077224
vt 0.454144 0.987998
vt 0.013690 0.969020
vt 0.013710 0.965510
vt 0.460817 0.967283
vt 0.460797 0.970786
vt 0.005927 0.970127
vt 0.005637 0.969866
vt 0.452886 0.971621
vt 0.013600 0.969270
vt 0.460880 0.971062
vt 0.453040 0.983482
vt 0.005934 0.981720
vt 0.005644 0.981971
vt 0.452040 0.942840
vt 0.452040 0.939390
vt 0.451690 0.939360
vt 0.451690 0.942880
vt 1.002868 0.801599
vt 1.002850 0.801431
vt 1.006510 0.800865
vt 1.006525 0.801034
vt -0.098115 0.800681
vt -0.101595 0.800687
vt -0.101595 0.756132
vt -0.098115 0.756127
vt 1.006526 0.801034
vt 1.006512 0.800866
vt 1.002851 0.801431
vt 0.453278 0.948177
vt 0.453547 0.948467
vt 0.453629 0.948140
vt 0.453714 0.934015
vt 0.453635 0.933687
vt 0.453365 0.933987
vt 0.451870 0.952180
vt 0.451870 0.956160
vt -0.174371 0.752855
vt -0.174371 0.797838
vt -0.174037 0.797868
vt -0.174037 0.752886
vt -0.095092 0.633972
vt -0.098538 0.634076
vt -0.098465 0.634357
vt -0.094958 0.634249
vt 0.864387 0.823014
vt 0.864387 0.822862
vt 0.864112 0.822985
vt 0.682840 0.418718
vt 0.683114 0.418825
vt 0.683022 0.418473
vt 0.832080 0.401330
vt 0.832080 0.401636
vt 0.832370 0.401529
vt 1.145498 0.779701
vt 1.145161 0.779640
vt 1.145224 0.779823
vt 0.005921 0.977736
vt 0.005941 0.974236
vt 0.452986 0.971653
vt 0.452839 0.971383
vt 0.006007 0.970138
vt 0.452966 0.971631
vt 0.005717 0.969875
vt 0.387850 0.235930
vt 0.806149 0.077506
vt 0.460897 0.967007
vt 0.013610 0.965260
vt 0.452938 0.984274
vt 0.453078 0.983993
vt 0.005683 0.982481
vt 0.452938 0.984272
vt 0.453079 0.983994
s 0
f 1/1/1 2/2/1 3/3/1 4/4/1
f 5/5/2 6/6/2 7/7/2
f 8/8/3 9/9/3 10/10/3 11/11/3
f 12/12/4 2/13/4 1/14/4 13/15/4
f 14/16/5 15/17/5 16/18/5 17/19/5
f 18/20/6 19/21/6 20/22/6 9/9/6
f 21/23/7 22/24/7 23/25/7 24/26/7
f 25/27/8 26/28/8 27/29/8 28/30/8
f 29/31/9 30/32/9 31/33/9 32/34/9
f 5/35/10 7/36/10 33/37/10 34/38/10
f 35/39/11 36/40/11 37/41/11 38/42/11
f 27/43/12 39/44/12 40/45/12
f 26/46/13 41/47/13 42/48/13
f 43/49/14 21/50/14 44/51/14
f 25/52/15 9/53/15 20/54/15
f 45/55/16 8/56/16 22/57/16
f 6/58/17 38/59/17 46/60/17
f 4/61/18 3/62/18 47/63/18 48/64/18
f 49/65/19 33/66/19 50/67/19 51/68/19
f 43/49/20 45/55/20 22/57/20 21/50/20
f 52/69/21 53/70/21 54/71/21
f 55/72/22 56/73/22 57/74/22
f 18/75/23 58/76/23 19/77/23
f 59/43/24 60/45/24 61/44/24
f 62/78/25 63/79/25 64/80/25
f 50/61/26 33/64/26 7/63/26 65/62/26
f 23/81/27 66/82/27 67/83/27 24/84/27
f 10/85/28 68/86/28 66/87/28 11/88/28
f 11/11/29 22/89/29 8/8/29
f 44/51/30 24/90/30 69/91/30
f 10/75/31 28/77/31 68/76/31
f 44/51/32 52/91/32 54/90/32
f 44/51/33 54/90/33 43/50/33
f 55/81/34 54/84/34 53/83/34 56/82/34
f 42/48/35 44/51/35 69/91/35 39/92/35
f 37/35/36 36/38/36 48/37/36 47/36/36
f 23/93/37 22/89/37 11/11/37
f 30/94/38 29/95/38 49/96/38 51/97/38
f 62/98/39 12/99/39 63/100/39
f 35/39/40 38/42/40 5/41/40 34/40/40
f 13/101/41 30/94/41 51/97/41 70/102/41
f 71/65/42 72/68/42 4/67/42 48/66/42
f 20/27/43 19/30/43 59/29/43 41/28/43
f 8/8/4 57/11/4 18/20/4 9/9/4
f 15/103/44 14/104/44 38/105/44
f 14/106/20 17/107/20 62/108/20 46/109/20
f 64/110/45 65/111/45 7/112/45 6/113/45
f 42/48/35 61/92/35 52/91/35 44/51/35
f 66/114/26 68/115/26 40/116/26 67/117/26
f 31/94/43 72/97/43 71/96/43 32/95/43
f 16/110/46 15/118/46 47/119/46 3/120/46
f 23/72/47 11/74/47 66/73/47
f 43/23/5 54/26/5 55/25/5 45/24/5
f 69/69/48 24/71/48 67/70/48
f 46/121/49 38/122/49 14/123/49
f 17/124/50 12/125/50 62/126/50
f 29/31/13 32/34/13 35/127/13
f 31/33/15 30/32/15 13/128/15
f 59/129/51 19/130/51 58/131/51 60/132/51
f 52/133/52 61/134/52 60/135/52 53/136/52
f 44/51/53 21/50/53 24/90/53
f 56/114/18 53/117/18 60/116/18 58/115/18
f 16/137/54 3/138/54 2/139/54
f 1/140/55 4/141/55 72/142/55
f 71/143/56 48/144/56 36/145/56
f 37/146/57 47/147/57 15/148/57
f 46/149/58 62/150/58 64/18/58 6/17/58
f 13/101/59 1/102/59 72/97/59 31/94/59
f 70/140/60 51/142/60 50/141/60
f 57/11/61 8/8/61 45/89/61
f 17/78/62 16/151/62 2/152/62
f 17/153/63 2/154/63 12/155/63
f 41/156/64 59/157/64 61/92/64 42/48/64
f 49/143/65 34/145/65 33/144/65
f 64/137/66 63/139/66 65/138/66
f 27/129/19 40/132/19 68/131/19 28/130/19
f 69/133/67 67/136/67 40/135/67 39/134/67
f 55/93/68 57/11/68 45/89/68
f 10/10/69 9/9/69 25/22/69 28/21/69
f 26/156/70 42/48/70 39/92/70 27/157/70
f 71/96/71 36/158/71 35/159/71 32/95/71
f 18/85/72 57/88/72 56/87/72 58/86/72
f 20/54/9 41/47/9 26/46/9 25/52/9
f 37/160/73 15/161/73 38/162/73
f 49/96/74 29/95/74 35/159/74 34/158/74
f 5/163/75 38/162/75 6/164/75
f 12/12/3 13/15/3 70/14/3 63/13/3
f 70/1/76 50/4/76 65/3/76 63/2/76
