# Blender 4.0.2
# www.blender.org
mtllib zadeldak_roof_side_4000.mtl
o zadeldak_roof_side_4000
v 0.133730 0.032548 2.241704
v 0.133730 0.261488 2.241704
v 0.115730 0.261488 2.241704
v 0.115730 0.032548 2.241704
v 0.114730 0.261908 2.240704
v 0.115730 0.262987 2.240844
v 0.133730 0.032547 -2.241704
v 0.133730 0.032048 -2.240844
v 0.115730 0.032048 -2.240844
v 0.115730 0.032547 -2.241704
v 0.115730 0.261487 -2.241704
v 0.115730 0.262986 -2.240844
v 0.133730 0.262986 -2.240844
v 0.133730 0.261487 -2.241704
v 0.133730 1.325292 -0.000850
v 0.134730 1.326792 -0.000020
v 0.133730 1.325292 0.000850
v 0.115730 1.325292 0.000850
v 0.114730 1.326792 -0.000020
v 0.115730 1.325292 -0.000850
v 0.133730 1.556232 -0.000850
v 0.133730 1.556232 0.000850
v 0.134730 1.555732 -0.000020
v 0.115730 1.556232 0.000850
v 0.115730 1.556232 -0.000850
v 0.114730 1.555732 -0.000020
v 0.134730 0.261908 -2.240704
v 0.134730 0.033277 -2.240704
v 0.133730 0.262987 2.240844
v 0.115730 0.032048 2.240844
v 0.114730 0.033277 2.240704
v 0.114730 0.033277 -2.240704
v 0.114730 0.261908 -2.240704
v 0.134730 0.261908 2.240704
v 0.133730 0.032048 2.240844
v 0.134730 0.033277 2.240704
v -0.115190 0.243488 2.241704
v -0.115190 0.261488 2.241704
v -0.116190 0.261908 2.240704
v -0.116190 0.244218 2.240704
v 0.113750 0.261488 2.241704
v 0.113750 0.243488 2.241704
v 0.114750 0.244218 2.240704
v 0.114750 0.261908 2.240704
v 0.113750 0.262987 2.240844
v 0.113730 1.556232 0.000850
v -0.115210 1.556232 0.000850
v -0.115196 0.262987 2.240844
v 0.113750 0.261487 -2.241704
v 0.113750 0.243487 -2.241704
v -0.115190 0.243487 -2.241704
v -0.115190 0.261487 -2.241704
v 0.113730 1.556232 -0.000850
v 0.114730 1.555732 -0.000020
v 0.113730 1.536232 0.000880
v 0.113730 1.536232 -0.000880
v 0.114730 1.537731 0.000020
v -0.115210 1.556232 -0.000850
v -0.116210 1.555732 -0.000020
v -0.115210 1.536232 0.000880
v -0.116210 1.537731 -0.000020
v -0.115210 1.536232 -0.000850
v 0.113744 0.242993 2.240844
v 0.113750 0.262986 -2.240844
v -0.115196 0.262986 -2.240844
v -0.115196 0.242988 2.240844
v -0.116190 0.261908 -2.240704
v -0.116190 0.244217 -2.240704
v 0.114750 0.244217 -2.240704
v 0.114750 0.261908 -2.240704
v 0.113744 0.242992 -2.240844
v -0.115196 0.242987 -2.240844
vn -0.0000 -0.0000 1.0000
vn -0.5498 0.4157 0.7245
vn -0.0000 -0.8646 -0.5025
vn -0.0000 0.4976 -0.8674
vn 0.8321 -0.5546 -0.0000
vn -0.8321 -0.5546 -0.0000
vn 0.4470 0.8945 -0.0000
vn -0.4470 0.8945 -0.0000
vn 0.7071 -0.0000 -0.7071
vn -0.0000 0.4976 0.8674
vn -0.7051 -0.6141 -0.3545
vn -0.0000 1.0000 -0.0000
vn -0.0000 -1.0000 -0.0000
vn -0.0000 -0.0000 -1.0000
vn -0.7494 -0.5724 -0.3327
vn -0.5501 0.4158 -0.7242
vn 0.5502 0.4158 -0.7242
vn 0.7494 -0.5724 -0.3327
vn 0.6834 0.6322 0.3650
vn -0.0000 -0.8645 0.5026
vn 0.6793 0.6355 -0.3669
vn -0.7051 -0.6141 0.3545
vn -0.6624 -0.6488 0.3746
vn -0.7071 -0.0000 -0.7071
vn 0.7497 -0.5722 0.3326
vn -0.7071 -0.0000 0.7071
vn 0.7071 -0.0000 0.7071
vn 0.6539 -0.6552 -0.3783
vn 1.0000 -0.0000 -0.0000
vn 0.7051 -0.6141 0.3545
vn -0.6793 0.6355 -0.3669
vn -0.0000 0.8660 0.5000
vn 0.8318 -0.5550 -0.0000
vn -0.8319 -0.5550 -0.0000
vn 0.7017 -0.6170 -0.3562
vn -0.0000 0.8660 -0.5000
vn -0.6834 0.6322 0.3650
vn -0.0000 -0.8660 -0.5000
vn -0.7497 -0.5722 0.3326
vn -0.5510 0.4136 0.7248
vn 0.5502 0.4158 0.7242
vn -0.7075 -0.6120 -0.3533
vn -0.0000 0.4977 0.8673
vn 0.6558 -0.6538 -0.3774
vn -0.0000 -0.8656 0.5007
vn -1.0000 -0.0000 -0.0000
vn 0.5502 0.4157 0.7242
vn -0.6804 0.6346 -0.3664
vn -0.0000 -0.8660 0.5000
vn 0.7051 -0.6141 -0.3545
vn -0.0000 0.4977 -0.8673
vn -0.6623 -0.6488 0.3746
vn 0.7483 -0.5772 -0.3269
vn -0.7508 -0.5689 -0.3358
vn -0.5512 0.4138 -0.7245
vn 0.5503 0.4156 -0.7242
vn 0.6624 -0.6488 0.3746
vn -0.6468 -0.6605 -0.3813
vn -0.6845 0.6313 0.3645
vn 0.7018 -0.6170 0.3562
vn 0.6470 -0.6603 0.3812
vn -0.7512 -0.5684 0.3355
vn 0.7483 -0.5772 0.3269
vn -0.0000 -0.8656 -0.5007
vn -0.7075 -0.6120 0.3533
vn -0.6539 -0.6553 -0.3783
vt 0.130581 0.258794
vt 0.069931 0.265994
vt 0.070501 0.270764
vt 0.131151 0.263564
vt 0.219539 0.181920
vt 0.219596 0.181919
vt 0.219996 0.181859
vt 0.147435 0.185536
vt 0.147659 0.185521
vt 0.148074 0.190366
vt 0.147850 0.190381
vt 0.096535 0.185557
vt 0.096932 0.185527
vt 0.097306 0.190351
vt 0.096909 0.190381
vt 0.139583 0.194152
vt 0.139123 0.194412
vt 0.139613 0.194612
vt 0.071792 0.194612
vt 0.071922 0.194092
vt 0.071432 0.194312
vt 0.143493 0.203073
vt 0.143843 0.202753
vt 0.143463 0.202693
vt 0.173168 0.050298
vt 0.173148 0.050768
vt 0.173458 0.050548
vt 0.201952 0.236919
vt 0.201873 0.236738
vt 0.262141 0.225015
vt 0.262303 0.225181
vt 0.151534 0.181326
vt 0.151908 0.186150
vt 0.152305 0.186120
vt 0.151931 0.181296
vt 0.839396 1.606842
vt 0.861188 0.920683
vt 0.875753 0.921333
vt 0.075923 0.097306
vt 0.080383 0.095546
vt 0.080213 0.095116
vt 0.075753 0.096876
vt 0.143444 0.095536
vt 0.147894 0.097306
vt 0.148074 0.096886
vt 0.143614 0.095106
vt 0.232118 0.254563
vt 0.232688 0.259333
vt 0.172038 0.266533
vt 0.171468 0.261763
vt 0.190381 0.046210
vt 0.190014 0.046538
vt 0.190141 0.046149
vt 0.122233 0.215765
vt 0.122690 0.215704
vt 0.122290 0.215764
vt 0.067691 0.000000
vt 0.067249 0.000000
vt 0.067298 0.000000
vt 0.071510 0.211181
vt 0.071922 0.211444
vt 0.071712 0.211534
vt 1.487629 0.689012
vt 1.508768 0.002839
vt 1.523048 0.003179
vt 1.502259 0.689602
vt 0.113590 0.189767
vt 0.114005 0.194612
vt 0.114229 0.194597
vt 0.113814 0.189752
vt 1.496090 1.509766
vt 1.510720 1.510356
vt 1.531509 0.823933
vt 1.517229 0.823593
vt 0.598246 1.627995
vt 0.634603 0.942486
vt 0.620038 0.941836
vt 0.611966 1.628815
vt 0.270764 0.080189
vt 0.270633 0.080383
vt 0.209234 0.078400
vt 0.209281 0.078203
vt 0.122278 0.198489
vt 0.122480 0.198842
vt 0.122690 0.198752
vt 0.156535 0.075613
vt 0.149936 0.073930
vt 0.149558 0.074498
vt 0.156043 0.076152
vt 0.045181 0.009192
vt 0.050709 0.012692
vt 0.050768 0.012009
vt 0.045335 0.008569
vt 0.851224 0.920368
vt 0.830106 1.606542
vt 0.816366 1.606512
vt 1.524005 0.028862
vt 1.503481 0.715257
vt 1.540651 0.746717
vt 1.561124 0.060284
vt 0.610095 0.941522
vt 0.595461 0.941262
vt 0.575216 1.627665
vt 1.507662 0.823295
vt 1.493390 0.822740
vt 1.471230 1.509126
vt 1.485870 1.509446
vt 0.321798 1.900626
vt 0.325763 1.212183
vt 0.292753 1.210443
vt 0.289171 1.899879
vt 1.280191 0.457563
vt 1.286129 0.460127
vt 1.259523 0.516144
vt 1.253580 0.513589
vt 0.190261 0.150224
vt 0.190271 0.150234
vt 0.190381 0.149984
vt 0.186040 0.039956
vt 0.186020 0.039946
vt 0.186150 0.039706
vt 0.163761 0.207054
vt 0.163651 0.207304
vt 0.163781 0.207064
vt 0.159410 0.097066
vt 0.159290 0.097306
vt 0.159400 0.097056
vt 0.310305 1.900230
vt 0.314973 1.204963
vt 1.709198 0.003095
vt 1.704589 0.701854
vt 1.693514 0.706525
vt 1.477409 0.688692
vt 1.499201 0.002541
vt 1.180628 1.900626
vt 1.148001 1.899879
vt 1.151583 1.210443
vt 1.184593 1.212183
vt 1.462769 0.688372
vt 1.484929 0.001986
vt 1.869903 1.878377
vt 1.874195 1.185231
vt 1.841475 1.176721
vt 1.836502 1.871013
vt 0.105767 0.211206
vt 0.105527 0.211145
vt 0.105400 0.211534
vt 0.029100 0.012692
vt 0.029615 0.012204
vt 0.028715 0.011928
vt 0.185380 0.130663
vt 0.186112 0.131151
vt 0.186150 0.130510
vt 1.859797 1.878426
vt 1.034741 1.125363
vt 1.061903 1.069517
vt 1.061088 1.069131
vt 1.033925 1.124974
vt 1.852325 1.165721
vt 1.090940 0.125953
vt 1.061700 0.181638
vt 1.062281 0.181920
vt 1.091518 0.126231
vt 1.454428 0.796480
vt 1.431952 1.482856
vt 1.471022 1.453776
vt 1.493433 0.767440
vt 0.021153 0.228457
vt 0.020760 0.228457
vt 0.020711 0.228457
vt 1.944679 1.952271
vt 1.955495 1.963040
vt 1.958809 1.260051
vt 1.947839 1.254931
vt 1.162423 1.206423
vt 1.159445 1.903810
vt 1.174424 0.064109
vt 1.147813 0.120135
vt 1.153756 0.122690
vt 1.180362 0.066673
vt 0.588956 1.627695
vt 1.922132 1.772659
vt 1.933239 1.768266
vt 1.937656 1.072981
vt 1.926926 1.073821
vt 0.836611 0.920109
vt 0.100415 0.207304
vt 0.160766 0.195566
vt 0.160604 0.195400
vt 0.100336 0.207123
vt 1.093971 0.190381
vt 1.093155 0.189992
vt 1.120317 0.134149
vt 1.121132 0.134535
vt 1.939589 0.706525
vt 1.954578 0.017459
vt 1.943028 0.003689
vt 0.160255 0.062545
vt 0.160766 0.063460
vt 0.160076 0.063247
vt 0.139613 0.054785
vt 0.138751 0.054999
vt 0.139122 0.054388
vt 0.016408 0.008461
vt 0.016023 0.007697
vt 0.016923 0.007973
vt 0.172688 0.164509
vt 0.173458 0.164356
vt 0.173420 0.164997
vt 0.160766 0.003692
vt 0.160274 0.004231
vt 0.153789 0.002577
vt 0.154167 0.002009
vt 1.939589 1.396127
vt 1.943028 0.693291
vt 1.954578 0.707061
vt 1.882595 0.714937
vt 1.849194 0.707573
vt 1.854167 0.013281
vt 1.886887 0.021791
vt 0.303593 1.206423
vt 0.300615 1.903810
vt 1.726121 0.003095
vt 1.710437 0.706525
vt 1.721512 0.701854
vt 1.865017 0.002281
vt 0.152305 0.042093
vt 0.151814 0.041696
vt 0.151443 0.042307
vt 0.053643 0.000731
vt 0.053797 0.000108
vt 0.059230 0.003548
vt 0.059171 0.004231
vt 0.139102 0.028700
vt 0.138923 0.029402
vt 0.139613 0.029615
vt 1.095170 0.125953
vt 1.095748 0.126231
vt 1.066511 0.181920
vt 1.065930 0.181638
vt 1.169135 1.900230
vt 1.173803 1.204963
vt 1.872489 0.714986
vt 0.274995 0.198648
vt 0.213512 0.196662
vt 0.213465 0.196859
vt 0.274864 0.198842
vt 0.853116 1.607662
s 0
usemtl wood
f 1/1/1 2/2/1 3/3/1 4/4/1
f 5/5/2 3/6/2 6/7/2
f 7/8/3 8/9/3 9/10/3 10/11/3
f 11/12/4 12/13/4 13/14/4 14/15/4
f 15/16/5 16/17/5 17/18/5
f 18/19/6 19/20/6 20/21/6
f 21/22/7 22/23/7 23/24/7
f 24/25/8 25/26/8 26/27/8
f 14/28/9 27/29/9 28/30/9 7/31/9
f 3/32/10 2/33/10 29/34/10 6/35/10
f 18/36/11 30/37/11 31/38/11
f 21/39/12 25/40/12 24/41/12 22/42/12
f 17/43/13 18/44/13 20/45/13 15/46/13
f 7/47/14 10/48/14 11/49/14 14/50/14
f 9/51/15 32/52/15 10/53/15
f 33/54/16 12/55/16 11/56/16
f 13/57/17 27/58/17 14/59/17
f 28/60/18 8/61/18 7/62/18
f 22/63/19 29/64/19 34/65/19 23/66/19
f 1/67/20 4/68/20 30/69/20 35/70/20
f 21/71/21 23/72/21 27/73/21 13/74/21
f 20/75/22 32/76/22 9/77/22
f 20/75/23 19/78/23 32/76/23
f 10/79/24 32/80/24 33/81/24 11/82/24
f 36/83/25 1/84/25 35/85/25
f 37/86/26 38/87/26 39/88/26 40/89/26
f 41/90/27 42/91/27 43/92/27 44/93/27
f 35/94/28 17/95/28 16/96/28
f 36/97/29 16/98/29 23/99/29 34/100/29
f 8/101/30 28/102/30 16/103/30
f 12/104/31 33/105/31 26/106/31 25/107/31
f 45/108/32 46/109/32 47/110/32 48/111/32
f 49/112/14 50/113/14 51/114/14 52/115/14
f 53/116/7 46/117/7 54/118/7
f 55/119/33 56/120/33 57/121/33
f 58/122/8 59/123/8 47/124/8
f 60/125/34 61/126/34 62/127/34
f 44/128/19 54/129/19 46/109/19 45/108/19
f 57/130/35 43/131/35 63/132/35
f 29/64/32 22/63/32 24/133/32 6/134/32
f 64/135/36 65/136/36 58/137/36 53/138/36
f 6/134/37 24/133/37 26/139/37 5/140/37
f 66/141/38 60/142/38 55/143/38 63/144/38
f 30/145/39 4/146/39 31/147/39
f 39/148/40 38/149/40 48/150/40
f 13/74/36 12/104/36 25/107/36 21/71/36
f 45/151/41 41/152/41 44/153/41
f 40/154/42 60/142/42 66/141/42
f 47/124/12 46/117/12 53/116/12 58/122/12
f 38/155/43 41/156/43 45/157/43 48/158/43
f 57/159/44 63/144/44 55/143/44
f 42/160/45 37/161/45 66/162/45 63/163/45
f 5/164/46 26/165/46 19/166/46 31/167/46
f 30/37/38 18/36/38 17/95/38 35/94/38
f 29/168/47 2/169/47 34/170/47
f 67/171/46 68/172/46 61/173/46 59/174/46
f 59/175/48 58/137/48 65/136/48 67/176/48
f 33/164/46 32/167/46 19/166/46 26/165/46
f 41/177/1 38/178/1 37/179/1 42/180/1
f 9/77/49 8/101/49 15/181/49 20/75/49
f 55/119/13 60/125/13 62/127/13 56/120/13
f 69/182/29 70/183/29 54/184/29 57/185/29
f 35/94/50 16/96/50 36/186/50
f 2/187/27 1/188/27 36/189/27 34/190/27
f 52/191/51 65/192/51 64/193/51 49/194/51
f 68/195/52 62/196/52 61/197/52
f 69/198/53 71/199/53 50/200/53
f 72/201/54 68/202/54 51/203/54
f 67/204/55 65/205/55 52/206/55
f 64/207/56 70/208/56 49/209/56
f 51/210/24 68/211/24 67/212/24 52/213/24
f 8/101/57 16/103/57 15/181/57
f 40/214/58 61/215/58 60/216/58
f 72/217/49 71/218/49 56/219/49 62/220/49
f 43/182/29 57/185/29 54/184/29 44/183/29
f 59/221/59 39/222/59 48/111/59 47/110/59
f 57/223/60 71/224/60 69/225/60
f 57/226/61 56/219/61 71/218/61
f 66/227/62 37/228/62 40/229/62
f 28/97/29 27/100/29 23/99/29 16/98/29
f 49/230/9 70/231/9 69/232/9 50/233/9
f 43/234/63 42/235/63 63/236/63
f 50/237/64 71/238/64 72/239/64 51/240/64
f 70/241/21 64/135/21 53/138/21 54/242/21
f 39/171/46 59/174/46 61/173/46 40/172/46
f 68/243/65 72/217/65 62/220/65
f 4/244/26 3/245/26 5/246/26 31/247/26
f 18/36/66 31/38/66 19/248/66
