# Blender 4.0.2
# www.blender.org
mtllib zadeldak_roof_side_2000.mtl
o zadeldak_roof_side_2000
v -0.229570 0.990804 0.000870
v -0.229924 0.274326 1.241865
v -0.000984 0.274326 1.241865
v -0.000630 0.990804 0.000870
v 0.001370 0.990814 0.000870
v 0.001003 0.274331 1.241865
v 0.019010 0.274330 1.241865
v 0.019370 0.990814 0.000870
v 0.000370 0.990304 -0.000000
v -0.000630 0.970804 0.000870
v 0.000370 0.972305 -0.000000
v -0.230570 0.990304 -0.000000
v -0.229570 0.970804 0.000870
v -0.230570 0.972305 -0.000000
v 0.000016 0.255556 1.241735
v -0.000984 0.254816 1.242725
v -0.000984 0.254327 1.241865
v -0.229924 0.254326 1.241865
v -0.229924 0.254816 1.242725
v -0.230924 0.255556 1.241725
v -0.230924 0.273246 1.241725
v -0.229924 0.272826 1.242725
v -0.000984 0.272826 1.242725
v 0.000016 0.273246 1.241725
v 0.020370 0.761374 -0.000000
v 0.019370 0.759875 0.000870
v 0.001370 0.759875 0.000870
v 0.000370 0.761374 -0.000000
v 0.020370 0.990314 -0.000000
v 0.000370 0.990314 -0.000000
v 0.001003 0.043391 1.241864
v 0.001003 0.043891 1.242724
v 0.000003 0.044487 1.241865
v 0.000013 0.273251 1.241724
v 0.001003 0.272831 1.242725
v 0.019013 0.272831 1.242725
v 0.020003 0.273251 1.241724
v 0.020003 0.044621 1.241724
v 0.019013 0.043891 1.242724
v 0.019010 0.043391 1.241865
v -0.229570 0.970804 -0.000000
v -0.000630 0.970804 -0.000000
v 0.019370 0.990814 -0.000000
v 0.001370 0.990814 -0.000000
v -0.000630 0.990804 -0.000000
v -0.229570 0.990804 -0.000000
v 0.019370 0.759875 -0.000000
v 0.001370 0.759875 -0.000000
v -0.229570 0.990804 -0.000870
v -0.229924 0.274326 -1.241865
v -0.000984 0.274326 -1.241865
v -0.000630 0.990804 -0.000870
v 0.001370 0.990814 -0.000870
v 0.001003 0.274331 -1.241865
v 0.019010 0.274330 -1.241865
v 0.019370 0.990814 -0.000870
v -0.000630 0.970804 -0.000870
v -0.229570 0.970804 -0.000870
v 0.000016 0.255556 -1.241735
v -0.000984 0.254816 -1.242725
v -0.000984 0.254327 -1.241865
v -0.229924 0.254326 -1.241865
v -0.229924 0.254816 -1.242725
v -0.230924 0.255556 -1.241725
v -0.230924 0.273246 -1.241725
v -0.229924 0.272826 -1.242725
v -0.000984 0.272826 -1.242725
v 0.000016 0.273246 -1.241725
v 0.019370 0.759875 -0.000870
v 0.001370 0.759875 -0.000870
v 0.001003 0.043391 -1.241864
v 0.001003 0.043891 -1.242724
v 0.000003 0.044487 -1.241865
v 0.000013 0.273251 -1.241724
v 0.001003 0.272831 -1.242725
v 0.019013 0.272831 -1.242725
v 0.020003 0.273251 -1.241724
v 0.020003 0.044621 -1.241724
v 0.019013 0.043891 -1.242724
v 0.019010 0.043391 -1.241865
vn -0.0000 0.8660 0.5000
vn -0.0000 1.0000 -0.0000
vn 0.4472 0.8945 -0.0000
vn -0.4472 0.8945 -0.0000
vn 0.7497 -0.5752 0.3272
vn -0.7513 -0.5733 0.3269
vn -0.5501 0.4153 0.7246
vn 0.5501 0.4153 0.7246
vn -0.0000 0.4974 0.8675
vn 0.7069 -0.6127 -0.3534
vn 0.6541 -0.6552 -0.3781
vn -1.0000 -0.0000 -0.0003
vn 0.8319 -0.5550 -0.0000
vn -0.8319 -0.5550 -0.0000
vn -0.4472 0.8944 -0.0000
vn -0.6876 -0.6277 0.3650
vn -0.5544 0.4138 0.7221
vn 0.5537 0.4152 0.7218
vn 0.7528 -0.5701 0.3292
vn -0.6886 -0.6279 -0.3627
vn -0.6536 -0.6554 -0.3786
vn -0.0000 -0.0000 1.0000
vn -0.0000 -0.8643 0.5029
vn -0.0000 -0.8660 -0.5000
vn 1.0000 -0.0000 0.0003
vn -0.6828 0.0002 0.7306
vn -0.0000 0.4975 0.8674
vn 0.7053 0.0002 0.7089
vn 0.6836 0.6320 0.3651
vn -0.0000 -0.8690 0.4948
vn -0.6855 0.6306 0.3639
vn 0.7108 -0.0000 0.7034
vn -0.0000 -1.0000 -0.0000
vn -0.7071 -0.0000 0.7071
vn -0.7053 -0.6138 -0.3546
vn 0.6848 0.6310 0.3645
vn -0.6539 -0.6552 -0.3784
vn -0.6836 0.6322 0.3648
vn 0.7078 -0.6119 -0.3530
vn 0.6539 -0.6553 -0.3781
vn -0.0000 0.8660 -0.5000
vn 0.7496 -0.5753 -0.3272
vn -0.7512 -0.5734 -0.3269
vn -0.5500 0.4153 -0.7245
vn 0.5500 0.4154 -0.7245
vn -0.0000 0.4974 -0.8675
vn 0.7069 -0.6127 0.3534
vn 0.6541 -0.6552 0.3781
vn -1.0000 -0.0000 0.0003
vn 0.8318 -0.5550 -0.0000
vn -0.4471 0.8945 -0.0000
vn -0.6876 -0.6277 -0.3650
vn -0.5544 0.4138 -0.7221
vn 0.5537 0.4151 -0.7219
vn 0.7528 -0.5700 -0.3292
vn -0.6886 -0.6279 0.3627
vn -0.6535 -0.6554 0.3786
vn -0.0000 -0.0000 -1.0000
vn -0.0000 -0.8644 -0.5028
vn -0.0000 -0.8660 0.5000
vn 1.0000 -0.0000 -0.0003
vn -0.6828 0.0002 -0.7306
vn -0.0000 0.4975 -0.8675
vn 0.7053 0.0002 -0.7089
vn 0.6836 0.6320 -0.3651
vn -0.0000 -0.8691 -0.4947
vn -0.6855 0.6306 -0.3639
vn 0.7108 -0.0000 -0.7034
vn -0.7071 -0.0000 -0.7071
vn -0.7053 -0.6138 0.3546
vn 0.6848 0.6310 -0.3646
vn -0.6539 -0.6552 0.3784
vn -0.6836 0.6322 -0.3648
vn 0.7078 -0.6119 0.3530
vn 0.6539 -0.6553 0.3781
vt 0.172560 0.995030
vt 0.182742 0.556242
vt 0.112638 0.554637
vt 0.102460 0.993430
vt 0.073510 0.965790
vt 0.505767 0.980170
vt 0.505873 0.974747
vt 0.073590 0.960380
vt 0.073325 0.960355
vt 0.073265 0.965800
vt 0.958315 0.000840
vt 0.958580 0.000840
vt 0.958310 0.000500
vt 0.049525 0.993510
vt 0.049530 0.993860
vt 0.049790 0.993510
vt -0.030836 -0.003938
vt -0.030335 -0.003893
vt -0.030402 -0.004183
vt -0.024708 0.348729
vt -0.024629 0.348434
vt -0.025087 0.348469
vt -0.086023 0.014139
vt -0.085597 0.014003
vt -0.086024 0.013675
vt -0.081696 0.329929
vt -0.081270 0.329619
vt -0.081697 0.329484
vt 0.619160 0.478366
vt 0.670306 0.430307
vt 0.669944 0.429913
vt 0.618809 0.477982
vt 0.052230 0.040780
vt 0.490940 0.060338
vt 0.491189 0.059914
vt 0.052710 0.040400
vt 0.007870 0.040210
vt 0.446714 0.023988
vt 0.443828 0.019393
vt 0.004930 0.035540
vt 0.905960 0.001405
vt 0.906480 0.002550
vt 0.905880 0.000500
vt 0.905880 0.003990
vt 0.906480 0.001940
vt 0.905960 0.003090
vt 0.073430 0.960000
vt 0.073310 0.966150
vt -0.106845 1.006550
vt -0.106814 1.006199
vt -0.107205 1.006107
vt -0.018160 0.534709
vt -0.017756 0.534754
vt -0.017847 0.534317
vt 0.350592 0.479341
vt 0.350594 0.479818
vt 0.350983 0.479649
vt 0.555079 0.922998
vt 0.554633 0.923189
vt 0.554735 0.923500
vt 0.001120 0.000910
vt 0.433461 0.013111
vt 0.433309 0.012692
vt 0.000680 0.000500
vt 0.541375 0.290642
vt 0.489943 0.338293
vt 0.493688 0.342333
vt 0.545119 0.294682
vt 0.227404 1.145638
vt 0.232874 1.145102
vt 0.232858 1.144863
vt 0.227387 1.145395
vt 0.046990 0.049260
vt 0.025313 0.487635
vt 0.095353 0.491115
vt 0.117030 0.052740
vt 0.071300 0.997070
vt 0.066304 0.564310
vt 0.006149 0.530494
vt 0.011060 0.963210
vt -0.113228 0.663501
vt -0.105624 0.733467
vt -0.105226 0.733577
vt -0.112810 0.663546
vt 0.162266 0.449785
vt 0.156855 0.450339
vt 0.156909 0.450852
vt 0.162321 0.450299
vt -0.047239 0.213449
vt -0.050206 0.218004
vt -0.049763 0.218138
vt -0.046745 0.213500
vt 0.049260 0.045430
vt 0.488023 0.064936
vt 0.490940 0.060364
vt 0.049400 0.045840
vt 0.487875 0.065390
vt 0.488022 0.064963
vt 0.935760 0.036690
vt 0.927546 0.469412
vt 0.987970 0.436002
vt 0.996250 0.003290
vt 0.000960 0.006340
vt 0.433301 0.018533
vt 0.196760 -0.085970
vt 0.144368 -0.038090
vt 0.144576 -0.037857
vt 0.196966 -0.085737
vt 0.505860 0.980571
vt 0.484742 0.668268
vt 0.476845 0.599531
vt 0.476449 0.599689
vt 0.484362 0.668528
vt 0.337790 0.166420
vt 0.386660 0.116130
vt 0.386470 0.115945
vt 0.337605 0.166235
vt -0.054714 0.124507
vt -0.051798 0.129078
vt -0.051298 0.129044
vt -0.054267 0.124390
vt 0.174807 0.620936
vt 0.182362 0.689601
vt 0.187728 0.689005
vt 0.180173 0.620340
vt 0.446951 0.024394
vt 0.008340 0.040600
vt 0.505994 0.974330
vt 0.443683 0.018982
vt 0.005070 0.035130
vt 0.333360 0.162100
vt 0.382120 0.111700
vt 0.381930 0.111515
vt 0.333170 0.161915
vt 0.433072 0.018965
vt 0.000500 0.006730
s 0
f 1/1/1 2/2/1 3/3/1 4/4/1
f 5/5/1 6/6/1 7/7/1 8/8/1
f 43/9/2 44/10/2 5/5/2 8/8/2
f 45/11/3 4/12/3 9/13/3
f 46/14/4 12/15/4 1/16/4
f 15/17/5 16/18/5 17/19/5
f 18/20/6 19/21/6 20/22/6
f 21/23/7 22/24/7 2/25/7
f 3/26/8 23/27/8 24/28/8
f 3/29/9 2/30/9 22/31/9 23/32/9
f 11/33/10 15/34/10 17/35/10
f 11/33/11 17/35/11 10/36/11
f 14/37/12 20/38/12 21/39/12 12/40/12
f 47/41/13 25/42/13 26/43/13
f 27/44/14 28/45/14 48/46/14
f 43/9/3 8/8/3 29/47/3
f 5/5/15 44/10/15 30/48/15
f 31/49/16 32/50/16 33/51/16
f 34/52/17 35/53/17 6/54/17
f 7/55/18 36/56/18 37/57/18
f 38/58/19 39/59/19 40/60/19
f 27/61/20 31/62/20 33/63/20
f 27/61/21 33/63/21 28/64/21
f 19/65/22 16/66/22 23/67/22 22/68/22
f 31/69/23 40/70/23 39/71/23 32/72/23
f 10/73/24 17/74/24 18/75/24 13/76/24
f 29/77/25 37/78/25 38/79/25 25/80/25
f 34/81/26 33/82/26 32/83/26 35/84/26
f 7/85/27 6/86/27 35/87/27 36/88/27
f 15/89/28 24/90/28 23/91/28 16/92/28
f 9/93/25 24/94/25 15/95/25 11/33/25
f 4/96/29 3/97/29 24/98/29 9/93/29
f 28/99/12 33/100/12 34/101/12 30/102/12
f 26/103/24 40/104/24 31/62/24 27/61/24
f 18/105/30 17/106/30 16/107/30 19/108/30
f 30/48/31 34/109/31 6/6/31 5/5/31
f 38/110/32 37/111/32 36/112/32 39/113/32
f 10/114/33 13/115/33 41/116/33 42/117/33
f 21/118/34 20/119/34 19/120/34 22/121/34
f 35/122/22 32/123/22 39/124/22 36/125/22
f 18/126/35 20/38/35 13/127/35
f 7/7/36 37/128/36 29/47/36 8/8/36
f 20/38/37 14/37/37 13/127/37
f 21/39/38 2/129/38 1/130/38 12/40/38
f 1/131/2 4/132/2 45/133/2 46/134/2
f 38/135/39 40/104/39 25/136/39
f 40/104/40 26/103/40 25/136/40
f 26/43/33 27/44/33 48/46/33 47/41/33
f 49/1/41 52/4/41 51/3/41 50/2/41
f 53/5/41 56/8/41 55/7/41 54/6/41
f 43/9/2 56/8/2 53/5/2 44/10/2
f 45/11/3 9/13/3 52/12/3
f 46/14/4 49/16/4 12/15/4
f 59/17/42 61/19/42 60/18/42
f 62/20/43 64/22/43 63/21/43
f 65/23/44 50/25/44 66/24/44
f 51/26/45 68/28/45 67/27/45
f 51/29/46 67/32/46 66/31/46 50/30/46
f 11/33/47 61/35/47 59/34/47
f 11/33/48 57/36/48 61/35/48
f 14/37/49 12/40/49 65/39/49 64/38/49
f 47/41/50 69/43/50 25/42/50
f 70/44/14 48/46/14 28/45/14
f 43/9/3 29/47/3 56/8/3
f 53/5/51 30/48/51 44/10/51
f 71/49/52 73/51/52 72/50/52
f 74/52/53 54/54/53 75/53/53
f 55/55/54 77/57/54 76/56/54
f 78/58/55 80/60/55 79/59/55
f 70/61/56 73/63/56 71/62/56
f 70/61/57 28/64/57 73/63/57
f 63/65/58 66/68/58 67/67/58 60/66/58
f 71/69/59 72/72/59 79/71/59 80/70/59
f 57/73/60 58/76/60 62/75/60 61/74/60
f 29/77/61 25/80/61 78/79/61 77/78/61
f 74/81/62 75/84/62 72/83/62 73/82/62
f 55/85/63 76/88/63 75/87/63 54/86/63
f 59/89/64 60/92/64 67/91/64 68/90/64
f 9/93/61 11/33/61 59/95/61 68/94/61
f 52/96/65 9/93/65 68/98/65 51/97/65
f 28/99/49 30/102/49 74/101/49 73/100/49
f 69/103/60 70/61/60 71/62/60 80/104/60
f 62/105/66 63/108/66 60/107/66 61/106/66
f 30/48/67 53/5/67 54/6/67 74/109/67
f 78/110/68 79/113/68 76/112/68 77/111/68
f 57/114/33 42/117/33 41/116/33 58/115/33
f 65/118/69 66/121/69 63/120/69 64/119/69
f 75/122/58 76/125/58 79/124/58 72/123/58
f 62/126/70 58/127/70 64/38/70
f 55/7/71 56/8/71 29/47/71 77/128/71
f 64/38/72 58/127/72 14/37/72
f 65/39/73 12/40/73 49/130/73 50/129/73
f 49/131/2 46/134/2 45/133/2 52/132/2
f 78/135/74 25/136/74 80/104/74
f 80/104/75 25/136/75 69/103/75
f 69/43/33 47/41/33 48/46/33 70/44/33
