# Blender 4.0.2
# www.blender.org
mtllib zadeldak_roof_side_6000.mtl
o zadeldak_roof_side_6000
v 0.115730 0.031731 3.240844
v 0.115730 0.032230 3.241704
v 0.114730 0.032960 3.240704
v 0.115730 0.261170 3.241704
v 0.115730 0.262670 3.240844
v 0.133730 0.262668 3.240844
v 0.133730 0.261170 3.241704
v 0.134730 0.261590 3.240704
v 0.134730 0.032960 3.240704
v 0.133730 0.032230 3.241704
v 0.133730 0.031731 3.240844
v 0.113747 0.262668 -3.240844
v 0.133730 0.031731 -3.240844
v 0.113747 0.262668 3.240844
v -0.115193 0.242670 3.240844
v 0.113747 0.242670 3.240844
v 0.113747 0.243168 3.241704
v -0.115193 0.243168 3.241704
v -0.116193 0.243898 3.240704
v -0.116193 0.261588 3.240704
v -0.115193 0.261168 3.241704
v -0.115193 0.262670 3.240844
v 0.113747 0.261168 3.241704
v 0.134717 1.903787 0.000000
v 0.113727 2.133771 -0.000000
v 0.115730 2.133791 0.000000
v 0.134730 0.261590 -3.240704
v 0.115730 0.262670 -3.240844
v -0.115213 2.133791 0.000000
v 0.133730 0.261170 -3.241704
v 0.133730 0.032230 -3.241704
v -0.116213 2.114740 0.000000
v 0.115730 0.261170 -3.241704
v 0.114730 0.032960 -3.240704
v 0.114747 0.261588 3.240704
v 0.134730 0.032960 -3.240704
v 0.133730 0.262668 -3.240844
v 0.114747 0.261588 3.240704
v 0.114747 0.243898 3.240704
v 0.115730 0.032230 -3.241704
v 0.115730 0.031731 -3.240844
v -0.115193 0.242670 -3.240844
v 0.113747 0.242670 -3.240844
v 0.113747 0.243168 -3.241704
v -0.115193 0.243168 -3.241704
v -0.116193 0.243898 -3.240704
v -0.116193 0.261588 -3.240704
v -0.115193 0.261168 -3.241704
v -0.115193 0.262670 -3.240844
v 0.113747 0.261168 -3.241704
v 0.114730 1.903802 0.000000
v 0.113727 2.113791 0.000000
v 0.133730 1.902850 0.000000
v 0.133730 2.133771 0.000000
v 0.134730 2.132799 0.000000
v 0.114826 2.114856 0.000000
v 0.114727 2.132800 0.000000
v -0.116213 2.132800 0.000000
v 0.115895 1.902661 0.000000
v -0.115130 2.113671 0.000000
v 0.114747 0.261588 -3.240704
v 0.114727 2.132800 0.000000
v 0.114747 0.261588 -3.240704
v 0.114747 0.243898 -3.240704
vn -0.7498 -0.5723 0.3320
vn -0.5500 0.4155 0.7245
vn 0.5497 0.4159 0.7244
vn 0.7498 -0.5723 0.3320
vn -0.0000 0.4976 0.8674
vn -0.7071 -0.0000 0.7071
vn 0.7071 -0.0000 0.7071
vn -0.0000 -0.8649 0.5019
vn -0.0000 -0.0000 1.0000
vn 0.7051 -0.6141 -0.3545
vn 0.6350 -0.6690 -0.3862
vn -0.0000 -0.8654 0.5010
vn 0.7496 -0.5728 0.3316
vn -0.7495 -0.5730 0.3315
vn -0.5503 0.4151 0.7245
vn 0.5500 0.4154 0.7245
vn -0.6420 -0.6640 -0.3833
vn -0.0000 0.4971 0.8677
vn 0.6781 0.6365 0.3675
vn -0.6822 0.6332 0.3656
vn 0.0005 0.8660 0.5000
vn 0.0054 -0.8660 -0.5000
vn 0.0051 -0.8660 -0.5000
vn 0.0002 -0.8660 -0.5000
vn -1.0000 -0.0000 -0.0000
vn -0.0000 0.8660 0.5000
vn 1.0000 -0.0000 -0.0000
vn -0.6441 -0.6640 -0.3799
vn -0.6434 -0.6630 -0.3827
vn -0.6434 -0.6630 -0.3828
vn 0.6784 0.6363 0.3674
vn -0.7051 -0.6141 -0.3545
vn -0.7498 -0.5723 -0.3320
vn -0.6851 0.6329 0.3606
vn -0.6816 0.6337 0.3659
vn 0.6514 -0.6578 -0.3781
vn 0.6515 -0.6570 -0.3792
vn 0.6515 -0.6570 -0.3793
vn 1.0000 0.0028 0.0016
vn -0.5500 0.4155 -0.7245
vn -0.5614 0.4177 -0.7144
vn -0.5614 0.4056 -0.7213
vn 0.5497 0.4159 -0.7244
vn 0.7498 -0.5723 -0.3320
vn -0.0000 0.4976 -0.8674
vn -0.7109 -0.0041 -0.7033
vn -0.7092 0.0041 -0.7050
vn -0.7114 -0.0038 -0.7027
vn -0.7087 0.0038 -0.7055
vn 0.7071 -0.0000 -0.7071
vn -0.0000 -0.8649 -0.5019
vn -0.0000 -0.0000 -1.0000
vn 0.7051 -0.6141 0.3545
vn 0.6351 -0.6690 0.3862
vn -0.0000 -0.8654 -0.5010
vn 0.7496 -0.5728 -0.3316
vn -0.7495 -0.5730 -0.3315
vn -0.5503 0.4151 -0.7245
vn 0.5500 0.4154 -0.7245
vn -0.7071 -0.0000 -0.7071
vn -0.6579 -0.6522 0.3765
vn -0.6472 -0.6553 0.3896
vn -0.6528 -0.6609 0.3702
vn -0.0000 0.4971 -0.8677
vn 0.6781 0.6365 -0.3675
vn -0.6821 0.6333 -0.3656
vn 0.0005 0.8660 -0.5000
vn 0.0046 -0.8665 0.4992
vn 0.0046 -0.8656 0.5007
vn 0.0046 -0.8655 0.5008
vn 0.0002 -0.8660 0.5000
vn -0.0000 0.8660 -0.5000
vn -0.6459 -0.6635 0.3777
vn -0.6506 -0.6577 0.3797
vn -0.6457 -0.6591 0.3856
vn 0.6784 0.6362 -0.3673
vn -0.7052 -0.6141 0.3545
vn -0.6817 0.6341 -0.3649
vn -0.6838 0.6298 -0.3685
vn -0.6856 0.6325 -0.3604
vn -0.6835 0.6300 -0.3685
vn 0.6468 -0.6657 0.3723
vn 0.6336 -0.6700 0.3868
vn 0.6394 -0.6603 0.3939
vn 1.0000 0.0028 -0.0016
vt 0.190381 0.050438
vt 0.190152 0.050379
vt 0.190022 0.050768
vt 0.219542 0.190381
vt 0.219600 0.190381
vt 0.219996 0.190321
vt 0.177689 0.000000
vt 0.177293 0.000000
vt 0.177241 0.000000
vt 0.071508 0.206956
vt 0.071706 0.207304
vt 0.071922 0.207217
vt 0.169228 0.101507
vt 0.168858 0.096680
vt 0.168456 0.096710
vt 0.168828 0.101537
vt 0.188098 0.268272
vt 0.249478 0.270764
vt 0.249611 0.270580
vt 0.188148 0.268085
vt 1.302892 1.417600
vt 1.242694 1.429799
vt 1.242772 1.429973
vt 1.303052 1.417758
vt 0.156536 0.038061
vt 0.156114 0.033189
vt 0.155890 0.033204
vt 0.156312 0.038076
vt 0.971638 0.033845
vt 1.032288 0.026645
vt 1.031718 0.021875
vt 0.971068 0.029075
vt 0.141913 0.428797
vt 0.156535 0.429057
vt 0.111191 1.421511
vt 0.588747 0.001182
vt 0.558051 0.993963
vt 0.544789 0.993664
vt 1.025796 0.135382
vt 1.057672 0.077325
vt 1.057089 0.077052
vt 1.025205 0.135113
vt 0.168718 0.020291
vt 0.168549 0.020961
vt 0.169228 0.021153
vt 0.025384 0.097050
vt 0.024894 0.096682
vt 0.024524 0.097306
vt 0.092570 0.109998
vt 0.093075 0.109526
vt 0.092185 0.109252
vt 0.176920 0.016449
vt 0.177651 0.016923
vt 0.177689 0.016266
vt 0.141101 0.040612
vt 0.147583 0.042307
vt 0.148074 0.041795
vt 0.141478 0.040069
vt 1.890766 1.912271
vt 1.895627 0.896393
vt 1.908041 0.910666
vt 0.016923 0.003538
vt 0.011490 0.000105
vt 0.011337 0.000738
vt 0.016866 0.004231
vt 0.679357 1.413050
vt 0.706525 1.356056
vt 0.700554 1.353548
vt 0.673447 1.410438
vt 1.099166 0.128579
vt 1.071135 0.185777
vt 1.071943 0.186150
vt 1.099979 0.128952
vt 0.557212 0.001115
vt 0.571143 0.001442
vt 0.541094 0.994212
vt 0.526729 0.993893
vt 1.627409 1.447557
vt 1.615992 1.441941
vt 1.621244 0.443387
vt 1.631898 0.439622
vt 0.516176 0.993572
vt 0.547790 0.000823
vt 0.566708 0.994212
vt 0.598836 0.001499
vt 1.582278 0.523705
vt 1.549130 0.515759
vt 1.542001 1.520175
vt 1.575554 1.527279
vt 0.000544 1.023827
vt 0.039508 0.994736
vt 0.071922 0.002082
vt 0.032919 0.031122
vt 1.654199 0.445202
vt 1.648534 1.442467
vt 0.460968 0.994458
vt 0.498981 1.025942
vt 0.528836 0.033166
vt 0.491716 0.001747
vt 1.642915 0.444348
vt 1.638145 1.459588
vt 0.576658 1.129594
vt 0.562096 1.129029
vt 0.609219 0.136962
vt 1.643648 0.439199
vt 1.637132 1.443567
vt 0.613450 0.002147
vt 0.203073 0.109668
vt 0.202714 0.109998
vt 0.202844 0.109609
vt 0.501770 0.992988
vt 0.533866 0.000275
vt 1.561091 0.503487
vt 1.881054 0.884813
vt 1.891118 0.884412
vt 1.884479 1.890188
vt 1.873414 1.895349
vt 0.071468 0.224227
vt 0.071922 0.224167
vt 0.071526 0.224227
vt 0.122690 0.000000
vt 0.122242 0.000000
vt 0.122294 0.000000
vt 0.177275 0.211186
vt 0.177689 0.211447
vt 0.177473 0.211534
vt 0.164997 0.177659
vt 0.164597 0.177689
vt 0.164226 0.172862
vt 0.164627 0.172832
vt 0.124637 0.272503
vt 0.124687 0.272316
vt 0.186150 0.274811
vt 0.186017 0.274995
vt 1.349430 0.533386
vt 1.349590 0.533544
vt 1.289310 0.545759
vt 1.289232 0.545585
vt 0.186150 0.008446
vt 0.185926 0.008461
vt 0.185504 0.003589
vt 0.185728 0.003574
vt 0.865871 0.029615
vt 0.865301 0.024845
vt 0.925951 0.017645
vt 0.926521 0.022415
vt 1.453426 0.458412
vt 1.422705 1.451126
vt 1.468049 0.458672
vt 1.021566 0.181920
vt 1.020975 0.181651
vt 1.052859 0.123590
vt 1.053442 0.123863
vt 0.096796 0.016061
vt 0.097306 0.016923
vt 0.096627 0.016731
vt 0.118459 0.185894
vt 0.117599 0.186150
vt 0.117969 0.185526
vt 0.037571 0.016923
vt 0.037186 0.016177
vt 0.038076 0.016451
vt 0.164228 0.029141
vt 0.164997 0.028958
vt 0.164959 0.029615
vt 0.111486 0.002536
vt 0.111863 0.001993
vt 0.118459 0.003719
vt 0.117968 0.004231
vt 0.025384 0.003538
vt 0.025327 0.004231
vt 0.019798 0.000738
vt 0.019951 0.000105
vt 1.246269 1.383435
vt 1.240359 1.380823
vt 1.267466 1.323933
vt 1.273437 1.326441
vt 1.061090 1.046639
vt 1.061903 1.047012
vt 1.033867 1.104210
vt 1.033059 1.103837
s 0
usemtl wood
f 1/1/1 2/2/1 3/3/1
f 35/4/2 4/5/2 5/6/2
f 6/7/3 7/8/3 8/9/3
f 9/10/4 10/11/4 11/12/4
f 6/13/5 5/14/5 4/15/5 7/16/5
f 35/17/6 3/18/6 2/19/6 4/20/6
f 9/21/7 8/22/7 7/23/7 10/24/7
f 1/25/8 11/26/8 10/27/8 2/28/8
f 4/29/9 2/30/9 10/31/9 7/32/9
f 9/33/10 11/34/10 24/35/10
f 11/36/11 53/37/11 24/38/11
f 15/39/12 16/40/12 17/41/12 18/42/12
f 39/43/13 17/44/13 16/45/13
f 15/46/14 18/47/14 19/48/14
f 20/49/15 21/50/15 22/51/15
f 14/52/16 23/53/16 38/54/16
f 20/55/6 19/56/6 18/57/6 21/58/6
f 19/59/17 32/60/17 60/61/17
f 39/62/7 38/63/7 23/64/7 17/65/7
f 18/66/9 17/67/9 23/68/9 21/69/9
f 14/70/18 22/71/18 21/72/18 23/73/18
f 6/74/19 8/75/19 55/76/19 54/77/19
f 20/78/20 22/79/20 29/80/20 58/81/20
f 54/77/21 26/82/21 5/83/21 6/74/21
f 59/84/22 53/37/22 11/36/23 1/85/22
f 60/86/24 52/87/24 16/88/24 15/89/24
f 57/90/25 51/91/25 3/92/25 35/93/25
f 25/94/26 29/80/26 22/79/26 14/95/26
f 24/96/27 55/97/27 8/98/27 9/99/27
f 58/81/25 32/100/25 19/101/25 20/78/25
f 51/102/28 59/103/29 3/104/30
f 62/105/31 25/94/31 14/95/31 38/106/31
f 59/84/32 1/85/32 3/107/32
f 41/108/33 34/109/33 40/110/33
f 26/82/34 57/111/35 35/112/35 5/83/35
f 52/87/36 56/113/37 16/88/38
f 56/114/39 62/115/39 38/116/39 39/117/39
f 61/118/40 28/119/41 33/120/42
f 37/121/43 27/122/43 30/123/43
f 36/124/44 13/125/44 31/126/44
f 37/127/45 30/128/45 33/129/45 28/130/45
f 61/131/46 33/132/47 40/133/48 34/134/49
f 36/135/50 31/136/50 30/137/50 27/138/50
f 41/139/51 40/140/51 31/141/51 13/142/51
f 33/143/52 30/144/52 31/145/52 40/146/52
f 36/147/53 24/148/53 13/149/53
f 13/36/54 24/38/54 53/37/54
f 42/150/55 45/151/55 44/152/55 43/153/55
f 64/154/56 43/155/56 44/156/56
f 42/157/57 46/158/57 45/159/57
f 47/160/58 49/161/58 48/162/58
f 12/163/59 63/164/59 50/165/59
f 47/166/60 48/167/60 45/168/60 46/169/60
f 46/59/61 60/61/62 32/60/63
f 64/170/50 44/171/50 50/172/50 63/173/50
f 45/174/52 48/175/52 50/176/52 44/177/52
f 12/178/64 50/179/64 48/180/64 49/181/64
f 37/74/65 54/77/65 55/76/65 27/75/65
f 47/78/66 58/81/66 29/80/66 49/79/66
f 54/77/67 37/74/67 28/83/67 26/82/67
f 59/84/68 41/85/69 13/36/68 53/37/70
f 60/86/71 42/89/71 43/88/71 52/87/71
f 57/90/25 61/93/25 34/92/25 51/91/25
f 25/94/72 12/95/72 49/79/72 29/80/72
f 24/96/27 36/99/27 27/98/27 55/97/27
f 58/81/25 47/78/25 46/101/25 32/100/25
f 51/102/73 34/104/74 59/103/75
f 62/105/76 63/106/76 12/95/76 25/94/76
f 59/84/77 34/107/77 41/85/77
f 26/82/78 28/83/79 61/112/80 57/111/81
f 52/87/82 43/88/83 56/113/84
f 56/114/85 64/117/85 63/116/85 62/115/85
