# Blender 4.0.2
# www.blender.org
mtllib zadeldak_roof_side_2000.mtl
o zadeldak_roof_side_2000
v -0.114930 0.990804 0.000870
v -0.115284 0.274326 1.241865
v 0.113656 0.274326 1.241865
v 0.114010 0.990804 0.000870
v 0.116010 0.990814 0.000870
v 0.115643 0.274331 1.241865
v 0.133650 0.274330 1.241865
v 0.134010 0.990814 0.000870
v 0.115010 0.990304 -0.000000
v 0.114010 0.970804 0.000870
v 0.115010 0.972305 -0.000000
v -0.115930 0.990304 -0.000000
v -0.114930 0.970804 0.000870
v -0.115930 0.972305 -0.000000
v 0.114656 0.255556 1.241735
v 0.113656 0.254816 1.242725
v 0.113656 0.254327 1.241865
v -0.115284 0.254326 1.241865
v -0.115284 0.254816 1.242725
v -0.116284 0.255556 1.241725
v -0.116284 0.273246 1.241725
v -0.115284 0.272826 1.242725
v 0.113656 0.272826 1.242725
v 0.114656 0.273246 1.241725
v 0.135010 0.761374 -0.000000
v 0.134010 0.759875 0.000870
v 0.116010 0.759875 0.000870
v 0.115010 0.761374 -0.000000
v 0.135010 0.990314 -0.000000
v 0.115010 0.990314 -0.000000
v 0.115643 0.043391 1.241864
v 0.115643 0.043891 1.242724
v 0.114643 0.044487 1.241865
v 0.114653 0.273251 1.241724
v 0.115643 0.272831 1.242725
v 0.133653 0.272831 1.242725
v 0.134643 0.273251 1.241724
v 0.134643 0.044621 1.241724
v 0.133653 0.043891 1.242724
v 0.133650 0.043391 1.241865
v -0.114930 0.970804 -0.000000
v 0.114010 0.970804 -0.000000
v 0.134010 0.990814 -0.000000
v 0.116010 0.990814 -0.000000
v 0.114010 0.990804 -0.000000
v -0.114930 0.990804 -0.000000
v 0.134010 0.759875 -0.000000
v 0.116010 0.759875 -0.000000
v -0.114930 0.990804 -0.000870
v -0.115284 0.274326 -1.241865
v 0.113656 0.274326 -1.241865
v 0.114010 0.990804 -0.000870
v 0.116010 0.990814 -0.000870
v 0.115643 0.274331 -1.241865
v 0.133650 0.274330 -1.241865
v 0.134010 0.990814 -0.000870
v 0.114010 0.970804 -0.000870
v -0.114930 0.970804 -0.000870
v 0.114656 0.255556 -1.241735
v 0.113656 0.254816 -1.242725
v 0.113656 0.254327 -1.241865
v -0.115284 0.254326 -1.241865
v -0.115284 0.254816 -1.242725
v -0.116284 0.255556 -1.241725
v -0.116284 0.273246 -1.241725
v -0.115284 0.272826 -1.242725
v 0.113656 0.272826 -1.242725
v 0.114656 0.273246 -1.241725
v 0.134010 0.759875 -0.000870
v 0.116010 0.759875 -0.000870
v 0.115643 0.043391 -1.241864
v 0.115643 0.043891 -1.242724
v 0.114643 0.044487 -1.241865
v 0.114653 0.273251 -1.241724
v 0.115643 0.272831 -1.242725
v 0.133653 0.272831 -1.242725
v 0.134643 0.273251 -1.241724
v 0.134643 0.044621 -1.241724
v 0.133653 0.043891 -1.242724
v 0.133650 0.043391 -1.241865
vn -0.0000 0.8660 0.5000
vn -0.0000 1.0000 -0.0000
vn 0.4472 0.8945 -0.0000
vn -0.4472 0.8945 -0.0000
vn 0.7497 -0.5752 0.3272
vn -0.7512 -0.5734 0.3269
vn -0.5500 0.4153 0.7245
vn 0.5501 0.4153 0.7246
vn -0.0000 0.4974 0.8675
vn 0.7069 -0.6127 -0.3534
vn 0.6541 -0.6552 -0.3781
vn -1.0000 -0.0000 -0.0003
vn 0.8319 -0.5550 -0.0000
vn -0.8319 -0.5550 -0.0000
vn -0.4472 0.8944 -0.0000
vn -0.6876 -0.6277 0.3650
vn -0.5544 0.4138 0.7221
vn 0.5537 0.4152 0.7219
vn 0.7528 -0.5701 0.3292
vn -0.6886 -0.6279 -0.3627
vn -0.6536 -0.6554 -0.3786
vn -0.0000 -0.0000 1.0000
vn -0.0000 -0.8643 0.5029
vn -0.0000 -0.8660 -0.5000
vn 1.0000 -0.0000 0.0003
vn -0.6828 0.0002 0.7306
vn -0.0000 0.4975 0.8674
vn 0.7053 0.0002 0.7089
vn 0.6836 0.6320 0.3651
vn -0.0000 -0.8690 0.4948
vn -0.6855 0.6306 0.3639
vn 0.7108 -0.0000 0.7034
vn -0.0000 -1.0000 -0.0000
vn -0.7071 -0.0000 0.7071
vn -0.7053 -0.6138 -0.3546
vn 0.6848 0.6310 0.3646
vn -0.6539 -0.6552 -0.3784
vn -0.6836 0.6322 0.3648
vn 0.7078 -0.6119 -0.3530
vn 0.6539 -0.6553 -0.3781
vn -0.0000 0.8660 -0.5000
vn 0.7496 -0.5753 -0.3272
vn -0.7513 -0.5733 -0.3269
vn -0.5501 0.4153 -0.7246
vn 0.5500 0.4154 -0.7245
vn -0.0000 0.4974 -0.8675
vn 0.7069 -0.6127 0.3534
vn 0.6541 -0.6552 0.3781
vn -1.0000 -0.0000 0.0003
vn 0.8318 -0.5550 -0.0000
vn -0.4471 0.8945 -0.0000
vn -0.6876 -0.6277 -0.3650
vn -0.5544 0.4138 -0.7221
vn 0.5537 0.4151 -0.7219
vn 0.7528 -0.5700 -0.3292
vn -0.6886 -0.6279 0.3627
vn -0.6535 -0.6554 0.3786
vn -0.0000 -0.0000 -1.0000
vn -0.0000 -0.8644 -0.5028
vn -0.0000 -0.8660 0.5000
vn 1.0000 -0.0000 -0.0003
vn -0.6828 0.0002 -0.7306
vn -0.0000 0.4975 -0.8675
vn 0.7053 0.0002 -0.7089
vn 0.6836 0.6320 -0.3651
vn -0.0000 -0.8691 -0.4947
vn -0.6855 0.6306 -0.3639
vn 0.7108 -0.0000 -0.7034
vn -0.7071 -0.0000 -0.7071
vn -0.7053 -0.6138 0.3546
vn 0.6848 0.6310 -0.3646
vn -0.6539 -0.6552 0.3784
vn -0.6836 0.6322 -0.3648
vn 0.7078 -0.6119 0.3530
vn 0.6539 -0.6553 0.3781
vt 0.281736 1.455357
vt 0.291918 1.016569
vt 0.221814 1.014964
vt 0.211636 1.453757
vt 1.238638 1.660572
vt 1.670895 1.674952
vt 1.671001 1.669529
vt 1.238718 1.655162
vt 1.238453 1.655137
vt 1.238393 1.660582
vt 0.016658 0.203073
vt 0.016923 0.203073
vt 0.016653 0.202733
vt 0.071657 0.109648
vt 0.071662 0.109998
vt 0.071922 0.109648
vt 0.202572 0.101492
vt 0.203073 0.101537
vt 0.203006 0.101247
vt 0.105688 0.198842
vt 0.105767 0.198547
vt 0.105309 0.198582
vt 0.101111 0.160766
vt 0.101537 0.160630
vt 0.101110 0.160302
vt 0.151879 0.016923
vt 0.152305 0.016613
vt 0.151878 0.016478
vt 0.092697 0.156535
vt 0.143843 0.108476
vt 0.143481 0.108083
vt 0.092346 0.156152
vt 1.236394 1.621949
vt 1.675104 1.641507
vt 1.675353 1.641083
vt 1.236874 1.621569
vt 0.796280 0.050378
vt 1.235124 0.034156
vt 1.232238 0.029561
vt 0.793340 0.045708
vt 0.143323 0.031261
vt 0.143843 0.032406
vt 0.143243 0.030356
vt 0.143243 0.033846
vt 0.143843 0.031796
vt 0.143323 0.032946
vt 1.238558 1.654782
vt 1.238438 1.660932
vt 0.118428 0.190381
vt 0.118459 0.190030
vt 0.118068 0.189938
vt 0.109594 0.181875
vt 0.109998 0.181920
vt 0.109907 0.181483
vt 0.181529 0.194135
vt 0.181531 0.194612
vt 0.181920 0.194443
vt 0.097306 0.096804
vt 0.096860 0.096995
vt 0.096962 0.097306
vt 1.243012 1.640375
vt 1.675353 1.652576
vt 1.675201 1.652157
vt 1.242572 1.639965
vt 0.127407 0.083691
vt 0.075975 0.131342
vt 0.079720 0.135382
vt 0.131151 0.087731
vt 0.159527 0.109998
vt 0.164997 0.109462
vt 0.164981 0.109223
vt 0.159510 0.109755
vt 0.350914 0.975426
vt 0.329237 1.413801
vt 0.399277 1.417281
vt 0.420954 0.978906
vt 0.198842 1.506125
vt 0.193846 1.073365
vt 0.133691 1.039549
vt 0.138602 1.472265
vt 0.203532 0.158381
vt 0.211136 0.228347
vt 0.211534 0.228457
vt 0.203950 0.158426
vt 0.164942 0.020086
vt 0.159531 0.020640
vt 0.159585 0.021153
vt 0.164997 0.020600
vt 0.084120 0.008003
vt 0.081153 0.012558
vt 0.081596 0.012692
vt 0.084614 0.008054
vt 0.768297 0.005878
vt 1.207060 0.025384
vt 1.209977 0.020812
vt 0.771267 0.001228
vt 1.236731 1.613496
vt 1.675206 1.633046
vt 1.675353 1.632619
vt 1.236591 1.613086
vt 0.497961 1.056481
vt 0.489747 1.489202
vt 0.550171 1.455793
vt 0.558451 1.023081
vt 1.242852 1.645805
vt 1.675193 1.657998
vt 0.126715 0.002655
vt 0.074323 0.050535
vt 0.074531 0.050768
vt 0.126921 0.002888
vt 1.670988 1.675353
vt 0.219996 0.092815
vt 0.212099 0.024078
vt 0.211703 0.024236
vt 0.219616 0.093075
vt 0.133050 0.186150
vt 0.181920 0.135860
vt 0.181730 0.135675
vt 0.132865 0.185965
vt 0.085428 0.020813
vt 0.088344 0.025384
vt 0.088844 0.025350
vt 0.085875 0.020696
vt 0.071693 0.151331
vt 0.079248 0.219996
vt 0.084614 0.219400
vt 0.077059 0.150735
vt 1.235361 0.034562
vt 0.796750 0.050768
vt 1.671122 1.669112
vt 1.232093 0.029150
vt 0.793480 0.045298
vt 0.124698 0.186150
vt 0.173458 0.135750
vt 0.173268 0.135565
vt 0.124508 0.185965
vt 1.674964 1.658430
vt 1.242392 1.646195
vt 0.484809 1.472280
vt 0.414709 1.470680
vt 0.424887 1.031887
vt 0.494991 1.033492
vt 0.101036 0.211489
vt 0.101470 0.211244
vt 0.101537 0.211534
vt 0.211455 0.012692
vt 0.211076 0.012432
vt 0.211534 0.012397
vt 0.105341 0.131151
vt 0.105340 0.130687
vt 0.105767 0.131015
vt 0.105341 0.139613
vt 0.105340 0.139168
vt 0.105767 0.139303
vt 0.096928 0.160766
vt 0.096577 0.160382
vt 0.147712 0.112313
vt 0.148074 0.112707
vt 1.236394 1.626180
vt 1.675353 1.645314
vt 1.675104 1.645738
vt 1.236874 1.625800
vt 0.139582 0.203073
vt 0.139222 0.202630
vt 0.139613 0.202722
vt 0.147670 0.203028
vt 0.147983 0.202636
vt 0.148074 0.203073
vt 0.024993 0.172981
vt 0.025384 0.173289
vt 0.024995 0.173458
vt 0.101537 0.126419
vt 0.101193 0.126921
vt 0.101091 0.126610
vt 1.238781 1.674221
vt 1.670970 1.686002
vt 1.671122 1.686422
vt 1.238341 1.673810
vt 0.131638 0.003308
vt 0.135382 0.007348
vt 0.083951 0.054999
vt 0.080206 0.050959
vt 0.172219 0.004231
vt 0.172202 0.003988
vt 0.177673 0.003456
vt 0.177689 0.003695
vt 0.042073 0.996579
vt 0.112113 1.000059
vt 0.090436 1.438434
vt 0.020396 1.434954
vt 0.224686 0.001846
vt 0.225104 0.001891
vt 0.232688 0.071922
vt 0.232290 0.071812
vt 0.160711 0.070855
vt 0.160766 0.071369
vt 0.155354 0.071922
vt 0.155300 0.071409
vt 0.075658 0.088386
vt 0.076152 0.088437
vt 0.073134 0.093075
vt 0.072691 0.092941
vt 1.236731 1.617727
vt 1.236591 1.617316
vt 1.675353 1.636850
vt 1.675206 1.637277
vt 1.238621 1.679651
vt 1.670962 1.691844
vt 0.135176 0.099961
vt 0.135382 0.100194
vt 0.082992 0.148074
vt 0.082784 0.147841
vt 0.215765 0.173198
vt 0.215385 0.173458
vt 0.207472 0.104619
vt 0.207868 0.104461
vt 0.106582 0.003890
vt 0.107029 0.003773
vt 0.109998 0.008427
vt 0.109498 0.008461
vt 0.211305 0.104793
vt 0.216671 0.104197
vt 0.224227 0.172862
vt 0.218861 0.173458
vt 1.670733 1.692276
vt 1.238161 1.680040
s 0
usemtl wood
f 1/1/1 2/2/1 3/3/1 4/4/1
f 5/5/1 6/6/1 7/7/1 8/8/1
f 43/9/2 44/10/2 5/5/2 8/8/2
f 45/11/3 4/12/3 9/13/3
f 46/14/4 12/15/4 1/16/4
f 15/17/5 16/18/5 17/19/5
f 18/20/6 19/21/6 20/22/6
f 21/23/7 22/24/7 2/25/7
f 3/26/8 23/27/8 24/28/8
f 3/29/9 2/30/9 22/31/9 23/32/9
f 11/33/10 15/34/10 17/35/10
f 11/33/11 17/35/11 10/36/11
f 14/37/12 20/38/12 21/39/12 12/40/12
f 47/41/13 25/42/13 26/43/13
f 27/44/14 28/45/14 48/46/14
f 43/9/3 8/8/3 29/47/3
f 5/5/15 44/10/15 30/48/15
f 31/49/16 32/50/16 33/51/16
f 34/52/17 35/53/17 6/54/17
f 7/55/18 36/56/18 37/57/18
f 38/58/19 39/59/19 40/60/19
f 27/61/20 31/62/20 33/63/20
f 27/61/21 33/63/21 28/64/21
f 19/65/22 16/66/22 23/67/22 22/68/22
f 31/69/23 40/70/23 39/71/23 32/72/23
f 10/73/24 17/74/24 18/75/24 13/76/24
f 29/77/25 37/78/25 38/79/25 25/80/25
f 34/81/26 33/82/26 32/83/26 35/84/26
f 7/85/27 6/86/27 35/87/27 36/88/27
f 15/89/28 24/90/28 23/91/28 16/92/28
f 9/93/25 24/94/25 15/95/25 11/96/25
f 4/97/29 3/98/29 24/99/29 9/100/29
f 28/101/12 33/102/12 34/103/12 30/104/12
f 26/105/24 40/106/24 31/62/24 27/61/24
f 18/107/30 17/108/30 16/109/30 19/110/30
f 30/48/31 34/111/31 6/6/31 5/5/31
f 38/112/32 37/113/32 36/114/32 39/115/32
f 10/116/33 13/117/33 41/118/33 42/119/33
f 21/120/34 20/121/34 19/122/34 22/123/34
f 35/124/22 32/125/22 39/126/22 36/127/22
f 18/128/35 20/38/35 13/129/35
f 7/7/36 37/130/36 29/47/36 8/8/36
f 20/38/37 14/37/37 13/129/37
f 21/39/38 2/131/38 1/132/38 12/40/38
f 1/133/2 4/134/2 45/135/2 46/136/2
f 38/137/39 40/106/39 25/138/39
f 40/106/40 26/105/40 25/138/40
f 26/43/33 27/44/33 48/46/33 47/41/33
f 49/139/41 52/140/41 51/141/41 50/142/41
f 53/5/41 56/8/41 55/7/41 54/6/41
f 43/9/2 56/8/2 53/5/2 44/10/2
f 45/11/3 9/13/3 52/12/3
f 46/14/4 49/16/4 12/15/4
f 59/143/42 61/144/42 60/145/42
f 62/146/43 64/147/43 63/148/43
f 65/149/44 50/150/44 66/151/44
f 51/152/45 68/153/45 67/154/45
f 51/155/46 67/156/46 66/157/46 50/158/46
f 11/159/47 61/160/47 59/161/47
f 11/159/48 57/162/48 61/160/48
f 14/37/49 12/40/49 65/39/49 64/38/49
f 47/41/50 69/43/50 25/42/50
f 70/44/14 48/46/14 28/45/14
f 43/9/3 29/47/3 56/8/3
f 53/5/51 30/48/51 44/10/51
f 71/163/52 73/164/52 72/165/52
f 74/166/53 54/167/53 75/168/53
f 55/169/54 77/170/54 76/171/54
f 78/172/55 80/173/55 79/174/55
f 70/175/56 73/176/56 71/177/56
f 70/175/57 28/178/57 73/176/57
f 63/179/58 66/180/58 67/181/58 60/182/58
f 71/183/59 72/184/59 79/185/59 80/186/59
f 57/187/60 58/188/60 62/189/60 61/190/60
f 29/77/61 25/80/61 78/79/61 77/78/61
f 74/191/62 75/192/62 72/193/62 73/194/62
f 55/195/63 76/196/63 75/197/63 54/198/63
f 59/199/64 60/200/64 67/201/64 68/202/64
f 9/93/61 11/96/61 59/95/61 68/94/61
f 52/203/65 9/204/65 68/205/65 51/206/65
f 28/101/49 30/104/49 74/103/49 73/102/49
f 69/207/60 70/175/60 71/177/60 80/208/60
f 62/209/66 63/210/66 60/211/66 61/212/66
f 30/48/67 53/5/67 54/6/67 74/111/67
f 78/213/68 79/214/68 76/215/68 77/216/68
f 57/116/33 42/119/33 41/118/33 58/117/33
f 65/217/69 66/218/69 63/219/69 64/220/69
f 75/221/58 76/222/58 79/223/58 72/224/58
f 62/128/70 58/129/70 64/38/70
f 55/7/71 56/8/71 29/47/71 77/130/71
f 64/38/72 58/129/72 14/37/72
f 65/39/73 12/40/73 49/132/73 50/131/73
f 49/133/2 46/136/2 45/135/2 52/134/2
f 78/225/74 25/226/74 80/208/74
f 80/208/75 25/226/75 69/207/75
f 69/43/33 47/41/33 48/46/33 70/44/33
