# Blender 4.0.2
# www.blender.org
mtllib zadeldak_roof_side_3000.mtl
o zadeldak_roof_side_3000
v -0.229570 1.272066 0.000870
v -0.000630 1.272066 0.000870
v -0.000630 1.272066 -0.000870
v -0.229570 1.272066 -0.000870
v 0.020000 0.037704 1.740864
v 0.020000 0.266332 1.740865
v 0.019010 0.265912 1.741865
v 0.019010 0.036974 1.741865
v 0.020000 0.037705 -1.740865
v 0.019010 0.036975 -1.741865
v 0.019010 0.265913 -1.741865
v 0.020000 0.266333 -1.740865
v 0.019010 0.267413 -1.741005
v 0.000010 0.266333 -1.740865
v 0.001003 0.267413 -1.741005
v 0.001000 0.265913 -1.741865
v -0.000984 0.267409 1.741005
v 0.000016 0.266329 1.740865
v 0.000370 1.271566 -0.000000
v 0.000370 1.042638 -0.000000
v -0.000000 0.037704 1.740864
v 0.000010 0.266332 1.740865
v 0.000370 1.271576 -0.000000
v -0.000630 1.252066 -0.000870
v -0.229570 1.252066 -0.000870
v -0.229924 0.247409 -1.741005
v -0.000984 0.247409 -1.741005
v 0.000370 1.253566 -0.000000
v 0.000016 0.248639 -1.740875
v 0.000016 0.266329 -1.740865
v 0.019010 0.267413 1.741005
v 0.001000 0.267412 1.741005
v 0.001000 0.265912 1.741865
v 0.019370 1.272076 -0.000870
v 0.001370 1.272076 -0.000870
v 0.001370 1.272076 0.000870
v 0.019370 1.272076 0.000870
v 0.001000 0.036974 1.741865
v -0.000630 1.252066 0.000870
v -0.230570 1.271566 -0.000000
v -0.229570 1.252066 0.000870
v -0.230570 1.253566 -0.000000
v 0.001370 1.041140 -0.000870
v -0.000000 0.037705 -1.740865
v -0.229924 0.247899 -1.741865
v -0.229924 0.265909 -1.741865
v -0.000984 0.265909 -1.741865
v -0.000984 0.247899 -1.741865
v 0.019010 0.036475 -1.741005
v 0.001003 0.036475 -1.741006
v 0.001000 0.036975 -1.741865
v 0.000016 0.248639 1.740875
v -0.000984 0.247899 1.741865
v -0.000984 0.247410 1.741005
v -0.229924 0.247409 1.741005
v -0.229924 0.247899 1.741865
v -0.230924 0.248639 1.740865
v -0.230924 0.266329 1.740865
v -0.229924 0.265909 1.741865
v -0.229924 0.267409 1.741005
v -0.000984 0.265909 1.741865
v -0.000984 0.267409 -1.741005
v -0.229924 0.267409 -1.741005
v -0.230924 0.266329 -1.740865
v -0.230924 0.248639 -1.740865
v 0.019370 1.041140 0.000870
v 0.001370 1.041140 0.000870
v 0.019370 1.041140 -0.000870
v 0.001000 0.036474 1.741005
v 0.019010 0.036474 1.741005
v 0.020370 1.271576 -0.000000
v 0.020370 1.042638 -0.000000
vn -0.0000 1.0000 -0.0000
vn 0.7108 -0.0000 0.7034
vn 0.7107 -0.0000 -0.7035
vn 0.5540 0.4141 -0.7223
vn -0.5533 0.4152 -0.7221
vn 0.6836 0.6320 0.3651
vn -1.0000 -0.0000 -0.0002
vn -0.0000 -0.8660 0.5000
vn 1.0000 -0.0000 -0.0002
vn -0.0000 0.4973 0.8676
vn -0.7091 -0.0000 0.7052
vn 0.4472 0.8945 -0.0000
vn 0.8321 -0.5547 -0.0000
vn -0.4472 0.8945 -0.0000
vn -0.8321 -0.5547 -0.0000
vn -0.6534 -0.6556 0.3785
vn -0.0000 -0.0000 -1.0000
vn -0.6854 0.6306 0.3640
vn -0.0000 -0.8644 -0.5028
vn 0.7495 -0.5752 0.3277
vn -0.7512 -0.5734 0.3269
vn -0.5500 0.4154 0.7245
vn 0.5500 0.4154 0.7245
vn 0.6836 0.6320 -0.3651
vn -0.6836 0.6321 0.3649
vn -0.6836 0.6321 -0.3649
vn -0.0000 -0.0000 1.0000
vn 0.7069 -0.6126 -0.3535
vn 0.6539 -0.6552 -0.3782
vn 0.7531 -0.5687 -0.3309
vn 0.7053 0.0002 -0.7089
vn -0.7041 -0.6149 0.3551
vn -1.0000 -0.0000 0.0002
vn -0.6538 -0.6553 -0.3784
vn -0.7495 -0.5733 -0.3310
vn 0.7056 0.0002 0.7086
vn -0.0000 0.8660 0.5000
vn -0.7054 -0.6138 0.3545
vn -0.7071 -0.0000 -0.7071
vn -0.0000 -1.0000 -0.0000
vn -0.0000 -0.8645 0.5026
vn -0.0000 -0.8691 0.4947
vn 1.0000 -0.0000 0.0002
vn -0.0000 -0.8660 -0.5000
vn -0.7053 -0.6138 -0.3545
vn 0.6856 0.6304 0.3641
vn -0.0000 0.4974 -0.8675
vn 0.6825 -0.6331 0.3653
vn -0.0000 0.8660 -0.5000
vn 0.8318 -0.5551 -0.0000
vn -0.8318 -0.5551 -0.0000
vn -0.7501 -0.5717 0.3324
vn -0.5539 0.4142 0.7222
vn 0.5541 0.4138 0.7223
vn 0.7533 -0.5686 0.3304
vn 0.6854 0.6305 -0.3642
vn -0.6849 0.6311 -0.3642
vn -0.7052 -0.6140 -0.3546
vn -0.6533 -0.6557 -0.3785
vn -0.7512 -0.5734 -0.3269
vn 0.7498 -0.5748 -0.3277
vn -0.0000 -0.8690 -0.4949
vn 0.6824 -0.6331 -0.3654
vn 0.7072 -0.6123 0.3533
vn 0.6539 -0.6552 0.3782
vn -0.5500 0.4154 -0.7245
vn 0.5500 0.4154 -0.7245
vn -0.6538 -0.6553 0.3784
vn -0.7089 -0.0000 -0.7053
vn -0.7071 -0.0000 0.7071
vn -0.0000 0.4974 0.8675
vt 0.333360 0.162100
vt 0.382120 0.111700
vt 0.381740 0.111330
vt 0.332980 0.161730
vt 0.388350 0.755909
vt 0.377891 0.660275
vt 0.377488 0.660420
vt 0.387959 0.756186
vt 0.388128 0.756253
vt 0.387744 0.756530
vt 0.377283 0.660168
vt 0.377681 0.660018
vt 0.297355 0.606530
vt 0.297735 0.606840
vt 0.297362 0.607082
vt 0.056112 0.633648
vt 0.056440 0.633282
vt 0.056547 0.633768
vt 0.049400 0.045840
vt 0.664236 0.073221
vt 0.664384 0.072788
vt 0.049260 0.045430
vt 0.911776 0.049933
vt 0.900263 0.656526
vt 0.984652 0.609936
vt 0.996250 0.003290
vt 0.046990 0.049260
vt 0.117030 0.052740
vt 0.086591 0.667432
vt 0.016551 0.663952
vt 0.052230 0.040780
vt 0.667298 0.068214
vt 0.664384 0.072793
vt 0.178284 0.597361
vt 0.172858 0.597957
vt 0.172906 0.598470
vt 0.178332 0.597873
vt 0.073060 0.960330
vt 0.073020 0.965810
vt 0.073510 0.965790
vt 0.073590 0.960380
vt -0.009072 0.699958
vt 0.001544 0.796448
vt 0.001982 0.796628
vt -0.008650 0.700013
vt 0.958050 0.000840
vt 0.958580 0.000840
vt 0.958310 0.000500
vt 0.062560 0.994060
vt 0.063090 0.994060
vt 0.062830 0.993510
vt 0.049260 0.993510
vt 0.049530 0.993860
vt 0.049790 0.993510
vt 0.350710 0.173390
vt 0.350980 0.173940
vt 0.351240 0.173390
vt 0.010551 0.012243
vt 0.010111 0.011833
vt 0.616575 0.028953
vt 0.481449 0.225997
vt 0.485193 0.230037
vt 0.433760 0.277686
vt 0.430017 0.273647
vt 0.073310 0.966150
vt 0.679730 0.986329
vt 0.679624 0.985910
vt 0.228457 1.080650
vt 0.228477 1.080870
vt 0.223030 1.081482
vt 0.223010 1.081268
vt 0.104849 0.056735
vt 0.105337 0.056784
vt 0.105261 0.056483
vt 0.101480 0.290056
vt 0.101541 0.289750
vt 0.101053 0.289797
vt 0.064985 0.068732
vt 0.065412 0.068602
vt 0.064969 0.068274
vt 0.070428 0.277490
vt 0.070825 0.277154
vt 0.070413 0.277017
vt 0.620244 0.012891
vt 0.620096 0.012456
vt 0.005070 0.035130
vt 0.004930 0.035540
vt 0.620244 0.012890
vt 0.177385 0.644370
vt 0.187934 0.740257
vt 0.193300 0.739661
vt 0.182750 0.643774
vt 0.667298 0.068218
vt 0.667546 0.067794
vt 0.052710 0.040400
vt 0.193300 0.739662
vt 0.187934 0.740258
vt 0.177384 0.644369
vt 0.182750 0.643773
vt 0.423596 0.940382
vt 0.423264 0.940933
vt 0.423172 0.940630
vt 0.091513 0.204656
vt 0.091077 0.204521
vt 0.094021 0.199983
vt 0.094508 0.200035
vt 0.010580 0.013103
vt 0.616602 0.029813
vt 0.616812 0.030244
vt 0.623126 0.017487
vt 0.007870 0.040210
vt 0.008340 0.040600
vt 0.005635 0.984634
vt 0.005253 0.984209
vt 0.005696 0.984329
vt 0.094136 0.200141
vt 0.091160 0.204682
vt 0.091588 0.204809
vt 0.094616 0.200185
vt 0.172560 0.995030
vt 0.186794 0.379755
vt 0.116688 0.378149
vt 0.102460 0.993430
vt 0.623127 0.017485
vt 0.623366 0.017907
vt 0.087242 0.142486
vt 0.087677 0.142369
vt 0.090652 0.147013
vt 0.090164 0.147048
vt 0.905880 0.000500
vt 0.905880 0.003990
vt 0.906040 0.002190
vt 0.906040 0.002310
vt 0.223124 1.084455
vt 0.228597 1.083769
vt 0.228576 1.083504
vt 0.223103 1.084190
vt 0.257170 -0.017455
vt 0.206171 0.030232
vt 0.206381 0.030463
vt 0.257395 -0.017223
vt 0.679744 0.980481
vt 0.679863 0.980069
vt 0.073430 0.960000
vt 0.010765 0.006619
vt 0.616997 0.023760
vt 0.617158 0.018330
vt 0.010925 0.001189
vt 0.071300 0.997070
vt -0.012824 0.949785
vt -0.019725 0.343117
vt 0.064306 0.390358
vt 0.616998 0.023760
vt 0.178208 0.597365
vt 0.178257 0.597877
vt 0.172837 0.598469
vt 0.172787 0.597957
vt 0.617186 0.012081
vt 0.616956 0.012501
vt 0.010495 -0.004719
vt 0.010955 -0.005109
vt 0.679625 0.985910
vt 0.890432 -0.032051
vt 0.890874 -0.031811
vt 0.890273 -0.033861
vt 0.890273 0.038501
vt 0.890874 0.036451
vt 0.890432 0.036701
vt 0.005102 0.978407
vt 0.005171 0.978188
vt 0.004713 0.978006
vt 0.056474 0.633162
vt 0.056901 0.633315
vt 0.056802 0.632828
vt 0.297267 0.606739
vt 0.297278 0.607272
vt 0.297652 0.607011
vt 0.423361 0.938587
vt 0.422972 0.938839
vt 0.423061 0.939110
vt 0.010578 0.013112
vt 0.616812 0.030253
vt 0.616602 0.029823
vt 0.010552 0.012245
vt 0.616575 0.028956
vt 0.101820 0.290078
vt 0.101407 0.289818
vt 0.101881 0.289772
vt 0.064305 0.390359
vt 0.106487 0.056977
vt 0.106944 0.056733
vt 0.106945 0.057024
vt 0.257145 -0.017277
vt 0.257373 -0.017051
vt 0.206069 0.030528
vt 0.205846 0.030300
vt 0.566527 0.318160
vt 0.566917 0.318566
vt 0.515294 0.366276
vt 0.514905 0.365869
vt 0.616922 0.012501
vt 0.617151 0.012081
vt 0.010953 -0.005106
vt 0.065475 0.068716
vt 0.065460 0.068259
vt 0.065887 0.068587
vt 0.070147 0.277211
vt 0.070147 0.276752
vt 0.070559 0.276891
vt 0.001902 0.795880
vt 0.001465 0.795685
vt -0.009004 0.699764
vt -0.008584 0.699828
vt 0.337790 0.166420
vt 0.386660 0.116130
vt 0.386280 0.115760
vt 0.337420 0.166050
vt 0.086958 0.142552
vt 0.089868 0.147109
vt 0.090371 0.147072
vt 0.087409 0.142433
vt 0.430018 0.273647
vt 0.433763 0.277687
vt 0.514657 0.365956
vt 0.565879 0.318054
vt 0.565529 0.317668
vt 0.514297 0.365563
s 0
f 1/1/1 2/2/1 3/3/1 4/4/1
f 5/5/2 6/6/2 7/7/2 8/8/2
f 9/9/3 10/10/3 11/11/3 12/12/3
f 13/13/4 12/14/4 11/15/4
f 14/16/5 15/17/5 16/18/5
f 2/19/6 17/20/6 18/21/6 19/22/6
f 20/23/7 21/24/7 22/25/7 23/26/7
f 24/27/8 25/28/8 26/29/8 27/30/8
f 19/22/9 28/31/9 29/32/9 30/33/9
f 31/34/10 32/35/10 33/36/10 7/37/10
f 34/38/1 35/39/1 36/40/1 37/41/1
f 22/42/11 21/43/11 38/44/11 33/45/11
f 3/46/12 2/47/12 19/48/12
f 39/49/13 24/50/13 28/51/13
f 4/52/14 40/53/14 1/54/14
f 41/55/15 42/56/15 25/57/15
f 43/58/16 20/59/16 44/60/16
f 45/61/17 46/62/17 47/63/17 48/64/17
f 23/65/18 22/66/18 32/67/18 36/40/18
f 10/68/19 49/69/19 50/70/19 51/71/19
f 52/72/20 53/73/20 54/74/20
f 55/75/21 56/76/21 57/77/21
f 58/78/22 59/79/22 60/80/22
f 17/81/23 61/82/23 18/83/23
f 3/19/24 19/22/24 30/33/24 62/20/24
f 58/84/25 60/85/25 1/86/25 40/87/25
f 40/87/26 4/86/26 63/85/26 64/88/26
f 33/89/27 38/90/27 8/91/27 7/92/27
f 28/31/28 52/93/28 54/94/28
f 28/31/29 54/94/29 39/95/29
f 10/96/17 51/97/17 16/98/17 11/99/17
f 9/100/30 49/101/30 10/102/30
f 47/103/31 30/104/31 29/105/31 48/106/31
f 43/107/32 44/108/32 50/109/32
f 14/25/33 44/24/33 20/23/33 23/26/33
f 57/110/34 42/111/34 41/112/34
f 50/113/35 44/114/35 51/115/35
f 52/116/36 18/117/36 61/118/36 53/119/36
f 1/120/37 60/121/37 17/122/37 2/123/37
f 65/124/38 26/125/38 25/112/38
f 64/126/39 46/127/39 45/128/39 65/129/39
f 66/130/40 67/131/40 43/132/40 68/133/40
f 42/111/7 57/110/7 58/84/7 40/87/7
f 69/134/41 70/135/41 8/136/41 38/137/41
f 55/138/42 54/139/42 53/140/42 56/141/42
f 19/22/43 18/21/43 52/93/43 28/31/43
f 39/27/44 54/30/44 55/29/44 41/28/44
f 55/125/45 57/110/45 41/112/45
f 31/142/46 6/143/46 71/144/46 37/41/46
f 66/145/44 70/146/44 69/147/44 67/148/44
f 71/149/9 72/150/9 9/151/9 12/152/9
f 50/147/8 49/153/8 68/145/8 43/148/8
f 13/154/47 11/155/47 16/156/47 15/157/47
f 49/158/48 9/159/48 72/160/48 68/161/48
f 4/120/49 3/123/49 62/122/49 63/121/49
f 13/142/49 15/162/49 35/40/49 34/41/49
f 68/163/50 72/164/50 66/165/50
f 67/166/51 20/167/51 43/168/51
f 34/38/12 37/41/12 71/144/12
f 36/40/14 35/39/14 23/65/14
f 36/40/37 32/67/37 31/142/37 37/41/37
f 69/169/52 38/170/52 21/171/52
f 22/172/53 33/173/53 32/174/53
f 31/175/54 7/176/54 6/177/54
f 5/178/55 8/179/55 70/180/55
f 34/41/56 71/144/56 12/143/56 13/142/56
f 23/65/57 35/40/57 15/162/57 14/66/57
f 64/88/33 65/124/33 42/111/33 40/87/33
f 67/181/58 69/182/58 21/183/58
f 67/184/59 21/185/59 20/59/59
f 26/186/60 65/187/60 45/188/60
f 71/149/43 6/189/43 5/151/43 72/150/43
f 29/190/61 27/191/61 48/192/61
f 26/193/62 45/194/62 48/195/62 27/196/62
f 46/197/47 63/198/47 62/199/47 47/200/47
f 5/201/63 70/202/63 66/203/63 72/160/63
f 28/31/64 27/94/64 29/32/64
f 28/31/65 24/95/65 27/94/65
f 64/204/66 63/205/66 46/206/66
f 62/207/67 30/208/67 47/209/67
f 65/124/68 25/112/68 42/111/68
f 51/210/69 44/211/69 14/212/69 16/213/69
f 39/214/40 41/215/40 25/216/40 24/217/40
f 58/218/70 57/219/70 56/220/70 59/221/70
f 56/61/27 53/222/27 61/223/27 59/62/27
f 17/224/71 60/225/71 59/226/71 61/227/71
