# Blender 4.0.2
# www.blender.org
mtllib tri_window_5000.mtl
o tri_window_5000
v 0.002000 0.201286 2.059729
v 0.000000 0.202000 2.055766
v 0.002000 0.200000 2.059261
v 0.002000 1.842306 0.104033
v 0.002000 1.841592 0.102501
v 0.000000 1.839303 0.104501
v 0.002000 0.202000 0.102501
v 0.002000 0.200000 0.104501
v 0.000000 0.202000 0.104501
v 0.002000 0.246286 1.936092
v 0.002000 0.245000 1.935624
v 0.000000 0.243000 1.943119
v 0.002000 1.745803 0.149033
v 0.000000 1.751378 0.145501
v 0.002000 1.745089 0.147501
v 0.002000 0.247000 0.147501
v 0.000000 0.243000 0.145501
v 0.002000 0.245000 0.149501
v 0.035000 0.246286 1.936092
v 0.035000 0.245000 1.935624
v 0.035000 1.745089 0.147501
v 0.035000 1.745803 0.149033
v 0.035000 0.245000 0.149501
v 0.035000 0.247000 0.147501
v 0.068000 0.201286 2.059729
v 0.068000 0.200000 2.059261
v 0.070000 0.202000 2.055766
v 0.068000 1.842306 0.104033
v 0.070000 1.839303 0.104501
v 0.068000 1.841592 0.102501
v 0.068000 0.202000 0.102501
v 0.070000 0.202000 0.104501
v 0.068000 0.200000 0.104501
v 0.068000 0.246286 1.936092
v 0.070000 0.243000 1.943119
v 0.068000 0.245000 1.935624
v 0.068000 1.745803 0.149033
v 0.068000 1.745089 0.147501
v 0.070000 1.751378 0.145501
v 0.068000 0.247000 0.147501
v 0.068000 0.245000 0.149501
v 0.070000 0.243000 0.145501
v 0.002000 0.247000 -0.147501
v 0.002000 0.245000 -0.149501
v 0.000000 0.243000 -0.145501
v 0.002000 1.745803 -0.149033
v 0.002000 1.745089 -0.147501
v 0.000000 1.751378 -0.145501
v 0.002000 0.246286 -1.936092
v 0.000000 0.243000 -1.943119
v 0.002000 0.245000 -1.935624
v 0.002000 0.200000 -0.104501
v 0.002000 0.202000 -0.102501
v -0.000000 0.202000 -0.104501
v 0.002000 1.841592 -0.102501
v 0.002000 1.842306 -0.104033
v 0.000000 1.839303 -0.104501
v 0.002000 0.201286 -2.059729
v 0.002000 0.200000 -2.059261
v 0.000000 0.202000 -2.055766
v 0.035000 0.247000 -0.147501
v 0.035000 0.245000 -0.149501
v 0.035000 1.745803 -0.149033
v 0.035000 1.745089 -0.147501
v 0.035000 0.245000 -1.935624
v 0.035000 0.246286 -1.936092
v 0.068000 0.247000 -0.147501
v 0.070000 0.243000 -0.145501
v 0.068000 0.245000 -0.149501
v 0.068000 1.745089 -0.147501
v 0.068000 1.745803 -0.149033
v 0.070000 1.751378 -0.145501
v 0.068000 0.246286 -1.936092
v 0.068000 0.245000 -1.935624
v 0.070000 0.243000 -1.943119
v 0.068000 0.202000 -0.102501
v 0.068000 0.200000 -0.104501
v 0.070000 0.202000 -0.104501
v 0.068000 1.841592 -0.102501
v 0.070000 1.839303 -0.104501
v 0.068000 1.842306 -0.104033
v 0.068000 0.201286 -2.059729
v 0.070000 0.202000 -2.055766
v 0.068000 0.200000 -2.059261
vn -0.0000 -0.0000 1.0000
vn -0.0000 -1.0000 -0.0000
vn -0.0000 -0.7660 -0.6428
vn -0.0000 -0.0000 -1.0000
vn -0.0000 1.0000 -0.0000
vn -1.0000 -0.0000 -0.0000
vn 1.0000 -0.0000 -0.0000
vn -0.0000 -0.7660 0.6428
vn -0.0000 0.7660 -0.6428
vn -0.8930 -0.1540 0.4229
vn -0.8250 0.5122 -0.2388
vn -0.5773 -0.5773 -0.5774
vn -0.9681 0.0857 -0.2355
vn -0.9563 -0.2649 0.1235
vn -0.9045 0.3015 0.3015
vn 0.8930 -0.1540 0.4229
vn 0.8250 0.5122 -0.2388
vn 0.5774 -0.5774 -0.5774
vn 0.9681 0.0857 -0.2355
vn 0.9563 -0.2649 0.1235
vn 0.9045 0.3015 0.3015
vn -0.9045 0.3015 -0.3015
vn -0.9563 -0.2649 -0.1235
vn -0.9681 0.0857 0.2355
vn -0.5773 -0.5774 0.5774
vn -0.8250 0.5122 0.2388
vn -0.8930 -0.1538 -0.4229
vn 0.9045 0.3015 -0.3015
vn 0.9563 -0.2649 -0.1235
vn 0.9681 0.0857 0.2355
vn 0.5773 -0.5773 0.5774
vn 0.8250 0.5122 0.2388
vn 0.8930 -0.1540 -0.4229
vn -0.7071 -0.5417 -0.4545
vn -0.7071 -0.0000 0.7071
vn -0.7071 0.7071 -0.0000
vn -0.7071 0.5417 0.4545
vn -0.7071 -0.0000 -0.7071
vn -0.7071 -0.7071 -0.0000
vn -0.0000 0.7071 0.7071
vn -0.0000 0.3421 -0.9397
vn -0.0000 -0.9063 0.4226
vn 0.7071 -0.5417 -0.4545
vn 0.7071 -0.0000 0.7071
vn 0.7071 0.7071 -0.0000
vn 0.7071 0.5417 0.4545
vn 0.7071 -0.0000 -0.7071
vn 0.7071 -0.7071 -0.0000
vn -0.0000 -0.7071 -0.7071
vn -0.0000 -0.3421 0.9397
vn -0.0000 0.9063 -0.4226
vn -0.0000 0.9063 0.4226
vn -0.0000 -0.9063 -0.4226
vn -0.0000 -0.3421 -0.9397
vn -0.0000 0.7071 -0.7071
vn -0.0000 -0.7071 0.7071
vn -0.0000 0.3421 0.9397
vn -0.7071 -0.5417 0.4545
vn -0.7071 0.5417 -0.4545
vn 0.7071 -0.5417 0.4545
vn 0.7071 0.5417 -0.4545
vn -0.0000 0.7660 0.6428
vt 2.492064 0.077239
vt 2.492058 0.089721
vt 1.919647 0.089417
vt 1.919653 0.076935
vt 1.700073 1.758739
vt 0.953150 1.758739
vt 0.953150 1.733521
vt 1.700073 1.733521
vt 2.360096 1.958137
vt 2.360097 1.970702
vt 1.504050 1.970641
vt 1.504050 1.958201
vt -0.229910 1.660921
vt 0.396586 1.660921
vt 0.396586 1.686140
vt -0.229910 1.686141
vt 1.495506 1.969937
vt 0.639469 1.969938
vt 0.639469 1.957328
vt 1.495505 1.957328
vt 1.083600 2.095344
vt 1.083594 2.082862
vt 1.766066 2.082559
vt 1.766072 2.095040
vt 1.222412 1.914672
vt 1.238078 1.930338
vt 0.492491 1.930338
vt 0.535534 1.914672
vt 0.454655 2.016137
vt 0.421058 2.000471
vt 1.046680 2.000471
vt 1.031014 2.016137
vt 2.492065 0.108757
vt 1.919669 0.108756
vt 1.919670 0.096147
vt 2.492065 0.096147
vt 0.486519 1.930338
vt -0.200359 1.930337
vt -0.243402 1.914671
vt 0.502185 1.914672
vt 1.081648 2.000471
vt 1.658007 2.000471
vt 1.673673 2.016137
vt 1.048052 2.016137
vt 1.658007 2.000470
vt -0.197944 1.795873
vt 0.698712 1.795873
vt 0.732308 1.811539
vt -0.240986 1.811539
vt 1.776607 2.083491
vt 2.459066 2.083491
vt 2.459066 2.096100
vt 1.776607 2.096100
vt -0.197945 1.791739
vt -0.240988 1.776073
vt 0.732308 1.776072
vt 0.698712 1.791738
vt 1.495506 1.969937
vt 0.639469 1.969937
vt 0.639469 1.957328
vt 1.495505 1.957328
vt 1.083600 2.095344
vt 1.766072 2.095040
vt 2.492065 0.108757
vt 1.919669 0.108756
vt 0.698712 1.795873
vt 0.953150 1.758739
vt 0.953150 1.733521
vt 1.700073 1.733521
vt 0.473673 1.601522
vt 1.419599 1.601522
vt 1.419599 1.626741
vt 0.473673 1.626741
vt -0.229910 1.660921
vt 0.396586 1.686140
vt -0.229910 1.686141
vt 1.776607 2.083491
vt 2.459065 2.083491
vt 2.492064 0.077239
vt 1.919653 0.076935
vt 1.238078 1.930338
vt 1.504050 1.958201
vt -0.242323 1.775309
vt -0.242412 1.775555
vt -0.230183 1.686140
vt -0.229035 1.686905
vt 1.700837 1.733521
vt 1.700073 1.732756
vt 1.083421 2.095344
vt 1.082836 2.096100
vt 2.360830 1.957376
vt 2.360359 1.958137
vt 1.029485 2.016901
vt 1.030250 2.016901
vt 0.952971 1.758739
vt 0.954486 1.759504
vt 0.733183 1.812303
vt 0.733320 1.812011
vt 0.396586 1.660157
vt 0.397351 1.660921
vt -0.195080 1.795109
vt -0.195259 1.795109
vt 1.919397 0.108756
vt 1.918905 0.109520
vt 2.459830 2.083491
vt 2.459830 2.082727
vt 2.492829 0.108757
vt 2.492829 0.109521
vt 1.919396 0.108756
vt 0.638735 1.970702
vt 0.639298 1.969938
vt 0.396586 1.660157
vt 1.419864 1.601522
vt 1.418751 1.600758
vt 0.473500 1.601522
vt 0.474968 1.600758
vt 2.360359 1.958137
vt 1.503878 1.958201
vt 1.503316 1.957447
vt 0.397351 1.686140
vt 0.396586 1.686904
vt -0.230183 1.686140
vt 0.474968 1.627505
vt 0.473500 1.626741
vt 1.029485 2.016901
vt 0.457058 2.016901
vt 1.766837 2.095796
vt 0.733183 1.775307
vt 0.420183 1.999707
vt 1.046680 1.999706
vt 0.954486 1.732757
vt 1.766830 2.082558
vt 1.766836 2.095040
vt 1.082835 2.095344
vt 1.082830 2.082862
vt 1.918882 0.089417
vt 1.918889 0.076935
vt 0.696309 1.795109
vt 1.084051 1.999707
vt 1.656478 1.999706
vt 1.775843 2.082727
vt -0.242322 1.812303
vt -0.229035 1.660157
vt 1.700073 1.759504
vt 2.459830 2.096100
vt 1.775843 2.096100
vt 1.775843 2.083491
vt 1.918905 0.108756
vt 1.918905 0.096147
vt 1.700837 1.758740
vt 0.952386 1.758739
vt 0.952386 1.733521
vt -0.230674 1.686140
vt -0.230674 1.660921
vt 1.420340 1.601522
vt 1.420340 1.626741
vt 0.472932 1.626741
vt 0.472932 1.601522
vt -0.244737 1.913907
vt 0.502185 1.913907
vt 2.492829 0.096147
vt 0.638735 1.969937
vt 0.638736 1.957328
vt 0.484991 1.931102
vt -0.197495 1.931102
vt 2.360830 1.958137
vt 2.360831 1.970702
vt 1.496239 1.970701
vt 1.503316 1.970641
vt 1.503316 1.958201
vt 0.538397 1.913907
vt 1.220883 1.913908
vt 1.418751 1.627505
vt 0.396586 1.686904
vt 1.419599 1.601522
vt 0.473673 1.626741
s 0
usemtl plastic_black
f 16/1/1 24/2/1 21/3/1 15/4/1
f 33/5/2 26/6/2 3/7/2 8/8/2
f 13/9/3 22/10/3 19/11/3 10/12/3
f 30/13/4 31/14/4 7/15/4 5/16/4
f 37/17/3 34/18/3 19/19/3 22/20/3
f 11/21/5 20/22/5 23/23/5 18/24/5
f 17/25/6 9/26/6 2/27/6 12/28/6
f 14/29/6 6/30/6 9/31/6 17/32/6
f 40/33/1 38/34/1 21/35/1 24/36/1
f 42/37/7 35/38/7 27/39/7 32/40/7
f 48/41/6 45/42/6 54/43/6 57/44/6
f 39/41/7 42/45/7 32/43/7 29/44/7
f 35/46/7 39/47/7 29/48/7 27/49/7
f 36/50/5 41/51/5 23/52/5 20/53/5
f 12/54/6 2/55/6 6/56/6 14/57/6
f 46/58/8 49/59/8 66/60/8 63/61/8
f 74/62/5 65/22/5 62/23/5 69/63/5
f 43/64/4 47/65/4 64/35/4 61/36/4
f 50/46/6 48/66/6 57/48/6 60/49/6
f 52/5/2 59/67/2 84/68/2 77/69/2
f 58/70/9 56/71/9 81/72/9 82/73/9
f 72/29/7 80/30/7 78/31/7 68/32/7
f 55/74/1 53/14/1 76/75/1 79/76/1
f 45/37/6 50/38/6 60/39/6 54/40/6
f 51/77/5 44/78/5 62/52/5 65/53/5
f 75/54/7 83/55/7 80/56/7 72/57/7
f 67/79/4 61/2/4 64/3/4 70/80/4
f 68/25/7 78/81/7 83/27/7 75/28/7
f 71/9/8 63/10/8 66/11/8 73/82/8
f 1/83/10 2/55/10 3/84/10
f 4/85/11 5/16/11 6/86/11
f 7/87/12 8/8/12 9/88/12
f 10/89/13 11/21/13 12/90/13
f 13/9/14 14/91/14 15/92/14
f 16/93/15 17/32/15 18/94/15
f 25/95/16 26/6/16 27/96/16
f 28/97/17 29/48/17 30/98/17
f 31/14/18 32/99/18 33/100/18
f 34/101/19 35/46/19 36/102/19
f 37/103/20 38/34/20 39/104/20
f 40/105/21 41/51/21 42/106/21
f 43/64/22 44/107/22 45/108/22
f 46/109/23 47/65/23 48/104/23
f 49/59/24 50/110/24 51/111/24
f 52/100/25 53/14/25 54/112/25
f 55/113/26 56/71/26 57/114/26
f 58/70/27 59/115/27 60/116/27
f 67/93/28 68/32/28 69/94/28
f 70/117/29 71/9/29 72/91/29
f 73/82/30 74/118/30 75/119/30
f 76/75/31 77/120/31 78/121/31
f 79/76/32 80/86/32 81/122/32
f 82/73/33 83/123/33 84/124/33
f 12/119/34 14/91/34 13/9/34 10/12/34
f 14/29/35 17/32/35 16/125/35 15/126/35
f 17/127/36 12/90/36 11/21/36 18/24/36
f 1/83/37 4/128/37 6/56/37 2/55/37
f 5/129/38 7/130/38 9/31/38 6/30/38
f 8/8/39 3/7/39 2/131/39 9/88/39
f 18/24/40 23/23/40 24/132/40 16/133/40
f 20/22/41 11/21/41 10/134/41 19/135/41
f 15/4/42 21/3/42 22/136/42 13/137/42
f 34/101/43 37/138/43 39/47/43 35/46/43
f 38/139/44 40/140/44 42/45/44 39/41/44
f 41/51/45 36/50/45 35/141/45 42/106/45
f 27/49/46 29/48/46 28/97/46 25/142/46
f 29/143/47 32/99/47 31/14/47 30/13/47
f 32/144/48 27/96/48 26/6/48 33/5/48
f 40/105/40 24/145/40 23/52/40 41/51/40
f 19/146/41 34/147/41 36/50/41 20/53/41
f 37/148/42 22/149/42 21/35/42 38/34/42
f 7/87/49 31/150/49 33/5/49 8/8/49
f 25/151/50 1/152/50 3/7/50 26/6/50
f 4/153/51 28/154/51 30/13/51 5/16/51
f 81/72/52 56/71/52 55/155/52 79/156/52
f 46/148/53 63/149/53 64/35/53 47/65/53
f 58/70/54 82/73/54 84/157/54 59/158/54
f 54/40/39 60/39/39 59/159/39 52/160/39
f 43/64/55 61/36/55 62/161/55 44/107/55
f 76/75/56 53/14/56 52/100/56 77/120/56
f 66/60/57 49/59/57 51/162/57 65/163/57
f 44/164/36 51/165/36 50/38/36 45/37/36
f 70/166/53 64/167/53 63/10/53 71/9/53
f 47/65/38 43/64/38 45/108/38 48/104/38
f 49/59/58 46/58/58 48/168/58 50/110/58
f 65/169/57 74/170/57 73/82/57 66/11/57
f 69/63/55 62/23/55 61/132/55 67/133/55
f 60/116/59 57/114/59 56/71/59 58/70/59
f 57/143/35 54/99/35 53/14/35 55/74/35
f 77/69/48 84/68/48 83/131/48 78/88/48
f 68/25/45 75/28/45 74/171/45 69/172/45
f 75/119/60 72/91/60 71/9/60 73/82/60
f 72/29/47 68/32/47 67/125/47 70/126/47
f 82/73/61 81/72/61 80/173/61 83/123/61
f 79/76/44 76/75/44 78/174/44 80/86/44
f 25/70/62 28/175/62 4/72/62 1/176/62
