# Blender 4.0.2
# www.blender.org
mtllib roof_tri_window_4000.mtl
o roof_tri_window_4000
v 0.004000 0.202571 1.685799
v -0.000000 0.204000 1.677873
v 0.004000 0.200000 1.684863
v 0.004000 1.528539 0.105564
v 0.004000 1.527110 0.102500
v -0.000000 1.522532 0.106500
v 0.004000 0.204000 0.102500
v 0.004000 0.200000 0.106500
v -0.000000 0.204000 0.106500
v 0.004000 0.242571 1.575900
v 0.004000 0.240000 1.574964
v -0.000000 0.236000 1.589954
v 0.004000 1.442759 0.145564
v -0.000000 1.453908 0.138500
v 0.004000 1.441330 0.142500
v 0.004000 0.244000 0.142500
v -0.000000 0.236000 0.138500
v 0.004000 0.240000 0.146500
v 0.030000 0.242571 1.575900
v 0.030000 0.240000 1.574964
v 0.030000 1.441330 0.142500
v 0.030000 1.442759 0.145564
v 0.030000 0.240000 0.146500
v 0.030000 0.244000 0.142500
v 0.056000 0.202571 1.685799
v 0.056000 0.200000 1.684863
v 0.060000 0.204000 1.677873
v 0.056000 1.528539 0.105564
v 0.060000 1.522532 0.106500
v 0.056000 1.527110 0.102500
v 0.056000 0.204000 0.102500
v 0.060000 0.204000 0.106500
v 0.056000 0.200000 0.106500
v 0.056000 0.242571 1.575900
v 0.060000 0.236000 1.589954
v 0.056000 0.240000 1.574964
v 0.056000 1.442759 0.145564
v 0.056000 1.441330 0.142500
v 0.060000 1.453908 0.138500
v 0.056000 0.244000 0.142500
v 0.056000 0.240000 0.146500
v 0.060000 0.236000 0.138500
v 0.056000 0.202571 -1.685799
v 0.060000 0.204000 -1.677873
v 0.056000 0.200000 -1.684863
v 0.056000 1.528539 -0.105564
v 0.056000 1.527110 -0.102500
v 0.060000 1.522532 -0.106500
v 0.056000 0.204000 -0.102500
v 0.056000 0.200000 -0.106500
v 0.060000 0.204000 -0.106500
v 0.056000 0.242571 -1.575900
v 0.056000 0.240000 -1.574964
v 0.060000 0.236000 -1.589954
v 0.056000 1.442759 -0.145564
v 0.060000 1.453908 -0.138500
v 0.056000 1.441330 -0.142500
v 0.056000 0.244000 -0.142500
v 0.060000 0.236000 -0.138500
v 0.056000 0.240000 -0.146500
v 0.030000 0.242571 -1.575900
v 0.030000 0.240000 -1.574964
v 0.030000 1.441330 -0.142500
v 0.030000 1.442759 -0.145564
v 0.030000 0.240000 -0.146500
v 0.030000 0.244000 -0.142500
v 0.004000 0.202571 -1.685799
v 0.004000 0.200000 -1.684863
v 0.000000 0.204000 -1.677873
v 0.004000 1.528539 -0.105564
v 0.000000 1.522532 -0.106500
v 0.004000 1.527110 -0.102500
v 0.004000 0.204000 -0.102500
v -0.000000 0.204000 -0.106500
v 0.004000 0.200000 -0.106500
v 0.004000 0.242571 -1.575900
v 0.000000 0.236000 -1.589954
v 0.004000 0.240000 -1.574964
v 0.004000 1.442759 -0.145564
v 0.004000 1.441330 -0.142500
v 0.000000 1.453908 -0.138500
v 0.004000 0.244000 -0.142500
v 0.004000 0.240000 -0.146500
v 0.000000 0.236000 -0.138500
vn -0.0000 -0.0000 1.0000
vn -0.0000 -1.0000 -0.0000
vn -0.0000 -0.7660 -0.6428
vn -0.0000 -0.0000 -1.0000
vn -0.0000 1.0000 -0.0000
vn -1.0000 -0.0000 -0.0000
vn 1.0000 -0.0000 -0.0000
vn -0.0000 0.7660 -0.6428
vn -0.0000 -0.7660 0.6428
vn -0.8930 -0.1539 0.4229
vn -0.8250 0.5122 -0.2388
vn -0.5774 -0.5774 -0.5773
vn -0.9681 0.0857 -0.2355
vn -0.9563 -0.2649 0.1235
vn -0.9045 0.3015 0.3015
vn 0.8930 -0.1540 0.4229
vn 0.8250 0.5122 -0.2388
vn 0.5773 -0.5774 -0.5773
vn 0.9681 0.0857 -0.2355
vn 0.9563 -0.2649 0.1235
vn 0.9045 0.3015 0.3015
vn 0.8930 -0.1540 -0.4229
vn 0.8250 0.5122 0.2388
vn 0.5773 -0.5774 0.5773
vn 0.9681 0.0857 0.2355
vn 0.9563 -0.2649 -0.1235
vn 0.9045 0.3015 -0.3015
vn -0.8930 -0.1539 -0.4229
vn -0.8250 0.5122 0.2388
vn -0.5774 -0.5774 0.5773
vn -0.9681 0.0857 0.2355
vn -0.9563 -0.2649 -0.1235
vn -0.9045 0.3015 -0.3015
vn -0.7071 -0.5417 -0.4545
vn -0.7071 -0.0000 0.7071
vn -0.7071 0.7071 -0.0000
vn -0.7071 0.5417 0.4545
vn -0.7071 -0.0000 -0.7071
vn -0.7071 -0.7071 -0.0000
vn -0.0000 0.7071 0.7071
vn -0.0000 0.3420 -0.9397
vn -0.0000 -0.9063 0.4226
vn 0.7071 -0.5417 -0.4545
vn 0.7071 -0.0000 0.7071
vn 0.7071 0.7071 -0.0000
vn 0.7071 0.5417 0.4545
vn 0.7071 -0.0000 -0.7071
vn 0.7071 -0.7071 -0.0000
vn -0.0000 -0.7071 -0.7071
vn -0.0000 -0.3421 0.9397
vn -0.0000 0.9063 -0.4226
vn 0.7071 -0.5417 0.4545
vn 0.7071 0.5417 -0.4545
vn -0.0000 0.7071 -0.7071
vn -0.0000 0.3421 0.9397
vn -0.0000 -0.9063 -0.4226
vn -0.7071 -0.5417 0.4545
vn -0.7071 0.5417 -0.4545
vn -0.0000 0.3420 0.9397
vn -0.0000 -0.7071 0.7071
vn -0.0000 -0.3420 -0.9397
vn -0.0000 0.9063 0.4226
vn -0.0000 0.7660 0.6428
vt 0.358165 0.192957
vt 0.358165 0.178341
vt 1.031255 0.178341
vt 1.031255 0.192957
vt 0.016572 0.836670
vt 0.903863 0.836670
vt 0.903863 0.865902
vt 0.016572 0.865902
vt 0.254928 0.228916
vt 0.254928 0.214300
vt 1.043326 0.214300
vt 1.043326 0.228916
vt 1.099748 0.264875
vt 0.355950 0.264875
vt 0.355950 0.235642
vt 1.099748 0.235642
vt 0.254928 0.199684
vt 1.043326 0.199684
vt 1.043326 0.214300
vt 0.254928 0.214300
vt 0.819959 0.872628
vt 0.819959 0.887245
vt 0.016935 0.887245
vt 0.016935 0.872628
vt 0.630092 0.955790
vt 0.648081 0.973779
vt -0.235281 0.973779
vt -0.185856 0.955789
vt 1.062022 0.124955
vt 1.100600 0.142944
vt 0.359374 0.142944
vt 0.377363 0.124955
vt 0.358165 0.163724
vt 1.031255 0.163725
vt 1.031255 0.178341
vt 0.358165 0.178341
vt 0.630092 0.997751
vt -0.185856 0.997751
vt -0.235281 0.979762
vt 0.648081 0.979762
vt 0.803748 0.829943
vt -0.070749 0.829943
vt -0.070749 0.800711
vt 0.803748 0.800711
vt 1.062021 0.302901
vt 0.377363 0.302901
vt 0.359374 0.284912
vt 1.100600 0.284912
vt -0.128360 1.063226
vt 0.936782 1.063224
vt 0.975359 1.081214
vt -0.177785 1.081216
vt 0.819959 0.901860
vt 0.016935 0.901861
vt 0.016935 0.887245
vt 0.819959 0.887244
vt -0.128361 0.794427
vt -0.177785 0.776439
vt 0.975360 0.776442
vt 0.936782 0.794430
vt 0.358165 0.192957
vt 1.031255 0.192957
vt 0.016572 0.836670
vt 0.903863 0.836670
vt 0.254928 0.228916
vt 1.043326 0.214300
vt 1.099748 0.264875
vt 0.355950 0.264875
vt 0.355950 0.235642
vt 1.043326 0.199684
vt 0.819959 0.872628
vt 0.016935 0.872628
vt 0.358165 0.163724
vt 0.358165 0.178341
vt 0.648081 0.979762
vt -0.128360 1.063226
vt 0.975359 1.081214
vt 0.819959 0.901861
vt 0.975360 0.776442
vt 0.936782 0.794431
vt -0.181715 0.774190
vt -0.177785 0.776439
vt -0.181978 0.774913
vt 1.100551 0.235642
vt 1.097175 0.233394
vt 0.014323 0.865902
vt 0.016572 0.868151
vt 0.820485 0.872628
vt 0.822208 0.870380
vt 0.253239 0.231164
vt 0.254325 0.228916
vt 0.381861 0.122706
vt 0.379612 0.122706
vt 0.904389 0.836670
vt 0.899934 0.834421
vt 0.977933 1.083463
vt 0.978335 1.082602
vt 0.355950 0.267123
vt 0.353701 0.264875
vt 1.045015 0.197435
vt 1.043721 0.199684
vt 1.032058 0.163725
vt 1.033504 0.161476
vt 0.014687 0.901861
vt 0.014687 0.904110
vt 0.929711 0.796679
vt 0.930514 0.796679
vt 0.977933 1.083463
vt 0.978335 1.082601
vt 0.353701 0.264875
vt 1.045015 0.197435
vt 1.043721 0.199684
vt 0.014687 0.901861
vt 1.045015 0.231164
vt 0.381861 0.122706
vt 1.054951 0.122706
vt 0.014686 0.870380
vt 0.977934 0.774193
vt 1.103173 0.145192
vt 0.359374 0.145193
vt 0.899934 0.868150
vt 0.014686 0.887245
vt 0.014686 0.872628
vt 0.822208 0.872628
vt 0.822208 0.887245
vt 1.033504 0.178341
vt 1.033504 0.192957
vt 0.253239 0.197435
vt 0.355916 0.161476
vt 0.822208 0.904109
vt 0.977933 1.083463
vt -0.181714 1.083465
vt 1.097175 0.267123
vt 0.016572 0.834421
vt 0.014686 0.887245
vt 0.822208 0.887244
vt 0.822208 0.901861
vt 1.033504 0.163725
vt 1.033504 0.178341
vt 0.014323 0.836670
vt 0.906112 0.836670
vt 0.906112 0.865902
vt 1.101997 0.235642
vt 1.101997 0.264875
vt -0.119934 0.796676
vt 0.977934 0.774193
vt 0.648081 0.976027
vt -0.239210 0.976027
vt 0.822208 0.872628
vt 0.014323 0.836670
vt 0.906112 0.836670
vt 0.906112 0.865902
vt -0.070749 0.829943
vt -0.070749 0.800711
s 0
usemtl white
f 16/1/1 24/2/1 21/3/1 15/4/1
f 33/5/2 26/6/2 3/7/2 8/8/2
f 13/9/3 22/10/3 19/11/3 10/12/3
f 30/13/4 31/14/4 7/15/4 5/16/4
f 37/17/3 34/18/3 19/19/3 22/20/3
f 11/21/5 20/22/5 23/23/5 18/24/5
f 17/25/6 9/26/6 2/27/6 12/28/6
f 14/29/6 6/30/6 9/31/6 17/32/6
f 40/33/1 38/34/1 21/35/1 24/36/1
f 42/37/7 35/38/7 27/39/7 32/40/7
f 67/41/8 70/42/8 46/43/8 43/44/8
f 39/45/7 42/46/7 32/47/7 29/48/7
f 35/49/7 39/50/7 29/51/7 27/52/7
f 36/53/5 41/54/5 23/55/5 20/56/5
f 12/57/6 2/58/6 6/59/6 14/60/6
f 58/61/4 66/2/4 63/3/4 57/62/4
f 75/63/2 68/64/2 45/7/2 50/8/2
f 55/65/9 64/10/9 61/66/9 52/12/9
f 72/67/1 73/68/1 49/69/1 47/16/1
f 79/17/9 76/70/9 61/19/9 64/20/9
f 53/71/5 62/22/5 65/23/5 60/72/5
f 59/25/7 51/26/7 44/27/7 54/28/7
f 56/29/7 48/30/7 51/31/7 59/32/7
f 82/73/4 80/34/4 63/35/4 66/74/4
f 84/37/6 77/38/6 69/39/6 74/75/6
f 81/45/6 84/46/6 74/47/6 71/48/6
f 77/76/6 81/50/6 71/77/6 69/52/6
f 78/78/5 83/54/5 65/55/5 62/56/5
f 54/57/7 44/58/7 48/79/7 56/80/7
f 1/81/10 2/82/10 3/83/10
f 4/84/11 5/16/11 6/85/11
f 7/86/12 8/8/12 9/87/12
f 10/88/13 11/21/13 12/89/13
f 13/9/14 14/90/14 15/91/14
f 16/92/15 17/32/15 18/93/15
f 25/94/16 26/6/16 27/95/16
f 28/96/17 29/51/17 30/97/17
f 31/14/18 32/98/18 33/99/18
f 34/18/19 35/100/19 36/101/19
f 37/102/20 38/34/20 39/103/20
f 40/104/21 41/54/21 42/105/21
f 43/81/22 44/82/22 45/83/22
f 46/84/23 47/16/23 48/85/23
f 49/86/24 50/8/24 51/87/24
f 52/88/25 53/71/25 54/89/25
f 55/106/26 56/80/26 57/107/26
f 58/92/27 59/32/27 60/93/27
f 67/94/28 68/64/28 69/95/28
f 70/108/29 71/77/29 72/109/29
f 73/68/30 74/98/30 75/110/30
f 76/70/31 77/111/31 78/112/31
f 79/102/32 80/34/32 81/103/32
f 82/113/33 83/54/33 84/105/33
f 12/114/34 14/90/34 13/9/34 10/12/34
f 14/29/35 17/32/35 16/115/35 15/116/35
f 17/117/36 12/89/36 11/21/36 18/24/36
f 1/81/37 4/118/37 6/59/37 2/58/37
f 5/119/38 7/120/38 9/31/38 6/30/38
f 8/8/39 3/7/39 2/121/39 9/87/39
f 18/24/40 23/23/40 24/122/40 16/123/40
f 20/22/41 11/21/41 10/124/41 19/125/41
f 15/4/42 21/3/42 22/126/42 13/127/42
f 34/18/43 37/17/43 39/128/43 35/100/43
f 38/34/44 40/33/44 42/129/44 39/103/44
f 41/54/45 36/53/45 35/130/45 42/105/45
f 27/52/46 29/51/46 28/131/46 25/132/46
f 29/133/47 32/98/47 31/14/47 30/13/47
f 32/134/48 27/95/48 26/6/48 33/5/48
f 40/104/40 24/135/40 23/55/40 41/54/40
f 19/136/41 34/137/41 36/53/41 20/56/41
f 37/138/42 22/139/42 21/35/42 38/34/42
f 7/86/49 31/140/49 33/5/49 8/8/49
f 25/141/50 1/142/50 3/7/50 26/6/50
f 4/143/51 28/144/51 30/13/51 5/16/51
f 54/57/52 56/80/52 55/106/52 52/145/52
f 56/29/47 59/32/47 58/115/47 57/116/47
f 59/117/45 54/89/45 53/71/45 60/72/45
f 43/81/53 46/146/53 48/79/53 44/58/53
f 47/119/44 49/120/44 51/31/44 48/30/44
f 50/147/48 45/148/48 44/27/48 51/26/48
f 60/72/54 65/23/54 66/122/54 58/123/54
f 62/22/55 53/71/55 52/149/55 61/125/55
f 57/62/56 63/3/56 64/126/56 55/127/56
f 76/70/57 79/17/57 81/128/57 77/111/57
f 80/34/38 82/73/38 84/129/38 81/103/38
f 83/54/36 78/78/36 77/130/36 84/105/36
f 69/52/58 71/77/58 70/108/58 67/132/58
f 71/133/35 74/98/35 73/68/35 72/67/35
f 74/134/39 69/95/39 68/64/39 75/63/39
f 82/113/54 66/135/54 65/55/54 83/54/54
f 61/136/59 76/137/59 78/78/59 62/56/59
f 79/138/56 64/139/56 63/35/56 80/34/56
f 49/86/60 73/150/60 75/63/60 50/8/60
f 67/151/61 43/152/61 45/7/61 68/64/61
f 46/143/62 70/144/62 72/67/62 47/16/62
f 25/41/63 28/153/63 4/154/63 1/44/63
