# Blender 4.0.2
# www.blender.org
mtllib roof_tri_window_4000.mtl
o roof_tri_window_4000
v 0.004000 0.202571 1.755799
v -0.000000 0.204000 1.747873
v 0.004000 0.200000 1.754863
v 0.004000 1.587283 0.105564
v 0.004000 1.585854 0.102500
v -0.000000 1.581276 0.106500
v 0.004000 0.204000 0.102500
v 0.004000 0.200000 0.106500
v -0.000000 0.204000 0.106500
v 0.004000 0.242571 1.645900
v 0.004000 0.240000 1.644964
v -0.000000 0.236000 1.659954
v 0.004000 1.501503 0.145564
v -0.000000 1.512652 0.138500
v 0.004000 1.500074 0.142500
v 0.004000 0.244000 0.142500
v -0.000000 0.236000 0.138500
v 0.004000 0.240000 0.146500
v 0.030000 0.242571 1.645900
v 0.030000 0.240000 1.644964
v 0.030000 1.500074 0.142500
v 0.030000 1.501503 0.145564
v 0.030000 0.240000 0.146500
v 0.030000 0.244000 0.142500
v 0.056000 0.202571 1.755799
v 0.056000 0.200000 1.754863
v 0.060000 0.204000 1.747873
v 0.056000 1.587283 0.105564
v 0.060000 1.581276 0.106500
v 0.056000 1.585854 0.102500
v 0.056000 0.204000 0.102500
v 0.060000 0.204000 0.106500
v 0.056000 0.200000 0.106500
v 0.056000 0.242571 1.645900
v 0.060000 0.236000 1.659954
v 0.056000 0.240000 1.644964
v 0.056000 1.501503 0.145564
v 0.056000 1.500074 0.142500
v 0.060000 1.512652 0.138500
v 0.056000 0.244000 0.142500
v 0.056000 0.240000 0.146500
v 0.060000 0.236000 0.138500
v 0.056000 0.202571 -1.755799
v 0.060000 0.204000 -1.747873
v 0.056000 0.200000 -1.754863
v 0.056000 1.587283 -0.105564
v 0.056000 1.585854 -0.102500
v 0.060000 1.581276 -0.106500
v 0.056000 0.204000 -0.102500
v 0.056000 0.200000 -0.106500
v 0.060000 0.204000 -0.106500
v 0.056000 0.242571 -1.645900
v 0.056000 0.240000 -1.644964
v 0.060000 0.236000 -1.659954
v 0.056000 1.501503 -0.145564
v 0.060000 1.512652 -0.138500
v 0.056000 1.500074 -0.142500
v 0.056000 0.244000 -0.142500
v 0.060000 0.236000 -0.138500
v 0.056000 0.240000 -0.146500
v 0.030000 0.242571 -1.645900
v 0.030000 0.240000 -1.644964
v 0.030000 1.500074 -0.142500
v 0.030000 1.501503 -0.145564
v 0.030000 0.240000 -0.146500
v 0.030000 0.244000 -0.142500
v 0.004000 0.202571 -1.755799
v 0.004000 0.200000 -1.754863
v 0.000000 0.204000 -1.747873
v 0.004000 1.587283 -0.105564
v 0.000000 1.581276 -0.106500
v 0.004000 1.585854 -0.102500
v 0.004000 0.204000 -0.102500
v -0.000000 0.204000 -0.106500
v 0.004000 0.200000 -0.106500
v 0.004000 0.242571 -1.645900
v 0.000000 0.236000 -1.659954
v 0.004000 0.240000 -1.644964
v 0.004000 1.501503 -0.145564
v 0.004000 1.500074 -0.142500
v 0.000000 1.512652 -0.138500
v 0.004000 0.244000 -0.142500
v 0.004000 0.240000 -0.146500
v 0.000000 0.236000 -0.138500
vn -0.0000 -0.0000 1.0000
vn -0.0000 -1.0000 -0.0000
vn -0.0000 -0.7660 -0.6428
vn -0.0000 -0.0000 -1.0000
vn -0.0000 1.0000 -0.0000
vn -1.0000 -0.0000 -0.0000
vn 1.0000 -0.0000 -0.0000
vn -0.0000 0.7660 -0.6428
vn -0.0000 -0.7660 0.6428
vn -0.8930 -0.1539 0.4229
vn -0.8250 0.5122 -0.2388
vn -0.5773 -0.5774 -0.5773
vn -0.9681 0.0857 -0.2355
vn -0.9563 -0.2649 0.1235
vn -0.9045 0.3015 0.3015
vn 0.8930 -0.1540 0.4229
vn 0.8250 0.5122 -0.2388
vn 0.5773 -0.5774 -0.5773
vn 0.9681 0.0857 -0.2355
vn 0.9563 -0.2649 0.1235
vn 0.9045 0.3015 0.3015
vn 0.8930 -0.1540 -0.4229
vn 0.8250 0.5122 0.2388
vn 0.5773 -0.5774 0.5773
vn 0.9681 0.0857 0.2355
vn 0.9563 -0.2649 -0.1235
vn 0.9045 0.3015 -0.3015
vn -0.8930 -0.1539 -0.4229
vn -0.8250 0.5122 0.2388
vn -0.5774 -0.5774 0.5773
vn -0.9681 0.0857 0.2355
vn -0.9563 -0.2649 -0.1235
vn -0.9045 0.3015 -0.3015
vn -0.7071 -0.5417 -0.4545
vn -0.7071 -0.0000 0.7071
vn -0.7071 0.7071 -0.0000
vn -0.7071 0.5417 0.4545
vn -0.7071 -0.0000 -0.7071
vn -0.7071 -0.7071 -0.0000
vn -0.0000 0.7071 0.7071
vn -0.0000 0.3420 -0.9397
vn -0.0000 -0.9063 0.4226
vn 0.7071 -0.5417 -0.4545
vn 0.7071 -0.0000 0.7071
vn 0.7071 0.7071 -0.0000
vn 0.7071 0.5417 0.4545
vn 0.7071 -0.0000 -0.7071
vn 0.7071 -0.7071 -0.0000
vn -0.0000 -0.7071 -0.7071
vn -0.0000 -0.3420 0.9397
vn -0.0000 0.9063 -0.4226
vn 0.7071 -0.5417 0.4545
vn 0.7071 0.5417 -0.4545
vn -0.0000 0.7071 -0.7071
vn -0.0000 0.3420 0.9397
vn -0.0000 -0.9063 -0.4226
vn -0.7071 -0.5417 0.4545
vn -0.7071 0.5417 -0.4545
vn -0.0000 -0.7071 0.7071
vn -0.0000 -0.3420 -0.9397
vn -0.0000 0.9063 0.4226
vn -0.0000 0.7660 0.6428
vt 0.358165 0.192957
vt 0.358165 0.178341
vt 1.064279 0.178341
vt 1.064278 0.192957
vt 0.016572 0.836670
vt 0.943214 0.836670
vt 0.943214 0.865902
vt 0.016572 0.865902
vt 0.238977 0.228916
vt 0.238977 0.214300
vt 1.066411 0.214300
vt 1.066411 0.228916
vt 1.132771 0.264875
vt 0.355950 0.264875
vt 0.355950 0.235642
vt 1.132772 0.235642
vt 0.238977 0.199684
vt 1.066411 0.199684
vt 1.066411 0.214300
vt 0.238977 0.214300
vt 0.859311 0.872628
vt 0.859310 0.887245
vt 0.016935 0.887245
vt 0.016935 0.872628
vt 0.630092 0.955790
vt 0.648081 0.973779
vt -0.274632 0.973779
vt -0.225207 0.955789
vt 1.095045 0.124955
vt 1.133623 0.142944
vt 0.359374 0.142944
vt 0.377364 0.124955
vt 0.358165 0.163724
vt 1.064278 0.163725
vt 1.064279 0.178341
vt 0.630092 0.997751
vt -0.225207 0.997751
vt -0.274632 0.979762
vt 0.648081 0.979762
vt 0.826883 0.829943
vt -0.086763 0.829943
vt -0.086763 0.800711
vt 0.826883 0.800711
vt 1.095045 0.302901
vt 0.377363 0.302901
vt 0.359374 0.284912
vt 1.133623 0.284912
vt -0.158505 1.088521
vt 0.958009 1.088523
vt 0.996587 1.106513
vt -0.207930 1.106511
vt 0.859310 0.901861
vt 0.016935 0.901861
vt 0.016935 0.887245
vt 0.859310 0.887244
vt -0.158506 0.769134
vt -0.207930 0.751145
vt 0.996588 0.751145
vt 0.958010 0.769133
vt 0.358165 0.192957
vt 0.016572 0.836670
vt 0.943214 0.865902
vt 0.016572 0.865902
vt 1.132772 0.264875
vt 0.355950 0.235642
vt 1.132772 0.235642
vt 1.066411 0.199684
vt 0.016935 0.872628
vt 0.648081 0.973779
vt 0.358165 0.163724
vt 0.648081 0.979762
vt 0.859310 0.901861
vt 0.958010 0.769134
vt -0.211860 0.748897
vt -0.212123 0.749619
vt 1.133575 0.235642
vt 1.130198 0.233394
vt 0.014323 0.865902
vt 0.016572 0.868151
vt 0.859836 0.872628
vt 0.861559 0.870380
vt 0.237287 0.231164
vt 0.238373 0.228916
vt 0.381861 0.122706
vt 0.377363 0.124955
vt 0.379612 0.122706
vt 0.943740 0.836670
vt 0.939285 0.834421
vt 0.999160 1.108762
vt 0.999562 1.107900
vt 0.355950 0.267123
vt 0.353701 0.264875
vt 1.068101 0.197435
vt 1.066806 0.199684
vt 1.065082 0.163725
vt 1.066527 0.161476
vt 0.014687 0.901861
vt 0.014687 0.904110
vt 0.950939 0.771382
vt 0.951742 0.771382
vt 0.353701 0.264875
vt 1.066806 0.199684
vt 0.014687 0.901861
vt 1.068101 0.231164
vt 1.087975 0.122706
vt 0.014686 0.870380
vt 0.999162 0.748896
vt 1.136196 0.145192
vt 0.359374 0.145193
vt 0.939285 0.868150
vt 0.014686 0.887245
vt 0.014686 0.872628
vt 0.861559 0.872628
vt 0.861559 0.887245
vt 1.066527 0.178341
vt 1.066527 0.192957
vt 0.237287 0.197435
vt 0.355916 0.161476
vt 0.861559 0.904109
vt -0.211859 1.108760
vt 1.130198 0.267123
vt 0.016572 0.834421
vt 0.014686 0.887245
vt 0.861559 0.887244
vt 0.861559 0.901861
vt 1.066527 0.163725
vt 1.066527 0.178341
vt 0.014323 0.836670
vt 0.945463 0.836670
vt 0.945463 0.865902
vt 1.135020 0.235642
vt 1.135020 0.264875
vt -0.150079 0.771382
vt 0.648081 0.976027
vt -0.278561 0.976027
vt 0.861559 0.872628
vt 1.066527 0.163725
vt 0.014323 0.836670
vt 0.945463 0.836670
vt 0.945463 0.865902
vt 1.135020 0.235642
vt 0.826883 0.800711
s 0
usemtl white
f 16/1/1 24/2/1 21/3/1 15/4/1
f 33/5/2 26/6/2 3/7/2 8/8/2
f 13/9/3 22/10/3 19/11/3 10/12/3
f 30/13/4 31/14/4 7/15/4 5/16/4
f 37/17/3 34/18/3 19/19/3 22/20/3
f 11/21/5 20/22/5 23/23/5 18/24/5
f 17/25/6 9/26/6 2/27/6 12/28/6
f 14/29/6 6/30/6 9/31/6 17/32/6
f 40/33/1 38/34/1 21/35/1 24/2/1
f 42/36/7 35/37/7 27/38/7 32/39/7
f 67/40/8 70/41/8 46/42/8 43/43/8
f 39/44/7 42/45/7 32/46/7 29/47/7
f 35/48/7 39/49/7 29/50/7 27/51/7
f 36/52/5 41/53/5 23/54/5 20/55/5
f 12/56/6 2/57/6 6/58/6 14/59/6
f 58/60/4 66/2/4 63/3/4 57/4/4
f 75/61/2 68/6/2 45/62/2 50/63/2
f 55/9/9 64/10/9 61/11/9 52/12/9
f 72/64/1 73/14/1 49/65/1 47/66/1
f 79/17/9 76/67/9 61/19/9 64/20/9
f 53/21/5 62/22/5 65/23/5 60/68/5
f 59/25/7 51/69/7 44/27/7 54/28/7
f 56/29/7 48/30/7 51/31/7 59/32/7
f 82/70/4 80/34/4 63/35/4 66/2/4
f 84/36/6 77/37/6 69/38/6 74/71/6
f 81/44/6 84/45/6 74/46/6 71/47/6
f 77/48/6 81/49/6 71/50/6 69/51/6
f 78/72/5 83/53/5 65/54/5 62/55/5
f 54/56/7 44/57/7 48/58/7 56/73/7
f 1/74/10 2/57/10 3/75/10
f 4/76/11 5/16/11 6/77/11
f 7/78/12 8/8/12 9/79/12
f 10/80/13 11/21/13 12/81/13
f 13/9/14 14/82/14 15/83/14
f 16/84/15 17/85/15 18/86/15
f 25/87/16 26/6/16 27/88/16
f 28/89/17 29/50/17 30/90/17
f 31/14/18 32/91/18 33/92/18
f 34/18/19 35/93/19 36/94/19
f 37/95/20 38/34/20 39/96/20
f 40/97/21 41/53/21 42/98/21
f 43/74/22 44/57/22 45/75/22
f 46/76/23 47/66/23 48/77/23
f 49/78/24 50/63/24 51/79/24
f 52/80/25 53/21/25 54/81/25
f 55/99/26 56/73/26 57/100/26
f 58/84/27 59/85/27 60/86/27
f 67/87/28 68/6/28 69/88/28
f 70/89/29 71/50/29 72/90/29
f 73/14/30 74/91/30 75/101/30
f 76/67/31 77/93/31 78/102/31
f 79/95/32 80/34/32 81/96/32
f 82/103/33 83/53/33 84/98/33
f 12/104/34 14/82/34 13/9/34 10/12/34
f 14/29/35 17/32/35 16/84/35 15/105/35
f 17/106/36 12/81/36 11/21/36 18/24/36
f 1/74/37 4/107/37 6/58/37 2/57/37
f 5/108/38 7/109/38 9/31/38 6/30/38
f 8/8/39 3/7/39 2/110/39 9/79/39
f 18/24/40 23/23/40 24/111/40 16/112/40
f 20/22/41 11/21/41 10/113/41 19/114/41
f 15/4/42 21/3/42 22/115/42 13/116/42
f 34/18/43 37/17/43 39/117/43 35/93/43
f 38/34/44 40/33/44 42/118/44 39/96/44
f 41/53/45 36/52/45 35/119/45 42/98/45
f 27/51/46 29/50/46 28/89/46 25/120/46
f 29/121/47 32/91/47 31/14/47 30/13/47
f 32/122/48 27/88/48 26/6/48 33/5/48
f 40/97/40 24/123/40 23/54/40 41/53/40
f 19/124/41 34/125/41 36/52/41 20/55/41
f 37/126/42 22/127/42 21/35/42 38/34/42
f 7/78/49 31/128/49 33/5/49 8/8/49
f 25/129/50 1/130/50 3/7/50 26/6/50
f 4/131/51 28/132/51 30/13/51 5/16/51
f 54/56/52 56/73/52 55/99/52 52/133/52
f 56/29/47 59/32/47 58/84/47 57/105/47
f 59/106/45 54/81/45 53/21/45 60/68/45
f 43/74/53 46/107/53 48/58/53 44/57/53
f 47/108/44 49/109/44 51/31/44 48/30/44
f 50/134/48 45/135/48 44/27/48 51/69/48
f 60/68/54 65/23/54 66/111/54 58/112/54
f 62/22/55 53/21/55 52/136/55 61/114/55
f 57/4/56 63/3/56 64/115/56 55/116/56
f 76/67/57 79/17/57 81/117/57 77/93/57
f 80/34/38 82/70/38 84/118/38 81/96/38
f 83/53/36 78/72/36 77/119/36 84/98/36
f 69/51/58 71/50/58 70/89/58 67/120/58
f 71/121/35 74/91/35 73/14/35 72/64/35
f 74/122/39 69/88/39 68/6/39 75/61/39
f 82/103/54 66/123/54 65/54/54 83/53/54
f 61/124/55 76/125/55 78/72/55 62/55/55
f 79/137/56 64/127/56 63/35/56 80/34/56
f 49/78/59 73/138/59 75/61/59 50/63/59
f 67/139/60 43/140/60 45/62/60 68/6/60
f 46/141/61 70/132/61 72/64/61 47/66/61
f 25/40/62 28/41/62 4/42/62 1/142/62
