# Blender 4.0.2
# www.blender.org
mtllib roof_tri_window_4500.mtl
o roof_tri_window_4500
v 0.004000 0.202571 2.005799
v -0.000000 0.204000 1.997873
v 0.004000 0.200000 2.004863
v 0.004000 1.797058 0.105564
v 0.004000 1.795629 0.102500
v -0.000000 1.791051 0.106500
v 0.004000 0.204000 0.102500
v 0.004000 0.200000 0.106500
v -0.000000 0.204000 0.106500
v 0.004000 0.242571 1.895900
v 0.004000 0.240000 1.894964
v -0.000000 0.236000 1.909954
v 0.004000 1.711278 0.145564
v -0.000000 1.722427 0.138500
v 0.004000 1.709849 0.142500
v 0.004000 0.244000 0.142500
v -0.000000 0.236000 0.138500
v 0.004000 0.240000 0.146500
v 0.030000 0.242571 1.895900
v 0.030000 0.240000 1.894964
v 0.030000 1.709849 0.142500
v 0.030000 1.711278 0.145564
v 0.030000 0.240000 0.146500
v 0.030000 0.244000 0.142500
v 0.056000 0.202571 2.005799
v 0.056000 0.200000 2.004863
v 0.060000 0.204000 1.997873
v 0.056000 1.797058 0.105564
v 0.060000 1.791051 0.106500
v 0.056000 1.795629 0.102500
v 0.056000 0.204000 0.102500
v 0.060000 0.204000 0.106500
v 0.056000 0.200000 0.106500
v 0.056000 0.242571 1.895900
v 0.060000 0.236000 1.909954
v 0.056000 0.240000 1.894964
v 0.056000 1.711278 0.145564
v 0.056000 1.709849 0.142500
v 0.060000 1.722427 0.138500
v 0.056000 0.244000 0.142500
v 0.056000 0.240000 0.146500
v 0.060000 0.236000 0.138500
v 0.056000 0.202571 -2.005799
v 0.060000 0.204000 -1.997873
v 0.056000 0.200000 -2.004863
v 0.056000 1.797058 -0.105564
v 0.056000 1.795629 -0.102500
v 0.060000 1.791051 -0.106500
v 0.056000 0.204000 -0.102500
v 0.056000 0.200000 -0.106500
v 0.060000 0.204000 -0.106500
v 0.056000 0.242571 -1.895900
v 0.056000 0.240000 -1.894964
v 0.060000 0.236000 -1.909954
v 0.056000 1.711278 -0.145564
v 0.060000 1.722427 -0.138500
v 0.056000 1.709849 -0.142500
v 0.056000 0.244000 -0.142500
v 0.060000 0.236000 -0.138500
v 0.056000 0.240000 -0.146500
v 0.030000 0.242571 -1.895900
v 0.030000 0.240000 -1.894964
v 0.030000 1.709849 -0.142500
v 0.030000 1.711278 -0.145564
v 0.030000 0.240000 -0.146500
v 0.030000 0.244000 -0.142500
v 0.004000 0.202571 -2.005799
v 0.004000 0.200000 -2.004863
v 0.000000 0.204000 -1.997873
v 0.004000 1.797058 -0.105564
v 0.000000 1.791051 -0.106500
v 0.004000 1.795629 -0.102500
v 0.004000 0.204000 -0.102500
v -0.000000 0.204000 -0.106500
v 0.004000 0.200000 -0.106500
v 0.004000 0.242571 -1.895900
v 0.000000 0.236000 -1.909954
v 0.004000 0.240000 -1.894964
v 0.004000 1.711278 -0.145564
v 0.004000 1.709849 -0.142500
v 0.000000 1.722427 -0.138500
v 0.004000 0.244000 -0.142500
v 0.004000 0.240000 -0.146500
v 0.000000 0.236000 -0.138500
vn -0.0000 -0.0000 1.0000
vn -0.0000 -1.0000 -0.0000
vn -0.0000 -0.7660 -0.6428
vn -0.0000 -0.0000 -1.0000
vn -0.0000 1.0000 -0.0000
vn -1.0000 -0.0000 -0.0000
vn 1.0000 -0.0000 -0.0000
vn -0.0000 0.7660 -0.6428
vn -0.0000 -0.7660 0.6428
vn -0.8930 -0.1539 0.4229
vn -0.8250 0.5122 -0.2388
vn -0.5773 -0.5774 -0.5773
vn -0.9681 0.0857 -0.2355
vn -0.9563 -0.2649 0.1235
vn -0.9045 0.3015 0.3015
vn 0.8930 -0.1539 0.4229
vn 0.8250 0.5122 -0.2388
vn 0.5773 -0.5774 -0.5773
vn 0.9681 0.0857 -0.2355
vn 0.9563 -0.2649 0.1235
vn 0.9045 0.3015 0.3015
vn 0.8930 -0.1539 -0.4229
vn 0.8250 0.5122 0.2388
vn 0.5773 -0.5774 0.5773
vn 0.9681 0.0857 0.2355
vn 0.9563 -0.2649 -0.1235
vn 0.9045 0.3015 -0.3015
vn -0.8930 -0.1539 -0.4229
vn -0.8250 0.5122 0.2388
vn -0.5774 -0.5774 0.5773
vn -0.9681 0.0857 0.2355
vn -0.9563 -0.2649 -0.1235
vn -0.9045 0.3015 -0.3015
vn -0.7071 -0.5417 -0.4545
vn -0.7071 -0.0000 0.7071
vn -0.7071 0.7071 -0.0000
vn -0.7071 0.5417 0.4545
vn -0.7071 -0.0000 -0.7071
vn -0.7071 -0.7071 -0.0000
vn -0.0000 0.7071 0.7071
vn -0.0000 0.3420 -0.9397
vn -0.0000 -0.9063 0.4226
vn 0.7071 -0.5417 -0.4545
vn 0.7071 -0.0000 0.7071
vn 0.7071 0.7071 -0.0000
vn 0.7071 0.5417 0.4545
vn 0.7071 -0.0000 -0.7071
vn 0.7071 -0.7071 -0.0000
vn -0.0000 -0.7071 -0.7071
vn -0.0000 -0.3420 0.9397
vn -0.0000 0.9063 -0.4226
vn 0.7071 -0.5417 0.4545
vn 0.7071 0.5417 -0.4545
vn -0.0000 0.7071 -0.7071
vn -0.0000 0.3420 0.9397
vn -0.0000 -0.9063 -0.4226
vn -0.7071 -0.5417 0.4545
vn -0.7071 0.5417 -0.4545
vn -0.0000 -0.7071 0.7071
vn -0.0000 -0.3420 -0.9397
vn -0.0000 0.9063 0.4226
vn -0.0000 0.7660 0.6428
vt 0.358165 0.192957
vt 0.358165 0.178341
vt 1.182205 0.178341
vt 1.182205 0.192957
vt 0.016572 0.836670
vt 1.083754 0.836670
vt 1.083754 0.865902
vt 0.016572 0.865902
vt 0.187342 0.228916
vt 0.187342 0.214300
vt 1.147328 0.214300
vt 1.147328 0.228916
vt 1.250699 0.264875
vt 0.355950 0.264875
vt 0.355950 0.235642
vt 1.250699 0.235642
vt 0.187343 0.199684
vt 1.147328 0.199684
vt 1.147328 0.214300
vt 0.187342 0.214300
vt 0.999850 0.872628
vt 0.999850 0.887244
vt 0.016935 0.887245
vt 0.016935 0.872629
vt 0.630092 0.955790
vt 0.648081 0.973779
vt -0.415172 0.973779
vt -0.365747 0.955790
vt 1.212972 0.124955
vt 1.251550 0.142944
vt 0.359374 0.142944
vt 0.377364 0.124955
vt 0.358165 0.163724
vt 1.182205 0.163724
vt 1.182206 0.178341
vt 0.358165 0.178341
vt 0.630092 0.997751
vt -0.365747 0.997751
vt -0.415172 0.979762
vt 0.648081 0.979762
vt 0.908115 0.829943
vt -0.139062 0.829943
vt -0.139062 0.800711
vt 0.908114 0.800711
vt 1.212972 0.302901
vt 0.377363 0.302901
vt 0.359374 0.284912
vt 1.251550 0.284912
vt -0.266165 1.178862
vt 1.033812 1.178865
vt 1.072389 1.196855
vt -0.315589 1.196852
vt 0.999850 0.901860
vt 0.016935 0.901861
vt 0.016935 0.887245
vt 0.999850 0.887244
vt -0.266165 0.678799
vt -0.315589 0.660810
vt 1.072392 0.660809
vt 1.033814 0.678798
vt 0.358165 0.192957
vt 1.182205 0.192957
vt 0.016572 0.836670
vt 1.083754 0.836670
vt 0.187342 0.228916
vt 0.355950 0.264875
vt 0.355950 0.235642
vt 0.187343 0.199684
vt 1.147328 0.199684
vt 0.016935 0.872628
vt 0.648081 0.973779
vt 0.358165 0.163724
vt 1.182205 0.163725
vt 0.648081 0.979762
vt 0.359374 0.284912
vt 0.999850 0.901861
vt 0.016935 0.901861
vt 1.033814 0.678798
vt -0.319519 0.658561
vt -0.319782 0.659284
vt 1.251502 0.235642
vt 1.248125 0.233394
vt 0.014323 0.865902
vt 0.016572 0.868151
vt 1.000376 0.872628
vt 1.002099 0.870380
vt 0.185662 0.231164
vt 0.186742 0.228916
vt 0.381861 0.122706
vt 0.377363 0.124955
vt 0.379612 0.122706
vt 1.084280 0.836670
vt 1.079825 0.834421
vt 1.074963 1.199104
vt 1.075365 1.198242
vt 0.355950 0.267123
vt 0.353701 0.264875
vt 1.149009 0.197435
vt 1.147721 0.199683
vt 1.183009 0.163725
vt 1.184454 0.161476
vt 0.014687 0.901861
vt 0.014687 0.904110
vt 1.000376 0.872628
vt 1.026743 0.681047
vt 1.027546 0.681047
vt 1.074963 1.199103
vt 1.075365 1.198242
vt 0.353701 0.264875
vt 1.147721 0.199684
vt 1.183009 0.163725
vt 0.014687 0.901861
vt 1.149009 0.231164
vt 1.205902 0.122706
vt 0.014686 0.870380
vt -0.319519 0.658561
vt 1.074965 0.658561
vt 1.254123 0.145192
vt 0.359374 0.145193
vt 1.079825 0.868150
vt 0.014686 0.887245
vt 0.014686 0.872628
vt 1.002099 0.872628
vt 1.002099 0.887244
vt 1.184454 0.178341
vt 1.184454 0.192957
vt 0.185662 0.197435
vt 0.355916 0.161476
vt 1.002099 0.904109
vt -0.319519 1.199101
vt 1.248125 0.267123
vt 0.016572 0.834421
vt 0.014686 0.887245
vt 1.002099 0.887244
vt 1.002099 0.901861
vt 1.184454 0.163725
vt 1.184454 0.178341
vt 0.014323 0.836670
vt 1.086003 0.836670
vt 1.086003 0.865902
vt 1.252947 0.235642
vt 1.252947 0.264875
vt 1.026742 0.681047
vt -0.257738 0.681047
vt 0.648081 0.976027
vt -0.419101 0.976027
vt 1.002099 0.872628
vt 1.002099 0.901860
vt 0.014323 0.836670
vt 1.086003 0.865902
vt 1.252947 0.235642
vt 0.908115 0.829943
vt 0.908114 0.800711
s 0
usemtl white
f 16/1/1 24/2/1 21/3/1 15/4/1
f 33/5/2 26/6/2 3/7/2 8/8/2
f 13/9/3 22/10/3 19/11/3 10/12/3
f 30/13/4 31/14/4 7/15/4 5/16/4
f 37/17/3 34/18/3 19/19/3 22/20/3
f 11/21/5 20/22/5 23/23/5 18/24/5
f 17/25/6 9/26/6 2/27/6 12/28/6
f 14/29/6 6/30/6 9/31/6 17/32/6
f 40/33/1 38/34/1 21/35/1 24/36/1
f 42/37/7 35/38/7 27/39/7 32/40/7
f 67/41/8 70/42/8 46/43/8 43/44/8
f 39/45/7 42/46/7 32/47/7 29/48/7
f 35/49/7 39/50/7 29/51/7 27/52/7
f 36/53/5 41/54/5 23/55/5 20/56/5
f 12/57/6 2/58/6 6/59/6 14/60/6
f 58/61/4 66/2/4 63/3/4 57/62/4
f 75/63/2 68/64/2 45/7/2 50/8/2
f 55/65/9 64/10/9 61/11/9 52/12/9
f 72/13/1 73/66/1 49/67/1 47/16/1
f 79/68/9 76/69/9 61/19/9 64/20/9
f 53/21/5 62/22/5 65/23/5 60/70/5
f 59/25/7 51/71/7 44/27/7 54/28/7
f 56/29/7 48/30/7 51/31/7 59/32/7
f 82/72/4 80/73/4 63/35/4 66/36/4
f 84/37/6 77/38/6 69/39/6 74/74/6
f 81/45/6 84/46/6 74/75/6 71/48/6
f 77/49/6 81/50/6 71/51/6 69/52/6
f 78/76/5 83/77/5 65/55/5 62/56/5
f 54/57/7 44/58/7 48/59/7 56/78/7
f 1/79/10 2/58/10 3/80/10
f 4/81/11 5/16/11 6/82/11
f 7/83/12 8/8/12 9/84/12
f 10/85/13 11/21/13 12/86/13
f 13/9/14 14/87/14 15/88/14
f 16/89/15 17/90/15 18/91/15
f 25/92/16 26/6/16 27/93/16
f 28/94/17 29/51/17 30/95/17
f 31/14/18 32/96/18 33/97/18
f 34/18/19 35/98/19 36/99/19
f 37/100/20 38/34/20 39/101/20
f 40/102/21 41/54/21 42/103/21
f 43/79/22 44/58/22 45/80/22
f 46/81/23 47/16/23 48/82/23
f 49/83/24 50/8/24 51/84/24
f 52/104/25 53/21/25 54/86/25
f 55/105/26 56/78/26 57/106/26
f 58/89/27 59/90/27 60/91/27
f 67/92/28 68/64/28 69/93/28
f 70/107/29 71/51/29 72/108/29
f 73/66/30 74/96/30 75/109/30
f 76/69/31 77/98/31 78/110/31
f 79/111/32 80/73/32 81/101/32
f 82/112/33 83/77/33 84/103/33
f 12/113/34 14/87/34 13/9/34 10/12/34
f 14/29/35 17/32/35 16/89/35 15/114/35
f 17/115/36 12/86/36 11/21/36 18/24/36
f 1/116/37 4/117/37 6/59/37 2/58/37
f 5/118/38 7/119/38 9/31/38 6/30/38
f 8/8/39 3/7/39 2/120/39 9/84/39
f 18/24/40 23/23/40 24/121/40 16/122/40
f 20/22/41 11/21/41 10/123/41 19/124/41
f 15/4/42 21/3/42 22/125/42 13/126/42
f 34/18/43 37/17/43 39/127/43 35/98/43
f 38/34/44 40/33/44 42/128/44 39/101/44
f 41/54/45 36/53/45 35/129/45 42/103/45
f 27/52/46 29/51/46 28/107/46 25/130/46
f 29/131/47 32/96/47 31/14/47 30/13/47
f 32/132/48 27/93/48 26/6/48 33/5/48
f 40/102/40 24/133/40 23/55/40 41/54/40
f 19/134/41 34/135/41 36/53/41 20/56/41
f 37/136/42 22/137/42 21/35/42 38/34/42
f 7/83/49 31/138/49 33/5/49 8/8/49
f 25/139/50 1/140/50 3/7/50 26/6/50
f 4/141/51 28/142/51 30/13/51 5/16/51
f 54/57/52 56/78/52 55/143/52 52/144/52
f 56/29/47 59/32/47 58/89/47 57/114/47
f 59/115/45 54/86/45 53/21/45 60/70/45
f 43/116/53 46/117/53 48/59/53 44/58/53
f 47/118/44 49/119/44 51/31/44 48/30/44
f 50/145/48 45/146/48 44/27/48 51/71/48
f 60/70/54 65/23/54 66/121/54 58/122/54
f 62/22/55 53/21/55 52/147/55 61/124/55
f 57/62/56 63/3/56 64/125/56 55/126/56
f 76/69/57 79/68/57 81/127/57 77/98/57
f 80/73/38 82/72/38 84/128/38 81/101/38
f 83/77/36 78/76/36 77/129/36 84/103/36
f 69/52/58 71/51/58 70/107/58 67/130/58
f 71/131/35 74/96/35 73/66/35 72/13/35
f 74/132/39 69/93/39 68/64/39 75/63/39
f 82/112/54 66/133/54 65/55/54 83/77/54
f 61/134/55 76/148/55 78/76/55 62/56/55
f 79/136/56 64/137/56 63/35/56 80/73/56
f 49/83/59 73/149/59 75/63/59 50/8/59
f 67/139/60 43/150/60 45/7/60 68/64/60
f 46/151/61 70/142/61 72/13/61 47/16/61
f 25/152/62 28/42/62 4/43/62 1/153/62
