# Blender 4.0.2
# www.blender.org
mtllib zadeldak_roof_bulk_4500.mtl
o zadeldak_roof_bulk_4500
v 0.024150 1.585775 -0.000870
v -0.023850 1.585775 -0.000870
v -0.023850 1.585775 0.000870
v 0.024150 1.585775 0.000860
v -0.024870 0.147113 -2.491714
v -0.024850 1.585275 -0.000000
v -0.023860 0.148183 -2.491854
v -0.024870 0.032713 -2.491854
v -0.023860 0.146683 -2.492724
v -0.023860 0.033223 -2.492724
v -0.023850 1.354825 0.000870
v -0.023850 1.354825 -0.000870
v 0.024150 1.354825 -0.000870
v 0.024150 1.354825 0.000870
v 0.024140 0.146683 -2.492724
v 0.024140 0.033223 -2.492724
v -0.024870 0.033223 -2.293714
v -0.024850 1.356325 -0.000000
v -0.023870 0.032223 -2.293714
v 0.024130 0.032223 -2.293714
v 0.024130 0.033223 -2.292724
v -0.023870 0.033223 -2.292724
v 0.025130 0.147113 -2.491714
v 0.025150 1.585275 -0.000000
v 0.025150 1.470795 -0.000000
v 0.025150 1.356325 -0.000000
v 0.025130 0.033223 -2.293714
v 0.025130 0.032713 -2.491854
v 0.024140 0.032223 -2.491714
v -0.023860 0.032223 -2.491714
v 0.024140 0.148183 -2.491854
v -0.024870 0.147112 2.491714
v -0.023860 0.148182 2.491854
v -0.024870 0.032712 2.491854
v -0.023860 0.033222 2.492724
v -0.023860 0.146682 2.492724
v 0.024140 0.033222 2.492724
v 0.024140 0.146682 2.492724
v -0.024870 0.033222 2.293714
v -0.023870 0.032222 2.293714
v -0.023870 0.033222 2.292724
v 0.024130 0.033222 2.292724
v 0.024130 0.032222 2.293714
v 0.025130 0.147112 2.491714
v 0.025130 0.032712 2.491854
v 0.025130 0.033222 2.293714
v -0.023860 0.032222 2.491714
v 0.024140 0.032222 2.491714
v 0.024140 0.148182 2.491854
vn -0.0000 1.0000 -0.0000
vn -0.6801 0.6349 -0.3665
vn -0.6813 0.0004 -0.7320
vn -0.0000 -1.0000 -0.0000
vn -0.0000 -0.0000 -1.0000
vn -1.0000 -0.0000 -0.0000
vn -0.0000 -0.7036 0.7106
vn 1.0000 -0.0000 -0.0000
vn -0.0000 -0.7106 -0.7036
vn 0.6838 0.6320 -0.3648
vn -0.0000 -0.8663 0.4995
vn -0.5755 -0.5754 0.5812
vn -0.5754 -0.5751 0.5815
vn 0.5755 -0.5754 0.5812
vn 0.8320 -0.5548 -0.0000
vn -0.8320 -0.5548 -0.0000
vn -0.8323 -0.5543 -0.0000
vn -0.4472 0.8945 -0.0000
vn 0.4471 0.8945 -0.0000
vn 0.2445 -0.6887 -0.6826
vn -0.2400 -0.6899 -0.6829
vn -0.5458 0.4206 -0.7247
vn 0.5535 0.4180 -0.7204
vn -0.5955 -0.8033 0.0010
vn -0.6541 -0.6553 0.3779
vn -0.6542 -0.6549 0.3783
vn -0.4435 -0.7764 0.4479
vn -0.4434 -0.7766 0.4476
vn -0.0000 0.5017 -0.8651
vn 0.6540 -0.6553 0.3780
vn 0.4434 -0.7765 0.4478
vn 0.5994 -0.8005 0.0010
vn -0.0000 0.8661 -0.4998
vn 0.6886 0.0004 -0.7252
vn -0.6801 0.6350 0.3665
vn -0.6813 0.0005 0.7320
vn -0.0000 -0.0000 1.0000
vn -0.0000 -0.7036 -0.7106
vn -0.0000 -0.7106 0.7036
vn 0.6828 0.6328 0.3652
vn -0.0000 -0.8663 -0.4995
vn -0.5755 -0.5754 -0.5812
vn 0.5755 -0.5754 -0.5812
vn 0.2446 -0.6890 0.6822
vn -0.2400 -0.6899 0.6829
vn -0.5458 0.4204 0.7248
vn 0.5535 0.4180 0.7204
vn -0.5955 -0.8033 -0.0010
vn -0.6541 -0.6553 -0.3779
vn -0.6542 -0.6550 -0.3782
vn -0.4435 -0.7764 -0.4479
vn -0.4435 -0.7766 -0.4474
vn -0.0000 0.5017 0.8650
vn 0.6540 -0.6553 -0.3780
vn 0.4433 -0.7765 -0.4478
vn 0.5994 -0.8005 -0.0010
vn 0.0001 0.8661 0.4998
vn 0.6886 0.0004 0.7252
vt -0.186778 0.264730
vt -0.186778 0.250570
vt -0.187278 0.250540
vt -0.187278 0.264770
vt 0.660886 0.250527
vt -0.186958 0.250200
vt 0.660777 0.250939
vt 0.586519 0.464126
vt 0.553177 0.463832
vt 0.553315 0.464239
vt 0.586381 0.464503
vt 0.888820 0.150340
vt 0.888780 0.149820
vt 0.874710 0.149140
vt 0.874620 0.149650
vt 0.582900 0.318273
vt 0.549410 0.318273
vt 0.549420 0.332437
vt 0.582910 0.332437
vt -0.003098 0.146122
vt -0.021583 0.174386
vt 0.027497 0.206216
vt 0.808100 0.249010
vt 0.845030 0.192400
vt 1.179265 0.272175
vt 1.186386 0.259938
vt 1.186027 0.259729
vt 1.178906 0.271966
vt 1.105822 0.242604
vt 0.256670 0.262460
vt 0.274250 0.291330
vt 0.291820 0.320190
vt 1.073365 0.301717
vt 1.123415 0.271430
vt 0.153458 0.469921
vt 0.156672 0.483670
vt 0.157079 0.483571
vt 0.153862 0.469822
vt 0.660757 0.264615
vt -0.186948 0.265100
vt 0.660869 0.265028
vt 0.552699 0.435880
vt -0.225138 0.435880
vt -0.225138 0.450050
vt 0.552699 0.450054
vt 1.159376 0.306609
vt 1.159738 0.306410
vt 1.159378 0.306196
vt 1.206220 0.227682
vt 1.206576 0.227889
vt 1.206590 0.227472
vt 0.874190 0.149230
vt 0.889280 0.149960
vt 0.142172 0.422892
vt 0.141733 0.423004
vt 0.142105 0.423230
vt 0.166485 0.527154
vt 0.166256 0.527534
vt 0.166666 0.527419
vt 0.620218 0.408728
vt 0.620729 0.408771
vt 0.620570 0.408382
vt 0.615627 0.241249
vt 0.615788 0.240850
vt 0.615295 0.240889
vt 0.580053 0.428375
vt 0.522907 0.440805
vt 0.523015 0.441115
vt 0.580138 0.428781
vt 0.554216 0.448397
vt -0.225578 0.450440
vt 0.553225 0.452068
vt 0.553480 0.452355
vt 0.636298 0.317898
vt 0.636305 0.331923
vt 0.636800 0.331921
vt 0.636794 0.317897
vt 0.554506 0.437220
vt -0.225588 0.435490
vt 0.553425 0.433318
vt 0.553177 0.433597
vt 0.492780 0.304522
vt 0.549937 0.292250
vt 0.549845 0.291840
vt 0.492749 0.304194
vt 0.659492 0.264720
vt 0.659492 0.250568
vt 0.506899 0.366589
vt 0.509906 0.380439
vt 0.567041 0.368059
vt 0.564034 0.354209
vt 0.555529 0.184704
vt 0.588974 0.184381
vt 0.588843 0.184009
vt 0.555673 0.184302
vt 0.660922 0.250930
vt 0.660811 0.251340
vt 0.587526 0.463942
vt 0.587389 0.464318
vt 0.554106 0.464162
vt 0.553966 0.463756
vt -0.003097 0.146123
vt 1.179561 0.272859
vt 1.179200 0.272649
vt 1.186303 0.260375
vt 1.186664 0.260586
vt 0.153832 0.469833
vt 0.154228 0.469738
vt 0.157467 0.483522
vt 0.157070 0.483617
vt 0.660867 0.264488
vt 0.660980 0.264898
vt 1.159428 0.305155
vt 1.159428 0.304749
vt 1.159787 0.304951
vt 1.207130 0.226478
vt 1.207502 0.226266
vt 1.207493 0.226690
vt 0.143776 0.422809
vt 0.143721 0.423132
vt 0.143377 0.422896
vt 0.166462 0.527562
vt 0.166653 0.527825
vt 0.166235 0.527936
vt 0.619998 0.409416
vt 0.620349 0.409079
vt 0.620509 0.409468
vt 0.616565 0.241884
vt 0.616222 0.241544
vt 0.616718 0.241502
vt 0.579812 0.428608
vt 0.579896 0.429016
vt 0.522792 0.441323
vt 0.522683 0.441011
vt 0.554222 0.448400
vt 0.553204 0.452283
vt 0.553461 0.452572
vt 0.635700 0.318005
vt 0.636197 0.318002
vt 0.636181 0.331976
vt 0.635684 0.331979
vt 0.554508 0.437218
vt 0.553387 0.433557
vt 0.553139 0.433848
vt 0.493482 0.303926
vt 0.493456 0.303594
vt 0.550553 0.291193
vt 0.550642 0.291607
vt 0.554760 0.184215
vt 0.554901 0.183813
vt 0.588030 0.183492
vt 0.588166 0.183864
s 0
usemtl checker
f 1/1/1 2/2/1 3/3/1 4/4/1
f 5/5/2 6/6/2 2/2/2 7/7/2
f 8/8/3 5/9/3 9/10/3 10/11/3
f 11/12/4 12/13/4 13/14/4 14/15/4
f 10/16/5 9/17/5 15/18/5 16/19/5
f 5/20/6 8/21/6 17/22/6 18/23/6 6/24/6
f 19/25/7 20/26/7 21/27/7 22/28/7
f 23/29/8 24/30/8 25/31/8 26/32/8 27/33/8 28/34/8
f 10/35/9 16/36/9 29/37/9 30/38/9
f 31/39/10 1/1/10 24/40/10 23/41/10
f 21/42/11 13/43/11 12/44/11 22/45/11
f 17/46/12 19/47/13 22/48/12
f 21/49/14 20/50/14 27/51/14
f 14/15/15 13/14/15 26/52/15
f 12/13/16 11/12/16 18/53/17
f 3/3/18 2/2/18 6/6/18
f 1/1/19 4/4/19 24/40/19
f 29/54/20 16/55/20 28/56/20
f 8/57/21 10/58/21 30/59/21
f 7/60/22 9/61/22 5/62/22
f 23/63/23 15/64/23 31/65/23
f 17/66/24 8/67/24 30/68/24 19/69/24
f 22/70/25 12/44/25 18/71/26
f 22/72/27 18/71/28 17/73/27
f 7/74/29 31/75/29 15/76/29 9/77/29
f 27/78/30 26/79/30 13/43/30
f 27/80/31 13/43/31 21/81/31
f 28/82/32 27/83/32 20/84/32 29/85/32
f 31/86/33 7/87/33 2/2/33 1/1/33
f 30/88/4 29/89/4 20/90/4 19/91/4
f 23/92/34 28/93/34 16/94/34 15/95/34
f 32/96/35 33/97/35 3/2/35 6/6/35
f 34/98/36 35/99/36 36/100/36 32/101/36
f 35/16/37 37/19/37 38/18/37 36/17/37
f 32/102/6 6/24/6 18/23/6 39/22/6 34/21/6
f 40/103/38 41/104/38 42/105/38 43/106/38
f 44/29/8 45/34/8 46/33/8 26/32/8 25/31/8 24/30/8
f 35/107/39 47/108/39 48/109/39 37/110/39
f 49/111/40 44/112/40 24/40/40 4/1/40
f 42/42/41 41/45/41 11/44/41 14/43/41
f 39/113/42 41/114/42 40/115/42
f 42/116/43 46/117/43 43/118/43
f 48/119/44 45/120/44 37/121/44
f 34/122/45 47/123/45 35/124/45
f 33/125/46 32/126/46 36/127/46
f 44/128/47 49/129/47 38/130/47
f 39/131/48 40/132/48 47/133/48 34/134/48
f 41/135/49 18/71/50 11/44/49
f 41/136/51 39/137/51 18/71/52
f 33/138/53 36/139/53 38/140/53 49/141/53
f 46/142/54 14/43/54 26/79/54
f 46/143/55 42/144/55 14/43/55
f 45/145/56 48/146/56 43/147/56 46/148/56
f 49/86/57 4/1/57 3/2/57 33/87/57
f 47/88/4 40/91/4 43/90/4 48/89/4
f 44/149/58 38/150/58 37/151/58 45/152/58
