# Blender 4.0.2
# www.blender.org
mtllib zadeldak_roof_bulk_2000.mtl
o zadeldak_roof_bulk_2000
v 0.024150 0.633542 -0.000000
v 0.025150 0.863992 -0.000000
v 0.025150 0.635042 -0.000000
v -0.023850 0.633542 -0.000000
v 0.024150 0.864492 0.000860
v -0.023850 0.864492 -0.000000
v 0.024150 0.864492 -0.000000
v -0.024850 0.863992 -0.000000
v 0.025150 0.749512 -0.000000
v 0.025130 0.147112 1.239530
v -0.023850 0.633542 0.000870
v -0.024870 0.032712 1.239670
v -0.024870 0.033222 1.041530
v 0.025130 0.033222 1.041530
v 0.025130 0.032712 1.239670
v -0.024870 0.147112 1.239530
v 0.024140 0.148182 1.239670
v 0.024140 0.146682 1.240540
v -0.023870 0.032222 1.041530
v -0.023860 0.032222 1.239530
v -0.023860 0.033222 1.240540
v 0.024130 0.033222 1.040540
v -0.023850 0.864492 0.000870
v -0.024850 0.635042 -0.000000
v 0.024150 0.633542 0.000870
v -0.023860 0.148182 1.239670
v -0.023860 0.146682 1.240540
v 0.024140 0.032222 1.239530
v 0.024130 0.032222 1.041530
v 0.024140 0.033222 1.240540
v -0.023870 0.033222 1.040540
v 0.024150 0.864492 -0.000860
v 0.025130 0.147112 -1.239530
v -0.023850 0.633542 -0.000870
v -0.024870 0.032712 -1.239670
v -0.024870 0.033222 -1.041530
v 0.025130 0.033222 -1.041530
v 0.025130 0.032712 -1.239670
v -0.024870 0.147112 -1.239530
v 0.024140 0.148182 -1.239670
v 0.024140 0.146682 -1.240540
v -0.023870 0.032222 -1.041530
v -0.023860 0.032222 -1.239530
v -0.023860 0.033222 -1.240540
v 0.024130 0.033222 -1.040540
v -0.023850 0.864492 -0.000870
v 0.024150 0.633542 -0.000870
v -0.023860 0.148182 -1.239670
v -0.023860 0.146682 -1.240540
v 0.024140 0.032222 -1.239530
v 0.024130 0.032222 -1.041530
v 0.024140 0.033222 -1.240540
v -0.023870 0.033222 -1.040540
vn -0.0000 1.0000 -0.0000
vn 0.8320 -0.5547 -0.0000
vn -0.8320 -0.5547 -0.0000
vn -0.4473 0.8944 -0.0000
vn 0.4471 0.8945 -0.0000
vn -0.0000 -1.0000 -0.0000
vn -0.6801 0.6346 0.3670
vn -0.6813 0.0005 0.7320
vn -0.0000 -0.0000 1.0000
vn -1.0000 -0.0000 -0.0000
vn -0.0000 -0.7036 -0.7106
vn 1.0000 -0.0000 -0.0000
vn -0.0000 -0.7106 0.7035
vn 0.6828 0.6325 0.3658
vn -0.0000 -0.8660 -0.5000
vn -0.5754 -0.5754 -0.5812
vn 0.5754 -0.5754 -0.5812
vn 0.2445 -0.6890 0.6822
vn -0.2400 -0.6899 0.6830
vn -0.5459 0.4203 0.7248
vn 0.5536 0.4177 0.7204
vn -0.5955 -0.8033 -0.0010
vn -0.6537 -0.6553 -0.3784
vn -0.4439 -0.7759 -0.4483
vn -0.0000 0.5017 0.8650
vn 0.6535 -0.6554 -0.3787
vn 0.4436 -0.7761 -0.4481
vn 0.5994 -0.8005 -0.0010
vn 0.0001 0.8657 0.5006
vn 0.6886 0.0004 0.7252
vn 0.8320 -0.5548 -0.0000
vn -0.8320 -0.5548 -0.0000
vn -0.4472 0.8944 -0.0000
vn 0.4472 0.8944 -0.0000
vn -0.6801 0.6346 -0.3670
vn -0.6810 0.0003 -0.7323
vn -0.0000 -0.0000 -1.0000
vn -0.0000 -0.7036 0.7106
vn -0.0000 -0.7106 -0.7035
vn 0.6828 0.6325 -0.3658
vn -0.0000 -0.8660 0.5000
vn -0.5755 -0.5753 0.5812
vn 0.5755 -0.5753 0.5812
vn 0.2445 -0.6890 -0.6822
vn -0.2400 -0.6899 -0.6830
vn -0.5459 0.4203 -0.7248
vn 0.5536 0.4177 -0.7204
vn -0.5955 -0.8033 0.0010
vn -0.6537 -0.6553 0.3784
vn -0.4439 -0.7759 0.4483
vn -0.0000 0.5017 -0.8650
vn 0.6535 -0.6554 0.3787
vn 0.4436 -0.7761 0.4481
vn 0.5994 -0.8005 0.0010
vn 0.0001 0.8657 -0.5006
vn 0.6886 0.0004 -0.7252
vt 0.131060 0.756110
vt 0.116865 0.756110
vt 0.116850 0.756360
vt 0.131080 0.756360
vt 0.874620 0.149650
vt 0.874665 0.149395
vt 0.874190 0.149230
vt 0.888800 0.150080
vt 0.888820 0.150340
vt 0.889280 0.149960
vt 0.116510 0.756040
vt 0.131410 0.756030
vt 0.116384 0.333672
vt 0.116793 0.333784
vt 0.116880 0.755860
vt 0.364746 0.222012
vt 0.364620 0.222385
vt 0.331123 0.222397
vt 0.330971 0.221994
vt 0.369999 0.318277
vt 0.370009 0.332433
vt 0.336519 0.332434
vt 0.336509 0.318277
vt 0.422882 0.169733
vt 0.845030 0.192400
vt 0.808100 0.249010
vt 0.453473 0.229823
vt 0.404394 0.197993
vt 0.822876 0.064849
vt 0.822518 0.064637
vt 0.829637 0.052402
vt 0.829995 0.052614
vt 0.679316 0.252945
vt 0.696909 0.281769
vt 0.646861 0.312056
vt 0.291820 0.320190
vt 0.274250 0.291330
vt 0.256670 0.262460
vt 0.262501 0.443027
vt 0.262909 0.442924
vt 0.266209 0.456720
vt 0.265800 0.456823
vt 0.131105 0.333750
vt 0.131517 0.333637
vt 0.131040 0.755860
vt 0.302192 0.440397
vt 0.316366 0.440397
vt 0.316360 0.794220
vt 0.302190 0.794220
vt 0.835399 0.042876
vt 0.835399 0.042459
vt 0.835760 0.042669
vt 0.815843 0.074683
vt 0.816214 0.074474
vt 0.816200 0.074899
vt 0.276711 0.495918
vt 0.276649 0.496250
vt 0.276291 0.496025
vt 0.254036 0.405235
vt 0.254227 0.405499
vt 0.253815 0.405602
vt 0.287399 0.258663
vt 0.287735 0.258316
vt 0.287910 0.258705
vt 0.291046 0.395298
vt 0.290688 0.394966
vt 0.291191 0.394909
vt 0.914431 0.226316
vt 0.914520 0.226719
vt 0.857372 0.239122
vt 0.857262 0.238813
vt 0.315979 0.440117
vt 0.316750 0.794660
vt 0.316803 0.440289
vt 0.317090 0.440033
vt 0.277657 0.318413
vt 0.278149 0.318413
vt 0.278156 0.332703
vt 0.277664 0.332699
vt 0.302261 0.439857
vt 0.301800 0.794670
vt 0.301524 0.440028
vt 0.301812 0.440275
vt 0.882437 0.353193
vt 0.882408 0.352861
vt 0.939535 0.340498
vt 0.939625 0.340911
vt 0.131032 0.333931
vt 0.116879 0.333932
vt 0.868235 0.288315
vt 0.925370 0.275935
vt 0.928373 0.289785
vt 0.871238 0.302165
vt 0.331570 0.431002
vt 0.331715 0.430597
vt 0.365192 0.430593
vt 0.365322 0.430971
s 0
usemtl 
f 7/1/1 6/2/1 23/3/1 5/4/1
f 25/5/2 1/6/2 3/7/2
f 4/8/3 11/9/3 24/10/3
f 23/3/4 6/2/4 8/11/4
f 7/1/5 5/4/5 2/12/5
f 11/9/6 4/8/6 1/6/6 25/5/6
f 16/13/7 26/14/7 23/15/7 8/11/7
f 12/16/8 21/17/8 27/18/8 16/19/8
f 21/20/9 30/21/9 18/22/9 27/23/9
f 16/24/10 8/25/10 24/26/10 13/27/10 12/28/10
f 19/29/11 31/30/11 22/31/11 29/32/11
f 10/33/12 15/34/12 14/35/12 3/36/12 9/37/12 2/38/12
f 21/39/13 20/40/13 28/41/13 30/42/13
f 17/43/14 10/44/14 2/12/14 5/45/14
f 22/46/15 31/47/15 11/48/15 25/49/15
f 13/50/16 31/51/16 19/52/16
f 22/53/17 14/54/17 29/55/17
f 28/56/18 15/57/18 30/58/18
f 12/59/19 20/60/19 21/61/19
f 26/62/20 16/63/20 27/64/20
f 10/65/21 17/66/21 18/67/21
f 13/68/22 19/69/22 20/70/22 12/71/22
f 31/72/23 24/73/23 11/48/23
f 31/74/24 13/75/24 24/73/24
f 26/76/25 27/77/25 18/78/25 17/79/25
f 14/80/26 25/49/26 3/81/26
f 14/82/27 22/83/27 25/49/27
f 15/84/28 28/85/28 29/86/28 14/87/28
f 17/88/29 5/45/29 23/15/29 26/89/29
f 20/90/6 19/91/6 29/92/6 28/93/6
f 10/94/30 18/95/30 30/96/30 15/97/30
f 7/1/1 32/4/1 46/3/1 6/2/1
f 47/5/31 3/7/31 1/6/31
f 4/8/32 24/10/32 34/9/32
f 46/3/33 8/11/33 6/2/33
f 7/1/34 2/12/34 32/4/34
f 34/9/6 47/5/6 1/6/6 4/8/6
f 39/13/35 8/11/35 46/15/35 48/14/35
f 35/16/36 39/19/36 49/18/36 44/17/36
f 44/20/37 49/23/37 41/22/37 52/21/37
f 39/24/10 35/28/10 36/27/10 24/26/10 8/25/10
f 42/29/38 51/32/38 45/31/38 53/30/38
f 33/33/12 2/38/12 9/37/12 3/36/12 37/35/12 38/34/12
f 44/39/39 52/42/39 50/41/39 43/40/39
f 40/43/40 32/45/40 2/12/40 33/44/40
f 45/46/41 47/49/41 34/48/41 53/47/41
f 36/50/42 42/52/42 53/51/42
f 45/53/43 51/55/43 37/54/43
f 50/56/44 52/58/44 38/57/44
f 35/59/45 44/61/45 43/60/45
f 48/62/46 49/64/46 39/63/46
f 33/65/47 41/67/47 40/66/47
f 36/68/48 35/71/48 43/70/48 42/69/48
f 53/72/49 34/48/49 24/73/49
f 53/74/50 24/73/50 36/75/50
f 48/76/51 40/79/51 41/78/51 49/77/51
f 37/80/52 3/81/52 47/49/52
f 37/82/53 47/49/53 45/83/53
f 38/84/54 37/87/54 51/86/54 50/85/54
f 40/88/55 48/89/55 46/15/55 32/45/55
f 43/90/6 50/93/6 51/92/6 42/91/6
f 33/94/56 38/97/56 52/96/56 41/95/56
