# Blender 4.0.2
# www.blender.org
mtllib tiled_roof_sturt_3000.mtl
o tiled_roof_sturt_3000
v 0.000000 0.752066 0.600937
v 0.000000 0.618263 0.760396
v 0.075001 0.618263 0.760396
v 0.075001 0.752066 0.600937
v -0.000000 0.200000 0.102492
v 0.075001 0.200000 0.102492
v 0.000000 0.200000 0.261942
v 0.075001 0.200000 0.261942
v -0.000000 0.200020 0.102482
v 0.075001 0.200020 0.102482
v -0.000000 0.333800 0.102482
v 0.075001 0.333800 0.102482
v 0.075001 0.752066 -0.600937
v 0.075000 0.618263 -0.760396
v -0.000000 0.618263 -0.760396
v -0.000000 0.752066 -0.600937
v 0.075001 0.200000 -0.102492
v -0.000000 0.200000 -0.102492
v 0.075000 0.200000 -0.261942
v -0.000000 0.200000 -0.261942
v 0.075001 0.200020 -0.102482
v -0.000000 0.200020 -0.102482
v 0.075001 0.333800 -0.102482
v -0.000000 0.333800 -0.102482
vn -0.0000 0.7660 -0.6428
vn -1.0000 -0.0000 -0.0000
vn -0.0000 -1.0000 -0.0000
vn -0.0000 -0.0000 -1.0000
vn 1.0000 -0.0000 -0.0000
vn -0.0000 -0.4470 -0.8945
vn -0.0000 0.7660 0.6428
vn -0.0000 -0.7660 0.6428
vn -0.0000 -0.0000 1.0000
vn -0.0000 -0.4473 0.8944
vn -0.0000 -0.7660 -0.6428
vt 0.040511 0.583490
vt 0.040511 0.606822
vt 0.131520 0.606822
vt 0.131520 0.583490
vt 0.517446 0.608274
vt 0.506201 0.544501
vt 0.303776 0.544503
vt 0.277025 0.576384
vt 0.277023 0.576391
vt 0.315022 0.608275
vt 0.315022 0.505517
vt 0.315022 0.482185
vt 0.277023 0.482185
vt 0.277023 0.505517
vt 0.000007 0.583490
vt 0.000007 0.606822
vt 0.506201 0.480730
vt 0.517446 0.416958
vt 0.315021 0.416956
vt 0.277023 0.448841
vt 0.277025 0.448848
vt 0.303776 0.480728
vt 0.000000 0.583490
vt 0.000000 0.606822
vt 0.111565 0.582676
vt 0.166673 0.575180
vt 0.163715 0.555720
vt 0.109105 0.562897
vt 0.517446 0.505517
vt 0.517446 0.482185
s 0
usemtl wood
f 12/1/1 11/2/1 1/3/1 4/4/1
f 2/5/2 1/6/2 11/7/2 9/8/2 5/9/2 7/10/2
f 8/11/3 7/12/3 5/13/3 6/14/3
f 12/1/4 10/15/4 9/16/4 11/2/4
f 4/17/5 3/18/5 8/19/5 6/20/5 10/21/5 12/22/5
f 6/23/6 5/24/6 9/16/6 10/15/6
f 3/25/7 4/26/7 1/27/7 2/28/7
f 7/12/8 8/11/8 3/29/8 2/30/8
f 24/1/7 23/2/7 13/3/7 16/4/7
f 14/5/5 13/6/5 23/7/5 21/8/5 17/9/5 19/10/5
f 20/11/3 19/12/3 17/13/3 18/14/3
f 24/1/9 22/15/9 21/16/9 23/2/9
f 16/17/2 15/18/2 20/19/2 18/20/2 22/21/2 24/22/2
f 18/23/10 17/24/10 21/16/10 22/15/10
f 15/25/1 16/26/1 13/27/1 14/28/1
f 19/12/11 20/11/11 15/29/11 14/30/11
