# Blender 4.0.2
# www.blender.org
mtllib tiled_roof_sturt_3500.mtl
o tiled_roof_sturt_3500
v 0.000000 0.827586 0.690927
v 0.000000 0.693784 0.850387
v 0.200000 0.693784 0.850387
v 0.200000 0.827586 0.690927
v -0.000000 0.200000 0.102492
v 0.200000 0.200000 0.102492
v 0.000000 0.200000 0.261942
v 0.200000 0.200000 0.261942
v -0.000000 0.200020 0.102482
v 0.200000 0.200020 0.102482
v -0.000000 0.333800 0.102482
v 0.200000 0.333800 0.102482
v 0.200000 0.827586 -0.690927
v 0.200000 0.693784 -0.850387
v -0.000000 0.693784 -0.850387
v 0.000000 0.827586 -0.690927
v 0.200000 0.200000 -0.102492
v -0.000000 0.200000 -0.102492
v 0.200000 0.200000 -0.261942
v -0.000000 0.200000 -0.261942
v 0.200000 0.200020 -0.102482
v -0.000000 0.200020 -0.102482
v 0.200000 0.333800 -0.102482
v -0.000000 0.333800 -0.102482
vn -0.0000 0.7660 -0.6428
vn -1.0000 -0.0000 -0.0000
vn -0.0000 -1.0000 -0.0000
vn -0.0000 -0.0000 -1.0000
vn 1.0000 -0.0000 -0.0000
vn -0.0000 -0.4471 -0.8945
vn -0.0000 0.7660 0.6428
vn -0.0000 -0.7660 0.6428
vn -0.0000 -0.0000 1.0000
vn -0.0000 -0.4475 0.8943
vn -0.0000 -0.7660 -0.6428
vt 0.040511 0.544604
vt 0.040511 0.606822
vt 0.147952 0.606822
vt 0.147952 0.544604
vt 0.553993 0.608271
vt 0.542748 0.544499
vt 0.303776 0.544503
vt 0.277025 0.576384
vt 0.277023 0.576391
vt 0.315022 0.608275
vt 0.315022 0.544403
vt 0.315022 0.482185
vt 0.277023 0.482185
vt 0.277023 0.544403
vt 0.040511 0.544604
vt 0.000007 0.544604
vt 0.000007 0.606822
vt 0.542748 0.480732
vt 0.553993 0.416960
vt 0.315021 0.416956
vt 0.277023 0.448841
vt 0.277025 0.448848
vt 0.303776 0.480728
vt -0.000000 0.544605
vt 0.000000 0.606822
vt 0.000007 0.544605
vt 0.110589 0.616168
vt 0.165760 0.608631
vt 0.158379 0.556413
vt 0.103649 0.563668
vt 0.315022 0.544403
vt 0.553993 0.544403
vt 0.553993 0.482185
vt 0.040511 0.583490
vt 0.040511 0.645708
vt 0.147952 0.645708
vt 0.147952 0.583490
vt 0.553993 0.608272
vt 0.542748 0.544499
vt 0.315022 0.505517
vt 0.315022 0.443299
vt 0.277023 0.443299
vt 0.277023 0.505517
vt 0.000007 0.583490
vt 0.000007 0.645708
vt 0.040511 0.645708
vt 0.542748 0.480732
vt 0.277023 0.448841
vt 0.000000 0.583490
vt 0.000000 0.645712
vt 0.000007 0.645709
vt 0.106140 0.583427
vt 0.161265 0.575920
vt 0.153884 0.523702
vt 0.099200 0.530928
vt 0.315022 0.443299
vt 0.553993 0.505517
vt 0.553993 0.443299
s 0
usemtl wood
f 12/1/1 11/2/1 1/3/1 4/4/1
f 2/5/2 1/6/2 11/7/2 9/8/2 5/9/2 7/10/2
f 8/11/3 7/12/3 5/13/3 6/14/3
f 12/15/4 10/16/4 9/17/4 11/2/4
f 4/18/5 3/19/5 8/20/5 6/21/5 10/22/5 12/23/5
f 6/24/6 5/25/6 9/17/6 10/26/6
f 3/27/7 4/28/7 1/29/7 2/30/7
f 7/12/8 8/31/8 3/32/8 2/33/8
f 24/34/7 23/35/7 13/36/7 16/37/7
f 14/38/5 13/39/5 23/7/5 21/8/5 17/9/5 19/10/5
f 20/40/3 19/41/3 17/42/3 18/43/3
f 24/34/9 22/44/9 21/45/9 23/46/9
f 16/47/2 15/19/2 20/20/2 18/48/2 22/22/2 24/23/2
f 18/49/10 17/50/10 21/51/10 22/44/10
f 15/52/1 16/53/1 13/54/1 14/55/1
f 19/56/11 20/40/11 15/57/11 14/58/11
