# Blender 4.0.2
# www.blender.org
mtllib tile-01-side2.mtl
o tile-01-side2
v -0.005721 -0.075220 -0.005235
v -0.002477 -0.084302 0.244583
v -0.001262 -0.075211 -0.005222
v -0.000305 -0.074641 -0.004639
v -0.000001 -0.074508 -0.002980
v -0.000631 -0.077000 0.060009
v -0.002601 -0.075216 -0.005235
v -0.004325 -0.084369 0.429391
v -0.006015 -0.083133 0.517068
v -0.005547 0.067794 0.002811
v -0.002560 0.064683 0.252962
v -0.012407 0.085173 0.254149
v -0.024664 0.102689 0.255164
v -0.042356 0.114258 0.255835
v -0.062937 0.118556 0.256084
v -0.083755 0.114258 0.255835
v -0.102022 0.102688 0.255165
v -0.125001 0.064683 0.252962
v -0.114887 0.085173 0.254149
v -0.010561 0.077943 0.003399
v -0.023356 0.095381 0.004409
v -0.041581 0.106878 0.005076
v -0.062525 0.111141 0.005323
v -0.083473 0.106878 0.005076
v -0.101760 0.095273 0.004403
v -0.125001 0.056675 0.002167
v -0.114715 0.077513 0.003375
v -0.001345 0.073774 0.003157
v -0.011400 0.094136 0.004337
v -0.024028 0.111405 0.005338
v -0.041947 0.122744 0.005995
v -0.062517 0.126931 0.006238
v -0.083095 0.122744 0.005995
v -0.101197 0.111064 0.005319
v -0.114340 0.092773 0.004260
v -0.125001 0.071176 0.003007
v -0.000389 0.074345 0.003741
v -0.010490 0.094802 0.004926
v -0.010762 0.092474 0.069576
v -0.010200 0.094966 0.006587
v -0.000085 0.074477 0.005399
v -0.000715 0.071986 0.068389
v -0.023290 0.112256 0.005938
v -0.041539 0.123768 0.006604
v -0.041649 0.121560 0.071261
v -0.041408 0.124051 0.008272
v -0.023054 0.112483 0.007602
v -0.023464 0.109990 0.070591
v -0.062518 0.128039 0.006852
v -0.083505 0.123768 0.006604
v -0.083671 0.121560 0.071261
v -0.083642 0.124051 0.008272
v -0.062520 0.128350 0.008521
v -0.062626 0.125859 0.071510
v -0.101812 0.112171 0.005933
v -0.114750 0.094462 0.004907
v -0.125001 0.073695 0.003703
v -0.125001 0.071986 0.068389
v -0.125001 0.074477 0.005399
v -0.114887 0.092474 0.069576
v -0.114887 0.094966 0.006587
v -0.102017 0.112483 0.007602
v -0.102018 0.109990 0.070591
v -0.002408 0.072261 0.003070
v -0.012105 0.091896 0.004208
v -0.042265 0.120227 0.005850
v -0.024600 0.109022 0.005200
v -0.082780 0.120227 0.005850
v -0.062519 0.124350 0.006088
v -0.125001 0.067506 0.002796
v -0.114024 0.089744 0.004083
v -0.100724 0.108484 0.005169
v -0.005252 0.054034 0.522162
v -0.004413 0.057354 0.438239
v -0.014058 0.077843 0.439425
v -0.014806 0.074522 0.523348
v -0.026416 0.092039 0.524365
v -0.025870 0.095359 0.440442
v -0.043065 0.106929 0.441114
v -0.043387 0.103608 0.525037
v -0.063390 0.107907 0.525283
v -0.063249 0.111227 0.441360
v -0.083840 0.106929 0.441114
v -0.083878 0.103608 0.525037
v -0.102027 0.092038 0.524364
v -0.102025 0.095359 0.440442
v -0.125001 0.057354 0.438239
v -0.114887 0.077843 0.439426
v -0.125001 0.054034 0.522162
v -0.114887 0.074522 0.523348
vn -0.0004 0.0576 -0.9983
vn 0.0011 0.0558 -0.9984
vn -0.0000 0.0581 -0.9983
vn 0.0006 0.0582 -0.9983
vn 0.9750 0.2214 0.0183
vn 0.9758 0.2179 0.0179
vn 0.9999 -0.0023 0.0134
vn 0.9999 -0.0000 0.0100
vn 0.9743 0.2246 0.0184
vn 0.2671 0.1019 -0.9583
vn 0.4382 0.1700 -0.8827
vn 0.4984 0.0504 -0.8655
vn 0.2125 0.0550 -0.9756
vn 0.0039 0.0581 -0.9983
vn 0.9554 0.2221 -0.1947
vn 0.9680 0.2353 -0.0877
vn 0.9959 0.0076 -0.0902
vn 0.9835 0.0098 -0.1808
vn 0.9761 0.2163 0.0205
vn 0.9999 -0.0037 0.0140
vn -0.0000 0.0579 -0.9983
vn -0.0000 0.0578 -0.9983
vn -0.0002 0.0580 -0.9983
vn 0.8643 0.5021 0.0281
vn 0.8694 0.4935 0.0253
vn 0.8574 0.5140 0.0269
vn 0.6960 0.7172 0.0342
vn 0.6868 0.7262 0.0326
vn 0.7050 0.7085 0.0320
vn 0.3827 0.9231 0.0376
vn 0.3892 0.9203 0.0385
vn 0.3767 0.9255 0.0383
vn 0.0003 0.9992 0.0397
vn 0.0004 0.9992 0.0388
vn 0.0019 0.9992 0.0388
vn -0.3752 0.9262 0.0365
vn -0.3762 0.9258 0.0369
vn -0.3733 0.9270 0.0359
vn -0.6833 0.7296 0.0277
vn -0.6813 0.7314 0.0281
vn -0.6828 0.7301 0.0282
vn -0.8540 0.5199 0.0197
vn -0.8554 0.5177 0.0188
vn -0.8558 0.5169 0.0213
vn -0.8978 0.4400 0.0176
vn -0.8977 0.4403 0.0176
vn -0.8977 0.4402 0.0176
vn 0.0004 0.0582 -0.9983
vn -0.0001 0.0579 -0.9983
vn 0.0005 0.0576 -0.9983
vn 0.3720 0.2798 -0.8850
vn 0.2033 0.1763 -0.9631
vn 0.1680 0.2350 -0.9574
vn 0.2921 0.3690 -0.8824
vn 0.1617 0.4553 -0.8755
vn 0.0913 0.2857 -0.9540
vn -0.0000 0.3045 -0.9525
vn -0.0000 0.4864 -0.8738
vn -0.1577 0.4451 -0.8815
vn -0.0892 0.2797 -0.9559
vn -0.1594 0.2182 -0.9628
vn -0.2677 0.3539 -0.8962
vn -0.3418 0.2772 -0.8980
vn -0.2012 0.1663 -0.9653
vn -0.0624 0.0884 -0.9941
vn -0.3935 0.2437 -0.8864
vn 0.8345 0.5155 -0.1945
vn 0.8498 0.5204 -0.0837
vn 0.6659 0.7208 -0.1924
vn 0.6778 0.7309 -0.0797
vn 0.3633 0.9130 -0.1854
vn 0.3695 0.9264 -0.0729
vn 0.0002 0.9831 -0.1829
vn 0.0002 0.9976 -0.0696
vn -0.3626 0.9118 -0.1926
vn -0.3706 0.9256 -0.0772
vn -0.6654 0.7150 -0.2146
vn -0.6737 0.7331 -0.0930
vn -0.8371 0.5042 -0.2124
vn -0.8450 0.5262 -0.0950
vn -0.8739 0.4409 -0.2046
vn -0.8896 0.4440 -0.1075
vn 0.8709 0.4908 0.0246
vn 0.7086 0.7049 0.0318
vn 0.3923 0.9191 0.0376
vn 0.0039 0.9992 0.0397
vn -0.3769 0.9255 0.0364
vn -0.6832 0.7297 0.0286
vn -0.8540 0.5199 0.0180
vn -0.8970 0.4418 0.0175
vt 0.318206 0.047246
vt 0.276637 0.047246
vt 0.276637 0.026615
vt 0.318206 0.026615
vt 0.276637 0.510922
vt 0.276637 0.850031
vt -0.007378 0.850031
vt -0.007379 0.510922
vt 0.276637 0.172989
vt -0.007379 0.172989
vt 0.276637 0.051823
vt 0.276637 0.054517
vt -0.007379 0.054517
vt -0.007379 0.051823
vt -0.007379 0.047246
vt 0.276637 0.057664
vt -0.007379 0.057664
vt 0.276637 1.004363
vt -0.007378 1.004363
vt 0.483103 0.047246
vt 0.483104 0.026615
vt 0.525074 0.026615
vt 0.525073 0.047246
vt 0.318206 0.510922
vt 0.318206 0.850031
vt 0.318206 0.172989
vt 0.359841 0.510922
vt 0.359841 0.172989
vt 0.359841 0.850031
vt 0.401051 0.510922
vt 0.401051 0.850031
vt 0.401051 0.172989
vt 0.441947 0.510922
vt 0.441947 0.172989
vt 0.441946 0.850031
vt 0.483102 0.510922
vt 0.483102 0.850031
vt 0.483103 0.172989
vt 0.525072 0.510922
vt 0.525072 0.172989
vt 0.525072 0.850032
vt 0.567858 0.510922
vt 0.567858 0.850032
vt 0.567859 0.172989
vt 0.613128 0.510922
vt 0.613129 0.172990
vt 0.613128 0.850032
vt 0.359841 0.047246
vt 0.359842 0.026615
vt 0.401052 0.026615
vt 0.401051 0.047246
vt 0.567859 0.047246
vt 0.567860 0.026615
vt 0.613130 0.026614
vt 0.613129 0.047246
vt 0.441948 0.026615
vt 0.441947 0.047246
vt 0.318206 0.054517
vt 0.318206 0.051823
vt 0.359841 0.051823
vt 0.359841 0.054517
vt 0.401051 0.054517
vt 0.401051 0.051823
vt 0.441947 0.051823
vt 0.441947 0.054517
vt 0.483103 0.054517
vt 0.483103 0.051823
vt 0.525073 0.051823
vt 0.525073 0.054517
vt 0.567859 0.054517
vt 0.567859 0.051823
vt 0.613129 0.051823
vt 0.613129 0.054517
vt 0.318206 0.057664
vt 0.359841 0.057664
vt 0.401051 0.057664
vt 0.441947 0.057664
vt 0.483103 0.057664
vt 0.525072 0.057664
vt 0.567859 0.057664
vt 0.613129 0.057664
vt -0.007379 0.026615
vt 0.318206 1.004363
vt 0.359841 1.004362
vt 0.401051 1.004362
vt 0.441946 1.004362
vt 0.483102 1.004362
vt 0.525072 1.004362
vt 0.567858 1.004362
vt 0.613128 1.004361
s 1
usemtl tile_1
f 65/1/1 64/2/2 10/3/3 20/4/4
f 11/5/5 74/6/6 8/7/7 2/8/8
f 42/9/9 11/5/5 2/8/8 6/10/8
f 28/11/10 37/12/11 4/13/12 3/14/13
f 64/2/2 28/11/10 3/14/13 7/15/14
f 37/12/15 41/16/16 5/17/17 4/13/18
f 41/16/16 42/9/9 6/10/8 5/17/17
f 74/6/6 73/18/19 9/19/20 8/7/7
f 68/20/21 24/21/22 25/22/22 72/23/23
f 11/5/5 12/24/24 75/25/25 74/6/6
f 42/9/9 39/26/26 12/24/24 11/5/5
f 13/27/27 12/24/24 39/26/26 48/28/28
f 78/29/29 75/25/25 12/24/24 13/27/27
f 13/27/27 14/30/30 79/31/31 78/29/29
f 48/28/28 45/32/32 14/30/30 13/27/27
f 15/33/33 14/30/30 45/32/32 54/34/34
f 82/35/35 79/31/31 14/30/30 15/33/33
f 15/33/33 16/36/36 83/37/37 82/35/35
f 54/34/34 51/38/38 16/36/36 15/33/33
f 17/39/39 16/36/36 51/38/38 63/40/40
f 86/41/41 83/37/37 16/36/36 17/39/39
f 17/39/39 19/42/42 88/43/43 86/41/41
f 63/40/40 60/44/44 19/42/42 17/39/39
f 18/45/45 19/42/42 60/44/44 58/46/46
f 87/47/47 88/43/43 19/42/42 18/45/45
f 67/48/22 21/49/48 22/50/22 66/51/22
f 71/52/21 27/53/49 26/54/50 70/55/49
f 65/1/1 20/4/4 21/49/48 67/48/22
f 72/23/23 25/22/22 27/53/49 71/52/21
f 66/51/22 22/50/22 23/56/22 69/57/22
f 69/57/22 23/56/22 24/21/22 68/20/21
f 38/58/51 29/59/52 30/60/53 43/61/54
f 37/12/11 28/11/10 29/59/52 38/58/51
f 65/1/1 29/59/52 28/11/10 64/2/2
f 67/48/22 30/60/53 29/59/52 65/1/1
f 44/62/55 31/63/56 32/64/57 49/65/58
f 43/61/54 30/60/53 31/63/56 44/62/55
f 66/51/22 31/63/56 30/60/53 67/48/22
f 69/57/22 32/64/57 31/63/56 66/51/22
f 50/66/59 33/67/60 34/68/61 55/69/62
f 49/65/58 32/64/57 33/67/60 50/66/59
f 68/20/21 33/67/60 32/64/57 69/57/22
f 72/23/23 34/68/61 33/67/60 68/20/21
f 56/70/63 35/71/64 36/72/65 57/73/66
f 55/69/62 34/68/61 35/71/64 56/70/63
f 71/52/21 35/71/64 34/68/61 72/23/23
f 70/55/49 36/72/65 35/71/64 71/52/21
f 38/58/67 40/74/68 41/16/16 37/12/15
f 43/61/69 47/75/70 40/74/68 38/58/67
f 39/26/26 40/74/68 47/75/70 48/28/28
f 42/9/9 41/16/16 40/74/68 39/26/26
f 44/62/71 46/76/72 47/75/70 43/61/69
f 49/65/73 53/77/74 46/76/72 44/62/71
f 45/32/32 46/76/72 53/77/74 54/34/34
f 48/28/28 47/75/70 46/76/72 45/32/32
f 50/66/75 52/78/76 53/77/74 49/65/73
f 55/69/77 62/79/78 52/78/76 50/66/75
f 51/38/38 52/78/76 62/79/78 63/40/40
f 54/34/34 53/77/74 52/78/76 51/38/38
f 56/70/79 61/80/80 62/79/78 55/69/77
f 57/73/81 59/81/82 61/80/80 56/70/79
f 60/44/44 61/80/80 59/81/82 58/46/46
f 63/40/40 62/79/78 61/80/80 60/44/44
f 10/3/3 64/2/2 7/15/14 1/82/3
f 74/6/6 75/25/25 76/83/83 73/18/19
f 77/84/84 76/83/83 75/25/25 78/29/29
f 78/29/29 79/31/31 80/85/85 77/84/84
f 81/86/86 80/85/85 79/31/31 82/35/35
f 82/35/35 83/37/37 84/87/87 81/86/86
f 85/88/88 84/87/87 83/37/37 86/41/41
f 86/41/41 88/43/43 90/89/89 85/88/88
f 89/90/90 90/89/89 88/43/43 87/47/47
