# Blender 4.0.2
# www.blender.org
mtllib tile-01-side2.mtl
o tile-01-side2
v -0.005721 -0.067760 0.033076
v -0.002477 0.049284 0.253966
v -0.001262 -0.067745 0.033083
v -0.000305 -0.066960 0.033303
v -0.000001 -0.066016 0.034673
v -0.000631 -0.036679 0.090469
v -0.002601 -0.067756 0.033074
v -0.004325 0.141630 0.414048
v -0.006015 0.186539 0.489361
v -0.005547 0.060117 -0.031463
v -0.002560 0.182499 0.186730
v -0.012407 0.200837 0.177513
v -0.024664 0.216514 0.169634
v -0.042356 0.226868 0.164430
v -0.062937 0.230715 0.162497
v -0.083755 0.226868 0.164430
v -0.102022 0.216513 0.169635
v -0.125001 0.182499 0.186730
v -0.114887 0.200837 0.177513
v -0.010561 0.069200 -0.036028
v -0.023356 0.084807 -0.043872
v -0.041581 0.095097 -0.049043
v -0.062525 0.098913 -0.050961
v -0.083473 0.095097 -0.049043
v -0.101760 0.084711 -0.043824
v -0.125001 0.050166 -0.026461
v -0.114715 0.068816 -0.035834
v -0.001345 0.065469 -0.034153
v -0.011400 0.083693 -0.043312
v -0.024028 0.099149 -0.051080
v -0.041947 0.109297 -0.056180
v -0.062517 0.113045 -0.058064
v -0.083095 0.109297 -0.056180
v -0.101197 0.098844 -0.050926
v -0.114340 0.082474 -0.042698
v -0.125001 0.063144 -0.032984
v -0.000389 0.066255 -0.033933
v -0.010490 0.084564 -0.043135
v -0.010762 0.114873 0.014017
v -0.010200 0.085537 -0.041779
v -0.000085 0.067199 -0.032563
v -0.000715 0.096536 0.023233
v -0.023290 0.100186 -0.050986
v -0.041539 0.110489 -0.056165
v -0.041649 0.140905 0.000933
v -0.041408 0.111568 -0.054862
v -0.023054 0.101214 -0.049658
v -0.023464 0.130550 0.006138
v -0.062518 0.114311 -0.058086
v -0.083505 0.110489 -0.056165
v -0.083671 0.140905 0.000934
v -0.083642 0.111568 -0.054862
v -0.062520 0.115415 -0.056796
v -0.062626 0.144752 -0.001000
v -0.101812 0.100110 -0.050948
v -0.114750 0.084260 -0.042982
v -0.125001 0.065674 -0.033641
v -0.125001 0.096536 0.023233
v -0.125001 0.067199 -0.032563
v -0.114887 0.114873 0.014017
v -0.114887 0.085537 -0.041779
v -0.102017 0.101214 -0.049658
v -0.102018 0.130550 0.006138
v -0.002408 0.064115 -0.033472
v -0.012105 0.081688 -0.042304
v -0.042265 0.107045 -0.055048
v -0.024600 0.097016 -0.050008
v -0.082780 0.107045 -0.055048
v -0.062519 0.110735 -0.056903
v -0.125001 0.059860 -0.031332
v -0.114024 0.079762 -0.041336
v -0.100724 0.096534 -0.049766
v -0.005252 0.307875 0.425188
v -0.004413 0.268790 0.350849
v -0.014058 0.287127 0.341631
v -0.014806 0.326212 0.415972
v -0.026416 0.341891 0.408093
v -0.025870 0.302804 0.333754
v -0.043065 0.313160 0.328551
v -0.043387 0.352246 0.402892
v -0.063390 0.356091 0.400954
v -0.063249 0.317006 0.326615
v -0.083840 0.313160 0.328551
v -0.083878 0.352246 0.402892
v -0.102027 0.341889 0.408093
v -0.102025 0.302804 0.333754
v -0.125001 0.268790 0.350849
v -0.114887 0.287127 0.341632
v -0.125001 0.307875 0.425188
v -0.114887 0.326212 0.415971
vn -0.0004 -0.4493 -0.8934
vn 0.0011 -0.4509 -0.8926
vn -0.0000 -0.4488 -0.8936
vn 0.0006 -0.4488 -0.8937
vn 0.9750 0.2009 -0.0949
vn 0.9758 0.1977 -0.0934
vn 0.9999 0.0047 0.0127
vn 1.0000 0.0050 0.0087
vn 0.9743 0.2037 -0.0964
vn 0.2671 -0.3909 -0.8808
vn 0.4382 -0.2942 -0.8494
vn 0.4984 -0.3891 -0.7747
vn 0.2125 -0.4402 -0.8724
vn 0.0039 -0.4488 -0.8936
vn 0.9554 0.0950 -0.2797
vn 0.9680 0.1599 -0.1936
vn 0.9959 -0.0385 -0.0819
vn 0.9835 -0.0819 -0.1615
vn 0.9761 0.1976 -0.0904
vn 0.9999 0.0037 0.0140
vn -0.0000 -0.4490 -0.8935
vn -0.0000 -0.4491 -0.8935
vn -0.0002 -0.4490 -0.8936
vn 0.8643 0.4489 -0.2267
vn 0.8694 0.4400 -0.2248
vn 0.8574 0.4585 -0.2337
vn 0.6960 0.6383 -0.3290
vn 0.6868 0.6452 -0.3349
vn 0.7050 0.6296 -0.3265
vn 0.3827 0.8182 -0.4290
vn 0.3892 0.8163 -0.4268
vn 0.3767 0.8207 -0.4296
vn 0.0003 0.8852 -0.4652
vn 0.0004 0.8848 -0.4660
vn 0.0019 0.8848 -0.4660
vn -0.3752 0.8204 -0.4315
vn -0.3762 0.8202 -0.4310
vn -0.3733 0.8208 -0.4324
vn -0.6833 0.6457 -0.3408
vn -0.6813 0.6475 -0.3413
vn -0.6828 0.6464 -0.3407
vn -0.8540 0.4601 -0.2429
vn -0.8554 0.4577 -0.2425
vn -0.8558 0.4583 -0.2401
vn -0.8978 0.3898 -0.2048
vn -0.8977 0.3901 -0.2050
vn -0.8977 0.3900 -0.2049
vn 0.0004 -0.4488 -0.8936
vn -0.0001 -0.4490 -0.8935
vn 0.0005 -0.4493 -0.8934
vn -0.0001 -0.4491 -0.8935
vn 0.3720 -0.2002 -0.9064
vn 0.2033 -0.3289 -0.9222
vn 0.1680 -0.2752 -0.9466
vn 0.2921 -0.1217 -0.9486
vn 0.1617 -0.0434 -0.9859
vn 0.0913 -0.2296 -0.9690
vn -0.0000 -0.2125 -0.9772
vn -0.0000 -0.0157 -0.9999
vn -0.1577 -0.0553 -0.9859
vn -0.0892 -0.2357 -0.9677
vn -0.1594 -0.2924 -0.9429
vn -0.2677 -0.1416 -0.9531
vn -0.3418 -0.2089 -0.9163
vn -0.2012 -0.3387 -0.9191
vn -0.0624 -0.4205 -0.9051
vn -0.3935 -0.2322 -0.8895
vn 0.8345 0.3492 -0.4262
vn 0.8498 0.4088 -0.3327
vn 0.6659 0.5281 -0.5270
vn 0.6778 0.5932 -0.4344
vn 0.3633 0.6980 -0.6171
vn 0.3695 0.7658 -0.5263
vn 0.0002 0.7599 -0.6500
vn 0.0002 0.8291 -0.5591
vn -0.3626 0.6934 -0.6227
vn -0.3706 0.7630 -0.5296
vn -0.6654 0.5119 -0.5433
vn -0.6737 0.5884 -0.4471
vn -0.8371 0.3305 -0.4360
vn -0.8450 0.4082 -0.3454
vn -0.8739 0.2795 -0.3976
vn -0.8896 0.3308 -0.3150
vn 0.8709 0.4373 -0.2241
vn 0.7086 0.6263 -0.3249
vn 0.3923 0.8147 -0.4270
vn 0.0039 0.8852 -0.4652
vn -0.3769 0.8198 -0.4312
vn -0.6832 0.6462 -0.3400
vn -0.8540 0.4593 -0.2443
vn -0.8970 0.3913 -0.2057
vt 0.318206 0.047246
vt 0.276637 0.047246
vt 0.276637 0.026615
vt 0.318206 0.026615
vt 0.276637 0.510922
vt 0.276637 0.850031
vt -0.007378 0.850031
vt -0.007379 0.510922
vt 0.276637 0.172989
vt -0.007379 0.172989
vt 0.276637 0.051823
vt 0.276637 0.054517
vt -0.007379 0.054517
vt -0.007379 0.051823
vt -0.007379 0.047246
vt 0.276637 0.057664
vt -0.007379 0.057664
vt 0.276637 1.004363
vt -0.007378 1.004363
vt 0.483103 0.047246
vt 0.483104 0.026615
vt 0.525074 0.026615
vt 0.525073 0.047246
vt 0.318206 0.510922
vt 0.318206 0.850031
vt 0.318206 0.172989
vt 0.359841 0.510922
vt 0.359841 0.172989
vt 0.359841 0.850031
vt 0.401051 0.510922
vt 0.401051 0.850031
vt 0.401051 0.172989
vt 0.441947 0.510922
vt 0.441947 0.172989
vt 0.441946 0.850031
vt 0.483102 0.510922
vt 0.483102 0.850031
vt 0.483103 0.172989
vt 0.525072 0.510922
vt 0.525072 0.172989
vt 0.525072 0.850032
vt 0.567858 0.510922
vt 0.567858 0.850032
vt 0.567859 0.172989
vt 0.613128 0.510922
vt 0.613129 0.172990
vt 0.613128 0.850032
vt 0.359841 0.047246
vt 0.359842 0.026615
vt 0.401052 0.026615
vt 0.401051 0.047246
vt 0.567859 0.047246
vt 0.567860 0.026615
vt 0.613130 0.026614
vt 0.613129 0.047246
vt 0.441948 0.026615
vt 0.441947 0.047246
vt 0.318206 0.054517
vt 0.318206 0.051823
vt 0.359841 0.051823
vt 0.359841 0.054517
vt 0.401051 0.054517
vt 0.401051 0.051823
vt 0.441947 0.051823
vt 0.441947 0.054517
vt 0.483103 0.054517
vt 0.483103 0.051823
vt 0.525073 0.051823
vt 0.525073 0.054517
vt 0.567859 0.054517
vt 0.567859 0.051823
vt 0.613129 0.051823
vt 0.613129 0.054517
vt 0.318206 0.057664
vt 0.359841 0.057664
vt 0.401051 0.057664
vt 0.441947 0.057664
vt 0.483103 0.057664
vt 0.525072 0.057664
vt 0.567859 0.057664
vt 0.613129 0.057664
vt -0.007379 0.026615
vt 0.318206 1.004363
vt 0.359841 1.004362
vt 0.401051 1.004362
vt 0.441946 1.004362
vt 0.483102 1.004362
vt 0.525072 1.004362
vt 0.567858 1.004362
vt 0.613128 1.004361
s 1
usemtl Checker
f 65/1/1 64/2/2 10/3/3 20/4/4
f 11/5/5 74/6/6 8/7/7 2/8/8
f 42/9/9 11/5/5 2/8/8 6/10/8
f 28/11/10 37/12/11 4/13/12 3/14/13
f 64/2/2 28/11/10 3/14/13 7/15/14
f 37/12/15 41/16/16 5/17/17 4/13/18
f 41/16/16 42/9/9 6/10/8 5/17/17
f 74/6/6 73/18/19 9/19/20 8/7/7
f 68/20/21 24/21/22 25/22/22 72/23/23
f 11/5/5 12/24/24 75/25/25 74/6/6
f 42/9/9 39/26/26 12/24/24 11/5/5
f 13/27/27 12/24/24 39/26/26 48/28/28
f 78/29/29 75/25/25 12/24/24 13/27/27
f 13/27/27 14/30/30 79/31/31 78/29/29
f 48/28/28 45/32/32 14/30/30 13/27/27
f 15/33/33 14/30/30 45/32/32 54/34/34
f 82/35/35 79/31/31 14/30/30 15/33/33
f 15/33/33 16/36/36 83/37/37 82/35/35
f 54/34/34 51/38/38 16/36/36 15/33/33
f 17/39/39 16/36/36 51/38/38 63/40/40
f 86/41/41 83/37/37 16/36/36 17/39/39
f 17/39/39 19/42/42 88/43/43 86/41/41
f 63/40/40 60/44/44 19/42/42 17/39/39
f 18/45/45 19/42/42 60/44/44 58/46/46
f 87/47/47 88/43/43 19/42/42 18/45/45
f 67/48/22 21/49/48 22/50/22 66/51/22
f 71/52/22 27/53/49 26/54/50 70/55/51
f 65/1/1 20/4/4 21/49/48 67/48/22
f 72/23/23 25/22/22 27/53/49 71/52/22
f 66/51/22 22/50/22 23/56/22 69/57/22
f 69/57/22 23/56/22 24/21/22 68/20/21
f 38/58/52 29/59/53 30/60/54 43/61/55
f 37/12/11 28/11/10 29/59/53 38/58/52
f 65/1/1 29/59/53 28/11/10 64/2/2
f 67/48/22 30/60/54 29/59/53 65/1/1
f 44/62/56 31/63/57 32/64/58 49/65/59
f 43/61/55 30/60/54 31/63/57 44/62/56
f 66/51/22 31/63/57 30/60/54 67/48/22
f 69/57/22 32/64/58 31/63/57 66/51/22
f 50/66/60 33/67/61 34/68/62 55/69/63
f 49/65/59 32/64/58 33/67/61 50/66/60
f 68/20/21 33/67/61 32/64/58 69/57/22
f 72/23/23 34/68/62 33/67/61 68/20/21
f 56/70/64 35/71/65 36/72/66 57/73/67
f 55/69/63 34/68/62 35/71/65 56/70/64
f 71/52/22 35/71/65 34/68/62 72/23/23
f 70/55/51 36/72/66 35/71/65 71/52/22
f 38/58/68 40/74/69 41/16/16 37/12/15
f 43/61/70 47/75/71 40/74/69 38/58/68
f 39/26/26 40/74/69 47/75/71 48/28/28
f 42/9/9 41/16/16 40/74/69 39/26/26
f 44/62/72 46/76/73 47/75/71 43/61/70
f 49/65/74 53/77/75 46/76/73 44/62/72
f 45/32/32 46/76/73 53/77/75 54/34/34
f 48/28/28 47/75/71 46/76/73 45/32/32
f 50/66/76 52/78/77 53/77/75 49/65/74
f 55/69/78 62/79/79 52/78/77 50/66/76
f 51/38/38 52/78/77 62/79/79 63/40/40
f 54/34/34 53/77/75 52/78/77 51/38/38
f 56/70/80 61/80/81 62/79/79 55/69/78
f 57/73/82 59/81/83 61/80/81 56/70/80
f 60/44/44 61/80/81 59/81/83 58/46/46
f 63/40/40 62/79/79 61/80/81 60/44/44
f 10/3/3 64/2/2 7/15/14 1/82/3
f 74/6/6 75/25/25 76/83/84 73/18/19
f 77/84/85 76/83/84 75/25/25 78/29/29
f 78/29/29 79/31/31 80/85/86 77/84/85
f 81/86/87 80/85/86 79/31/31 82/35/35
f 82/35/35 83/37/37 84/87/88 81/86/87
f 85/88/89 84/87/88 83/37/37 86/41/41
f 86/41/41 88/43/43 90/89/90 85/88/89
f 89/90/91 90/89/90 88/43/43 87/47/47
