# Blender 4.0.2
# www.blender.org
mtllib isolated_plate_roof_side_6000.mtl
o isolated_plate_roof_side_6000
v -0.020001 0.101170 3.076340
v -0.000001 0.101170 3.076340
v -0.000001 -0.029370 2.920770
v -0.020000 -0.029370 2.920770
v -0.020001 -0.029370 3.076340
v -0.000001 -0.029370 3.076340
v -0.000001 2.682526 -0.000001
v -0.020000 2.682526 -0.000001
v -0.000001 2.421447 -0.000001
v -0.020000 2.421447 -0.000001
v -0.020001 0.064190 3.076340
v -0.040001 0.064190 3.076340
v -0.040001 0.227370 3.076340
v -0.020001 0.227370 3.076340
v -0.020001 0.222770 3.076340
v 0.097799 0.189480 3.083700
v -0.049901 0.209430 3.100450
v -0.040001 0.227370 3.076340
v -0.020001 0.227370 3.076340
v -0.046401 0.224520 3.113110
v 0.101299 0.204570 3.096360
v -0.049901 2.811011 -0.000000
v -0.020000 2.804126 -0.000000
v -0.046401 2.836723 0.000000
v 0.101299 2.802720 -0.000000
v 0.097799 2.777008 0.000000
v -0.040001 2.808726 -0.000000
v -0.040001 2.645550 -0.000000
v -0.040001 2.808726 -0.000000
v -0.020000 2.645550 -0.000000
v -0.020000 2.808726 -0.000000
v -0.020000 2.808726 -0.000000
v -0.020001 0.101170 -3.076340
v -0.000001 0.101170 -3.076340
v -0.000001 -0.029370 -2.920770
v -0.020000 -0.029370 -2.920770
v -0.020001 -0.029370 -3.076340
v -0.000001 -0.029370 -3.076340
v -0.000001 2.682526 0.000001
v -0.020000 2.682526 0.000001
v -0.000001 2.421447 0.000001
v -0.020000 2.421447 0.000001
v -0.020001 0.064190 -3.076340
v -0.040001 0.064190 -3.076340
v -0.040001 0.227370 -3.076340
v -0.020001 0.227370 -3.076340
v -0.020001 0.222770 -3.076340
v 0.097799 0.189480 -3.083700
v -0.049901 0.209430 -3.100450
v -0.040001 0.227370 -3.076340
v -0.020001 0.227370 -3.076340
v -0.046401 0.224520 -3.113110
v 0.101299 0.204570 -3.096360
v -0.049901 2.811011 0.000000
v -0.020000 2.804126 0.000000
v -0.046401 2.836723 0.000000
v 0.101299 2.802720 0.000000
v 0.097799 2.777008 -0.000000
v -0.040001 2.808726 0.000000
v -0.040001 2.645550 0.000000
v -0.040001 2.808726 0.000000
v -0.020000 2.645550 0.000000
v -0.020000 2.808726 0.000000
v -0.020000 2.808726 0.000000
vn 1.0000 -0.0000 -0.0000
vn -0.0000 -1.0000 -0.0000
vn -0.0000 0.7660 0.6428
vn -0.0000 -0.7660 -0.6428
vn -0.0000 -0.0000 1.0000
vn -1.0000 -0.0000 -0.0000
vn 0.9846 -0.1340 -0.1125
vn -0.1744 -0.7543 -0.6329
vn -0.1736 -0.7546 -0.6328
vn -0.1737 -0.7545 -0.6329
vn -0.1737 -0.7544 -0.6330
vn 0.1737 0.7544 0.6330
vn -0.9846 0.1340 0.1125
vn -0.0000 -0.0000 -1.0000
vn 0.0001 -0.6427 0.7661
vn -0.0000 0.7660 -0.6428
vn -0.0000 -0.7660 0.6428
vn 0.9846 -0.1340 0.1125
vn -0.1743 -0.7543 0.6329
vn -0.1736 -0.7546 0.6328
vn -0.1737 -0.7545 0.6329
vn -0.1737 -0.7544 0.6330
vn 0.1737 0.7544 -0.6330
vn -0.9846 0.1340 -0.1125
vn 0.0001 -0.6427 -0.7661
vt 1.160875 0.349847
vt 1.214404 0.413641
vt -0.066545 0.413641
vt -0.093310 0.381744
vt -0.055297 0.349847
vt -0.024921 0.169889
vt 0.024701 0.169889
vt 0.024701 0.176268
vt -0.024922 0.176268
vt 1.108025 0.176268
vt 1.108025 0.182647
vt 0.301656 0.182647
vt 0.301656 0.176268
vt 1.135495 0.169888
vt 1.135496 0.176268
vt 0.226373 0.176268
vt 0.226373 0.169889
vt 0.492798 0.176268
vt 0.534436 0.176268
vt 0.534436 0.182647
vt 0.492798 0.182647
vt -0.055297 -0.137658
vt -0.093310 -0.169554
vt -0.066546 -0.201451
vt 1.214404 -0.201451
vt 1.160874 -0.137658
vt 1.335277 -0.010999
vt 0.052578 -0.010998
vt 0.019076 -0.050770
vt 1.301775 -0.050772
vt 1.301775 0.643336
vt 0.019076 0.643336
vt 0.052577 0.603448
vt 1.335277 0.603447
vt 0.041189 0.133926
vt 1.297392 0.133925
vt 1.297391 0.140270
vt 0.041189 0.140270
vt 0.365332 0.133926
vt 0.325403 0.133926
vt 0.325403 0.127537
vt 0.365332 0.127537
vt 0.024932 -0.148154
vt 0.019653 -0.154520
vt 1.309987 -0.154231
vt 1.309988 -0.147865
vt 1.309169 0.259316
vt 0.040592 0.225067
vt 0.041035 0.221898
vt 1.299628 0.256050
vt 1.311893 0.255295
vt 1.302313 0.252089
vt 1.303256 0.245613
vt 1.311898 0.207520
vt 1.311902 0.255343
vt 1.303262 0.245661
vt 1.307461 0.206704
vt 1.298835 0.244848
vt 0.041734 0.249598
vt 0.047311 0.211457
vt 0.047044 0.201198
vt 0.040082 0.153475
vt 1.312969 0.155299
vt 1.312988 0.203020
vt 0.019663 0.509103
vt 0.024941 0.502769
vt 1.317002 0.502474
vt 1.317000 0.508808
vt 0.935224 0.192397
vt 0.936168 0.192267
vt 0.935224 0.198742
vt 0.041190 0.140270
vt 1.297391 0.140271
vt 1.297391 0.146635
vt 0.041190 0.146634
vt 0.018791 0.455700
vt 0.019737 0.454573
vt 1.302438 0.454573
vt 0.017071 0.455318
vt 1.301598 0.454271
vt 1.300636 0.455395
vt 0.041659 0.192398
vt 1.297860 0.192397
vt 1.297860 0.198742
vt 0.041659 0.198743
vt 0.223992 0.437183
vt 0.223984 0.430793
vt 0.271887 0.430791
vt 0.271896 0.437182
vt -1.160875 0.101425
vt 0.055297 0.101425
vt 0.093310 0.069528
vt 0.066545 0.037631
vt -1.214404 0.037632
vt 0.024921 0.281383
vt 0.024922 0.275004
vt -0.024701 0.275004
vt -0.024701 0.281383
vt -1.108025 0.275004
vt -0.301656 0.275004
vt -0.301656 0.268625
vt -1.108025 0.268625
vt -1.135495 0.281384
vt -0.226373 0.281383
vt -0.226373 0.275004
vt -1.135496 0.275004
vt -0.492798 0.275004
vt -0.492798 0.268625
vt -0.534436 0.268625
vt -0.534436 0.275004
vt 0.055298 0.588930
vt -1.160874 0.588930
vt -1.214404 0.652723
vt 0.066546 0.652723
vt 0.093310 0.620826
vt -1.335277 0.462272
vt -1.301775 0.502044
vt -0.019076 0.502042
vt -0.052578 0.462270
vt -1.301775 -0.192063
vt -1.335277 -0.152175
vt -0.052577 -0.152176
vt -0.019076 -0.192064
vt -0.041189 0.317346
vt -0.041189 0.311002
vt -1.297391 0.311002
vt -1.297392 0.317347
vt -0.365332 0.317347
vt -0.365332 0.323735
vt -0.325403 0.323735
vt -0.325403 0.317347
vt -0.024932 0.599426
vt -1.309988 0.599138
vt -1.309987 0.605503
vt -0.019653 0.605792
vt -1.309169 0.191957
vt -1.299628 0.195222
vt -0.041035 0.229374
vt -0.040592 0.226205
vt -1.311893 0.195977
vt -1.303256 0.205659
vt -1.302313 0.199183
vt -1.311898 0.243753
vt -1.303262 0.205611
vt -1.311902 0.195929
vt -1.307461 0.244569
vt -0.047311 0.239815
vt -0.041734 0.201674
vt -1.298835 0.206425
vt -0.047044 0.250074
vt -1.312988 0.248252
vt -1.312969 0.295973
vt -0.040082 0.297797
vt -0.019663 -0.057831
vt -1.317000 -0.057536
vt -1.317002 -0.051202
vt -0.024941 -0.051497
vt -0.935224 0.258875
vt -0.935224 0.252530
vt -0.936168 0.259006
vt -0.041190 0.311002
vt -0.041190 0.304638
vt -1.297391 0.304638
vt -1.297391 0.311002
vt -0.018791 -0.004428
vt -1.302438 -0.003301
vt -0.019737 -0.003301
vt -0.017071 -0.004046
vt -1.300636 -0.004123
vt -1.301598 -0.002999
vt -0.041659 0.258874
vt -0.041659 0.252530
vt -1.297860 0.252530
vt -1.297860 0.258875
vt -0.223992 0.014089
vt -0.271896 0.014090
vt -0.271887 0.020481
vt -0.223984 0.020479
s 0
usemtl wood
f 9/1/1 7/2/1 2/3/1 6/4/1 3/5/1
f 5/6/2 4/7/2 3/8/2 6/9/2
f 7/10/3 8/11/3 1/12/3 2/13/3
f 10/14/4 9/15/4 3/16/4 4/17/4
f 6/18/5 2/19/5 1/20/5 5/21/5
f 4/22/6 5/23/6 1/24/6 8/25/6 10/26/6
f 11/27/1 30/28/1 31/29/1 14/30/1
f 13/31/6 29/32/6 28/33/6 12/34/6
f 30/35/4 11/36/4 12/37/4 28/38/4
f 11/39/5 14/40/5 13/41/5 12/42/5
f 26/43/7 25/44/7 21/45/7 16/46/7
f 17/47/8 22/48/8 27/49/8 18/50/8
f 17/51/9 18/52/9 15/53/9
f 16/54/10 17/55/10 15/56/10
f 16/57/11 15/58/11 23/59/11 26/60/11
f 25/61/12 24/62/12 20/63/12 21/64/12
f 24/65/13 22/66/13 17/67/13 20/68/13
f 19/69/14 15/70/14 18/71/14
f 29/72/3 13/73/3 14/74/3 31/75/3
f 32/76/6 23/77/6 15/78/6
f 32/79/6 15/80/6 19/81/6
f 32/82/4 19/83/4 18/84/4 27/85/4
f 20/86/15 17/87/15 16/88/15 21/89/15
f 41/90/1 35/91/1 38/92/1 34/93/1 39/94/1
f 37/95/2 38/96/2 35/97/2 36/98/2
f 39/99/16 34/100/16 33/101/16 40/102/16
f 42/103/17 36/104/17 35/105/17 41/106/17
f 38/107/14 37/108/14 33/109/14 34/110/14
f 36/111/6 42/112/6 40/113/6 33/114/6 37/115/6
f 43/116/1 46/117/1 63/118/1 62/119/1
f 45/120/6 44/121/6 60/122/6 61/123/6
f 62/124/17 60/125/17 44/126/17 43/127/17
f 43/128/14 44/129/14 45/130/14 46/131/14
f 58/132/18 48/133/18 53/134/18 57/135/18
f 49/136/19 50/137/19 59/138/19 54/139/19
f 49/140/20 47/141/20 50/142/20
f 48/143/21 47/144/21 49/145/21
f 48/146/22 58/147/22 55/148/22 47/149/22
f 57/150/23 53/151/23 52/152/23 56/153/23
f 56/154/24 52/155/24 49/156/24 54/157/24
f 51/158/5 50/159/5 47/160/5
f 61/161/16 63/162/16 46/163/16 45/164/16
f 64/165/6 47/166/6 55/167/6
f 64/168/6 51/169/6 47/170/6
f 64/171/17 59/172/17 50/173/17 51/174/17
f 52/175/25 53/176/25 48/177/25 49/178/25
