# Blender 4.0.2
# www.blender.org
mtllib window_800x1200_glass.mtl
o window_800x1200_glass
v -0.350545 0.070000 -0.094000
v -0.350545 0.070000 -0.098000
v -0.350000 1.170000 -0.094000
v -0.350000 1.170000 -0.098000
v 0.350000 1.170000 -0.094000
v 0.350000 1.170000 -0.098000
v 0.350000 0.070000 -0.094000
v 0.350000 0.070000 -0.098000
vn -0.0000 -0.0000 -1.0000
vn 1.0000 -0.0000 -0.0000
vn -0.0000 -1.0000 -0.0000
vn -1.0000 0.0005 -0.0000
vn -0.0000 -0.0000 1.0000
vn -0.0000 1.0000 -0.0000
s 0
usemtl glass
f 6//1 8//1 2//1 4//1
f 8//2 6//2 5//2 7//2
f 2//3 8//3 7//3 1//3
f 4//4 2//4 1//4 3//4
f 5//5 3//5 1//5 7//5
f 6//6 4//6 3//6 5//6
