# Blender 4.0.2
# www.blender.org
mtllib garage_door.mtl
o garage_door
v 0.153017 1.760000 1.243031
v 0.155017 1.762000 1.243031
v 0.153017 1.762000 1.245031
v 0.117017 1.762000 1.245031
v 0.115017 1.762000 1.243031
v 0.117017 1.760000 1.243031
v 0.117017 1.760000 -1.242970
v 0.115017 1.762000 -1.242970
v 0.117017 1.762000 -1.244970
v 0.155017 1.762000 -1.242970
v 0.153017 1.760000 -1.242970
v 0.153017 1.762000 -1.244970
v 0.153017 2.198000 1.245031
v 0.155017 2.198000 1.243031
v 0.153017 2.200000 1.243031
v 0.153017 2.200000 -1.242970
v 0.155017 2.198000 -1.242970
v 0.153017 2.198000 -1.244970
v 0.117017 2.198000 1.245031
v 0.117017 2.200000 1.243031
v 0.115017 2.198000 1.243031
v 0.115017 2.198000 -1.242970
v 0.117017 2.200000 -1.242970
v 0.117017 2.198000 -1.244970
v 0.153017 1.320000 1.243031
v 0.155017 1.322000 1.243031
v 0.153017 1.322000 1.245031
v 0.117017 1.322000 1.245031
v 0.115017 1.322000 1.243031
v 0.117017 1.320000 1.243031
v 0.117017 1.320000 -1.242970
v 0.115017 1.322000 -1.242970
v 0.117017 1.322000 -1.244970
v 0.155017 1.322000 -1.242970
v 0.153017 1.320000 -1.242970
v 0.153017 1.322000 -1.244970
v 0.153017 1.758000 1.245031
v 0.155017 1.758000 1.243031
v 0.153017 1.760000 1.243031
v 0.153017 1.760000 -1.242970
v 0.155017 1.758000 -1.242970
v 0.153017 1.758000 -1.244970
v 0.117017 1.758000 1.245031
v 0.117017 1.760000 1.243031
v 0.115017 1.758000 1.243031
v 0.115017 1.758000 -1.242970
v 0.117017 1.760000 -1.242970
v 0.117017 1.758000 -1.244970
v 0.153017 0.880000 1.243031
v 0.155017 0.882000 1.243031
v 0.153017 0.882000 1.245031
v 0.117017 0.882000 1.245031
v 0.115017 0.882000 1.243031
v 0.117017 0.880000 1.243031
v 0.117017 0.880000 -1.242970
v 0.115017 0.882000 -1.242970
v 0.117017 0.882000 -1.244970
v 0.155017 0.882000 -1.242970
v 0.153017 0.880000 -1.242970
v 0.153017 0.882000 -1.244970
v 0.153017 1.318000 1.245031
v 0.155017 1.318000 1.243031
v 0.153017 1.320000 1.243031
v 0.153017 1.320000 -1.242970
v 0.155017 1.318000 -1.242970
v 0.153017 1.318000 -1.244970
v 0.117017 1.318000 1.245031
v 0.117017 1.320000 1.243031
v 0.115017 1.318000 1.243031
v 0.115017 1.318000 -1.242970
v 0.117017 1.320000 -1.242970
v 0.117017 1.318000 -1.244970
v 0.153017 0.440000 1.243031
v 0.155017 0.442000 1.243031
v 0.153017 0.442000 1.245031
v 0.117017 0.442000 1.245031
v 0.115017 0.442000 1.243031
v 0.117017 0.440000 1.243031
v 0.117017 0.440000 -1.242970
v 0.115017 0.442000 -1.242970
v 0.117017 0.442000 -1.244970
v 0.155017 0.442000 -1.242970
v 0.153017 0.440000 -1.242970
v 0.153017 0.442000 -1.244970
v 0.153017 0.878000 1.245031
v 0.155017 0.878000 1.243031
v 0.153017 0.880000 1.243031
v 0.153017 0.880000 -1.242970
v 0.155017 0.878000 -1.242970
v 0.153017 0.878000 -1.244970
v 0.117017 0.878000 1.245031
v 0.117017 0.880000 1.243031
v 0.115017 0.878000 1.243031
v 0.115017 0.878000 -1.242970
v 0.117017 0.880000 -1.242970
v 0.117017 0.878000 -1.244970
v 0.153017 0.000000 1.243031
v 0.155017 0.002000 1.243031
v 0.153017 0.002000 1.245031
v 0.117017 0.002000 1.245031
v 0.115017 0.002000 1.243031
v 0.117017 0.000000 1.243031
v 0.117017 0.000000 -1.242970
v 0.115017 0.002000 -1.242970
v 0.117017 0.002000 -1.244970
v 0.155017 0.002000 -1.242970
v 0.153017 0.000000 -1.242970
v 0.153017 0.002000 -1.244970
v 0.153017 0.438000 1.245031
v 0.155017 0.438000 1.243031
v 0.153017 0.440000 1.243031
v 0.153017 0.440000 -1.242970
v 0.155017 0.438000 -1.242970
v 0.153017 0.438000 -1.244970
v 0.117017 0.438000 1.245031
v 0.117017 0.440000 1.243031
v 0.115017 0.438000 1.243031
v 0.115017 0.438000 -1.242970
v 0.117017 0.440000 -1.242970
v 0.117017 0.438000 -1.244970
vn -0.0000 -0.0000 1.0000
vn -0.0000 1.0000 -0.0000
vn -1.0000 -0.0000 -0.0000
vn -0.0000 -0.0000 -1.0000
vn 1.0000 -0.0000 -0.0000
vn -0.0000 -1.0000 -0.0000
vn 0.5774 -0.5773 0.5774
vn -0.5774 -0.5773 0.5774
vn -0.5774 -0.5773 -0.5774
vn 0.5774 -0.5773 -0.5774
vn 0.5774 0.5773 0.5774
vn 0.5774 0.5773 -0.5774
vn -0.5774 0.5773 0.5774
vn -0.5774 0.5773 -0.5774
vn 0.5774 -0.5773 0.5773
vn -0.5774 -0.5773 0.5773
vn -0.5774 -0.5773 -0.5773
vn 0.5774 -0.5773 -0.5773
vn 0.5773 0.5773 0.5774
vn 0.5773 0.5773 -0.5774
vn -0.5773 0.5773 0.5774
vn -0.5773 0.5773 -0.5774
vn -0.0000 -0.7071 0.7071
vn -0.7071 -0.7071 -0.0000
vn 0.7071 -0.0000 0.7071
vn -0.7071 -0.0000 0.7071
vn -0.7071 -0.0000 -0.7071
vn -0.0000 0.7071 -0.7071
vn 0.7071 -0.7071 -0.0000
vn -0.7071 0.7071 -0.0000
vn -0.0000 -0.7071 -0.7071
vn 0.7071 -0.0000 -0.7071
vn 0.7071 0.7071 -0.0000
vn -0.0000 0.7071 0.7071
vt 0.753168 1.408201
vt 0.753168 1.397364
vt 0.884416 1.397364
vt 0.884416 1.408201
vt 0.002107 0.108972
vt 0.750459 0.108971
vt 0.750459 0.119808
vt 0.002107 0.119809
vt 0.750459 0.649615
vt 0.002107 0.649615
vt 0.002107 0.518367
vt 0.750459 0.518367
vt 0.884416 1.444324
vt 0.753168 1.444324
vt 0.753168 1.433487
vt 0.884416 1.433487
vt 0.002107 0.385916
vt 0.750459 0.385916
vt 0.750459 0.517163
vt 0.002107 0.517163
vt 0.002107 0.096931
vt 0.750459 0.096930
vt 0.750459 0.107767
vt 0.002107 0.107767
vt 0.753168 1.384119
vt 0.753168 1.373282
vt 0.884416 1.373282
vt 0.884416 1.384119
vt 0.002107 0.084890
vt 0.750459 0.084889
vt 0.750459 0.095726
vt 0.002107 0.095726
vt 0.750459 0.384711
vt 0.002107 0.384712
vt 0.002107 0.253464
vt 0.750459 0.253464
vt 0.884416 1.420242
vt 0.753168 1.420242
vt 0.753168 1.409405
vt 0.884416 1.409405
vt 0.002107 0.121013
vt 0.750459 0.121013
vt 0.750459 0.252260
vt 0.002107 0.252260
vt 0.002107 0.072848
vt 0.750459 0.072848
vt 0.750459 0.083685
vt 0.002107 0.083685
vt 0.753168 1.360037
vt 0.753168 1.349200
vt 0.884416 1.349200
vt 0.884416 1.360037
vt 0.002107 0.060807
vt 0.750459 0.060807
vt 0.750459 0.071644
vt 0.002107 0.071644
vt 0.750459 0.914518
vt 0.002107 0.914518
vt 0.002107 0.783271
vt 0.750459 0.783270
vt 0.884416 1.396160
vt 0.753168 1.396160
vt 0.753168 1.385323
vt 0.884416 1.385323
vt 0.002107 0.650819
vt 0.750459 0.650819
vt 0.750459 0.782066
vt 0.002107 0.782067
vt 0.002107 0.048766
vt 0.750459 0.048766
vt 0.750459 0.059603
vt 0.002107 0.059603
vt 0.753168 1.335955
vt 0.753168 1.325118
vt 0.884416 1.325118
vt 0.884416 1.335955
vt 0.002107 0.036725
vt 0.750459 0.036725
vt 0.750459 0.047562
vt 0.002107 0.047562
vt 0.750459 1.444324
vt 0.002107 1.444325
vt 0.002107 1.313077
vt 0.750459 1.313077
vt 0.884416 1.372078
vt 0.753168 1.372078
vt 0.753168 1.361241
vt 0.884416 1.361241
vt 0.002107 1.180625
vt 0.750459 1.180625
vt 0.750459 1.311873
vt 0.002107 1.311873
vt 0.002107 0.024684
vt 0.750459 0.024684
vt 0.750459 0.035521
vt 0.002107 0.035521
vt 0.002107 0.012643
vt 0.750459 0.012643
vt 0.750459 0.023480
vt 0.002107 0.023480
vt 0.750459 1.179421
vt 0.002107 1.179421
vt 0.002107 1.048174
vt 0.750459 1.048174
vt 0.884416 1.347996
vt 0.753168 1.347996
vt 0.753168 1.337159
vt 0.884416 1.337159
vt 0.002107 0.915722
vt 0.750459 0.915722
vt 0.750459 1.046970
vt 0.002107 1.046970
vt 0.002107 0.000602
vt 0.750459 0.000602
vt 0.750459 0.011439
vt 0.002107 0.011439
vt 0.002107 0.108370
vt 0.001505 0.107767
vt 0.751061 0.518367
vt 0.750459 0.517765
vt 0.750459 0.096328
vt 0.751061 0.096930
vt 0.750459 0.108369
vt 0.751061 0.107767
vt 0.753168 1.432283
vt 0.753168 1.432885
vt 0.752566 1.432283
vt 0.750459 0.108369
vt 0.751061 0.108971
vt 0.001505 0.119809
vt 0.002107 0.120411
vt 0.750459 0.120410
vt 0.751061 0.119808
vt 0.002107 0.084287
vt 0.001505 0.083685
vt 0.751061 0.253464
vt 0.750459 0.252862
vt 0.750459 0.072246
vt 0.751061 0.072848
vt 0.750459 0.084287
vt 0.751061 0.083685
vt 0.753168 1.408803
vt 0.752566 1.408201
vt 0.750459 0.084287
vt 0.751061 0.084889
vt 0.001505 0.095726
vt 0.002107 0.096329
vt 0.750459 0.096328
vt 0.751061 0.095726
vt 0.002107 0.060205
vt 0.001505 0.059603
vt 0.751061 0.783270
vt 0.750459 0.782668
vt 0.750459 0.048164
vt 0.751061 0.048766
vt 0.750459 0.060205
vt 0.751061 0.059603
vt 0.753168 1.384721
vt 0.752566 1.384119
vt 0.750459 0.060205
vt 0.751061 0.060807
vt 0.001505 0.071644
vt 0.002107 0.072246
vt 0.750459 0.072246
vt 0.751061 0.071644
vt 0.002107 0.036123
vt 0.001505 0.035521
vt 0.751061 1.313077
vt 0.750459 1.312475
vt 0.750459 0.024082
vt 0.751061 0.024684
vt 0.750459 0.036123
vt 0.751061 0.035521
vt 0.753168 1.360639
vt 0.752566 1.360037
vt 0.750459 0.036123
vt 0.751061 0.036725
vt 0.001505 0.047562
vt 0.002107 0.048164
vt 0.750459 0.048164
vt 0.751061 0.047562
vt 0.002107 0.012041
vt 0.001505 0.011439
vt 0.751061 1.048174
vt 0.750459 1.047572
vt 0.750459 0.000000
vt 0.751061 0.000602
vt 0.750459 0.012041
vt 0.751061 0.011439
vt 0.753168 1.336557
vt 0.752566 1.335955
vt 0.750459 0.012041
vt 0.751061 0.012643
vt 0.001505 0.023480
vt 0.002107 0.024082
vt 0.750459 0.024082
vt 0.751061 0.023480
vt 0.001505 0.096931
vt 0.002107 0.096329
vt 0.884416 1.432885
vt 0.884416 1.432283
vt 0.751061 0.649615
vt 0.001505 0.649615
vt 0.001505 0.518368
vt 0.750459 0.108369
vt 0.751061 0.385916
vt 0.751061 0.517163
vt 0.002107 0.108370
vt 0.001505 0.108972
vt 0.001505 0.072848
vt 0.002107 0.072246
vt 0.884416 1.408803
vt 0.751061 0.384711
vt 0.884416 1.420844
vt 0.753168 1.420844
vt 0.750459 0.084287
vt 0.750459 0.096328
vt 0.885018 1.409405
vt 0.885018 1.420242
vt 0.002107 0.084287
vt 0.001505 0.084890
vt 0.001505 0.048766
vt 0.002107 0.048164
vt 0.884416 1.384721
vt 0.751061 0.914518
vt 0.884416 1.396762
vt 0.753168 1.396762
vt 0.885018 1.385323
vt 0.885018 1.396160
vt 0.002107 0.060205
vt 0.001505 0.060807
vt 0.001505 0.024684
vt 0.002107 0.024082
vt 0.884416 1.360639
vt 0.751061 1.444324
vt 0.884416 1.372680
vt 0.753168 1.372680
vt 0.750459 0.048164
vt 0.885018 1.361241
vt 0.885018 1.372078
vt 0.753168 1.360639
vt 0.002107 0.036123
vt 0.001505 0.036725
vt 0.001505 0.000602
vt 0.002107 0.000000
vt 0.884416 1.336557
vt 0.751061 1.179421
vt 0.884416 1.348598
vt 0.753168 1.348598
vt 0.750459 0.012041
vt 0.750459 0.024082
vt 0.753168 1.336557
vt 0.002107 0.012041
vt 0.001505 0.012643
vt 0.753168 1.421446
vt 0.884416 1.421446
s 0
usemtl garage_doors
f 37/1/1 43/2/1 28/3/1 27/4/1
f 15/5/2 16/6/2 23/7/2 20/8/2
f 21/9/3 22/10/3 8/11/3 5/12/3
f 9/13/4 24/14/4 18/15/4 12/16/4
f 2/17/5 10/18/5 17/19/5 14/20/5
f 6/21/6 7/22/6 11/23/6 1/24/6
f 61/25/1 67/26/1 52/27/1 51/28/1
f 39/29/2 40/30/2 47/31/2 44/32/2
f 45/33/3 46/34/3 32/35/3 29/36/3
f 33/37/4 48/38/4 42/39/4 36/40/4
f 26/41/5 34/42/5 41/43/5 38/44/5
f 30/45/6 31/46/6 35/47/6 25/48/6
f 85/49/1 91/50/1 76/51/1 75/52/1
f 63/53/2 64/54/2 71/55/2 68/56/2
f 69/57/3 70/58/3 56/59/3 53/60/3
f 57/61/4 72/62/4 66/63/4 60/64/4
f 50/65/5 58/66/5 65/67/5 62/68/5
f 54/69/6 55/70/6 59/71/6 49/72/6
f 109/73/1 115/74/1 100/75/1 99/76/1
f 87/77/2 88/78/2 95/79/2 92/80/2
f 93/81/3 94/82/3 80/83/3 77/84/3
f 81/85/4 96/86/4 90/87/4 84/88/4
f 74/89/5 82/90/5 89/91/5 86/92/5
f 78/93/6 79/94/6 83/95/6 73/96/6
f 111/97/2 112/98/2 119/99/2 116/100/2
f 117/101/3 118/102/3 104/103/3 101/104/3
f 105/105/4 120/106/4 114/107/4 108/108/4
f 98/109/5 106/110/5 113/111/5 110/112/5
f 102/113/6 103/114/6 107/115/6 97/116/6
f 1/24/7 2/117/7 3/118/7
f 4/119/8 5/12/8 6/120/8
f 7/22/9 8/121/9 9/122/9
f 10/123/10 11/23/10 12/124/10
f 13/125/11 14/126/11 15/127/11
f 16/6/12 17/128/12 18/129/12
f 19/130/13 20/8/13 21/131/13
f 22/132/14 23/7/14 24/133/14
f 25/48/15 26/134/15 27/135/15
f 28/136/16 29/36/16 30/137/16
f 31/46/17 32/138/17 33/139/17
f 34/140/18 35/47/18 36/141/18
f 37/1/19 38/142/19 39/143/19
f 40/30/20 41/144/20 42/145/20
f 43/146/21 44/32/21 45/147/21
f 46/148/22 47/31/22 48/149/22
f 49/72/7 50/150/7 51/151/7
f 52/152/8 53/60/8 54/153/8
f 55/70/9 56/154/9 57/155/9
f 58/156/10 59/71/10 60/157/10
f 61/25/11 62/158/11 63/159/11
f 64/54/12 65/160/12 66/161/12
f 67/162/13 68/56/13 69/163/13
f 70/164/14 71/55/14 72/165/14
f 73/96/7 74/166/7 75/167/7
f 76/168/8 77/84/8 78/169/8
f 79/94/9 80/170/9 81/171/9
f 82/172/10 83/95/10 84/173/10
f 85/49/11 86/174/11 87/175/11
f 88/78/12 89/176/12 90/177/12
f 91/178/13 92/80/13 93/179/13
f 94/180/14 95/79/14 96/181/14
f 97/116/7 98/182/7 99/183/7
f 100/184/8 101/104/8 102/185/8
f 103/114/9 104/186/9 105/187/9
f 106/188/10 107/115/10 108/189/10
f 109/73/11 110/190/11 111/191/11
f 112/98/12 113/192/12 114/193/12
f 115/194/13 116/100/13 117/195/13
f 118/196/14 119/99/14 120/197/14
f 3/118/23 4/198/23 6/21/23 1/24/23
f 5/199/24 8/121/24 7/22/24 6/21/24
f 2/200/25 14/126/25 13/125/25 3/201/25
f 4/119/26 19/202/26 21/9/26 5/12/26
f 8/11/27 22/10/27 24/203/27 9/204/27
f 18/129/28 24/133/28 23/7/28 16/6/28
f 1/24/29 11/23/29 10/205/29 2/117/29
f 20/8/30 23/7/30 22/132/30 21/131/30
f 9/122/31 12/124/31 11/23/31 7/22/31
f 12/206/32 18/207/32 17/19/32 10/18/32
f 14/208/33 17/128/33 16/6/33 15/5/33
f 15/5/34 20/8/34 19/130/34 13/209/34
f 27/135/23 28/210/23 30/45/23 25/48/23
f 29/211/24 32/138/24 31/46/24 30/45/24
f 26/212/25 38/142/25 37/1/25 27/4/25
f 28/136/26 43/213/26 45/33/26 29/36/26
f 32/214/27 46/215/27 48/38/27 33/37/27
f 42/145/28 48/149/28 47/31/28 40/30/28
f 25/48/29 35/47/29 34/216/29 26/134/29
f 44/32/30 47/31/30 46/217/30 45/147/30
f 33/37/31 36/40/31 35/218/31 31/219/31
f 36/40/32 42/39/32 41/142/32 34/212/32
f 38/220/33 41/144/33 40/30/33 39/29/33
f 39/29/34 44/32/34 43/146/34 37/221/34
f 51/151/23 52/222/23 54/69/23 49/72/23
f 53/223/24 56/154/24 55/70/24 54/69/24
f 50/224/25 62/158/25 61/25/25 51/28/25
f 52/152/26 67/225/26 69/57/26 53/60/26
f 56/226/27 70/227/27 72/62/27 57/61/27
f 66/161/28 72/165/28 71/55/28 64/54/28
f 49/72/29 59/71/29 58/156/29 50/150/29
f 68/56/30 71/55/30 70/164/30 69/163/30
f 57/61/31 60/64/31 59/228/31 55/229/31
f 60/64/32 66/63/32 65/158/32 58/224/32
f 62/230/33 65/160/33 64/54/33 63/53/33
f 63/53/34 68/56/34 67/162/34 61/231/34
f 75/167/23 76/232/23 78/93/23 73/96/23
f 77/233/24 80/170/24 79/94/24 78/93/24
f 74/234/25 86/174/25 85/49/25 75/52/25
f 76/168/26 91/235/26 93/81/26 77/84/26
f 80/236/27 94/237/27 96/86/27 81/85/27
f 90/177/28 96/181/28 95/79/28 88/78/28
f 73/96/29 83/95/29 82/172/29 74/166/29
f 92/80/30 95/79/30 94/238/30 93/179/30
f 81/85/31 84/88/31 83/239/31 79/240/31
f 84/88/32 90/87/32 89/241/32 82/234/32
f 86/242/33 89/176/33 88/78/33 87/77/33
f 87/77/34 92/80/34 91/178/34 85/243/34
f 99/183/23 100/244/23 102/113/23 97/116/23
f 101/245/24 104/186/24 103/114/24 102/113/24
f 98/246/25 110/190/25 109/73/25 99/76/25
f 100/184/26 115/247/26 117/101/26 101/104/26
f 104/248/27 118/249/27 120/106/27 105/105/27
f 114/193/28 120/197/28 119/99/28 112/98/28
f 97/116/29 107/115/29 106/250/29 98/182/29
f 116/100/30 119/99/30 118/251/30 117/195/30
f 105/187/31 108/189/31 107/115/31 103/114/31
f 108/108/32 114/107/32 113/252/32 106/246/32
f 110/253/33 113/192/33 112/98/33 111/97/33
f 111/97/34 116/100/34 115/194/34 109/254/34
f 13/125/1 19/255/1 4/256/1 3/201/1
