# Blender 4.0.2
# www.blender.org
mtllib roof_tri_window_5500_glass.mtl
o roof_tri_window_5500_glass
v 0.024000 0.242571 2.325900
v 0.020000 0.244000 2.317974
v 0.024000 0.240000 2.324964
v 0.024000 2.072084 0.145564
v 0.024000 2.070655 0.142500
v 0.020000 2.066077 0.146500
v 0.024000 0.244000 0.142500
v 0.024000 0.240000 0.146500
v 0.020000 0.244000 0.146500
v 0.036000 0.242571 2.325900
v 0.036000 0.240000 2.324964
v 0.040000 0.244000 2.317974
v 0.036000 2.072084 0.145564
v 0.040000 2.066077 0.146500
v 0.036000 2.070655 0.142500
v 0.036000 0.244000 0.142500
v 0.040000 0.244000 0.146500
v 0.036000 0.240000 0.146500
v 0.036000 0.242571 -2.325900
v 0.040000 0.244000 -2.317974
v 0.036000 0.240000 -2.324964
v 0.036000 2.072084 -0.145564
v 0.036000 2.070655 -0.142500
v 0.040000 2.066077 -0.146500
v 0.036000 0.244000 -0.142500
v 0.036000 0.240000 -0.146500
v 0.040000 0.244000 -0.146500
v 0.024000 0.242571 -2.325900
v 0.024000 0.240000 -2.324964
v 0.020000 0.244000 -2.317974
v 0.024000 2.072084 -0.145564
v 0.020000 2.066077 -0.146500
v 0.024000 2.070655 -0.142500
v 0.024000 0.244000 -0.142500
v 0.020000 0.244000 -0.146500
v 0.024000 0.240000 -0.146500
vn -0.0000 -1.0000 -0.0000
vn -0.0000 0.7660 -0.6428
vn -0.0000 -0.0000 -1.0000
vn 1.0000 -0.0000 -0.0000
vn -1.0000 -0.0000 -0.0000
vn -0.0000 -0.0000 1.0000
vn -0.8930 -0.1540 0.4229
vn -0.8250 0.5122 -0.2388
vn -0.5773 -0.5773 -0.5774
vn 0.8930 -0.1540 0.4229
vn 0.8250 0.5122 -0.2388
vn 0.5773 -0.5773 -0.5774
vn 0.8930 -0.1540 -0.4229
vn 0.8250 0.5122 0.2388
vn 0.5773 -0.5773 0.5774
vn -0.8930 -0.1540 -0.4229
vn -0.8250 0.5122 0.2388
vn -0.5773 -0.5773 0.5774
vn -0.7071 0.5417 0.4545
vn -0.7071 -0.0000 -0.7071
vn -0.7071 -0.7071 -0.0000
vn 0.7071 0.5417 0.4545
vn 0.7071 -0.0000 -0.7071
vn 0.7071 -0.7071 -0.0000
vn -0.0000 -0.7071 -0.7071
vn -0.0000 -0.3420 0.9397
vn -0.0000 0.9063 -0.4226
vn 0.7071 0.5417 -0.4545
vn 0.7071 -0.0000 0.7071
vn -0.7071 0.5417 -0.4545
vn -0.7071 -0.0000 0.7071
vn -0.0000 -0.7071 0.7071
vn -0.0000 -0.3420 -0.9397
vn -0.0000 0.9063 0.4226
vn -0.0000 0.7660 0.6428
vt 0.819669 -0.367659
vt 0.819669 0.856985
vt 0.812923 0.856985
vt 0.812923 -0.367659
vt 0.799225 1.098942
vt 0.799225 -0.087732
vt 0.805971 -0.087732
vt 0.805970 1.098942
vt 0.297512 0.716929
vt 0.297512 -0.309941
vt 0.304258 -0.309941
vt 0.304258 0.716929
vt 0.002857 1.237649
vt 0.002857 0.016935
vt 1.027154 0.016935
vt 0.400109 0.004817
vt 0.939249 0.647341
vt 0.400109 0.647341
vt 0.819669 -0.367659
vt 0.819669 0.856985
vt 0.297512 0.716929
vt 0.297512 -0.309941
vt 0.304258 -0.309941
vt 0.304258 0.716929
vt 0.399686 0.002472
vt 0.398926 0.002749
vt 0.297512 -0.310745
vt 0.295264 -0.307368
vt 0.819669 0.859234
vt 0.821918 0.856985
vt 0.812923 -0.368185
vt 0.810675 -0.363729
vt 1.030531 0.016409
vt 1.029728 0.014686
vt 0.002857 0.014686
vt 0.000608 0.016935
vt 0.819669 0.859234
vt 0.810675 -0.363729
vt 0.399686 0.002472
vt 0.941026 0.647618
vt 0.940603 0.648525
vt 0.400109 0.648525
vt 0.398926 0.647341
vt 1.030531 0.016409
vt 0.002054 1.242105
vt 0.002857 0.014686
vt 0.810675 0.856985
vt 0.812923 0.859234
vt 0.812923 -0.369907
vt 0.819669 -0.369907
vt 0.297512 -0.312190
vt 0.304258 -0.312190
vt 0.000608 1.241579
vt 0.812923 -0.369907
vt 0.297512 -0.312190
vt 0.799225 -0.087732
vt 0.805971 -0.087732
vt 0.805970 1.098942
s 0
usemtl glass
f 3/1/1 8/2/1 18/3/1 11/4/1
f 22/5/2 19/6/2 28/7/2 31/8/2
f 7/9/3 5/10/3 15/11/3 16/12/3
f 12/13/4 17/14/4 14/15/4
f 2/16/5 6/17/5 9/18/5
f 21/19/1 26/20/1 36/3/1 29/4/1
f 25/21/6 23/22/6 33/23/6 34/24/6
f 30/13/5 35/14/5 32/15/5
f 20/16/4 24/17/4 27/18/4
f 1/25/7 2/16/7 3/26/7
f 4/27/8 5/10/8 6/28/8
f 7/29/9 8/2/9 9/30/9
f 10/31/10 11/4/10 12/32/10
f 13/33/11 14/15/11 15/34/11
f 16/35/12 17/14/12 18/36/12
f 19/25/13 20/16/13 21/26/13
f 22/27/14 23/22/14 24/28/14
f 25/37/15 26/20/15 27/30/15
f 28/31/16 29/4/16 30/38/16
f 31/33/17 32/15/17 33/34/17
f 34/35/18 35/14/18 36/36/18
f 1/39/19 4/40/19 6/17/19 2/16/19
f 5/41/20 7/42/20 9/18/20 6/17/20
f 8/43/21 3/26/21 2/16/21 9/18/21
f 12/13/22 14/15/22 13/44/22 10/45/22
f 14/15/23 17/14/23 16/46/23 15/34/23
f 17/47/24 12/38/24 11/4/24 18/3/24
f 7/29/25 16/48/25 18/3/25 8/2/25
f 10/49/26 1/50/26 3/1/26 11/4/26
f 4/51/27 13/52/27 15/11/27 5/10/27
f 19/39/28 22/40/28 24/17/28 20/16/28
f 23/41/29 25/42/29 27/18/29 24/17/29
f 26/43/24 21/26/24 20/16/24 27/18/24
f 30/13/30 32/15/30 31/44/30 28/45/30
f 32/15/31 35/14/31 34/46/31 33/34/31
f 35/14/21 30/13/21 29/53/21 36/36/21
f 25/37/32 34/48/32 36/3/32 26/20/32
f 28/54/33 19/50/33 21/19/33 29/4/33
f 22/55/34 31/52/34 33/23/34 23/22/34
f 4/5/35 1/56/35 10/57/35 13/58/35
