# Blender 4.0.2
# www.blender.org
mtllib roof_tile_start.mtl
o roof_tile_start
v 0.213811 0.076030 -0.003358
v 0.208036 0.078262 -0.003471
v 0.208036 0.061341 -0.326392
v 0.213811 0.059103 -0.326270
v -0.061000 0.050587 -0.002022
v -0.061000 -0.039662 0.002710
v -0.049500 -0.039662 0.002710
v -0.049500 0.043212 -0.001636
v -0.047065 0.054068 -0.002203
v -0.042640 0.063385 -0.002690
v -0.035664 0.071560 -0.003122
v -0.027818 0.077198 -0.003416
v -0.018683 0.080977 -0.003615
v -0.008781 0.082373 -0.003687
v 0.000911 0.081797 -0.003658
v 0.010303 0.078365 -0.003474
v 0.023012 0.070472 -0.003061
v 0.029687 0.063038 -0.002673
v 0.055497 0.035160 -0.001215
v 0.068714 0.026609 -0.000765
v 0.083543 0.021332 -0.000489
v 0.099186 0.019607 -0.000399
v 0.108186 0.020340 -0.000438
v 0.113807 0.021287 -0.000489
v 0.122080 0.023764 -0.000615
v 0.129550 0.026981 -0.000786
v 0.136047 0.031010 -0.000994
v 0.146030 0.038539 -0.001392
v 0.164878 0.064548 -0.002752
v 0.171090 0.071365 -0.003107
v 0.177170 0.075561 -0.003328
v 0.186185 0.079153 -0.003518
v 0.194792 0.080416 -0.003587
v 0.217955 0.073231 -0.003207
v 0.223447 0.068859 -0.002980
v 0.228744 0.062119 -0.002625
v 0.232160 0.055045 -0.002255
v 0.233099 0.074666 -0.003285
v 0.229265 0.079064 -0.003516
v 0.219075 0.086215 -0.003885
v 0.207433 0.090683 -0.004121
v 0.193008 0.092179 -0.004199
v 0.182090 0.090529 -0.004110
v 0.172176 0.086759 -0.003915
v 0.163375 0.081125 -0.003619
v 0.154908 0.072552 -0.003174
v 0.141504 0.053695 -0.002182
v 0.131106 0.044663 -0.001713
v 0.119649 0.038525 -0.001390
v 0.105145 0.034703 -0.001188
v 0.092145 0.034600 -0.001185
v 0.077511 0.037883 -0.001352
v 0.064895 0.043948 -0.001672
v 0.054826 0.052158 -0.002101
v 0.030612 0.080215 -0.003575
v 0.020204 0.088107 -0.003990
v 0.006561 0.093718 -0.004279
v -0.007240 0.095487 -0.004371
v -0.017738 0.094475 -0.004324
v -0.026976 0.091804 -0.004181
v -0.038650 0.085451 -0.003847
v -0.049736 0.075189 -0.003307
v -0.057166 0.063067 -0.002675
v 0.217508 0.056611 -0.326144
v 0.217508 0.057760 -0.304170
v 0.194792 0.063488 -0.326499
v 0.192508 0.063155 -0.326484
v 0.192508 0.075185 -0.327117
v 0.207433 0.073762 -0.327042
v 0.219075 0.069294 -0.326806
v 0.223447 0.053087 -0.303926
v 0.228744 0.046346 -0.303572
v 0.232160 0.039272 -0.303202
v 0.241930 0.039272 -0.303202
v 0.241930 0.054910 -0.004796
v 0.233692 0.055026 -0.002616
v 0.237182 0.069908 -0.004320
v 0.237182 0.054208 -0.303986
v 0.229265 0.063292 -0.304463
v 0.219075 0.070442 -0.304832
v 0.192508 0.074029 -0.349084
v 0.182090 0.072315 -0.351779
v 0.172176 0.068400 -0.354216
v 0.163375 0.062643 -0.356265
v 0.162509 0.061757 -0.356453
v 0.162509 0.060886 -0.373070
v 0.154908 0.053185 -0.372662
v 0.141504 0.034334 -0.371678
v 0.131106 0.025294 -0.371202
v 0.119649 0.019158 -0.370878
v 0.105145 0.015342 -0.370684
v 0.092145 0.015233 -0.370673
v 0.077511 0.018522 -0.370848
v 0.064895 0.024586 -0.371168
v 0.054826 0.032797 -0.371597
v 0.030612 0.060847 -0.373064
v 0.020204 0.068738 -0.373479
v 0.006561 0.074356 -0.373776
v -0.007240 0.076126 -0.373867
v -0.017738 0.075107 -0.373812
v -0.026976 0.072443 -0.373677
v -0.038650 0.066089 -0.373343
v -0.049500 0.056044 -0.372813
v -0.049500 0.059374 -0.309260
v -0.057166 0.047035 -0.308617
v -0.061000 0.034555 -0.307965
v -0.061000 -0.036457 -0.304239
v -0.049500 -0.036457 -0.304239
v -0.049500 0.027180 -0.307578
v -0.049500 0.023845 -0.371124
v -0.047065 0.034706 -0.371699
v -0.042640 0.044023 -0.372186
v -0.035664 0.052192 -0.372611
v -0.027818 0.057830 -0.372904
v -0.018683 0.061609 -0.373104
v -0.008781 0.063012 -0.373183
v 0.000911 0.062430 -0.373146
v 0.010303 0.059003 -0.372971
v 0.023012 0.051111 -0.372557
v 0.029687 0.043677 -0.372169
v 0.055497 0.015793 -0.370703
v 0.068714 0.007248 -0.370260
v 0.083543 0.001965 -0.369977
v 0.099186 0.000239 -0.369887
v 0.108186 0.000971 -0.369926
v 0.113807 0.001919 -0.369977
v 0.122080 0.004403 -0.370110
v 0.129550 0.007613 -0.370274
v 0.136047 0.011649 -0.370489
v 0.146030 0.019171 -0.370880
v 0.162509 0.041914 -0.372072
v 0.162509 0.042784 -0.355455
v 0.164878 0.046086 -0.354997
v 0.171090 0.052990 -0.353698
v 0.177170 0.057276 -0.352305
v 0.186185 0.060986 -0.350087
v 0.192508 0.062007 -0.348457
v 0.243008 0.042761 -0.303389
v 0.243008 0.058380 -0.005265
vn -0.7430 0.6683 -0.0351
vn -0.9110 0.4117 -0.0216
vn -0.9110 0.4118 -0.0216
vn -0.7727 0.6339 -0.0333
vn 0.0001 0.0522 0.9986
vn -0.0000 0.0523 0.9986
vn -0.0000 0.0522 0.9986
vn -0.0000 -0.0524 -0.9986
vn -0.0000 -0.0523 -0.9986
vn -0.5837 0.8109 -0.0425
vn -0.6798 0.7324 -0.0384
vn -0.0002 -0.0523 -0.9986
vn -0.0001 -0.0524 -0.9986
vn -0.0001 -0.0525 -0.9986
vn -0.4427 -0.8954 0.0469
vn -0.6440 -0.7640 0.0400
vn 0.2310 0.9716 -0.0510
vn -0.0672 0.9964 -0.0523
vn -0.0253 0.9983 -0.0524
vn -0.7662 0.6417 -0.0336
vn -0.7411 0.6704 -0.0351
vn -1.0000 0.0035 -0.0002
vn -1.0000 -0.0000 -0.0000
vn -0.0000 -0.9986 0.0523
vn -0.0001 -0.9986 0.0523
vn 0.8223 0.5682 -0.0298
vn 0.8291 0.5583 -0.0293
vn 0.7545 0.6554 -0.0343
vn 0.7142 -0.6990 0.0366
vn 0.5657 -0.8235 0.0432
vn -0.1496 0.9874 -0.0517
vn -0.2709 0.9613 -0.0504
vn -0.2543 0.9658 -0.0506
vn -0.9889 0.1481 -0.0078
vn 0.6695 0.7418 -0.0389
vn -0.7120 0.7012 -0.0367
vn -0.6297 0.7758 -0.0407
vn -0.6411 0.7664 -0.0402
vn 0.4871 -0.8721 0.0457
vn 0.2777 -0.9594 0.0503
vn 0.2596 -0.9644 0.0505
vn 0.4725 -0.8801 0.0461
vn 0.8101 -0.5855 0.0307
vn 0.7761 -0.6298 0.0330
vn 1.0000 -0.0000 -0.0000
vn 0.2564 0.9653 -0.0506
vn 0.4970 0.8666 -0.0454
vn 0.5368 0.8425 -0.0441
vn 0.3287 0.9431 -0.0494
vn 0.4338 0.8998 -0.0472
vn 0.4704 0.8812 -0.0462
vn 0.6775 -0.7346 0.0385
vn 0.6774 -0.7346 0.0385
vn 0.8395 -0.5426 0.0284
vn -0.5681 0.8218 -0.0431
vn 0.6849 0.7277 -0.0381
vn 0.6976 0.7155 -0.0375
vn -0.8487 -0.5282 0.0277
vn -0.9007 -0.4338 0.0227
vn -0.7394 -0.6723 0.0352
vn -0.3804 0.9235 -0.0484
vn -0.1326 0.9898 -0.0519
vn -0.3663 0.9292 -0.0487
vn 0.1240 -0.9909 0.0519
vn 0.1239 -0.9909 0.0519
vn -0.0143 -0.9985 0.0523
vn -0.4381 -0.8977 0.0470
vn -0.2037 -0.9777 0.0512
vn 0.0404 -0.9978 0.0523
vn 0.0156 0.9985 -0.0523
vn 0.0002 -0.0522 -0.9986
vn 0.0001 -0.0523 -0.9986
vn -0.5807 -0.8130 0.0426
vn -0.7088 -0.7045 0.0370
vn -0.5910 -0.8056 0.0423
vn -0.0076 -0.9986 0.0523
vn -0.2624 -0.9636 0.0505
vn -0.0077 -0.9986 0.0523
vn 0.9555 -0.2946 0.0154
vn -0.2243 -0.9732 0.0510
vn -1.0000 0.0052 -0.0003
vn -0.1879 0.9808 -0.0514
vn -0.6427 -0.7650 0.0401
vn -0.6428 -0.7650 0.0401
vn 0.3422 -0.9383 0.0492
vn 0.2274 -0.9725 0.0510
vn 0.2635 -0.9633 0.0505
vn 0.4866 -0.8724 0.0457
vn 0.9455 -0.3251 0.0170
vn 0.9758 -0.2182 0.0114
vn 0.1063 0.9930 -0.0520
vn 0.4630 -0.8851 0.0464
vn 0.4631 -0.8851 0.0464
vn -0.4636 -0.8848 0.0464
vn 0.1454 -0.9880 0.0518
vn 0.7798 -0.6251 0.0328
vn 0.6692 -0.7420 0.0389
vn 0.6584 -0.7516 0.0394
vn -0.4640 0.8846 -0.0464
vn -0.4503 0.8917 -0.0467
vn -0.5600 -0.8274 0.0434
vn 0.9925 -0.1223 0.0064
vn 0.8915 0.4525 -0.0237
vn -0.0002 -0.0524 -0.9986
vn 0.2578 -0.0507 -0.9649
vn 0.2575 -0.0506 -0.9650
vn 0.3589 0.9321 -0.0488
vn -0.0000 -0.9999 -0.0104
vn 0.0002 -0.0524 -0.9986
vn 0.0002 -0.0523 -0.9986
vn 0.1456 0.0570 0.9877
vn 0.2281 0.1604 0.9603
vn 0.2259 0.1445 0.9634
vn 0.2563 0.0508 0.9653
vn 0.2217 0.0633 0.9730
vn 0.2036 -0.0075 0.9790
vn 0.0740 0.0267 0.9969
vn 0.0002 0.0523 0.9986
vn 0.0001 0.0524 0.9986
vn -0.0000 0.0521 0.9986
vn -0.0001 0.0522 0.9986
vn -0.0002 0.0522 0.9986
vn -0.0001 0.0520 0.9986
vn 0.0002 0.0520 0.9986
vn 0.0001 0.0521 0.9986
vn 0.0003 0.0521 0.9986
vn -0.0001 0.0523 0.9986
vn 0.0001 0.0523 0.9986
vn -0.0002 0.0524 0.9986
vn -0.0001 0.0524 0.9986
vn -0.0002 0.0521 0.9986
vn 0.0001 0.0525 0.9986
vn -0.0000 0.0524 0.9986
vn 0.0003 0.0525 0.9986
vn 0.0002 0.0522 0.9986
vn -0.0004 0.0519 0.9987
vn -0.0003 0.0525 0.9986
vn -0.0001 0.0521 0.9986
vn -0.0000 -0.0533 -0.9986
vn -0.0003 -0.0525 -0.9986
vn -0.0002 -0.0527 -0.9986
vn -0.0003 -0.0523 -0.9986
vn -0.0004 -0.0521 -0.9986
vn 0.0003 -0.0522 -0.9986
vn 0.0003 -0.0526 -0.9986
vn 0.0009 -0.0526 -0.9986
vn 0.0001 -0.0528 -0.9986
vn -0.0008 -0.0521 -0.9986
vn 0.2584 -0.0498 -0.9647
vn 0.2573 -0.0503 -0.9650
vn 0.2576 -0.0507 -0.9649
vn 0.2568 -0.0503 -0.9651
vn 0.2589 -0.0496 -0.9646
vn 0.2576 -0.0508 -0.9649
vn 0.2575 -0.0507 -0.9649
vn -0.0018 -0.0524 -0.9986
vn -0.0022 -0.0524 -0.9986
vn 0.0002 -0.0527 -0.9986
vn 0.0001 -0.0522 -0.9986
vn -0.0001 -0.0523 -0.9986
vn 0.0002 -0.0521 -0.9986
vn 0.0001 -0.0521 -0.9986
vn -0.0000 -0.0521 -0.9986
vn -0.0003 -0.0524 -0.9986
vn -0.0001 -0.0527 -0.9986
vn -0.0000 -0.0525 -0.9986
vn -0.0001 -0.0520 -0.9986
vn -0.0003 -0.0522 -0.9986
vn -0.0000 -0.0522 -0.9986
vn 0.0001 -0.0524 -0.9986
vn 0.0001 -0.0525 -0.9986
vt 0.660643 0.959428
vt 0.656263 0.959429
vt 0.656260 0.867160
vt 0.660546 0.867160
vt 4.962245 6.390700
vt 4.958545 6.387695
vt 4.962431 6.385392
vt 1.019493 8.523226
vt 1.038686 8.526690
vt 1.019493 8.526690
vt 0.665099 0.978596
vt 0.660643 0.978595
vt 0.665099 0.867160
vt 5.706159 8.837598
vt 5.709789 8.837428
vt 5.707487 8.840882
vt 5.568193 0.240800
vt 5.456758 0.240800
vt 5.456758 0.236057
vt 5.568192 0.236058
vt 0.752703 0.964549
vt 0.748188 0.964550
vt 0.748340 0.867160
vt 0.752708 0.867161
vt 0.735039 0.867161
vt 0.735038 0.978594
vt 0.728065 0.978596
vt 0.728065 0.867160
vt 6.263311 7.221529
vt 6.263179 7.230860
vt 6.244758 7.230596
vt 6.244892 7.221263
vt 5.913019 8.000571
vt 6.003779 8.000571
vt 5.913127 8.001033
vt 0.763848 0.867548
vt 0.763843 0.957924
vt 0.761974 0.867162
vt 5.568192 0.265840
vt 5.456758 0.265840
vt 5.456758 0.262072
vt 5.568193 0.262074
vt 0.748187 0.971175
vt 0.745014 0.972012
vt 0.745014 0.867160
vt 0.652326 0.959430
vt 0.630910 0.959429
vt 0.625105 0.867161
vt 0.652323 0.867161
vt 0.760215 0.867162
vt 0.760211 0.957924
vt 0.738299 0.973584
vt 0.738299 0.978596
vt 0.738671 0.867160
vt 0.738670 0.973514
vt 5.913785 8.003514
vt 6.003779 8.003514
vt 5.562004 0.280529
vt 5.561278 0.283452
vt 5.456758 0.283451
vt 5.456757 0.280528
vt 5.568192 0.274306
vt 5.563180 0.274306
vt 5.456758 0.275522
vt 9.494487 6.026988
vt 9.487863 6.026992
vt 9.487861 6.023362
vt 9.494487 6.023362
vt 0.679366 0.978596
vt 0.679366 0.867160
vt 0.683810 0.867161
vt 0.683811 0.978595
vt 0.702831 0.978596
vt 0.702831 0.867160
vt 0.707048 0.867160
vt 0.707048 0.978595
vt 0.756460 0.957922
vt 0.756464 0.867160
vt 5.568192 0.202250
vt 5.456758 0.202250
vt 5.456758 0.199011
vt 5.568193 0.199013
vt 0.723913 0.978595
vt 0.723914 0.867161
vt 0.687746 0.978594
vt 0.687746 0.867161
vt 0.698917 0.867160
vt 0.698916 0.978595
vt 5.547520 0.298184
vt 5.547520 0.300552
vt 5.456758 0.300552
vt 5.456757 0.298183
vt 5.456758 0.224607
vt 5.568193 0.224606
vt 0.669103 0.867160
vt 0.669103 0.978596
vt 0.715481 0.978596
vt 0.715481 0.867160
vt 0.719999 0.867161
vt 0.719998 0.978594
vt 5.568192 0.253001
vt 5.456758 0.253001
vt 5.456758 0.250281
vt 5.568192 0.250282
vt 5.568193 0.217087
vt 5.456757 0.217088
vt 5.456758 0.214076
vt 5.568192 0.214076
vt 5.456758 0.211152
vt 5.568193 0.211152
vt 0.675176 0.978595
vt 0.675176 0.867160
vt 1.044674 8.524381
vt 1.040910 8.523226
vt 5.547520 0.293322
vt 5.547520 0.295599
vt 5.456758 0.295599
vt 5.456757 0.293484
vt 5.945897 6.825339
vt 5.945899 6.844532
vt 5.853630 6.844532
vt 5.853629 6.819538
vt 5.554145 0.286072
vt 5.554146 0.290113
vt 5.456758 0.290112
vt 5.456758 0.286071
vt 6.467852 8.282869
vt 6.467850 8.281769
vt 6.557760 8.281769
vt 6.557846 8.282869
vt 5.568192 0.245542
vt 5.456758 0.245541
vt 6.351993 7.221263
vt 0.671999 0.978594
vt 0.671999 0.867161
vt 9.299539 8.608119
vt 9.299539 8.603106
vt 9.305261 8.603107
vt 9.305259 8.608119
vt 5.456757 0.221595
vt 5.568193 0.221595
vt 5.568193 0.257320
vt 5.456758 0.257319
vt 5.456759 0.254717
vt 5.568192 0.254718
vt 5.456758 0.208140
vt 5.568192 0.208139
vt 5.568192 0.205162
vt 5.456758 0.205162
vt 5.456758 0.195901
vt 5.456758 0.192546
vt 5.568192 0.192546
vt 5.568193 0.195903
vt 0.711566 0.867161
vt 0.711565 0.978594
vt 5.568192 0.259769
vt 5.456758 0.259769
vt 5.554145 0.291979
vt 5.456758 0.291977
vt 5.560772 0.285377
vt 5.554145 0.285377
vt 5.562990 0.275523
vt 5.562491 0.278303
vt 5.456757 0.278302
vt 0.741818 0.972807
vt 0.741819 0.867160
vt 5.554146 0.293322
vt 5.508080 9.391908
vt 5.514706 9.391908
vt 5.514706 9.395762
vt 5.508080 9.395762
vt 0.767715 0.957925
vt 0.767721 0.868015
vt 9.050099 7.622983
vt 9.049345 7.626359
vt 9.047491 7.626146
vt 5.226227 8.648489
vt 5.225538 8.652088
vt 5.222575 8.651554
vt 0.756459 0.964549
vt 7.758975 7.267753
vt 7.851425 7.267753
vt 7.851425 7.271216
vt 7.758975 7.271216
vt 7.367303 3.873466
vt 7.365047 3.868655
vt 7.369525 3.869248
vt 4.916854 6.392513
vt 4.916574 6.394865
vt 4.916124 6.395013
vt 4.913686 6.395814
vt 4.913038 6.394922
vt 4.913669 6.391072
vt 4.914437 6.389319
vt 4.915126 6.387701
vt 4.917743 6.390087
vt 4.917377 6.384701
vt 4.918908 6.388321
vt 4.920297 6.382337
vt 4.921281 6.385955
vt 4.924289 6.380565
vt 4.924873 6.384105
vt 4.927569 6.380023
vt 4.927457 6.383667
vt 4.930760 6.380181
vt 4.930374 6.383858
vt 4.933806 6.380978
vt 4.937031 6.382649
vt 4.932507 6.384496
vt 4.942628 6.386811
vt 4.934921 6.385873
vt 4.967599 6.379186
vt 4.971920 6.368886
vt 4.973785 6.373726
vt 4.974166 6.365653
vt 4.975005 6.370972
vt 4.977551 6.362774
vt 4.977910 6.367526
vt 4.981339 6.360982
vt 4.980280 6.365668
vt 4.984441 6.360296
vt 4.983003 6.364601
vt 4.987335 6.360202
vt 4.985969 6.364079
vt 4.991271 6.360939
vt 4.988937 6.364314
vt 4.995403 6.362850
vt 4.991711 6.365201
vt 4.998661 6.365635
vt 4.994471 6.366896
vt 5.000922 6.368859
vt 4.996606 6.369156
vt 5.009332 6.394744
vt 4.998315 6.372044
vt 5.006038 6.395814
vt 4.919835 6.387133
vt 4.946447 6.388434
vt 4.942743 6.391579
vt 4.946304 6.392810
vt 4.950980 6.393589
vt 4.948541 6.393361
vt 4.950301 6.389128
vt 4.955279 6.393278
vt 4.953581 6.393529
vt 4.954812 6.388875
vt 4.957926 6.392651
vt 4.968990 6.384124
vt 4.966002 6.387806
vt 4.965480 6.382478
vt 5.714208 8.839103
vt 5.712381 8.841411
vt 5.713584 8.838195
vt 5.710071 8.840894
vt 5.705270 8.841411
vt 5.702564 8.838666
vt 1.048395 8.526690
vt 9.043468 7.626531
vt 9.042829 7.626803
vt 9.041909 7.623293
vt 9.046366 7.622569
vt 9.050612 7.626803
vt 5.219767 8.647890
vt 5.222994 8.647861
vt 5.229249 8.649769
vt 5.227368 8.652868
vt 5.219400 8.647976
vt 5.220297 8.651655
vt 5.217576 8.652409
vt 5.216433 8.652868
vt 7.327241 3.867153
vt 7.326804 3.870481
vt 7.325934 3.860809
vt 7.328918 3.857500
vt 7.330189 3.861593
vt 7.332248 3.855276
vt 7.332390 3.859688
vt 7.334947 3.854227
vt 7.335028 3.858306
vt 7.338069 3.853637
vt 7.337961 3.857618
vt 7.342257 3.853796
vt 7.340884 3.857532
vt 7.346500 3.855116
vt 7.343793 3.858307
vt 7.349836 3.857206
vt 7.347819 3.860336
vt 7.357856 3.864979
vt 7.350022 3.862388
vt 7.328317 3.864235
vt 7.361098 3.867174
vt 7.358517 3.870068
vt 7.362712 3.872279
vt 7.374722 3.873100
vt 7.372042 3.873562
vt 7.373422 3.868865
vt 7.378797 3.871694
vt 7.376382 3.872663
vt 7.377669 3.867327
vt 7.382791 3.869141
vt 7.380951 3.870528
vt 7.380940 3.865175
vt 7.389912 3.859336
vt 7.385582 3.866612
vt 7.383815 3.862179
vt 7.387327 3.856156
vt 7.389399 3.853637
s 1
usemtl tile
f 104/1/1 105/2/2 63/3/3 62/4/4
f 21/5/5 51/6/6 52/7/7
f 107/8/8 109/9/9 108/10/8
f 102/11/10 103/12/11 104/1/1 62/4/4 61/13/10
f 79/14/12 78/15/13 71/16/14
f 122/17/15 20/18/15 19/19/16 121/20/16
f 69/21/17 68/22/18 42/23/19 41/24/17
f 46/25/20 87/26/20 88/27/21 47/28/21
f 109/29/22 104/30/23 103/31/23 110/32/23
f 37/33/24 73/34/25 76/35/24
f 77/36/26 78/37/27 38/38/28
f 130/39/29 28/40/29 27/41/30 129/42/30
f 68/22/18 81/43/31 82/44/32 43/45/33 42/23/19
f 106/46/34 107/47/23 6/48/23 5/49/34
f 39/50/35 38/38/28 78/37/27 79/51/35
f 85/52/36 86/53/36 87/26/20 46/25/20 45/54/37 84/55/38
f 75/56/25 76/35/24 73/34/25 74/57/25
f 135/58/39 136/59/40 32/60/41 31/61/42
f 28/40/29 130/39/29 131/62/43 132/63/43 29/64/44
f 81/65/45 68/66/45 67/67/45 137/68/45
f 98/69/46 57/70/46 56/71/47 97/72/47
f 94/73/48 53/74/48 52/75/49 93/76/49
f 79/51/35 80/77/50 40/78/51 39/50/35
f 113/79/52 11/80/53 10/81/54 112/82/54
f 89/83/55 48/84/55 47/28/21 88/27/21
f 96/85/56 55/86/56 54/87/57 95/88/57
f 72/89/58 73/90/59 37/91/59 36/92/58
f 121/20/16 19/19/16 18/93/60 120/94/60
f 102/11/10 61/13/10 60/95/61 101/96/61
f 91/97/62 50/98/62 49/99/63 90/100/63
f 125/101/64 23/102/65 22/103/66 124/104/66
f 118/105/67 16/106/67 15/107/68 117/108/68
f 117/108/68 15/107/68 14/109/69 116/110/69
f 99/111/70 58/112/70 57/70/46 98/69/46
f 105/113/71 109/9/9 106/114/72
f 65/115/73 71/116/74 35/117/74 34/118/75
f 90/100/63 49/99/63 48/84/55 89/83/55
f 108/119/45 109/120/45 8/121/45 7/122/45
f 66/123/76 3/124/77 2/125/77 33/126/78
f 74/127/79 138/128/79 139/129/79 75/130/79
f 123/131/80 21/132/80 20/18/15 122/17/15
f 110/32/23 8/133/81 109/29/22
f 95/88/57 54/87/57 53/74/48 94/73/48
f 100/134/82 59/135/82 58/112/70 99/111/70
f 86/136/45 85/137/45 132/138/45 131/139/45
f 120/94/60 18/93/60 17/140/83 119/141/84
f 101/96/61 60/95/61 59/135/82 100/134/82
f 127/142/85 25/143/85 24/144/86 126/145/86
f 116/110/69 14/109/69 13/146/87 115/147/87
f 97/72/47 56/71/47 55/86/56 96/85/56
f 114/148/88 12/149/88 11/80/53 113/79/52
f 115/147/87 13/146/87 12/149/88 114/148/88
f 9/150/89 8/151/90 110/152/90 111/153/89
f 93/76/49 52/75/49 51/154/91 92/155/91
f 112/82/54 10/81/54 9/150/89 111/153/89
f 128/156/92 26/157/93 25/143/85 127/142/85
f 129/42/30 27/41/30 26/157/93 128/156/92
f 3/124/77 4/158/94 1/159/94 2/125/77
f 92/155/91 51/154/91 50/98/62 91/97/62
f 136/59/40 137/160/95 67/161/95 66/123/76 33/126/78 32/60/41
f 132/63/43 133/162/96 29/64/44
f 134/163/97 135/58/39 31/61/42 30/164/98
f 83/165/99 84/55/38 45/54/37 44/166/100
f 82/44/32 83/165/99 44/166/100 43/45/33
f 4/158/94 64/167/101 65/115/73 34/118/75 1/159/94
f 70/168/102 80/169/102 65/170/102 64/171/102
f 124/104/66 22/103/66 21/132/80 123/131/80
f 119/141/84 17/140/83 16/106/67 118/105/67
f 126/145/86 24/144/86 23/102/65 125/101/64
f 138/172/103 78/37/27 77/36/26 139/173/103
f 133/162/96 134/163/97 30/164/98 29/64/44
f 70/174/72 4/175/104 3/176/8
f 82/177/105 136/178/105 135/179/106
f 71/116/74 72/89/58 36/92/58 35/117/74
f 40/78/51 80/77/50 70/180/107 69/21/17 41/24/17
f 105/2/2 106/46/34 5/49/34 63/3/3
f 6/181/108 107/182/108 108/183/108 7/184/108
f 123/185/109 93/186/110 92/187/14
f 36/188/111 37/189/112 76/190/113
f 76/190/113 75/191/114 139/192/115
f 139/192/115 77/193/116 36/188/111
f 77/193/116 38/194/117 36/188/111
f 38/194/117 39/195/118 35/196/119
f 39/195/118 40/197/120 34/198/121
f 35/196/119 39/195/118 34/198/121
f 40/197/120 41/199/122 2/200/123
f 41/199/122 42/201/124 33/202/125
f 2/200/123 41/199/122 33/202/125
f 42/201/124 43/203/125 32/204/126
f 43/203/125 44/205/127 31/206/128
f 42/201/124 32/204/126 33/202/125
f 44/205/127 45/207/127 31/206/128
f 45/207/127 46/208/129 30/209/130
f 31/206/128 45/207/127 30/209/130
f 46/208/129 47/210/7 29/211/129
f 36/188/111 76/190/113 139/192/115
f 35/196/119 36/188/111 38/194/117
f 54/212/131 55/213/132 18/214/133
f 55/213/132 56/215/134 17/216/134
f 56/215/134 57/217/7 16/218/132
f 57/217/7 58/219/131 15/220/131
f 58/219/131 59/221/127 14/222/121
f 59/221/127 60/223/118 13/224/119
f 14/222/121 59/221/127 13/224/119
f 60/223/118 61/225/135 12/226/5
f 61/225/135 62/227/135 11/228/135
f 62/227/135 63/229/121 10/230/128
f 63/229/121 5/231/127 9/232/121
f 10/230/128 63/229/121 9/232/121
f 5/231/127 6/233/133 8/234/6
f 6/233/133 7/235/133 8/234/6
f 61/225/135 11/228/135 12/226/5
f 57/217/7 15/220/131 16/218/132
f 15/220/131 58/219/131 14/222/121
f 5/231/127 8/234/6 9/232/121
f 62/227/135 10/230/128 11/228/135
f 1/236/136 34/198/121 40/197/120
f 2/200/123 1/236/136 40/197/120
f 60/223/118 12/226/5 13/224/119
f 32/204/126 43/203/125 31/206/128
f 30/209/130 46/208/129 29/211/129
f 47/210/7 48/237/127 28/238/6
f 29/211/129 47/210/7 28/238/6
f 27/239/137 28/238/6 48/237/127
f 25/240/129 26/241/133 49/242/128
f 26/241/133 27/239/137 48/237/127
f 49/242/128 26/241/133 48/237/127
f 23/243/135 24/244/6 50/245/7
f 24/244/6 25/240/129 49/242/128
f 50/245/7 24/244/6 49/242/128
f 21/5/5 22/246/6 51/6/6
f 22/246/6 23/243/135 50/245/7
f 51/6/6 22/246/6 50/245/7
f 19/247/131 20/248/138 53/249/131
f 20/248/138 21/5/5 52/7/7
f 53/249/131 20/248/138 52/7/7
f 17/216/134 18/214/133 55/213/132
f 18/214/133 19/247/131 54/212/131
f 54/212/131 19/247/131 53/249/131
f 56/215/134 16/218/132 17/216/134
f 107/8/8 106/114/72 109/9/9
f 74/250/139 73/251/140 138/252/141
f 73/251/140 72/253/104 138/252/141
f 71/16/14 65/254/142 79/14/12
f 65/254/142 80/255/143 79/14/12
f 72/253/104 71/16/14 78/15/13
f 78/15/13 138/252/141 72/253/104
f 105/113/71 104/256/144 109/9/9
f 66/257/145 67/258/146 68/259/147
f 68/259/147 69/260/13 66/257/145
f 69/260/13 70/174/72 3/176/8
f 70/174/72 64/261/148 4/175/104
f 3/176/8 66/257/145 69/260/13
f 84/262/149 83/263/150 135/179/106
f 83/263/150 82/177/105 135/179/106
f 82/177/105 81/264/151 136/178/105
f 81/264/151 137/265/152 136/178/105
f 85/266/153 84/262/149 134/267/154
f 133/268/151 132/269/155 85/266/153
f 134/267/154 133/268/151 85/266/153
f 84/262/149 135/179/106 134/267/154
f 111/270/156 110/271/157 103/272/13
f 103/272/13 102/273/158 113/274/109
f 102/273/158 101/275/145 114/276/158
f 113/274/109 102/273/158 114/276/158
f 101/275/145 100/277/9 115/278/14
f 100/277/9 99/279/9 116/280/159
f 115/278/14 100/277/9 116/280/159
f 99/279/9 98/281/14 117/282/14
f 98/281/14 97/283/71 118/284/160
f 97/283/71 96/285/161 119/286/162
f 96/285/161 95/287/8 120/288/162
f 119/286/162 96/285/161 120/288/162
f 98/281/14 118/284/160 117/282/14
f 112/289/163 111/270/156 103/272/13
f 113/274/109 112/289/163 103/272/13
f 97/283/71 119/286/162 118/284/160
f 95/287/8 94/290/104 121/291/164
f 114/276/158 101/275/145 115/278/14
f 117/282/14 116/280/159 99/279/9
f 121/291/164 120/288/162 95/287/8
f 123/185/109 122/292/72 93/186/110
f 122/292/72 121/291/164 94/290/104
f 125/293/165 124/294/14 91/295/166
f 124/294/14 123/185/109 92/187/14
f 91/295/166 124/294/14 92/187/14
f 127/296/167 126/297/13 90/298/72
f 126/297/13 125/293/165 91/295/166
f 129/299/168 128/300/169 89/301/13
f 128/300/169 127/296/167 90/298/72
f 131/302/8 130/303/170 88/304/171
f 130/303/170 129/299/168 89/301/13
f 88/304/171 130/303/170 89/301/13
f 87/305/13 86/306/140 131/302/8
f 88/304/171 87/305/13 131/302/8
f 128/300/169 90/298/72 89/301/13
f 126/297/13 91/295/166 90/298/72
f 122/292/72 94/290/104 93/186/110
