# Blender 4.0.2
# www.blender.org
mtllib tile3_ridge_3.mtl
o tile3_ridge_3
v -0.189500 -0.025016 0.085640
v -0.000000 -0.025016 0.085640
v -0.000000 -0.033102 0.089112
v -0.189500 -0.033102 0.089112
v -0.189500 -0.046469 0.084247
v -0.000000 -0.046469 0.084247
v -0.189500 -0.026409 0.087939
v -0.250000 -0.026409 0.087939
v -0.189500 -0.028221 0.089284
v -0.000000 -0.028221 0.089284
v -0.000000 -0.030452 0.089675
v -0.189500 -0.030452 0.089675
v -0.125000 -0.025016 0.085640
v -0.185500 -0.025016 0.085640
v -0.125000 -0.033102 0.089112
v -0.123000 -0.046469 0.084247
v -0.125000 -0.044590 0.084931
v -0.185500 -0.046469 0.084247
v -0.185500 -0.033102 0.089112
v -0.127000 -0.046469 0.084247
v -0.062500 -0.033101 0.089112
v -0.125000 -0.026409 0.087939
v -0.185500 -0.026409 0.087939
v -0.062500 -0.026409 0.087939
v -0.125000 -0.028221 0.089284
v -0.185500 -0.028221 0.089284
v -0.125000 -0.030452 0.089675
v -0.185500 -0.030452 0.089675
v -0.187500 -0.026794 0.084726
v -0.187500 -0.032562 0.087202
v -0.187500 -0.045794 0.082381
v -0.187500 -0.027892 0.086598
v -0.187500 -0.029022 0.087458
v -0.187500 -0.030429 0.087688
v -0.189500 0.011506 0.000000
v -0.062500 0.011506 0.000000
v -0.000000 0.011506 0.000000
v -0.187500 0.009334 0.000000
v -0.125000 0.011505 0.000000
v -0.185500 0.011506 0.000000
v -0.062500 -0.046469 0.084247
v -0.062500 -0.025016 0.085640
v -0.062500 -0.030452 0.089675
v -0.062500 -0.028221 0.089284
v -0.189500 -0.025016 -0.085640
v -0.000000 -0.025016 -0.085640
v -0.000000 -0.033102 -0.089112
v -0.189500 -0.033102 -0.089112
v -0.189500 -0.046468 -0.084247
v -0.000000 -0.046468 -0.084247
v -0.189500 -0.026408 -0.087939
v -0.250000 -0.026408 -0.087939
v -0.189500 -0.028220 -0.089284
v -0.000000 -0.028220 -0.089284
v -0.000000 -0.030452 -0.089675
v -0.189500 -0.030452 -0.089675
v -0.125000 -0.025016 -0.085640
v -0.185500 -0.025016 -0.085640
v -0.062500 -0.025016 -0.085640
v -0.125000 -0.033102 -0.089112
v -0.123000 -0.046468 -0.084247
v -0.125000 -0.044590 -0.084931
v -0.185500 -0.046468 -0.084247
v -0.185500 -0.033102 -0.089112
v -0.127000 -0.046468 -0.084247
v -0.062500 -0.046468 -0.084247
v -0.125000 -0.026408 -0.087939
v -0.185500 -0.026408 -0.087939
v -0.062500 -0.026408 -0.087939
v -0.125000 -0.028220 -0.089284
v -0.185500 -0.028220 -0.089284
v -0.125000 -0.030452 -0.089675
v -0.185500 -0.030452 -0.089675
v -0.062500 -0.030452 -0.089675
v -0.187500 -0.026794 -0.084726
v -0.187500 -0.032562 -0.087202
v -0.187500 -0.045794 -0.082381
v -0.187500 -0.027891 -0.086598
v -0.187500 -0.029022 -0.087458
v -0.187500 -0.030429 -0.087688
v -0.062500 -0.033102 -0.089112
v -0.062500 -0.028220 -0.089284
v -0.250000 -0.025016 0.085640
v -0.250000 0.011506 0.000000
v -0.000000 -0.026409 0.087939
v -0.250000 -0.028221 0.089284
v -0.250000 -0.030452 0.089675
v -0.250000 -0.033102 0.089112
v -0.250000 -0.046469 0.084247
v -0.250000 -0.025016 -0.085640
v -0.000000 -0.026408 -0.087939
v -0.250000 -0.028220 -0.089284
v -0.250000 -0.030452 -0.089675
v -0.250000 -0.033102 -0.089112
v -0.250000 -0.046468 -0.084247
vn 0.0778 0.9970 -0.0000
vn -0.0000 0.9993 -0.0378
vn -0.0000 0.9189 0.3944
vn 0.0377 0.9993 -0.0000
vn -0.0000 1.0000 -0.0000
vn -0.0684 0.8877 0.4553
vn -0.0375 0.9993 -0.0000
vn -0.0000 0.8567 0.5158
vn -0.7354 0.6777 -0.0000
vn -0.7065 0.6510 0.2776
vn -0.0000 -0.3209 0.9471
vn -0.0000 -0.3420 0.9397
vn -0.0000 0.7509 0.6604
vn -0.0000 0.3949 0.9187
vn -0.0000 -0.0352 0.9994
vn -0.0472 -0.2753 0.9602
vn -0.0000 -0.3210 0.9471
vn -0.0000 0.7507 0.6607
vn 0.0169 -0.0180 0.9997
vn 0.7065 0.6510 0.2776
vn 0.7354 0.6777 -0.0000
vn 0.7039 -0.2430 0.6675
vn 0.7032 0.6105 0.3644
vn 0.6985 0.4292 0.5727
vn 0.7006 -0.1529 0.6970
vn 0.6971 0.1206 0.7067
vn -0.7039 -0.2431 0.6675
vn -0.7032 0.6105 0.3644
vn -0.6985 0.4292 0.5727
vn -0.7006 -0.1529 0.6970
vn -0.6972 0.1206 0.7067
vn -0.0000 0.9189 -0.3944
vn -0.0684 0.8877 -0.4553
vn 0.0679 0.8877 -0.4553
vn -0.7065 0.6510 -0.2776
vn -0.0000 -0.3209 -0.9471
vn -0.0000 -0.3420 -0.9397
vn -0.0000 0.7509 -0.6604
vn -0.0000 0.3949 -0.9187
vn -0.0000 -0.0352 -0.9994
vn -0.0000 -0.3206 -0.9472
vn -0.0168 0.7394 -0.6731
vn -0.0000 -0.0348 -0.9994
vn 0.7065 0.6510 -0.2776
vn 0.7039 -0.2430 -0.6675
vn 0.7032 0.6105 -0.3644
vn 0.6985 0.4292 -0.5727
vn 0.7006 -0.1529 -0.6970
vn 0.6972 0.1206 -0.7067
vn -0.7039 -0.2431 -0.6675
vn -0.7032 0.6105 -0.3644
vn -0.6985 0.4292 -0.5727
vn -0.7006 -0.1529 -0.6970
vn -0.6972 0.1206 -0.7067
vt 0.591656 0.508282
vt 0.641767 0.508328
vt 0.639294 0.587176
vt 0.591015 0.587561
vt 0.537280 0.508230
vt 0.586703 0.508277
vt 0.586467 0.587536
vt 0.538049 0.586593
vt 0.485360 0.508181
vt 0.485600 0.586338
vt 0.589179 0.508279
vt 0.588739 0.587761
vt 0.639298 0.595375
vt 0.639288 0.606904
vt 0.590900 0.606757
vt 0.591094 0.595210
vt 0.639300 0.589351
vt 0.591255 0.589608
vt 0.639303 0.591226
vt 0.591360 0.591348
vt 0.639303 0.593125
vt 0.591282 0.593098
vt 0.433145 0.586247
vt 0.433030 0.508130
vt 0.537961 0.594867
vt 0.537900 0.604947
vt 0.536235 0.606611
vt 0.485568 0.606578
vt 0.485582 0.594653
vt 0.586416 0.606731
vt 0.539532 0.606580
vt 0.586306 0.595196
vt 0.433119 0.606512
vt 0.433134 0.594575
vt 0.538022 0.588844
vt 0.485595 0.588592
vt 0.586203 0.589577
vt 0.433142 0.588504
vt 0.538000 0.590741
vt 0.485591 0.590484
vt 0.586078 0.591318
vt 0.433140 0.590399
vt 0.537980 0.592633
vt 0.485587 0.592383
vt 0.586137 0.593074
vt 0.433137 0.592300
vt 0.588657 0.606737
vt 0.588702 0.595025
vt 0.588728 0.589877
vt 0.588719 0.591362
vt 0.588711 0.592858
vt 0.591164 0.429002
vt 0.639441 0.429477
vt 0.538198 0.429871
vt 0.586616 0.429019
vt 0.485750 0.430024
vt 0.588888 0.428798
vt 0.639461 0.421277
vt 0.591257 0.421353
vt 0.591085 0.409807
vt 0.639472 0.409749
vt 0.591408 0.426955
vt 0.639452 0.427302
vt 0.591516 0.425216
vt 0.639458 0.425427
vt 0.639461 0.423529
vt 0.591441 0.423465
vt 0.433295 0.430014
vt 0.538125 0.421598
vt 0.485747 0.421708
vt 0.485756 0.409784
vt 0.536422 0.409850
vt 0.538084 0.411517
vt 0.586601 0.409824
vt 0.586469 0.421358
vt 0.539718 0.409888
vt 0.433308 0.409749
vt 0.433300 0.421686
vt 0.485749 0.427770
vt 0.538175 0.427620
vt 0.586356 0.426977
vt 0.433296 0.427757
vt 0.485748 0.425878
vt 0.538157 0.425724
vt 0.586235 0.425236
vt 0.433297 0.425862
vt 0.538141 0.423831
vt 0.485748 0.423979
vt 0.586297 0.423481
vt 0.433299 0.423960
vt 0.588865 0.421534
vt 0.588842 0.409822
vt 0.588882 0.426682
vt 0.588876 0.425197
vt 0.588870 0.423700
s 1
usemtl Checker
f 35/1/1 84/2/2 83/3/3 1/4/3
f 39/5/4 40/6/5 14/7/3 13/8/6
f 36/9/7 39/5/4 13/8/6 42/10/8
f 40/6/9 38/11/9 29/12/10 14/7/10
f 88/13/11 89/14/12 5/15/12 4/16/11
f 83/3/3 8/17/13 7/18/13 1/4/3
f 8/17/13 86/19/14 9/20/14 7/18/13
f 87/21/15 88/13/11 4/16/11 12/22/15
f 86/19/14 87/21/15 12/22/15 9/20/14
f 2/23/3 37/24/2 36/9/7 42/10/8
f 15/25/11 17/26/12 16/27/12 41/28/12 21/29/16
f 18/30/12 20/31/12 17/26/12 15/25/11 19/32/11
f 6/33/12 3/34/17 21/29/16 41/28/12
f 13/8/6 22/35/13 24/36/18 42/10/8
f 14/7/3 23/37/13 22/35/13 13/8/6
f 85/38/13 2/23/3 42/10/8 24/36/18
f 22/35/13 25/39/14 44/40/14 24/36/18
f 23/37/13 26/41/14 25/39/14 22/35/13
f 10/42/14 85/38/13 24/36/18 44/40/14
f 27/43/15 15/25/11 21/29/16 43/44/19
f 28/45/15 19/32/11 15/25/11 27/43/15
f 3/34/17 11/46/15 43/44/19 21/29/16
f 25/39/14 27/43/15 43/44/19 44/40/14
f 26/41/14 28/45/15 27/43/15 25/39/14
f 11/46/15 10/42/14 44/40/14 43/44/19
f 1/4/20 29/12/20 38/11/21 35/1/21
f 5/15/22 31/47/22 30/48/22 4/16/22
f 7/18/23 32/49/23 29/12/23 1/4/23
f 9/20/24 33/50/24 32/49/24 7/18/24
f 4/16/25 30/48/25 34/51/25 12/22/25
f 12/22/26 34/51/26 33/50/26 9/20/26
f 19/32/27 30/48/27 31/47/27 18/30/27
f 14/7/28 29/12/28 32/49/28 23/37/28
f 23/37/29 32/49/29 33/50/29 26/41/29
f 28/45/30 34/51/30 30/48/30 19/32/30
f 26/41/31 33/50/31 34/51/31 28/45/31
f 35/1/1 45/52/32 90/53/32 84/2/2
f 39/5/4 57/54/33 58/55/32 40/6/5
f 36/9/7 59/56/34 57/54/33 39/5/4
f 40/6/9 58/55/35 75/57/35 38/11/9
f 94/58/36 48/59/36 49/60/37 95/61/37
f 90/53/32 45/52/32 51/62/38 52/63/38
f 52/63/38 51/62/38 53/64/39 92/65/39
f 93/66/40 56/67/40 48/59/36 94/58/36
f 92/65/39 53/64/39 56/67/40 93/66/40
f 46/68/32 59/56/34 36/9/7 37/24/2
f 60/69/36 81/70/41 66/71/37 61/72/37 62/73/37
f 63/74/37 64/75/36 60/69/36 62/73/37 65/76/37
f 50/77/37 66/71/37 81/70/41 47/78/36
f 57/54/33 59/56/34 69/79/42 67/80/38
f 58/55/32 57/54/33 67/80/38 68/81/38
f 91/82/38 69/79/42 59/56/34 46/68/32
f 67/80/38 69/79/42 82/83/39 70/84/39
f 68/81/38 67/80/38 70/84/39 71/85/39
f 54/86/39 82/83/39 69/79/42 91/82/38
f 72/87/40 74/88/43 81/70/41 60/69/36
f 73/89/40 72/87/40 60/69/36 64/75/36
f 47/78/36 81/70/41 74/88/43 55/90/40
f 70/84/39 82/83/39 74/88/43 72/87/40
f 71/85/39 70/84/39 72/87/40 73/89/40
f 55/90/40 74/88/43 82/83/39 54/86/39
f 45/52/44 35/1/21 38/11/21 75/57/44
f 49/60/45 48/59/45 76/91/45 77/92/45
f 51/62/46 45/52/46 75/57/46 78/93/46
f 53/64/47 51/62/47 78/93/47 79/94/47
f 48/59/48 56/67/48 80/95/48 76/91/48
f 56/67/49 53/64/49 79/94/49 80/95/49
f 64/75/50 63/74/50 77/92/50 76/91/50
f 58/55/51 68/81/51 78/93/51 75/57/51
f 68/81/52 71/85/52 79/94/52 78/93/52
f 73/89/53 64/75/53 76/91/53 80/95/53
f 71/85/54 73/89/54 80/95/54 79/94/54
