# Blender 4.0.2
# www.blender.org
mtllib tile3-module.mtl
o tile3-module
v -0.000000 0.189067 0.285399
v -0.000000 0.169008 0.289092
v -0.000000 0.182375 0.284228
v -0.000000 0.185025 0.283664
v -0.000000 0.187255 0.284055
v -0.000000 0.190461 0.287699
v -0.000000 0.253321 0.435102
v -0.124999 0.185047 0.285652
v -0.124999 0.186454 0.285881
v -0.124999 0.187584 0.286740
v -0.124999 0.169681 0.290958
v -0.124999 0.182915 0.286137
v -0.124999 0.188682 0.288613
v -0.187499 0.253994 0.436969
v -0.125000 0.251483 0.435890
v -0.249999 0.185024 0.283664
v -0.122999 0.185025 0.283664
v -0.062499 0.185025 0.283664
v -0.249999 0.187255 0.284055
v -0.122999 0.187255 0.284055
v -0.062499 0.187255 0.284055
v -0.249999 0.189067 0.285399
v -0.122999 0.189067 0.285399
v -0.062499 0.189067 0.285399
v -0.249999 0.182375 0.284226
v -0.249999 0.169008 0.289092
v -0.064499 0.169008 0.289092
v -0.122999 0.182375 0.284226
v -0.122999 0.169008 0.289092
v -0.062499 0.170887 0.288409
v -0.060499 0.169008 0.289092
v -0.062499 0.182375 0.284226
v -0.249999 0.190461 0.287699
v -0.122999 0.190461 0.287699
v -0.062499 0.190461 0.287699
v -0.250000 0.253321 0.435102
v -0.189499 0.253321 0.435102
v -0.122999 0.253321 0.435102
v -0.062499 0.253321 0.435102
v -0.126999 0.185025 0.283664
v -0.187499 0.185025 0.283664
v -0.187499 0.187255 0.284055
v -0.126999 0.187255 0.284055
v -0.187499 0.189067 0.285399
v -0.126999 0.189067 0.285399
v -0.187499 0.169008 0.289092
v -0.126999 0.169008 0.289092
v -0.126999 0.182375 0.284226
v -0.187499 0.182375 0.284226
v -0.187499 0.252543 0.433278
v -0.187499 0.190461 0.287699
v -0.126999 0.190461 0.287699
v -0.126999 0.253321 0.435102
v -0.124999 0.255200 0.434418
v -0.185499 0.253321 0.435102
v -0.185499 0.084695 0.143081
v -0.124999 0.084695 0.143081
v -0.124999 0.021834 -0.004322
v -0.185500 0.021834 -0.004322
v -0.185500 0.000382 -0.002928
v -0.185499 0.013749 -0.007794
v -0.124999 0.013749 -0.007794
v -0.125000 0.000402 -0.002877
v -0.127000 0.000382 -0.002928
v -0.124999 0.020441 -0.006621
v -0.185500 0.020441 -0.006621
v -0.124999 0.018629 -0.007966
v -0.185500 0.018629 -0.007967
v -0.185499 0.016398 -0.008358
v -0.124999 0.016398 -0.008357
v -0.187499 0.086574 0.142398
v -0.062500 0.021834 -0.004322
v -0.062499 0.083917 0.141256
v -0.060499 0.084695 0.143081
v -0.064499 0.084695 0.143081
v -0.189500 0.021834 -0.004322
v -0.250000 0.021834 -0.004322
v -0.250000 0.084695 0.143081
v -0.189499 0.084695 0.143081
v -0.062499 0.013749 -0.007794
v -0.062500 0.000382 -0.002928
v -0.123000 0.000382 -0.002928
v -0.189500 0.000382 -0.002928
v -0.249999 0.000382 -0.002928
v -0.250000 0.013749 -0.007794
v -0.189499 0.013749 -0.007794
v -0.062499 0.020441 -0.006621
v -0.189500 0.020441 -0.006621
v -0.250000 0.020441 -0.006621
v -0.062499 0.018629 -0.007966
v -0.189499 0.018629 -0.007967
v -0.250000 0.018629 -0.007966
v -0.062499 0.016398 -0.008357
v -0.249999 0.016398 -0.008357
v -0.189499 0.016398 -0.008358
v -0.187500 0.020056 -0.003407
v -0.187499 0.082857 0.143870
v -0.187500 0.001055 -0.001063
v -0.187500 0.014289 -0.005884
v -0.187500 0.018958 -0.005280
v -0.187500 0.017828 -0.006140
v -0.187500 0.016421 -0.006370
v -0.062499 0.085368 0.144948
v -0.000000 0.018629 -0.007966
v -0.000000 0.016398 -0.008357
v -0.000000 0.084695 0.143081
v -0.000000 0.021834 -0.004322
v -0.000000 0.020441 -0.006621
v -0.000000 0.013749 -0.007794
v -0.000000 0.000382 -0.002928
v -0.000000 0.169008 0.289092
v -0.000000 0.100712 0.137653
v -0.000000 0.098062 0.138217
v -0.000000 0.084695 0.143081
v -0.000000 0.102942 0.138044
v -0.000000 0.104754 0.139390
v -0.000000 0.106148 0.141688
v -0.062499 0.100734 0.139640
v -0.062499 0.102141 0.139871
v -0.062499 0.103271 0.140731
v -0.062499 0.098602 0.140126
v -0.062499 0.104369 0.142602
v -0.062499 0.085368 0.144948
v -0.062499 0.167170 0.289880
v -0.124999 0.169681 0.290958
v -0.249999 0.100711 0.137653
v -0.064499 0.100712 0.137653
v -0.060499 0.100712 0.137653
v -0.249999 0.102942 0.138044
v -0.064499 0.102942 0.138044
v -0.060499 0.102942 0.138044
v -0.249999 0.104754 0.139390
v -0.064499 0.104754 0.139390
v -0.060499 0.104754 0.139390
v -0.249999 0.098062 0.138217
v -0.064499 0.098062 0.138217
v -0.060499 0.098062 0.138216
v -0.249999 0.106148 0.141688
v -0.064499 0.106148 0.141688
v -0.060499 0.106148 0.141688
v -0.189499 0.084695 0.143081
v -0.250000 0.084695 0.143081
v -0.064499 0.084695 0.143081
v -0.060499 0.084695 0.143081
v -0.249999 0.169008 0.289092
v -0.064499 0.169008 0.289092
v -0.122999 0.169008 0.289092
v -0.062499 0.170887 0.288409
v -0.060499 0.169008 0.289092
v -0.124999 0.100712 0.137653
v -0.187499 0.100712 0.137653
v -0.187499 0.102942 0.138044
v -0.124999 0.102942 0.138044
v -0.187499 0.104754 0.139390
v -0.124999 0.104754 0.139390
v -0.187499 0.086574 0.142398
v -0.124999 0.098062 0.138216
v -0.187499 0.098062 0.138217
v -0.124999 0.168230 0.287268
v -0.187499 0.106147 0.141688
v -0.124999 0.106147 0.141688
v -0.124999 0.084695 0.143081
v -0.185499 0.084695 0.143081
v -0.187499 0.169008 0.289092
v -0.126999 0.169008 0.289092
vn -0.6972 0.1205 -0.7067
vn -0.7007 -0.1527 -0.6970
vn -0.6985 0.4292 -0.5727
vn -0.7033 0.6103 -0.3645
vn -0.7038 -0.2431 -0.6675
vn 0.0284 0.9303 -0.3657
vn -0.7066 0.6509 -0.2776
vn -0.0281 -0.3679 -0.9295
vn 0.6972 0.1205 -0.7067
vn 0.7007 -0.1527 -0.6970
vn 0.6985 0.4292 -0.5727
vn 0.7033 0.6103 -0.3645
vn 0.7038 -0.2430 -0.6675
vn -0.0284 0.9303 -0.3657
vn 0.7068 0.6507 -0.2775
vn 0.0281 -0.3679 -0.9295
vn -0.0000 -0.0005 -1.0000
vn -0.0000 -0.0352 -0.9994
vn -0.0000 0.3950 -0.9187
vn -0.0000 0.3953 -0.9186
vn -0.0000 -0.0006 -1.0000
vn -0.0000 -0.0353 -0.9994
vn -0.0000 -0.2296 -0.9733
vn -0.0000 -0.3210 -0.9471
vn -0.0000 -0.2297 -0.9733
vn -0.0000 -0.3209 -0.9471
vn -0.0000 0.7508 -0.6606
vn -0.0000 0.7277 -0.6859
vn -0.0000 0.9189 -0.3944
vn -0.0000 0.8563 -0.5165
vn -0.0000 -0.3420 -0.9397
vn -0.0000 0.9199 -0.3923
vn -0.0000 0.9198 -0.3923
vn 0.0005 -0.3421 -0.9397
vn 0.0002 -0.3211 -0.9471
vn -0.0000 -0.3421 -0.9397
vn -0.0000 0.7509 -0.6604
vn -0.0000 0.3948 -0.9187
vn -0.0000 0.3949 -0.9187
vn -0.0001 -0.3210 -0.9471
vn -0.0002 -0.3420 -0.9397
vn -0.0004 -0.3421 -0.9397
vn -0.0000 0.7509 -0.6605
vn -0.0000 0.3948 -0.9188
vn -0.0000 0.3945 -0.9189
vn -0.0000 -0.0354 -0.9994
vn -0.7037 -0.2431 -0.6676
vn -0.7032 0.6104 -0.3645
vn -0.6986 0.4291 -0.5725
vn -0.7005 -0.1531 -0.6971
vn -0.0280 -0.3681 -0.9294
vn -0.0282 0.9303 -0.3656
vn 0.0282 0.9303 -0.3656
vn 0.7066 0.6509 -0.2776
vn 0.7039 -0.2430 -0.6674
vn 0.7032 0.6104 -0.3645
vn 0.6987 0.4292 -0.5724
vn 0.7008 -0.1530 -0.6967
vn 0.6975 0.1206 -0.7064
vn 0.0280 -0.3681 -0.9294
vn 0.6972 0.1207 -0.7067
vn -0.6972 0.1207 -0.7067
vn 0.7005 -0.1531 -0.6971
vn -0.7006 -0.1529 -0.6970
vn 0.6985 0.4292 -0.5726
vn -0.6985 0.4292 -0.5726
vn 0.7032 0.6103 -0.3647
vn -0.7032 0.6103 -0.3647
vn -0.7039 -0.2430 -0.6674
vn -0.0282 0.9303 -0.3658
vn 0.0282 -0.3678 -0.9295
vn -0.0282 -0.3678 -0.9295
vn 0.0282 0.9303 -0.3658
vn -0.0000 -0.0007 -1.0000
vn -0.0000 -0.0355 -0.9994
vn -0.0000 -0.2299 -0.9732
vn -0.0000 -0.2298 -0.9732
vn -0.0000 0.7508 -0.6605
vn -0.0000 0.7278 -0.6858
vn -0.0000 0.8564 -0.5163
vn -0.0000 -0.3419 -0.9397
vt 0.533771 0.623556
vt 0.533862 0.621759
vt 0.536508 0.622001
vt 0.536511 0.623543
vt 0.534059 0.619597
vt 0.536506 0.619781
vt 0.533862 0.625346
vt 0.536513 0.625079
vt 0.534065 0.627486
vt 0.536515 0.627288
vt 0.534219 0.607844
vt 0.536501 0.607849
vt 0.589554 0.759653
vt 0.591247 0.761293
vt 0.589591 0.762973
vt 0.534205 0.761861
vt 0.536505 0.760678
vt 0.536504 0.764461
vt 0.539154 0.621752
vt 0.539250 0.623547
vt 0.538952 0.619594
vt 0.539165 0.625338
vt 0.538966 0.627483
vt 0.538784 0.607842
vt 0.587897 0.761333
vt 0.538803 0.761860
vt 0.587986 0.621428
vt 0.640285 0.621062
vt 0.640299 0.622958
vt 0.587998 0.623341
vt 0.485012 0.623316
vt 0.485023 0.621412
vt 0.432704 0.622966
vt 0.432718 0.621071
vt 0.587970 0.619150
vt 0.640269 0.618796
vt 0.485037 0.619164
vt 0.432734 0.618803
vt 0.640312 0.624846
vt 0.588009 0.625239
vt 0.485003 0.625223
vt 0.432690 0.624854
vt 0.640328 0.627096
vt 0.588021 0.627470
vt 0.484992 0.627486
vt 0.432674 0.627104
vt 0.587896 0.607349
vt 0.640165 0.606904
vt 0.485101 0.609031
vt 0.486766 0.607391
vt 0.432841 0.606904
vt 0.483451 0.607357
vt 0.641767 0.760748
vt 0.483390 0.761286
vt 0.431265 0.760717
vt 0.377532 0.564338
vt 0.327159 0.564106
vt 0.327996 0.430238
vt 0.376996 0.429915
vt 0.377077 0.410291
vt 0.376959 0.422037
vt 0.327994 0.421881
vt 0.327999 0.410083
vt 0.329658 0.410086
vt 0.327993 0.427973
vt 0.376785 0.427780
vt 0.327993 0.426066
vt 0.376686 0.425993
vt 0.376768 0.424195
vt 0.327993 0.424160
vt 0.222808 0.563771
vt 0.223195 0.429974
vt 0.275552 0.430131
vt 0.275000 0.562282
vt 0.273324 0.563933
vt 0.276665 0.563943
vt 0.381891 0.429896
vt 0.430886 0.429714
vt 0.433030 0.563543
vt 0.382131 0.564324
vt 0.275571 0.421817
vt 0.223219 0.421666
vt 0.223252 0.409749
vt 0.275611 0.409897
vt 0.326339 0.410079
vt 0.381641 0.410273
vt 0.430718 0.409749
vt 0.430819 0.421444
vt 0.381850 0.422014
vt 0.223202 0.427721
vt 0.275556 0.427877
vt 0.382082 0.427753
vt 0.430872 0.427503
vt 0.223207 0.425832
vt 0.275561 0.425986
vt 0.382159 0.425964
vt 0.430859 0.425599
vt 0.275565 0.424087
vt 0.223213 0.423934
vt 0.430841 0.423670
vt 0.382057 0.424172
vt 0.379442 0.429709
vt 0.379828 0.563149
vt 0.379359 0.410288
vt 0.379406 0.422211
vt 0.379431 0.427504
vt 0.379423 0.425970
vt 0.379416 0.424429
vt 0.379839 0.566933
vt 0.274989 0.565594
vt 0.701267 0.583093
vt 0.701349 0.584887
vt 0.698615 0.584862
vt 0.698624 0.583322
vt 0.695880 0.584853
vt 0.695984 0.583061
vt 0.701081 0.580936
vt 0.698638 0.581106
vt 0.696196 0.580904
vt 0.701250 0.586676
vt 0.698605 0.586394
vt 0.695957 0.586640
vt 0.701033 0.588813
vt 0.698589 0.588597
vt 0.696142 0.588776
vt 0.700991 0.569197
vt 0.698711 0.569189
vt 0.696431 0.569169
vt 0.748692 0.723038
vt 0.750366 0.721376
vt 0.750368 0.724696
vt 0.699607 0.723047
vt 0.697322 0.721844
vt 0.695015 0.723003
vt 0.697286 0.725622
vt 0.752042 0.723034
vt 0.802447 0.583138
vt 0.854802 0.583103
vt 0.854803 0.585000
vt 0.802448 0.585036
vt 0.750027 0.585030
vt 0.750029 0.583117
vt 0.647213 0.584222
vt 0.647240 0.582314
vt 0.802446 0.580867
vt 0.854800 0.580834
vt 0.750031 0.580838
vt 0.647274 0.580089
vt 0.854804 0.586890
vt 0.802448 0.586927
vt 0.750023 0.586929
vt 0.647190 0.586142
vt 0.854806 0.589143
vt 0.802449 0.589181
vt 0.750018 0.589192
vt 0.647167 0.588412
vt 0.854794 0.568917
vt 0.802433 0.570624
vt 0.804107 0.568946
vt 0.750043 0.569032
vt 0.647416 0.568565
vt 0.854806 0.723024
vt 0.802589 0.723024
vt 0.644238 0.721910
vt 0.800755 0.568950
s 1
usemtl Checker
f 20/1/1 17/2/1 8/3/1 9/4/1
f 17/2/2 28/5/2 12/6/2 8/3/2
f 23/7/3 20/1/3 9/4/3 10/8/3
f 34/9/4 23/7/4 10/8/4 13/10/4
f 28/5/5 29/11/5 11/12/5 12/6/5
f 50/13/6 37/14/6 14/15/6
f 38/16/7 34/9/7 13/10/7 15/17/7
f 54/18/8 38/16/8 15/17/8
f 40/19/9 43/20/9 9/4/9 8/3/9
f 48/21/10 40/19/10 8/3/10 12/6/10
f 43/20/11 45/22/11 10/8/11 9/4/11
f 45/22/12 52/23/12 13/10/12 10/8/12
f 47/24/13 48/21/13 12/6/13 11/12/13
f 55/25/14 50/13/14 14/15/14
f 52/23/15 53/26/15 15/17/15 13/10/15
f 53/26/16 54/18/16 15/17/16
f 41/27/17 16/28/18 19/29/19 42/30/20
f 20/1/19 21/31/19 18/32/21 17/2/18
f 21/31/19 5/33/19 4/34/22 18/32/21
f 49/35/23 25/36/24 16/28/18 41/27/17
f 17/2/18 18/32/21 32/37/25 28/5/26
f 18/32/21 4/34/22 3/38/26 32/37/25
f 42/30/20 19/29/19 22/39/27 44/40/28
f 23/7/27 24/41/28 21/31/19 20/1/19
f 24/41/28 1/42/27 5/33/19 21/31/19
f 44/40/28 22/39/27 33/43/29 51/44/30
f 34/9/29 35/45/30 24/41/28 23/7/27
f 35/45/30 6/46/29 1/42/27 24/41/28
f 46/47/31 26/48/31 25/36/24 49/35/23
f 29/11/31 28/5/26 32/37/25 30/49/31 27/50/31
f 32/37/25 3/38/26 2/51/31 31/52/31 30/49/31
f 51/44/30 33/43/29 36/53/32 37/14/32 50/13/32
f 38/16/32 39/54/32 35/45/30 34/9/29
f 39/54/32 7/55/32 6/46/29 35/45/30
f 42/30/20 43/20/19 40/19/18 41/27/17
f 41/27/17 40/19/18 48/21/24 49/35/23
f 44/40/28 45/22/27 43/20/19 42/30/20
f 51/44/30 52/23/29 45/22/27 44/40/28
f 49/35/23 48/21/24 47/24/31 46/47/31
f 53/26/32 52/23/29 51/44/30 50/13/32 55/25/32
f 56/56/33 57/57/33 58/58/29 59/59/29
f 60/60/34 61/61/35 62/62/24 63/63/36 64/64/34
f 59/59/29 58/58/29 65/65/37 66/66/37
f 66/66/37 65/65/37 67/67/38 68/68/39
f 69/69/22 70/70/22 62/62/24 61/61/35
f 68/68/39 67/67/38 70/70/22 69/69/22
f 106/71/33 107/72/29 72/73/29 73/74/33 74/75/33
f 72/73/29 58/58/29 57/57/33 75/76/33 73/74/33
f 76/77/29 77/78/29 78/79/33 79/80/33
f 80/81/40 109/82/24 110/83/31 81/84/41
f 62/62/24 80/81/40 81/84/41 82/85/42 63/63/36
f 83/86/31 84/87/31 85/88/24 86/89/24
f 72/73/29 107/72/29 108/90/43 87/91/37
f 58/58/29 72/73/29 87/91/37 65/65/37
f 88/92/37 89/93/37 77/78/29 76/77/29
f 87/91/37 108/90/43 104/94/44 90/95/45
f 65/65/37 87/91/37 90/95/45 67/67/38
f 91/96/38 92/97/39 89/93/37 88/92/37
f 93/98/18 105/99/18 109/82/24 80/81/40
f 70/70/22 93/98/18 80/81/40 62/62/24
f 86/89/24 85/88/24 94/100/46 95/101/22
f 90/95/45 104/94/44 105/99/18 93/98/18
f 67/67/38 90/95/45 93/98/18 70/70/22
f 95/101/22 94/100/46 92/97/39 91/96/38
f 56/56/7 59/59/7 96/102/7 97/103/7
f 61/61/47 60/60/47 98/104/47 99/105/47
f 59/59/48 66/66/48 100/106/48 96/102/48
f 66/66/49 68/68/49 101/107/49 100/106/49
f 69/69/50 61/61/50 99/105/50 102/108/50
f 68/68/1 69/69/1 102/108/1 101/107/1
f 71/109/51 56/56/51 97/103/51
f 74/75/52 73/74/52 103/110/52
f 73/74/53 75/76/53 103/110/53
f 76/77/54 79/80/54 97/103/54 96/102/54
f 83/86/55 86/89/55 99/105/55 98/104/55
f 88/92/56 76/77/56 96/102/56 100/106/56
f 91/96/57 88/92/57 100/106/57 101/107/57
f 86/89/58 95/101/58 102/108/58 99/105/58
f 95/101/59 91/96/59 101/107/59 102/108/59
f 79/80/60 71/109/60 97/103/60
f 127/111/61 130/112/61 119/113/61 118/114/61
f 131/115/62 128/116/62 118/114/62 119/113/62
f 136/117/63 127/111/63 118/114/63 121/118/63
f 128/116/64 137/119/64 121/118/64 118/114/64
f 130/112/65 133/120/65 120/121/65 119/113/65
f 134/122/66 131/115/66 119/113/66 120/121/66
f 133/120/67 139/123/67 122/124/67 120/121/67
f 140/125/68 134/122/68 120/121/68 122/124/68
f 143/126/13 136/117/13 121/118/13 123/127/13
f 137/119/69 144/128/69 123/127/69 121/118/69
f 147/129/70 159/130/70 125/131/70
f 139/123/54 146/132/54 124/133/54 122/124/54
f 149/134/7 140/125/7 122/124/7 124/133/7
f 146/132/71 148/135/71 124/133/71
f 148/135/72 149/134/72 124/133/72
f 159/130/73 165/136/73 125/131/73
f 151/137/74 126/138/75 129/139/19 152/140/19
f 153/141/19 130/112/19 127/111/22 150/142/21
f 131/115/19 115/143/19 112/144/22 128/116/22
f 158/145/76 135/146/26 126/138/75 151/137/74
f 150/142/21 127/111/22 136/117/24 157/147/77
f 128/116/22 112/144/22 113/148/24 137/119/24
f 152/140/19 129/139/19 132/149/78 154/150/79
f 155/151/79 133/120/78 130/112/19 153/141/19
f 134/122/78 116/152/78 115/143/19 131/115/19
f 154/150/79 132/149/78 138/153/29 160/154/80
f 161/155/80 139/123/29 133/120/78 155/151/79
f 140/125/29 117/156/29 116/152/78 134/122/78
f 142/157/81 135/146/26 158/145/76 156/158/31 141/159/81
f 157/147/77 136/117/24 143/126/31 162/160/31
f 137/119/24 113/148/24 114/161/31 144/128/31
f 160/154/80 138/153/29 145/162/33 164/163/33
f 146/132/33 139/123/29 161/155/80 159/130/33 147/129/33
f 149/134/32 111/164/32 117/156/29 140/125/29
f 152/140/19 153/141/19 150/142/21 151/137/74
f 151/137/74 150/142/21 157/147/77 158/145/76
f 154/150/79 155/151/79 153/141/19 152/140/19
f 160/154/80 161/155/80 155/151/79 154/150/79
f 158/145/76 157/147/77 162/160/31 163/165/31 156/158/31
f 161/155/80 160/154/80 164/163/33 165/136/33 159/130/33
