# Blender 4.0.2
# www.blender.org
mtllib zadeldak_roof_bulk_6000.mtl
o zadeldak_roof_bulk_6000
v -0.023840 0.148182 -3.240844
v -0.023840 0.032222 -3.240704
v 0.024160 0.032222 -3.240704
v -0.024830 0.033222 -3.042703
v -0.024830 0.032712 -3.240844
v 0.024160 0.146682 -3.241714
v 0.024160 0.033222 -3.241714
v -0.024870 0.147112 3.240704
v -0.023860 0.148182 3.240844
v -0.024870 0.032712 3.240844
v -0.023860 0.033222 3.241714
v -0.023860 0.146682 3.241714
v 0.024140 0.033222 3.241714
v 0.024140 0.146682 3.241714
v -0.024870 0.033222 3.042703
v -0.023870 0.032222 3.042703
v -0.023870 0.033222 3.041713
v 0.024130 0.033222 3.041713
v 0.024130 0.032222 3.042703
v 0.025130 0.147112 3.240704
v 0.025130 0.032712 3.240844
v 0.025130 0.033222 3.042703
v -0.023860 0.032222 3.240704
v 0.024140 0.032222 3.240704
v 0.024140 0.148182 3.240844
v 0.024170 0.033222 -3.041713
v -0.024830 0.147112 -3.240704
v -0.023830 0.032222 -3.042703
v 0.024150 2.017601 -0.000870
v -0.023830 0.033222 -3.041713
v -0.023850 2.017601 -0.000870
v -0.024850 2.017101 -0.000000
v 0.024170 0.032222 -3.042703
v -0.023850 1.786363 -0.000870
v 0.025150 2.017101 -0.000000
v 0.025150 1.787863 -0.000000
v 0.024150 1.786363 -0.000870
v -0.024850 1.787863 -0.000000
v 0.024160 0.148182 -3.240844
v 0.024015 1.786363 0.000870
v 0.025170 0.033222 -3.042703
v -0.023840 0.033222 -3.241714
v 0.025170 0.147112 -3.240704
v 0.025170 0.032712 -3.240844
v -0.023848 1.786398 0.000870
v 0.024152 2.017601 0.000870
v -0.023840 0.146682 -3.241714
v -0.023848 2.017608 0.000870
v -0.023715 1.786363 -0.000870
vn -0.6809 0.6343 0.3660
vn -0.6813 0.0004 0.7320
vn -0.0000 -0.0000 1.0000
vn -1.0000 -0.0000 -0.0000
vn -0.0000 -0.7035 -0.7107
vn 1.0000 -0.0000 -0.0000
vn -0.0000 -0.7106 0.7036
vn 0.6841 0.6318 0.3645
vn -0.0003 -0.8663 -0.4995
vn -0.5754 -0.5754 -0.5812
vn 0.5754 -0.5754 -0.5812
vn 0.2444 -0.6886 0.6827
vn 0.2445 -0.6886 0.6827
vn -0.2400 -0.6898 0.6831
vn -0.5458 0.4204 0.7248
vn 0.5535 0.4180 0.7204
vn -0.5955 -0.8033 -0.0010
vn -0.6235 -0.6773 -0.3905
vn -0.6315 -0.6807 -0.3712
vn -0.4432 -0.7765 -0.4478
vn -0.0000 0.5017 0.8651
vn 0.6165 -0.6821 -0.3933
vn 0.6163 -0.6813 -0.3950
vn 0.4432 -0.7766 -0.4478
vn 0.5994 -0.8005 -0.0010
vn 0.0001 0.8662 0.4998
vn -0.0000 -1.0000 -0.0000
vn 0.6886 0.0004 0.7252
vn -0.0004 -0.9999 0.0101
vn 0.4478 0.8942 -0.0005
vn -0.4494 0.8933 -0.0030
vn 0.8237 -0.5662 0.0307
vn 0.8235 -0.5664 0.0306
vn 0.8235 -0.5666 0.0305
vn -0.8287 -0.5595 0.0121
vn 0.0001 1.0000 -0.0019
vn -0.5754 -0.5754 0.5812
vn -0.0000 -0.7035 0.7107
vn -0.0000 -0.0000 -1.0000
vn -0.6838 0.6320 -0.3647
vn -0.0000 -0.7106 -0.7036
vn 0.6801 0.6350 -0.3664
vn -0.0000 -0.8663 0.4995
vn 0.6813 0.0004 -0.7320
vn 0.5754 -0.5754 0.5812
vn -0.2444 -0.6886 -0.6827
vn -0.2445 -0.6886 -0.6827
vn 0.2400 -0.6898 -0.6831
vn 0.5458 0.4204 -0.7248
vn -0.5535 0.4180 -0.7204
vn 0.5955 -0.8033 0.0010
vn 0.6378 -0.6672 0.3847
vn 0.6457 -0.6705 0.3653
vn 0.4433 -0.7765 0.4478
vn -0.0000 0.5017 -0.8651
vn -0.6167 -0.6819 0.3932
vn -0.6165 -0.6811 0.3949
vn -0.4432 -0.7766 0.4478
vn -0.5994 -0.8005 0.0010
vn -0.0000 0.8662 -0.4998
vn -0.6886 0.0004 -0.7252
vt 1.459373 0.001420
vt 1.459780 0.001527
vt 1.457993 1.102673
vt 1.457617 1.102844
vt 0.253974 0.011055
vt 0.253841 0.011440
vt 0.220703 0.011194
vt 0.220561 0.010782
vt 0.269981 0.580731
vt 0.269991 0.594895
vt 0.236501 0.594895
vt 0.236491 0.580731
vt 0.020443 0.001993
vt 1.123436 0.062298
vt 1.086460 0.118979
vt 0.051037 0.062087
vt 0.001957 0.030256
vt 0.793717 0.036609
vt 0.793351 0.036401
vt 0.800454 0.024139
vt 0.800820 0.024350
vt 1.105842 0.355561
vt 1.123436 0.384386
vt 1.073386 0.414673
vt 0.036703 0.439307
vt 0.001512 0.381504
vt 0.010107 0.041123
vt 0.010502 0.041032
vt 0.013728 0.054822
vt 0.013333 0.054913
vt 1.503829 0.001219
vt 1.504238 0.001107
vt 1.505542 1.102844
vt 1.505166 1.102674
vt 1.267138 0.002252
vt 1.281312 0.002252
vt 1.281309 1.034202
vt 1.267178 1.034191
vt 0.015658 0.048049
vt 0.015658 0.047649
vt 0.016016 0.047855
vt 0.045380 0.061560
vt 0.045761 0.061348
vt 0.045761 0.061778
vt 0.011440 0.132387
vt 0.011381 0.132707
vt 0.011034 0.132467
vt 0.027262 0.054524
vt 0.027457 0.054791
vt 0.027035 0.054913
vt 0.013210 0.002242
vt 0.013568 0.001895
vt 0.013728 0.002288
vt 0.018160 0.061778
vt 0.017809 0.061434
vt 0.018304 0.061396
vt 0.281348 0.325924
vt 0.281431 0.326330
vt 0.224316 0.338632
vt 0.224209 0.338321
vt 1.457229 0.002062
vt 1.459780 1.036490
vt 1.459400 1.036055
vt 1.441187 0.143004
vt 1.441476 0.142747
vt 1.438576 1.176061
vt 0.010952 0.404733
vt 0.011440 0.404730
vt 0.011433 0.418713
vt 0.010946 0.418714
vt 1.473509 0.001770
vt 1.471666 1.036043
vt 1.471272 1.036490
vt 1.438416 0.001418
vt 1.438707 0.001666
vt 1.441476 1.034202
vt 0.155644 0.338632
vt 0.155616 0.338303
vt 0.212703 0.325905
vt 0.212789 0.326319
vt 1.102844 1.322487
vt 0.002224 1.322497
vt 0.002220 1.308339
vt 1.102842 1.308334
vt 0.386029 0.507827
vt 0.443164 0.495447
vt 0.446171 0.509297
vt 0.389036 0.521677
vt 0.138317 0.006864
vt 0.138458 0.006463
vt 0.171475 0.006166
vt 0.171604 0.006537
vt 0.016016 0.107539
vt 0.015976 0.107019
vt 0.001906 0.106339
vt 0.001816 0.106849
vt 0.008780 0.006376
vt 0.008822 0.006864
vt 0.009152 0.006559
vt 0.013700 0.105251
vt 0.013728 0.104747
vt 0.013362 0.104938
vt 0.009068 0.258550
vt 0.009152 0.258038
vt 0.008656 0.258130
vt 0.001807 0.143627
vt 0.001838 0.144148
vt 0.002288 0.143768
vt 0.020553 0.365589
vt 0.006393 0.365589
vt 0.006363 0.366089
vt 0.020593 0.366089
vt 0.015635 0.109609
vt 0.016016 0.109398
vt 0.016016 0.109827
vt 0.002049 0.743619
vt 0.001683 0.743411
vt 0.008786 0.731148
vt 0.009152 0.731360
vt 0.306590 0.583019
vt 0.306600 0.597183
vt 0.273110 0.597183
vt 0.273100 0.583019
vt 0.020443 0.063770
vt 1.123436 0.124076
vt 1.086460 0.180757
vt 0.051037 0.123864
vt 0.001957 0.092034
vt 1.508405 0.001219
vt 1.508814 0.001107
vt 1.510118 1.102844
vt 1.509742 1.102674
vt 1.105842 0.417338
vt 1.123436 0.446163
vt 1.073386 0.476451
vt 0.036703 0.501085
vt 0.001512 0.443282
vt 0.012395 0.041123
vt 0.012790 0.041032
vt 0.016016 0.054822
vt 0.015621 0.054913
vt 1.463949 0.001420
vt 1.464356 0.001527
vt 1.462569 1.102673
vt 1.462193 1.102844
vt 1.285443 0.002252
vt 1.299616 0.002252
vt 1.299613 1.034202
vt 1.285483 1.034191
vt 0.283719 0.001903
vt 0.283586 0.002288
vt 0.250447 0.002042
vt 0.250306 0.001630
vt 0.008794 0.100675
vt 0.008794 0.100274
vt 0.009152 0.100480
vt 0.013728 0.125523
vt 0.013669 0.125843
vt 0.013322 0.125603
vt 0.015822 0.104862
vt 0.016016 0.105129
vt 0.015595 0.105251
vt 0.013210 0.006818
vt 0.013568 0.006471
vt 0.013728 0.006864
vt 0.006719 0.100675
vt 0.006368 0.100331
vt 0.006864 0.100293
vt 0.281348 0.328212
vt 0.281431 0.328618
vt 0.224316 0.340921
vt 0.224209 0.340609
vt 1.461805 0.002062
vt 1.464357 1.036490
vt 1.463976 1.036055
vt 1.445763 0.161309
vt 1.446052 0.161052
vt 1.443152 1.194366
vt 0.001800 0.407021
vt 0.002288 0.407018
vt 0.002280 0.421001
vt 0.001794 0.421002
vt 1.475797 0.443365
vt 1.473955 1.477638
vt 1.473560 1.478085
vt 1.442992 0.001418
vt 1.443284 0.001666
vt 1.446052 1.034202
vt 0.178524 0.336344
vt 0.178497 0.336015
vt 0.235583 0.323617
vt 0.235670 0.324031
vt 1.102844 1.340791
vt 0.002224 1.340801
vt 0.002220 1.326643
vt 1.102842 1.326638
vt 0.447807 0.507827
vt 0.504942 0.495447
vt 0.507949 0.509297
vt 0.450814 0.521677
vt 0.007898 0.183045
vt 0.008039 0.182644
vt 0.041055 0.182346
vt 0.041185 0.182717
s 0
usemtl wood
f 8/1/1 9/2/1 48/3/1 32/4/1
f 10/5/2 11/6/2 12/7/2 8/8/2
f 11/9/3 13/10/3 14/11/3 12/12/3
f 8/13/4 32/14/4 38/15/4 15/16/4 10/17/4
f 16/18/5 17/19/5 18/20/5 19/21/5
f 20/22/6 21/23/6 22/24/6 36/25/6 35/26/6
f 11/27/7 23/28/7 24/29/7 13/30/7
f 25/31/8 20/32/8 35/33/8 46/34/8
f 18/35/9 17/36/9 45/37/9 40/38/9
f 15/39/10 17/40/10 16/41/10
f 18/42/11 22/43/11 19/44/11
f 24/45/12 21/46/12 13/47/13
f 10/48/14 23/49/14 11/50/14
f 9/51/15 8/52/15 12/53/15
f 20/54/16 25/55/16 14/56/16
f 15/57/17 16/58/17 23/59/17 10/60/17
f 17/61/18 38/62/19 45/63/18
f 17/64/20 15/65/20 38/66/20
f 9/67/21 12/68/21 14/69/21 25/70/21
f 22/71/22 40/72/23 36/73/22
f 22/74/24 18/75/24 40/76/24
f 21/77/25 24/78/25 19/79/25 22/80/25
f 25/81/26 46/82/26 48/83/26 9/84/26
f 23/85/27 16/86/27 19/87/27 24/88/27
f 20/89/28 14/90/28 13/91/28 21/92/28
f 45/93/29 34/94/29 37/95/29 40/96/29
f 29/97/30 46/98/30 35/99/30
f 48/100/31 31/101/31 32/102/31
f 40/103/32 37/104/33 36/105/34
f 34/106/35 45/107/35 38/108/35
f 29/109/36 31/110/36 48/111/36 46/112/36
f 30/113/37 4/114/37 28/115/37
f 33/116/38 26/117/38 30/118/38 28/119/38
f 7/120/39 42/121/39 47/122/39 6/123/39
f 43/124/6 35/125/6 36/126/6 41/127/6 44/128/6
f 1/129/40 27/130/40 32/131/40 31/132/40
f 27/133/4 5/134/4 4/135/4 38/136/4 32/137/4
f 7/138/41 3/139/41 2/140/41 42/141/41
f 43/142/42 39/143/42 29/144/42 35/145/42
f 30/146/43 26/147/43 37/148/43 49/149/43
f 44/150/44 7/151/44 6/152/44 43/153/44
f 41/154/45 26/155/45 33/156/45
f 2/157/46 5/158/46 42/159/47
f 44/160/48 3/161/48 7/162/48
f 39/163/49 43/164/49 6/165/49
f 27/166/50 1/167/50 47/168/50
f 41/169/51 33/170/51 3/171/51 44/172/51
f 26/173/52 36/174/53 37/175/52
f 26/176/54 41/177/54 36/178/54
f 39/179/55 6/180/55 47/181/55 1/182/55
f 4/183/56 49/184/57 38/185/56
f 4/186/58 30/187/58 49/188/58
f 5/189/59 2/190/59 28/191/59 4/192/59
f 1/193/60 31/194/60 29/195/60 39/196/60
f 3/197/27 33/198/27 28/199/27 2/200/27
f 27/201/61 47/202/61 42/203/61 5/204/61
