# Blender 4.0.2
# www.blender.org
mtllib zadeldak_roof_bulk_3500.mtl
o zadeldak_roof_bulk_3500
v 0.024150 1.296433 -0.000870
v -0.023850 1.296433 -0.000870
v -0.023850 1.296433 0.000870
v 0.024150 1.296433 0.000860
v -0.024870 0.147113 -1.988530
v -0.024850 1.295933 -0.000000
v -0.023860 0.148183 -1.988670
v -0.024870 0.032713 -1.988670
v -0.023860 0.146683 -1.989540
v -0.023860 0.033223 -1.989540
v -0.023850 1.065483 0.000870
v -0.023850 1.065483 -0.000870
v 0.024150 1.065483 -0.000870
v 0.024150 1.065483 0.000870
v 0.024140 0.146683 -1.989540
v 0.024140 0.033223 -1.989540
v -0.024870 0.033223 -1.790530
v -0.024850 1.066983 -0.000000
v -0.023870 0.032223 -1.790530
v 0.024130 0.032223 -1.790530
v 0.024130 0.033223 -1.789540
v -0.023870 0.033223 -1.789540
v 0.025130 0.147113 -1.988530
v 0.025150 1.295933 -0.000000
v 0.025150 1.181453 -0.000000
v 0.025150 1.066983 -0.000000
v 0.025130 0.033223 -1.790530
v 0.025130 0.032713 -1.988670
v 0.024140 0.032223 -1.988530
v -0.023860 0.032223 -1.988530
v 0.024140 0.148183 -1.988670
v -0.024870 0.147112 1.988530
v -0.023860 0.148182 1.988670
v -0.024870 0.032712 1.988670
v -0.023860 0.033222 1.989540
v -0.023860 0.146682 1.989540
v 0.024140 0.033222 1.989540
v 0.024140 0.146682 1.989540
v -0.024870 0.033222 1.790529
v -0.023870 0.032222 1.790529
v -0.023870 0.033222 1.789540
v 0.024130 0.033222 1.789540
v 0.024130 0.032222 1.790529
v 0.025130 0.147112 1.988530
v 0.025130 0.032712 1.988670
v 0.025130 0.033222 1.790529
v -0.023860 0.032222 1.988530
v 0.024140 0.032222 1.988530
v 0.024140 0.148182 1.988670
vn -0.0000 1.0000 -0.0000
vn -0.6801 0.6348 -0.3667
vn -0.6813 0.0005 -0.7320
vn -0.0000 -1.0000 -0.0000
vn -0.0000 -0.0000 -1.0000
vn -1.0000 -0.0000 -0.0000
vn -0.0000 -0.7035 0.7107
vn 1.0000 -0.0000 -0.0000
vn -0.0000 -0.7106 -0.7035
vn 0.6838 0.6318 -0.3650
vn -0.0000 -0.8661 0.4998
vn -0.5754 -0.5754 0.5812
vn 0.5754 -0.5754 0.5812
vn 0.8321 -0.5547 -0.0000
vn -0.8321 -0.5547 -0.0000
vn -0.4472 0.8944 -0.0000
vn 0.4472 0.8944 -0.0000
vn 0.2449 -0.6887 -0.6824
vn -0.2404 -0.6897 -0.6830
vn -0.2400 -0.6899 -0.6829
vn -0.5458 0.4204 -0.7248
vn 0.5533 0.4176 -0.7207
vn -0.5955 -0.8033 0.0010
vn -0.6540 -0.6552 0.3782
vn -0.4436 -0.7762 0.4481
vn -0.0000 0.5017 -0.8650
vn 0.6538 -0.6553 0.3783
vn 0.4435 -0.7763 0.4480
vn 0.5994 -0.8005 0.0010
vn -0.0000 0.8659 -0.5002
vn 0.6886 0.0004 -0.7252
vn -0.6801 0.6348 0.3667
vn -0.6813 0.0005 0.7320
vn -0.0000 -0.0000 1.0000
vn -0.0000 -0.7036 -0.7106
vn -0.0000 -0.7032 -0.7110
vn -0.0000 -0.7106 0.7036
vn 0.6828 0.6326 0.3655
vn -0.0000 -0.8661 -0.4998
vn -0.5756 -0.5750 -0.5814
vn -0.5753 -0.5755 -0.5812
vn -0.5753 -0.5757 -0.5811
vn 0.5752 -0.5756 -0.5812
vn 0.5751 -0.5750 -0.5820
vn 0.5752 -0.5755 -0.5813
vn 0.2449 -0.6887 0.6824
vn -0.2406 -0.6898 0.6829
vn -0.2404 -0.6897 0.6830
vn -0.5461 0.4203 0.7246
vn 0.5535 0.4178 0.7205
vn -0.5955 -0.8033 -0.0010
vn -0.6537 -0.6555 -0.3781
vn -0.6540 -0.6552 -0.3782
vn -0.4433 -0.7763 -0.4482
vn -0.4434 -0.7765 -0.4478
vn -0.0000 0.5017 0.8650
vn 0.6539 -0.6553 -0.3783
vn 0.4432 -0.7764 -0.4481
vn 0.4435 -0.7764 -0.4478
vn 0.5994 -0.8005 -0.0010
vn 0.0001 0.8659 0.5002
vn 0.6886 0.0004 0.7252
vt 1.225866 0.695069
vt 1.211706 0.695069
vt 1.211676 0.695569
vt 1.225906 0.695569
vt 1.211399 0.018384
vt 1.211336 0.695249
vt 1.211815 0.018498
vt 0.240246 0.004200
vt 0.206827 0.003886
vt 0.206965 0.004291
vt 0.240108 0.004576
vt 0.020133 0.235670
vt 0.020093 0.235150
vt 0.006023 0.234470
vt 0.005933 0.234980
vt 0.329470 0.498359
vt 0.295980 0.498357
vt 0.295990 0.512525
vt 0.329480 0.512523
vt 0.217600 0.986689
vt 0.199115 1.014952
vt 0.248195 1.046783
vt 0.857700 1.079963
vt 0.894630 1.023353
vt 0.850902 0.036609
vt 0.858021 0.024362
vt 0.857661 0.024154
vt 0.850542 0.036399
vt 0.677977 1.208009
vt 0.000137 1.223582
vt 0.017717 1.252452
vt 0.035287 1.281312
vt 0.645519 1.267123
vt 0.695569 1.236835
vt 0.000967 0.050280
vt 0.004171 0.064066
vt 0.004576 0.063969
vt 0.001375 0.050181
vt 1.225979 0.018514
vt 1.226236 0.695239
vt 1.226399 0.018398
vt 1.390691 0.598478
vt 1.390691 1.205806
vt 1.404861 1.205806
vt 1.404867 0.598478
vt 0.004216 0.077794
vt 0.004576 0.077596
vt 0.004216 0.077383
vt 0.008783 0.102750
vt 0.009142 0.102963
vt 0.009152 0.102543
vt 0.005503 0.234560
vt 0.020593 0.235290
vt 0.029745 0.123211
vt 0.029316 0.123326
vt 0.029676 0.123555
vt 0.020408 0.107165
vt 0.020187 0.107539
vt 0.020593 0.107429
vt 0.031527 0.054875
vt 0.032033 0.054913
vt 0.031878 0.054520
vt 0.006708 0.077794
vt 0.006864 0.077405
vt 0.006372 0.077443
vt 0.059401 1.039746
vt 0.002250 1.052196
vt 0.002360 1.052506
vt 0.059489 1.040150
vt 1.528989 0.002023
vt 1.530320 0.610471
vt 1.530710 0.610911
vt 1.507543 0.901970
vt 1.506500 1.510118
vt 1.507829 0.901714
vt 0.004078 0.251416
vt 0.004078 0.265415
vt 0.004574 0.265415
vt 0.004576 0.251414
vt 1.487237 0.001731
vt 1.485826 0.610911
vt 1.486216 0.610461
vt 1.473892 0.870161
vt 1.475797 1.478085
vt 1.474171 0.870410
vt 0.135015 0.334056
vt 0.192197 0.321740
vt 0.192106 0.321329
vt 0.134982 0.333730
vt 1.225856 0.019454
vt 1.211705 0.019454
vt 0.676612 0.521555
vt 0.679618 0.535405
vt 0.736754 0.523025
vt 0.733745 0.509175
vt 0.000898 0.244822
vt 0.034321 0.244507
vt 0.034193 0.244134
vt 0.001050 0.244420
vt 1.516569 0.842376
vt 1.516982 0.842491
vt 1.516540 1.519090
vt 1.516170 1.519270
vt 0.034321 0.242156
vt 0.034185 0.242534
vt 0.001037 0.242253
vt 0.000898 0.241845
vt 0.366079 0.496071
vt 0.366089 0.510235
vt 0.332599 0.510237
vt 0.332589 0.496069
vt 0.199115 1.014953
vt 0.002033 0.915223
vt 0.001673 0.915013
vt 0.008792 0.902764
vt 0.009152 0.902972
vt 0.007844 0.052550
vt 0.008243 0.052453
vt 0.011440 0.066259
vt 0.011045 0.066354
vt 1.370127 0.766953
vt 1.370546 0.766836
vt 1.370495 1.443764
vt 1.370125 1.443594
vt 1.406707 0.815843
vt 1.420883 0.815843
vt 1.420877 1.423171
vt 1.406707 1.423171
vt 0.008793 0.043473
vt 0.008793 0.043063
vt 0.009152 0.043271
vt 0.013358 0.123344
vt 0.013728 0.123135
vt 0.013719 0.123555
vt 0.006864 0.132381
vt 0.006799 0.132707
vt 0.006460 0.132469
vt 0.006677 0.127757
vt 0.006864 0.128020
vt 0.006455 0.128131
vt 0.015512 0.004535
vt 0.015869 0.004187
vt 0.016016 0.004576
vt 0.095938 0.004576
vt 0.095608 0.004223
vt 0.096098 0.004188
vt 0.059402 0.982547
vt 0.059489 0.982950
vt 0.002362 0.995305
vt 0.002254 0.994994
vt 1.487804 0.892073
vt 1.489525 1.500965
vt 1.489135 1.500525
vt 1.468645 0.872243
vt 1.468933 0.871986
vt 1.467436 1.480373
vt 0.306106 0.002022
vt 0.306600 0.002022
vt 0.306591 0.016016
vt 0.306095 0.016016
vt 1.471221 0.001731
vt 1.470204 0.610461
vt 1.469814 0.610911
vt 1.499241 0.000731
vt 1.499531 0.000979
vt 1.500965 0.608623
vt 0.135012 0.331768
vt 0.134986 0.331437
vt 0.192107 0.319035
vt 0.192197 0.319449
vt 1.244693 0.019954
vt 1.244703 0.695569
vt 1.230543 0.695569
vt 1.230542 0.019955
vt 0.681188 0.498675
vt 0.738322 0.486295
vt 0.741330 0.500145
vt 0.684194 0.512525
vt 0.181654 0.009152
vt 0.181798 0.008748
vt 0.214947 0.008462
vt 0.215077 0.008837
s 0
usemtl wood
f 1/1/1 2/2/1 3/3/1 4/4/1
f 5/5/2 6/6/2 2/2/2 7/7/2
f 8/8/3 5/9/3 9/10/3 10/11/3
f 11/12/4 12/13/4 13/14/4 14/15/4
f 10/16/5 9/17/5 15/18/5 16/19/5
f 5/20/6 8/21/6 17/22/6 18/23/6 6/24/6
f 19/25/7 20/26/7 21/27/7 22/28/7
f 23/29/8 24/30/8 25/31/8 26/32/8 27/33/8 28/34/8
f 10/35/9 16/36/9 29/37/9 30/38/9
f 31/39/10 1/1/10 24/40/10 23/41/10
f 21/42/11 13/43/11 12/44/11 22/45/11
f 17/46/12 19/47/12 22/48/12
f 21/49/13 20/50/13 27/51/13
f 14/15/14 13/14/14 26/52/14
f 12/13/15 11/12/15 18/53/15
f 3/3/16 2/2/16 6/6/16
f 1/1/17 4/4/17 24/40/17
f 29/54/18 16/55/18 28/56/18
f 8/57/19 10/58/20 30/59/20
f 7/60/21 9/61/21 5/62/21
f 23/63/22 15/64/22 31/65/22
f 17/66/23 8/67/23 30/68/23 19/69/23
f 22/70/24 12/71/24 18/72/24
f 22/73/25 18/74/25 17/75/25
f 7/76/26 31/77/26 15/78/26 9/79/26
f 27/80/27 26/81/27 13/82/27
f 27/83/28 13/84/28 21/85/28
f 28/86/29 27/87/29 20/88/29 29/89/29
f 31/90/30 7/91/30 2/2/30 1/1/30
f 30/92/4 29/93/4 20/94/4 19/95/4
f 23/96/31 28/97/31 16/98/31 15/99/31
f 32/100/32 33/101/32 3/102/32 6/103/32
f 34/104/33 35/105/33 36/106/33 32/107/33
f 35/108/34 37/109/34 38/110/34 36/111/34
f 32/20/6 6/24/6 18/23/6 39/22/6 34/112/6
f 40/113/35 41/114/35 42/115/36 43/116/35
f 44/29/8 45/34/8 46/33/8 26/32/8 25/31/8 24/30/8
f 35/117/37 47/118/37 48/119/37 37/120/37
f 49/121/38 44/122/38 24/123/38 4/124/38
f 42/125/39 41/126/39 11/127/39 14/128/39
f 39/129/40 41/130/41 40/131/42
f 42/132/43 46/133/44 43/134/45
f 48/135/46 45/136/46 37/137/46
f 34/138/47 47/139/48 35/140/48
f 33/141/49 32/142/49 36/143/49
f 44/144/50 49/145/50 38/146/50
f 39/147/51 40/148/51 47/149/51 34/150/51
f 41/151/52 18/152/53 11/153/53
f 41/154/54 39/155/55 18/156/54
f 33/157/56 36/158/56 38/159/56 49/160/56
f 46/161/57 14/162/57 26/163/57
f 46/164/58 42/165/59 14/166/58
f 45/167/60 48/168/60 43/169/60 46/170/60
f 49/171/61 4/172/61 3/173/61 33/174/61
f 47/175/4 40/176/4 43/177/4 48/178/4
f 44/179/62 38/180/62 37/181/62 45/182/62
