# Blender 4.0.2
# www.blender.org
mtllib zadeldak_roof_bulk_3000.mtl
o zadeldak_roof_bulk_3000
v 0.024150 1.152092 -0.000870
v -0.023850 1.152092 -0.000870
v -0.023850 1.152092 0.000870
v 0.024150 1.152092 0.000860
v -0.024870 0.147113 -1.739530
v -0.024850 1.151592 -0.000000
v -0.023860 0.148183 -1.739670
v -0.024870 0.032712 -1.739670
v -0.023860 0.146682 -1.740540
v -0.023860 0.033222 -1.740540
v -0.023850 0.921142 0.000870
v -0.023850 0.921142 -0.000870
v 0.024150 0.921142 -0.000870
v 0.024150 0.921142 0.000870
v 0.024140 0.146682 -1.740540
v 0.024140 0.033222 -1.740540
v -0.024870 0.033222 -1.541530
v -0.024850 0.922642 -0.000000
v -0.023870 0.032222 -1.541530
v 0.024130 0.032222 -1.541530
v 0.024130 0.033222 -1.540540
v -0.023870 0.033222 -1.540540
v 0.025130 0.147113 -1.739530
v 0.025150 1.151592 -0.000000
v 0.025150 1.037112 -0.000000
v 0.025150 0.922642 -0.000000
v 0.025130 0.033222 -1.541530
v 0.025130 0.032712 -1.739670
v 0.024140 0.032222 -1.739530
v -0.023860 0.032222 -1.739530
v 0.024140 0.148183 -1.739670
v -0.024870 0.147112 1.739530
v -0.023860 0.148182 1.739670
v -0.024870 0.032712 1.739670
v -0.023860 0.033222 1.740540
v -0.023860 0.146682 1.740540
v 0.024140 0.033222 1.740540
v 0.024140 0.146682 1.740540
v -0.024870 0.033222 1.541530
v -0.023870 0.032222 1.541530
v -0.023870 0.033222 1.540540
v 0.024130 0.033222 1.540540
v 0.024130 0.032222 1.541530
v 0.025130 0.147112 1.739530
v 0.025130 0.032712 1.739670
v 0.025130 0.033222 1.541530
v -0.023860 0.032222 1.739530
v 0.024140 0.032222 1.739530
v 0.024140 0.148182 1.739670
vn -0.0000 1.0000 -0.0000
vn -0.6801 0.6349 -0.3666
vn -0.6810 0.0004 -0.7323
vn -0.6813 0.0005 -0.7320
vn -0.0000 -1.0000 -0.0000
vn -0.0000 -0.0000 -1.0000
vn -1.0000 -0.0000 -0.0000
vn -0.0000 -0.7036 0.7106
vn 1.0000 -0.0000 -0.0000
vn -0.0000 -0.7107 -0.7035
vn 0.6838 0.6319 -0.3649
vn -0.0000 -0.8663 0.4996
vn -0.5755 -0.5753 0.5812
vn -0.5752 -0.5753 0.5815
vn 0.5755 -0.5753 0.5812
vn 0.5752 -0.5753 0.5815
vn 0.8321 -0.5547 -0.0000
vn -0.8321 -0.5547 -0.0000
vn -0.4471 0.8945 -0.0000
vn 0.4471 0.8945 -0.0000
vn 0.2445 -0.6888 -0.6825
vn -0.2397 -0.6896 -0.6834
vn -0.2400 -0.6899 -0.6830
vn -0.5458 0.4201 -0.7250
vn 0.5535 0.4176 -0.7206
vn -0.5958 -0.8031 0.0010
vn -0.6542 -0.6552 0.3779
vn -0.4434 -0.7763 0.4479
vn -0.0000 0.5015 -0.8652
vn 0.6540 -0.6552 0.3780
vn 0.4433 -0.7765 0.4478
vn 0.5994 -0.8005 0.0010
vn -0.0000 0.8660 -0.5000
vn 0.6886 0.0004 -0.7252
vn -0.6801 0.6349 0.3666
vn -0.6813 0.0005 0.7320
vn -0.0000 -0.0000 1.0000
vn -0.0000 -0.7036 -0.7106
vn -0.0000 -0.7106 0.7035
vn 0.6828 0.6327 0.3653
vn -0.0000 -0.8663 -0.4996
vn -0.5754 -0.5754 -0.5812
vn -0.5752 -0.5754 -0.5814
vn 0.5754 -0.5754 -0.5812
vn 0.5752 -0.5754 -0.5814
vn 0.2445 -0.6888 0.6825
vn -0.2397 -0.6898 0.6832
vn -0.2399 -0.6896 0.6833
vn -0.5459 0.4203 0.7248
vn 0.5533 0.4177 0.7207
vn -0.5958 -0.8031 -0.0010
vn -0.6539 -0.6554 -0.3780
vn -0.4435 -0.7763 -0.4479
vn -0.0000 0.5017 0.8650
vn 0.6540 -0.6552 -0.3780
vn 0.4433 -0.7765 -0.4478
vn 0.5994 -0.8005 -0.0010
vn 0.0001 0.8660 0.5000
vn 0.6886 0.0004 0.7252
vt 1.262597 0.594395
vt 1.248437 0.594395
vt 1.248407 0.594895
vt 1.262637 0.594895
vt 1.248018 0.001505
vt 1.248067 0.594575
vt 1.248437 0.001625
vt 0.375231 0.330547
vt 0.341431 0.330557
vt 0.341591 0.330947
vt 0.375081 0.330937
vt 0.020133 0.292871
vt 0.020093 0.292351
vt 0.006023 0.291671
vt 0.005933 0.292181
vt 0.341601 0.345097
vt 0.375091 0.345107
vt 0.583881 1.142165
vt 0.565401 1.170435
vt 0.614473 1.202252
vt 1.139131 1.230975
vt 1.176061 1.174365
vt 0.002022 1.258231
vt 0.009142 1.245981
vt 0.008782 1.245771
vt 0.001662 1.258021
vt 1.277450 1.232713
vt 0.684560 1.246462
vt 0.702140 1.275332
vt 0.719710 1.304193
vt 1.244990 1.291822
vt 1.295040 1.261543
vt 0.000946 0.283417
vt 0.004166 0.297217
vt 0.004576 0.297117
vt 0.001346 0.283317
vt 1.262588 0.001625
vt 1.262967 0.594565
vt 1.263007 0.001505
vt 1.354082 0.866405
vt 1.354082 1.391139
vt 1.368252 1.391139
vt 1.368258 0.866405
vt 0.001662 1.258431
vt 0.009152 1.245561
vt 0.005503 0.291761
vt 0.020593 0.292491
vt 0.004516 0.297447
vt 0.001156 0.283057
vt 0.341091 0.330907
vt 0.341441 0.345487
vt 0.341111 0.345137
vt 0.058598 0.316249
vt 0.001438 0.328719
vt 0.001548 0.329029
vt 0.058688 0.316649
vt 1.388563 0.865963
vt 1.388354 1.390699
vt 1.388744 1.391139
vt 1.388851 0.865707
vt 1.335738 0.952655
vt 1.335835 1.478085
vt 1.336225 1.477635
vt 1.336023 0.952904
vt 0.004588 0.343209
vt 0.061778 0.330909
vt 0.061688 0.330499
vt 0.004558 0.342879
vt 0.375241 0.345497
vt 1.389877 0.001825
vt 1.390297 0.001945
vt 1.390297 0.594715
vt 1.389927 0.594895
vt 0.292861 0.499863
vt 0.292711 0.500253
vt 0.259221 0.500263
vt 0.259061 0.499873
vt 0.292721 0.514423
vt 0.259231 0.514413
vt 0.002022 1.201030
vt 0.001662 1.200820
vt 0.008782 1.188570
vt 0.009142 1.188780
vt 0.000946 0.226216
vt 0.001346 0.226116
vt 0.004576 0.239916
vt 0.004166 0.240016
vt 1.404447 0.001945
vt 1.404867 0.001825
vt 1.404827 0.594885
vt 1.404457 0.594715
vt 1.372386 0.866405
vt 1.386563 0.866405
vt 1.386556 1.391139
vt 1.372386 1.391139
vt 0.001662 1.201230
vt 0.009152 1.188360
vt 0.004516 0.240246
vt 0.001156 0.225856
vt 0.258721 0.500223
vt 0.259071 0.514803
vt 0.258741 0.514453
vt 0.124951 0.316249
vt 0.125041 0.316649
vt 0.067901 0.329029
vt 0.067791 0.328719
vt 1.351954 0.001077
vt 1.352135 0.526253
vt 1.351745 0.525813
vt 1.352242 0.000821
vt 1.340314 0.950367
vt 1.340801 1.475347
vt 1.340411 1.475797
vt 1.340599 0.950616
vt 0.070941 0.343209
vt 0.070911 0.342879
vt 0.128041 0.330499
vt 0.128131 0.330909
vt 0.292871 0.514813
s 0
usemtl wood
f 1/1/1 2/2/1 3/3/1 4/4/1
f 5/5/2 6/6/2 2/2/2 7/7/2
f 8/8/3 5/9/4 9/10/4 10/11/3
f 11/12/5 12/13/5 13/14/5 14/15/5
f 10/11/6 9/10/6 15/16/6 16/17/6
f 5/18/7 8/19/7 17/20/7 18/21/7 6/22/7
f 19/23/8 20/24/8 21/25/8 22/26/8
f 23/27/9 24/28/9 25/29/9 26/30/9 27/31/9 28/32/9
f 10/33/10 16/34/10 29/35/10 30/36/10
f 31/37/11 1/1/11 24/38/11 23/39/11
f 21/40/12 13/41/12 12/42/12 22/43/12
f 17/44/13 19/23/14 22/26/13
f 21/25/15 20/24/16 27/45/15
f 14/15/17 13/14/17 26/46/17
f 12/13/18 11/12/18 18/47/18
f 3/3/19 2/2/19 6/6/19
f 1/1/20 4/4/20 24/38/20
f 29/35/21 16/34/21 28/48/21
f 8/49/22 10/33/23 30/36/23
f 7/50/24 9/10/24 5/9/24
f 23/51/25 15/16/25 31/52/25
f 17/53/26 8/54/26 30/55/26 19/56/26
f 22/57/27 12/58/27 18/59/27
f 22/57/28 18/59/28 17/60/28
f 7/50/29 31/52/29 15/16/29 9/10/29
f 27/61/30 26/62/30 13/63/30
f 27/61/31 13/63/31 21/64/31
f 28/65/32 27/66/32 20/67/32 29/68/32
f 31/37/33 7/7/33 2/2/33 1/1/33
f 30/55/5 29/68/5 20/67/5 19/56/5
f 23/51/34 28/69/34 16/17/34 15/16/34
f 32/70/35 33/71/35 3/72/35 6/73/35
f 34/74/36 35/75/36 36/76/36 32/77/36
f 35/75/37 37/78/37 38/79/37 36/76/37
f 32/18/7 6/22/7 18/21/7 39/20/7 34/19/7
f 40/80/38 41/81/38 42/82/38 43/83/38
f 44/27/9 45/32/9 46/31/9 26/30/9 25/29/9 24/28/9
f 35/84/39 47/85/39 48/86/39 37/87/39
f 49/88/40 44/89/40 24/90/40 4/91/40
f 42/92/41 41/93/41 11/94/41 14/95/41
f 39/96/42 41/81/42 40/80/43
f 42/82/44 46/97/44 43/83/45
f 48/86/46 45/98/46 37/87/46
f 34/99/47 47/85/48 35/84/48
f 33/100/49 32/77/49 36/76/49
f 44/101/50 49/102/50 38/79/50
f 39/103/51 40/104/51 47/105/51 34/106/51
f 41/107/52 18/108/52 11/109/52
f 41/107/53 39/110/53 18/108/53
f 33/100/54 36/76/54 38/79/54 49/102/54
f 46/111/55 14/112/55 26/113/55
f 46/111/56 42/114/56 14/112/56
f 45/115/57 48/116/57 43/117/57 46/118/57
f 49/88/58 4/91/58 3/72/58 33/71/58
f 47/105/5 40/104/5 43/117/5 48/116/5
f 44/101/59 38/79/59 37/78/59 45/119/59
