# Blender 4.0.2
# www.blender.org
mtllib zadeldak_roof_bulk_5500.mtl
o zadeldak_roof_bulk_5500
v -0.023830 0.033222 -2.791713
v -0.024850 1.643763 -0.000000
v 0.024170 0.033222 -2.791713
v 0.024170 0.032222 -2.792703
v 0.024150 1.642262 -0.000870
v 0.025170 0.033222 -2.792703
v 0.025150 1.643763 -0.000000
v 0.025150 1.872855 -0.000000
v -0.023840 0.146682 -2.991714
v -0.023850 1.642262 -0.000870
v -0.023840 0.033222 -2.991714
v -0.023850 1.642262 0.000870
v -0.024850 1.872855 -0.000000
v 0.024160 0.146682 -2.991714
v -0.023850 1.873355 -0.000870
v 0.024160 0.033222 -2.991714
v 0.024150 1.873355 -0.000870
v -0.024870 0.147112 2.990704
v -0.023860 0.148182 2.990844
v -0.024870 0.032712 2.990844
v -0.023860 0.033222 2.991714
v -0.023860 0.146682 2.991714
v 0.024140 0.033222 2.991714
v 0.024140 0.146682 2.991714
v -0.024870 0.033222 2.792703
v -0.023870 0.032222 2.792703
v -0.023870 0.033222 2.791713
v 0.024130 0.033222 2.791713
v 0.024130 0.032222 2.792703
v 0.025130 0.147112 2.990704
v 0.025130 0.032712 2.990844
v 0.025130 0.033222 2.792703
v -0.023860 0.032222 2.990704
v 0.024140 0.032222 2.990704
v 0.024140 0.148182 2.990844
v 0.025170 0.147112 -2.990704
v 0.024080 1.642262 0.000870
v 0.024151 1.873355 0.000870
v 0.025170 0.032712 -2.990844
v -0.023849 1.873361 0.000870
v 0.024160 0.148182 -2.990844
v -0.023830 0.032222 -2.792703
v -0.024830 0.147112 -2.990704
v -0.024830 0.032712 -2.990844
v -0.024830 0.033222 -2.792703
v 0.024160 0.032222 -2.990704
v -0.023840 0.032222 -2.990704
v -0.023840 0.148182 -2.990844
vn 0.8321 -0.5547 -0.0000
vn 0.8320 -0.5547 -0.0000
vn -0.0000 -1.0000 -0.0000
vn 0.4474 0.8943 -0.0002
vn -0.8321 -0.5547 -0.0000
vn 0.0001 1.0000 -0.0018
vn -0.4494 0.8933 -0.0029
vn -0.6810 0.6343 0.3660
vn -0.6813 0.0004 0.7320
vn -0.0000 -0.0000 1.0000
vn -1.0000 -0.0000 -0.0000
vn -0.0000 -0.7036 -0.7106
vn 1.0000 -0.0000 -0.0000
vn -0.0000 -0.7107 0.7035
vn 0.6839 0.6319 0.3646
vn -0.0000 -0.8663 -0.4995
vn -0.5754 -0.5754 -0.5812
vn 0.5754 -0.5754 -0.5812
vn 0.2444 -0.6886 0.6827
vn -0.2400 -0.6898 0.6831
vn -0.5458 0.4204 0.7248
vn 0.5535 0.4180 0.7204
vn -0.5955 -0.8033 -0.0010
vn -0.6378 -0.6672 -0.3847
vn -0.4433 -0.7765 -0.4478
vn -0.0000 0.5018 0.8650
vn 0.6352 -0.6691 -0.3859
vn 0.4433 -0.7766 -0.4477
vn 0.5994 -0.8005 -0.0010
vn 0.0001 0.8662 0.4998
vn 0.6886 0.0004 0.7252
vn -0.5754 -0.5755 0.5812
vn -0.6838 0.6320 -0.3647
vn -0.0000 -0.8663 0.4995
vn 0.6813 0.0004 -0.7320
vn -0.0000 -0.0000 -1.0000
vn 0.6801 0.6350 -0.3664
vn -0.0000 -0.7036 0.7106
vn 0.5754 -0.5754 0.5812
vn -0.0000 -0.7107 -0.7035
vn -0.2444 -0.6886 -0.6827
vn 0.2400 -0.6898 -0.6831
vn 0.5458 0.4204 -0.7248
vn -0.5535 0.4180 -0.7204
vn 0.5955 -0.8033 0.0010
vn 0.6542 -0.6552 0.3778
vn 0.4433 -0.7765 0.4478
vn -0.0000 0.5018 -0.8650
vn -0.6542 -0.6552 0.3778
vn -0.4432 -0.7766 0.4477
vn -0.5994 -0.8005 0.0010
vn -0.0000 0.8662 -0.4998
vn -0.6886 0.0004 -0.7252
vt 0.002204 0.201349
vt 0.002288 0.200837
vt 0.001792 0.200928
vt 0.043473 0.059489
vt 0.043433 0.058969
vt 0.029363 0.058289
vt 0.029273 0.058799
vt 0.004204 0.047561
vt 0.004246 0.048049
vt 0.004576 0.047744
vt 0.001807 0.095578
vt 0.001838 0.096098
vt 0.002288 0.095719
vt 0.080042 0.312964
vt 0.065882 0.312964
vt 0.065852 0.313464
vt 0.080082 0.313464
vt 0.036580 0.061778
vt 0.036609 0.061274
vt 0.036243 0.061465
vt 1.491406 0.001727
vt 1.491813 0.001835
vt 1.490163 1.018013
vt 1.489789 1.018185
vt 0.276855 0.004191
vt 0.276721 0.004576
vt 0.243583 0.004330
vt 0.243442 0.003918
vt 0.489634 0.589883
vt 0.489644 0.604047
vt 0.456154 0.604047
vt 0.456144 0.589883
vt 0.018584 0.125663
vt 1.036490 0.181313
vt 0.999538 0.237958
vt 0.049178 0.185757
vt 0.000098 0.153926
vt 0.002049 0.686417
vt 0.001683 0.686209
vt 0.008786 0.673947
vt 0.009152 0.674159
vt 1.021184 0.604712
vt 1.038778 0.633537
vt 0.988728 0.663824
vt 0.037213 0.686417
vt 0.002043 0.628651
vt 0.019259 0.045699
vt 0.019654 0.045608
vt 0.022881 0.059398
vt 0.022485 0.059489
vt 1.513085 0.001550
vt 1.513493 0.001438
vt 1.514694 1.018185
vt 1.514319 1.018014
vt 1.319763 0.389115
vt 1.333937 0.389115
vt 1.333934 1.336225
vt 1.319784 1.336219
vt 0.052267 0.002288
vt 0.052267 0.001888
vt 0.052625 0.002093
vt 0.015635 0.066136
vt 0.016016 0.065924
vt 0.016016 0.066354
vt 0.132707 0.001968
vt 0.132648 0.002288
vt 0.132301 0.002048
vt 0.038702 0.056812
vt 0.038897 0.057079
vt 0.038475 0.057201
vt 0.001769 0.018259
vt 0.002128 0.017912
vt 0.002288 0.018304
vt 0.031888 0.061778
vt 0.031537 0.061434
vt 0.032033 0.061396
vt 0.304228 0.325924
vt 0.304312 0.326330
vt 0.247196 0.338632
vt 0.247090 0.338321
vt 1.477994 0.533236
vt 1.480373 1.482661
vt 1.479987 1.482221
vt 1.450339 0.095188
vt 1.450628 0.094931
vt 1.447973 1.043354
vt 0.004088 0.391004
vt 0.004576 0.391001
vt 0.004568 0.404984
vt 0.004082 0.404986
vt 1.496389 0.397952
vt 1.494716 1.347216
vt 1.494326 1.347666
vt 1.447803 0.001647
vt 1.448095 0.001894
vt 1.450628 0.949544
vt 0.178524 0.338632
vt 0.178497 0.338303
vt 0.235583 0.325905
vt 0.235670 0.326319
vt 1.015897 1.359096
vt 0.000202 1.359106
vt 0.000199 1.344947
vt 1.015896 1.344943
vt 0.502720 0.512403
vt 0.559855 0.500023
vt 0.562862 0.513873
vt 0.505727 0.526253
vt 0.165774 0.004576
vt 0.165915 0.004175
vt 0.198931 0.003878
vt 0.199061 0.004249
vt 0.020211 0.109609
vt 0.020593 0.109398
vt 0.020593 0.109827
vt 1.517661 0.001550
vt 1.518069 0.001438
vt 1.519270 1.018185
vt 1.518895 1.018014
vt 1.335780 0.000146
vt 1.349954 0.000146
vt 1.349950 0.947256
vt 1.335801 0.947249
vt 0.288295 0.006479
vt 0.288162 0.006864
vt 0.255023 0.006618
vt 0.254882 0.006206
vt 0.034311 0.610476
vt 0.034321 0.624640
vt 0.000831 0.624640
vt 0.000821 0.610476
vt 1.021184 0.666489
vt 1.038778 0.695314
vt 0.988728 0.725602
vt 0.037213 0.748195
vt 0.002043 0.690429
vt 1.493694 0.479931
vt 1.494101 0.480038
vt 1.492451 1.496217
vt 1.492077 1.496389
vt 0.002049 0.656672
vt 0.001683 0.656464
vt 0.008786 0.644202
vt 0.009152 0.644414
vt 0.018584 0.187440
vt 1.036490 0.243091
vt 0.999538 0.299735
vt 0.049178 0.247534
vt 0.000098 0.215704
vt 0.017946 0.105251
vt 0.017946 0.104850
vt 0.018304 0.105056
vt 0.005531 0.002226
vt 0.005926 0.002135
vt 0.009152 0.015925
vt 0.008756 0.016016
vt 0.006864 0.130099
vt 0.006805 0.130419
vt 0.006458 0.130179
vt 0.002094 0.109438
vt 0.002288 0.109705
vt 0.001867 0.109827
vt 0.017786 0.002242
vt 0.018144 0.001895
vt 0.018304 0.002288
vt 0.011295 0.100675
vt 0.010944 0.100331
vt 0.011440 0.100293
vt 0.304228 0.328212
vt 0.304312 0.328618
vt 0.247196 0.340921
vt 0.247090 0.340609
vt 1.480282 0.000119
vt 1.482661 0.949544
vt 1.482275 0.949104
vt 1.454915 0.095188
vt 1.455204 0.094931
vt 1.452549 1.043354
vt 0.015528 0.411597
vt 0.016016 0.411594
vt 0.016009 0.425577
vt 0.015522 0.425579
vt 1.498677 0.551252
vt 1.497004 1.500516
vt 1.496614 1.500965
vt 1.452379 0.001647
vt 1.452671 0.001894
vt 1.455204 0.949544
vt 0.201405 0.336344
vt 0.201378 0.336015
vt 0.258464 0.323617
vt 0.258550 0.324031
vt 1.015897 1.377401
vt 0.000202 1.377410
vt 0.000199 1.363252
vt 1.015896 1.363247
vt 0.001636 0.581045
vt 0.058771 0.568665
vt 0.061778 0.582515
vt 0.004643 0.594895
vt 0.172638 0.002288
vt 0.172779 0.001887
vt 0.205795 0.001589
vt 0.205925 0.001960
s 0
usemtl wood
f 37/1/1 5/2/2 7/3/1
f 12/4/3 10/5/3 5/6/3 37/7/3
f 17/8/4 38/9/4 8/10/4
f 10/11/5 12/12/5 2/13/5
f 17/14/6 15/15/6 40/16/6 38/17/6
f 40/18/7 15/19/7 13/20/7
f 18/21/8 19/22/8 40/23/8 13/24/8
f 20/25/9 21/26/9 22/27/9 18/28/9
f 21/29/10 23/30/10 24/31/10 22/32/10
f 18/33/11 13/34/11 2/35/11 25/36/11 20/37/11
f 26/38/12 27/39/12 28/40/12 29/41/12
f 30/42/13 31/43/13 32/44/13 7/45/13 8/46/13
f 21/47/14 33/48/14 34/49/14 23/50/14
f 35/51/15 30/52/15 8/53/15 38/54/15
f 28/55/16 27/56/16 12/57/16 37/58/16
f 25/59/17 27/60/17 26/61/17
f 28/62/18 32/63/18 29/64/18
f 34/65/19 31/66/19 23/67/19
f 20/68/20 33/69/20 21/70/20
f 19/71/21 18/72/21 22/73/21
f 30/74/22 35/75/22 24/76/22
f 25/77/23 26/78/23 33/79/23 20/80/23
f 27/81/24 2/82/24 12/83/24
f 27/84/25 25/85/25 2/86/25
f 19/87/26 22/88/26 24/89/26 35/90/26
f 32/91/27 37/92/27 7/93/27
f 32/94/28 28/95/28 37/96/28
f 31/97/29 34/98/29 29/99/29 32/100/29
f 35/101/30 38/102/30 40/103/30 19/104/30
f 33/105/3 26/106/3 29/107/3 34/108/3
f 30/109/31 24/110/31 23/111/31 31/112/31
f 1/113/32 45/114/32 42/115/32
f 48/116/33 43/117/33 13/118/33 15/119/33
f 1/120/34 3/121/34 5/122/34 10/123/34
f 39/124/35 16/125/35 14/126/35 36/127/35
f 16/128/36 11/129/36 9/130/36 14/131/36
f 43/132/11 44/133/11 45/134/11 2/135/11 13/136/11
f 36/137/37 41/138/37 17/139/37 8/140/37
f 4/141/38 3/142/38 1/143/38 42/144/38
f 36/145/13 8/146/13 7/147/13 6/148/13 39/149/13
f 6/150/39 3/151/39 4/152/39
f 16/153/40 46/154/40 47/155/40 11/156/40
f 47/157/41 44/158/41 11/159/41
f 39/160/42 46/161/42 16/162/42
f 41/163/43 36/164/43 14/165/43
f 43/166/44 48/167/44 9/168/44
f 6/169/45 4/170/45 46/171/45 39/172/45
f 3/173/46 7/174/46 5/175/46
f 3/176/47 6/177/47 7/178/47
f 41/179/48 14/180/48 9/181/48 48/182/48
f 45/183/49 10/184/49 2/185/49
f 45/186/50 1/187/50 10/188/50
f 44/189/51 47/190/51 42/191/51 45/192/51
f 48/193/52 15/194/52 17/195/52 41/196/52
f 46/197/3 4/198/3 42/199/3 47/200/3
f 43/201/53 9/202/53 11/203/53 44/204/53
