# Blender 4.0.2
# www.blender.org
mtllib zadeldak_beam_5000.mtl
o zadeldak_beam_5000
v -0.000240 0.147193 -2.740844
v -0.000240 1.729114 -0.000901
v -0.000240 1.629114 -0.000901
v -0.000240 0.047193 -2.740844
v -0.000240 1.629114 0.000839
v -0.000240 0.047193 2.740844
v -0.100240 0.147193 -2.740844
v -0.100240 0.047193 -2.740844
v -0.100240 1.629114 -0.000901
v -0.100240 1.729114 -0.000901
v -0.100240 1.629114 0.000839
v -0.000240 1.729114 0.000901
v -0.000240 0.147193 2.740844
v -0.100240 1.729114 0.000901
v -0.100240 0.047193 2.740844
v -0.100240 0.147193 2.740844
v -0.100240 0.147193 -2.740844
v -0.000240 0.147193 -2.740844
v -0.100240 0.047193 -2.740844
v -0.000240 0.047193 -2.740844
v -0.100240 0.147193 2.740844
v -0.000240 0.147193 2.740844
v -0.100240 0.047193 2.740844
v -0.000240 0.047193 2.740844
vn -0.0000 -0.0000 -0.0000
vn 1.0000 -0.0000 -0.0000
vn -0.0000 0.8944 0.4472
vn -1.0000 -0.0000 -0.0000
vn -0.0000 1.0000 -0.0000
vn -0.0000 -0.0000 -1.0000
vn -0.0000 -1.0000 -0.0000
vn -0.0000 -0.8660 -0.5000
vn -0.0000 -0.8660 0.5000
vn -0.0000 0.8660 -0.5000
vn -0.0000 0.8660 0.5000
vt 0.687571 0.706608
vt 0.705038 0.665667
vt 0.135809 0.103636
vt 0.135734 0.102994
vt 0.163231 0.098260
vt 0.163305 0.098902
vt 0.690029 0.616579
vt 0.706608 0.657931
vt 0.688459 0.878809
vt 0.705038 0.920161
vt 0.261338 0.092857
vt 0.288924 0.096711
vt 0.288863 0.097355
vt 0.261277 0.093501
vt 0.002779 1.468655
vt 0.002810 1.437353
vt 0.689141 0.571567
vt 0.706608 0.530626
vt 1.393140 1.432057
vt 1.393172 1.400755
vt 1.394373 1.400757
vt 1.394341 1.432059
vt 1.231068 0.144798
vt 1.230548 0.166445
vt 1.182803 0.165051
vt 1.183323 0.143404
vt 0.320329 0.003140
vt 0.300693 0.003140
vt 0.300693 0.002223
vt 0.320329 0.002224
vt 0.522897 1.430967
vt 0.522929 1.399665
vt 1.243630 1.024133
vt 1.195885 1.022739
vt 1.195365 1.044386
vt 1.243110 1.045780
vt 0.000932 0.478923
vt 0.954706 0.473021
vt 0.954531 0.438714
vt 0.000757 0.444617
vt 0.000932 0.515039
vt 0.000757 0.480733
vt 0.954531 0.474830
vt 0.954706 0.509137
vt 0.020037 0.517528
vt 0.002570 0.558470
vt 0.001000 0.693511
vt 0.018467 0.652569
vt 0.016798 0.912752
vt 0.000219 0.871400
vt 0.001789 0.609170
vt 0.018368 0.650522
vt 0.873021 1.469745
vt 0.873053 1.438443
s 1
usemtl wood
f 1/1/1 18/1/1 20/2/1 4/2/1
f 2/3/2 12/4/2 5/5/2 3/6/2
f 16/7/3 21/7/1 23/8/1 15/8/3
f 7/9/1 8/10/1 19/10/1 17/9/1
f 10/11/4 9/12/4 11/13/4 14/14/4
f 13/15/3 22/15/1 21/16/1 16/16/3
f 13/17/3 6/18/3 24/18/1 22/17/1
f 2/19/5 10/20/5 14/21/5 12/22/5
f 4/23/6 8/24/6 7/25/6 1/26/6
f 5/27/7 11/28/7 9/29/7 3/30/7
f 1/31/1 7/32/1 17/32/1 18/31/1
f 6/33/3 13/34/3 16/35/3 15/36/3
f 5/37/8 24/38/8 23/39/8 11/40/8
f 3/41/9 9/42/9 19/43/9 20/44/9
f 24/18/2 5/45/2 12/46/2 22/17/2
f 24/38/1 6/38/3 15/39/3 23/39/1
f 20/2/2 18/1/2 2/47/2 3/48/2
f 20/44/1 19/43/1 8/43/1 4/44/1
f 17/9/4 19/10/4 9/49/4 10/50/4
f 18/31/10 17/32/10 10/20/10 2/19/10
f 21/7/4 14/51/4 11/52/4 23/8/4
f 22/15/11 12/53/11 14/54/11 21/16/11
