# Blender 4.0.2
# www.blender.org
mtllib zadeldak_beam_2500.mtl
o zadeldak_beam_2500
v -0.000240 0.147435 -1.491005
v -0.000240 1.007762 -0.000891
v -0.000240 0.907762 -0.000891
v -0.000240 0.047435 -1.491005
v -0.000240 0.907762 0.000849
v -0.000240 0.047434 1.491006
v -0.100240 0.147435 -1.491005
v -0.100240 0.047435 -1.491005
v -0.100240 0.907762 -0.000891
v -0.100240 1.007762 -0.000891
v -0.100240 0.907762 0.000849
v -0.000240 0.147434 1.491006
v -0.000240 1.007762 0.000891
v -0.100240 0.147434 1.491006
v -0.100240 0.047434 1.491006
v -0.100240 1.007762 0.000891
vn 1.0000 -0.0000 -0.0000
vn -0.0000 0.8660 0.5000
vn -1.0000 -0.0000 -0.0000
vn -0.0000 1.0000 -0.0000
vn -0.0000 -0.0000 -1.0000
vn -0.0000 -1.0000 -0.0000
vn -0.0000 0.8660 -0.5000
vn -0.0000 -0.8660 -0.5000
vn -0.0000 -0.0000 1.0000
vn -0.0000 -0.8660 0.5000
vt 1.308097 0.094214
vt 0.822677 0.084953
vt 0.839863 0.044670
vt 1.325283 0.053931
vt 0.000307 0.100495
vt 0.000223 0.099769
vt 0.031320 0.094415
vt 0.031405 0.095141
vt 0.933116 1.327641
vt 1.557646 1.328423
vt 1.557678 1.297162
vt 0.933148 1.296379
vt 1.440871 1.168397
vt 1.457183 1.209085
vt 0.970584 1.203846
vt 0.954271 1.163159
vt 0.075576 0.098548
vt 0.106776 0.102907
vt 0.106707 0.103636
vt 0.075507 0.099276
vt 1.352061 0.832227
vt 1.369249 0.791944
vt 0.883827 0.782684
vt 0.866641 0.822967
vt 1.434588 0.408401
vt 0.947988 0.403163
vt 0.964301 0.443850
vt 1.450902 0.449089
vt 0.626864 1.507429
vt 0.626896 1.476168
vt 0.628096 1.476170
vt 0.628064 1.507431
vt 1.092887 1.011876
vt 1.092299 1.036358
vt 1.038301 1.034782
vt 1.038889 1.010300
vt 0.295205 0.251238
vt 0.272997 0.251238
vt 0.272997 0.250201
vt 0.295205 0.250202
vt 0.002334 1.506647
vt 0.002366 1.475385
vt 0.644661 1.507431
vt 1.319002 1.503258
vt 1.318830 1.469502
vt 0.644489 1.473676
vt 0.844789 1.087248
vt 0.790791 1.085672
vt 0.790203 1.110154
vt 0.844201 1.111730
vt 0.833092 0.040826
vt 0.832920 0.007072
vt 1.507259 0.002898
vt 1.507431 0.036653
s 1
usemtl wood
f 1/1/1 2/2/1 3/3/1 4/4/1
f 2/5/1 13/6/1 5/7/1 3/8/1
f 12/9/2 13/10/2 16/11/2 14/12/2
f 7/13/3 8/14/3 9/15/3 10/16/3
f 10/17/3 9/18/3 11/19/3 16/20/3
f 12/21/1 6/22/1 5/23/1 13/24/1
f 14/25/3 16/26/3 11/27/3 15/28/3
f 2/29/4 10/30/4 16/31/4 13/32/4
f 4/33/5 8/34/5 7/35/5 1/36/5
f 5/37/6 11/38/6 9/39/6 3/40/6
f 1/41/7 7/42/7 10/30/7 2/29/7
f 5/43/8 6/44/8 15/45/8 11/46/8
f 6/47/9 12/48/9 14/49/9 15/50/9
f 3/51/10 9/52/10 8/53/10 4/54/10
