# Blender 4.0.2
# www.blender.org
mtllib zadeldak_beam_5000.mtl
o zadeldak_beam_5000
v -0.000240 0.147193 -2.740844
v -0.000240 1.729114 -0.000901
v -0.000240 1.629114 -0.000901
v -0.000240 0.047193 -2.740844
v -0.000240 1.629114 0.000839
v -0.000240 0.047193 2.740844
v -0.100240 0.147193 -2.740844
v -0.100240 0.047193 -2.740844
v -0.100240 1.629114 -0.000901
v -0.100240 1.729114 -0.000901
v -0.100240 1.629114 0.000839
v -0.000240 1.729114 0.000901
v -0.000240 0.147193 2.740844
v -0.100240 1.729114 0.000901
v -0.100240 0.047193 2.740844
v -0.100240 0.147193 2.740844
v -0.100240 0.147193 -2.740844
v -0.000240 0.147193 -2.740844
v -0.100240 0.047193 -2.740844
v -0.000240 0.047193 -2.740844
v -0.100240 0.147193 2.740844
v -0.000240 0.147193 2.740844
v -0.100240 0.047193 2.740844
v -0.000240 0.047193 2.740844
vn -0.0000 -0.0000 -0.0000
vn 1.0000 -0.0000 -0.0000
vn -0.0000 0.8944 0.4472
vn -1.0000 -0.0000 -0.0000
vn -0.0000 1.0000 -0.0000
vn -0.0000 -0.0000 -1.0000
vn -0.0000 -1.0000 -0.0000
vn -0.0000 -0.8660 -0.5000
vn -0.0000 -0.8660 0.5000
vn -0.0000 0.8660 -0.5000
vn -0.0000 0.8660 0.5000
vt 0.441125 0.558446
vt 0.458592 0.517505
vt -0.164510 0.682956
vt -0.164585 0.682314
vt -0.137088 0.677580
vt -0.137014 0.678222
vt 0.442841 0.570294
vt 0.459420 0.611646
vt -0.120116 0.677313
vt -0.092530 0.681167
vt -0.092591 0.681811
vt -0.120177 0.677957
vt -0.546680 0.502495
vt -0.546648 0.471193
vt 0.323563 0.503585
vt 0.323595 0.472283
vt 0.324796 0.472285
vt 0.324764 0.503587
vt -0.207840 0.679598
vt -0.208360 0.701245
vt -0.256105 0.699851
vt -0.255585 0.678204
vt -0.063105 0.676921
vt -0.082741 0.676921
vt -0.082741 0.676004
vt -0.063105 0.676005
vt -0.407030 0.681542
vt 0.546744 0.675640
vt 0.546569 0.641333
vt -0.407205 0.647236
vt -0.227979 0.504407
vt -0.245446 0.545349
vt -0.228820 0.604237
vt -0.245399 0.562885
s 1
f 1/1/1 18/1/1 20/2/1 4/2/1
f 2/3/2 12/4/2 5/5/2 3/6/2
f 16/7/3 21/7/1 23/8/1 15/8/3
f 7/7/1 8/8/1 19/8/1 17/7/1
f 10/9/4 9/10/4 11/11/4 14/12/4
f 13/13/3 22/13/1 21/14/1 16/14/3
f 13/1/3 6/2/3 24/2/1 22/1/1
f 2/15/5 10/16/5 14/17/5 12/18/5
f 4/19/6 8/20/6 7/21/6 1/22/6
f 5/23/7 11/24/7 9/25/7 3/26/7
f 1/13/1 7/14/1 17/14/1 18/13/1
f 6/19/3 13/22/3 16/21/3 15/20/3
f 5/27/8 24/28/8 23/29/8 11/30/8
f 3/27/9 9/30/9 19/29/9 20/28/9
f 24/2/2 5/31/2 12/32/2 22/1/2
f 24/28/1 6/28/3 15/29/3 23/29/1
f 20/2/2 18/1/2 2/32/2 3/31/2
f 20/28/1 19/29/1 8/29/1 4/28/1
f 17/7/4 19/8/4 9/33/4 10/34/4
f 18/13/10 17/14/10 10/16/10 2/15/10
f 21/7/4 14/34/4 11/33/4 23/8/4
f 22/13/11 12/15/11 14/16/11 21/14/11
