# Blender 4.0.2
# www.blender.org
mtllib zadeldak_beam_3000.mtl
o zadeldak_beam_3000
v -0.000240 0.147427 -1.741005
v -0.000240 1.152092 -0.000891
v -0.000240 1.052092 -0.000891
v -0.000240 0.047427 -1.741005
v -0.000240 1.052092 0.000849
v -0.000240 0.047427 1.741005
v -0.100240 0.147427 -1.741005
v -0.100240 0.047427 -1.741005
v -0.100240 1.052092 -0.000891
v -0.100240 1.152092 -0.000891
v -0.100240 1.052092 0.000849
v -0.000240 0.147427 1.741005
v -0.000240 1.152092 0.000891
v -0.100240 0.147427 1.741005
v -0.100240 0.047427 1.741005
v -0.100240 1.152092 0.000891
vn 1.0000 -0.0000 -0.0000
vn -0.0000 0.8660 0.5000
vn -1.0000 -0.0000 -0.0000
vn -0.0000 1.0000 -0.0000
vn -0.0000 -0.0000 -1.0000
vn -0.0000 -1.0000 -0.0000
vn -0.0000 0.8660 -0.5000
vn -0.0000 -0.8660 -0.5000
vn -0.0000 -0.0000 1.0000
vn -0.0000 -0.8660 0.5000
vt 0.325516 0.555909
vt -0.241344 0.545095
vt -0.224158 0.504812
vt 0.342702 0.515626
vt -0.166306 0.683308
vt -0.166390 0.682582
vt -0.135293 0.677228
vt -0.135208 0.677954
vt -0.405390 0.502652
vt 0.323918 0.503565
vt 0.323950 0.472304
vt -0.405358 0.471390
vt 0.326943 0.569377
vt 0.343255 0.610065
vt -0.224982 0.603947
vt -0.241295 0.563260
vt -0.121919 0.677018
vt -0.090719 0.681377
vt -0.090788 0.682106
vt -0.121988 0.677746
vt 0.325150 0.472306
vt 0.325118 0.503567
vt -0.322036 0.674845
vt -0.322624 0.699327
vt -0.376622 0.697751
vt -0.376034 0.673269
vt -0.061819 0.676981
vt -0.084027 0.676981
vt -0.084027 0.675944
vt -0.061819 0.675945
vt -0.401529 0.681232
vt 0.385945 0.676359
vt 0.385773 0.642604
vt -0.401701 0.647478
s 1
f 1/1/1 2/2/1 3/3/1 4/4/1
f 2/5/1 13/6/1 5/7/1 3/8/1
f 12/9/2 13/10/2 16/11/2 14/12/2
f 7/13/3 8/14/3 9/15/3 10/16/3
f 10/17/3 9/18/3 11/19/3 16/20/3
f 12/1/1 6/4/1 5/3/1 13/2/1
f 14/13/3 16/16/3 11/15/3 15/14/3
f 2/10/4 10/11/4 16/21/4 13/22/4
f 4/23/5 8/24/5 7/25/5 1/26/5
f 5/27/6 11/28/6 9/29/6 3/30/6
f 1/9/7 7/12/7 10/11/7 2/10/7
f 5/31/8 6/32/8 15/33/8 11/34/8
f 6/23/9 12/26/9 14/25/9 15/24/9
f 3/31/10 9/34/10 8/33/10 4/32/10
