# Blender 4.0.2
# www.blender.org
mtllib zadeldak_beam_4000.mtl
o zadeldak_beam_4000
v -0.000240 0.147519 -2.240844
v -0.000240 1.440762 -0.000901
v -0.000240 1.340762 -0.000901
v -0.000240 0.047519 -2.240844
v -0.000240 1.340762 0.000839
v -0.000240 0.047519 2.240844
v -0.100240 0.147519 -2.240844
v -0.100240 0.047519 -2.240844
v -0.100240 1.340762 -0.000901
v -0.100240 1.440762 -0.000901
v -0.100240 1.340762 0.000839
v -0.000240 1.440762 0.000901
v -0.000240 0.147519 2.240844
v -0.100240 0.147519 2.240844
v -0.100240 0.047519 2.240844
v -0.100240 1.440762 0.000901
vn 1.0000 -0.0000 -0.0000
vn -0.0000 0.8660 0.5000
vn -1.0000 -0.0000 -0.0000
vn -0.0000 1.0000 -0.0000
vn -0.0000 -0.0000 -1.0000
vn -0.0000 -1.0000 -0.0000
vn -0.0000 0.8660 -0.5000
vn -0.0000 -0.8660 -0.5000
vn -0.0000 -0.0000 1.0000
vn -0.0000 -0.8660 0.5000
vt 1.257568 0.574708
vt 0.696286 0.564001
vt 0.713753 0.523059
vt 1.275035 0.533767
vt 0.116966 0.103636
vt 0.116891 0.102994
vt 0.144388 0.098260
vt 0.144462 0.098902
vt 0.717451 1.619597
vt 1.428887 1.620488
vt 1.428919 1.589186
vt 0.717483 1.588295
vt 1.321266 0.580463
vt 1.337845 0.621815
vt 0.775199 0.615758
vt 0.758620 0.574406
vt 0.211091 0.092857
vt 0.238677 0.096711
vt 0.238615 0.097355
vt 0.211029 0.093501
vt 1.270130 0.672063
vt 1.287597 0.631122
vt 0.726315 0.620414
vt 0.708848 0.661356
vt 1.321266 0.731206
vt 0.758620 0.725149
vt 0.775199 0.766501
vt 1.337845 0.772558
vt 0.711656 1.620486
vt 0.711688 1.589184
vt 0.712889 1.589186
vt 0.712857 1.620488
vt 1.143135 1.017852
vt 1.142615 1.039499
vt 1.094870 1.038105
vt 1.095390 1.016458
vt 0.276362 0.100495
vt 0.256726 0.100495
vt 0.256726 0.099578
vt 0.276362 0.099579
vt 0.000220 1.619595
vt 0.000252 1.588293
vt 0.002256 1.362968
vt 0.781980 1.358143
vt 0.781805 1.323836
vt 0.002081 1.328662
vt 1.168259 1.096364
vt 1.120514 1.094970
vt 1.119994 1.116617
vt 1.167739 1.118011
vt 0.002256 1.400654
vt 0.002081 1.366348
vt 0.781805 1.361522
vt 0.781980 1.395829
s 1
usemtl wood
f 1/1/1 2/2/1 3/3/1 4/4/1
f 2/5/1 12/6/1 5/7/1 3/8/1
f 13/9/2 12/10/2 16/11/2 14/12/2
f 7/13/3 8/14/3 9/15/3 10/16/3
f 10/17/3 9/18/3 11/19/3 16/20/3
f 13/21/1 6/22/1 5/23/1 12/24/1
f 14/25/3 16/26/3 11/27/3 15/28/3
f 2/29/4 10/30/4 16/31/4 12/32/4
f 4/33/5 8/34/5 7/35/5 1/36/5
f 5/37/6 11/38/6 9/39/6 3/40/6
f 1/41/7 7/42/7 10/30/7 2/29/7
f 5/43/8 6/44/8 15/45/8 11/46/8
f 6/47/9 13/48/9 14/49/9 15/50/9
f 3/51/10 9/52/10 8/53/10 4/54/10
