# Blender 4.0.2
# www.blender.org
mtllib zadeldak_beam_2000.mtl
o zadeldak_beam_2000
v -0.000240 0.148294 -1.239529
v -0.000240 0.863432 -0.000891
v -0.000240 0.763432 -0.000891
v -0.000240 0.048294 -1.239529
v -0.000240 0.763432 0.000849
v -0.000240 0.047710 1.240540
v -0.100240 0.148294 -1.239529
v -0.100240 0.048294 -1.239529
v -0.100240 0.763432 -0.000891
v -0.100240 0.863432 -0.000891
v -0.100240 0.763432 0.000849
v -0.000240 0.147711 1.240540
v -0.000240 0.863432 0.000891
v -0.100240 0.147711 1.240540
v -0.100240 0.047710 1.240540
v -0.100240 0.863432 0.000891
vn 1.0000 -0.0000 -0.0000
vn -0.0000 0.8660 0.5000
vn -1.0000 -0.0000 -0.0000
vn -0.0000 1.0000 -0.0000
vn -0.0000 -0.0000 -1.0000
vn -0.0000 -1.0000 -0.0000
vn -0.0000 0.8660 -0.5000
vn -0.0000 -0.8660 -0.5000
vn -0.0000 -0.0000 1.0000
vn -0.0000 -0.8660 0.5000
vt 0.162155 0.552793
vt -0.241344 0.545095
vt -0.224158 0.504812
vt 0.179341 0.512510
vt -0.166306 0.683308
vt -0.166390 0.682582
vt -0.135293 0.677228
vt -0.135208 0.677954
vt -0.195638 0.502915
vt 0.323918 0.503565
vt 0.323950 0.472304
vt -0.195606 0.471653
vt 0.163185 0.567614
vt 0.179498 0.608302
vt -0.224982 0.603947
vt -0.241295 0.563260
vt -0.121919 0.677018
vt -0.090719 0.681377
vt -0.090788 0.682106
vt -0.121988 0.677746
vt 0.162485 0.552799
vt 0.179674 0.512518
vt 0.163516 0.567618
vt 0.179831 0.608304
vt 0.325150 0.472306
vt 0.325118 0.503567
vt -0.478375 0.670282
vt -0.478963 0.694764
vt -0.532961 0.693188
vt -0.532373 0.668706
vt -0.061819 0.676981
vt -0.084027 0.676981
vt -0.084027 0.675944
vt -0.061819 0.675945
vt -0.195214 0.502915
vt -0.195182 0.471653
vt -0.401529 0.681232
vt 0.159468 0.677760
vt 0.159296 0.644006
vt -0.401701 0.647478
vt -0.478060 0.670291
vt -0.532058 0.668715
vt -0.532646 0.693197
vt -0.478648 0.694773
vt 0.158835 0.644009
vt 0.159007 0.677763
s 1
f 1/1/1 2/2/1 3/3/1 4/4/1
f 2/5/1 13/6/1 5/7/1 3/8/1
f 12/9/2 13/10/2 16/11/2 14/12/2
f 7/13/3 8/14/3 9/15/3 10/16/3
f 10/17/3 9/18/3 11/19/3 16/20/3
f 12/21/1 6/22/1 5/3/1 13/2/1
f 14/23/3 16/16/3 11/15/3 15/24/3
f 2/10/4 10/11/4 16/25/4 13/26/4
f 4/27/5 8/28/5 7/29/5 1/30/5
f 5/31/6 11/32/6 9/33/6 3/34/6
f 1/35/7 7/36/7 10/11/7 2/10/7
f 5/37/8 6/38/8 15/39/8 11/40/8
f 6/41/9 12/42/9 14/43/9 15/44/9
f 3/37/10 9/40/10 8/45/10 4/46/10
