# Blender 4.0.2
# www.blender.org
mtllib roof_tri_window_6000.mtl
o roof_tri_window_6000
v 0.004000 0.202571 2.755799
v -0.000000 0.204000 2.747873
v 0.004000 0.200000 2.754863
v 0.004000 2.426383 0.105564
v 0.004000 2.424954 0.102500
v -0.000000 2.420376 0.106500
v 0.004000 0.204000 0.102500
v 0.004000 0.200000 0.106500
v -0.000000 0.204000 0.106500
v 0.004000 0.242571 2.645900
v 0.004000 0.240000 2.644964
v -0.000000 0.236000 2.659954
v 0.004000 2.340603 0.145564
v -0.000000 2.351752 0.138500
v 0.004000 2.339174 0.142500
v 0.004000 0.244000 0.142500
v -0.000000 0.236000 0.138500
v 0.004000 0.240000 0.146500
v 0.030000 0.242571 2.645900
v 0.030000 0.240000 2.644964
v 0.030000 2.339174 0.142500
v 0.030000 2.340603 0.145564
v 0.030000 0.240000 0.146500
v 0.030000 0.244000 0.142500
v 0.056000 0.202571 2.755799
v 0.056000 0.200000 2.754863
v 0.060000 0.204000 2.747873
v 0.056000 2.426383 0.105564
v 0.060000 2.420376 0.106500
v 0.056000 2.424954 0.102500
v 0.056000 0.204000 0.102500
v 0.060000 0.204000 0.106500
v 0.056000 0.200000 0.106500
v 0.056000 0.242571 2.645900
v 0.060000 0.236000 2.659954
v 0.056000 0.240000 2.644964
v 0.056000 2.340603 0.145564
v 0.056000 2.339174 0.142500
v 0.060000 2.351752 0.138500
v 0.056000 0.244000 0.142500
v 0.056000 0.240000 0.146500
v 0.060000 0.236000 0.138500
v 0.056000 0.202571 -2.755799
v 0.060000 0.204000 -2.747873
v 0.056000 0.200000 -2.754863
v 0.056000 2.426383 -0.105564
v 0.056000 2.424954 -0.102500
v 0.060000 2.420376 -0.106500
v 0.056000 0.204000 -0.102500
v 0.056000 0.200000 -0.106500
v 0.060000 0.204000 -0.106500
v 0.056000 0.242571 -2.645900
v 0.056000 0.240000 -2.644964
v 0.060000 0.236000 -2.659954
v 0.056000 2.340603 -0.145564
v 0.060000 2.351752 -0.138500
v 0.056000 2.339174 -0.142500
v 0.056000 0.244000 -0.142500
v 0.060000 0.236000 -0.138500
v 0.056000 0.240000 -0.146500
v 0.030000 0.242571 -2.645900
v 0.030000 0.240000 -2.644964
v 0.030000 2.339174 -0.142500
v 0.030000 2.340603 -0.145564
v 0.030000 0.240000 -0.146500
v 0.030000 0.244000 -0.142500
v 0.004000 0.202571 -2.755799
v 0.004000 0.200000 -2.754863
v 0.000000 0.204000 -2.747873
v 0.004000 2.426383 -0.105564
v 0.000000 2.420376 -0.106500
v 0.004000 2.424954 -0.102500
v 0.004000 0.204000 -0.102500
v -0.000000 0.204000 -0.106500
v 0.004000 0.200000 -0.106500
v 0.004000 0.242571 -2.645900
v 0.000000 0.236000 -2.659954
v 0.004000 0.240000 -2.644964
v 0.004000 2.340603 -0.145564
v 0.004000 2.339174 -0.142500
v 0.000000 2.351752 -0.138500
v 0.004000 0.244000 -0.142500
v 0.004000 0.240000 -0.146500
v 0.000000 0.236000 -0.138500
vn -0.0000 -0.0000 1.0000
vn -0.0000 -1.0000 -0.0000
vn -0.0000 -0.7660 -0.6428
vn -0.0000 -0.0000 -1.0000
vn -0.0000 1.0000 -0.0000
vn -1.0000 -0.0000 -0.0000
vn 1.0000 -0.0000 -0.0000
vn -0.0000 0.7660 -0.6428
vn -0.0000 -0.7660 0.6428
vn -0.8930 -0.1540 0.4229
vn -0.8250 0.5122 -0.2388
vn -0.5773 -0.5774 -0.5773
vn -0.9681 0.0857 -0.2355
vn -0.9563 -0.2649 0.1235
vn -0.9045 0.3015 0.3015
vn 0.8930 -0.1539 0.4229
vn 0.8250 0.5122 -0.2388
vn 0.5773 -0.5774 -0.5773
vn 0.9681 0.0857 -0.2355
vn 0.9563 -0.2649 0.1235
vn 0.9045 0.3015 0.3015
vn 0.8930 -0.1539 -0.4229
vn 0.8250 0.5122 0.2388
vn 0.5773 -0.5774 0.5773
vn 0.9681 0.0857 0.2355
vn 0.9563 -0.2649 -0.1235
vn 0.9045 0.3015 -0.3015
vn -0.8930 -0.1539 -0.4229
vn -0.8250 0.5122 0.2388
vn -0.5774 -0.5774 0.5773
vn -0.9681 0.0857 0.2355
vn -0.9563 -0.2649 -0.1235
vn -0.9045 0.3015 -0.3015
vn -0.7071 -0.5417 -0.4545
vn -0.7071 -0.0000 0.7071
vn -0.7071 0.7071 -0.0000
vn -0.7071 0.5417 0.4545
vn -0.7071 -0.0000 -0.7071
vn -0.7071 -0.7071 -0.0000
vn -0.0000 0.7071 0.7071
vn -0.0000 0.3420 -0.9397
vn -0.0000 -0.9063 0.4226
vn 0.7071 -0.5417 -0.4545
vn 0.7071 -0.0000 0.7071
vn 0.7071 0.7071 -0.0000
vn 0.7071 0.5417 0.4545
vn 0.7071 -0.0000 -0.7071
vn 0.7071 -0.7071 -0.0000
vn -0.0000 -0.7071 -0.7071
vn -0.0000 -0.3421 0.9396
vn -0.0000 0.9063 -0.4226
vn 0.7071 -0.5417 0.4545
vn 0.7071 0.5417 -0.4545
vn -0.0000 0.7071 -0.7071
vn -0.0000 0.3420 0.9397
vn -0.0000 -0.9063 -0.4226
vn -0.7071 -0.5417 0.4545
vn -0.7071 0.5417 -0.4545
vn -0.0000 -0.7071 0.7071
vn -0.0000 -0.3420 -0.9397
vn -0.0000 0.9063 0.4226
vn -0.0000 0.7660 0.6428
vt 0.358165 0.192957
vt 0.358165 0.178341
vt 1.535986 0.178341
vt 1.535986 0.192957
vt 0.016572 0.836670
vt 1.505373 0.836669
vt 1.505373 0.865901
vt 0.016572 0.865902
vt 0.030195 0.228916
vt 0.030195 0.214300
vt 1.387800 0.214300
vt 1.387800 0.228916
vt 1.604480 0.264875
vt 0.355950 0.264875
vt 0.355950 0.235642
vt 1.604480 0.235642
vt 0.030195 0.199684
vt 1.387799 0.199683
vt 1.387800 0.214300
vt 0.030195 0.214300
vt 1.421469 0.872628
vt 1.421469 0.887244
vt 0.016935 0.887245
vt 0.016935 0.872628
vt 0.630092 0.955790
vt 0.648081 0.973779
vt -0.836791 0.973779
vt -0.787367 0.955789
vt 1.566753 0.124955
vt 1.605331 0.142944
vt 0.359374 0.142944
vt 0.377364 0.124955
vt 0.358165 0.163724
vt 1.535986 0.163724
vt 1.535986 0.178341
vt 0.358165 0.178341
vt 0.630092 0.997751
vt -0.787367 0.997751
vt -0.836791 0.979762
vt 0.648081 0.979762
vt 1.149860 0.829943
vt -0.297882 0.829943
vt -0.297882 0.800711
vt 1.149860 0.800711
vt 1.566752 0.302901
vt 0.377363 0.302901
vt 0.359374 0.284912
vt 1.605330 0.284912
vt -0.589143 1.449884
vt 1.261217 1.449885
vt 1.299794 1.467875
vt -0.638567 1.467874
vt 1.421469 0.901860
vt 0.016935 0.901861
vt 0.016935 0.887245
vt 1.421469 0.887244
vt -0.589140 0.407792
vt -0.638564 0.389803
vt 1.299811 0.389802
vt 1.261232 0.407791
vt 0.358165 0.192957
vt 1.535986 0.192957
vt 1.505373 0.865901
vt 0.016572 0.865902
vt 0.030195 0.228916
vt 1.387800 0.214300
vt 0.030195 0.199684
vt 1.387800 0.199683
vt 1.421469 0.872628
vt 0.016935 0.872628
vt 0.648081 0.973779
vt 1.535986 0.163724
vt 0.648081 0.979762
vt 0.359374 0.284912
vt 1.299794 1.467875
vt 1.421469 0.901860
vt -0.642493 0.387555
vt -0.642757 0.388278
vt 1.605283 0.235642
vt 1.601906 0.233394
vt 0.014323 0.865902
vt 0.016572 0.868151
vt 1.421996 0.872628
vt 1.423718 0.870380
vt 0.028532 0.231164
vt 0.029601 0.228916
vt 0.381861 0.122706
vt 0.377363 0.124955
vt 0.379612 0.122706
vt 1.505899 0.836669
vt 1.501444 0.834421
vt 1.302368 1.470123
vt 1.302770 1.469262
vt 0.355950 0.267123
vt 0.353701 0.264875
vt 1.389463 0.197435
vt 1.388189 0.199683
vt 1.536789 0.163724
vt 1.538235 0.161476
vt 0.014687 0.901861
vt 0.014687 0.904110
vt 1.605283 0.235642
vt 1.421996 0.872628
vt 1.254161 0.410040
vt 1.254964 0.410040
vt 1.505899 0.836669
vt 1.302368 1.470123
vt 0.353701 0.264875
vt 1.388188 0.199683
vt 1.536789 0.163724
vt 0.014687 0.901861
vt 1.389463 0.231164
vt 0.381861 0.122706
vt 1.559682 0.122706
vt 0.014686 0.870380
vt -0.642493 0.387555
vt 1.302385 0.387554
vt 1.607905 0.145192
vt 0.359374 0.145193
vt 1.501444 0.868150
vt 0.014686 0.887245
vt 0.014686 0.872628
vt 1.423718 0.872628
vt 1.423718 0.887244
vt 1.538235 0.178341
vt 1.538235 0.192957
vt 0.028532 0.197435
vt 0.355916 0.161476
vt 1.423718 0.904109
vt -0.642497 1.470123
vt 1.601906 0.267123
vt 0.016572 0.834421
vt 0.014686 0.887245
vt 1.423718 0.901860
vt 1.538235 0.163724
vt 1.538235 0.178341
vt 0.014323 0.836670
vt 1.507622 0.836669
vt 1.507622 0.865902
vt 1.606728 0.235642
vt 1.606728 0.264875
vt -0.580713 0.410041
vt 0.648081 0.976027
vt -0.840721 0.976027
vt 1.423718 0.872628
vt 1.538235 0.192957
vt 1.423718 0.901860
vt 1.538235 0.163724
vt 0.014323 0.836670
vt 1.507622 0.836669
vt 1.507622 0.865901
vt 1.606728 0.235642
vt 1.149860 0.829943
vt -0.297882 0.829943
vt -0.297882 0.800711
s 0
usemtl white
f 16/1/1 24/2/1 21/3/1 15/4/1
f 33/5/2 26/6/2 3/7/2 8/8/2
f 13/9/3 22/10/3 19/11/3 10/12/3
f 30/13/4 31/14/4 7/15/4 5/16/4
f 37/17/3 34/18/3 19/19/3 22/20/3
f 11/21/5 20/22/5 23/23/5 18/24/5
f 17/25/6 9/26/6 2/27/6 12/28/6
f 14/29/6 6/30/6 9/31/6 17/32/6
f 40/33/1 38/34/1 21/35/1 24/36/1
f 42/37/7 35/38/7 27/39/7 32/40/7
f 67/41/8 70/42/8 46/43/8 43/44/8
f 39/45/7 42/46/7 32/47/7 29/48/7
f 35/49/7 39/50/7 29/51/7 27/52/7
f 36/53/5 41/54/5 23/55/5 20/56/5
f 12/57/6 2/58/6 6/59/6 14/60/6
f 58/61/4 66/2/4 63/3/4 57/62/4
f 75/5/2 68/6/2 45/63/2 50/64/2
f 55/65/9 64/10/9 61/66/9 52/12/9
f 72/13/1 73/14/1 49/15/1 47/16/1
f 79/67/9 76/68/9 61/19/9 64/20/9
f 53/69/5 62/22/5 65/23/5 60/70/5
f 59/25/7 51/71/7 44/27/7 54/28/7
f 56/29/7 48/30/7 51/31/7 59/32/7
f 82/33/4 80/72/4 63/35/4 66/36/4
f 84/37/6 77/38/6 69/39/6 74/73/6
f 81/45/6 84/46/6 74/74/6 71/48/6
f 77/49/6 81/50/6 71/75/6 69/52/6
f 78/76/5 83/54/5 65/55/5 62/56/5
f 54/57/7 44/58/7 48/59/7 56/60/7
f 1/77/10 2/58/10 3/78/10
f 4/79/11 5/16/11 6/80/11
f 7/81/12 8/8/12 9/82/12
f 10/83/13 11/21/13 12/84/13
f 13/9/14 14/85/14 15/86/14
f 16/87/15 17/88/15 18/89/15
f 25/90/16 26/6/16 27/91/16
f 28/92/17 29/75/17 30/93/17
f 31/14/18 32/94/18 33/95/18
f 34/18/19 35/96/19 36/97/19
f 37/98/20 38/34/20 39/99/20
f 40/100/21 41/54/21 42/101/21
f 43/77/22 44/58/22 45/78/22
f 46/102/23 47/16/23 48/80/23
f 49/81/24 50/64/24 51/82/24
f 52/103/25 53/69/25 54/84/25
f 55/104/26 56/60/26 57/105/26
f 58/87/27 59/88/27 60/89/27
f 67/106/28 68/6/28 69/91/28
f 70/107/29 71/51/29 72/93/29
f 73/14/30 74/94/30 75/108/30
f 76/68/31 77/96/31 78/109/31
f 79/110/32 80/72/32 81/99/32
f 82/111/33 83/54/33 84/101/33
f 12/112/34 14/85/34 13/9/34 10/12/34
f 14/29/35 17/32/35 16/113/35 15/114/35
f 17/115/36 12/84/36 11/21/36 18/24/36
f 1/116/37 4/117/37 6/59/37 2/58/37
f 5/118/38 7/119/38 9/31/38 6/30/38
f 8/8/39 3/7/39 2/120/39 9/82/39
f 18/24/40 23/23/40 24/121/40 16/122/40
f 20/22/41 11/21/41 10/123/41 19/124/41
f 15/4/42 21/3/42 22/125/42 13/126/42
f 34/18/43 37/17/43 39/127/43 35/96/43
f 38/34/44 40/33/44 42/128/44 39/99/44
f 41/54/45 36/53/45 35/129/45 42/101/45
f 27/52/46 29/51/46 28/92/46 25/130/46
f 29/131/47 32/94/47 31/14/47 30/13/47
f 32/132/48 27/91/48 26/6/48 33/5/48
f 40/100/40 24/133/40 23/55/40 41/54/40
f 19/124/41 34/134/41 36/53/41 20/56/41
f 37/135/42 22/136/42 21/35/42 38/34/42
f 7/81/49 31/137/49 33/5/49 8/8/49
f 25/138/50 1/139/50 3/7/50 26/6/50
f 4/140/51 28/141/51 30/13/51 5/16/51
f 54/57/52 56/60/52 55/104/52 52/142/52
f 56/29/47 59/32/47 58/113/47 57/114/47
f 59/115/45 54/84/45 53/69/45 60/70/45
f 43/116/53 46/117/53 48/59/53 44/58/53
f 47/118/44 49/119/44 51/31/44 48/30/44
f 50/143/48 45/144/48 44/27/48 51/71/48
f 60/70/54 65/23/54 66/121/54 58/122/54
f 62/22/55 53/69/55 52/145/55 61/124/55
f 57/62/56 63/3/56 64/125/56 55/146/56
f 76/68/57 79/67/57 81/127/57 77/96/57
f 80/72/38 82/33/38 84/128/38 81/99/38
f 83/54/36 78/76/36 77/129/36 84/101/36
f 69/52/58 71/75/58 70/107/58 67/130/58
f 71/131/35 74/94/35 73/14/35 72/13/35
f 74/132/39 69/91/39 68/6/39 75/5/39
f 82/111/54 66/133/54 65/55/54 83/54/54
f 61/124/55 76/147/55 78/76/55 62/56/55
f 79/148/56 64/136/56 63/35/56 80/72/56
f 49/81/59 73/149/59 75/5/59 50/64/59
f 67/150/60 43/151/60 45/63/60 68/6/60
f 46/152/61 70/141/61 72/13/61 47/16/61
f 25/153/62 28/154/62 4/155/62 1/44/62
