# Blender 4.0.2
# www.blender.org
mtllib roof_tri_window_6000_glass.mtl
o roof_tri_window_6000_glass
v 0.024000 0.242571 2.645900
v 0.020000 0.244000 2.637974
v 0.024000 0.240000 2.644964
v 0.024000 2.340603 0.145564
v 0.024000 2.339174 0.142500
v 0.020000 2.334596 0.146500
v 0.024000 0.244000 0.142500
v 0.024000 0.240000 0.146500
v 0.020000 0.244000 0.146500
v 0.036000 0.242571 2.645900
v 0.036000 0.240000 2.644964
v 0.040000 0.244000 2.637974
v 0.036000 2.340603 0.145564
v 0.040000 2.334596 0.146500
v 0.036000 2.339174 0.142500
v 0.036000 0.244000 0.142500
v 0.040000 0.244000 0.146500
v 0.036000 0.240000 0.146500
v 0.036000 0.242571 -2.645900
v 0.040000 0.244000 -2.637974
v 0.036000 0.240000 -2.644964
v 0.036000 2.340603 -0.145564
v 0.036000 2.339174 -0.142500
v 0.040000 2.334596 -0.146500
v 0.036000 0.244000 -0.142500
v 0.036000 0.240000 -0.146500
v 0.040000 0.244000 -0.146500
v 0.024000 0.242571 -2.645900
v 0.024000 0.240000 -2.644964
v 0.020000 0.244000 -2.637974
v 0.024000 2.340603 -0.145564
v 0.020000 2.334596 -0.146500
v 0.024000 2.339174 -0.142500
v 0.024000 0.244000 -0.142500
v 0.020000 0.244000 -0.146500
v 0.024000 0.240000 -0.146500
vn -0.0000 -1.0000 -0.0000
vn -0.0000 0.7660 -0.6428
vn -0.0000 -0.0000 -1.0000
vn 1.0000 -0.0000 -0.0000
vn -1.0000 -0.0000 -0.0000
vn -0.0000 -0.0000 1.0000
vn -0.8930 -0.1539 0.4229
vn -0.8250 0.5122 -0.2388
vn -0.5773 -0.5773 -0.5774
vn 0.8930 -0.1539 0.4229
vn 0.8250 0.5122 -0.2388
vn 0.5773 -0.5773 -0.5774
vn 0.8930 -0.1539 -0.4229
vn 0.8250 0.5122 0.2388
vn 0.5773 -0.5773 0.5774
vn -0.8930 -0.1539 -0.4229
vn -0.8250 0.5122 0.2388
vn -0.5773 -0.5773 0.5774
vn -0.7071 0.5417 0.4545
vn -0.7071 -0.0000 -0.7071
vn -0.7071 -0.7071 -0.0000
vn 0.7071 0.5417 0.4545
vn 0.7071 -0.0000 -0.7071
vn 0.7071 -0.7071 -0.0000
vn -0.0000 -0.7071 -0.7071
vn -0.0000 -0.3420 0.9397
vn -0.0000 0.9063 -0.4226
vn 0.7071 0.5417 -0.4545
vn 0.7071 -0.0000 0.7071
vn -0.7071 0.5417 -0.4545
vn -0.7071 -0.0000 0.7071
vn -0.0000 -0.7071 0.7071
vn -0.0000 -0.3420 -0.9397
vn -0.0000 0.9063 0.4226
vn -0.0000 0.7660 0.6428
vt 0.819669 -0.547549
vt 0.819669 0.856985
vt 0.812923 0.856985
vt 0.812923 -0.547549
vt 0.799225 1.167355
vt 0.799225 -0.190250
vt 0.805971 -0.190250
vt 0.805970 1.167355
vt 0.297512 0.716929
vt 0.297512 -0.460892
vt 0.304258 -0.460892
vt 0.304258 0.716929
vt 0.002857 1.417540
vt 0.002857 0.016935
vt 1.178105 0.016935
vt 0.400109 -0.089868
vt 1.018702 0.647341
vt 0.400109 0.647341
vt 0.812923 0.856985
vt 0.812923 -0.547549
vt 0.297512 0.716929
vt 0.304258 0.716929
vt 0.399686 -0.092213
vt 0.398926 -0.091936
vt 0.297512 -0.461695
vt 0.295264 -0.458318
vt 0.819669 0.859234
vt 0.821918 0.856985
vt 0.812923 -0.548075
vt 0.810675 -0.543620
vt 1.181481 0.016409
vt 1.180678 0.014686
vt 0.002857 0.014686
vt 0.000608 0.016935
vt 0.297512 -0.461695
vt 0.819669 0.859234
vt 0.812923 -0.548075
vt 1.020479 0.647618
vt 1.020056 0.648525
vt 0.400109 0.648525
vt 0.398926 0.647341
vt 1.181481 0.016409
vt 0.002054 1.421996
vt 0.002857 0.014686
vt 0.810675 0.856985
vt 0.812923 0.859234
vt 0.812923 -0.549798
vt 0.819669 -0.549798
vt 0.297512 -0.463140
vt 0.304258 -0.463140
vt 0.000608 1.421470
vt 0.297512 -0.463140
vt 0.799225 1.167355
vt 0.799225 -0.190250
vt 0.805971 -0.190250
s 0
usemtl glass
f 3/1/1 8/2/1 18/3/1 11/4/1
f 22/5/2 19/6/2 28/7/2 31/8/2
f 7/9/3 5/10/3 15/11/3 16/12/3
f 12/13/4 17/14/4 14/15/4
f 2/16/5 6/17/5 9/18/5
f 21/1/1 26/2/1 36/19/1 29/20/1
f 25/21/6 23/10/6 33/11/6 34/22/6
f 30/13/5 35/14/5 32/15/5
f 20/16/4 24/17/4 27/18/4
f 1/23/7 2/16/7 3/24/7
f 4/25/8 5/10/8 6/26/8
f 7/27/9 8/2/9 9/28/9
f 10/29/10 11/4/10 12/30/10
f 13/31/11 14/15/11 15/32/11
f 16/33/12 17/14/12 18/34/12
f 19/23/13 20/16/13 21/24/13
f 22/35/14 23/10/14 24/26/14
f 25/36/15 26/2/15 27/28/15
f 28/37/16 29/20/16 30/30/16
f 31/31/17 32/15/17 33/32/17
f 34/33/18 35/14/18 36/34/18
f 1/23/19 4/38/19 6/17/19 2/16/19
f 5/39/20 7/40/20 9/18/20 6/17/20
f 8/41/21 3/24/21 2/16/21 9/18/21
f 12/13/22 14/15/22 13/42/22 10/43/22
f 14/15/23 17/14/23 16/44/23 15/32/23
f 17/45/24 12/30/24 11/4/24 18/3/24
f 7/27/25 16/46/25 18/3/25 8/2/25
f 10/47/26 1/48/26 3/1/26 11/4/26
f 4/49/27 13/50/27 15/11/27 5/10/27
f 19/23/28 22/38/28 24/17/28 20/16/28
f 23/39/29 25/40/29 27/18/29 24/17/29
f 26/41/24 21/24/24 20/16/24 27/18/24
f 30/13/30 32/15/30 31/42/30 28/43/30
f 32/15/31 35/14/31 34/44/31 33/32/31
f 35/14/21 30/13/21 29/51/21 36/34/21
f 25/36/32 34/46/32 36/19/32 26/2/32
f 28/47/33 19/48/33 21/1/33 29/20/33
f 22/52/34 31/50/34 33/11/34 23/10/34
f 4/53/35 1/54/35 10/55/35 13/8/35
