# Blender 4.0.2
# www.blender.org
mtllib zadeldak_wall_triangle_blockhut_2500.mtl
o zadeldak_wall_triangle_blockhut_2500
v -0.051801 0.325997 -0.822140
v -0.051801 0.325997 0.822150
v -0.051801 0.153997 -1.120052
v -0.051801 0.153997 1.120063
v -0.047801 0.149997 -1.126980
v -0.047801 0.149997 1.126991
v -0.027801 0.149997 1.126991
v -0.027801 0.149997 -1.126980
v -0.023801 0.153997 1.120063
v -0.023801 0.153997 -1.120052
v -0.023801 0.325997 0.822150
v -0.023801 0.325997 -0.822140
v -0.027801 0.329997 -0.815212
v -0.027801 0.329997 0.815222
v -0.047801 0.329997 -0.815212
v -0.047801 0.329997 0.815222
v -0.051801 0.505997 -0.510371
v -0.051801 0.505997 0.510381
v -0.051801 0.333997 -0.808283
v -0.051801 0.333997 0.808294
v -0.023801 0.333997 0.808294
v -0.023801 0.333997 -0.808283
v -0.023801 0.505997 0.510381
v -0.023801 0.505997 -0.510371
v -0.027801 0.509997 0.503453
v -0.027801 0.509997 -0.503442
v -0.047801 0.509997 -0.503442
v -0.047801 0.509997 0.503453
v -0.051801 0.685997 -0.198602
v -0.051801 0.685997 0.198612
v -0.051801 0.513997 -0.496514
v -0.051801 0.513997 0.496524
v -0.023801 0.513997 -0.496514
v -0.023801 0.513997 0.496524
v -0.023801 0.685997 0.198612
v -0.023801 0.685997 -0.198602
v -0.027801 0.689997 0.191684
v -0.027801 0.689997 -0.191673
v -0.047801 0.689997 -0.191673
v -0.047801 0.689997 0.191684
v -0.051801 0.800663 0.000005
v -0.051801 0.693997 -0.184745
v -0.051801 0.693997 0.184755
v -0.023801 0.693997 0.184755
v -0.023801 0.693997 -0.184745
v -0.023801 0.800663 0.000005
vn -1.0000 -0.0000 -0.0000
vn -0.7071 -0.7071 -0.0000
vn -0.0000 -1.0000 -0.0000
vn 0.7071 -0.7071 -0.0000
vn 1.0000 -0.0000 -0.0000
vn 0.7071 0.7071 -0.0000
vn -0.0000 1.0000 -0.0000
vn -0.7071 0.7071 -0.0000
vn -0.0000 0.8660 0.5000
vn -0.0000 0.8660 -0.5000
vt 0.646707 0.533163
vt 0.612621 0.592200
vt 0.612621 0.148276
vt 0.646707 0.207314
vt 0.612621 0.448895
vt 0.612621 0.892818
vt 0.611500 0.894191
vt 0.611500 0.447522
vt 0.058663 0.876915
vt 0.058663 0.430245
vt 0.062627 0.430245
vt 0.062627 0.876915
vt 0.576294 0.875542
vt 0.575173 0.876915
vt 0.575173 0.430245
vt 0.576294 0.431618
vt 0.610379 0.515886
vt 0.576294 0.574924
vt 0.576294 0.131000
vt 0.610379 0.190037
vt 0.611500 0.492028
vt 0.611500 0.815132
vt 0.610379 0.816504
vt 0.610379 0.490655
vt 0.054700 0.815132
vt 0.054700 0.492028
vt 0.058663 0.492028
vt 0.058663 0.815132
vt 0.647828 0.509305
vt 0.647828 0.832408
vt 0.646707 0.833781
vt 0.646707 0.507932
vt 0.213021 0.754721
vt 0.213021 0.552439
vt 0.247106 0.493401
vt 0.247106 0.813759
vt 0.248227 0.492028
vt 0.248227 0.815132
vt 0.574052 0.510678
vt 0.575173 0.509305
vt 0.575173 0.832408
vt 0.574052 0.831035
vt 0.539967 0.569715
vt 0.539967 0.771998
vt 0.538846 0.571088
vt 0.538846 0.770625
vt 0.050736 0.753348
vt 0.050736 0.553812
vt 0.054700 0.553812
vt 0.054700 0.753348
vt 0.211900 0.753348
vt 0.211900 0.553812
vt 0.176693 0.313604
vt 0.210778 0.254566
vt 0.210779 0.451357
vt 0.176693 0.392320
vt 0.210778 0.751975
vt 0.210778 0.555185
vt 0.720482 0.753348
vt 0.720482 0.553812
vt 0.721603 0.555185
vt 0.721603 0.751976
vt 0.755689 0.392320
vt 0.721603 0.451357
vt 0.721603 0.254566
vt 0.755689 0.313604
vt 0.756810 0.691565
vt 0.755689 0.692938
vt 0.755689 0.614222
vt 0.756810 0.615595
vt 0.046773 0.691565
vt 0.046773 0.615595
vt 0.050736 0.615595
vt 0.050736 0.691565
vt 0.175572 0.691565
vt 0.175572 0.615595
vt 0.176693 0.614221
vt 0.176693 0.692937
vt 0.480259 0.653580
vt 0.501397 0.616968
vt 0.501397 0.690192
vt 0.502518 0.615595
vt 0.502518 0.691565
vt 0.685276 0.690192
vt 0.684155 0.691564
vt 0.684155 0.615594
vt 0.685276 0.616968
vt 0.706414 0.653580
vt 0.501863 0.180714
vt 0.498137 0.180714
vt 0.497392 0.179224
vt 0.497392 0.115150
vt 0.498137 0.113660
vt 0.501863 0.113660
vt 0.502608 0.115150
vt 0.502608 0.179224
vt 0.497392 0.112169
vt 0.497392 0.048095
vt 0.498137 0.046605
vt 0.501863 0.046605
vt 0.502608 0.048095
vt 0.502608 0.112169
vt 0.502608 0.182204
vt 0.502608 0.246279
vt 0.501863 0.247769
vt 0.498137 0.247769
vt 0.497392 0.246279
vt 0.497392 0.182204
vt 0.497392 0.045115
vt 0.497392 0.005379
vt 0.502608 0.005379
vt 0.502608 0.045115
vt 0.501863 -0.035847
vt 0.502608 -0.034356
vt 0.497392 -0.034356
vt 0.498137 -0.035847
vt 0.501863 -0.237010
vt 0.502608 -0.235520
vt 0.502608 -0.171446
vt 0.501863 -0.169956
vt 0.498137 -0.169956
vt 0.497392 -0.171446
vt 0.497392 -0.235520
vt 0.498137 -0.237010
vt 0.502608 -0.168466
vt 0.502608 -0.104391
vt 0.501863 -0.102901
vt 0.498137 -0.102901
vt 0.497392 -0.104391
vt 0.497392 -0.168466
vt 0.502608 -0.101411
vt 0.502608 -0.037337
vt 0.497392 -0.037337
vt 0.497392 -0.101411
s 0
f 1/1/1 3/2/1 4/3/1 2/4/1
f 4/5/2 3/6/2 5/7/2 6/8/2
f 6/9/3 5/10/3 8/11/3 7/12/3
f 9/13/4 7/14/4 8/15/4 10/16/4
f 11/17/5 9/18/5 10/19/5 12/20/5
f 13/21/6 14/22/6 11/23/6 12/24/6
f 14/25/7 13/26/7 15/27/7 16/28/7
f 16/29/8 15/30/8 1/31/8 2/32/8
f 18/33/1 17/34/1 19/35/1 20/36/1
f 20/36/2 19/35/2 15/37/2 16/38/2
f 21/39/4 14/40/4 13/41/4 22/42/4
f 23/43/5 21/39/5 22/42/5 24/44/5
f 25/45/6 23/43/6 24/44/6 26/46/6
f 25/47/7 26/48/7 27/49/7 28/50/7
f 28/51/8 27/52/8 17/34/8 18/33/8
f 29/53/1 31/54/1 32/55/1 30/56/1
f 32/57/2 31/58/2 27/52/2 28/51/2
f 25/59/4 26/60/4 33/61/4 34/62/4
f 35/63/5 34/64/5 33/65/5 36/66/5
f 37/67/6 35/68/6 36/69/6 38/70/6
f 37/71/7 38/72/7 39/73/7 40/74/7
f 40/75/8 39/76/8 29/77/8 30/78/8
f 41/79/1 42/80/1 43/81/1
f 43/81/2 42/80/2 39/82/2 40/83/2
f 44/84/4 37/85/4 38/86/4 45/87/4
f 44/84/5 45/87/5 46/88/5
f 16/89/9 14/90/9 21/91/9 23/92/9 25/93/9 28/94/9 18/95/9 20/96/9
f 28/94/9 25/93/9 34/97/9 35/98/9 37/99/9 40/100/9 30/101/9 32/102/9
f 16/89/9 2/103/9 4/104/9 6/105/9 7/106/9 9/107/9 11/108/9 14/90/9
f 40/100/9 37/99/9 44/109/9 46/110/9 41/111/9 43/112/9
f 39/113/10 42/114/10 41/111/10 46/110/10 45/115/10 38/116/10
f 5/117/10 3/118/10 1/119/10 15/120/10 13/121/10 12/122/10 10/123/10 8/124/10
f 13/121/10 15/120/10 19/125/10 17/126/10 27/127/10 26/128/10 24/129/10 22/130/10
f 26/128/10 27/127/10 31/131/10 29/132/10 39/113/10 38/116/10 36/133/10 33/134/10
