# Blender 4.0.2
# www.blender.org
mtllib zadeldak_wall_triangle_blockhut_2000.mtl
o zadeldak_wall_triangle_blockhut_2000
v -0.051801 0.325997 -0.572139
v -0.051801 0.325997 0.572150
v -0.051801 0.153997 -0.870052
v -0.051801 0.153997 0.870064
v -0.047801 0.149997 -0.876980
v -0.047801 0.149997 0.876992
v -0.027801 0.149997 0.876992
v -0.027801 0.149997 -0.876980
v -0.023801 0.153997 0.870064
v -0.023801 0.153997 -0.870052
v -0.023801 0.325997 0.572150
v -0.023801 0.325997 -0.572139
v -0.027801 0.329997 -0.565211
v -0.027801 0.329997 0.565222
v -0.047801 0.329997 -0.565211
v -0.047801 0.329997 0.565222
v -0.051801 0.505997 -0.260370
v -0.051801 0.505997 0.260381
v -0.051801 0.333997 -0.558283
v -0.051801 0.333997 0.558294
v -0.023801 0.333997 0.558294
v -0.023801 0.333997 -0.558283
v -0.023801 0.505997 -0.260370
v -0.023801 0.505997 0.260381
v -0.027801 0.509997 -0.253442
v -0.027801 0.509997 0.253452
v -0.047801 0.509997 -0.253442
v -0.047801 0.509997 0.253452
v -0.051801 0.656325 0.000005
v -0.051801 0.513997 -0.246513
v -0.051801 0.513997 0.246524
v -0.023801 0.513997 0.246524
v -0.023801 0.513997 -0.246513
v -0.023801 0.656325 0.000005
vn -1.0000 -0.0000 -0.0000
vn -0.7071 -0.7071 -0.0000
vn -0.0000 -1.0000 -0.0000
vn 0.7071 -0.7071 -0.0000
vn 1.0000 -0.0000 -0.0000
vn 0.7071 0.7071 -0.0000
vn -0.0000 1.0000 -0.0000
vn -0.7071 0.7071 -0.0000
vn -0.0000 0.8660 0.5000
vn -0.0000 0.8660 -0.5000
vt 0.646707 0.256856
vt 0.646707 0.483620
vt 0.612621 0.542658
vt 0.612621 0.197819
vt 0.612621 0.498437
vt 0.612621 0.843276
vt 0.611500 0.844649
vt 0.611500 0.497064
vt 0.058663 0.827372
vt 0.058663 0.479788
vt 0.062627 0.479788
vt 0.062627 0.827373
vt 0.576294 0.825999
vt 0.575173 0.827373
vt 0.575173 0.479788
vt 0.576294 0.481160
vt 0.576294 0.525381
vt 0.576294 0.180542
vt 0.610379 0.239580
vt 0.610379 0.466344
vt 0.611500 0.541571
vt 0.611500 0.765589
vt 0.610379 0.766962
vt 0.610379 0.540198
vt 0.058663 0.541571
vt 0.058663 0.765589
vt 0.054700 0.765589
vt 0.054700 0.541571
vt 0.647828 0.558847
vt 0.647828 0.782865
vt 0.646707 0.784239
vt 0.646707 0.557475
vt 0.213021 0.601981
vt 0.247106 0.542944
vt 0.247106 0.764216
vt 0.213021 0.705178
vt 0.248227 0.541571
vt 0.248227 0.765589
vt 0.574052 0.560220
vt 0.575173 0.558847
vt 0.575173 0.782866
vt 0.574052 0.781492
vt 0.539966 0.722455
vt 0.539967 0.619258
vt 0.538846 0.721082
vt 0.538845 0.620631
vt 0.050736 0.703806
vt 0.050736 0.603354
vt 0.054700 0.603354
vt 0.054700 0.703806
vt 0.211900 0.703806
vt 0.211900 0.603354
vt 0.182573 0.352962
vt 0.210779 0.304109
vt 0.210779 0.401814
vt 0.210778 0.702433
vt 0.210778 0.604727
vt 0.721603 0.702433
vt 0.720482 0.703806
vt 0.720482 0.603354
vt 0.721603 0.604728
vt 0.721603 0.401814
vt 0.721603 0.304109
vt 0.749808 0.352962
vt 0.498639 -0.081893
vt 0.501361 -0.081893
vt 0.501905 -0.080805
vt 0.501905 -0.033997
vt 0.501361 -0.032909
vt 0.498639 -0.032909
vt 0.498095 -0.033997
vt 0.498095 -0.080805
vt 0.498095 -0.082982
vt 0.498095 -0.129790
vt 0.498639 -0.130878
vt 0.501361 -0.130878
vt 0.501905 -0.129790
vt 0.501905 -0.082982
vt 0.501905 -0.031820
vt 0.501905 0.006913
vt 0.498095 0.006913
vt 0.498095 -0.031820
vt 0.498639 0.046734
vt 0.498095 0.045645
vt 0.501905 0.045645
vt 0.501361 0.046734
vt 0.498639 0.144703
vt 0.498095 0.143615
vt 0.498095 0.096807
vt 0.498639 0.095719
vt 0.501361 0.095719
vt 0.501905 0.096807
vt 0.501905 0.143615
vt 0.501361 0.144703
vt 0.498095 0.094630
vt 0.498095 0.047822
vt 0.501905 0.047822
vt 0.501905 0.094630
s 0
f 2/1/1 1/2/1 3/3/1 4/4/1
f 4/5/2 3/6/2 5/7/2 6/8/2
f 6/9/3 5/10/3 8/11/3 7/12/3
f 9/13/4 7/14/4 8/15/4 10/16/4
f 9/17/5 10/18/5 12/19/5 11/20/5
f 13/21/6 14/22/6 11/23/6 12/24/6
f 15/25/7 16/26/7 14/27/7 13/28/7
f 16/29/8 15/30/8 1/31/8 2/32/8
f 17/33/1 19/34/1 20/35/1 18/36/1
f 20/35/2 19/34/2 15/37/2 16/38/2
f 21/39/4 14/40/4 13/41/4 22/42/4
f 21/39/5 22/42/5 23/43/5 24/44/5
f 24/44/6 23/43/6 25/45/6 26/46/6
f 26/47/7 25/48/7 27/49/7 28/50/7
f 28/51/8 27/52/8 17/33/8 18/36/8
f 29/53/1 30/54/1 31/55/1
f 31/56/2 30/57/2 27/52/2 28/51/2
f 32/58/4 26/59/4 25/60/4 33/61/4
f 32/62/5 33/63/5 34/64/5
f 16/65/9 14/66/9 21/67/9 24/68/9 26/69/9 28/70/9 18/71/9 20/72/9
f 2/73/9 4/74/9 6/75/9 7/76/9 9/77/9 11/78/9 14/66/9 16/65/9
f 28/70/9 26/69/9 32/79/9 34/80/9 29/81/9 31/82/9
f 27/83/10 30/84/10 29/81/10 34/80/10 33/85/10 25/86/10
f 5/87/10 3/88/10 1/89/10 15/90/10 13/91/10 12/92/10 10/93/10 8/94/10
f 13/91/10 15/90/10 19/95/10 17/96/10 27/83/10 25/86/10 23/97/10 22/98/10
