# Blender 4.0.2
# www.blender.org
mtllib zadeldak_wall_triangle_blockhut_5000.mtl
o zadeldak_wall_triangle_blockhut_5000
v -0.051801 0.325997 -2.075408
v -0.051801 0.325997 2.075415
v -0.051801 0.153997 -2.373316
v -0.051801 0.153997 2.373323
v -0.047801 0.149997 -2.380244
v -0.047801 0.149997 2.380251
v -0.027801 0.149997 2.380251
v -0.027801 0.149997 -2.380244
v -0.023801 0.153997 2.373323
v -0.023801 0.153997 -2.373316
v -0.023801 0.325997 2.075415
v -0.023801 0.325997 -2.075408
v -0.027801 0.329997 2.068486
v -0.027801 0.329997 -2.068480
v -0.047801 0.329997 2.068486
v -0.047801 0.329997 -2.068480
v -0.051801 0.505997 -1.763644
v -0.051801 0.505997 1.763650
v -0.051801 0.333997 -2.061552
v -0.051801 0.333997 2.061558
v -0.023801 0.333997 2.061558
v -0.023801 0.333997 -2.061552
v -0.023801 0.505997 1.763650
v -0.023801 0.505997 -1.763644
v -0.027801 0.509997 1.756722
v -0.027801 0.509997 -1.756716
v -0.047801 0.509997 1.756722
v -0.047801 0.509997 -1.756716
v -0.051801 0.685997 -1.451881
v -0.051801 0.685997 1.451885
v -0.051801 0.513997 -1.749788
v -0.051801 0.513997 1.749794
v -0.023801 0.513997 1.749794
v -0.023801 0.513997 -1.749788
v -0.023801 0.685997 1.451885
v -0.023801 0.685997 -1.451881
v -0.027801 0.689997 1.444957
v -0.027801 0.689997 -1.444953
v -0.047801 0.689997 1.444957
v -0.047801 0.689997 -1.444953
v -0.051801 0.865998 -1.140117
v -0.051801 0.865998 1.140120
v -0.051801 0.693998 -1.438024
v -0.051801 0.693997 1.438029
v -0.023801 0.693997 1.438029
v -0.023801 0.693998 -1.438024
v -0.023801 0.865998 1.140120
v -0.023801 0.865998 -1.140117
v -0.027801 0.869998 1.133192
v -0.027801 0.869998 -1.133189
v -0.047801 0.869998 1.133192
v -0.047801 0.869998 -1.133189
v -0.051801 1.045998 -0.828353
v -0.051801 1.045998 0.828356
v -0.051801 0.873997 -1.126261
v -0.051801 0.873997 1.126264
v -0.023801 0.873997 1.126264
v -0.023801 0.873997 -1.126261
v -0.023801 1.045998 0.828356
v -0.023801 1.045998 -0.828353
v -0.027801 1.049998 0.821428
v -0.027801 1.049998 -0.821425
v -0.047801 1.049998 0.821428
v -0.047801 1.049998 -0.821425
v -0.051801 1.225998 -0.516589
v -0.051801 1.225998 0.516591
v -0.051801 1.053998 -0.814497
v -0.051801 1.053998 0.814499
v -0.023801 1.053998 0.814499
v -0.023801 1.053998 -0.814497
v -0.023801 1.225998 0.516591
v -0.023801 1.225998 -0.516589
v -0.027801 1.229998 0.509663
v -0.027801 1.229998 -0.509661
v -0.047801 1.229998 0.509663
v -0.047801 1.229998 -0.509661
v -0.051801 1.405998 -0.204825
v -0.051801 1.405998 0.204826
v -0.051801 1.233998 -0.502733
v -0.051801 1.233998 0.502734
v -0.023801 1.233998 0.502734
v -0.023801 1.233998 -0.502733
v -0.023801 1.405998 0.204826
v -0.023801 1.405998 -0.204825
v -0.027801 1.409998 0.197898
v -0.027801 1.409998 -0.197897
v -0.047801 1.409998 0.197898
v -0.047801 1.409998 -0.197897
v -0.051801 1.524256 -0.000000
v -0.051801 1.413998 -0.190969
v -0.051801 1.413998 0.190970
v -0.023801 1.413998 0.190970
v -0.023801 1.413998 -0.190969
v -0.023801 1.524256 -0.000000
vn -1.0000 -0.0000 -0.0000
vn -0.7071 -0.7071 -0.0000
vn -0.0000 -1.0000 -0.0000
vn 0.7071 -0.7071 -0.0000
vn 1.0000 -0.0000 -0.0000
vn 0.7071 0.7071 -0.0000
vn -0.0000 1.0000 -0.0000
vn -0.7071 0.7071 -0.0000
vn -0.7070 -0.7072 -0.0000
vn 0.7070 -0.7072 -0.0000
vn -0.0000 0.8660 -0.5000
vn -0.0000 0.8660 0.5000
vt 0.646707 0.781523
vt 0.612621 0.840560
vt 0.612621 -0.100082
vt 0.646707 -0.041046
vt 0.612621 0.200536
vt 0.612621 1.141178
vt 0.611500 1.142551
vt 0.611500 0.199163
vt 0.062627 1.125274
vt 0.058663 1.125274
vt 0.058663 0.181886
vt 0.062627 0.181886
vt 0.576294 1.123900
vt 0.575173 1.125273
vt 0.575173 0.181886
vt 0.576294 0.183258
vt 0.610379 0.764246
vt 0.576294 0.823282
vt 0.576294 -0.117360
vt 0.610379 -0.058323
vt 0.611500 0.243668
vt 0.611500 1.063491
vt 0.610379 1.064864
vt 0.610379 0.242295
vt 0.058663 1.063491
vt 0.054700 1.063491
vt 0.054700 0.243668
vt 0.058663 0.243668
vt 0.647828 0.260946
vt 0.647828 1.080768
vt 0.646707 1.082142
vt 0.646707 0.259573
vt 0.213021 0.304077
vt 0.247106 0.245041
vt 0.247106 1.062118
vt 0.213021 1.003082
vt 0.248227 0.243668
vt 0.248227 1.063491
vt 0.574052 0.262318
vt 0.575173 0.260945
vt 0.575173 1.080769
vt 0.574052 1.079396
vt 0.539967 0.321355
vt 0.539967 1.020359
vt 0.538846 0.322728
vt 0.538846 1.018986
vt 0.054700 1.001709
vt 0.050737 1.001709
vt 0.050736 0.305450
vt 0.054700 0.305450
vt 0.211900 1.001709
vt 0.211900 0.305450
vt 0.176693 0.065241
vt 0.210778 0.006205
vt 0.210779 0.699717
vt 0.176693 0.640681
vt 0.210778 1.000336
vt 0.210778 0.306823
vt 0.721603 1.000336
vt 0.720482 1.001708
vt 0.720482 0.305451
vt 0.721603 0.306824
vt 0.755689 0.640681
vt 0.721604 0.699717
vt 0.721603 0.006205
vt 0.755689 0.065241
vt 0.756810 0.939926
vt 0.755689 0.941299
vt 0.755689 0.365860
vt 0.756810 0.367233
vt 0.050736 0.939926
vt 0.046773 0.939926
vt 0.046773 0.367233
vt 0.050736 0.367233
vt 0.175572 0.939926
vt 0.175572 0.367232
vt 0.176693 0.365859
vt 0.176693 0.941298
vt 0.467312 0.427642
vt 0.501397 0.368606
vt 0.501397 0.938553
vt 0.467312 0.879517
vt 0.502518 0.367233
vt 0.502518 0.939926
vt 0.685276 0.938553
vt 0.684155 0.939925
vt 0.684155 0.367232
vt 0.685276 0.368605
vt 0.719361 0.879517
vt 0.719361 0.427642
vt 0.720482 0.429015
vt 0.720482 0.878143
vt 0.046773 0.878144
vt 0.042810 0.878144
vt 0.042809 0.429015
vt 0.046773 0.429015
vt 0.466191 0.878144
vt 0.466191 0.429015
vt 0.430985 0.517116
vt 0.430985 0.188806
vt 0.465070 0.129770
vt 0.465070 0.576153
vt 0.465070 0.876770
vt 0.465070 0.430388
vt 0.939568 0.876771
vt 0.938447 0.878144
vt 0.938447 0.429014
vt 0.939568 0.430388
vt 0.973698 0.517148
vt 0.939425 0.576051
vt 0.939057 0.129408
vt 0.973568 0.188746
vt 0.974774 0.816361
vt 0.973653 0.817734
vt 0.973653 0.489424
vt 0.974774 0.490797
vt 0.038846 0.816361
vt 0.038846 0.490797
vt 0.042809 0.490797
vt 0.042809 0.816361
vt 0.429864 0.816361
vt 0.429864 0.490797
vt 0.430985 0.489424
vt 0.430985 0.817734
vt 0.140366 0.551206
vt 0.174451 0.492170
vt 0.174451 0.814988
vt 0.140366 0.755952
vt 0.175572 0.490797
vt 0.175572 0.816361
vt 0.503639 0.814988
vt 0.502518 0.816362
vt 0.502518 0.490797
vt 0.503639 0.492170
vt 0.537724 0.755952
vt 0.537724 0.551206
vt 0.538845 0.552579
vt 0.538846 0.754579
vt 0.034882 0.754579
vt 0.034882 0.552579
vt 0.038846 0.552579
vt 0.038845 0.754579
vt 0.139245 0.754580
vt 0.139245 0.552580
vt 0.394657 0.312370
vt 0.428742 0.253334
vt 0.428742 0.452588
vt 0.394657 0.393551
vt 0.428742 0.753206
vt 0.428742 0.553952
vt 0.429864 0.552579
vt 0.429864 0.754579
vt 0.067711 0.753206
vt 0.066590 0.754578
vt 0.066590 0.552579
vt 0.067711 0.553952
vt 0.101797 0.393551
vt 0.067711 0.452588
vt 0.067711 0.253334
vt 0.101797 0.312371
vt 0.102918 0.614361
vt 0.102918 0.692796
vt 0.101797 0.694169
vt 0.101797 0.612989
vt 0.030919 0.692796
vt 0.030919 0.614362
vt 0.034882 0.614362
vt 0.034882 0.692796
vt 0.393536 0.692797
vt 0.393536 0.614362
vt 0.394657 0.612989
vt 0.394657 0.694169
vt 0.370565 0.653579
vt 0.392415 0.615735
vt 0.392415 0.691424
vt 0.903240 0.691424
vt 0.902119 0.692797
vt 0.902119 0.614362
vt 0.903240 0.615735
vt 0.925090 0.653579
vt 0.501961 -0.536426
vt 0.502745 -0.534857
vt 0.502745 -0.467400
vt 0.501961 -0.465832
vt 0.498039 -0.465832
vt 0.497254 -0.467400
vt 0.497254 -0.534857
vt 0.498038 -0.536426
vt 0.502745 -0.464263
vt 0.502745 -0.396806
vt 0.501961 -0.395237
vt 0.498039 -0.395237
vt 0.497254 -0.396806
vt 0.497254 -0.464263
vt 0.502745 -0.393668
vt 0.502745 -0.326211
vt 0.501961 -0.324643
vt 0.498039 -0.324643
vt 0.497254 -0.326211
vt 0.497254 -0.393668
vt 0.502745 -0.323074
vt 0.502745 -0.255617
vt 0.501961 -0.254048
vt 0.498039 -0.254048
vt 0.497255 -0.255617
vt 0.497254 -0.323074
vt 0.502745 -0.252479
vt 0.502746 -0.185022
vt 0.501961 -0.183453
vt 0.498039 -0.183453
vt 0.497255 -0.185022
vt 0.497255 -0.252479
vt 0.502746 -0.181885
vt 0.502746 -0.114428
vt 0.501961 -0.112859
vt 0.498039 -0.112859
vt 0.497255 -0.114428
vt 0.497255 -0.181885
vt 0.502746 -0.111290
vt 0.502746 -0.043833
vt 0.501961 -0.042264
vt 0.498039 -0.042264
vt 0.497255 -0.043833
vt 0.497255 -0.111290
vt 0.502746 -0.040696
vt 0.502746 0.002547
vt 0.497255 0.002547
vt 0.497255 -0.040696
vt 0.501961 0.047358
vt 0.498039 0.047358
vt 0.497255 0.045789
vt 0.502746 0.045789
vt 0.501961 0.259142
vt 0.498039 0.259142
vt 0.497255 0.257573
vt 0.497255 0.190116
vt 0.498039 0.188547
vt 0.501961 0.188547
vt 0.502746 0.190116
vt 0.502745 0.257573
vt 0.497255 0.186978
vt 0.497255 0.119521
vt 0.498039 0.117953
vt 0.501961 0.117953
vt 0.502746 0.119521
vt 0.502746 0.186978
vt 0.501961 0.329737
vt 0.498039 0.329737
vt 0.497254 0.328168
vt 0.497255 0.260711
vt 0.502745 0.260711
vt 0.502745 0.328168
vt 0.501961 0.400331
vt 0.498039 0.400331
vt 0.497254 0.398763
vt 0.497254 0.331305
vt 0.502745 0.331305
vt 0.502745 0.398763
vt 0.501961 0.470926
vt 0.498039 0.470926
vt 0.497254 0.469357
vt 0.497254 0.401900
vt 0.502745 0.401900
vt 0.502745 0.469357
vt 0.497254 0.472495
vt 0.502745 0.472495
vt 0.502745 0.539952
vt 0.501960 0.541521
vt 0.498038 0.541521
vt 0.497254 0.539952
vt 0.497255 0.116384
vt 0.497255 0.048927
vt 0.502746 0.048927
vt 0.502746 0.116384
s 0
f 1/1/1 3/2/1 4/3/1 2/4/1
f 4/5/2 3/6/2 5/7/2 6/8/2
f 7/9/3 6/10/3 5/11/3 8/12/3
f 9/13/4 7/14/4 8/15/4 10/16/4
f 11/17/5 9/18/5 10/19/5 12/20/5
f 14/21/6 13/22/6 11/23/6 12/24/6
f 15/25/7 13/26/7 14/27/7 16/28/7
f 15/29/8 16/30/8 1/31/8 2/32/8
f 17/33/1 19/34/1 20/35/1 18/36/1
f 20/35/2 19/34/2 16/37/2 15/38/2
f 21/39/4 13/40/4 14/41/4 22/42/4
f 23/43/5 21/39/5 22/42/5 24/44/5
f 25/45/6 23/43/6 24/44/6 26/46/6
f 27/47/7 25/48/7 26/49/7 28/50/7
f 27/51/8 28/52/8 17/33/8 18/36/8
f 29/53/1 31/54/1 32/55/1 30/56/1
f 32/57/2 31/58/2 28/52/2 27/51/2
f 33/59/4 25/60/4 26/61/4 34/62/4
f 35/63/5 33/64/5 34/65/5 36/66/5
f 37/67/6 35/68/6 36/69/6 38/70/6
f 39/71/7 37/72/7 38/73/7 40/74/7
f 39/75/8 40/76/8 29/77/8 30/78/8
f 41/79/1 43/80/1 44/81/1 42/82/1
f 44/81/2 43/80/2 40/83/2 39/84/2
f 45/85/4 37/86/4 38/87/4 46/88/4
f 47/89/5 45/85/5 46/88/5 48/90/5
f 50/91/6 49/92/6 47/89/6 48/90/6
f 51/93/7 49/94/7 50/95/7 52/96/7
f 51/97/8 52/98/8 41/79/8 42/82/8
f 54/99/1 53/100/1 55/101/1 56/102/1
f 56/103/9 55/104/9 52/98/9 51/97/9
f 57/105/10 49/106/10 50/107/10 58/108/10
f 59/109/5 57/110/5 58/111/5 60/112/5
f 61/113/6 59/114/6 60/115/6 62/116/6
f 61/117/7 62/118/7 64/119/7 63/120/7
f 63/121/8 64/122/8 53/123/8 54/124/8
f 65/125/1 67/126/1 68/127/1 66/128/1
f 68/127/2 67/126/2 64/129/2 63/130/2
f 69/131/4 61/132/4 62/133/4 70/134/4
f 71/135/5 69/131/5 70/134/5 72/136/5
f 74/137/6 73/138/6 71/135/6 72/136/6
f 73/139/7 74/140/7 76/141/7 75/142/7
f 75/143/8 76/144/8 65/125/8 66/128/8
f 77/145/1 79/146/1 80/147/1 78/148/1
f 80/149/2 79/150/2 76/151/2 75/152/2
f 81/153/4 73/154/4 74/155/4 82/156/4
f 83/157/5 81/158/5 82/159/5 84/160/5
f 86/161/6 85/162/6 83/163/6 84/164/6
f 85/165/7 86/166/7 88/167/7 87/168/7
f 87/169/8 88/170/8 77/171/8 78/172/8
f 89/173/1 90/174/1 91/175/1
f 91/175/2 90/174/2 88/170/2 87/169/2
f 92/176/4 85/177/4 86/178/4 93/179/4
f 92/176/5 93/179/5 94/180/5
f 5/181/11 3/182/11 1/183/11 16/184/11 14/185/11 12/186/11 10/187/11 8/188/11
f 14/185/11 16/184/11 19/189/11 17/190/11 28/191/11 26/192/11 24/193/11 22/194/11
f 26/192/11 28/191/11 31/195/11 29/196/11 40/197/11 38/198/11 36/199/11 34/200/11
f 38/198/11 40/197/11 43/201/11 41/202/11 52/203/11 50/204/11 48/205/11 46/206/11
f 50/204/11 52/203/11 55/207/11 53/208/11 64/209/11 62/210/11 60/211/11 58/212/11
f 62/210/11 64/209/11 67/213/11 65/214/11 76/215/11 74/216/11 72/217/11 70/218/11
f 74/216/11 76/215/11 79/219/11 77/220/11 88/221/11 86/222/11 84/223/11 82/224/11
f 86/222/11 88/221/11 90/225/11 89/226/11 94/227/11 93/228/11
f 87/229/12 85/230/12 92/231/12 94/227/12 89/226/12 91/232/12
f 51/233/12 49/234/12 57/235/12 59/236/12 61/237/12 63/238/12 54/239/12 56/240/12
f 63/238/12 61/237/12 69/241/12 71/242/12 73/243/12 75/244/12 66/245/12 68/246/12
f 39/247/12 37/248/12 45/249/12 47/250/12 49/234/12 51/233/12 42/251/12 44/252/12
f 27/253/12 25/254/12 33/255/12 35/256/12 37/248/12 39/247/12 30/257/12 32/258/12
f 15/259/12 13/260/12 21/261/12 23/262/12 25/254/12 27/253/12 18/263/12 20/264/12
f 11/265/12 13/260/12 15/259/12 2/266/12 4/267/12 6/268/12 7/269/12 9/270/12
f 75/244/12 73/243/12 81/271/12 83/272/12 85/230/12 87/229/12 78/273/12 80/274/12
