# Blender 4.0.2
# www.blender.org
mtllib balk_corner.mtl
o balk_corner
v 0.489896 -0.000707 -0.024000
v 0.489896 -0.000707 0.024000
v 0.000000 -0.490603 -0.024000
v 0.000000 -0.490603 0.024000
v 0.278886 -0.001000 -0.025000
v 0.488188 -0.001000 -0.025000
v 0.000293 -0.279593 -0.025000
v 0.000292 -0.488896 -0.025000
v 0.000293 -0.279593 -0.025000
v 0.488188 -0.001000 -0.025000
v 0.000000 -0.278471 -0.024000
v 0.000000 -0.278471 0.024000
v 0.277764 -0.000707 -0.024000
v 0.277764 -0.000707 0.024000
v 0.000293 -0.279593 0.025000
v 0.000292 -0.488896 0.025000
v 0.278886 -0.001000 0.025000
v 0.488188 -0.001000 0.025000
v 0.278886 -0.001000 0.025000
v 0.000292 -0.488896 0.025000
v 0.279471 -0.000000 -0.024000
v 0.279471 -0.000000 0.024000
v 0.489603 0.000000 -0.024000
v 0.489603 0.000000 0.024000
v -0.000707 -0.280178 0.024000
v -0.000707 -0.280178 -0.024000
v -0.000708 -0.490310 0.024000
v -0.000708 -0.490310 -0.024000
v 0.488188 -0.001000 0.025000
v 0.489896 -0.000707 0.024000
v 0.489603 0.000000 0.024000
v 0.488188 -0.001000 -0.025000
v 0.489603 0.000000 -0.024000
v 0.489896 -0.000707 -0.024000
v -0.000708 -0.490310 0.024000
v 0.000000 -0.490603 0.024000
v 0.000292 -0.488896 0.025000
v -0.000708 -0.490310 -0.024000
v 0.000292 -0.488896 -0.025000
v 0.000000 -0.490603 -0.024000
v 0.000000 -0.278471 -0.024000
v 0.000293 -0.279593 -0.025000
v -0.000707 -0.280178 -0.024000
v 0.277764 -0.000707 -0.024000
v 0.279471 -0.000000 -0.024000
v 0.278886 -0.001000 -0.025000
v 0.277764 -0.000707 0.024000
v 0.278886 -0.001000 0.025000
v 0.279471 -0.000000 0.024000
v 0.000000 -0.278471 0.024000
v -0.000707 -0.280178 0.024000
v 0.000293 -0.279593 0.025000
v 0.489603 0.000000 0.024000
v 0.489896 -0.000707 0.024000
v 0.489603 0.000000 -0.024000
v 0.489896 -0.000707 -0.024000
v 0.000000 -0.490603 0.024000
v -0.000708 -0.490310 0.024000
v 0.000000 -0.490603 -0.024000
v 0.000292 -0.488896 0.025000
v 0.000000 -0.490603 0.024000
v 0.488188 -0.001000 0.025000
v 0.489896 -0.000707 0.024000
v 0.488188 -0.001000 0.025000
v 0.000000 -0.490603 0.024000
v 0.000000 -0.490603 -0.024000
v 0.000292 -0.488896 -0.025000
v 0.489896 -0.000707 -0.024000
v -0.000707 -0.280178 -0.024000
v 0.000293 -0.279593 -0.025000
v -0.000708 -0.490310 -0.024000
v 0.000292 -0.488896 -0.025000
v 0.277764 -0.000707 -0.024000
v 0.278886 -0.001000 -0.025000
v 0.000000 -0.278471 -0.024000
v 0.000293 -0.279593 -0.025000
v 0.489603 0.000000 -0.024000
v 0.488188 -0.001000 -0.025000
v 0.279471 -0.000000 -0.024000
v 0.278886 -0.001000 -0.025000
v 0.279471 -0.000000 -0.024000
v 0.488188 -0.001000 -0.025000
v 0.277764 -0.000707 0.024000
v 0.279471 -0.000000 0.024000
v 0.277764 -0.000707 -0.024000
v -0.000707 -0.280178 0.024000
v 0.000000 -0.278471 0.024000
v -0.000707 -0.280178 -0.024000
v 0.000000 -0.278471 -0.024000
v 0.278886 -0.001000 0.025000
v 0.277764 -0.000707 0.024000
v 0.000293 -0.279593 0.025000
v 0.000000 -0.278471 0.024000
v 0.279471 -0.000000 0.024000
v 0.278886 -0.001000 0.025000
v 0.489603 0.000000 0.024000
v 0.488188 -0.001000 0.025000
v -0.000708 -0.490310 0.024000
v 0.000292 -0.488896 0.025000
v -0.000707 -0.280178 0.024000
v 0.000293 -0.279593 0.025000
v -0.000707 -0.280178 0.024000
v 0.000292 -0.488896 0.025000
v -0.000708 -0.490310 -0.024000
v 0.488188 -0.001000 -0.025000
v 0.489896 -0.000707 -0.024000
v 0.000292 -0.488896 -0.025000
vn -0.0000 1.0000 -0.0000
vn -0.0000 -0.0000 -1.0000
vn 0.9238 0.3828 -0.0000
vn -0.0000 -0.0000 1.0000
vn -1.0000 -0.0000 -0.0000
vn -0.9239 0.3827 -0.0000
vn 0.4705 0.1949 0.8606
vn 0.4704 0.1949 -0.8606
vn -0.1948 -0.4708 0.8605
vn -0.1948 -0.4708 -0.8605
vn -0.7569 0.3135 -0.5735
vn -0.3132 0.7571 -0.5733
vn -0.3135 0.7568 -0.5735
vn -0.3135 0.7568 0.5735
vn -0.7569 0.3135 0.5735
vn -0.4999 0.4999 0.7073
vn -0.7071 0.7071 -0.0000
vn 0.4999 -0.4999 0.7073
vn 0.5000 -0.5000 -0.7071
vn -0.7071 -0.0000 -0.7071
vn -0.0000 0.7070 -0.7072
vn -0.3827 0.9239 -0.0000
vn -0.3827 -0.9239 -0.0000
vn -0.4999 0.4999 -0.7073
vn -0.0000 0.7070 0.7072
vn -0.7071 -0.0000 0.7071
vn 0.4999 -0.4999 -0.7073
vn 0.7071 -0.7071 -0.0000
vt 0.802657 0.905172
vt 0.835306 0.968965
vt 1.049284 0.857917
vt 1.014827 0.787756
vt 0.262765 -0.047373
vt 0.080507 0.134504
vt 0.747446 -0.046867
vt 0.929324 0.135391
vt 0.747446 -0.046867
vt 0.080507 0.134504
vt 0.800231 0.975801
vt 0.801443 0.975127
vt 0.775074 0.929659
vt 0.773869 0.930344
vt 0.761987 0.542770
vt 0.944245 0.360893
vt 0.277305 0.542264
vt 0.095429 0.360007
vt 0.277306 0.542264
vt 0.944245 0.360893
vt 0.911404 0.820450
vt 0.885050 0.767591
vt 0.722077 0.876378
vt 0.749482 0.931344
vt 1.584392 0.217702
vt 1.565355 0.233979
vt 1.432281 0.289331
vt 1.451311 0.273053
vt 0.802992 0.804440
vt 0.801540 0.808964
vt 0.802963 0.808853
vt 0.932133 1.019794
vt 0.928280 1.017296
vt 0.927280 1.018547
vt 1.345350 0.914595
vt 1.333110 0.917288
vt 1.337186 0.925447
vt 0.324013 0.304108
vt 0.314507 0.312271
vt 0.330788 0.317719
vt 2.602768 -0.392330
vt 2.555191 -0.378799
vt 2.566032 -0.357040
vt 1.096884 0.820573
vt 1.093372 0.821666
vt 1.095998 0.823886
vt 1.080791 0.771088
vt 1.077408 0.769835
vt 1.077745 0.773390
vt 1.136399 0.810558
vt 1.135044 0.807831
vt 1.113298 0.818672
vt 0.799330 0.772827
vt 0.798602 0.762095
vt 0.361130 0.762449
vt 0.364820 0.773212
vt 0.281251 0.487788
vt 0.281195 0.546486
vt 0.761558 0.546938
vt 0.761614 0.488240
vt 0.938980 0.756288
vt 0.940918 0.738917
vt 0.090162 0.755402
vt 0.485389 0.745499
vt 0.502466 0.763165
vt 1.351174 0.746643
vt 0.539366 -0.250090
vt 0.522291 -0.267758
vt -0.326418 -0.251235
vt 0.753965 0.940831
vt 0.743123 0.919083
vt 0.914383 0.826909
vt 0.903344 0.815131
vt 0.912856 0.806990
vt 0.741601 0.899169
vt 0.839163 0.971469
vt 1.050395 0.861829
vt 1.052884 0.863793
vt 1.050259 0.861575
vt 0.839025 0.971215
vt 1.055736 0.738672
vt 1.052688 0.740970
vt 1.091435 0.812793
vt 1.182901 0.535381
vt 1.180166 0.543583
vt 0.932617 0.366928
vt 0.935349 0.358833
vt 0.710709 0.272788
vt 0.707993 0.262045
vt 0.273469 0.262442
vt 0.273222 0.273156
vt 1.013716 0.783844
vt 1.013381 0.780292
vt 0.802855 0.900894
vt 0.802824 0.905310
vt 1.013548 0.780430
vt 0.887409 0.765067
vt 0.879251 0.775927
vt 0.722932 0.870833
vt 0.700311 0.881640
vt 0.722048 0.870802
vt 0.878373 0.775894
vt 0.085726 -0.260895
vt 0.083786 -0.243525
vt 0.934543 -0.260009
vt 0.945237 0.278263
vt 0.945316 0.218279
vt 0.079531 0.217135
vt 0.079452 0.277120
s 0
usemtl wood
f 24/1/1 23/2/1 21/3/1 22/4/1
f 5/5/2 6/6/2 7/7/2
f 8/8/2 9/9/2 10/10/2
f 56/11/3 55/12/3 53/13/3 54/14/3
f 15/15/4 16/16/4 17/17/4
f 18/18/4 19/19/4 20/20/4
f 28/21/5 27/22/5 25/23/5 26/24/5
f 89/25/6 88/26/6 86/27/6 87/28/6
f 29/29/7 30/30/7 31/31/7
f 32/32/8 33/33/8 34/34/8
f 35/35/9 36/36/9 37/37/9
f 38/38/10 39/39/10 40/40/10
f 41/41/11 42/42/11 43/43/11
f 44/44/12 45/45/13 46/46/12
f 47/47/14 48/48/14 49/49/14
f 50/50/15 51/51/15 52/52/15
f 93/53/16 92/54/16 90/55/16 91/56/16
f 14/57/17 13/58/17 11/59/17 12/60/17
f 60/61/18 61/62/18 62/63/18
f 63/64/18 64/65/18 65/66/18
f 66/67/19 67/68/19 68/69/19
f 69/70/20 70/71/20 71/72/20
f 72/73/20 71/74/20 70/75/20
f 77/2/21 78/76/21 79/77/21
f 80/78/21 81/79/21 82/80/21
f 83/81/22 84/82/22 85/83/22
f 104/84/23 59/85/23 57/86/23 58/87/23
f 76/88/24 75/89/24 73/90/24 74/91/24
f 94/92/25 95/93/25 96/1/25
f 97/94/25 96/95/25 95/96/25
f 98/97/26 99/98/26 100/99/26
f 101/100/26 102/101/26 103/102/26
f 105/103/27 106/104/27 107/105/27
f 4/106/28 3/107/28 1/108/28 2/109/28
