# Blender 4.0.2
# www.blender.org
mtllib wall_potdeksel_2200x1000.mtl
o wall_potdeksel_2200x1000
v 1.000000 0.180000 0.024937
v 1.000000 0.000000 0.000937
v 1.000000 0.000000 0.024937
v 1.000000 0.000993 -0.000000
v 1.000000 0.360000 0.024937
v 1.000000 0.180000 0.000937
v 1.000000 0.359207 0.011276
v 1.000000 0.180993 -0.000000
v 1.000000 0.179207 0.011276
v 1.000000 0.180000 0.010527
v 1.000000 0.540000 0.024937
v 1.000000 0.360000 0.000937
v 1.000000 0.539207 0.011276
v 1.000000 0.360993 -0.000000
v 1.000000 0.360000 0.010527
v 1.000000 0.720000 0.024937
v 1.000000 0.540000 0.000937
v 1.000000 0.540993 -0.000000
v 1.000000 0.540000 0.010527
v 1.000000 0.900000 0.024937
v 1.000000 0.720000 0.000937
v 1.000000 0.720993 -0.000000
v 1.000000 0.719207 0.011276
v 1.000000 0.720000 0.010527
v 1.000000 0.900000 0.000937
v 1.000000 0.900993 -0.000000
v 1.000000 0.899207 0.011276
v 1.000000 0.900000 0.010527
v 1.000000 1.260000 0.024937
v 1.000000 1.080000 0.000937
v 1.000000 1.080000 0.024937
v 1.000000 1.259207 0.011276
v 1.000000 1.080993 -0.000000
v 1.000000 1.079207 0.011276
v 1.000000 1.080000 0.010527
v 1.000000 1.260000 0.000937
v 1.000000 1.439208 0.011276
v 1.000000 1.260993 -0.000000
v 1.000000 1.260000 0.010527
v 1.000000 1.440001 0.000937
v 1.000000 1.440001 0.024937
v 1.000000 1.440993 -0.000000
v 1.000000 1.440001 0.010527
v 1.000000 1.620001 0.000937
v 1.000000 1.620001 0.024937
v 1.000000 1.799208 0.011276
v 1.000000 1.620993 -0.000000
v 1.000000 1.619208 0.011276
v 1.000000 1.620001 0.010527
v 1.000000 1.980001 0.024937
v 1.000000 1.800001 0.000937
v 1.000000 1.800001 0.024937
v 1.000000 1.979208 0.011276
v 1.000000 1.800993 -0.000000
v 1.000000 1.800001 0.010527
v 1.000000 2.160001 0.024937
v 1.000000 1.980001 0.000937
v 1.000000 2.159208 0.011276
v 1.000000 1.980993 -0.000000
v 1.000000 1.980001 0.010527
v 1.000000 2.160001 0.000937
v 1.000000 2.160993 -0.000000
v 1.000000 2.160001 0.010527
v 0.000001 0.000000 0.000937
v 0.000001 0.000000 0.024937
v 0.000000 0.179207 0.011276
v 0.000000 0.000993 -0.000000
v 0.000000 0.360000 0.024937
v 0.000001 0.180000 0.000937
v 0.000001 0.180000 0.024937
v 0.000000 0.359207 0.011276
v 0.000000 0.180993 -0.000000
v 0.000001 0.180000 0.010527
v 0.000001 0.540000 0.024937
v 0.000001 0.360000 0.000937
v 0.000001 0.539207 0.011276
v 0.000001 0.360993 -0.000000
v 0.000001 0.360000 0.010527
v 0.000001 0.720000 0.024937
v 0.000001 0.540000 0.000937
v 0.000001 0.540993 -0.000000
v 0.000001 0.540000 0.010527
v 0.000001 0.720000 0.000937
v 0.000001 0.720993 -0.000000
v 0.000001 0.719207 0.011276
v 0.000001 0.720000 0.010527
v 0.000000 1.080000 0.024937
v 0.000000 0.900000 0.000937
v 0.000000 0.900000 0.024937
v 0.000000 1.079207 0.011276
v 0.000000 0.900993 -0.000000
v 0.000000 0.899207 0.011276
v 0.000000 0.900000 0.010527
v 0.000000 1.080000 0.000937
v 0.000000 1.080993 -0.000000
v 0.000000 1.080000 0.010527
v 0.000000 1.260000 0.000937
v 0.000000 1.260000 0.024937
v 0.000000 1.439208 0.011276
v 0.000000 1.260993 -0.000000
v 0.000000 1.259207 0.011276
v 0.000000 1.260000 0.010527
v 0.000000 1.440001 0.000937
v 0.000000 1.440001 0.024937
v 0.000000 1.440993 -0.000000
v 0.000000 1.440001 0.010527
v 0.000001 1.620001 0.000937
v 0.000001 1.620001 0.024937
v 0.000000 1.620993 -0.000000
v 0.000000 1.619208 0.011276
v 0.000001 1.620001 0.010527
v 0.000000 1.980001 0.024937
v 0.000001 1.800001 0.000937
v 0.000001 1.800001 0.024937
v 0.000000 1.979208 0.011276
v 0.000000 1.800993 -0.000000
v 0.000000 1.799208 0.011276
v 0.000001 1.800001 0.010527
v 0.000001 1.980001 0.000937
v 0.000000 2.159208 0.011276
v 0.000000 1.980993 -0.000000
v 0.000001 1.980001 0.010527
v 0.000001 2.160001 0.000937
v 0.000001 2.160001 0.024937
v 0.000000 2.160993 -0.000000
v 0.000001 2.160001 0.010527
v 0.000001 2.200000 0.024937
v 1.000000 2.200000 0.024937
v 1.000000 2.200000 0.002468
v 0.000000 2.200000 0.002468
vn -1.0000 -0.0000 -0.0000
vn 1.0000 -0.0003 -0.0000
vn -0.0000 -0.6865 -0.7271
vn -0.0000 -0.0000 1.0000
vn -0.0000 -1.0000 -0.0000
vn -0.0000 0.0631 -0.9980
vn -0.0000 -0.6865 -0.7272
vn -0.0000 1.0000 -0.0000
vn -0.0000 -0.6866 -0.7271
vn -1.0000 -0.0005 -0.0000
vn -1.0000 0.0006 -0.0000
vn 1.0000 -0.0000 -0.0000
vn 1.0000 0.0002 -0.0000
vn 1.0000 -0.0006 -0.0000
vn 1.0000 0.0005 -0.0000
vt 0.393508 -0.028120
vt 0.394296 -0.027822
vt 0.394296 -0.024774
vt 1.731457 -0.024547
vt 1.732087 -0.024785
vt 1.732087 -0.020205
vt 3.746960 0.308762
vt 2.966306 0.308762
vt 2.966307 0.306974
vt 3.746960 0.306974
vt 2.966328 2.403091
vt 2.966328 2.345882
vt 3.746987 2.345882
vt 3.746987 2.403091
vt 3.746960 0.167494
vt 2.966306 0.167494
vt 2.966306 0.164516
vt 3.746960 0.164516
vt 2.966329 1.473801
vt 2.966328 1.416591
vt 3.746987 1.416591
vt 3.746987 1.473801
vt 3.746963 1.135734
vt 2.966309 1.135734
vt 2.966309 1.133942
vt 3.746963 1.133942
vt 3.746987 1.706124
vt 2.966328 1.706123
vt 2.966328 1.648914
vt 3.746987 1.648914
vt 3.746960 0.635930
vt 2.966307 0.635930
vt 2.966307 0.580478
vt 3.746960 0.580478
vt 0.251903 -0.024536
vt 0.394296 -0.020194
vt 0.251273 -0.020194
vt 3.746960 0.825407
vt 3.746960 0.827195
vt 2.966307 0.827195
vt 2.966307 0.825406
vt 2.966328 2.325651
vt 2.966328 2.268441
vt 3.746987 2.268441
vt 3.746987 2.325651
vt 3.746963 1.076610
vt 2.966309 1.076610
vt 2.966309 1.069145
vt 3.746963 1.069145
vt 3.746960 0.719958
vt 2.966306 0.719958
vt 2.966307 0.718169
vt 3.746960 0.718169
vt 3.746960 0.660928
vt 3.746960 0.662717
vt 2.966307 0.662717
vt 2.966307 0.660928
vt 3.746960 0.553691
vt 2.966307 0.553691
vt 2.966307 0.498239
vt 3.746960 0.498239
vt 3.746960 0.555480
vt 2.966306 0.555480
vt 3.746960 0.989884
vt 2.966307 0.989884
vt 2.966307 0.986906
vt 3.746960 0.986906
vt 2.966329 1.396360
vt 2.966328 1.339151
vt 3.746987 1.339151
vt 3.746987 1.396360
vt 3.746987 1.938446
vt 2.966329 1.938446
vt 2.966328 1.881237
vt 3.746987 1.881237
vt 2.966309 1.078402
vt 3.746963 1.078402
vt 3.746960 0.991673
vt 2.966307 0.991673
vt 3.746960 0.331972
vt 3.746960 0.333761
vt 2.966307 0.333761
vt 2.966306 0.331972
vt 3.746960 1.048914
vt 2.966306 1.048914
vt 2.966307 1.047125
vt 3.746960 1.047125
vt 3.746960 0.085255
vt 2.966306 0.085255
vt 2.966306 0.082277
vt 3.746960 0.082277
vt 3.746960 0.637718
vt 2.966306 0.637718
vt 2.966307 0.822428
vt 3.746960 0.822428
vt 2.966307 0.657950
vt 3.746960 0.657950
vt 2.966307 0.099181
vt 2.966307 0.087044
vt 3.746960 0.087044
vt 3.746961 0.099181
vt 3.746987 2.248210
vt 2.966328 2.248210
vt 2.966328 2.191000
vt 3.746987 2.191000
vt 3.746960 0.473241
vt 2.966306 0.473241
vt 2.966307 0.471452
vt 3.746960 0.471452
vt 3.746960 0.578689
vt 2.966307 0.578689
vt 3.746960 0.496450
vt 2.966307 0.496450
vt 2.966307 0.493472
vt 3.746960 0.493472
vt 3.746960 0.802197
vt 2.966306 0.802197
vt 2.966307 0.800408
vt 3.746960 0.800408
vt 3.746960 0.909434
vt 3.746960 0.964886
vt 2.966307 0.964886
vt 2.966307 0.909434
vt 3.746960 0.224734
vt 2.966307 0.224734
vt 2.966307 0.169283
vt 3.746960 0.169283
vt 3.746987 1.615970
vt 3.746987 1.628683
vt 2.966329 1.628683
vt 2.966329 1.615970
vt 2.966307 0.744956
vt 3.746960 0.744956
vt 3.746960 0.414211
vt 3.746960 0.416000
vt 2.966307 0.416000
vt 2.966307 0.414211
vt 1.352656 0.498766
vt 0.102656 0.498766
vt 0.102657 0.487531
vt 1.352656 0.487531
vt 3.746960 0.226523
vt 2.966306 0.226523
vt 3.746960 0.391001
vt 2.966306 0.391001
vt 2.966307 0.389213
vt 3.746960 0.389213
vt 2.966306 0.328994
vt 3.746960 0.328994
vt 2.966307 0.575711
vt 3.746960 0.575711
vt 2.966307 0.251522
vt 3.746960 0.251522
vt 3.746960 0.882647
vt 2.966307 0.882647
vt 3.746960 0.743167
vt 2.966307 0.743167
vt 2.966307 0.740189
vt 3.746960 0.740189
vt 3.746987 2.170768
vt 2.966329 2.170768
vt 2.966328 2.113559
vt 3.746987 2.113559
vt 3.746987 1.783565
vt 2.966329 1.783565
vt 2.966328 1.726355
vt 3.746987 1.726355
vt 2.966329 1.861005
vt 2.966328 1.803796
vt 3.746987 1.803796
vt 3.746987 1.861005
vt 3.746960 0.884436
vt 2.966306 0.884436
vt 2.966328 1.318919
vt 2.966329 1.261710
vt 3.746987 1.261710
vt 3.746987 1.318919
vt 3.746960 0.907645
vt 2.966307 0.907645
vt 2.966307 0.904667
vt 3.746960 0.904667
vt 3.746960 0.966675
vt 2.966306 0.966675
vt 3.746960 0.249733
vt 2.966307 0.249733
vt 2.966328 2.015887
vt 2.966328 1.958678
vt 3.746987 1.958677
vt 3.746987 2.015887
vt 2.966307 0.411233
vt 3.746960 0.411233
vt -0.352603 -0.020194
vt -0.352603 -0.027335
vt -0.320821 -0.024774
vt -0.320821 -0.020194
vt 1.394671 -0.028120
vt 1.395461 -0.027822
vt 1.395461 -0.020194
vt -0.177168 -0.024536
vt -0.034775 -0.024774
vt -0.034775 -0.020194
vt -0.177798 -0.020194
vt 1.253067 -0.024536
vt 1.252438 -0.020194
vt 1.252438 -0.024774
vt 2.447205 -0.020205
vt 2.447205 -0.024785
vt 2.589598 -0.024547
vt 2.590228 -0.020205
vt 1.251649 -0.028120
vt 1.252437 -0.027822
vt 1.110044 -0.024536
vt 1.109413 -0.020194
vt 1.109413 -0.024774
vt 0.394926 -0.024536
vt 0.537319 -0.024774
vt 0.537319 -0.020194
vt 2.304180 -0.020205
vt 2.304180 -0.024785
vt 2.446573 -0.024547
vt 1.108625 -0.028120
vt 1.109413 -0.027822
vt 0.967020 -0.024536
vt 0.966390 -0.020194
vt 0.966390 -0.024774
vt 2.590227 -0.024785
vt 2.732620 -0.024547
vt 2.733250 -0.020205
vt 0.823997 -0.024536
vt 0.823367 -0.020194
vt 0.680973 -0.024536
vt 0.680343 -0.020194
vt 0.680343 -0.024774
vt 0.823367 -0.024774
vt -0.034144 -0.024536
vt 0.108249 -0.024774
vt 0.108249 -0.020194
vt 0.251273 -0.024774
vt 1.446039 -0.020205
vt 1.446828 -0.028131
vt 1.588434 -0.024547
vt 1.589064 -0.020205
vt 3.194103 -0.020205
vt 3.162321 -0.020205
vt 3.162321 -0.024785
vt 3.194103 -0.027347
vt -0.320191 -0.024536
vt -0.321610 -0.028120
vt -0.320821 -0.027822
vt -0.178586 -0.028120
vt -0.177798 -0.024774
vt -0.177798 -0.027822
vt -0.035563 -0.028120
vt -0.034775 -0.027822
vt 0.537950 -0.024536
vt 0.965601 -0.028120
vt 0.966390 -0.027822
vt 0.107460 -0.028120
vt 0.108249 -0.027822
vt 0.822578 -0.028120
vt 0.823367 -0.027822
vt 0.679555 -0.028120
vt 0.680343 -0.027822
vt 0.108879 -0.024536
vt 0.250484 -0.028120
vt 0.251273 -0.027822
vt 0.536531 -0.028120
vt 0.537319 -0.027822
vt 3.162321 -0.027833
vt 3.163110 -0.028131
vt 3.161693 -0.024547
vt 1.874480 -0.024547
vt 1.875110 -0.020205
vt 3.019297 -0.027833
vt 3.020086 -0.028131
vt 3.019297 -0.024785
vt 2.733250 -0.024785
vt 2.875645 -0.024547
vt 2.876274 -0.020205
vt 2.876275 -0.024785
vt 3.018668 -0.024547
vt 3.019297 -0.020205
vt 2.161157 -0.020205
vt 2.161157 -0.024785
vt 2.303550 -0.024547
vt 2.876275 -0.027833
vt 2.877063 -0.028131
vt 2.018133 -0.020205
vt 2.018133 -0.024785
vt 2.160528 -0.024547
vt 2.733250 -0.027833
vt 2.734039 -0.028131
vt 2.590227 -0.027833
vt 2.591017 -0.028131
vt 2.447205 -0.027833
vt 2.447992 -0.028131
vt 1.589063 -0.024785
vt 2.304182 -0.027833
vt 2.304969 -0.028131
vt 1.446040 -0.027833
vt 1.875110 -0.024785
vt 2.017503 -0.024547
vt 2.161158 -0.027833
vt 2.161945 -0.028131
vt 2.018133 -0.027833
vt 2.018922 -0.028131
vt 1.589063 -0.027833
vt 1.589852 -0.028131
vt 1.875111 -0.027833
vt 1.875899 -0.028131
vt 1.732087 -0.027833
vt 1.732876 -0.028131
vt 2.966306 0.246755
vt 3.746960 0.246755
s 0
usemtl wood
f 100/1/1 97/2/1 102/3/1
f 7/4/2 15/5/2 5/6/2
f 122/7/3 60/8/3 53/9/3 115/10/3
f 69/15/5 6/16/5 10/17/5 73/18/5
f 73/23/3 10/24/3 9/25/3 66/26/3
f 101/31/6 32/32/6 33/33/6 95/34/6
f 99/35/1 102/3/1 98/36/1 104/37/1
f 103/38/7 105/39/7 42/40/7 40/41/7
f 64/46/5 2/47/5 3/48/5 65/49/5
f 86/50/3 24/51/3 23/52/3 85/53/3
f 80/54/7 81/55/7 18/56/7 17/57/7
f 120/58/6 58/59/6 59/60/6 121/61/6
f 126/62/3 63/63/3 58/59/3 120/58/3
f 75/64/5 12/65/5 15/66/5 78/67/5
f 66/26/6 9/25/6 4/76/6 67/77/6
f 75/64/7 77/78/7 14/79/7 12/65/7
f 85/53/6 23/52/6 18/56/6 81/55/6
f 88/80/7 91/81/7 26/82/7 25/83/7
f 82/84/3 19/85/3 13/86/3 76/87/3
f 123/88/5 61/89/5 63/90/5 126/91/5
f 102/92/3 39/93/3 32/32/3 101/31/3
f 103/38/5 40/41/5 43/94/5 106/95/5
f 76/87/6 13/86/6 14/79/6 77/78/6
f 80/54/5 17/57/5 19/96/5 82/97/5
f 129/98/6 62/99/6 125/100/6 130/101/6
f 64/46/7 67/77/7 4/76/7 2/47/7
f 118/106/3 55/107/3 46/108/3 117/109/3
f 94/110/7 95/34/7 33/33/7 30/111/7
f 119/112/5 57/113/5 60/114/5 122/115/5
f 106/116/3 43/117/3 37/118/3 99/119/3
f 84/120/6 92/121/6 27/122/6 22/123/6
f 71/124/6 7/125/6 8/126/6 72/127/6
f 99/119/6 37/118/6 38/132/6 100/133/6
f 107/134/7 109/135/7 47/136/7 44/137/7
f 129/138/8 130/139/8 127/140/8 128/141/8
f 78/142/3 15/143/3 7/125/3 71/124/3
f 96/144/3 35/145/3 34/146/3 90/147/3
f 88/80/5 25/83/5 28/148/5 93/149/5
f 94/110/5 30/111/5 35/150/5 96/151/5
f 69/15/7 72/127/7 8/126/7 6/16/7
f 115/10/6 53/9/6 54/152/6 116/153/6
f 110/154/6 48/155/6 42/40/6 105/39/6
f 97/156/5 36/157/5 39/158/5 102/159/5
f 117/109/6 46/108/6 47/136/6 109/135/6
f 119/112/7 121/61/7 59/60/7 57/113/7
f 123/88/9 125/100/9 62/99/9 61/89/9
f 90/147/6 34/146/6 26/82/6 91/81/6
f 111/172/3 49/173/3 48/155/3 110/154/3
f 97/156/7 100/133/7 38/132/7 36/157/7
f 83/178/5 21/179/5 24/180/5 86/181/5
f 93/182/3 28/183/3 27/122/3 92/121/3
f 113/184/7 116/153/7 54/152/7 51/185/7
f 107/134/5 44/137/5 49/190/5 111/191/5
f 127/192/1 130/193/1 126/194/1 124/195/1
f 67/196/10 64/197/10 65/198/10
f 115/199/1 118/200/1 114/201/1 112/202/1
f 66/203/11 70/204/11 73/205/11
f 29/206/12 39/207/12 37/208/12 41/209/12
f 72/210/10 69/211/10 73/205/10
f 71/212/11 68/213/11 78/214/11
f 101/215/1 96/216/1 87/217/1 98/36/1
f 73/205/1 70/204/1 68/213/1 71/212/1
f 31/218/12 35/219/12 32/220/12 29/206/12
f 71/212/1 72/210/1 73/205/1
f 77/221/1 75/222/1 78/214/1
f 76/223/1 77/221/1 78/214/1
f 76/223/1 74/224/1 82/225/1
f 41/209/12 43/226/12 48/227/12 45/228/12
f 85/229/1 82/225/1 74/224/1 79/230/1
f 92/231/1 89/232/1 93/233/1
f 85/229/1 79/230/1 86/234/1
f 117/235/1 111/236/1 108/237/1 114/201/1
f 78/214/1 68/213/1 74/224/1 76/223/1
f 92/231/1 86/234/1 79/230/1 89/232/1
f 99/35/1 104/37/1 106/238/1
f 3/239/12 4/240/12 9/241/12 1/242/12
f 128/243/12 56/244/12 63/245/12 129/246/12
f 120/247/11 124/195/11 126/194/11
f 130/193/1 125/248/1 126/194/1
f 125/248/10 123/249/10 126/194/10
f 120/247/1 121/250/1 122/251/1
f 121/250/10 119/252/10 122/251/10
f 122/251/11 115/199/11 112/202/11
f 115/199/1 116/253/1 118/200/1
f 116/253/10 113/254/10 118/200/10
f 90/255/1 87/217/1 96/216/1
f 81/256/1 80/257/1 82/225/1
f 117/235/1 109/258/1 111/236/1
f 109/258/10 107/259/10 111/236/10
f 118/200/11 117/235/11 114/201/11
f 85/229/1 81/256/1 82/225/1
f 84/260/1 83/261/1 86/234/1
f 101/215/1 98/36/1 102/3/1
f 92/231/1 84/260/1 86/234/1
f 91/262/1 88/263/1 93/233/1
f 111/236/11 110/264/11 108/237/11
f 110/264/1 105/265/1 106/238/1
f 105/265/1 103/266/1 106/238/1
f 90/255/1 91/262/1 93/233/1
f 95/267/1 94/268/1 96/216/1
f 101/215/1 95/267/1 96/216/1
f 99/35/1 100/1/1 102/3/1
f 61/269/13 62/270/13 63/245/13
f 62/270/12 129/246/12 63/245/12
f 63/245/2 56/244/2 58/271/2
f 90/255/1 93/233/1 89/232/1 87/217/1
f 5/6/12 15/5/12 13/272/12 11/273/12
f 57/274/13 59/275/13 60/276/13
f 59/275/12 58/271/12 60/276/12
f 45/228/12 49/277/12 46/278/12 52/279/12
f 52/279/2 46/278/2 55/280/2
f 52/279/12 55/280/12 53/281/12 50/282/12
f 120/247/1 122/251/1 112/202/1 124/195/1
f 29/206/2 32/220/2 39/207/2
f 20/283/12 28/284/12 34/285/12 31/218/12
f 51/286/13 54/287/13 55/280/13
f 54/287/12 53/281/12 55/280/12
f 53/281/2 60/276/2 50/282/2
f 16/288/12 24/289/12 27/290/12 20/283/12
f 45/228/2 48/227/2 49/277/2
f 44/291/13 47/292/13 49/277/13
f 47/292/12 46/278/12 49/277/12
f 41/209/2 37/208/2 43/226/2
f 110/264/1 106/238/1 104/37/1 108/237/1
f 40/293/13 42/294/13 43/226/13
f 42/294/12 48/227/12 43/226/12
f 58/271/12 56/244/12 50/282/12 60/276/12
f 36/295/13 38/296/13 39/207/13
f 38/296/12 37/208/12 39/207/12
f 31/218/14 34/285/14 35/219/14
f 1/242/12 10/297/12 7/4/12 5/6/12
f 30/298/13 33/299/13 35/219/13
f 33/299/12 32/220/12 35/219/12
f 20/283/14 27/290/14 28/284/14
f 65/198/1 70/204/1 66/203/1 67/196/1
f 3/239/13 2/300/13 4/240/13
f 11/273/12 19/301/12 23/302/12 16/288/12
f 25/303/15 26/304/15 28/284/15
f 26/304/12 34/285/12 28/284/12
f 16/288/2 23/302/2 24/289/2
f 21/305/13 22/306/13 24/289/13
f 22/306/12 27/290/12 24/289/12
f 11/273/2 13/272/2 19/301/2
f 1/242/2 9/241/2 10/297/2
f 10/297/13 6/307/13 8/308/13
f 10/297/12 8/308/12 7/4/12
f 17/309/13 18/310/13 19/301/13
f 18/310/12 23/302/12 19/301/12
f 15/5/13 12/311/13 14/312/13
f 15/5/12 14/312/12 13/272/12
f 83/178/7 84/120/7 22/123/7 21/179/7
f 113/184/5 51/185/5 55/313/5 118/314/5
usemtl wood_black
f 29/11/4 41/12/4 104/13/4 98/14/4
f 45/19/4 52/20/4 114/21/4 108/22/4
f 65/27/4 3/28/4 1/29/4 70/30/4
f 41/42/4 45/43/4 108/44/4 104/45/4
f 11/68/4 16/69/4 79/70/4 74/71/4
f 114/72/4 52/73/4 50/74/4 112/75/4
f 87/102/4 31/103/4 29/104/4 98/105/4
f 127/128/4 124/129/4 56/130/4 128/131/4
f 70/160/4 1/161/4 5/162/4 68/163/4
f 79/164/4 16/165/4 20/166/4 89/167/4
f 20/168/4 31/169/4 87/170/4 89/171/4
f 50/174/4 56/175/4 124/176/4 112/177/4
f 5/186/4 11/187/4 74/188/4 68/189/4
