# Blender 4.0.2
# www.blender.org
mtllib wall_blockhut_1800x1000.mtl
o wall_blockhut_1800x1000
v 1.000000 -0.000055 0.020937
v 1.000000 0.003945 0.024937
v 1.000000 0.003945 0.000937
v 1.000000 -0.000055 0.004937
v 1.000000 0.179945 0.020937
v 1.000000 0.175945 0.024937
v 1.000000 0.179945 0.004937
v 1.000000 0.175945 0.000937
v 0.000000 -0.000055 0.020937
v 0.000000 0.003945 0.024937
v 0.000000 0.003945 0.000937
v 0.000000 -0.000055 0.004937
v 0.000000 0.179945 0.020937
v 0.000000 0.175945 0.024937
v 0.000000 0.179945 0.004937
v 0.000000 0.175945 0.000937
v 1.000000 0.183945 0.024937
v 1.000000 0.183945 0.000937
v 1.000000 0.359945 0.020937
v 1.000000 0.355945 0.024937
v 1.000000 0.359945 0.004937
v 1.000000 0.355945 0.000937
v 0.000000 0.183945 0.024937
v 0.000000 0.183945 0.000937
v 0.000000 0.359945 0.020937
v 0.000000 0.355945 0.024937
v 0.000000 0.359945 0.004937
v 0.000000 0.355945 0.000937
v 1.000000 0.363945 0.024937
v 1.000000 0.363945 0.000937
v 1.000000 0.539945 0.020937
v 1.000000 0.535945 0.024937
v 1.000000 0.539945 0.004937
v 1.000000 0.535945 0.000937
v 0.000000 0.363945 0.024937
v 0.000000 0.363945 0.000937
v 0.000000 0.539945 0.020937
v 0.000000 0.535945 0.024937
v 0.000000 0.539945 0.004937
v 0.000000 0.535945 0.000937
v 1.000000 0.543945 0.024937
v 1.000000 0.543945 0.000937
v 1.000000 0.719945 0.020937
v 1.000000 0.715945 0.024937
v 1.000000 0.719945 0.004937
v 1.000000 0.715945 0.000937
v 0.000000 0.543945 0.024937
v 0.000000 0.543945 0.000937
v 0.000000 0.719945 0.020937
v 0.000000 0.715945 0.024937
v 0.000000 0.719945 0.004937
v 0.000000 0.715945 0.000937
v 1.000000 0.723945 0.024937
v 1.000000 0.723945 0.000937
v 1.000000 0.899945 0.020937
v 1.000000 0.895945 0.024937
v 1.000000 0.899945 0.004937
v 1.000000 0.895945 0.000937
v 0.000000 0.723946 0.024937
v 0.000000 0.723946 0.000937
v 0.000000 0.899946 0.020937
v 0.000000 0.895946 0.024937
v 0.000000 0.899946 0.004937
v 0.000000 0.895946 0.000937
v 1.000000 0.903946 0.024937
v 1.000000 0.903946 0.000937
v 1.000000 1.079946 0.020937
v 1.000000 1.075946 0.024937
v 1.000000 1.079946 0.004937
v 1.000000 1.075946 0.000937
v 0.000000 0.903946 0.024937
v 0.000000 0.903946 0.000937
v 0.000000 1.079946 0.020937
v 0.000000 1.075946 0.024937
v 0.000000 1.079946 0.004937
v 0.000000 1.075946 0.000937
v 1.000000 1.083946 0.024937
v 1.000000 1.083946 0.000937
v 1.000000 1.259946 0.020937
v 1.000000 1.255946 0.024937
v 1.000000 1.259946 0.004937
v 1.000000 1.255946 0.000937
v 0.000000 1.083946 0.024937
v 0.000000 1.083946 0.000937
v 0.000000 1.259946 0.020937
v 0.000000 1.255946 0.024937
v 0.000000 1.259946 0.004937
v 0.000000 1.255946 0.000937
v 1.000000 1.263946 0.024937
v 1.000000 1.263946 0.000937
v 1.000000 1.439946 0.020937
v 1.000000 1.435946 0.024937
v 1.000000 1.439946 0.004937
v 1.000000 1.435946 0.000937
v 0.000000 1.263946 0.024937
v 0.000000 1.263946 0.000937
v 0.000000 1.439946 0.020937
v 0.000000 1.435946 0.024937
v 0.000000 1.439946 0.004937
v 0.000000 1.435946 0.000937
v 1.000000 1.443946 0.024937
v 1.000000 1.443946 0.000937
v 1.000000 1.619946 0.020937
v 1.000000 1.615946 0.024937
v 1.000000 1.619946 0.004937
v 1.000000 1.615946 0.000937
v 0.000000 1.443946 0.024937
v 0.000000 1.443946 0.000937
v 0.000000 1.619946 0.020937
v 0.000000 1.615946 0.024937
v 0.000000 1.619946 0.004937
v 0.000000 1.615946 0.000937
v 1.000000 1.623946 0.024937
v 1.000000 1.623946 0.000937
v 1.000000 1.799946 0.020937
v 1.000000 1.795946 0.024937
v 1.000000 1.799946 0.004937
v 1.000000 1.795946 0.000937
v 0.000000 1.623946 0.024937
v 0.000000 1.623946 0.000937
v 0.000000 1.799946 0.020937
v 0.000000 1.795946 0.024937
v 0.000000 1.799946 0.004937
v 0.000000 1.795946 0.000937
vn 1.0000 -0.0000 -0.0000
vn -1.0000 -0.0000 -0.0000
vn -0.0000 -0.0000 1.0000
vn -0.0000 -0.7071 0.7071
vn -0.0000 -1.0000 -0.0000
vn -0.0000 -0.7071 -0.7071
vn -0.0000 -0.0000 -1.0000
vn -0.0000 0.7071 -0.7071
vn -0.0000 1.0000 -0.0000
vn -0.0000 0.7071 0.7071
vt 0.914154 0.879924
vt 0.913361 0.879131
vt 0.913361 0.875961
vt 0.914154 0.875168
vt 0.948239 0.875168
vt 0.949032 0.875961
vt 0.949032 0.879131
vt 0.948239 0.879924
vt 0.914154 0.863278
vt 0.948239 0.863278
vt 0.949032 0.864071
vt 0.949032 0.867241
vt 0.948239 0.868034
vt 0.914154 0.868034
vt 0.913361 0.867241
vt 0.913361 0.864071
vt 0.913361 0.612621
vt 0.913361 0.646707
vt 0.363439 0.646707
vt 0.363439 0.612621
vt 0.612743 0.611500
vt 0.612743 0.612621
vt 0.062821 0.612621
vt 0.062821 0.611500
vt 0.062821 0.061834
vt 0.062821 0.058663
vt 0.612743 0.058663
vt 0.612743 0.061834
vt 0.062821 0.575733
vt 0.062821 0.574613
vt 0.612743 0.574613
vt 0.612743 0.575734
vt 0.363439 0.610379
vt 0.363439 0.576294
vt 0.913361 0.576294
vt 0.913361 0.610379
vt 0.062821 0.612060
vt 0.062821 0.610940
vt 0.612743 0.610940
vt 0.612743 0.612061
vt 0.062821 0.055493
vt 0.612743 0.055493
vt 0.612743 0.646707
vt 0.612743 0.647828
vt 0.062821 0.647828
vt 0.062821 0.646707
vt 0.613536 0.988906
vt 0.612743 0.988114
vt 0.612743 0.984943
vt 0.613536 0.984150
vt 0.647621 0.984150
vt 0.648414 0.984943
vt 0.648414 0.988114
vt 0.647621 0.988906
vt 0.613536 0.977809
vt 0.647621 0.977809
vt 0.648414 0.978601
vt 0.648414 0.981772
vt 0.647621 0.982565
vt 0.613536 0.982565
vt 0.612743 0.981772
vt 0.612743 0.978601
vt 0.062821 0.247106
vt 0.062821 0.213021
vt 0.612743 0.213021
vt 0.612743 0.247106
vt 0.062821 0.248227
vt 0.612743 0.248227
vt 0.612743 0.574612
vt 0.612743 0.575734
vt 0.062821 0.575734
vt 0.062821 0.574612
vt 0.612743 0.539967
vt 0.612743 0.574052
vt 0.062821 0.574052
vt 0.062821 0.539967
vt 0.612743 0.538285
vt 0.612743 0.539407
vt 0.062821 0.539406
vt 0.062821 0.538286
vt 0.062821 0.054700
vt 0.612743 0.054700
vt 0.612743 0.051529
vt 0.062821 0.051529
vt 0.062821 0.211900
vt 0.612743 0.211900
vt 0.914154 0.977809
vt 0.913361 0.977016
vt 0.913361 0.973846
vt 0.914154 0.973053
vt 0.948239 0.973053
vt 0.949032 0.973846
vt 0.949032 0.977016
vt 0.948239 0.977809
vt 0.914154 0.896570
vt 0.948239 0.896570
vt 0.949032 0.897363
vt 0.949032 0.900534
vt 0.948239 0.901327
vt 0.914154 0.901327
vt 0.913361 0.900534
vt 0.913361 0.897363
vt 0.363439 0.210779
vt 0.363439 0.176693
vt 0.913361 0.176693
vt 0.913361 0.210779
vt 0.062821 0.210779
vt 0.612743 0.210779
vt 0.062821 0.721043
vt 0.062821 0.719922
vt 0.612743 0.719921
vt 0.612743 0.721043
vt 0.363439 0.755689
vt 0.363439 0.721603
vt 0.913361 0.721603
vt 0.913361 0.755689
vt 0.062821 0.757370
vt 0.062821 0.756249
vt 0.612743 0.756250
vt 0.612743 0.757371
vt 0.062821 0.050736
vt 0.062821 0.047566
vt 0.612743 0.047566
vt 0.612743 0.050736
vt 0.062821 0.176693
vt 0.062821 0.175572
vt 0.612743 0.175572
vt 0.612743 0.176693
vt 0.613535 0.907668
vt 0.612743 0.906875
vt 0.612743 0.903705
vt 0.613535 0.902912
vt 0.647621 0.902912
vt 0.648413 0.903705
vt 0.648413 0.906875
vt 0.647621 0.907668
vt 0.648413 0.908461
vt 0.648413 0.911631
vt 0.647621 0.912424
vt 0.613535 0.912424
vt 0.612743 0.911631
vt 0.612743 0.908461
vt 0.062821 0.501397
vt 0.062821 0.467312
vt 0.612743 0.467312
vt 0.612743 0.501397
vt 0.062821 0.502518
vt 0.612743 0.502518
vt 0.062821 0.684715
vt 0.062821 0.683595
vt 0.612743 0.683594
vt 0.612743 0.684716
vt 0.062821 0.719361
vt 0.062821 0.685276
vt 0.612743 0.685276
vt 0.612743 0.719361
vt 0.062821 0.721042
vt 0.062821 0.719921
vt 0.062821 0.046773
vt 0.062821 0.043602
vt 0.612743 0.043602
vt 0.612743 0.046773
vt 0.062821 0.466191
vt 0.612743 0.466191
vt 0.914154 0.966190
vt 0.913361 0.965398
vt 0.913361 0.962227
vt 0.914154 0.961434
vt 0.948239 0.961434
vt 0.949032 0.962227
vt 0.949032 0.965398
vt 0.948239 0.966190
vt 0.914154 0.932898
vt 0.948239 0.932898
vt 0.949032 0.933691
vt 0.949032 0.936861
vt 0.948239 0.937654
vt 0.914154 0.937654
vt 0.913361 0.936861
vt 0.913361 0.933691
vt 0.363439 0.465070
vt 0.363439 0.430985
vt 0.913361 0.430985
vt 0.913361 0.465070
vt 0.062821 0.465070
vt 0.612743 0.465070
vt 0.062821 0.939008
vt 0.062821 0.937886
vt 0.612743 0.937886
vt 0.612743 0.939008
vt 0.363439 0.973653
vt 0.363439 0.939568
vt 0.913361 0.939568
vt 0.913361 0.973653
vt 0.062821 0.975334
vt 0.062821 0.974213
vt 0.612743 0.974214
vt 0.612743 0.975334
vt 0.062821 0.042809
vt 0.062821 0.039639
vt 0.612743 0.039639
vt 0.612743 0.042809
vt 0.062821 0.430985
vt 0.062821 0.429864
vt 0.612743 0.429864
vt 0.612743 0.430985
vt 0.613535 0.891022
vt 0.612743 0.890229
vt 0.612743 0.887059
vt 0.613535 0.886266
vt 0.647621 0.886266
vt 0.648413 0.887059
vt 0.648413 0.890229
vt 0.647621 0.891022
vt 0.613535 0.868827
vt 0.647621 0.868827
vt 0.648413 0.869619
vt 0.648413 0.872790
vt 0.647621 0.873583
vt 0.613535 0.873583
vt 0.612743 0.872790
vt 0.612743 0.869619
vt 0.062821 0.174451
vt 0.062821 0.140366
vt 0.612743 0.140366
vt 0.612743 0.174451
vt 0.062821 0.503079
vt 0.062821 0.501958
vt 0.612743 0.501958
vt 0.612743 0.503079
vt 0.062821 0.537724
vt 0.062821 0.503639
vt 0.612743 0.503639
vt 0.612743 0.537724
vt 0.062821 0.539407
vt 0.062821 0.538285
vt 0.612743 0.538285
vt 0.612743 0.539406
vt 0.062821 0.038846
vt 0.062821 0.035675
vt 0.612743 0.035675
vt 0.612743 0.038846
vt 0.062821 0.139245
vt 0.612743 0.139245
vt 0.914154 0.943995
vt 0.913361 0.943203
vt 0.913361 0.940032
vt 0.914154 0.939239
vt 0.948239 0.939239
vt 0.949032 0.940032
vt 0.949032 0.943203
vt 0.948239 0.943995
vt 0.914154 0.949544
vt 0.948239 0.949544
vt 0.949032 0.950337
vt 0.949032 0.953507
vt 0.948239 0.954300
vt 0.914154 0.954300
vt 0.913361 0.953507
vt 0.913361 0.950337
vt 0.363439 0.428742
vt 0.363439 0.394657
vt 0.913361 0.394657
vt 0.913361 0.428742
vt 0.062821 0.429863
vt 0.062821 0.428742
vt 0.612743 0.428742
vt 0.612743 0.429863
vt 0.062821 0.067150
vt 0.062821 0.066030
vt 0.612743 0.066030
vt 0.612743 0.067151
vt 0.363439 0.101797
vt 0.363439 0.067711
vt 0.913361 0.067711
vt 0.913361 0.101797
vt 0.062821 0.103478
vt 0.062821 0.102357
vt 0.612743 0.102357
vt 0.612743 0.103477
vt 0.062821 0.034882
vt 0.062821 0.031712
vt 0.612743 0.031712
vt 0.612743 0.034882
vt 0.062821 0.394657
vt 0.062821 0.393536
vt 0.612743 0.393536
vt 0.612743 0.394657
vt 0.613535 0.949544
vt 0.612743 0.948751
vt 0.612743 0.945581
vt 0.613535 0.944788
vt 0.647621 0.944788
vt 0.648413 0.945581
vt 0.648413 0.948751
vt 0.647621 0.949544
vt 0.613535 0.955093
vt 0.647621 0.955093
vt 0.648413 0.955886
vt 0.648413 0.959056
vt 0.647621 0.959849
vt 0.613535 0.959849
vt 0.612743 0.959056
vt 0.612743 0.955886
vt 0.062821 0.392415
vt 0.062821 0.358330
vt 0.612743 0.358330
vt 0.612743 0.392415
vt 0.062821 0.902680
vt 0.062821 0.901558
vt 0.612743 0.901559
vt 0.612743 0.902680
vt 0.062821 0.937326
vt 0.062821 0.903240
vt 0.612743 0.903240
vt 0.612743 0.937326
vt 0.062821 0.939007
vt 0.612743 0.937887
vt 0.612743 0.939008
vt 0.062821 0.030919
vt 0.062821 0.027748
vt 0.612743 0.027748
vt 0.612743 0.030919
vt 0.062821 0.357209
vt 0.612743 0.357209
vt 0.914154 0.971739
vt 0.913361 0.970946
vt 0.913361 0.967776
vt 0.914154 0.966983
vt 0.948239 0.966983
vt 0.949032 0.967776
vt 0.949032 0.970946
vt 0.948239 0.971739
vt 0.914154 0.994455
vt 0.948239 0.994455
vt 0.949032 0.995248
vt 0.949032 0.998418
vt 0.948239 0.999211
vt 0.914154 0.999211
vt 0.913361 0.998418
vt 0.913361 0.995248
vt 0.363439 0.356088
vt 0.363439 0.322003
vt 0.913361 0.322003
vt 0.913361 0.356088
vt 0.062821 0.356088
vt 0.612743 0.356088
vt 0.062821 0.866352
vt 0.062821 0.865231
vt 0.612743 0.865232
vt 0.612743 0.866353
vt 0.363439 0.900998
vt 0.363439 0.866913
vt 0.913361 0.866913
vt 0.913361 0.900998
vt 0.062821 0.902679
vt 0.062821 0.901559
vt 0.612743 0.901559
vt 0.612743 0.902680
vt 0.062821 0.026955
vt 0.062821 0.023785
vt 0.612743 0.023785
vt 0.612743 0.026955
vt 0.062821 0.322003
vt 0.062821 0.320882
vt 0.612743 0.320882
vt 0.612743 0.322003
vt 0.613535 0.932898
vt 0.612743 0.932105
vt 0.612743 0.928935
vt 0.613535 0.928142
vt 0.647621 0.928142
vt 0.648413 0.928935
vt 0.648413 0.932105
vt 0.647621 0.932898
vt 0.613535 0.913217
vt 0.647621 0.913217
vt 0.648413 0.914009
vt 0.648413 0.917180
vt 0.647621 0.917973
vt 0.613535 0.917973
vt 0.612743 0.917180
vt 0.612743 0.914009
vt 0.062821 0.319761
vt 0.062821 0.285675
vt 0.612743 0.285675
vt 0.612743 0.319761
vt 0.062821 0.830025
vt 0.062821 0.828904
vt 0.612743 0.828904
vt 0.612743 0.830025
vt 0.062821 0.864671
vt 0.062821 0.830586
vt 0.612743 0.830585
vt 0.612743 0.864671
vt 0.062821 0.866352
vt 0.062821 0.865232
vt 0.612743 0.865232
vt 0.612743 0.866353
vt 0.062821 0.284554
vt 0.612743 0.284554
vt 0.062822 0.240289
vt 0.062822 0.213021
vt 0.612743 0.240289
s 0
usemtl wood
f 2/1/1 1/2/1 4/3/1 3/4/1 8/5/1 7/6/1 5/7/1 6/8/1
f 10/9/2 14/10/2 13/11/2 15/12/2 16/13/2 11/14/2 12/15/2 9/16/2
f 4/25/5 1/26/5 9/27/5 12/28/5
f 3/29/6 4/30/6 12/31/6 11/32/6
f 8/33/7 3/34/7 11/35/7 16/36/7
f 7/37/8 8/38/8 16/39/8 15/40/8
f 5/26/9 7/41/9 15/42/9 13/27/9
f 17/47/1 5/48/1 7/49/1 18/50/1 22/51/1 21/52/1 19/53/1 20/54/1
f 23/55/2 26/56/2 25/57/2 27/58/2 28/59/2 24/60/2 15/61/2 13/62/2
f 18/69/6 7/70/6 15/71/6 24/72/6
f 22/73/7 18/74/7 24/75/7 28/76/7
f 21/77/8 22/78/8 28/79/8 27/80/8
f 19/81/5 25/82/5 27/83/5 21/84/5
f 29/87/1 19/88/1 21/89/1 30/90/1 34/91/1 33/92/1 31/93/1 32/94/1
f 35/95/2 38/96/2 37/97/2 39/98/2 40/99/2 36/100/2 27/101/2 25/102/2
f 30/109/6 21/110/6 27/111/6 36/112/6
f 34/113/7 30/114/7 36/115/7 40/116/7
f 33/117/8 34/118/8 40/119/8 39/120/8
f 31/121/9 33/122/9 39/123/9 37/124/9
f 41/129/1 31/130/1 33/131/1 42/132/1 46/133/1 45/134/1 43/135/1 44/136/1
f 47/129/2 50/136/2 49/137/2 51/138/2 52/139/2 48/140/2 39/141/2 37/142/2
f 42/149/6 33/150/6 39/151/6 48/152/6
f 46/153/7 42/154/7 48/155/7 52/156/7
f 45/157/8 46/158/8 52/111/8 51/112/8
f 43/159/9 45/160/9 51/161/9 49/162/9
f 53/165/1 43/166/1 45/167/1 54/168/1 58/169/1 57/170/1 55/171/1 56/172/1
f 59/173/2 62/174/2 61/175/2 63/176/2 64/177/2 60/178/2 51/179/2 49/180/2
f 54/187/6 45/188/6 51/189/6 60/190/6
f 58/191/7 54/192/7 60/193/7 64/194/7
f 57/195/8 58/196/8 64/197/8 63/198/8
f 55/199/9 57/200/9 63/201/9 61/202/9
f 65/207/1 55/208/1 57/209/1 66/210/1 70/211/1 69/212/1 67/213/1 68/214/1
f 71/215/2 74/216/2 73/217/2 75/218/2 76/219/2 72/220/2 63/221/2 61/222/2
f 66/227/6 57/228/6 63/229/6 72/230/6
f 70/231/7 66/232/7 72/233/7 76/234/7
f 69/235/8 70/236/8 76/237/8 75/238/8
f 67/239/9 69/240/9 75/241/9 73/242/9
f 77/245/1 67/246/1 69/247/1 78/248/1 82/249/1 81/250/1 79/251/1 80/252/1
f 83/253/2 86/254/2 85/255/2 87/256/2 88/257/2 84/258/2 75/259/2 73/260/2
f 78/269/6 69/270/6 75/271/6 84/272/6
f 82/273/7 78/274/7 84/275/7 88/276/7
f 81/277/8 82/278/8 88/279/8 87/280/8
f 79/281/9 81/282/9 87/283/9 85/284/9
f 89/289/1 79/290/1 81/291/1 90/292/1 94/293/1 93/294/1 91/295/1 92/296/1
f 95/297/2 98/298/2 97/299/2 99/300/2 100/301/2 96/302/2 87/303/2 85/304/2
f 90/309/6 81/310/6 87/311/6 96/312/6
f 94/313/7 90/314/7 96/315/7 100/316/7
f 93/317/8 94/188/8 100/318/8 99/319/8
f 91/320/9 93/321/9 99/322/9 97/323/9
f 101/326/1 91/327/1 93/328/1 102/329/1 106/330/1 105/331/1 103/332/1 104/333/1
f 107/334/2 110/335/2 109/336/2 111/337/2 112/338/2 108/339/2 99/340/2 97/341/2
f 102/348/6 93/349/6 99/350/6 108/351/6
f 106/352/7 102/353/7 108/354/7 112/355/7
f 105/356/8 106/357/8 112/358/8 111/359/8
f 103/360/9 105/361/9 111/362/9 109/363/9
f 113/368/1 103/369/1 105/370/1 114/371/1 118/372/1 117/373/1 115/374/1 116/375/1
f 119/376/2 122/377/2 121/378/2 123/379/2 124/380/2 120/381/2 111/382/2 109/383/2
f 114/388/6 105/389/6 111/390/6 120/391/6
f 118/392/7 114/393/7 120/394/7 124/395/7
f 117/396/8 118/397/8 124/398/8 123/399/8
f 123/402/9 121/403/9 115/65/9 117/404/9
usemtl wood_black
f 2/17/3 6/18/3 14/19/3 10/20/3
f 1/21/4 2/22/4 10/23/4 9/24/4
f 6/43/10 5/44/10 13/45/10 14/46/10
f 17/63/3 20/64/3 26/65/3 23/66/3
f 5/67/4 17/63/4 23/66/4 13/68/4
f 20/64/10 19/85/10 25/86/10 26/65/10
f 29/103/3 32/104/3 38/105/3 35/106/3
f 19/85/4 29/107/4 35/108/4 25/86/4
f 32/125/10 31/126/10 37/127/10 38/128/10
f 41/143/3 44/144/3 50/145/3 47/146/3
f 31/147/4 41/143/4 47/146/4 37/148/4
f 44/144/10 43/163/10 49/164/10 50/145/10
f 53/181/3 56/182/3 62/183/3 59/184/3
f 43/163/4 53/185/4 59/186/4 49/164/4
f 56/203/10 55/204/10 61/205/10 62/206/10
f 65/223/3 68/224/3 74/225/3 71/226/3
f 55/126/4 65/223/4 71/226/4 61/127/4
f 68/224/10 67/243/10 73/244/10 74/225/10
f 77/261/3 80/262/3 86/263/3 83/264/3
f 67/265/4 77/266/4 83/267/4 73/268/4
f 80/285/10 79/286/10 85/287/10 86/288/10
f 89/305/3 92/306/3 98/307/3 95/308/3
f 79/286/4 89/305/4 95/308/4 85/287/4
f 92/306/10 91/324/10 97/325/10 98/307/10
f 101/342/3 104/343/3 110/344/3 107/345/3
f 91/324/4 101/346/4 107/347/4 97/325/4
f 104/364/10 103/365/10 109/366/10 110/367/10
f 113/384/3 116/385/3 122/386/3 119/387/3
f 103/365/4 113/384/4 119/387/4 109/366/4
f 116/385/10 115/400/10 121/401/10 122/386/10
