# Blender 4.0.2
# www.blender.org
mtllib wall_blockhut_2200x1000.mtl
o wall_blockhut_2200x1000
v 1.000000 -0.000055 0.020937
v 1.000000 0.003945 0.024937
v 1.000000 0.003945 -0.003063
v 1.000000 -0.000055 0.000937
v 1.000000 0.179945 0.020937
v 1.000000 0.175945 0.024937
v 1.000000 0.179945 0.000937
v 1.000000 0.175945 -0.003063
v 0.000000 -0.000055 0.020937
v 0.000000 0.003945 0.024937
v 0.000000 0.003945 -0.003063
v 0.000000 -0.000055 0.000937
v 0.000000 0.179945 0.020937
v 0.000000 0.175945 0.024937
v 0.000000 0.179945 0.000937
v 0.000000 0.175945 -0.003063
v 1.000000 0.183945 0.024937
v 1.000000 0.183945 -0.003063
v 1.000000 0.359945 0.020937
v 1.000000 0.355945 0.024937
v 1.000000 0.359945 0.000937
v 1.000000 0.355945 -0.003063
v 0.000000 0.183945 0.024937
v 0.000000 0.183945 -0.003063
v 0.000000 0.359945 0.020937
v 0.000000 0.355945 0.024937
v 0.000000 0.359945 0.000937
v 0.000000 0.355945 -0.003063
v 1.000000 0.363945 0.024937
v 1.000000 0.363945 -0.003063
v 1.000000 0.539945 0.020937
v 1.000000 0.535945 0.024937
v 1.000000 0.539945 0.000937
v 1.000000 0.535945 -0.003063
v 0.000000 0.363945 0.024937
v 0.000000 0.363945 -0.003063
v 0.000000 0.539945 0.020937
v 0.000000 0.535945 0.024937
v 0.000000 0.539945 0.000937
v 0.000000 0.535945 -0.003063
v 1.000000 0.543945 0.024937
v 1.000000 0.543945 -0.003063
v 1.000000 0.719945 0.020937
v 1.000000 0.715945 0.024937
v 1.000000 0.719945 0.000937
v 1.000000 0.715945 -0.003063
v 0.000000 0.543945 0.024937
v 0.000000 0.543945 -0.003063
v 0.000000 0.719945 0.020937
v 0.000000 0.715945 0.024937
v 0.000000 0.719945 0.000937
v 0.000000 0.715945 -0.003063
v 1.000000 0.723945 0.024937
v 1.000000 0.723945 -0.003063
v 1.000000 0.899945 0.020937
v 1.000000 0.895945 0.024937
v 1.000000 0.899945 0.000937
v 1.000000 0.895945 -0.003063
v 0.000000 0.723946 0.024937
v 0.000000 0.723946 -0.003063
v 0.000000 0.899946 0.020937
v 0.000000 0.895946 0.024937
v 0.000000 0.899946 0.000937
v 0.000000 0.895946 -0.003063
v 1.000000 0.903946 0.024937
v 1.000000 0.903946 -0.003063
v 1.000000 1.079946 0.020937
v 1.000000 1.075946 0.024937
v 1.000000 1.079946 0.000937
v 1.000000 1.075946 -0.003063
v 0.000000 0.903946 0.024937
v 0.000000 0.903946 -0.003063
v 0.000000 1.079946 0.020937
v 0.000000 1.075946 0.024937
v 0.000000 1.079946 0.000937
v 0.000000 1.075946 -0.003063
v 1.000000 1.083946 0.024937
v 1.000000 1.083946 -0.003063
v 1.000000 1.259946 0.020937
v 1.000000 1.255946 0.024937
v 1.000000 1.259946 0.000937
v 1.000000 1.255946 -0.003063
v 0.000000 1.083946 0.024937
v 0.000000 1.083946 -0.003063
v 0.000000 1.259946 0.020937
v 0.000000 1.255946 0.024937
v 0.000000 1.259946 0.000937
v 0.000000 1.255946 -0.003063
v 1.000000 1.263946 0.024937
v 1.000000 1.263946 -0.003063
v 1.000000 1.439946 0.020937
v 1.000000 1.435946 0.024937
v 1.000000 1.439946 0.000937
v 1.000000 1.435946 -0.003063
v 0.000000 1.263946 0.024937
v 0.000000 1.263946 -0.003063
v 0.000000 1.439946 0.020937
v 0.000000 1.435946 0.024937
v 0.000000 1.439946 0.000937
v 0.000000 1.435946 -0.003063
v 1.000000 1.443946 0.024937
v 1.000000 1.443946 -0.003063
v 1.000000 1.619946 0.020937
v 1.000000 1.615946 0.024937
v 1.000000 1.619946 0.000937
v 1.000000 1.615946 -0.003063
v 0.000000 1.443946 0.024937
v 0.000000 1.443946 -0.003063
v 0.000000 1.619946 0.020937
v 0.000000 1.615946 0.024937
v 0.000000 1.619946 0.000937
v 0.000000 1.615946 -0.003063
v 1.000000 1.623946 0.024937
v 1.000000 1.623946 -0.003063
v 1.000000 1.799946 0.020937
v 1.000000 1.795946 0.024937
v 1.000000 1.799946 0.000937
v 1.000000 1.795946 -0.003063
v 0.000000 1.623946 0.024937
v 0.000000 1.623946 -0.003063
v 0.000000 1.799946 0.020937
v 0.000000 1.795946 0.024937
v 0.000000 1.799946 0.000937
v 0.000000 1.795946 -0.003063
v 1.000000 1.803946 0.024937
v 1.000000 1.803946 -0.003063
v 1.000000 1.979946 0.020937
v 1.000000 1.975947 0.024937
v 1.000000 1.979946 0.000937
v 1.000000 1.975947 -0.003063
v 0.000000 1.803947 0.024937
v 0.000000 1.803947 -0.003063
v 0.000000 1.979947 0.020937
v 0.000000 1.975947 0.024937
v 0.000000 1.979947 0.000937
v 0.000000 1.975947 -0.003063
v 1.000000 1.983947 0.024937
v 1.000000 1.983947 -0.003063
v 1.000000 2.159947 0.020937
v 1.000000 2.155947 0.024937
v 1.000000 2.159947 0.000937
v 1.000000 2.155947 -0.003063
v 0.000000 1.983947 0.024937
v 0.000000 1.983947 -0.003063
v 0.000000 2.159947 0.020937
v 0.000000 2.155947 0.024937
v 0.000000 2.159947 0.000937
v 0.000000 2.155947 -0.003063
v 1.000000 2.163947 0.024937
v 1.000000 2.163947 -0.003063
v 1.000000 2.198999 0.020937
v 1.000000 2.194999 0.024937
v 1.000000 2.198999 0.000937
v 1.000000 2.194999 -0.003063
v 0.000000 2.163947 0.024937
v 0.000000 2.163947 -0.003063
v 0.000000 2.198999 0.020937
v 0.000000 2.194999 0.024937
v 0.000000 2.198999 0.000937
v 0.000000 2.194999 -0.003063
vn 1.0000 -0.0000 -0.0000
vn -1.0000 -0.0000 -0.0000
vn -0.0000 -0.0000 1.0000
vn -0.0000 -0.7071 0.7071
vn -0.0000 -1.0000 -0.0000
vn -0.0000 -0.7071 -0.7071
vn -0.0000 -0.0000 -1.0000
vn -0.0000 0.7071 -0.7071
vn -0.0000 1.0000 -0.0000
vn -0.0000 0.7071 0.7071
vn -0.0000 -0.7071 0.7072
vn -0.0000 -0.7071 -0.7072
vn -0.0000 0.7072 -0.7071
vn -0.0000 0.7072 0.7071
vt 0.914154 0.879924
vt 0.913361 0.879131
vt 0.913361 0.875168
vt 0.914154 0.874375
vt 0.948239 0.874375
vt 0.949032 0.875168
vt 0.949032 0.879131
vt 0.948239 0.879924
vt 0.914154 0.863278
vt 0.948239 0.863278
vt 0.949032 0.864071
vt 0.949032 0.868034
vt 0.948239 0.868827
vt 0.914154 0.868827
vt 0.913361 0.868034
vt 0.913361 0.864071
vt 0.913361 0.612621
vt 0.913361 0.646707
vt 0.363439 0.646707
vt 0.363439 0.612621
vt 0.612743 0.611500
vt 0.612743 0.612621
vt 0.062821 0.612621
vt 0.062821 0.611500
vt 0.062821 0.062627
vt 0.062821 0.058663
vt 0.612743 0.058663
vt 0.612743 0.062627
vt 0.062821 0.576294
vt 0.062821 0.575173
vt 0.612743 0.575173
vt 0.612743 0.576294
vt 0.363439 0.610379
vt 0.363439 0.576294
vt 0.913361 0.576294
vt 0.913361 0.610379
vt 0.062821 0.610379
vt 0.612743 0.610379
vt 0.062821 0.054700
vt 0.612743 0.054700
vt 0.612743 0.646707
vt 0.612743 0.647828
vt 0.062821 0.647828
vt 0.062821 0.646707
vt 0.613536 0.988906
vt 0.612743 0.988114
vt 0.612743 0.984150
vt 0.613536 0.983357
vt 0.647621 0.983357
vt 0.648414 0.984150
vt 0.648414 0.988114
vt 0.647621 0.988906
vt 0.613536 0.977809
vt 0.647621 0.977809
vt 0.648414 0.978601
vt 0.648414 0.982565
vt 0.612743 0.982565
vt 0.612743 0.978601
vt 0.062821 0.247106
vt 0.062821 0.213021
vt 0.612743 0.213021
vt 0.612743 0.247106
vt 0.062821 0.248227
vt 0.612743 0.248227
vt 0.612743 0.574052
vt 0.062821 0.574052
vt 0.612743 0.539967
vt 0.062821 0.539967
vt 0.612743 0.538846
vt 0.062821 0.538846
vt 0.062821 0.050736
vt 0.612743 0.050736
vt 0.062821 0.211900
vt 0.612743 0.211900
vt 0.914154 0.977809
vt 0.913361 0.977016
vt 0.913361 0.973053
vt 0.914154 0.972260
vt 0.948239 0.972260
vt 0.949032 0.973053
vt 0.949032 0.977016
vt 0.948239 0.977809
vt 0.914154 0.896570
vt 0.948239 0.896570
vt 0.949032 0.897363
vt 0.949032 0.901327
vt 0.948239 0.902119
vt 0.914154 0.902119
vt 0.913361 0.901327
vt 0.913361 0.897363
vt 0.363439 0.210779
vt 0.363439 0.176693
vt 0.913361 0.176693
vt 0.913361 0.210779
vt 0.062821 0.210779
vt 0.612743 0.210779
vt 0.062821 0.721603
vt 0.062821 0.720482
vt 0.612743 0.720482
vt 0.612743 0.721603
vt 0.363439 0.755689
vt 0.363439 0.721603
vt 0.913361 0.721603
vt 0.913361 0.755689
vt 0.062821 0.756810
vt 0.062821 0.755689
vt 0.612743 0.755689
vt 0.612743 0.756810
vt 0.062821 0.046773
vt 0.612743 0.046773
vt 0.062821 0.176693
vt 0.062821 0.175572
vt 0.612743 0.175572
vt 0.612743 0.176693
vt 0.613535 0.907668
vt 0.612743 0.906875
vt 0.612743 0.902912
vt 0.613535 0.902119
vt 0.647621 0.902119
vt 0.648413 0.902912
vt 0.648413 0.906875
vt 0.647621 0.907668
vt 0.648413 0.908461
vt 0.648413 0.912424
vt 0.647621 0.913217
vt 0.613535 0.913217
vt 0.612743 0.912424
vt 0.612743 0.908461
vt 0.062821 0.501397
vt 0.062821 0.467312
vt 0.612743 0.467312
vt 0.612743 0.501397
vt 0.062821 0.502518
vt 0.612743 0.502518
vt 0.062821 0.685276
vt 0.062821 0.684155
vt 0.612743 0.684155
vt 0.612743 0.685276
vt 0.062821 0.719361
vt 0.612743 0.719361
vt 0.062821 0.042809
vt 0.612743 0.042809
vt 0.062821 0.466191
vt 0.612743 0.466191
vt 0.914154 0.966190
vt 0.913361 0.965398
vt 0.913361 0.961434
vt 0.914154 0.960642
vt 0.948239 0.960642
vt 0.949032 0.961434
vt 0.949032 0.965398
vt 0.948239 0.966190
vt 0.914154 0.932898
vt 0.948239 0.932898
vt 0.949032 0.933691
vt 0.949032 0.937654
vt 0.948239 0.938447
vt 0.914154 0.938447
vt 0.913361 0.937654
vt 0.913361 0.933691
vt 0.363439 0.465070
vt 0.363439 0.430985
vt 0.913361 0.430985
vt 0.913361 0.465070
vt 0.062821 0.465070
vt 0.612743 0.465070
vt 0.062821 0.939568
vt 0.062821 0.938447
vt 0.612743 0.938447
vt 0.612743 0.939568
vt 0.363439 0.973653
vt 0.363439 0.939568
vt 0.913361 0.939568
vt 0.913361 0.973653
vt 0.062821 0.974774
vt 0.062821 0.973653
vt 0.612743 0.973653
vt 0.612743 0.974774
vt 0.062821 0.038846
vt 0.612743 0.038846
vt 0.062821 0.430985
vt 0.062821 0.429864
vt 0.612743 0.429864
vt 0.612743 0.430985
vt 0.613535 0.891022
vt 0.612743 0.890229
vt 0.612743 0.886266
vt 0.613535 0.885473
vt 0.647621 0.885473
vt 0.648413 0.886266
vt 0.648413 0.890229
vt 0.647621 0.891022
vt 0.613535 0.868827
vt 0.647621 0.868827
vt 0.648413 0.869619
vt 0.648413 0.873583
vt 0.647621 0.874375
vt 0.613535 0.874375
vt 0.612743 0.873583
vt 0.612743 0.869619
vt 0.062821 0.174451
vt 0.062821 0.140366
vt 0.612743 0.140366
vt 0.612743 0.174451
vt 0.062821 0.503639
vt 0.612743 0.503639
vt 0.062821 0.537724
vt 0.612743 0.537724
vt 0.612743 0.538845
vt 0.062821 0.034882
vt 0.612743 0.034882
vt 0.062821 0.139245
vt 0.612743 0.139245
vt 0.914154 0.943995
vt 0.913361 0.943203
vt 0.913361 0.939239
vt 0.949032 0.939239
vt 0.949032 0.943203
vt 0.948239 0.943995
vt 0.914154 0.949544
vt 0.948239 0.949544
vt 0.949032 0.950337
vt 0.949032 0.954300
vt 0.948239 0.955093
vt 0.914154 0.955093
vt 0.913361 0.954300
vt 0.913361 0.950337
vt 0.363439 0.428742
vt 0.363439 0.394657
vt 0.913361 0.394657
vt 0.913361 0.428742
vt 0.062821 0.429863
vt 0.062821 0.428742
vt 0.612743 0.428742
vt 0.612743 0.429863
vt 0.062821 0.067711
vt 0.062821 0.066590
vt 0.612743 0.066590
vt 0.612743 0.067711
vt 0.363439 0.101797
vt 0.363439 0.067711
vt 0.913361 0.067711
vt 0.913361 0.101797
vt 0.062821 0.102918
vt 0.062821 0.101797
vt 0.612743 0.101797
vt 0.612743 0.102917
vt 0.062821 0.030919
vt 0.612743 0.030919
vt 0.062821 0.394657
vt 0.062821 0.393536
vt 0.612743 0.393536
vt 0.612743 0.394657
vt 0.613535 0.949544
vt 0.612743 0.948751
vt 0.612743 0.944788
vt 0.613535 0.943995
vt 0.647621 0.943995
vt 0.648413 0.944788
vt 0.648413 0.948751
vt 0.647621 0.949544
vt 0.613535 0.955093
vt 0.647621 0.955093
vt 0.648413 0.955886
vt 0.648413 0.959849
vt 0.647621 0.960642
vt 0.613535 0.960642
vt 0.612743 0.959849
vt 0.612743 0.955886
vt 0.062821 0.392415
vt 0.062821 0.358330
vt 0.612743 0.358330
vt 0.612743 0.392415
vt 0.062821 0.903240
vt 0.062821 0.902119
vt 0.612743 0.902119
vt 0.612743 0.903240
vt 0.062821 0.937326
vt 0.612743 0.937326
vt 0.062821 0.026955
vt 0.612743 0.026955
vt 0.062821 0.357209
vt 0.612743 0.357209
vt 0.914154 0.971739
vt 0.913361 0.970946
vt 0.913361 0.966983
vt 0.949032 0.966983
vt 0.949032 0.970946
vt 0.948239 0.971739
vt 0.914154 0.994455
vt 0.948239 0.994455
vt 0.949032 0.995248
vt 0.949032 0.999211
vt 0.948239 1.000004
vt 0.914154 1.000004
vt 0.913361 0.999211
vt 0.913361 0.995248
vt 0.363439 0.356088
vt 0.363439 0.322003
vt 0.913361 0.322003
vt 0.913361 0.356088
vt 0.062821 0.356088
vt 0.612743 0.356088
vt 0.062821 0.866913
vt 0.062821 0.865792
vt 0.612743 0.865792
vt 0.612743 0.866913
vt 0.363439 0.900998
vt 0.363439 0.866913
vt 0.913361 0.866913
vt 0.913361 0.900998
vt 0.062821 0.900998
vt 0.612743 0.900998
vt 0.062821 0.022992
vt 0.612743 0.022992
vt 0.062821 0.322003
vt 0.062821 0.320882
vt 0.612743 0.320882
vt 0.612743 0.322003
vt 0.613535 0.932898
vt 0.612743 0.932105
vt 0.612743 0.928142
vt 0.613535 0.927349
vt 0.647621 0.927349
vt 0.648413 0.928142
vt 0.648413 0.932105
vt 0.647621 0.932898
vt 0.648413 0.914009
vt 0.648413 0.917973
vt 0.647621 0.918765
vt 0.613535 0.918765
vt 0.612743 0.917973
vt 0.612743 0.914009
vt 0.062821 0.319761
vt 0.062821 0.285675
vt 0.612743 0.285675
vt 0.612743 0.319761
vt 0.062821 0.830586
vt 0.062821 0.829465
vt 0.612743 0.829464
vt 0.612743 0.830585
vt 0.062821 0.864671
vt 0.612743 0.864671
vt 0.062821 0.019028
vt 0.612743 0.019028
vt 0.062821 0.284554
vt 0.612743 0.284554
vt 0.913361 0.993662
vt 0.913361 0.989699
vt 0.914154 0.988906
vt 0.948239 0.988906
vt 0.949032 0.989699
vt 0.949032 0.993662
vt 0.914154 0.921800
vt 0.948239 0.921800
vt 0.949032 0.922593
vt 0.949032 0.926556
vt 0.948239 0.927349
vt 0.914154 0.927349
vt 0.913361 0.926556
vt 0.913361 0.922593
vt 0.363439 0.283433
vt 0.363439 0.249348
vt 0.913361 0.249348
vt 0.913361 0.283433
vt 0.062821 0.283433
vt 0.612743 0.283433
vt 0.062821 0.794258
vt 0.062821 0.793137
vt 0.612743 0.793137
vt 0.612743 0.794258
vt 0.363439 0.828343
vt 0.363439 0.794258
vt 0.913361 0.794258
vt 0.913361 0.828343
vt 0.062821 0.829464
vt 0.062821 0.828343
vt 0.612743 0.828343
vt 0.062821 0.015065
vt 0.612743 0.015065
vt 0.062821 0.249348
vt 0.612743 0.249348
vt 0.612743 0.884680
vt 0.612743 0.880717
vt 0.613535 0.879924
vt 0.647621 0.879924
vt 0.648413 0.880717
vt 0.648413 0.884680
vt 0.613536 1.005553
vt 0.647621 1.005553
vt 0.648414 1.006345
vt 0.648414 1.010309
vt 0.647621 1.011101
vt 0.613536 1.011101
vt 0.612743 1.010309
vt 0.612743 1.006345
vt 0.062821 1.009980
vt 0.062821 0.975895
vt 0.612743 0.975895
vt 0.612743 1.009980
vt 0.062821 1.011101
vt 0.612743 1.011101
vt 0.062821 0.757931
vt 0.612743 0.757931
vt 0.062821 0.792016
vt 0.612743 0.792016
vt 0.914154 1.005553
vt 0.913361 1.004760
vt 0.913361 1.000797
vt 0.920307 1.000004
vt 0.921100 1.000797
vt 0.921100 1.004760
vt 0.920307 1.005553
vt 0.914154 0.891022
vt 0.920307 0.891022
vt 0.921100 0.891814
vt 0.921100 0.895778
vt 0.920307 0.896571
vt 0.914154 0.896571
vt 0.913361 0.895778
vt 0.913361 0.891814
vt 0.363439 0.683034
vt 0.363439 0.676880
vt 0.913361 0.676880
vt 0.913361 0.683034
vt 0.062821 0.683034
vt 0.612743 0.683034
vt 0.612743 0.138124
vt 0.062821 0.138124
vt 0.913361 0.131970
vt 0.913361 0.138124
vt 0.363439 0.138124
vt 0.363439 0.131970
vt 0.612741 0.122666
vt 0.612742 0.123790
vt 0.062822 0.123788
vt 0.062822 0.122666
vt 0.062821 0.011101
vt 0.612743 0.011101
vt 0.062822 0.668700
vt 0.062824 0.667579
vt 0.612743 0.667578
vt 0.612743 0.668699
s 0
usemtl wood
f 2/1/1 1/2/1 4/3/1 3/4/1 8/5/1 7/6/1 5/7/1 6/8/1
f 10/9/2 14/10/2 13/11/2 15/12/2 16/13/2 11/14/2 12/15/2 9/16/2
f 4/25/5 1/26/5 9/27/5 12/28/5
f 3/29/6 4/30/6 12/31/6 11/32/6
f 8/33/7 3/34/7 11/35/7 16/36/7
f 7/24/8 8/37/8 16/38/8 15/21/8
f 5/26/9 7/39/9 15/40/9 13/27/9
f 17/45/1 5/46/1 7/47/1 18/48/1 22/49/1 21/50/1 19/51/1 20/52/1
f 23/53/2 26/54/2 25/55/2 27/56/2 28/49/2 24/48/2 15/57/2 13/58/2
f 18/65/6 7/31/6 15/30/6 24/66/6
f 22/67/7 18/65/7 24/66/7 28/68/7
f 21/69/8 22/67/8 28/68/8 27/70/8
f 19/39/9 21/71/9 27/72/9 25/40/9
f 29/75/1 19/76/1 21/77/1 30/78/1 34/79/1 33/80/1 31/81/1 32/82/1
f 35/83/2 38/84/2 37/85/2 39/86/2 40/87/2 36/88/2 27/89/2 25/90/2
f 30/97/6 21/98/6 27/99/6 36/100/6
f 34/101/7 30/102/7 36/103/7 40/104/7
f 33/105/8 34/106/8 40/107/8 39/108/8
f 31/71/9 33/109/9 39/110/9 37/72/9
f 41/115/1 31/116/1 33/117/1 42/118/1 46/119/1 45/120/1 43/121/1 44/122/1
f 47/115/2 50/122/2 49/123/2 51/124/2 52/125/2 48/126/2 39/127/2 37/128/2
f 42/135/6 33/136/6 39/137/6 48/138/6
f 46/139/7 42/135/7 48/138/7 52/140/7
f 45/98/8 46/139/8 52/140/8 51/99/8
f 43/109/9 45/141/9 51/142/9 49/110/9
f 53/145/1 43/146/1 45/147/1 54/148/1 58/149/1 57/150/1 55/151/1 56/152/1
f 59/153/2 62/154/2 61/155/2 63/156/2 64/157/2 60/158/2 51/159/2 49/160/2
f 54/167/6 45/168/6 51/169/6 60/170/6
f 58/171/7 54/172/7 60/173/7 64/174/7
f 57/175/8 58/176/8 64/177/8 63/178/8
f 55/141/9 57/179/9 63/180/9 61/142/9
f 65/185/1 55/186/1 57/187/1 66/188/1 70/189/1 69/190/1 67/191/1 68/192/1
f 71/193/2 74/194/2 73/195/2 75/196/2 76/197/2 72/198/2 63/199/2 61/200/2
f 66/205/6 57/133/6 63/134/6 72/206/6
f 70/207/7 66/205/7 72/206/7 76/208/7
f 69/70/8 70/207/8 76/208/8 75/209/8
f 67/179/9 69/210/9 75/211/9 73/180/9
f 77/214/1 67/215/1 69/216/1 78/158/1 82/157/1 81/217/1 79/218/1 80/219/1
f 83/220/2 86/221/2 85/222/2 87/223/2 88/224/2 84/225/2 75/226/2 73/227/2
f 78/236/6 69/237/6 75/238/6 84/239/6
f 82/240/7 78/241/7 84/242/7 88/243/7
f 81/244/8 82/245/8 88/246/8 87/247/8
f 79/210/9 81/248/9 87/249/9 85/211/9
f 89/254/1 79/255/1 81/256/1 90/257/1 94/258/1 93/259/1 91/260/1 92/261/1
f 95/262/2 98/263/2 97/264/2 99/265/2 100/266/2 96/267/2 87/268/2 85/269/2
f 90/274/6 81/275/6 87/276/6 96/277/6
f 94/278/7 90/274/7 96/277/7 100/279/7
f 93/168/8 94/278/8 100/279/8 99/169/8
f 91/248/9 93/280/9 99/281/9 97/249/9
f 101/284/1 91/285/1 93/286/1 102/145/1 106/152/1 105/287/1 103/288/1 104/289/1
f 107/290/2 110/291/2 109/292/2 111/293/2 112/294/2 108/295/2 99/296/2 97/297/2
f 102/304/6 93/305/6 99/306/6 108/307/6
f 106/308/7 102/309/7 108/310/7 112/311/7
f 105/275/8 106/312/8 112/313/8 111/276/8
f 103/280/9 105/314/9 111/315/9 109/281/9
f 113/320/1 103/321/1 105/322/1 114/323/1 118/324/1 117/325/1 115/326/1 116/327/1
f 119/126/2 122/125/2 121/328/2 123/329/2 124/330/2 120/331/2 111/332/2 109/333/2
f 114/338/6 105/339/6 111/340/6 120/341/6
f 118/342/7 114/338/7 120/341/7 124/343/7
f 117/305/8 118/342/8 124/343/8 123/306/8
f 115/314/9 117/344/9 123/345/9 121/315/9
f 125/290/1 115/348/1 117/349/1 126/350/1 130/351/1 129/352/1 127/353/1 128/291/1
f 131/354/2 134/355/2 133/356/2 135/357/2 136/358/2 132/359/2 123/360/2 121/361/2
f 126/368/12 117/369/12 123/370/12 132/371/12
f 130/372/7 126/373/7 132/374/7 136/375/7
f 129/376/13 130/377/13 136/378/13 135/340/13
f 127/344/9 129/379/9 135/380/9 133/345/9
f 137/188/1 127/383/1 129/384/1 138/385/1 142/386/1 141/387/1 139/388/1 140/189/1
f 143/389/2 146/390/2 145/391/2 147/392/2 148/393/2 144/394/2 135/395/2 133/396/2
f 138/403/12 129/105/12 135/108/12 144/404/12
f 142/405/7 138/403/7 144/404/7 148/406/7
f 141/369/8 142/405/8 148/406/8 147/370/8
f 139/237/9 141/25/9 147/28/9 145/238/9
f 149/407/1 139/408/1 141/409/1 150/295/1 154/410/1 153/411/1 151/412/1 152/413/1
f 155/414/2 158/415/2 157/416/2 159/417/2 160/418/2 156/419/2 147/420/2 145/421/2
f 150/428/6 141/213/6 147/212/6 156/429/6
f 154/430/7 150/431/7 156/432/7 160/433/7
f 153/434/8 154/435/8 160/436/8 159/437/8
f 151/379/9 153/438/9 159/439/9 157/380/9
usemtl wood_black
f 2/17/3 6/18/3 14/19/3 10/20/3
f 1/21/4 2/22/4 10/23/4 9/24/4
f 6/41/10 5/42/10 13/43/10 14/44/10
f 17/59/3 20/60/3 26/61/3 23/62/3
f 5/63/4 17/59/4 23/62/4 13/64/4
f 20/60/10 19/73/10 25/74/10 26/61/10
f 29/91/3 32/92/3 38/93/3 35/94/3
f 19/73/4 29/95/4 35/96/4 25/74/4
f 32/111/10 31/112/10 37/113/10 38/114/10
f 41/129/3 44/130/3 50/131/3 47/132/3
f 31/133/4 41/129/4 47/132/4 37/134/4
f 44/130/10 43/143/10 49/144/10 50/131/10
f 53/161/3 56/162/3 62/163/3 59/164/3
f 43/143/4 53/165/4 59/166/4 49/144/4
f 56/181/10 55/182/10 61/183/10 62/184/10
f 65/201/3 68/202/3 74/203/3 71/204/3
f 55/112/4 65/201/4 71/204/4 61/113/4
f 68/202/10 67/212/10 73/213/10 74/203/10
f 77/228/3 80/229/3 86/230/3 83/231/3
f 67/232/4 77/233/4 83/234/4 73/235/4
f 80/250/10 79/251/10 85/252/10 86/253/10
f 89/270/3 92/271/3 98/272/3 95/273/3
f 79/251/4 89/270/4 95/273/4 85/252/4
f 92/271/10 91/282/10 97/283/10 98/272/10
f 101/298/3 104/299/3 110/300/3 107/301/3
f 91/282/4 101/302/4 107/303/4 97/283/4
f 104/316/10 103/317/10 109/318/10 110/319/10
f 113/334/3 116/335/3 122/336/3 119/337/3
f 103/317/4 113/334/4 119/337/4 109/318/4
f 116/335/10 115/346/10 121/347/10 122/336/10
f 125/362/3 128/363/3 134/364/3 131/365/3
f 115/346/11 125/366/11 131/367/11 121/347/11
f 128/381/14 127/63/14 133/64/14 134/382/14
f 137/397/3 140/398/3 146/399/3 143/400/3
f 127/401/11 137/397/11 143/400/11 133/402/11
f 140/398/10 139/175/10 145/178/10 146/399/10
f 149/422/3 152/423/3 158/424/3 155/425/3
f 139/136/4 149/426/4 155/427/4 145/137/4
f 152/440/10 151/441/10 157/442/10 158/443/10
