<svg width="154" height="115" viewBox="0 0 154 115" fill="none" xmlns="http://www.w3.org/2000/svg">
<rect x="0.5" y="0.5" width="152.333" height="113.104" rx="7.5" stroke="#050D24"/>
<rect x="24.1665" y="16.5" width="105" height="6.13805" stroke="#050D24"/>
<rect x="36.0151" y="22.6381" width="48.9663" height="6.13805" transform="rotate(90 36.0151 22.6381)" stroke="#050D24"/>
<rect x="39.8706" y="26.2071" width="34.8687" height="41.8283" stroke="#050D24"/>
<rect x="78.5947" y="26.2071" width="34.8687" height="41.8283" stroke="#050D24"/>
<rect x="123.456" y="22.6381" width="48.9663" height="6.13805" transform="rotate(90 123.456 22.6381)" stroke="#050D24"/>
<path d="M42.9058 96.1044H36.3569V95.1542L39.0298 92.4403C39.5265 91.939 39.9435 91.4924 40.2808 91.1005C40.6226 90.7085 40.8823 90.3234 41.0601 89.9452C41.2378 89.5624 41.3267 89.1431 41.3267 88.6874C41.3267 88.1223 41.158 87.6916 40.8208 87.3954C40.4881 87.0946 40.0483 86.9442 39.5015 86.9442C39.0229 86.9442 38.5991 87.0262 38.23 87.1903C37.8608 87.3544 37.4826 87.5868 37.0952 87.8876L36.4868 87.1219C36.7511 86.8986 37.0382 86.7004 37.3481 86.5272C37.6626 86.354 37.9976 86.2173 38.353 86.1171C38.7131 86.0168 39.0959 85.9667 39.5015 85.9667C40.1167 85.9667 40.6476 86.0738 41.0942 86.288C41.5409 86.5022 41.8849 86.8075 42.1265 87.204C42.3726 87.6005 42.4956 88.0721 42.4956 88.619C42.4956 89.1477 42.3908 89.6399 42.1812 90.0956C41.9715 90.5468 41.6776 90.9956 41.2993 91.4423C40.9211 91.8843 40.479 92.3537 39.9731 92.8505L37.7993 95.0175V95.0653H42.9058V96.1044ZM51.396 88.4755C52.034 88.4755 52.5809 88.6167 53.0366 88.8993C53.4924 89.1818 53.841 89.5783 54.0825 90.0887C54.3241 90.5946 54.4448 91.1871 54.4448 91.8661V92.5702H49.27C49.2837 93.4497 49.5024 94.1197 49.9263 94.58C50.3501 95.0402 50.9471 95.2704 51.7173 95.2704C52.1912 95.2704 52.6105 95.2271 52.9751 95.1405C53.3397 95.0539 53.7179 94.9263 54.1099 94.7577V95.7557C53.7316 95.9244 53.3556 96.0474 52.9819 96.1249C52.6128 96.2024 52.1753 96.2411 51.6694 96.2411C50.9494 96.2411 50.3205 96.0953 49.7827 95.8036C49.2495 95.5074 48.8348 95.0744 48.5386 94.5048C48.2424 93.9351 48.0942 93.2378 48.0942 92.413C48.0942 91.6063 48.2287 90.9091 48.4976 90.3212C48.771 89.7287 49.1538 89.273 49.646 88.954C50.1427 88.635 50.7261 88.4755 51.396 88.4755ZM51.3823 89.4052C50.7762 89.4052 50.2931 89.6034 49.9331 89.9999C49.5731 90.3964 49.3589 90.9501 49.2905 91.661H53.2554C53.2508 91.2144 53.1802 90.8225 53.0435 90.4852C52.9113 90.1434 52.7085 89.8791 52.4351 89.6923C52.1616 89.5009 51.8107 89.4052 51.3823 89.4052ZM57.5142 96.1044H56.3726V85.4677H57.5142V96.1044ZM62.7983 88.4755C63.4364 88.4755 63.9832 88.6167 64.439 88.8993C64.8947 89.1818 65.2433 89.5783 65.4849 90.0887C65.7264 90.5946 65.8472 91.1871 65.8472 91.8661V92.5702H60.6724C60.686 93.4497 60.9048 94.1197 61.3286 94.58C61.7524 95.0402 62.3494 95.2704 63.1196 95.2704C63.5936 95.2704 64.0129 95.2271 64.3774 95.1405C64.742 95.0539 65.1203 94.9263 65.5122 94.7577V95.7557C65.134 95.9244 64.758 96.0474 64.3843 96.1249C64.0151 96.2024 63.5776 96.2411 63.0718 96.2411C62.3517 96.2411 61.7228 96.0953 61.1851 95.8036C60.6519 95.5074 60.2371 95.0744 59.9409 94.5048C59.6447 93.9351 59.4966 93.2378 59.4966 92.413C59.4966 91.6063 59.631 90.9091 59.8999 90.3212C60.1733 89.7287 60.5562 89.273 61.0483 88.954C61.5451 88.635 62.1284 88.4755 62.7983 88.4755ZM62.7847 89.4052C62.1785 89.4052 61.6955 89.6034 61.3354 89.9999C60.9754 90.3964 60.7612 90.9501 60.6929 91.661H64.6577C64.6532 91.2144 64.5825 90.8225 64.4458 90.4852C64.3136 90.1434 64.1108 89.8791 63.8374 89.6923C63.564 89.5009 63.2131 89.4052 62.7847 89.4052ZM75.9097 88.4755C76.7345 88.4755 77.3566 88.6919 77.7759 89.1249C78.1951 89.5533 78.4048 90.2437 78.4048 91.1962V96.1044H77.2837V91.2509C77.2837 90.6447 77.1515 90.1913 76.8872 89.8905C76.6274 89.5852 76.2401 89.4325 75.7251 89.4325C75.0005 89.4325 74.4741 89.6421 74.146 90.0614C73.8179 90.4807 73.6538 91.0982 73.6538 91.9139V96.1044H72.5259V91.2509C72.5259 90.8453 72.4666 90.508 72.3481 90.2391C72.2342 89.9703 72.061 89.7697 71.8286 89.6376C71.6007 89.5009 71.3114 89.4325 70.9604 89.4325C70.4637 89.4325 70.0649 89.535 69.7642 89.7401C69.4634 89.9452 69.2446 90.2505 69.1079 90.6561C68.9757 91.0572 68.9097 91.5516 68.9097 92.1395V96.1044H67.7749V88.6122H68.6909L68.8618 89.6718H68.9233C69.0737 89.412 69.2629 89.1932 69.4907 89.0155C69.7186 88.8378 69.9738 88.7033 70.2563 88.6122C70.5389 88.521 70.8397 88.4755 71.1587 88.4755C71.7284 88.4755 72.2046 88.5826 72.5874 88.7968C72.9748 89.0064 73.255 89.3277 73.4282 89.7606H73.4897C73.7358 89.3277 74.0731 89.0064 74.5015 88.7968C74.9299 88.5826 75.3993 88.4755 75.9097 88.4755ZM83.6206 88.4755C84.2586 88.4755 84.8055 88.6167 85.2612 88.8993C85.717 89.1818 86.0656 89.5783 86.3071 90.0887C86.5487 90.5946 86.6694 91.1871 86.6694 91.8661V92.5702H81.4946C81.5083 93.4497 81.7271 94.1197 82.1509 94.58C82.5747 95.0402 83.1717 95.2704 83.9419 95.2704C84.4159 95.2704 84.8351 95.2271 85.1997 95.1405C85.5643 95.0539 85.9425 94.9263 86.3345 94.7577V95.7557C85.9562 95.9244 85.5802 96.0474 85.2065 96.1249C84.8374 96.2024 84.3999 96.2411 83.894 96.2411C83.174 96.2411 82.5451 96.0953 82.0073 95.8036C81.4741 95.5074 81.0594 95.0744 80.7632 94.5048C80.467 93.9351 80.3188 93.2378 80.3188 92.413C80.3188 91.6063 80.4533 90.9091 80.7222 90.3212C80.9956 89.7287 81.3784 89.273 81.8706 88.954C82.3674 88.635 82.9507 88.4755 83.6206 88.4755ZM83.6069 89.4052C83.0008 89.4052 82.5177 89.6034 82.1577 89.9999C81.7977 90.3964 81.5835 90.9501 81.5151 91.661H85.48C85.4754 91.2144 85.4048 90.8225 85.2681 90.4852C85.1359 90.1434 84.9331 89.8791 84.6597 89.6923C84.3862 89.5009 84.0353 89.4052 83.6069 89.4052ZM92.145 88.4755C93.0337 88.4755 93.7059 88.6942 94.1616 89.1317C94.6174 89.5647 94.8452 90.2619 94.8452 91.2235V96.1044H93.7241V91.2987C93.7241 90.6744 93.5806 90.2072 93.2935 89.8973C93.0109 89.5874 92.5757 89.4325 91.9878 89.4325C91.1584 89.4325 90.575 89.6672 90.2378 90.1366C89.9006 90.606 89.7319 91.2873 89.7319 92.1805V96.1044H88.5972V88.6122H89.5132L89.6841 89.6923H89.7456C89.9051 89.4279 90.1079 89.2069 90.354 89.0292C90.6001 88.8469 90.8758 88.7102 91.1812 88.619C91.4865 88.5233 91.8078 88.4755 92.145 88.4755ZM99.603 95.3114C99.7899 95.3114 99.9813 95.2955 100.177 95.2635C100.373 95.2316 100.533 95.1929 100.656 95.1473V96.0292C100.524 96.0884 100.339 96.1385 100.102 96.1796C99.8696 96.2206 99.6418 96.2411 99.4185 96.2411C99.022 96.2411 98.6619 96.1727 98.3384 96.036C98.0148 95.8947 97.755 95.6578 97.5591 95.3251C97.3677 94.9924 97.272 94.5321 97.272 93.9442V89.5009H96.2056V88.9471L97.2788 88.5028L97.73 86.8759H98.4136V88.6122H100.608V89.5009H98.4136V93.91C98.4136 94.3794 98.5207 94.7303 98.7349 94.9628C98.9536 95.1952 99.243 95.3114 99.603 95.3114ZM105.058 88.4755C105.696 88.4755 106.243 88.6167 106.699 88.8993C107.154 89.1818 107.503 89.5783 107.745 90.0887C107.986 90.5946 108.107 91.1871 108.107 91.8661V92.5702H102.932C102.946 93.4497 103.165 94.1197 103.588 94.58C104.012 95.0402 104.609 95.2704 105.379 95.2704C105.853 95.2704 106.273 95.2271 106.637 95.1405C107.002 95.0539 107.38 94.9263 107.772 94.7577V95.7557C107.394 95.9244 107.018 96.0474 106.644 96.1249C106.275 96.2024 105.837 96.2411 105.332 96.2411C104.611 96.2411 103.983 96.0953 103.445 95.8036C102.912 95.5074 102.497 95.0744 102.201 94.5048C101.904 93.9351 101.756 93.2378 101.756 92.413C101.756 91.6063 101.891 90.9091 102.16 90.3212C102.433 89.7287 102.816 89.273 103.308 88.954C103.805 88.635 104.388 88.4755 105.058 88.4755ZM105.044 89.4052C104.438 89.4052 103.955 89.6034 103.595 89.9999C103.235 90.3964 103.021 90.9501 102.953 91.661H106.917C106.913 91.2144 106.842 90.8225 106.706 90.4852C106.573 90.1434 106.371 89.8791 106.097 89.6923C105.824 89.5009 105.473 89.4052 105.044 89.4052ZM113.583 88.4755C114.471 88.4755 115.143 88.6942 115.599 89.1317C116.055 89.5647 116.283 90.2619 116.283 91.2235V96.1044H115.162V91.2987C115.162 90.6744 115.018 90.2072 114.731 89.8973C114.448 89.5874 114.013 89.4325 113.425 89.4325C112.596 89.4325 112.013 89.6672 111.675 90.1366C111.338 90.606 111.169 91.2873 111.169 92.1805V96.1044H110.035V88.6122H110.951L111.122 89.6923H111.183C111.343 89.4279 111.545 89.2069 111.792 89.0292C112.038 88.8469 112.313 88.7102 112.619 88.619C112.924 88.5233 113.245 88.4755 113.583 88.4755Z" fill="#050D24"/>
</svg>
