<svg width="154" height="115" viewBox="0 0 154 115" fill="none" xmlns="http://www.w3.org/2000/svg">
<rect x="0.833496" y="0.5" width="152.333" height="113.104" rx="7.5" stroke="#050D24"/>
<rect x="24.75" y="16.75" width="104.5" height="5.63805" stroke="#050D24"/>
<rect x="36.0986" y="22.8881" width="48.4663" height="5.63805" transform="rotate(90 36.0986 22.8881)" stroke="#050D24"/>
<rect x="40.4541" y="26.4571" width="21.4607" height="41.3283" stroke="#050D24"/>
<rect x="66.27" y="26.4571" width="21.4607" height="41.3283" stroke="#050D24"/>
<rect x="92.0859" y="26.4571" width="21.4607" height="41.3283" stroke="#050D24"/>
<rect x="123.54" y="22.8881" width="48.4663" height="5.63805" transform="rotate(90 123.54 22.8881)" stroke="#050D24"/>
<path d="M42.8701 88.4413C42.8701 88.8879 42.7835 89.2753 42.6104 89.6034C42.4372 89.9315 42.1956 90.2004 41.8857 90.41C41.5758 90.6151 41.2113 90.7587 40.792 90.8407V90.8954C41.585 90.9956 42.1797 91.2509 42.5762 91.661C42.9772 92.0712 43.1777 92.6089 43.1777 93.2743C43.1777 93.8531 43.041 94.3658 42.7676 94.8124C42.4987 95.259 42.084 95.6099 41.5234 95.8651C40.9674 96.1158 40.2542 96.2411 39.3838 96.2411C38.8551 96.2411 38.3652 96.1978 37.9141 96.1112C37.4674 96.0292 37.0391 95.8902 36.6289 95.6942V94.6278C37.0436 94.8329 37.4948 94.9947 37.9824 95.1132C38.4701 95.2271 38.9417 95.2841 39.3975 95.2841C40.3089 95.2841 40.9674 95.104 41.373 94.744C41.7786 94.3794 41.9814 93.8827 41.9814 93.2538C41.9814 92.8208 41.8675 92.4722 41.6396 92.2079C41.4163 91.939 41.0928 91.743 40.6689 91.62C40.2497 91.4924 39.7438 91.4286 39.1514 91.4286H38.1533V90.4579H39.1582C39.7005 90.4579 40.1608 90.3781 40.5391 90.2186C40.9173 90.0591 41.2044 89.8358 41.4004 89.5487C41.6009 89.257 41.7012 88.913 41.7012 88.5165C41.7012 88.0106 41.5326 87.621 41.1953 87.3475C40.8581 87.0695 40.4001 86.9305 39.8213 86.9305C39.4658 86.9305 39.1423 86.967 38.8506 87.0399C38.5589 87.1128 38.2855 87.2131 38.0303 87.3407C37.7751 87.4683 37.5199 87.6164 37.2646 87.785L36.6904 87.0057C37.055 86.7232 37.4993 86.4794 38.0234 86.2743C38.5475 86.0692 39.1423 85.9667 39.8076 85.9667C40.8285 85.9667 41.5941 86.1991 42.1045 86.6639C42.6149 87.1288 42.8701 87.7212 42.8701 88.4413ZM51.7295 88.4755C52.3675 88.4755 52.9144 88.6167 53.3701 88.8993C53.8258 89.1818 54.1745 89.5783 54.416 90.0887C54.6576 90.5946 54.7783 91.1871 54.7783 91.8661V92.5702H49.6035C49.6172 93.4497 49.8359 94.1197 50.2598 94.58C50.6836 95.0402 51.2806 95.2704 52.0508 95.2704C52.5247 95.2704 52.944 95.2271 53.3086 95.1405C53.6732 95.0539 54.0514 94.9263 54.4434 94.7577V95.7557C54.0651 95.9244 53.6891 96.0474 53.3154 96.1249C52.9463 96.2024 52.5088 96.2411 52.0029 96.2411C51.2829 96.2411 50.654 96.0953 50.1162 95.8036C49.583 95.5074 49.1683 95.0744 48.8721 94.5048C48.5758 93.9351 48.4277 93.2378 48.4277 92.413C48.4277 91.6063 48.5622 90.9091 48.8311 90.3212C49.1045 89.7287 49.4873 89.273 49.9795 88.954C50.4762 88.635 51.0596 88.4755 51.7295 88.4755ZM51.7158 89.4052C51.1097 89.4052 50.6266 89.6034 50.2666 89.9999C49.9066 90.3964 49.6924 90.9501 49.624 91.661H53.5889C53.5843 91.2144 53.5137 90.8225 53.377 90.4852C53.2448 90.1434 53.042 89.8791 52.7686 89.6923C52.4951 89.5009 52.1442 89.4052 51.7158 89.4052ZM57.8477 96.1044H56.7061V85.4677H57.8477V96.1044ZM63.1318 88.4755C63.7699 88.4755 64.3167 88.6167 64.7725 88.8993C65.2282 89.1818 65.5768 89.5783 65.8184 90.0887C66.0599 90.5946 66.1807 91.1871 66.1807 91.8661V92.5702H61.0059C61.0195 93.4497 61.2383 94.1197 61.6621 94.58C62.0859 95.0402 62.6829 95.2704 63.4531 95.2704C63.9271 95.2704 64.3464 95.2271 64.7109 95.1405C65.0755 95.0539 65.4538 94.9263 65.8457 94.7577V95.7557C65.4674 95.9244 65.0915 96.0474 64.7178 96.1249C64.3486 96.2024 63.9111 96.2411 63.4053 96.2411C62.6852 96.2411 62.0563 96.0953 61.5186 95.8036C60.9854 95.5074 60.5706 95.0744 60.2744 94.5048C59.9782 93.9351 59.8301 93.2378 59.8301 92.413C59.8301 91.6063 59.9645 90.9091 60.2334 90.3212C60.5068 89.7287 60.8896 89.273 61.3818 88.954C61.8786 88.635 62.4619 88.4755 63.1318 88.4755ZM63.1182 89.4052C62.512 89.4052 62.029 89.6034 61.6689 89.9999C61.3089 90.3964 61.0947 90.9501 61.0264 91.661H64.9912C64.9867 91.2144 64.916 90.8225 64.7793 90.4852C64.6471 90.1434 64.4443 89.8791 64.1709 89.6923C63.8975 89.5009 63.5465 89.4052 63.1182 89.4052ZM76.2432 88.4755C77.068 88.4755 77.6901 88.6919 78.1094 89.1249C78.5286 89.5533 78.7383 90.2437 78.7383 91.1962V96.1044H77.6172V91.2509C77.6172 90.6447 77.485 90.1913 77.2207 89.8905C76.9609 89.5852 76.5736 89.4325 76.0586 89.4325C75.334 89.4325 74.8076 89.6421 74.4795 90.0614C74.1514 90.4807 73.9873 91.0982 73.9873 91.9139V96.1044H72.8594V91.2509C72.8594 90.8453 72.8001 90.508 72.6816 90.2391C72.5677 89.9703 72.3945 89.7697 72.1621 89.6376C71.9342 89.5009 71.6449 89.4325 71.2939 89.4325C70.7972 89.4325 70.3984 89.535 70.0977 89.7401C69.7969 89.9452 69.5781 90.2505 69.4414 90.6561C69.3092 91.0572 69.2432 91.5516 69.2432 92.1395V96.1044H68.1084V88.6122H69.0244L69.1953 89.6718H69.2568C69.4072 89.412 69.5964 89.1932 69.8242 89.0155C70.0521 88.8378 70.3073 88.7033 70.5898 88.6122C70.8724 88.521 71.1732 88.4755 71.4922 88.4755C72.0618 88.4755 72.5381 88.5826 72.9209 88.7968C73.3083 89.0064 73.5885 89.3277 73.7617 89.7606H73.8232C74.0693 89.3277 74.4066 89.0064 74.835 88.7968C75.2633 88.5826 75.7327 88.4755 76.2432 88.4755ZM83.9541 88.4755C84.5921 88.4755 85.139 88.6167 85.5947 88.8993C86.0505 89.1818 86.3991 89.5783 86.6406 90.0887C86.8822 90.5946 87.0029 91.1871 87.0029 91.8661V92.5702H81.8281C81.8418 93.4497 82.0605 94.1197 82.4844 94.58C82.9082 95.0402 83.5052 95.2704 84.2754 95.2704C84.7493 95.2704 85.1686 95.2271 85.5332 95.1405C85.8978 95.0539 86.276 94.9263 86.668 94.7577V95.7557C86.2897 95.9244 85.9137 96.0474 85.54 96.1249C85.1709 96.2024 84.7334 96.2411 84.2275 96.2411C83.5075 96.2411 82.8786 96.0953 82.3408 95.8036C81.8076 95.5074 81.3929 95.0744 81.0967 94.5048C80.8005 93.9351 80.6523 93.2378 80.6523 92.413C80.6523 91.6063 80.7868 90.9091 81.0557 90.3212C81.3291 89.7287 81.7119 89.273 82.2041 88.954C82.7008 88.635 83.2842 88.4755 83.9541 88.4755ZM83.9404 89.4052C83.3343 89.4052 82.8512 89.6034 82.4912 89.9999C82.1312 90.3964 81.917 90.9501 81.8486 91.661H85.8135C85.8089 91.2144 85.7383 90.8225 85.6016 90.4852C85.4694 90.1434 85.2666 89.8791 84.9932 89.6923C84.7197 89.5009 84.3688 89.4052 83.9404 89.4052ZM92.4785 88.4755C93.3672 88.4755 94.0394 88.6942 94.4951 89.1317C94.9508 89.5647 95.1787 90.2619 95.1787 91.2235V96.1044H94.0576V91.2987C94.0576 90.6744 93.9141 90.2072 93.627 89.8973C93.3444 89.5874 92.9092 89.4325 92.3213 89.4325C91.4919 89.4325 90.9085 89.6672 90.5713 90.1366C90.234 90.606 90.0654 91.2873 90.0654 92.1805V96.1044H88.9307V88.6122H89.8467L90.0176 89.6923H90.0791C90.2386 89.4279 90.4414 89.2069 90.6875 89.0292C90.9336 88.8469 91.2093 88.7102 91.5146 88.619C91.82 88.5233 92.1413 88.4755 92.4785 88.4755ZM99.9365 95.3114C100.123 95.3114 100.315 95.2955 100.511 95.2635C100.707 95.2316 100.866 95.1929 100.989 95.1473V96.0292C100.857 96.0884 100.673 96.1385 100.436 96.1796C100.203 96.2206 99.9753 96.2411 99.752 96.2411C99.3555 96.2411 98.9954 96.1727 98.6719 96.036C98.3483 95.8947 98.0885 95.6578 97.8926 95.3251C97.7012 94.9924 97.6055 94.5321 97.6055 93.9442V89.5009H96.5391V88.9471L97.6123 88.5028L98.0635 86.8759H98.7471V88.6122H100.941V89.5009H98.7471V93.91C98.7471 94.3794 98.8542 94.7303 99.0684 94.9628C99.2871 95.1952 99.5765 95.3114 99.9365 95.3114ZM105.392 88.4755C106.03 88.4755 106.576 88.6167 107.032 88.8993C107.488 89.1818 107.837 89.5783 108.078 90.0887C108.32 90.5946 108.44 91.1871 108.44 91.8661V92.5702H103.266C103.279 93.4497 103.498 94.1197 103.922 94.58C104.346 95.0402 104.943 95.2704 105.713 95.2704C106.187 95.2704 106.606 95.2271 106.971 95.1405C107.335 95.0539 107.714 94.9263 108.105 94.7577V95.7557C107.727 95.9244 107.351 96.0474 106.978 96.1249C106.608 96.2024 106.171 96.2411 105.665 96.2411C104.945 96.2411 104.316 96.0953 103.778 95.8036C103.245 95.5074 102.83 95.0744 102.534 94.5048C102.238 93.9351 102.09 93.2378 102.09 92.413C102.09 91.6063 102.224 90.9091 102.493 90.3212C102.767 89.7287 103.149 89.273 103.642 88.954C104.138 88.635 104.722 88.4755 105.392 88.4755ZM105.378 89.4052C104.772 89.4052 104.289 89.6034 103.929 89.9999C103.569 90.3964 103.354 90.9501 103.286 91.661H107.251C107.246 91.2144 107.176 90.8225 107.039 90.4852C106.907 90.1434 106.704 89.8791 106.431 89.6923C106.157 89.5009 105.806 89.4052 105.378 89.4052ZM113.916 88.4755C114.805 88.4755 115.477 88.6942 115.933 89.1317C116.388 89.5647 116.616 90.2619 116.616 91.2235V96.1044H115.495V91.2987C115.495 90.6744 115.352 90.2072 115.064 89.8973C114.782 89.5874 114.347 89.4325 113.759 89.4325C112.929 89.4325 112.346 89.6672 112.009 90.1366C111.672 90.606 111.503 91.2873 111.503 92.1805V96.1044H110.368V88.6122H111.284L111.455 89.6923H111.517C111.676 89.4279 111.879 89.2069 112.125 89.0292C112.371 88.8469 112.647 88.7102 112.952 88.619C113.257 88.5233 113.579 88.4755 113.916 88.4755Z" fill="#050D24"/>
</svg>
