<svg width="154" height="115" viewBox="0 0 154 115" fill="none" xmlns="http://www.w3.org/2000/svg">
<rect x="1.1665" y="0.5" width="152.333" height="113.104" rx="7.5" stroke="#050D24"/>
<rect x="24.833" y="16.5" width="105" height="6.13805" stroke="#050D24"/>
<rect x="36.6816" y="22.6381" width="48.9663" height="6.13805" transform="rotate(90 36.6816 22.6381)" stroke="#050D24"/>
<rect x="40.5371" y="26.2071" width="15.5067" height="41.8283" stroke="#050D24"/>
<rect x="59.8989" y="26.2071" width="15.5067" height="41.8283" stroke="#050D24"/>
<rect x="79.2612" y="26.2071" width="15.5067" height="41.8283" stroke="#050D24"/>
<rect x="98.623" y="26.2071" width="15.5067" height="41.8283" stroke="#050D24"/>
<rect x="124.123" y="22.6381" width="48.9663" height="6.13805" transform="rotate(90 124.123 22.6381)" stroke="#050D24"/>
<path d="M44.0713 93.787H42.5742V96.1044H41.4668V93.787H36.6338V92.83L41.3916 86.0555H42.5742V92.7616H44.0713V93.787ZM41.4668 92.7616V89.494C41.4668 89.2434 41.4691 89.0178 41.4736 88.8173C41.4782 88.6122 41.485 88.4231 41.4941 88.2499C41.5033 88.0721 41.5101 87.9035 41.5146 87.744C41.5238 87.5845 41.5306 87.4273 41.5352 87.2723H41.4805C41.3939 87.4546 41.2936 87.6483 41.1797 87.8534C41.0703 88.0539 40.9587 88.2339 40.8447 88.3934L37.7617 92.7616H41.4668ZM52.0625 88.4755C52.7005 88.4755 53.2474 88.6167 53.7031 88.8993C54.1589 89.1818 54.5075 89.5783 54.749 90.0887C54.9906 90.5946 55.1113 91.1871 55.1113 91.8661V92.5702H49.9365C49.9502 93.4497 50.1689 94.1197 50.5928 94.58C51.0166 95.0402 51.6136 95.2704 52.3838 95.2704C52.8577 95.2704 53.277 95.2271 53.6416 95.1405C54.0062 95.0539 54.3844 94.9263 54.7764 94.7577V95.7557C54.3981 95.9244 54.0221 96.0474 53.6484 96.1249C53.2793 96.2024 52.8418 96.2411 52.3359 96.2411C51.6159 96.2411 50.987 96.0953 50.4492 95.8036C49.916 95.5074 49.5013 95.0744 49.2051 94.5048C48.9089 93.9351 48.7607 93.2378 48.7607 92.413C48.7607 91.6063 48.8952 90.9091 49.1641 90.3212C49.4375 89.7287 49.8203 89.273 50.3125 88.954C50.8092 88.635 51.3926 88.4755 52.0625 88.4755ZM52.0488 89.4052C51.4427 89.4052 50.9596 89.6034 50.5996 89.9999C50.2396 90.3964 50.0254 90.9501 49.957 91.661H53.9219C53.9173 91.2144 53.8467 90.8225 53.71 90.4852C53.5778 90.1434 53.375 89.8791 53.1016 89.6923C52.8281 89.5009 52.4772 89.4052 52.0488 89.4052ZM58.1807 96.1044H57.0391V85.4677H58.1807V96.1044ZM63.4648 88.4755C64.1029 88.4755 64.6497 88.6167 65.1055 88.8993C65.5612 89.1818 65.9098 89.5783 66.1514 90.0887C66.3929 90.5946 66.5137 91.1871 66.5137 91.8661V92.5702H61.3389C61.3525 93.4497 61.5713 94.1197 61.9951 94.58C62.4189 95.0402 63.016 95.2704 63.7861 95.2704C64.2601 95.2704 64.6794 95.2271 65.0439 95.1405C65.4085 95.0539 65.7868 94.9263 66.1787 94.7577V95.7557C65.8005 95.9244 65.4245 96.0474 65.0508 96.1249C64.6816 96.2024 64.2441 96.2411 63.7383 96.2411C63.0182 96.2411 62.3893 96.0953 61.8516 95.8036C61.3184 95.5074 60.9036 95.0744 60.6074 94.5048C60.3112 93.9351 60.1631 93.2378 60.1631 92.413C60.1631 91.6063 60.2975 90.9091 60.5664 90.3212C60.8398 89.7287 61.2227 89.273 61.7148 88.954C62.2116 88.635 62.7949 88.4755 63.4648 88.4755ZM63.4512 89.4052C62.8451 89.4052 62.362 89.6034 62.002 89.9999C61.6419 90.3964 61.4277 90.9501 61.3594 91.661H65.3242C65.3197 91.2144 65.249 90.8225 65.1123 90.4852C64.9801 90.1434 64.7773 89.8791 64.5039 89.6923C64.2305 89.5009 63.8796 89.4052 63.4512 89.4052ZM76.5762 88.4755C77.401 88.4755 78.0231 88.6919 78.4424 89.1249C78.8617 89.5533 79.0713 90.2437 79.0713 91.1962V96.1044H77.9502V91.2509C77.9502 90.6447 77.818 90.1913 77.5537 89.8905C77.2939 89.5852 76.9066 89.4325 76.3916 89.4325C75.667 89.4325 75.1406 89.6421 74.8125 90.0614C74.4844 90.4807 74.3203 91.0982 74.3203 91.9139V96.1044H73.1924V91.2509C73.1924 90.8453 73.1331 90.508 73.0146 90.2391C72.9007 89.9703 72.7275 89.7697 72.4951 89.6376C72.2673 89.5009 71.9779 89.4325 71.627 89.4325C71.1302 89.4325 70.7314 89.535 70.4307 89.7401C70.1299 89.9452 69.9111 90.2505 69.7744 90.6561C69.6423 91.0572 69.5762 91.5516 69.5762 92.1395V96.1044H68.4414V88.6122H69.3574L69.5283 89.6718H69.5898C69.7402 89.412 69.9294 89.1932 70.1572 89.0155C70.3851 88.8378 70.6403 88.7033 70.9229 88.6122C71.2054 88.521 71.5062 88.4755 71.8252 88.4755C72.3949 88.4755 72.8711 88.5826 73.2539 88.7968C73.6413 89.0064 73.9215 89.3277 74.0947 89.7606H74.1562C74.4023 89.3277 74.7396 89.0064 75.168 88.7968C75.5964 88.5826 76.0658 88.4755 76.5762 88.4755ZM84.2871 88.4755C84.9251 88.4755 85.472 88.6167 85.9277 88.8993C86.3835 89.1818 86.7321 89.5783 86.9736 90.0887C87.2152 90.5946 87.3359 91.1871 87.3359 91.8661V92.5702H82.1611C82.1748 93.4497 82.3936 94.1197 82.8174 94.58C83.2412 95.0402 83.8382 95.2704 84.6084 95.2704C85.0824 95.2704 85.5016 95.2271 85.8662 95.1405C86.2308 95.0539 86.609 94.9263 87.001 94.7577V95.7557C86.6227 95.9244 86.2467 96.0474 85.873 96.1249C85.5039 96.2024 85.0664 96.2411 84.5605 96.2411C83.8405 96.2411 83.2116 96.0953 82.6738 95.8036C82.1406 95.5074 81.7259 95.0744 81.4297 94.5048C81.1335 93.9351 80.9854 93.2378 80.9854 92.413C80.9854 91.6063 81.1198 90.9091 81.3887 90.3212C81.6621 89.7287 82.0449 89.273 82.5371 88.954C83.0339 88.635 83.6172 88.4755 84.2871 88.4755ZM84.2734 89.4052C83.6673 89.4052 83.1842 89.6034 82.8242 89.9999C82.4642 90.3964 82.25 90.9501 82.1816 91.661H86.1465C86.1419 91.2144 86.0713 90.8225 85.9346 90.4852C85.8024 90.1434 85.5996 89.8791 85.3262 89.6923C85.0527 89.5009 84.7018 89.4052 84.2734 89.4052ZM92.8115 88.4755C93.7002 88.4755 94.3724 88.6942 94.8281 89.1317C95.2839 89.5647 95.5117 90.2619 95.5117 91.2235V96.1044H94.3906V91.2987C94.3906 90.6744 94.2471 90.2072 93.96 89.8973C93.6774 89.5874 93.2422 89.4325 92.6543 89.4325C91.8249 89.4325 91.2415 89.6672 90.9043 90.1366C90.5671 90.606 90.3984 91.2873 90.3984 92.1805V96.1044H89.2637V88.6122H90.1797L90.3506 89.6923H90.4121C90.5716 89.4279 90.7744 89.2069 91.0205 89.0292C91.2666 88.8469 91.5423 88.7102 91.8477 88.619C92.153 88.5233 92.4743 88.4755 92.8115 88.4755ZM100.27 95.3114C100.456 95.3114 100.648 95.2955 100.844 95.2635C101.04 95.2316 101.199 95.1929 101.322 95.1473V96.0292C101.19 96.0884 101.006 96.1385 100.769 96.1796C100.536 96.2206 100.308 96.2411 100.085 96.2411C99.6885 96.2411 99.3285 96.1727 99.0049 96.036C98.6813 95.8947 98.4215 95.6578 98.2256 95.3251C98.0342 94.9924 97.9385 94.5321 97.9385 93.9442V89.5009H96.8721V88.9471L97.9453 88.5028L98.3965 86.8759H99.0801V88.6122H101.274V89.5009H99.0801V93.91C99.0801 94.3794 99.1872 94.7303 99.4014 94.9628C99.6201 95.1952 99.9095 95.3114 100.27 95.3114ZM105.725 88.4755C106.363 88.4755 106.91 88.6167 107.365 88.8993C107.821 89.1818 108.17 89.5783 108.411 90.0887C108.653 90.5946 108.773 91.1871 108.773 91.8661V92.5702H103.599C103.612 93.4497 103.831 94.1197 104.255 94.58C104.679 95.0402 105.276 95.2704 106.046 95.2704C106.52 95.2704 106.939 95.2271 107.304 95.1405C107.668 95.0539 108.047 94.9263 108.438 94.7577V95.7557C108.06 95.9244 107.684 96.0474 107.311 96.1249C106.941 96.2024 106.504 96.2411 105.998 96.2411C105.278 96.2411 104.649 96.0953 104.111 95.8036C103.578 95.5074 103.163 95.0744 102.867 94.5048C102.571 93.9351 102.423 93.2378 102.423 92.413C102.423 91.6063 102.557 90.9091 102.826 90.3212C103.1 89.7287 103.482 89.273 103.975 88.954C104.471 88.635 105.055 88.4755 105.725 88.4755ZM105.711 89.4052C105.105 89.4052 104.622 89.6034 104.262 89.9999C103.902 90.3964 103.688 90.9501 103.619 91.661H107.584C107.579 91.2144 107.509 90.8225 107.372 90.4852C107.24 90.1434 107.037 89.8791 106.764 89.6923C106.49 89.5009 106.139 89.4052 105.711 89.4052ZM114.249 88.4755C115.138 88.4755 115.81 88.6942 116.266 89.1317C116.721 89.5647 116.949 90.2619 116.949 91.2235V96.1044H115.828V91.2987C115.828 90.6744 115.685 90.2072 115.397 89.8973C115.115 89.5874 114.68 89.4325 114.092 89.4325C113.262 89.4325 112.679 89.6672 112.342 90.1366C112.005 90.606 111.836 91.2873 111.836 92.1805V96.1044H110.701V88.6122H111.617L111.788 89.6923H111.85C112.009 89.4279 112.212 89.2069 112.458 89.0292C112.704 88.8469 112.98 88.7102 113.285 88.619C113.59 88.5233 113.912 88.4755 114.249 88.4755Z" fill="#050D24"/>
</svg>
