<svg width="154" height="115" viewBox="0 0 154 115" fill="none" xmlns="http://www.w3.org/2000/svg">
<rect x="0.5" y="0.60437" width="152.333" height="113.104" rx="7.5" stroke="#050D24"/>
<rect x="24.1665" y="16.6044" width="105" height="6.13805" stroke="#050D24"/>
<rect x="36.0151" y="22.7424" width="48.9663" height="6.13805" transform="rotate(90 36.0151 22.7424)" stroke="#050D24"/>
<rect x="39.8706" y="26.3114" width="11.6343" height="41.8283" stroke="#050D24"/>
<rect x="55.3604" y="26.3114" width="11.6343" height="41.8283" stroke="#050D24"/>
<rect x="70.8496" y="26.3114" width="11.6343" height="41.8283" stroke="#050D24"/>
<rect x="86.3394" y="26.3114" width="11.6343" height="41.8283" stroke="#050D24"/>
<rect x="101.829" y="26.3114" width="11.6343" height="41.8283" stroke="#050D24"/>
<rect x="123.456" y="22.7424" width="48.9663" height="6.13805" transform="rotate(90 123.456 22.7424)" stroke="#050D24"/>
<path d="M39.5151 90.0974C40.1942 90.0974 40.7843 90.2136 41.2856 90.446C41.7869 90.6739 42.1743 91.0066 42.4478 91.4441C42.7257 91.8816 42.8647 92.4125 42.8647 93.0369C42.8647 93.7205 42.7166 94.3106 42.4204 94.8074C42.1242 95.2996 41.6981 95.6801 41.1421 95.949C40.5861 96.2133 39.9207 96.3455 39.146 96.3455C38.6265 96.3455 38.1434 96.2999 37.6968 96.2087C37.2502 96.1176 36.8742 95.9809 36.5688 95.7986V94.7185C36.9015 94.919 37.3049 95.0785 37.7788 95.197C38.2528 95.3155 38.7131 95.3748 39.1597 95.3748C39.6655 95.3748 40.1076 95.295 40.4858 95.1355C40.8687 94.9714 41.1649 94.7253 41.3745 94.3972C41.5887 94.0645 41.6958 93.6475 41.6958 93.1462C41.6958 92.4809 41.4907 91.9682 41.0806 91.6082C40.675 91.2436 40.0324 91.0613 39.1528 91.0613C38.8703 91.0613 38.5604 91.0841 38.2231 91.1296C37.8859 91.1752 37.6079 91.2253 37.3892 91.28L36.8149 90.9041L37.1978 86.2146H42.1675V87.2537H38.1685L37.9155 90.2683C38.0887 90.2319 38.312 90.1954 38.5854 90.1589C38.8589 90.1179 39.1688 90.0974 39.5151 90.0974ZM51.396 88.5798C52.034 88.5798 52.5809 88.7211 53.0366 89.0037C53.4924 89.2862 53.841 89.6827 54.0825 90.1931C54.3241 90.699 54.4448 91.2914 54.4448 91.9705V92.6746H49.27C49.2837 93.5541 49.5024 94.224 49.9263 94.6843C50.3501 95.1446 50.9471 95.3748 51.7173 95.3748C52.1912 95.3748 52.6105 95.3315 52.9751 95.2449C53.3397 95.1583 53.7179 95.0307 54.1099 94.8621V95.8601C53.7316 96.0287 53.3556 96.1518 52.9819 96.2292C52.6128 96.3067 52.1753 96.3455 51.6694 96.3455C50.9494 96.3455 50.3205 96.1996 49.7827 95.908C49.2495 95.6117 48.8348 95.1788 48.5386 94.6091C48.2424 94.0395 48.0942 93.3422 48.0942 92.5173C48.0942 91.7107 48.2287 91.0134 48.4976 90.4255C48.771 89.8331 49.1538 89.3774 49.646 89.0583C50.1427 88.7393 50.7261 88.5798 51.396 88.5798ZM51.3823 89.5095C50.7762 89.5095 50.2931 89.7078 49.9331 90.1042C49.5731 90.5007 49.3589 91.0544 49.2905 91.7654H53.2554C53.2508 91.3188 53.1802 90.9268 53.0435 90.5896C52.9113 90.2478 52.7085 89.9835 52.4351 89.7966C52.1616 89.6052 51.8107 89.5095 51.3823 89.5095ZM57.5142 96.2087H56.3726V85.572H57.5142V96.2087ZM62.7983 88.5798C63.4364 88.5798 63.9832 88.7211 64.439 89.0037C64.8947 89.2862 65.2433 89.6827 65.4849 90.1931C65.7264 90.699 65.8472 91.2914 65.8472 91.9705V92.6746H60.6724C60.686 93.5541 60.9048 94.224 61.3286 94.6843C61.7524 95.1446 62.3494 95.3748 63.1196 95.3748C63.5936 95.3748 64.0129 95.3315 64.3774 95.2449C64.742 95.1583 65.1203 95.0307 65.5122 94.8621V95.8601C65.134 96.0287 64.758 96.1518 64.3843 96.2292C64.0151 96.3067 63.5776 96.3455 63.0718 96.3455C62.3517 96.3455 61.7228 96.1996 61.1851 95.908C60.6519 95.6117 60.2371 95.1788 59.9409 94.6091C59.6447 94.0395 59.4966 93.3422 59.4966 92.5173C59.4966 91.7107 59.631 91.0134 59.8999 90.4255C60.1733 89.8331 60.5562 89.3774 61.0483 89.0583C61.5451 88.7393 62.1284 88.5798 62.7983 88.5798ZM62.7847 89.5095C62.1785 89.5095 61.6955 89.7078 61.3354 90.1042C60.9754 90.5007 60.7612 91.0544 60.6929 91.7654H64.6577C64.6532 91.3188 64.5825 90.9268 64.4458 90.5896C64.3136 90.2478 64.1108 89.9835 63.8374 89.7966C63.564 89.6052 63.2131 89.5095 62.7847 89.5095ZM75.9097 88.5798C76.7345 88.5798 77.3566 88.7963 77.7759 89.2292C78.1951 89.6576 78.4048 90.3481 78.4048 91.3005V96.2087H77.2837V91.3552C77.2837 90.7491 77.1515 90.2957 76.8872 89.9949C76.6274 89.6895 76.2401 89.5369 75.7251 89.5369C75.0005 89.5369 74.4741 89.7465 74.146 90.1658C73.8179 90.585 73.6538 91.2026 73.6538 92.0183V96.2087H72.5259V91.3552C72.5259 90.9496 72.4666 90.6124 72.3481 90.3435C72.2342 90.0746 72.061 89.8741 71.8286 89.7419C71.6007 89.6052 71.3114 89.5369 70.9604 89.5369C70.4637 89.5369 70.0649 89.6394 69.7642 89.8445C69.4634 90.0496 69.2446 90.3549 69.1079 90.7605C68.9757 91.1615 68.9097 91.656 68.9097 92.2439V96.2087H67.7749V88.7166H68.6909L68.8618 89.7761H68.9233C69.0737 89.5164 69.2629 89.2976 69.4907 89.1199C69.7186 88.9421 69.9738 88.8077 70.2563 88.7166C70.5389 88.6254 70.8397 88.5798 71.1587 88.5798C71.7284 88.5798 72.2046 88.6869 72.5874 88.9011C72.9748 89.1108 73.255 89.432 73.4282 89.865H73.4897C73.7358 89.432 74.0731 89.1108 74.5015 88.9011C74.9299 88.6869 75.3993 88.5798 75.9097 88.5798ZM83.6206 88.5798C84.2586 88.5798 84.8055 88.7211 85.2612 89.0037C85.717 89.2862 86.0656 89.6827 86.3071 90.1931C86.5487 90.699 86.6694 91.2914 86.6694 91.9705V92.6746H81.4946C81.5083 93.5541 81.7271 94.224 82.1509 94.6843C82.5747 95.1446 83.1717 95.3748 83.9419 95.3748C84.4159 95.3748 84.8351 95.3315 85.1997 95.2449C85.5643 95.1583 85.9425 95.0307 86.3345 94.8621V95.8601C85.9562 96.0287 85.5802 96.1518 85.2065 96.2292C84.8374 96.3067 84.3999 96.3455 83.894 96.3455C83.174 96.3455 82.5451 96.1996 82.0073 95.908C81.4741 95.6117 81.0594 95.1788 80.7632 94.6091C80.467 94.0395 80.3188 93.3422 80.3188 92.5173C80.3188 91.7107 80.4533 91.0134 80.7222 90.4255C80.9956 89.8331 81.3784 89.3774 81.8706 89.0583C82.3674 88.7393 82.9507 88.5798 83.6206 88.5798ZM83.6069 89.5095C83.0008 89.5095 82.5177 89.7078 82.1577 90.1042C81.7977 90.5007 81.5835 91.0544 81.5151 91.7654H85.48C85.4754 91.3188 85.4048 90.9268 85.2681 90.5896C85.1359 90.2478 84.9331 89.9835 84.6597 89.7966C84.3862 89.6052 84.0353 89.5095 83.6069 89.5095ZM92.145 88.5798C93.0337 88.5798 93.7059 88.7986 94.1616 89.2361C94.6174 89.669 94.8452 90.3663 94.8452 91.3279V96.2087H93.7241V91.4031C93.7241 90.7787 93.5806 90.3116 93.2935 90.0017C93.0109 89.6918 92.5757 89.5369 91.9878 89.5369C91.1584 89.5369 90.575 89.7716 90.2378 90.241C89.9006 90.7104 89.7319 91.3917 89.7319 92.2849V96.2087H88.5972V88.7166H89.5132L89.6841 89.7966H89.7456C89.9051 89.5323 90.1079 89.3113 90.354 89.1335C90.6001 88.9513 90.8758 88.8145 91.1812 88.7234C91.4865 88.6277 91.8078 88.5798 92.145 88.5798ZM99.603 95.4158C99.7899 95.4158 99.9813 95.3998 100.177 95.3679C100.373 95.336 100.533 95.2973 100.656 95.2517V96.1335C100.524 96.1928 100.339 96.2429 100.102 96.2839C99.8696 96.325 99.6418 96.3455 99.4185 96.3455C99.022 96.3455 98.6619 96.2771 98.3384 96.1404C98.0148 95.9991 97.755 95.7621 97.5591 95.4294C97.3677 95.0968 97.272 94.6365 97.272 94.0486V89.6052H96.2056V89.0515L97.2788 88.6072L97.73 86.9802H98.4136V88.7166H100.608V89.6052H98.4136V94.0144C98.4136 94.4838 98.5207 94.8347 98.7349 95.0671C98.9536 95.2996 99.243 95.4158 99.603 95.4158ZM105.058 88.5798C105.696 88.5798 106.243 88.7211 106.699 89.0037C107.154 89.2862 107.503 89.6827 107.745 90.1931C107.986 90.699 108.107 91.2914 108.107 91.9705V92.6746H102.932C102.946 93.5541 103.165 94.224 103.588 94.6843C104.012 95.1446 104.609 95.3748 105.379 95.3748C105.853 95.3748 106.273 95.3315 106.637 95.2449C107.002 95.1583 107.38 95.0307 107.772 94.8621V95.8601C107.394 96.0287 107.018 96.1518 106.644 96.2292C106.275 96.3067 105.837 96.3455 105.332 96.3455C104.611 96.3455 103.983 96.1996 103.445 95.908C102.912 95.6117 102.497 95.1788 102.201 94.6091C101.904 94.0395 101.756 93.3422 101.756 92.5173C101.756 91.7107 101.891 91.0134 102.16 90.4255C102.433 89.8331 102.816 89.3774 103.308 89.0583C103.805 88.7393 104.388 88.5798 105.058 88.5798ZM105.044 89.5095C104.438 89.5095 103.955 89.7078 103.595 90.1042C103.235 90.5007 103.021 91.0544 102.953 91.7654H106.917C106.913 91.3188 106.842 90.9268 106.706 90.5896C106.573 90.2478 106.371 89.9835 106.097 89.7966C105.824 89.6052 105.473 89.5095 105.044 89.5095ZM113.583 88.5798C114.471 88.5798 115.143 88.7986 115.599 89.2361C116.055 89.669 116.283 90.3663 116.283 91.3279V96.2087H115.162V91.4031C115.162 90.7787 115.018 90.3116 114.731 90.0017C114.448 89.6918 114.013 89.5369 113.425 89.5369C112.596 89.5369 112.013 89.7716 111.675 90.241C111.338 90.7104 111.169 91.3917 111.169 92.2849V96.2087H110.035V88.7166H110.951L111.122 89.7966H111.183C111.343 89.5323 111.545 89.3113 111.792 89.1335C112.038 88.9513 112.313 88.8145 112.619 88.7234C112.924 88.6277 113.245 88.5798 113.583 88.5798Z" fill="#050D24"/>
</svg>
