<svg width="154" height="115" viewBox="0 0 154 115" fill="none" xmlns="http://www.w3.org/2000/svg">
<rect x="0.833496" y="0.60437" width="152.333" height="113.104" rx="7.5" stroke="#050D24"/>
<rect x="24.5" y="16.6044" width="105" height="6.13805" stroke="#050D24"/>
<rect x="36.3486" y="22.7424" width="48.9663" height="6.13805" transform="rotate(90 36.3486 22.7424)" stroke="#050D24"/>
<rect x="40.2041" y="26.3114" width="9.05275" height="41.8283" stroke="#050D24"/>
<rect x="53.1123" y="26.3114" width="9.05275" height="41.8283" stroke="#050D24"/>
<rect x="66.02" y="26.3114" width="9.05275" height="41.8283" stroke="#050D24"/>
<rect x="78.9282" y="26.3114" width="9.05275" height="41.8283" stroke="#050D24"/>
<rect x="91.8359" y="26.3114" width="9.05275" height="41.8283" stroke="#050D24"/>
<rect x="104.744" y="26.3114" width="9.05275" height="41.8283" stroke="#050D24"/>
<rect x="123.79" y="22.7424" width="48.9663" height="6.13805" transform="rotate(90 123.79 22.7424)" stroke="#050D24"/>
<path d="M36.793 91.9363C36.793 91.3347 36.834 90.7468 36.916 90.1726C37.0026 89.5984 37.1462 89.0652 37.3467 88.573C37.5472 88.0763 37.8206 87.641 38.167 87.2673C38.5133 86.8936 38.944 86.602 39.459 86.3923C39.9785 86.1781 40.6006 86.071 41.3252 86.071C41.5303 86.071 41.7513 86.0824 41.9883 86.1052C42.2253 86.1235 42.4212 86.1554 42.5762 86.2009V87.1785C42.4076 87.1192 42.2139 87.0759 41.9951 87.0486C41.7809 87.0212 41.5645 87.0076 41.3457 87.0076C40.498 87.0076 39.8304 87.1921 39.3428 87.5613C38.8597 87.9304 38.5111 88.4317 38.2969 89.0652C38.0827 89.6941 37.9596 90.4028 37.9277 91.1912H38.0029C38.1442 90.9633 38.3242 90.7582 38.543 90.5759C38.7617 90.3891 39.026 90.241 39.3359 90.1316C39.6504 90.0222 40.015 89.9675 40.4297 89.9675C41.013 89.9675 41.5212 90.086 41.9541 90.323C42.3916 90.56 42.7288 90.9041 42.9658 91.3552C43.2074 91.8064 43.3281 92.3533 43.3281 92.9958C43.3281 93.684 43.2005 94.2787 42.9453 94.78C42.6901 95.2813 42.3255 95.6687 41.8516 95.9421C41.3822 96.211 40.8216 96.3455 40.1699 96.3455C39.6823 96.3455 39.2334 96.252 38.8232 96.0652C38.4131 95.8783 38.0553 95.6003 37.75 95.2312C37.4492 94.8621 37.2145 94.4041 37.0459 93.8572C36.8773 93.3057 36.793 92.6654 36.793 91.9363ZM40.1562 95.3884C40.776 95.3884 41.2728 95.1902 41.6465 94.7937C42.0202 94.3972 42.207 93.7979 42.207 92.9958C42.207 92.3396 42.0407 91.8201 41.708 91.4373C41.3753 91.0544 40.874 90.863 40.2041 90.863C39.7484 90.863 39.3519 90.9587 39.0146 91.1501C38.6774 91.337 38.4154 91.574 38.2285 91.8611C38.0417 92.1482 37.9482 92.4399 37.9482 92.7361C37.9482 93.0369 37.9915 93.3422 38.0781 93.6521C38.1693 93.962 38.306 94.2491 38.4883 94.5134C38.6706 94.7778 38.9007 94.9897 39.1787 95.1492C39.4567 95.3087 39.7826 95.3884 40.1562 95.3884ZM51.7295 88.5798C52.3675 88.5798 52.9144 88.7211 53.3701 89.0037C53.8258 89.2862 54.1745 89.6827 54.416 90.1931C54.6576 90.699 54.7783 91.2914 54.7783 91.9705V92.6746H49.6035C49.6172 93.5541 49.8359 94.224 50.2598 94.6843C50.6836 95.1446 51.2806 95.3748 52.0508 95.3748C52.5247 95.3748 52.944 95.3315 53.3086 95.2449C53.6732 95.1583 54.0514 95.0307 54.4434 94.8621V95.8601C54.0651 96.0287 53.6891 96.1518 53.3154 96.2292C52.9463 96.3067 52.5088 96.3455 52.0029 96.3455C51.2829 96.3455 50.654 96.1996 50.1162 95.908C49.583 95.6117 49.1683 95.1788 48.8721 94.6091C48.5758 94.0395 48.4277 93.3422 48.4277 92.5173C48.4277 91.7107 48.5622 91.0134 48.8311 90.4255C49.1045 89.8331 49.4873 89.3774 49.9795 89.0583C50.4762 88.7393 51.0596 88.5798 51.7295 88.5798ZM51.7158 89.5095C51.1097 89.5095 50.6266 89.7078 50.2666 90.1042C49.9066 90.5007 49.6924 91.0544 49.624 91.7654H53.5889C53.5843 91.3188 53.5137 90.9268 53.377 90.5896C53.2448 90.2478 53.042 89.9835 52.7686 89.7966C52.4951 89.6052 52.1442 89.5095 51.7158 89.5095ZM57.8477 96.2087H56.7061V85.572H57.8477V96.2087ZM63.1318 88.5798C63.7699 88.5798 64.3167 88.7211 64.7725 89.0037C65.2282 89.2862 65.5768 89.6827 65.8184 90.1931C66.0599 90.699 66.1807 91.2914 66.1807 91.9705V92.6746H61.0059C61.0195 93.5541 61.2383 94.224 61.6621 94.6843C62.0859 95.1446 62.6829 95.3748 63.4531 95.3748C63.9271 95.3748 64.3464 95.3315 64.7109 95.2449C65.0755 95.1583 65.4538 95.0307 65.8457 94.8621V95.8601C65.4674 96.0287 65.0915 96.1518 64.7178 96.2292C64.3486 96.3067 63.9111 96.3455 63.4053 96.3455C62.6852 96.3455 62.0563 96.1996 61.5186 95.908C60.9854 95.6117 60.5706 95.1788 60.2744 94.6091C59.9782 94.0395 59.8301 93.3422 59.8301 92.5173C59.8301 91.7107 59.9645 91.0134 60.2334 90.4255C60.5068 89.8331 60.8896 89.3774 61.3818 89.0583C61.8786 88.7393 62.4619 88.5798 63.1318 88.5798ZM63.1182 89.5095C62.512 89.5095 62.029 89.7078 61.6689 90.1042C61.3089 90.5007 61.0947 91.0544 61.0264 91.7654H64.9912C64.9867 91.3188 64.916 90.9268 64.7793 90.5896C64.6471 90.2478 64.4443 89.9835 64.1709 89.7966C63.8975 89.6052 63.5465 89.5095 63.1182 89.5095ZM76.2432 88.5798C77.068 88.5798 77.6901 88.7963 78.1094 89.2292C78.5286 89.6576 78.7383 90.3481 78.7383 91.3005V96.2087H77.6172V91.3552C77.6172 90.7491 77.485 90.2957 77.2207 89.9949C76.9609 89.6895 76.5736 89.5369 76.0586 89.5369C75.334 89.5369 74.8076 89.7465 74.4795 90.1658C74.1514 90.585 73.9873 91.2026 73.9873 92.0183V96.2087H72.8594V91.3552C72.8594 90.9496 72.8001 90.6124 72.6816 90.3435C72.5677 90.0746 72.3945 89.8741 72.1621 89.7419C71.9342 89.6052 71.6449 89.5369 71.2939 89.5369C70.7972 89.5369 70.3984 89.6394 70.0977 89.8445C69.7969 90.0496 69.5781 90.3549 69.4414 90.7605C69.3092 91.1615 69.2432 91.656 69.2432 92.2439V96.2087H68.1084V88.7166H69.0244L69.1953 89.7761H69.2568C69.4072 89.5164 69.5964 89.2976 69.8242 89.1199C70.0521 88.9421 70.3073 88.8077 70.5898 88.7166C70.8724 88.6254 71.1732 88.5798 71.4922 88.5798C72.0618 88.5798 72.5381 88.6869 72.9209 88.9011C73.3083 89.1108 73.5885 89.432 73.7617 89.865H73.8232C74.0693 89.432 74.4066 89.1108 74.835 88.9011C75.2633 88.6869 75.7327 88.5798 76.2432 88.5798ZM83.9541 88.5798C84.5921 88.5798 85.139 88.7211 85.5947 89.0037C86.0505 89.2862 86.3991 89.6827 86.6406 90.1931C86.8822 90.699 87.0029 91.2914 87.0029 91.9705V92.6746H81.8281C81.8418 93.5541 82.0605 94.224 82.4844 94.6843C82.9082 95.1446 83.5052 95.3748 84.2754 95.3748C84.7493 95.3748 85.1686 95.3315 85.5332 95.2449C85.8978 95.1583 86.276 95.0307 86.668 94.8621V95.8601C86.2897 96.0287 85.9137 96.1518 85.54 96.2292C85.1709 96.3067 84.7334 96.3455 84.2275 96.3455C83.5075 96.3455 82.8786 96.1996 82.3408 95.908C81.8076 95.6117 81.3929 95.1788 81.0967 94.6091C80.8005 94.0395 80.6523 93.3422 80.6523 92.5173C80.6523 91.7107 80.7868 91.0134 81.0557 90.4255C81.3291 89.8331 81.7119 89.3774 82.2041 89.0583C82.7008 88.7393 83.2842 88.5798 83.9541 88.5798ZM83.9404 89.5095C83.3343 89.5095 82.8512 89.7078 82.4912 90.1042C82.1312 90.5007 81.917 91.0544 81.8486 91.7654H85.8135C85.8089 91.3188 85.7383 90.9268 85.6016 90.5896C85.4694 90.2478 85.2666 89.9835 84.9932 89.7966C84.7197 89.6052 84.3688 89.5095 83.9404 89.5095ZM92.4785 88.5798C93.3672 88.5798 94.0394 88.7986 94.4951 89.2361C94.9508 89.669 95.1787 90.3663 95.1787 91.3279V96.2087H94.0576V91.4031C94.0576 90.7787 93.9141 90.3116 93.627 90.0017C93.3444 89.6918 92.9092 89.5369 92.3213 89.5369C91.4919 89.5369 90.9085 89.7716 90.5713 90.241C90.234 90.7104 90.0654 91.3917 90.0654 92.2849V96.2087H88.9307V88.7166H89.8467L90.0176 89.7966H90.0791C90.2386 89.5323 90.4414 89.3113 90.6875 89.1335C90.9336 88.9513 91.2093 88.8145 91.5146 88.7234C91.82 88.6277 92.1413 88.5798 92.4785 88.5798ZM99.9365 95.4158C100.123 95.4158 100.315 95.3998 100.511 95.3679C100.707 95.336 100.866 95.2973 100.989 95.2517V96.1335C100.857 96.1928 100.673 96.2429 100.436 96.2839C100.203 96.325 99.9753 96.3455 99.752 96.3455C99.3555 96.3455 98.9954 96.2771 98.6719 96.1404C98.3483 95.9991 98.0885 95.7621 97.8926 95.4294C97.7012 95.0968 97.6055 94.6365 97.6055 94.0486V89.6052H96.5391V89.0515L97.6123 88.6072L98.0635 86.9802H98.7471V88.7166H100.941V89.6052H98.7471V94.0144C98.7471 94.4838 98.8542 94.8347 99.0684 95.0671C99.2871 95.2996 99.5765 95.4158 99.9365 95.4158ZM105.392 88.5798C106.03 88.5798 106.576 88.7211 107.032 89.0037C107.488 89.2862 107.837 89.6827 108.078 90.1931C108.32 90.699 108.44 91.2914 108.44 91.9705V92.6746H103.266C103.279 93.5541 103.498 94.224 103.922 94.6843C104.346 95.1446 104.943 95.3748 105.713 95.3748C106.187 95.3748 106.606 95.3315 106.971 95.2449C107.335 95.1583 107.714 95.0307 108.105 94.8621V95.8601C107.727 96.0287 107.351 96.1518 106.978 96.2292C106.608 96.3067 106.171 96.3455 105.665 96.3455C104.945 96.3455 104.316 96.1996 103.778 95.908C103.245 95.6117 102.83 95.1788 102.534 94.6091C102.238 94.0395 102.09 93.3422 102.09 92.5173C102.09 91.7107 102.224 91.0134 102.493 90.4255C102.767 89.8331 103.149 89.3774 103.642 89.0583C104.138 88.7393 104.722 88.5798 105.392 88.5798ZM105.378 89.5095C104.772 89.5095 104.289 89.7078 103.929 90.1042C103.569 90.5007 103.354 91.0544 103.286 91.7654H107.251C107.246 91.3188 107.176 90.9268 107.039 90.5896C106.907 90.2478 106.704 89.9835 106.431 89.7966C106.157 89.6052 105.806 89.5095 105.378 89.5095ZM113.916 88.5798C114.805 88.5798 115.477 88.7986 115.933 89.2361C116.388 89.669 116.616 90.3663 116.616 91.3279V96.2087H115.495V91.4031C115.495 90.7787 115.352 90.3116 115.064 90.0017C114.782 89.6918 114.347 89.5369 113.759 89.5369C112.929 89.5369 112.346 89.7716 112.009 90.241C111.672 90.7104 111.503 91.3917 111.503 92.2849V96.2087H110.368V88.7166H111.284L111.455 89.7966H111.517C111.676 89.5323 111.879 89.3113 112.125 89.1335C112.371 88.9513 112.647 88.8145 112.952 88.7234C113.257 88.6277 113.579 88.5798 113.916 88.5798Z" fill="#050D24"/>
</svg>
