# Blender 4.0.2
# www.blender.org
mtllib zadeldak_wall_triangle_blockhut_4500.mtl
o zadeldak_wall_triangle_blockhut_4500
v -0.051801 0.325997 -1.824264
v -0.051801 0.325997 1.824261
v -0.051801 0.153997 -2.122171
v -0.051801 0.153997 2.122168
v -0.047801 0.149997 -2.129099
v -0.047801 0.149997 2.129096
v -0.027801 0.149997 2.129096
v -0.027801 0.149997 -2.129099
v -0.023801 0.153997 2.122168
v -0.023801 0.153997 -2.122171
v -0.023801 0.325997 1.824261
v -0.023801 0.325997 -1.824264
v -0.027801 0.329997 -1.817336
v -0.027801 0.329997 1.817333
v -0.047801 0.329997 1.817333
v -0.047801 0.329997 -1.817336
v -0.051801 0.505997 -1.512501
v -0.051801 0.505997 1.512499
v -0.051801 0.333997 -1.810408
v -0.051801 0.333997 1.810405
v -0.023801 0.333997 1.810405
v -0.023801 0.333997 -1.810408
v -0.023801 0.505997 1.512499
v -0.023801 0.505997 -1.512501
v -0.027801 0.509997 1.505570
v -0.027801 0.509997 -1.505573
v -0.047801 0.509997 -1.505573
v -0.047801 0.509997 1.505570
v -0.051801 0.685997 -1.200738
v -0.051801 0.685997 1.200736
v -0.051801 0.513997 -1.498645
v -0.051801 0.513997 1.498642
v -0.023801 0.513997 1.498642
v -0.023801 0.513997 -1.498645
v -0.023801 0.685997 1.200736
v -0.023801 0.685997 -1.200738
v -0.027801 0.689997 1.193808
v -0.027801 0.689997 -1.193810
v -0.047801 0.689997 1.193808
v -0.047801 0.689997 -1.193810
v -0.051801 0.865998 -0.888974
v -0.051801 0.865998 0.888973
v -0.051801 0.693997 -1.186881
v -0.051801 0.693997 1.186879
v -0.023801 0.693997 1.186879
v -0.023801 0.693997 -1.186881
v -0.023801 0.865998 0.888973
v -0.023801 0.865998 -0.888974
v -0.027801 0.869998 -0.882046
v -0.027801 0.869998 0.882045
v -0.047801 0.869998 0.882045
v -0.047801 0.869998 -0.882046
v -0.051801 1.045998 -0.577211
v -0.051801 1.045998 0.577210
v -0.051801 0.873997 -0.875118
v -0.051801 0.873997 0.875117
v -0.023801 0.873997 0.875117
v -0.023801 0.873997 -0.875118
v -0.023801 1.045998 0.577210
v -0.023801 1.045998 -0.577211
v -0.027801 1.049998 0.570282
v -0.027801 1.049998 -0.570283
v -0.047801 1.049998 0.570282
v -0.047801 1.049998 -0.570283
v -0.051801 1.225998 -0.265448
v -0.051801 1.225998 0.265447
v -0.051801 1.053998 -0.563355
v -0.051801 1.053998 0.563354
v -0.023801 1.053998 0.563354
v -0.023801 1.053998 -0.563355
v -0.023801 1.225998 0.265447
v -0.023801 1.225998 -0.265448
v -0.027801 1.229998 -0.258520
v -0.027801 1.229998 0.258519
v -0.047801 1.229998 0.258519
v -0.047801 1.229998 -0.258520
v -0.051801 1.379257 -0.000000
v -0.051801 1.233998 -0.251591
v -0.051801 1.233998 0.251591
v -0.023801 1.233998 0.251591
v -0.023801 1.233998 -0.251591
v -0.023801 1.379257 -0.000000
vn -1.0000 -0.0000 -0.0000
vn -0.7071 -0.7071 -0.0000
vn -0.0000 -1.0000 -0.0000
vn 0.7071 -0.7071 -0.0000
vn 1.0000 -0.0000 -0.0000
vn 0.7071 0.7071 -0.0000
vn -0.0000 1.0000 -0.0000
vn -0.7071 0.7071 -0.0000
vn -0.7070 -0.7072 -0.0000
vn 0.7070 -0.7072 -0.0000
vn -0.0000 0.8660 0.5000
vn -0.0000 0.8660 -0.5000
vt 0.646707 0.731754
vt 0.612621 0.790790
vt 0.612621 -0.050311
vt 0.646707 0.008725
vt 0.612621 0.250308
vt 0.612621 1.091408
vt 0.611500 1.092781
vt 0.611500 0.248935
vt 0.062627 1.075502
vt 0.058663 1.075502
vt 0.058663 0.231655
vt 0.062627 0.231655
vt 0.576294 1.074129
vt 0.575173 1.075502
vt 0.575173 0.231656
vt 0.576294 0.233028
vt 0.610379 0.714475
vt 0.576294 0.773511
vt 0.576294 -0.067590
vt 0.610379 -0.008554
vt 0.611500 0.293437
vt 0.611500 1.013720
vt 0.610379 1.015093
vt 0.610379 0.292064
vt 0.058663 1.013720
vt 0.054700 1.013720
vt 0.054700 0.293437
vt 0.058663 0.293437
vt 0.647828 0.310717
vt 0.647828 1.030999
vt 0.646707 1.032373
vt 0.646707 0.309344
vt 0.213021 0.353846
vt 0.247106 0.294810
vt 0.247106 1.012347
vt 0.213021 0.953311
vt 0.248227 0.293437
vt 0.248227 1.013720
vt 0.574052 0.312089
vt 0.575173 0.310716
vt 0.575173 1.031000
vt 0.574052 1.029626
vt 0.539967 0.970590
vt 0.539967 0.371126
vt 0.538845 0.372499
vt 0.538845 0.969217
vt 0.054700 0.951938
vt 0.050736 0.951938
vt 0.050736 0.355219
vt 0.054700 0.355219
vt 0.211899 0.951938
vt 0.211900 0.355219
vt 0.176693 0.115010
vt 0.210778 0.055974
vt 0.210779 0.649947
vt 0.176693 0.590911
vt 0.210778 0.950565
vt 0.210778 0.356592
vt 0.721603 0.950565
vt 0.720482 0.951938
vt 0.720482 0.355220
vt 0.721603 0.356593
vt 0.755689 0.590911
vt 0.721603 0.649947
vt 0.721603 0.055974
vt 0.755689 0.115010
vt 0.756810 0.890156
vt 0.755689 0.891529
vt 0.755689 0.415629
vt 0.756810 0.417002
vt 0.050736 0.890156
vt 0.046773 0.890156
vt 0.046773 0.417002
vt 0.050736 0.417002
vt 0.175572 0.890156
vt 0.175572 0.417001
vt 0.176693 0.415628
vt 0.176693 0.891528
vt 0.467312 0.829747
vt 0.467312 0.477411
vt 0.501397 0.418375
vt 0.501397 0.888783
vt 0.502518 0.417002
vt 0.502518 0.890156
vt 0.685276 0.888783
vt 0.684155 0.890155
vt 0.684155 0.417001
vt 0.685276 0.418374
vt 0.719361 0.829747
vt 0.719361 0.477411
vt 0.720482 0.478784
vt 0.720482 0.828373
vt 0.042809 0.828374
vt 0.042809 0.478784
vt 0.046773 0.478784
vt 0.046773 0.828374
vt 0.466191 0.828374
vt 0.466191 0.478784
vt 0.430985 0.238575
vt 0.465070 0.179539
vt 0.465070 0.526383
vt 0.430985 0.467346
vt 0.465070 0.827001
vt 0.465070 0.480157
vt 0.939568 0.827001
vt 0.938447 0.828374
vt 0.938447 0.478783
vt 0.939568 0.480157
vt 0.973679 0.467365
vt 0.939384 0.526252
vt 0.939098 0.179206
vt 0.973588 0.238528
vt 0.974774 0.766592
vt 0.973653 0.767965
vt 0.973653 0.539193
vt 0.974774 0.540566
vt 0.038846 0.766592
vt 0.038846 0.540566
vt 0.042809 0.540566
vt 0.042809 0.766592
vt 0.429864 0.766592
vt 0.429864 0.540566
vt 0.430985 0.539193
vt 0.430985 0.767965
vt 0.140366 0.600975
vt 0.174451 0.541939
vt 0.174451 0.765219
vt 0.140366 0.706183
vt 0.175572 0.540566
vt 0.175572 0.766592
vt 0.503639 0.765219
vt 0.502518 0.766592
vt 0.502518 0.540566
vt 0.503639 0.541939
vt 0.537724 0.706183
vt 0.537724 0.600975
vt 0.538845 0.602348
vt 0.538846 0.704810
vt 0.034882 0.704810
vt 0.034882 0.602348
vt 0.038846 0.602348
vt 0.038846 0.704810
vt 0.139245 0.704811
vt 0.139245 0.602349
vt 0.399957 0.352961
vt 0.428742 0.303103
vt 0.428742 0.402819
vt 0.428742 0.703437
vt 0.428742 0.603721
vt 0.429864 0.602348
vt 0.429864 0.704810
vt 0.067711 0.703437
vt 0.066590 0.704809
vt 0.066590 0.602348
vt 0.067711 0.603721
vt 0.067711 0.402819
vt 0.067711 0.303103
vt 0.096497 0.352961
vt 0.497966 -0.204294
vt 0.502034 -0.204293
vt 0.502847 -0.202666
vt 0.502847 -0.132706
vt 0.502034 -0.131079
vt 0.497966 -0.131079
vt 0.497153 -0.132706
vt 0.497153 -0.202666
vt 0.502034 -0.277508
vt 0.502847 -0.275881
vt 0.502847 -0.205920
vt 0.497153 -0.205920
vt 0.497153 -0.275881
vt 0.497966 -0.277508
vt 0.497966 -0.350723
vt 0.502034 -0.350723
vt 0.502847 -0.349096
vt 0.502847 -0.279135
vt 0.497153 -0.279135
vt 0.497153 -0.349096
vt 0.497966 -0.423938
vt 0.502034 -0.423938
vt 0.502847 -0.422311
vt 0.502847 -0.352350
vt 0.497153 -0.352350
vt 0.497153 -0.422311
vt 0.502847 -0.425565
vt 0.497153 -0.425565
vt 0.497153 -0.495526
vt 0.497966 -0.497153
vt 0.502034 -0.497153
vt 0.502847 -0.495526
vt 0.497966 -0.057864
vt 0.502034 -0.057864
vt 0.502847 -0.056237
vt 0.502847 0.002847
vt 0.497153 0.002847
vt 0.497153 -0.056237
vt 0.502847 -0.129452
vt 0.502847 -0.059491
vt 0.497153 -0.059491
vt 0.497153 -0.129452
vt 0.502034 0.063558
vt 0.497966 0.063558
vt 0.497153 0.061931
vt 0.502847 0.061931
vt 0.502034 0.356418
vt 0.497966 0.356418
vt 0.497153 0.354791
vt 0.497153 0.284830
vt 0.497966 0.283203
vt 0.502034 0.283203
vt 0.502847 0.284830
vt 0.502847 0.354791
vt 0.502034 0.429632
vt 0.497966 0.429632
vt 0.497153 0.428005
vt 0.497153 0.358045
vt 0.502847 0.358045
vt 0.502847 0.428005
vt 0.497153 0.281576
vt 0.497153 0.211615
vt 0.497966 0.209988
vt 0.502034 0.209988
vt 0.502847 0.211615
vt 0.502847 0.281576
vt 0.497153 0.208361
vt 0.497153 0.138400
vt 0.497966 0.136773
vt 0.502034 0.136773
vt 0.502847 0.138400
vt 0.502847 0.208361
vt 0.497153 0.135146
vt 0.497153 0.065185
vt 0.502847 0.065185
vt 0.502847 0.135146
vt 0.497966 0.502847
vt 0.497153 0.501220
vt 0.497153 0.431259
vt 0.502847 0.431259
vt 0.502847 0.501220
vt 0.502034 0.502847
s 0
usemtl wood
f 1/1/1 3/2/1 4/3/1 2/4/1
f 4/5/2 3/6/2 5/7/2 6/8/2
f 7/9/3 6/10/3 5/11/3 8/12/3
f 9/13/4 7/14/4 8/15/4 10/16/4
f 11/17/5 9/18/5 10/19/5 12/20/5
f 13/21/6 14/22/6 11/23/6 12/24/6
f 15/25/7 14/26/7 13/27/7 16/28/7
f 15/29/8 16/30/8 1/31/8 2/32/8
f 17/33/1 19/34/1 20/35/1 18/36/1
f 20/35/2 19/34/2 16/37/2 15/38/2
f 21/39/4 14/40/4 13/41/4 22/42/4
f 21/39/5 22/42/5 24/43/5 23/44/5
f 25/45/6 23/44/6 24/43/6 26/46/6
f 28/47/7 25/48/7 26/49/7 27/50/7
f 28/51/8 27/52/8 17/33/8 18/36/8
f 29/53/1 31/54/1 32/55/1 30/56/1
f 32/57/2 31/58/2 27/52/2 28/51/2
f 33/59/4 25/60/4 26/61/4 34/62/4
f 35/63/5 33/64/5 34/65/5 36/66/5
f 37/67/6 35/68/6 36/69/6 38/70/6
f 39/71/7 37/72/7 38/73/7 40/74/7
f 39/75/8 40/76/8 29/77/8 30/78/8
f 42/79/1 41/80/1 43/81/1 44/82/1
f 44/82/2 43/81/2 40/83/2 39/84/2
f 45/85/4 37/86/4 38/87/4 46/88/4
f 47/89/5 45/85/5 46/88/5 48/90/5
f 49/91/6 50/92/6 47/89/6 48/90/6
f 50/93/7 49/94/7 52/95/7 51/96/7
f 51/97/8 52/98/8 41/80/8 42/79/8
f 53/99/1 55/100/1 56/101/1 54/102/1
f 56/103/9 55/104/9 52/98/9 51/97/9
f 57/105/10 50/106/10 49/107/10 58/108/10
f 59/109/5 57/110/5 58/111/5 60/112/5
f 61/113/6 59/114/6 60/115/6 62/116/6
f 61/117/7 62/118/7 64/119/7 63/120/7
f 63/121/8 64/122/8 53/123/8 54/124/8
f 65/125/1 67/126/1 68/127/1 66/128/1
f 68/127/2 67/126/2 64/129/2 63/130/2
f 69/131/4 61/132/4 62/133/4 70/134/4
f 71/135/5 69/131/5 70/134/5 72/136/5
f 73/137/6 74/138/6 71/135/6 72/136/6
f 74/139/7 73/140/7 76/141/7 75/142/7
f 75/143/8 76/144/8 65/125/8 66/128/8
f 77/145/1 78/146/1 79/147/1
f 79/148/2 78/149/2 76/150/2 75/151/2
f 80/152/4 74/153/4 73/154/4 81/155/4
f 80/156/5 81/157/5 82/158/5
f 51/159/11 50/160/11 57/161/11 59/162/11 61/163/11 63/164/11 54/165/11 56/166/11
f 37/167/11 45/168/11 47/169/11 50/160/11 51/159/11 42/170/11 44/171/11 39/172/11
f 28/173/11 25/174/11 33/175/11 35/176/11 37/167/11 39/172/11 30/177/11 32/178/11
f 15/179/11 14/180/11 21/181/11 23/182/11 25/174/11 28/173/11 18/183/11 20/184/11
f 11/185/11 14/180/11 15/179/11 2/186/11 4/187/11 6/188/11 7/189/11 9/190/11
f 75/191/11 74/192/11 80/193/11 82/194/11 77/195/11 79/196/11
f 63/164/11 61/163/11 69/197/11 71/198/11 74/192/11 75/191/11 66/199/11 68/200/11
f 73/201/12 76/202/12 78/203/12 77/195/12 82/194/12 81/204/12
f 26/205/12 27/206/12 31/207/12 29/208/12 40/209/12 38/210/12 36/211/12 34/212/12
f 13/213/12 16/214/12 19/215/12 17/216/12 27/206/12 26/205/12 24/217/12 22/218/12
f 38/210/12 40/209/12 43/219/12 41/220/12 52/221/12 49/222/12 48/223/12 46/224/12
f 49/222/12 52/221/12 55/225/12 53/226/12 64/227/12 62/228/12 60/229/12 58/230/12
f 62/228/12 64/227/12 67/231/12 65/232/12 76/202/12 73/201/12 72/233/12 70/234/12
f 5/235/12 3/236/12 1/237/12 16/214/12 13/213/12 12/238/12 10/239/12 8/240/12
