# Blender 4.0.2
# www.blender.org
mtllib brick_wall_1m.mtl
o brick_wall_1m
v 0.000000 0.000000 -0.050000
v 0.000000 0.400000 -0.050000
v 1.000000 0.000000 -0.050000
v 1.000000 0.400000 -0.050000
v 0.000000 0.000000 0.050000
v 0.000000 0.400000 0.050000
v 1.000000 0.400000 0.050000
v 1.000000 0.000000 0.050000
vn -1.0000 -0.0000 -0.0000
vn 1.0000 -0.0000 -0.0000
vn -0.0000 -0.0000 -1.0000
vn -0.0000 1.0000 -0.0000
vn -0.0000 -0.0000 1.0000
vn -0.0000 -1.0000 -0.0000
vt -0.504798 0.627323
vt -0.261194 0.627323
vt -0.261194 1.118643
vt -0.504798 1.118643
vt -0.233715 0.627323
vt -0.000000 0.627323
vt -0.000000 1.118643
vt -0.233715 1.118643
vt 1.000003 0.627324
vt 0.000001 0.627324
vt -0.000001 1.118643
vt 1.000001 1.118641
vt 1.000001 1.120093
vt 1.000001 1.047027
vt -0.000001 1.047027
vt -0.000001 1.120091
vt -0.000000 0.627323
vt 1.000002 0.627324
vt 1.000002 1.118643
vt -0.000000 1.118643
vt 6.209984 -0.579196
vt 6.209983 -0.295318
vt 5.209975 -0.295319
vt 5.209981 -0.579196
s 0
usemtl brick
f 1/1/1 5/2/1 6/3/1 2/4/1
f 8/5/2 3/6/2 4/7/2 7/8/2
f 3/9/3 1/10/3 2/11/3 4/12/3
f 7/13/4 4/14/4 2/15/4 6/16/4
f 5/17/5 8/18/5 7/19/5 6/20/5
f 5/21/6 1/22/6 3/23/6 8/24/6
