# Blender 4.0.2
# www.blender.org
mtllib balk_roof_end.mtl
o balk_roof_end
v -0.000000 0.000000 -0.100000
v -0.000000 0.200000 -0.100000
v 0.200000 0.200000 -0.100000
v 0.000000 0.000000 0.100000
v 0.000000 0.200000 0.100000
v 0.200000 0.200000 0.100000
v 0.100000 0.000000 -0.100000
v 0.100000 0.200000 -0.100000
v 0.100000 0.200000 0.100000
v 0.100000 0.000000 0.100000
v 0.200000 0.100000 -0.100000
v 0.200000 0.100000 0.100000
vn -0.0000 -1.0000 -0.0000
vn -0.0000 -0.0000 1.0000
vn -0.0000 -0.0000 -1.0000
vn -0.7071 0.7071 -0.0000
vn -0.0000 1.0000 -0.0000
vn 1.0000 -0.0000 -0.0000
vn -1.0000 -0.0000 -0.0000
vt -0.031306 0.062751
vt -0.062682 0.062751
vt -0.062682 0.125502
vt -0.031307 0.125502
vt -0.031342 -0.000000
vt -0.062703 0.031375
vt -0.062688 0.062751
vt -0.031313 0.062751
vt -0.031313 0.125502
vt -0.062688 0.125502
vt -0.062702 0.156878
vt -0.031342 0.188254
vt -0.313723 0.156878
vt -0.376474 0.156878
vt -0.376474 0.188254
vt -0.313723 0.188254
vt 0.000069 0.188253
vt -0.031306 0.188253
vt -0.031307 0.251005
vt 0.000069 0.251005
vt 0.125535 0.125503
vt 0.062784 0.125503
vt 0.062784 0.188254
vt 0.125535 0.188254
vt 0.000069 0.062751
vt 0.000069 0.125502
vt 0.000063 0.125502
vt 0.000033 0.188254
vt -0.313723 0.125503
vt -0.376474 0.125503
vt 0.000033 -0.000000
vt 0.000063 0.062751
s 0
usemtl wood
f 8/1/1 3/2/1 6/3/1 9/4/1
f 7/5/2 11/6/2 3/7/2 8/8/2
f 9/9/3 6/10/3 12/11/3 10/12/3
f 12/13/4 11/14/4 7/15/4 10/16/4
f 4/17/5 10/18/5 7/19/5 1/20/5
f 2/21/6 5/22/6 4/23/6 1/24/6
f 2/25/1 8/1/1 9/4/1 5/26/1
f 5/27/3 9/9/3 10/12/3 4/28/3
f 6/29/7 3/30/7 11/14/7 12/13/7
f 1/31/2 7/5/2 8/8/2 2/32/2
