# Blender 4.0.2
# www.blender.org
mtllib tile_ridge_base.mtl
o tile_ridge_base
v -0.000000 0.120922 0.000000
v 0.050000 0.111192 0.052487
v 0.050000 0.118466 0.026758
v 0.000000 0.000000 0.137770
v 0.000000 0.018032 0.134520
v -0.000000 0.042012 0.126715
v -0.000000 0.064111 0.114041
v -0.000000 0.083482 0.096983
v -0.000000 0.099379 0.076199
v -0.000000 0.111192 0.052487
v -0.000000 0.118466 0.026758
v -0.000000 0.000000 -0.100904
v -0.000000 0.013207 -0.098524
v -0.000000 0.030770 -0.092807
v 0.050000 0.099379 0.076199
v 0.050000 0.083482 0.096983
v 0.050000 0.064111 0.114041
v 0.050000 0.042012 0.126715
v 0.050000 0.018032 0.134520
v 0.050000 0.000000 0.137770
v 0.050000 0.120922 0.000000
v 0.050000 0.091981 0.043419
v 0.050000 0.097999 0.022135
v 0.050000 0.082210 0.063034
v 0.050000 0.069059 0.080228
v 0.050000 0.053035 0.094338
v 0.050000 0.034753 0.104823
v 0.050000 0.014916 0.111279
v 0.050000 0.000000 0.113967
v 0.050000 0.100031 0.000000
v 0.333333 0.091981 0.043419
v 0.333333 0.097999 0.022135
v 0.333333 0.082210 0.063034
v 0.333333 0.069059 0.080228
v 0.333333 0.053035 0.094338
v 0.333333 0.034753 0.104823
v 0.333333 0.014916 0.111279
v 0.333333 0.000000 0.113967
v 0.333333 0.100031 0.000000
v 0.333333 0.081438 0.038442
v 0.333333 0.086766 0.019598
v 0.333333 0.072786 0.055809
v 0.333333 0.061143 0.071032
v 0.333333 0.046956 0.083524
v 0.333333 0.030770 0.092807
v 0.333333 0.013207 0.098524
v 0.333333 0.000000 0.100904
v 0.333333 0.088565 0.000000
v 0.050000 0.000000 0.100904
v 0.050000 0.111192 -0.052487
v 0.050000 0.118466 -0.026758
v -0.000000 0.046956 -0.083524
v -0.000000 0.061143 -0.071032
v -0.000000 0.072786 -0.055809
v -0.000000 0.086766 -0.019598
v -0.000000 0.081438 -0.038442
v -0.000000 0.088565 0.000000
v -0.000000 0.000000 0.100904
v -0.000000 0.013207 0.098524
v -0.000000 0.030770 0.092807
v -0.000000 0.046956 0.083524
v -0.000000 0.061143 0.071032
v -0.000000 0.072786 0.055809
v -0.000000 0.000000 -0.137770
v -0.000000 0.018032 -0.134520
v -0.000000 0.042012 -0.126715
v -0.000000 0.064111 -0.114040
v -0.000000 0.083482 -0.096983
v -0.000000 0.099379 -0.076199
v -0.000000 0.111192 -0.052487
v -0.000000 0.118466 -0.026758
v -0.000000 0.086766 0.019598
v -0.000000 0.081438 0.038442
v 0.050000 0.099379 -0.076199
v 0.050000 0.083482 -0.096983
v 0.050000 0.064111 -0.114040
v 0.050000 0.042012 -0.126715
v 0.050000 0.018032 -0.134520
v 0.050000 0.000000 -0.137770
v 0.050000 0.091981 -0.043419
v 0.050000 0.097999 -0.022135
v 0.050000 0.082210 -0.063034
v 0.050000 0.069059 -0.080228
v 0.050000 0.053035 -0.094338
v 0.050000 0.034753 -0.104822
v 0.050000 0.014916 -0.111279
v 0.050000 0.000000 -0.113967
v 0.333333 0.091981 -0.043419
v 0.333333 0.097999 -0.022135
v 0.333333 0.082210 -0.063034
v 0.333333 0.069059 -0.080228
v 0.333333 0.053035 -0.094338
v 0.333333 0.034753 -0.104822
v 0.333333 0.014916 -0.111279
v 0.333333 0.000000 -0.113967
v 0.333333 0.081438 -0.038442
v 0.333333 0.086766 -0.019598
v 0.333333 0.072786 -0.055809
v 0.333333 0.061143 -0.071032
v 0.333333 0.046956 -0.083524
v 0.333333 0.030770 -0.092807
v 0.333333 0.013207 -0.098524
v 0.333333 0.000000 -0.100904
v 0.050000 0.000000 -0.100904
vn -0.0000 0.7311 0.6823
vn -0.0000 0.8485 0.5291
vn -0.0000 -0.7311 -0.6823
vn -0.0000 -0.8485 -0.5291
vn -0.0000 0.4056 0.9140
vn -0.0000 0.5821 0.8131
vn -0.0000 0.2440 0.9698
vn -0.0000 0.4057 0.9140
vn -0.0000 0.9327 0.3605
vn -0.0000 0.9832 0.1825
vn -0.0000 1.0000 -0.0000
vn 1.0000 -0.0000 -0.0000
vn -0.0000 0.1774 0.9841
vn -0.0000 -0.9832 -0.1825
vn -0.0000 -1.0000 -0.0000
vn -0.0000 -0.4056 -0.9140
vn -0.0000 -0.5821 -0.8131
vn -0.0000 -0.4057 -0.9140
vn -0.0000 -0.2440 -0.9698
vn -0.0000 -0.9327 -0.3605
vn -0.0000 -0.1774 -0.9841
vn -0.0000 -0.9832 0.1825
vn -0.0000 -0.9327 0.3605
vn -0.0000 0.8485 -0.5291
vn -0.0000 0.7311 -0.6823
vn -0.0000 -0.8485 0.5291
vn -0.0000 -0.7311 0.6823
vn -0.0000 0.5821 -0.8131
vn -0.0000 0.4056 -0.9140
vn -0.0000 0.2440 -0.9698
vn -0.0000 0.9832 -0.1825
vn -0.0000 0.9327 -0.3605
vn -0.0000 0.1774 -0.9841
vn -0.0000 -0.5821 0.8131
vn -0.0000 -0.4057 0.9140
vn -0.0000 -0.2440 0.9698
vn -0.0000 -0.1774 0.9841
vn -1.0000 -0.0000 -0.0000
vt 0.521847 0.349284
vt 0.538224 0.357855
vt 0.521847 0.357855
vt 0.074132 0.384292
vt 0.067855 0.275114
vt 0.074132 0.275114
vt 0.521847 0.332486
vt 0.538224 0.340831
vt 0.521847 0.340831
vt 0.521847 0.324226
vt 0.538224 0.332486
vt 0.538224 0.366532
vt 0.521847 0.375289
vt 0.521847 0.366532
vt 0.538224 0.349284
vt 0.538224 0.375289
vt 0.521847 0.384090
vt 0.404147 0.175747
vt 0.394216 0.177067
vt 0.398524 0.171435
vt 0.385357 0.192293
vt 0.376483 0.187237
vt 0.382980 0.185122
vt 0.408016 0.167981
vt 0.401724 0.165010
vt 0.377503 0.194849
vt 0.371597 0.188118
vt 0.410399 0.159553
vt 0.403695 0.158039
vt 0.398940 0.182555
vt 0.388968 0.181688
vt 0.411203 0.150789
vt 0.404361 0.150789
vt 0.392596 0.188141
vt 0.098806 0.342550
vt 0.191608 0.349728
vt 0.098806 0.349728
vt 0.098806 0.309767
vt 0.191608 0.314732
vt 0.098806 0.314732
vt 0.098806 0.335460
vt 0.191608 0.342550
vt 0.098806 0.328467
vt 0.191608 0.335460
vt 0.098806 0.356972
vt 0.191608 0.364253
vt 0.098806 0.364253
vt 0.098806 0.321564
vt 0.191608 0.328467
vt 0.191608 0.356972
vt 0.191608 0.321564
vt 0.403212 0.490574
vt 0.395972 0.491654
vt 0.400619 0.487562
vt 0.413356 0.464297
vt 0.409011 0.470716
vt 0.409601 0.464297
vt 0.397964 0.495196
vt 0.390671 0.494694
vt 0.412691 0.471547
vt 0.407266 0.476888
vt 0.391976 0.498630
vt 0.384918 0.496567
vt 0.410720 0.478518
vt 0.404433 0.482576
vt 0.385478 0.500744
vt 0.380593 0.497346
vt 0.407519 0.484943
vt 0.055086 0.384292
vt 0.048640 0.275114
vt 0.055086 0.275114
vt 0.086435 0.384292
vt 0.080324 0.275114
vt 0.086435 0.275114
vt 0.532608 0.111494
vt 0.536887 0.111494
vt 0.536887 0.204295
vt 0.092485 0.384292
vt 0.092485 0.275114
vt 0.061500 0.384292
vt 0.061500 0.275114
vt 0.096880 0.275114
vt 0.096880 0.367915
vt 0.042194 0.275114
vt 0.035780 0.384292
vt 0.035780 0.275114
vt 0.080324 0.384292
vt 0.538224 0.410326
vt 0.521847 0.418896
vt 0.521847 0.410326
vt 0.029425 0.384292
vt 0.023148 0.275114
vt 0.029425 0.275114
vt 0.538224 0.427350
vt 0.521847 0.435694
vt 0.521847 0.427350
vt 0.538224 0.435694
vt 0.521847 0.443954
vt 0.538224 0.392891
vt 0.521847 0.401649
vt 0.521847 0.392891
vt 0.538224 0.418896
vt 0.538224 0.384090
vt 0.538224 0.401649
vt 0.404147 0.125831
vt 0.394216 0.124512
vt 0.398940 0.119024
vt 0.385357 0.109286
vt 0.376483 0.114341
vt 0.377503 0.106729
vt 0.408016 0.133598
vt 0.398524 0.130143
vt 0.371597 0.113461
vt 0.371597 0.105665
vt 0.410399 0.142025
vt 0.401724 0.136568
vt 0.388968 0.119890
vt 0.392596 0.113437
vt 0.403695 0.143539
vt 0.382980 0.116456
vt 0.191608 0.378778
vt 0.098806 0.385956
vt 0.098806 0.378778
vt 0.191608 0.413774
vt 0.098806 0.418738
vt 0.098806 0.413774
vt 0.191608 0.385956
vt 0.098806 0.393045
vt 0.191608 0.393045
vt 0.098806 0.400039
vt 0.098806 0.371533
vt 0.191608 0.400039
vt 0.098806 0.406941
vt 0.191608 0.371533
vt 0.191608 0.406941
vt 0.403212 0.438019
vt 0.395972 0.436940
vt 0.397964 0.433398
vt 0.409011 0.457878
vt 0.412691 0.457047
vt 0.390671 0.433899
vt 0.391976 0.429964
vt 0.407266 0.451706
vt 0.410720 0.450075
vt 0.384918 0.432027
vt 0.385478 0.427849
vt 0.404433 0.446017
vt 0.407519 0.443651
vt 0.380593 0.431247
vt 0.380593 0.426968
vt 0.400619 0.441031
vt 0.048640 0.384292
vt 0.016956 0.384292
vt 0.010845 0.275114
vt 0.016956 0.275114
vt 0.536071 0.093421
vt 0.531793 0.093421
vt 0.536071 0.000620
vt 0.010845 0.384292
vt 0.004795 0.275114
vt 0.004795 0.384292
vt 0.000400 0.384292
vt 0.000400 0.367915
vt 0.538224 0.443954
vt 0.521847 0.449955
vt 0.122385 0.421052
vt 0.116479 0.432063
vt 0.116479 0.419988
vt 0.120804 0.432842
vt 0.130239 0.423609
vt 0.126557 0.434714
vt 0.137477 0.427760
vt 0.131858 0.437755
vt 0.143822 0.433347
vt 0.136505 0.441847
vt 0.149029 0.440154
vt 0.140319 0.446833
vt 0.152898 0.447921
vt 0.143152 0.452521
vt 0.155281 0.456348
vt 0.144898 0.458693
vt 0.156085 0.465112
vt 0.145487 0.465112
vt 0.144898 0.471531
vt 0.155281 0.473876
vt 0.143152 0.477703
vt 0.152898 0.482303
vt 0.140319 0.483392
vt 0.149029 0.490070
vt 0.136505 0.488377
vt 0.143822 0.496878
vt 0.131858 0.492469
vt 0.137477 0.502464
vt 0.126557 0.495510
vt 0.120804 0.497382
vt 0.130239 0.506616
vt 0.122385 0.509172
vt 0.116479 0.498162
vt 0.116479 0.510237
vt 0.521847 0.318225
vt 0.538224 0.324226
vt 0.067855 0.384292
vt 0.371597 0.195914
vt 0.191608 0.309767
vt 0.380593 0.501625
vt 0.544683 0.204295
vt 0.544683 0.220672
vt 0.532608 0.220672
vt 0.532608 0.204295
vt 0.096880 0.384292
vt 0.042194 0.384292
vt 0.023148 0.384292
vt 0.191608 0.418738
vt 0.536071 0.109798
vt 0.523996 0.109798
vt 0.523996 0.093421
vt 0.531793 0.000620
vt 0.000400 0.275114
vt 0.538224 0.449955
vt 0.538224 0.318225
s 1
usemtl tile
f 8/1/1 15/2/2 9/3/2
f 62/4/3 42/5/4 43/6/3
f 6/7/5 17/8/6 7/9/6
f 5/10/7 18/11/8 6/7/5
f 2/12/9 11/13/10 10/14/9
f 7/9/6 16/15/1 8/1/1
f 3/16/10 1/17/11 11/13/10
f 9/3/2 2/12/9 10/14/9
f 15/18/12 25/19/12 24/20/12
f 18/21/12 28/22/12 27/23/12
f 2/24/12 24/20/12 22/25/12
f 19/26/12 29/27/12 28/22/12
f 3/28/12 22/25/12 23/29/12
f 16/30/12 26/31/12 25/19/12
f 21/32/12 23/29/12 30/33/12
f 17/34/12 27/23/12 26/31/12
f 24/35/2 31/36/9 22/37/9
f 29/38/13 37/39/7 28/40/7
f 25/41/1 33/42/2 24/35/2
f 26/43/6 34/44/1 25/41/1
f 23/45/10 39/46/11 30/47/11
f 27/48/5 35/49/6 26/43/6
f 22/37/9 32/50/10 23/45/10
f 28/40/7 36/51/5 27/48/5
f 34/52/12 44/53/12 43/54/12
f 39/55/12 41/56/12 48/57/12
f 35/58/12 45/59/12 44/53/12
f 32/60/12 40/61/12 41/56/12
f 36/62/12 46/63/12 45/59/12
f 31/64/12 42/65/12 40/61/12
f 37/66/12 47/67/12 46/63/12
f 33/68/12 43/54/12 42/65/12
f 72/69/14 48/70/15 41/71/14
f 60/72/16 44/73/17 45/74/18
f 47/75/15 38/76/15 29/77/15
f 59/78/19 45/74/18 46/79/19
f 42/5/4 73/80/20 40/81/20
f 46/79/19 47/82/21 49/83/21
f 97/84/22 56/85/23 96/86/23
f 61/87/17 43/6/3 44/73/17
f 74/88/24 68/89/25 69/90/24
f 54/91/26 99/92/27 98/93/26
f 76/94/28 66/95/29 67/96/28
f 77/97/29 65/98/30 66/95/29
f 51/99/31 70/100/32 71/101/31
f 75/102/25 67/96/28 68/89/25
f 21/103/11 71/101/31 1/17/11
f 50/104/32 69/90/24 70/100/32
f 74/105/12 83/106/12 75/107/12
f 77/108/12 86/109/12 78/110/12
f 50/111/12 82/112/12 74/105/12
f 78/110/12 87/113/12 79/114/12
f 51/115/12 80/116/12 50/111/12
f 75/107/12 84/117/12 76/118/12
f 21/32/12 81/119/12 51/115/12
f 76/118/12 85/120/12 77/108/12
f 88/121/32 82/122/24 80/123/32
f 94/124/30 87/125/33 86/126/30
f 90/127/24 83/128/25 82/122/24
f 91/129/25 84/130/28 83/128/25
f 39/46/11 81/131/31 30/47/11
f 92/132/28 85/133/29 84/130/28
f 89/134/31 80/123/32 81/131/31
f 93/135/29 86/126/30 85/133/29
f 91/136/12 100/137/12 92/138/12
f 39/55/12 97/139/12 89/140/12
f 92/138/12 101/141/12 93/142/12
f 89/140/12 96/143/12 88/144/12
f 93/142/12 102/145/12 94/146/12
f 88/144/12 98/147/12 90/148/12
f 94/146/12 103/149/12 95/150/12
f 90/148/12 99/151/12 91/136/12
f 57/152/15 97/84/22 48/70/15
f 52/153/34 101/154/35 100/155/34
f 104/156/15 87/157/15 103/158/15
f 14/159/35 102/160/36 101/154/35
f 96/86/23 54/91/26 98/93/26
f 13/161/36 12/162/37 104/163/37
f 78/164/30 64/165/33 65/98/30
f 99/92/27 52/153/34 100/155/34
f 5/166/38 58/167/38 4/168/38
f 40/81/20 72/69/14 41/71/14
f 59/169/38 6/170/38 60/171/38
f 60/171/38 7/172/38 61/173/38
f 61/173/38 8/174/38 62/175/38
f 62/175/38 9/176/38 63/177/38
f 63/177/38 10/178/38 73/179/38
f 73/179/38 11/180/38 72/181/38
f 72/181/38 1/182/38 57/183/38
f 55/184/38 1/182/38 71/185/38
f 56/186/38 71/185/38 70/187/38
f 54/188/38 70/187/38 69/189/38
f 53/190/38 69/189/38 68/191/38
f 52/192/38 68/191/38 67/193/38
f 67/193/38 14/194/38 52/192/38
f 13/195/38 66/196/38 65/197/38
f 12/198/38 65/197/38 64/199/38
f 4/200/13 19/201/7 5/10/7
f 8/1/1 16/15/1 15/2/2
f 62/4/3 63/202/4 42/5/4
f 6/7/5 18/11/8 17/8/6
f 5/10/7 19/201/7 18/11/8
f 2/12/9 3/16/10 11/13/10
f 7/9/6 17/8/6 16/15/1
f 3/16/10 21/103/11 1/17/11
f 9/3/2 15/2/2 2/12/9
f 15/18/12 16/30/12 25/19/12
f 18/21/12 19/26/12 28/22/12
f 2/24/12 15/18/12 24/20/12
f 19/26/12 20/203/12 29/27/12
f 3/28/12 2/24/12 22/25/12
f 16/30/12 17/34/12 26/31/12
f 21/32/12 3/28/12 23/29/12
f 17/34/12 18/21/12 27/23/12
f 24/35/2 33/42/2 31/36/9
f 29/38/13 38/204/13 37/39/7
f 25/41/1 34/44/1 33/42/2
f 26/43/6 35/49/6 34/44/1
f 23/45/10 32/50/10 39/46/11
f 27/48/5 36/51/5 35/49/6
f 22/37/9 31/36/9 32/50/10
f 28/40/7 37/39/7 36/51/5
f 34/52/12 35/58/12 44/53/12
f 39/55/12 32/60/12 41/56/12
f 35/58/12 36/62/12 45/59/12
f 32/60/12 31/64/12 40/61/12
f 36/62/12 37/66/12 46/63/12
f 31/64/12 33/68/12 42/65/12
f 37/66/12 38/205/12 47/67/12
f 33/68/12 34/52/12 43/54/12
f 72/69/14 57/152/15 48/70/15
f 60/72/16 61/87/17 44/73/17
f 20/206/15 4/207/15 29/77/15
f 4/207/15 58/208/15 29/77/15
f 58/208/15 49/209/15 29/77/15
f 49/209/15 47/75/15 29/77/15
f 59/78/19 60/72/16 45/74/18
f 42/5/4 63/202/4 73/80/20
f 49/83/21 58/210/21 59/78/19
f 59/78/19 46/79/19 49/83/21
f 97/84/22 55/211/22 56/85/23
f 61/87/17 62/4/3 43/6/3
f 74/88/24 75/102/25 68/89/25
f 54/91/26 53/212/27 99/92/27
f 76/94/28 77/97/29 66/95/29
f 77/97/29 78/164/30 65/98/30
f 51/99/31 50/104/32 70/100/32
f 75/102/25 76/94/28 67/96/28
f 21/103/11 51/99/31 71/101/31
f 50/104/32 74/88/24 69/90/24
f 74/105/12 82/112/12 83/106/12
f 77/108/12 85/120/12 86/109/12
f 50/111/12 80/116/12 82/112/12
f 78/110/12 86/109/12 87/113/12
f 51/115/12 81/119/12 80/116/12
f 75/107/12 83/106/12 84/117/12
f 21/32/12 30/33/12 81/119/12
f 76/118/12 84/117/12 85/120/12
f 88/121/32 90/127/24 82/122/24
f 94/124/30 95/213/33 87/125/33
f 90/127/24 91/129/25 83/128/25
f 91/129/25 92/132/28 84/130/28
f 39/46/11 89/134/31 81/131/31
f 92/132/28 93/135/29 85/133/29
f 89/134/31 88/121/32 80/123/32
f 93/135/29 94/124/30 86/126/30
f 91/136/12 99/151/12 100/137/12
f 39/55/12 48/57/12 97/139/12
f 92/138/12 100/137/12 101/141/12
f 89/140/12 97/139/12 96/143/12
f 93/142/12 101/141/12 102/145/12
f 88/144/12 96/143/12 98/147/12
f 94/146/12 102/145/12 103/149/12
f 90/148/12 98/147/12 99/151/12
f 57/152/15 55/211/22 97/84/22
f 52/153/34 14/159/35 101/154/35
f 104/156/15 12/214/15 87/157/15
f 12/214/15 64/215/15 87/157/15
f 64/215/15 79/216/15 87/157/15
f 87/157/15 95/217/15 103/158/15
f 14/159/35 13/161/36 102/160/36
f 96/86/23 56/85/23 54/91/26
f 103/218/37 102/160/36 104/163/37
f 102/160/36 13/161/36 104/163/37
f 78/164/30 79/219/33 64/165/33
f 99/92/27 53/212/27 52/153/34
f 5/166/38 59/169/38 58/167/38
f 40/81/20 73/80/20 72/69/14
f 59/169/38 5/166/38 6/170/38
f 60/171/38 6/170/38 7/172/38
f 61/173/38 7/172/38 8/174/38
f 62/175/38 8/174/38 9/176/38
f 63/177/38 9/176/38 10/178/38
f 73/179/38 10/178/38 11/180/38
f 72/181/38 11/180/38 1/182/38
f 55/184/38 57/183/38 1/182/38
f 56/186/38 55/184/38 71/185/38
f 54/188/38 56/186/38 70/187/38
f 53/190/38 54/188/38 69/189/38
f 52/192/38 53/190/38 68/191/38
f 67/193/38 66/196/38 14/194/38
f 13/195/38 14/194/38 66/196/38
f 12/198/38 13/195/38 65/197/38
f 4/200/13 20/220/13 19/201/7
