# Blender 4.0.2
# www.blender.org
mtllib tile_ridge_base_small.mtl
o tile_ridge_base_small
v -0.000000 0.120922 0.000000
v 0.050000 0.111192 0.052487
v 0.050000 0.118466 0.026758
v -0.000000 0.000000 0.137770
v -0.000000 0.018032 0.134520
v -0.000000 0.042012 0.126715
v -0.000000 0.064111 0.114041
v -0.000000 0.083482 0.096983
v -0.000000 0.099379 0.076199
v -0.000000 0.111192 0.052487
v -0.000000 0.118466 0.026758
v -0.000000 0.000000 -0.100904
v -0.000000 0.013207 -0.098524
v -0.000000 0.030770 -0.092807
v 0.050000 0.099379 0.076199
v 0.050000 0.083482 0.096983
v 0.050000 0.064111 0.114041
v 0.050000 0.042012 0.126715
v 0.050000 0.018032 0.134520
v 0.050000 0.000000 0.137770
v 0.050000 0.120922 0.000000
v 0.050000 0.091981 0.043419
v 0.050000 0.097999 0.022135
v 0.050000 0.082210 0.063034
v 0.050000 0.069059 0.080228
v 0.050000 0.053035 0.094338
v 0.050000 0.034753 0.104823
v 0.050000 0.014916 0.111279
v 0.050000 0.000000 0.113967
v 0.050000 0.100031 0.000000
v 0.166667 0.091981 0.043419
v 0.166667 0.097999 0.022135
v 0.166667 0.082210 0.063034
v 0.166667 0.069059 0.080228
v 0.166667 0.053035 0.094338
v 0.166667 0.034753 0.104823
v 0.166667 0.014916 0.111279
v 0.166667 0.000000 0.113967
v 0.166667 0.100031 0.000000
v 0.166667 0.081438 0.038442
v 0.166667 0.086766 0.019598
v 0.166667 0.072786 0.055809
v 0.166667 0.061143 0.071032
v 0.166667 0.046956 0.083524
v 0.166667 0.030770 0.092807
v 0.166667 0.013207 0.098524
v 0.166667 0.000000 0.100904
v 0.166667 0.088565 0.000000
v 0.050000 0.000000 0.100904
v 0.050000 0.111192 -0.052487
v 0.050000 0.118466 -0.026758
v -0.000000 0.046956 -0.083524
v -0.000000 0.061143 -0.071032
v -0.000000 0.072786 -0.055809
v -0.000000 0.086766 -0.019598
v -0.000000 0.081438 -0.038442
v -0.000000 0.088565 0.000000
v -0.000000 0.000000 0.100904
v -0.000000 0.013207 0.098524
v -0.000000 0.030770 0.092807
v -0.000000 0.046956 0.083524
v -0.000000 0.061143 0.071032
v -0.000000 0.072786 0.055809
v -0.000000 0.000000 -0.137770
v -0.000000 0.018032 -0.134520
v -0.000000 0.042012 -0.126715
v -0.000000 0.064111 -0.114040
v -0.000000 0.083482 -0.096983
v -0.000000 0.099379 -0.076199
v -0.000000 0.111192 -0.052487
v -0.000000 0.118466 -0.026758
v -0.000000 0.086766 0.019598
v -0.000000 0.081438 0.038442
v 0.050000 0.099379 -0.076199
v 0.050000 0.083482 -0.096983
v 0.050000 0.064111 -0.114040
v 0.050000 0.042012 -0.126715
v 0.050000 0.018032 -0.134520
v 0.050000 0.000000 -0.137770
v 0.050000 0.091981 -0.043419
v 0.050000 0.097999 -0.022135
v 0.050000 0.082210 -0.063034
v 0.050000 0.069059 -0.080228
v 0.050000 0.053035 -0.094338
v 0.050000 0.034753 -0.104822
v 0.050000 0.014916 -0.111279
v 0.050000 0.000000 -0.113967
v 0.166667 0.091981 -0.043419
v 0.166667 0.097999 -0.022135
v 0.166667 0.082210 -0.063034
v 0.166667 0.069059 -0.080228
v 0.166667 0.053035 -0.094338
v 0.166667 0.034753 -0.104822
v 0.166667 0.014916 -0.111279
v 0.166667 0.000000 -0.113967
v 0.166667 0.081438 -0.038442
v 0.166667 0.086766 -0.019598
v 0.166667 0.072786 -0.055809
v 0.166667 0.061143 -0.071032
v 0.166667 0.046956 -0.083524
v 0.166667 0.030770 -0.092807
v 0.166667 0.013207 -0.098524
v 0.166667 0.000000 -0.100904
v 0.050000 0.000000 -0.100904
vn -0.0000 0.7311 0.6823
vn -0.0000 0.8485 0.5291
vn -0.0000 -0.7311 -0.6823
vn -0.0000 -0.8485 -0.5291
vn -0.0000 0.4056 0.9140
vn -0.0000 0.5821 0.8131
vn -0.0000 0.2440 0.9698
vn -0.0000 0.4057 0.9140
vn -0.0000 0.9327 0.3605
vn -0.0000 0.9832 0.1825
vn -0.0000 1.0000 -0.0000
vn 1.0000 -0.0000 -0.0000
vn -0.0000 0.1774 0.9841
vn -0.0000 -0.9832 -0.1825
vn -0.0000 -1.0000 -0.0000
vn -0.0000 -0.4057 -0.9140
vn -0.0000 -0.5821 -0.8131
vn -0.0000 -0.2440 -0.9698
vn -0.0000 -0.9327 -0.3605
vn -0.0000 -0.1774 -0.9841
vn -0.0000 -0.9832 0.1825
vn -0.0000 -0.9327 0.3605
vn -0.0000 0.8485 -0.5291
vn -0.0000 0.7311 -0.6823
vn -0.0000 -0.8485 0.5291
vn -0.0000 -0.7311 0.6823
vn -0.0000 0.5821 -0.8131
vn -0.0000 0.4056 -0.9140
vn -0.0000 0.2440 -0.9698
vn -0.0000 0.9832 -0.1825
vn -0.0000 0.9327 -0.3605
vn -0.0000 0.1774 -0.9841
vn -0.0000 -0.5821 0.8131
vn -0.0000 -0.4057 0.9140
vn -0.0000 -0.2440 0.9698
vn -0.0000 -0.1774 0.9841
vn -1.0000 -0.0000 -0.0000
vn -0.0000 -0.4056 0.9140
vt 0.454281 0.088036
vt 0.500548 0.112249
vt 0.454281 0.112249
vt 0.154470 0.064571
vt 0.000246 0.082305
vt 0.000246 0.064571
vt 0.454281 0.040578
vt 0.500548 0.064152
vt 0.454281 0.064152
vt 0.454281 0.017242
vt 0.500549 0.040578
vt 0.500548 0.136763
vt 0.454281 0.161505
vt 0.454281 0.136763
vt 0.500548 0.088036
vt 0.500548 0.161505
vt 0.454281 0.186370
vt 0.356284 0.221288
vt 0.328227 0.225015
vt 0.340396 0.209106
vt 0.303199 0.268032
vt 0.278126 0.253749
vt 0.296482 0.247774
vt 0.367215 0.199346
vt 0.349438 0.190954
vt 0.281009 0.275255
vt 0.264323 0.256236
vt 0.373946 0.175537
vt 0.355006 0.171259
vt 0.341573 0.240520
vt 0.313399 0.238072
vt 0.376219 0.150777
vt 0.356887 0.150777
vt 0.323649 0.256304
vt 0.155773 0.093156
vt 0.263730 0.113434
vt 0.155773 0.113434
vt 0.155773 0.000538
vt 0.263730 0.014563
vt 0.155773 0.014563
vt 0.155773 0.073126
vt 0.263730 0.093156
vt 0.155773 0.053368
vt 0.263730 0.073126
vt 0.155773 0.154470
vt 0.263730 0.133902
vt 0.263730 0.154470
vt 0.263730 0.033867
vt 0.263730 0.053368
vt 0.155773 0.133902
vt 0.155773 0.033867
vt 0.384975 0.270257
vt 0.405429 0.267207
vt 0.392300 0.278767
vt 0.356316 0.344496
vt 0.368590 0.326361
vt 0.366926 0.344496
vt 0.399803 0.257200
vt 0.420406 0.258617
vt 0.358196 0.324013
vt 0.373520 0.308923
vt 0.416720 0.247498
vt 0.436658 0.253327
vt 0.363764 0.304318
vt 0.381526 0.292853
vt 0.435076 0.241524
vt 0.448879 0.251124
vt 0.372806 0.286167
vt 0.000246 0.118381
vt 0.154470 0.136592
vt 0.000246 0.136592
vt 0.154470 0.029813
vt 0.000246 0.047079
vt 0.000246 0.029813
vt 0.344796 0.360318
vt 0.356884 0.360318
vt 0.356884 0.468275
vt 0.000246 0.012721
vt 0.154470 0.100260
vt 0.000246 0.100260
vt 0.000246 0.000304
vt 0.108203 0.000304
vt 0.154470 0.154803
vt 0.000246 0.172924
vt 0.000246 0.154803
vt 0.500548 0.260490
vt 0.454281 0.284703
vt 0.454281 0.260490
vt 0.154470 0.190878
vt 0.000246 0.208612
vt 0.000246 0.190878
vt 0.500548 0.308587
vt 0.454281 0.332161
vt 0.454281 0.308587
vt 0.500548 0.332161
vt 0.454281 0.355497
vt 0.500548 0.211234
vt 0.454281 0.235976
vt 0.454281 0.211234
vt 0.500548 0.284703
vt 0.500548 0.186370
vt 0.500548 0.235976
vt 0.356284 0.080266
vt 0.328227 0.076538
vt 0.341573 0.061033
vt 0.303199 0.033521
vt 0.278126 0.047805
vt 0.281009 0.026299
vt 0.367215 0.102208
vt 0.340396 0.092448
vt 0.264323 0.045317
vt 0.264323 0.023291
vt 0.373946 0.126016
vt 0.349438 0.110599
vt 0.313399 0.063481
vt 0.323649 0.045249
vt 0.355006 0.130294
vt 0.296482 0.053779
vt 0.263730 0.195506
vt 0.155773 0.215785
vt 0.155773 0.195506
vt 0.263730 0.294377
vt 0.155773 0.308402
vt 0.155773 0.294377
vt 0.263730 0.215785
vt 0.155773 0.235815
vt 0.263730 0.235815
vt 0.155773 0.255572
vt 0.155773 0.175039
vt 0.263730 0.255572
vt 0.155773 0.275073
vt 0.263730 0.175039
vt 0.263730 0.275073
vt 0.384975 0.418734
vt 0.405428 0.421785
vt 0.399803 0.431791
vt 0.368590 0.362630
vt 0.358196 0.364978
vt 0.420406 0.430375
vt 0.416720 0.441493
vt 0.373520 0.380068
vt 0.363764 0.384673
vt 0.436658 0.435665
vt 0.435076 0.447468
vt 0.381526 0.396139
vt 0.372806 0.402825
vt 0.448879 0.437867
vt 0.448879 0.449955
vt 0.392300 0.410225
vt 0.154470 0.226105
vt 0.000246 0.243371
vt 0.000246 0.226105
vt 0.450288 0.421655
vt 0.462376 0.421655
vt 0.450288 0.529613
vt 0.154470 0.260462
vt 0.000246 0.260462
vt 0.154470 0.172924
vt 0.154470 0.272880
vt 0.108203 0.272880
vt 0.500548 0.355497
vt 0.454281 0.372451
vt 0.356899 0.025761
vt 0.340213 0.056867
vt 0.340213 0.022753
vt 0.154470 0.118381
vt 0.352434 0.059070
vt 0.379088 0.032983
vt 0.368686 0.064359
vt 0.399538 0.044711
vt 0.383663 0.072949
vt 0.417463 0.060495
vt 0.396792 0.084509
vt 0.432174 0.079727
vt 0.407566 0.098595
vt 0.443104 0.101670
vt 0.415572 0.114666
vt 0.449836 0.125478
vt 0.420502 0.132104
vt 0.452108 0.150238
vt 0.422166 0.150238
vt 0.420502 0.168373
vt 0.449836 0.174999
vt 0.415572 0.185811
vt 0.443104 0.198807
vt 0.407566 0.201881
vt 0.432174 0.220749
vt 0.396792 0.215967
vt 0.417463 0.239982
vt 0.383663 0.227528
vt 0.399538 0.255766
vt 0.368686 0.236118
vt 0.352434 0.241407
vt 0.379088 0.267494
vt 0.356899 0.274716
vt 0.340213 0.243610
vt 0.340213 0.277724
vt 0.454281 0.000288
vt 0.500549 0.017242
vt 0.154470 0.082305
vt 0.264323 0.278262
vt 0.263730 0.000538
vt 0.448879 0.239036
vt 0.154470 0.047079
vt 0.378910 0.468275
vt 0.378910 0.514542
vt 0.344796 0.514542
vt 0.344796 0.468275
vt 0.154470 0.012721
vt 0.154470 0.000304
vt 0.154470 0.208612
vt 0.263730 0.308402
vt 0.154470 0.243371
vt 0.450288 0.375388
vt 0.484402 0.375388
vt 0.484402 0.421655
vt 0.462376 0.529613
vt 0.000246 0.272880
vt 0.500548 0.372451
vt 0.500549 0.000288
s 1
usemtl tile
f 8/1/1 15/2/2 9/3/2
f 62/4/3 42/5/4 43/6/3
f 6/7/5 17/8/6 7/9/6
f 5/10/7 18/11/8 6/7/5
f 2/12/9 11/13/10 10/14/9
f 7/9/6 16/15/1 8/1/1
f 3/16/10 1/17/11 11/13/10
f 9/3/2 2/12/9 10/14/9
f 15/18/12 25/19/12 24/20/12
f 18/21/12 28/22/12 27/23/12
f 2/24/12 24/20/12 22/25/12
f 19/26/12 29/27/12 28/22/12
f 3/28/12 22/25/12 23/29/12
f 16/30/12 26/31/12 25/19/12
f 21/32/12 23/29/12 30/33/12
f 17/34/12 27/23/12 26/31/12
f 24/35/2 31/36/9 22/37/9
f 29/38/13 37/39/7 28/40/7
f 25/41/1 33/42/2 24/35/2
f 26/43/6 34/44/1 25/41/1
f 30/45/11 32/46/10 39/47/11
f 26/43/6 36/48/5 35/49/6
f 23/50/10 31/36/9 32/46/10
f 28/40/7 36/48/5 27/51/5
f 34/52/12 44/53/12 43/54/12
f 39/55/12 41/56/12 48/57/12
f 35/58/12 45/59/12 44/53/12
f 32/60/12 40/61/12 41/56/12
f 36/62/12 46/63/12 45/59/12
f 31/64/12 42/65/12 40/61/12
f 37/66/12 47/67/12 46/63/12
f 33/68/12 43/54/12 42/65/12
f 41/69/14 57/70/15 48/71/15
f 60/72/16 44/73/17 45/74/16
f 47/75/15 38/76/15 29/77/15
f 46/78/18 60/72/16 45/74/16
f 42/5/4 73/79/19 40/80/19
f 46/78/18 47/81/20 49/82/20
f 55/83/21 96/84/22 97/85/21
f 44/73/17 62/4/3 43/6/3
f 74/86/23 68/87/24 69/88/23
f 54/89/25 99/90/26 98/91/25
f 76/92/27 66/93/28 67/94/27
f 77/95/28 65/96/29 66/93/28
f 51/97/30 70/98/31 71/99/30
f 75/100/24 67/94/27 68/87/24
f 21/101/11 71/99/30 1/17/11
f 50/102/31 69/88/23 70/98/31
f 74/103/12 83/104/12 75/105/12
f 77/106/12 86/107/12 78/108/12
f 50/109/12 82/110/12 74/103/12
f 78/108/12 87/111/12 79/112/12
f 51/113/12 80/114/12 50/109/12
f 75/105/12 84/115/12 76/116/12
f 21/32/12 81/117/12 51/113/12
f 76/116/12 85/118/12 77/106/12
f 88/119/31 82/120/23 80/121/31
f 94/122/29 87/123/32 86/124/29
f 90/125/23 83/126/24 82/120/23
f 91/127/24 84/128/27 83/126/24
f 39/47/11 81/129/30 30/45/11
f 92/130/27 85/131/28 84/128/27
f 89/132/30 80/121/31 81/129/30
f 93/133/28 86/124/29 85/131/28
f 91/134/12 100/135/12 92/136/12
f 39/55/12 97/137/12 89/138/12
f 92/136/12 101/139/12 93/140/12
f 89/138/12 96/141/12 88/142/12
f 93/140/12 102/143/12 94/144/12
f 88/142/12 98/145/12 90/146/12
f 94/144/12 103/147/12 95/148/12
f 90/146/12 99/149/12 91/134/12
f 48/71/15 55/83/21 97/85/21
f 52/150/33 101/151/34 100/152/33
f 104/153/15 87/154/15 103/155/15
f 101/151/34 13/156/35 102/157/35
f 56/158/22 98/91/25 96/84/22
f 13/156/35 12/159/36 104/160/36
f 78/161/29 64/162/32 65/96/29
f 99/90/26 52/150/33 100/152/33
f 5/163/37 58/164/37 4/165/37
f 40/80/19 72/166/14 41/69/14
f 59/167/37 6/168/37 60/169/37
f 60/169/37 7/170/37 61/171/37
f 61/171/37 8/172/37 62/173/37
f 62/173/37 9/174/37 63/175/37
f 63/175/37 10/176/37 73/177/37
f 73/177/37 11/178/37 72/179/37
f 72/179/37 1/180/37 57/181/37
f 55/182/37 1/180/37 71/183/37
f 56/184/37 71/183/37 70/185/37
f 54/186/37 70/185/37 69/187/37
f 53/188/37 69/187/37 68/189/37
f 52/190/37 68/189/37 67/191/37
f 67/191/37 14/192/37 52/190/37
f 13/193/37 66/194/37 65/195/37
f 12/196/37 65/195/37 64/197/37
f 4/198/13 19/199/7 5/10/7
f 8/1/1 16/15/1 15/2/2
f 62/4/3 63/200/4 42/5/4
f 6/7/5 18/11/8 17/8/6
f 5/10/7 19/199/7 18/11/8
f 2/12/9 3/16/10 11/13/10
f 7/9/6 17/8/6 16/15/1
f 3/16/10 21/101/11 1/17/11
f 9/3/2 15/2/2 2/12/9
f 15/18/12 16/30/12 25/19/12
f 18/21/12 19/26/12 28/22/12
f 2/24/12 15/18/12 24/20/12
f 19/26/12 20/201/12 29/27/12
f 3/28/12 2/24/12 22/25/12
f 16/30/12 17/34/12 26/31/12
f 21/32/12 3/28/12 23/29/12
f 17/34/12 18/21/12 27/23/12
f 24/35/2 33/42/2 31/36/9
f 29/38/13 38/202/13 37/39/7
f 25/41/1 34/44/1 33/42/2
f 26/43/6 35/49/6 34/44/1
f 30/45/11 23/50/10 32/46/10
f 26/43/6 27/51/5 36/48/5
f 23/50/10 22/37/9 31/36/9
f 28/40/7 37/39/7 36/48/5
f 34/52/12 35/58/12 44/53/12
f 39/55/12 32/60/12 41/56/12
f 35/58/12 36/62/12 45/59/12
f 32/60/12 31/64/12 40/61/12
f 36/62/12 37/66/12 46/63/12
f 31/64/12 33/68/12 42/65/12
f 37/66/12 38/203/12 47/67/12
f 33/68/12 34/52/12 43/54/12
f 41/69/14 72/166/14 57/70/15
f 60/72/16 61/204/17 44/73/17
f 20/205/15 4/206/15 29/77/15
f 4/206/15 58/207/15 29/77/15
f 58/207/15 49/208/15 29/77/15
f 49/208/15 47/75/15 29/77/15
f 46/78/18 59/209/18 60/72/16
f 42/5/4 63/200/4 73/79/19
f 49/82/20 58/210/20 59/209/18
f 59/209/18 46/78/18 49/82/20
f 55/83/21 56/158/22 96/84/22
f 44/73/17 61/204/17 62/4/3
f 74/86/23 75/100/24 68/87/24
f 54/89/25 53/211/26 99/90/26
f 76/92/27 77/95/28 66/93/28
f 77/95/28 78/161/29 65/96/29
f 51/97/30 50/102/31 70/98/31
f 75/100/24 76/92/27 67/94/27
f 21/101/11 51/97/30 71/99/30
f 50/102/31 74/86/23 69/88/23
f 74/103/12 82/110/12 83/104/12
f 77/106/12 85/118/12 86/107/12
f 50/109/12 80/114/12 82/110/12
f 78/108/12 86/107/12 87/111/12
f 51/113/12 81/117/12 80/114/12
f 75/105/12 83/104/12 84/115/12
f 21/32/12 30/33/12 81/117/12
f 76/116/12 84/115/12 85/118/12
f 88/119/31 90/125/23 82/120/23
f 94/122/29 95/212/32 87/123/32
f 90/125/23 91/127/24 83/126/24
f 91/127/24 92/130/27 84/128/27
f 39/47/11 89/132/30 81/129/30
f 92/130/27 93/133/28 85/131/28
f 89/132/30 88/119/31 80/121/31
f 93/133/28 94/122/29 86/124/29
f 91/134/12 99/149/12 100/135/12
f 39/55/12 48/57/12 97/137/12
f 92/136/12 100/135/12 101/139/12
f 89/138/12 97/137/12 96/141/12
f 93/140/12 101/139/12 102/143/12
f 88/142/12 96/141/12 98/145/12
f 94/144/12 102/143/12 103/147/12
f 90/146/12 98/145/12 99/149/12
f 48/71/15 57/70/15 55/83/21
f 52/150/33 14/213/38 101/151/34
f 104/153/15 12/214/15 87/154/15
f 12/214/15 64/215/15 87/154/15
f 64/215/15 79/216/15 87/154/15
f 87/154/15 95/217/15 103/155/15
f 101/151/34 14/213/38 13/156/35
f 56/158/22 54/89/25 98/91/25
f 103/218/36 102/157/35 104/160/36
f 102/157/35 13/156/35 104/160/36
f 78/161/29 79/219/32 64/162/32
f 99/90/26 53/211/26 52/150/33
f 5/163/37 59/167/37 58/164/37
f 40/80/19 73/79/19 72/166/14
f 59/167/37 5/163/37 6/168/37
f 60/169/37 6/168/37 7/170/37
f 61/171/37 7/170/37 8/172/37
f 62/173/37 8/172/37 9/174/37
f 63/175/37 9/174/37 10/176/37
f 73/177/37 10/176/37 11/178/37
f 72/179/37 11/178/37 1/180/37
f 55/182/37 57/181/37 1/180/37
f 56/184/37 55/182/37 71/183/37
f 54/186/37 56/184/37 70/185/37
f 53/188/37 54/186/37 69/187/37
f 52/190/37 53/188/37 68/189/37
f 67/191/37 66/194/37 14/192/37
f 13/193/37 14/192/37 66/194/37
f 12/196/37 13/193/37 65/195/37
f 4/198/13 20/220/13 19/199/7
