# Blender 4.0.2
# www.blender.org
mtllib wall_triangle_potdeksel_2500.mtl
o wall_triangle_potdeksel_2500
v -0.047797 0.142178 -1.140524
v -0.023797 0.505852 -0.510623
v -0.023797 0.324526 -0.824688
v -0.023797 0.800663 0.000005
v -0.038394 0.685851 -0.198856
v -0.038393 0.504632 -0.512736
v -0.037457 0.684852 -0.200585
v -0.048735 0.505630 -0.511007
v -0.048735 0.143176 -1.138795
v -0.048734 0.686849 -0.197126
v -0.048735 0.324395 -0.824915
v -0.047796 0.504632 0.512745
v -0.038394 0.323397 -0.826644
v -0.048734 0.686849 0.197136
v -0.029379 0.162811 1.104796
v -0.047797 0.685851 0.198866
v -0.037457 0.322399 -0.828372
v -0.024364 0.167068 -1.097412
v -0.047796 0.323398 0.826652
v -0.023796 0.324586 0.824594
v -0.029952 0.162325 -1.105628
v -0.037457 0.684852 0.200595
v -0.030772 0.160680 1.108487
v -0.023797 0.686917 0.197018
v -0.031888 0.142178 -1.140524
v -0.037456 0.503634 -0.514464
v -0.047797 0.685851 -0.198856
v -0.038392 0.504632 0.512745
v -0.023797 0.687014 -0.196840
v -0.038393 0.323397 0.826653
v -0.037455 0.503634 0.514473
v -0.023797 0.167550 -1.096578
v -0.048734 0.505630 0.511016
v -0.037456 0.322399 0.828382
v -0.048733 0.143177 1.138803
v -0.023796 0.505721 0.510860
v -0.030774 0.160679 -1.108479
v -0.047797 0.323397 -0.826644
v -0.029950 0.162326 1.105637
v -0.047797 0.504632 -0.512736
v -0.038394 0.685851 0.198865
v -0.047796 0.142179 1.140532
v -0.041573 0.800663 0.000005
v -0.023796 0.167551 1.096587
v -0.031886 0.142179 1.140532
v -0.048734 0.324396 0.824923
vn -0.7287 -0.6849 -0.0000
vn 1.0000 -0.0000 -0.0000
vn 0.8519 -0.5238 -0.0000
vn 0.9914 -0.1311 -0.0000
vn 0.8518 -0.5238 -0.0000
vn -0.7287 -0.6848 -0.0000
vn 0.9982 -0.0601 -0.0000
vn -0.7290 -0.6845 -0.0000
vn -0.0001 -1.0000 -0.0000
vn -0.9980 0.0628 -0.0000
vn -0.7288 -0.6847 -0.0000
vn -0.0000 -1.0000 -0.0000
vn 0.6472 -0.7623 -0.0000
vn -0.7294 -0.6841 -0.0000
vt 0.315339 0.138249
vt 0.314720 0.137760
vt 0.681810 0.137761
vt 0.681191 0.138249
vt 0.793433 0.748440
vt 0.890802 0.804649
vt 0.105718 0.804651
vt 0.203043 0.748462
vt 0.894044 0.807535
vt 0.895066 0.808191
vt 0.101463 0.808192
vt 0.102481 0.807536
vt 0.794178 0.069129
vt 0.793559 0.069619
vt 0.202970 0.069618
vt 0.202351 0.069128
vt 0.681125 0.683603
vt 0.315467 0.683555
vt 0.906537 0.814825
vt 0.089992 0.814825
vt 0.682428 0.133906
vt 0.681809 0.134395
vt 0.314720 0.134395
vt 0.314101 0.133906
vt 0.202351 0.065763
vt 0.794178 0.065763
vt 0.794797 0.065274
vt 0.201732 0.065273
vt 0.905918 0.000991
vt 0.090611 0.000990
vt 0.906537 0.000501
vt 0.089992 0.000500
vt 0.090304 0.991645
vt 0.091874 0.990615
vt 0.908130 0.988757
vt 0.909696 0.989771
vt 0.569451 0.206382
vt 0.568832 0.206870
vt 0.427699 0.206869
vt 0.427080 0.206381
vt 0.570070 0.202530
vt 0.426461 0.202530
vt 0.498265 0.247691
vt 0.427790 0.618708
vt 0.498253 0.578026
vt 0.568778 0.618743
vt 0.893743 0.807267
vt 0.105420 0.804917
vt 0.427079 0.203018
vt 0.569450 0.203018
s 1
f 8/1/1 40/2/1 12/3/1 33/4/1
f 20/5/2 44/6/2 32/7/2 3/8/2
f 39/9/3 23/10/4 37/11/4 21/12/5
f 19/13/6 46/14/6 11/15/6 38/16/6
f 36/17/2 20/5/2 3/8/2 2/18/2
f 23/10/4 45/19/7 25/20/7 37/11/4
f 31/21/8 28/22/8 6/23/8 26/24/8
f 38/16/9 13/25/9 30/26/9 19/13/9
f 34/27/8 30/26/8 13/25/8 17/28/8
f 35/29/10 34/27/10 17/28/10 9/30/10
f 42/31/11 35/29/11 9/30/11 1/32/11
f 1/33/12 25/34/12 45/35/12 42/36/12
f 16/37/8 14/38/8 10/39/8 27/40/8
f 33/4/10 22/41/10 7/42/10 8/1/10
f 14/38/10 43/43/10 10/39/10
f 29/44/2 4/45/2 24/46/2
f 46/14/10 31/21/10 26/24/10 11/15/10
f 40/2/12 6/23/12 28/22/12 12/3/12
f 15/47/13 39/9/3 21/12/5 18/48/13
f 24/46/2 36/17/2 2/18/2 29/44/2
f 27/40/12 5/49/12 41/50/12 16/37/12
f 22/41/14 41/50/14 5/49/14 7/42/14
f 44/6/13 15/47/13 18/48/13 32/7/13
