# Blender 4.0.2
# www.blender.org
mtllib zadeldak_roof_side_small_4000.mtl
o zadeldak_roof_side_small_4000
v -0.229836 0.207993 2.240844
v -0.229836 0.208487 2.241704
v -0.230836 0.209217 2.240704
v -0.230850 1.502733 -0.000020
v -0.230836 0.226907 2.240704
v -0.230850 1.520731 0.000020
v 0.019090 1.355292 -0.000850
v 0.019090 1.355292 0.000850
v 0.001090 1.355292 0.000880
v 0.001090 1.355292 -0.000880
v -0.000896 0.207987 2.240845
v -0.000896 0.208487 2.241704
v 0.019090 1.521231 0.000850
v 0.019090 1.521231 -0.000850
v 0.001090 1.521231 -0.000850
v 0.001090 1.521231 0.000850
v 0.001090 0.062047 -2.240844
v 0.019090 0.062047 -2.240845
v 0.000090 1.356792 -0.000020
v 0.000090 0.063277 -2.240704
v 0.020090 0.063277 -2.240704
v 0.019090 0.062547 -2.241704
v 0.019090 0.226486 -2.241704
v 0.020090 0.226907 -2.240704
v 0.020090 0.063277 2.240704
v 0.019090 0.062547 2.241704
v 0.019090 0.062047 2.240845
v 0.000090 0.063277 2.240704
v 0.000090 0.226907 2.240704
v 0.000090 1.520731 -0.000020
v 0.019090 0.227987 -2.240844
v 0.000090 0.226907 -2.240704
v 0.001090 0.227987 -2.240845
v 0.001090 0.226486 -2.241704
v 0.001090 0.062547 -2.241704
v 0.020090 1.520731 -0.000020
v 0.020090 1.356792 0.000020
v 0.000104 0.209217 2.240704
v -0.229836 0.227987 -2.240845
v -0.230836 0.226907 -2.240704
v -0.229850 1.521231 -0.000850
v 0.001090 0.062547 2.241704
v 0.001090 0.226487 2.241704
v 0.019090 0.227987 2.240844
v 0.019090 0.226487 2.241704
v 0.020090 0.226907 2.240704
v 0.001090 0.227987 2.240845
v -0.000910 1.501231 0.000850
v -0.229850 1.501231 0.000880
v -0.000896 0.227987 2.240844
v -0.229836 0.227987 2.240845
v -0.229836 0.226487 2.241704
v -0.000896 0.226487 2.241704
v 0.000090 1.502733 0.000020
v 0.000104 0.226907 2.240704
v -0.000910 1.521231 -0.000850
v 0.000090 1.520731 -0.000020
v 0.000104 0.226907 -2.240704
v -0.000896 0.227987 -2.240844
v 0.001090 0.062047 2.240844
v -0.230836 0.209216 -2.240704
v -0.229850 1.501231 -0.000880
v -0.229836 0.226486 -2.241704
v -0.229836 0.208487 -2.241704
v 0.000104 0.209216 -2.240704
v -0.229850 1.521231 0.000850
v -0.000910 1.521231 0.000850
v -0.000896 0.207986 -2.240845
v -0.000910 1.501231 -0.000850
v -0.229836 0.207993 -2.240844
v -0.000896 0.226486 -2.241704
v -0.000896 0.208487 -2.241704
vn -0.7491 -0.5744 0.3299
vn -1.0000 -0.0000 -0.0000
vn -0.0000 -1.0000 -0.0000
vn -0.0000 -0.8657 0.5005
vn -0.0000 1.0000 -0.0000
vn -0.0004 -0.8660 0.5000
vn -0.6560 -0.6537 0.3773
vn -0.7054 -0.6138 0.3544
vn 0.7071 -0.0000 -0.7071
vn 0.7500 -0.5717 0.3327
vn 0.7498 -0.5719 -0.3326
vn 0.5505 0.4155 -0.7241
vn -0.5508 0.4150 -0.7242
vn -0.7498 -0.5721 -0.3324
vn 0.4470 0.8945 -0.0000
vn -0.8321 -0.5547 -0.0000
vn 0.8321 -0.5547 -0.0000
vn -0.0000 -0.8644 -0.5028
vn 0.7502 -0.5714 0.3326
vn -0.6837 0.6320 -0.3649
vn -0.7071 -0.0000 0.7071
vn 0.5504 0.4153 0.7243
vn 1.0000 -0.0000 -0.0000
vn -0.0000 0.4972 -0.8676
vn -0.0000 0.8660 0.5000
vn -0.4470 0.8945 -0.0000
vn -0.0000 -0.8660 -0.5000
vn -0.0000 0.4972 0.8676
vn 0.7053 -0.6140 -0.3544
vn 0.6797 0.6352 -0.3668
vn -0.0000 -0.0000 1.0000
vn -0.6798 0.6351 -0.3667
vn 0.6630 -0.6483 -0.3743
vn 0.7071 -0.0000 0.7071
vn 0.6624 -0.6488 -0.3746
vn -0.0000 0.8660 -0.5000
vn -0.7071 -0.0000 -0.7071
vn -0.6837 0.6320 0.3649
vn 0.6538 -0.6553 0.3783
vn -0.0000 -0.8644 0.5028
vn -0.6565 -0.6533 0.3771
vn 0.7053 -0.6140 0.3544
vn 0.8324 -0.5542 -0.0000
vn -0.4471 0.8945 -0.0000
vn -0.8324 -0.5542 -0.0000
vn -0.7032 -0.6157 0.3555
vn -0.7054 -0.6138 -0.3544
vn -0.6473 -0.6602 -0.3811
vn -0.0004 -0.8660 -0.5000
vn 0.6836 0.6321 0.3649
vn 0.5504 0.4155 -0.7242
vn -0.6798 0.6351 0.3667
vn -0.5507 0.4148 0.7243
vn -0.7035 -0.6155 -0.3553
vn 0.6545 -0.6548 0.3780
vn -0.6477 -0.6599 -0.3809
vn -0.0000 0.4970 -0.8678
vn -0.7499 -0.5719 0.3325
vn -0.7491 -0.5745 -0.3298
vn 0.7052 -0.6141 -0.3545
vn 0.7501 -0.5717 -0.3323
vn -0.0000 -0.0000 -1.0000
vn -0.0000 -0.8660 0.5000
vn -0.0000 -0.8657 -0.5005
vn -0.0000 0.4971 0.8677
vt 0.026996 1.157673
vt 0.026504 1.157367
vt 0.026134 1.157979
vt 0.028680 0.008540
vt 0.025365 0.711529
vt 0.014550 0.700760
vt 0.017710 0.003420
vt 0.048810 0.716580
vt 0.048980 0.716150
vt 0.053440 0.717930
vt 0.053260 0.718350
vt 0.355861 0.930542
vt 0.384633 0.875058
vt 0.384042 0.874754
vt 0.355264 0.930250
vt 0.124500 0.027740
vt 0.124330 0.027310
vt 0.128790 0.025550
vt 0.128960 0.025980
vt 0.016560 0.968070
vt 0.025850 0.968370
vt 0.047642 0.282214
vt 0.037723 0.281900
vt 0.039570 0.969190
vt 0.062192 0.282862
vt 0.033489 -0.053339
vt 0.033666 -0.053173
vt -0.026973 -0.042892
vt -0.027036 -0.043076
vt 0.166427 -0.180988
vt 0.166609 -0.180631
vt 0.166838 -0.180721
vt 0.061979 0.282856
vt 0.022979 0.311889
vt 0.000500 0.998270
vt 0.277668 0.015937
vt 0.277218 0.015936
vt 0.277256 0.015937
vt 0.276600 -0.013325
vt 0.277058 -0.013385
vt 0.276661 -0.013325
vt 0.197458 0.207095
vt 0.197092 0.207432
vt 0.197229 0.207033
vt 0.123980 0.027630
vt 0.123950 0.027250
vt 0.053800 0.718230
vt 0.053930 0.717710
vt 0.006330 0.998840
vt 0.006360 0.999300
vt 0.005870 0.999100
vt 0.306620 0.003044
vt 0.306404 0.003059
vt 0.305981 -0.001779
vt 0.306196 -0.001794
vt 0.354449 0.483896
vt 0.354293 0.484628
vt 0.354960 0.484811
vt 0.003288 0.696876
vt 0.014767 0.700819
vt 0.006870 0.007440
vt -0.015790 0.095105
vt 0.045601 0.095511
vt 0.045746 0.095315
vt -0.015760 0.094910
vt 0.039990 0.999500
vt 0.002820 0.968040
vt 0.023345 0.281650
vt 0.060459 0.313064
vt 0.338404 0.000036
vt 0.338013 0.000065
vt 0.337647 -0.004758
vt 0.338038 -0.004787
vt 0.015140 0.998590
vt 0.036932 0.312438
vt 0.046499 0.312737
vt 0.025360 0.998910
vt 0.063140 0.716150
vt 0.063120 0.716620
vt 0.063430 0.716400
vt 0.007510 0.013800
vt 0.002537 0.708095
vt 0.035938 0.715453
vt 0.040230 0.022310
vt -0.363042 0.527281
vt -0.389784 0.582821
vt -0.388974 0.583188
vt -0.362231 0.527647
vt 0.037699 0.281897
vt 0.023106 0.281640
vt 0.060781 0.313077
vt -0.069715 0.048261
vt -0.009065 0.041061
vt -0.009635 0.036291
vt -0.070285 0.043491
vt 0.022698 0.311883
vt 0.018360 0.002800
vt 0.038045 0.375298
vt 0.032613 0.371798
vt 0.032460 0.372420
vt 0.037987 0.375982
vt -0.128423 0.708886
vt -0.102209 0.653549
vt -0.108166 0.651019
vt -0.134346 0.706296
vt 0.039880 0.009180
vt 0.029090 0.001960
vt 0.024457 0.697228
vt 0.035915 0.697623
vt 0.024673 0.697245
vt 0.013571 0.701641
vt 0.025203 0.711332
vt -0.256959 1.001693
vt -0.256577 1.001120
vt -0.249980 1.002820
vt -0.250476 1.003364
vt 0.038680 0.760080
vt 0.065170 0.703250
vt 0.065160 0.703240
vt 0.038660 0.760070
vt 0.002684 0.706230
vt 0.013749 0.701562
vt 0.065280 0.703000
vt 0.063840 0.703250
vt 0.063820 0.703240
vt 0.063950 0.703000
vt 0.038550 0.760320
vt 0.037210 0.760360
vt 0.037090 0.760600
vt 0.037200 0.760350
vt 0.025823 0.715503
vt 0.062206 0.282861
vt -0.445037 0.784794
vt -0.445427 0.784032
vt -0.444532 0.784307
vt -0.222554 0.375393
vt -0.221791 0.375179
vt -0.221817 0.375881
s 0
f 1/1/1 2/2/1 3/3/1
f 4/4/2 3/5/2 5/6/2 6/7/2
f 7/8/3 8/9/3 9/10/3 10/11/3
f 1/12/4 11/13/4 12/14/4 2/15/4
f 13/16/5 14/17/5 15/18/5 16/19/5
f 7/20/6 10/21/6 17/22/6 18/23/6
f 10/21/7 19/24/7 20/25/7
f 10/21/8 20/25/8 17/22/8
f 21/26/9 22/27/9 23/28/9 24/29/9
f 25/30/10 26/31/10 27/32/10
f 19/24/2 28/33/2 29/34/2 30/35/2
f 21/30/11 18/32/11 22/31/11
f 31/36/12 24/37/12 23/38/12
f 32/39/13 33/40/13 34/41/13
f 17/42/14 20/43/14 35/44/14
f 13/45/15 36/46/15 14/17/15
f 10/47/16 9/10/16 19/48/16
f 8/49/17 7/50/17 37/51/17
f 17/52/18 35/53/18 22/54/18 18/55/18
f 38/56/19 12/57/19 11/58/19
f 19/24/2 30/35/2 32/34/2 20/33/2
f 39/59/20 40/60/20 6/7/20 41/61/20
f 29/62/21 28/63/21 42/64/21 43/65/21
f 44/36/22 45/38/22 46/37/22
f 36/66/23 37/67/23 21/68/23 24/69/23
f 31/70/24 23/71/24 34/72/24 33/73/24
f 16/74/25 47/75/25 44/76/25 13/77/25
f 16/78/26 15/79/26 30/80/26
f 48/81/27 11/82/27 1/83/27 49/84/27
f 50/85/28 51/86/28 52/87/28 53/88/28
f 27/89/29 37/67/29 25/90/29
f 24/91/30 31/76/30 14/77/30 36/66/30
f 43/92/31 42/93/31 26/94/31 45/95/31
f 30/35/32 15/74/32 33/75/32 32/96/32
f 54/97/33 11/82/33 48/81/33
f 38/98/34 55/99/34 53/100/34 12/101/34
f 2/102/31 12/103/31 53/104/31 52/105/31
f 27/89/35 8/20/35 37/67/35
f 15/74/36 14/77/36 31/76/36 33/75/36
f 32/62/37 34/65/37 35/64/37 20/63/37
f 30/35/38 29/96/38 47/75/38 16/74/38
f 18/23/39 37/67/39 7/20/39
f 56/106/30 57/107/30 58/108/30 59/109/30
f 60/52/40 27/55/40 26/54/40 42/53/40
f 57/107/23 55/110/23 38/111/23 54/97/23
f 61/112/41 62/84/41 4/4/41
f 40/113/37 63/114/37 64/115/37 61/116/37
f 41/61/36 56/106/36 59/109/36 39/59/36
f 57/107/23 54/97/23 65/111/23 58/110/23
f 66/117/5 67/118/5 56/119/5 41/120/5
f 54/97/42 68/121/42 65/122/42
f 56/119/15 67/118/15 57/123/15
f 48/124/43 69/125/43 54/126/43
f 41/120/44 6/127/44 66/117/44
f 49/128/45 4/129/45 62/130/45
f 61/131/46 70/83/46 62/84/46
f 9/21/47 60/22/47 28/132/47
f 9/21/48 28/132/48 19/24/48
f 8/20/49 27/89/49 60/22/49 9/21/49
f 25/26/34 46/29/34 45/28/34 26/27/34
f 40/133/13 39/134/13 63/135/13
f 67/106/50 50/109/50 55/108/50 57/107/50
f 59/136/51 58/137/51 71/138/51
f 50/136/22 53/138/22 55/137/22
f 5/113/21 3/116/21 2/115/21 52/114/21
f 51/59/52 66/61/52 6/7/52 5/60/52
f 5/133/53 52/135/53 51/134/53
f 3/131/54 49/84/54 1/83/54
f 29/39/53 43/41/53 47/40/53
f 46/91/50 36/66/50 13/77/50 44/76/50
f 54/97/55 69/81/55 68/82/55
f 3/112/56 4/4/56 49/84/56
f 59/85/57 71/88/57 63/87/57 39/86/57
f 60/42/58 42/44/58 28/43/58
f 70/1/59 61/3/59 64/2/59
f 18/23/42 21/90/42 37/67/42
f 66/61/25 51/59/25 50/109/25 67/106/25
f 54/97/60 38/122/60 11/121/60
f 65/56/61 68/58/61 72/57/61
f 48/124/3 49/128/3 62/130/3 69/125/3
f 64/102/62 63/105/62 71/104/62 72/103/62
f 69/81/63 62/84/63 70/83/63 68/82/63
f 65/98/9 72/101/9 71/100/9 58/99/9
f 70/12/64 64/15/64 72/14/64 68/13/64
f 4/4/2 6/7/2 40/6/2 61/5/2
f 34/92/62 23/95/62 22/94/62 35/93/62
f 36/66/23 46/69/23 25/68/23 37/67/23
f 44/70/65 47/73/65 43/72/65 45/71/65
