# Blender 4.0.2
# www.blender.org
mtllib zadeldak_roof_side_small_5000.mtl
o zadeldak_roof_side_small_5000
v 0.019090 1.613644 -0.000880
v 0.020090 1.615145 -0.000020
v 0.019090 1.613644 0.000880
v 0.001090 1.613644 0.000880
v 0.000090 1.615143 -0.000020
v 0.001090 1.613644 -0.000880
v 0.019090 1.807585 -0.000850
v 0.019090 1.807585 0.000850
v 0.020090 1.807083 -0.000020
v 0.001090 1.807585 0.000880
v 0.001090 1.807585 -0.000850
v 0.000090 1.807083 -0.000020
v 0.001090 0.031731 2.740844
v 0.001090 0.032230 2.741704
v 0.000090 0.032960 2.740704
v 0.000090 0.224590 2.740704
v 0.001090 0.224170 2.741704
v 0.001090 0.225670 2.740844
v 0.019090 0.225668 2.740844
v 0.019090 0.224170 2.741704
v 0.020090 0.224590 2.740704
v 0.020090 0.032960 2.740704
v 0.019090 0.032230 2.741704
v 0.019090 0.031731 2.740844
v -0.229850 1.807585 0.000880
v -0.000910 1.807585 0.000850
v -0.000910 1.807583 -0.000850
v -0.229850 1.807585 -0.000850
v 0.000090 1.807083 -0.000020
v 0.000107 0.224588 2.740704
v 0.000107 0.206898 2.740704
v 0.000090 1.789084 0.000020
v -0.000893 0.225668 2.740844
v -0.229833 0.205670 2.740844
v -0.000893 0.205670 2.740844
v -0.000893 0.206168 2.741704
v -0.229833 0.206168 2.741704
v -0.000910 1.787585 0.000880
v -0.000910 1.787583 -0.000880
v -0.230850 1.807083 -0.000020
v -0.229850 1.787585 0.000880
v -0.230850 1.789084 -0.000020
v -0.229850 1.787583 -0.000880
v -0.230833 0.206898 2.740704
v -0.230833 0.224588 2.740704
v -0.229833 0.224168 2.741704
v -0.229833 0.225670 2.740844
v -0.000893 0.224168 2.741704
v -0.230833 0.224587 -2.740704
v -0.229833 0.225669 -2.740844
v -0.229833 0.224167 -2.741704
v -0.000893 0.205669 -2.740844
v 0.000107 0.206897 -2.740704
v -0.230833 0.206897 -2.740704
v -0.229833 0.205669 -2.740844
v -0.229833 0.206167 -2.741704
v -0.000893 0.206167 -2.741704
v 0.000107 0.224587 -2.740704
v -0.000893 0.225667 -2.740844
v -0.000893 0.224167 -2.741704
v 0.001090 0.031730 -2.740844
v 0.000090 0.032959 -2.740704
v 0.001090 0.032229 -2.741704
v 0.000090 0.224589 -2.740704
v 0.001090 0.225669 -2.740844
v 0.001090 0.224169 -2.741704
v 0.019090 0.225667 -2.740844
v 0.020090 0.224589 -2.740704
v 0.019090 0.224169 -2.741704
v 0.020090 0.032959 -2.740704
v 0.019090 0.031730 -2.740844
v 0.019090 0.032229 -2.741704
vn 0.8320 -0.5548 -0.0000
vn -0.8319 -0.5549 -0.0000
vn 0.4482 0.8939 -0.0000
vn -0.4481 0.8940 -0.0000
vn -0.7498 -0.5723 0.3321
vn -0.5500 0.4155 0.7245
vn 0.5497 0.4159 0.7245
vn 0.7498 -0.5723 0.3321
vn -0.6866 0.6296 0.3635
vn -0.7051 -0.6141 -0.3545
vn -0.6470 -0.6604 -0.3812
vn 0.0005 0.8660 0.5000
vn -0.0000 0.4976 0.8674
vn -0.7071 -0.0000 0.7071
vn -0.0000 1.0000 -0.0000
vn 1.0000 -0.0000 -0.0000
vn -0.0000 -1.0000 -0.0000
vn -1.0000 -0.0000 -0.0000
vn -0.0000 -0.8660 -0.5000
vn 0.7071 -0.0000 0.7071
vn -0.0000 -0.8649 0.5019
vn -0.0000 -0.0000 1.0000
vn -0.0000 1.0000 -0.0006
vn 0.7051 -0.6141 -0.3545
vn 0.6840 0.6318 0.3648
vn 0.6471 -0.6602 -0.3812
vn -0.0000 -0.8653 0.5012
vn 0.4477 0.8942 -0.0005
vn 0.8321 -0.5546 -0.0000
vn -0.8321 -0.5547 0.0001
vn 0.7497 -0.5727 0.3317
vn -0.7497 -0.5727 0.3316
vn -0.5503 0.4150 0.7245
vn 0.5500 0.4154 0.7245
vn -0.5503 0.4149 -0.7246
vn 0.7048 -0.6144 0.3547
vn -0.6564 -0.6534 0.3772
vn -0.0000 -1.0000 0.0006
vn -0.6472 -0.6602 -0.3811
vn -0.7497 -0.5727 -0.3316
vn 0.7495 -0.5729 -0.3316
vn 0.7048 -0.6144 -0.3547
vn 0.6559 -0.6537 -0.3774
vn -0.0000 0.8660 0.5000
vn -0.0000 -0.8653 -0.5012
vn 0.6798 0.6352 -0.3667
vn -0.7071 -0.0000 -0.7071
vn -0.0000 0.4971 0.8677
vn -0.7049 -0.6143 -0.3547
vn 0.6836 0.6320 0.3649
vn 0.5500 0.4156 -0.7245
vn -0.6870 0.6294 0.3633
vn -0.7497 -0.5725 -0.3320
vn -0.5500 0.4156 -0.7244
vn 0.5495 0.4163 -0.7244
vn 0.7497 -0.5725 -0.3320
vn -0.6801 0.6349 -0.3666
vn -0.7051 -0.6141 0.3545
vn -0.6557 -0.6539 0.3775
vn -0.0000 0.8660 -0.5000
vn -0.0000 0.4976 -0.8674
vn -0.0000 -0.8660 0.5000
vn 0.7071 -0.0000 -0.7071
vn -0.0000 -0.8649 -0.5019
vn -0.0000 -0.0000 -1.0000
vn 0.7051 -0.6141 0.3545
vn 0.6560 -0.6537 0.3774
vn 0.6476 -0.6599 0.3810
vn -0.0000 0.4971 -0.8677
vn -0.7048 -0.6144 0.3547
vn -0.6804 0.6346 -0.3664
vt -0.001776 0.999442
vt -0.002236 0.999701
vt -0.001746 0.999903
vt 0.059165 0.711967
vt 0.059295 0.711450
vt 0.058805 0.711668
vt 0.123980 0.027630
vt 0.124330 0.027310
vt 0.123950 0.027250
vt 0.063140 0.716150
vt 0.063120 0.716620
vt 0.063430 0.716400
vt 0.183876 0.104807
vt 0.183647 0.104748
vt 0.183517 0.105137
vt 0.194305 0.000004
vt 0.194363 0.000004
vt 0.194759 -0.000056
vt 0.195200 0.015934
vt 0.194804 0.015934
vt 0.194752 0.015934
vt 0.168276 -0.082247
vt 0.168474 -0.081899
vt 0.168690 -0.081986
vt 0.000500 0.998270
vt 0.027872 0.158733
vt 0.041796 0.159281
vt 0.015140 0.998590
vt 0.259938 0.980533
vt 0.286591 0.141215
vt 0.301206 0.141863
vt 0.242770 0.979828
vt 0.284040 0.141157
vt 0.256490 0.980647
vt 0.051218 0.159573
vt 0.025360 0.998910
vt 0.223056 0.008693
vt 0.222686 0.003866
vt 0.222285 0.003896
vt 0.222656 0.008723
vt 0.074355 0.044305
vt 0.125802 0.046394
vt 0.125935 0.046210
vt 0.074405 0.044118
vt 0.124500 0.027740
vt 0.128960 0.025980
vt 0.128790 0.025550
vt 0.039990 0.999500
vt 0.065038 0.159897
vt 0.033925 0.133563
vt 0.008827 0.973124
vt 0.048810 0.716580
vt 0.053260 0.718350
vt 0.053440 0.717930
vt 0.048980 0.716150
vt 0.033256 0.973890
vt 0.060675 0.134396
vt 0.027984 0.158736
vt 0.016404 0.972978
vt 0.042266 0.133643
vt 0.052350 0.133960
vt 0.025699 0.973278
vt 0.120539 -0.018544
vt 0.070083 -0.008319
vt 0.070161 -0.008145
vt 0.120699 -0.018386
vt 0.237522 0.007673
vt 0.237100 0.002801
vt 0.236876 0.002816
vt 0.237298 0.007688
vt 0.062413 0.032575
vt 0.113261 0.026539
vt 0.112691 0.021769
vt 0.061843 0.027805
vt 0.038680 0.760080
vt 0.065170 0.703250
vt 0.065160 0.703240
vt 0.038660 0.760070
vt -0.206556 0.126091
vt -0.191931 0.126351
vt -0.231528 0.965655
vt 0.029090 0.001960
vt 0.023628 0.852393
vt 0.012563 0.857554
vt 0.018360 0.002800
vt 0.039880 0.009180
vt 0.035030 0.851293
vt -0.174797 0.126753
vt -0.200653 0.966087
vt -0.214395 0.966057
vt 0.185338 0.852085
vt 0.217214 0.794028
vt 0.216631 0.793755
vt 0.184747 0.851816
vt 0.065280 0.703000
vt 0.063840 0.703250
vt 0.063820 0.703240
vt 0.063950 0.703000
vt 0.038550 0.760320
vt 0.037210 0.760360
vt 0.037090 0.760600
vt 0.037200 0.760350
vt 0.200484 0.618049
vt 0.200315 0.618719
vt 0.200994 0.618911
vt 0.038332 0.954395
vt 0.037842 0.954027
vt 0.037472 0.954651
vt -0.180583 0.782885
vt -0.180078 0.782413
vt -0.180968 0.782139
vt -0.065562 0.566784
vt -0.064831 0.567258
vt -0.064793 0.566601
vt 0.001506 0.862218
vt 0.012481 0.857589
vt -0.095098 0.881400
vt -0.088616 0.883095
vt -0.088125 0.882583
vt -0.094721 0.880857
vt 0.024556 0.868312
vt 0.040230 0.022310
vt 0.028680 0.008540
vt 0.001427 0.863071
vt 0.007510 0.013800
vt 0.006870 0.007440
vt 0.002488 0.850767
vt 0.034980 0.870175
vt 0.056242 0.568316
vt 0.050809 0.564883
vt 0.050656 0.565516
vt 0.056185 0.569009
vt 0.023714 0.852387
vt -0.033638 0.750770
vt -0.006470 0.693776
vt -0.012441 0.691268
vt -0.039548 0.748158
vt 0.024641 0.868414
vt 0.013905 0.856383
vt 0.017710 0.003420
vt -0.128595 0.634604
vt -0.156626 0.691802
vt -0.155818 0.692175
vt -0.127782 0.634977
vt 0.024851 0.870225
vt 0.065149 0.159900
vt 0.243543 0.979996
vt 0.257263 0.980817
vt 0.284813 0.141327
vt 0.237299 0.007688
vt -0.206531 0.126090
vt -0.191908 0.126350
vt -0.175513 0.126877
vt -0.215107 0.966182
vt -0.201367 0.966210
s 0
f 1/1/1 2/2/1 3/3/1
f 4/4/2 5/5/2 6/6/2
f 7/7/3 8/8/3 9/9/3
f 10/10/4 11/11/4 12/12/4
f 13/13/5 14/14/5 15/15/5
f 16/16/6 17/17/6 18/18/6
f 19/19/7 20/20/7 21/21/7
f 22/22/8 23/23/8 24/24/8
f 12/25/9 16/26/9 18/27/9 10/28/9
f 4/29/10 13/30/10 15/31/10
f 4/32/11 15/33/11 5/34/11
f 10/28/12 18/27/12 19/35/12 8/36/12
f 19/37/13 18/38/13 17/39/13 20/40/13
f 16/41/14 15/42/14 14/43/14 17/44/14
f 7/45/15 11/46/15 10/47/15 8/8/15
f 9/48/16 21/49/16 22/50/16 2/51/16
f 3/52/17 4/53/17 6/54/17 1/55/17
f 5/56/18 15/57/18 16/58/18 12/25/18
f 3/59/19 24/60/19 13/61/19 4/62/19
f 22/63/20 21/64/20 20/65/20 23/66/20
f 13/67/21 24/68/21 23/69/21 14/70/21
f 17/71/22 14/72/22 23/73/22 20/74/22
f 25/75/23 26/76/23 27/77/23 28/78/23
f 22/79/24 24/80/24 2/81/24
f 29/82/16 30/83/16 31/84/16 32/85/16
f 26/86/25 33/87/25 30/83/25 29/82/25
f 24/88/26 3/89/26 2/90/26
f 34/91/27 35/92/27 36/93/27 37/94/27
f 27/77/28 26/76/28 29/95/28
f 38/96/29 39/97/29 32/98/29
f 28/78/4 40/99/4 25/75/4
f 41/100/30 42/101/30 43/102/30
f 31/103/31 36/104/31 35/105/31
f 34/106/32 37/107/32 44/108/32
f 45/109/33 46/110/33 47/111/33
f 33/112/34 48/113/34 30/114/34
f 49/109/35 50/111/35 51/110/35
f 32/85/36 52/115/36 53/116/36
f 45/117/14 44/118/14 37/119/14 46/120/14
f 54/121/37 43/122/37 42/123/37
f 38/96/38 41/100/38 43/102/38 39/97/38
f 44/121/39 42/123/39 41/122/39
f 55/106/40 54/108/40 56/107/40
f 53/103/41 52/105/41 57/104/41
f 32/85/42 31/84/42 35/115/42
f 32/85/43 35/124/43 38/125/43
f 25/126/44 47/127/44 33/87/44 26/86/44
f 55/91/45 56/94/45 57/93/45 52/92/45
f 38/125/19 35/124/19 34/128/19 41/122/19
f 31/129/20 30/130/20 48/131/20 36/132/20
f 27/86/46 29/82/46 58/133/46 59/87/46
f 37/134/22 36/135/22 48/136/22 46/137/22
f 49/117/47 51/120/47 56/119/47 54/118/47
f 42/123/18 44/138/18 45/139/18 40/140/18
f 33/141/48 47/142/48 46/143/48 48/144/48
f 34/128/49 44/145/49 41/122/49
f 19/35/50 21/146/50 9/48/50 8/36/50
f 29/82/16 32/85/16 53/116/16 58/133/16
f 59/112/51 58/114/51 60/113/51
f 45/139/52 47/127/52 25/126/52 40/140/52
f 61/13/53 62/15/53 63/14/53
f 64/16/54 65/18/54 66/17/54
f 67/19/55 68/21/55 69/20/55
f 70/22/56 71/24/56 72/23/56
f 12/25/57 11/28/57 65/27/57 64/26/57
f 6/29/58 62/31/58 61/30/58
f 6/147/59 5/148/59 62/149/59
f 11/28/60 7/36/60 67/35/60 65/27/60
f 67/37/61 69/40/61 66/39/61 65/38/61
f 64/41/47 66/44/47 63/43/47 62/42/47
f 9/48/16 2/51/16 70/50/16 68/49/16
f 5/56/18 12/25/18 64/58/18 62/57/18
f 1/59/62 6/62/62 61/61/62 71/60/62
f 70/63/63 72/66/63 69/65/63 68/64/63
f 61/67/64 63/150/64 72/69/64 71/68/64
f 66/71/65 69/74/65 72/73/65 63/72/65
f 70/151/66 2/81/66 71/152/66
f 71/153/67 2/154/67 1/155/67
f 67/35/46 7/36/46 9/48/46 68/146/46
f 32/85/68 39/125/68 52/124/68
f 28/126/60 27/86/60 59/87/60 50/127/60
f 39/125/62 43/122/62 55/128/62 52/124/62
f 53/129/63 57/132/63 60/131/63 58/130/63
f 56/134/65 51/137/65 60/136/65 57/135/65
f 42/123/18 40/140/18 49/139/18 54/138/18
f 59/141/69 60/144/69 51/143/69 50/142/69
f 55/128/70 43/122/70 54/145/70
f 49/139/71 40/140/71 28/126/71 50/127/71
