# Blender 4.0.2
# www.blender.org
mtllib zadeldak_roof_side_small_3500.mtl
o zadeldak_roof_side_small_3500
v 0.114634 0.228833 1.990857
v 0.114634 0.037204 1.990857
v 0.115634 0.036474 1.991857
v 0.115634 0.228413 1.991857
v 0.134634 0.037203 -1.990857
v 0.133634 0.035973 -1.990997
v 0.133634 0.036473 -1.991857
v -0.115940 1.360403 -0.000010
v -0.115940 1.378403 -0.000010
v -0.116306 0.228836 -1.990857
v -0.116306 0.211146 -1.990857
v 0.115010 1.186463 -0.000010
v 0.115010 1.378403 -0.000010
v 0.134010 1.184963 0.000870
v 0.133634 0.035974 1.990997
v 0.115634 0.035974 1.990997
v 0.116010 1.184963 0.000870
v -0.116306 0.228836 1.990857
v -0.115296 0.229906 1.990997
v -0.114940 1.378903 0.000870
v 0.114000 1.358903 -0.000860
v -0.114940 1.358903 -0.000860
v -0.115296 0.209906 -1.990997
v 0.113634 0.209906 -1.990997
v -0.114940 1.378903 -0.000860
v 0.114000 1.378903 -0.000870
v 0.113644 0.229906 -1.990997
v -0.115296 0.229906 -1.990997
v 0.134010 1.378903 -0.000870
v 0.116010 1.378903 -0.000860
v 0.116010 1.378903 0.000870
v 0.134010 1.378903 0.000870
v 0.133634 0.228413 -1.991857
v 0.134634 0.228833 -1.990857
v 0.135010 1.378403 -0.000010
v 0.134634 0.228833 1.990857
v 0.134634 0.037204 1.990857
v 0.135010 1.186463 0.000010
v 0.114644 0.228836 -1.990857
v 0.113644 0.228406 -1.991857
v 0.114000 1.378903 0.000870
v 0.115000 1.378403 -0.000010
v 0.114000 1.358903 0.000870
v 0.115000 1.360403 -0.000010
v -0.114940 1.358903 0.000870
v 0.134010 1.184963 -0.000870
v 0.133634 0.036474 1.991857
v 0.133634 0.228413 1.991857
v 0.133634 0.229913 -1.990997
v 0.115634 0.228413 -1.991857
v 0.115634 0.229913 -1.990997
v 0.114634 0.211146 1.990867
v 0.113634 0.210406 1.991857
v 0.113634 0.209906 1.990997
v -0.115296 0.209906 1.990997
v -0.115296 0.210406 1.991857
v -0.116306 0.211146 1.990857
v -0.115296 0.228406 1.991857
v 0.113644 0.229906 1.990997
v 0.113644 0.228406 1.991857
v 0.114644 0.228836 1.990857
v 0.116010 1.184963 -0.000860
v 0.114634 0.037203 -1.990857
v 0.115634 0.035973 -1.990997
v 0.115634 0.036473 -1.991857
v -0.115296 0.210406 -1.991857
v 0.113634 0.210406 -1.991857
v -0.115296 0.228406 -1.991857
v 0.114634 0.211146 -1.990867
v 0.114634 0.228833 -1.990857
v 0.133634 0.229913 1.990997
v 0.115634 0.229913 1.990997
vn -0.7071 -0.0000 0.7071
vn 0.7499 -0.5718 -0.3326
vn -1.0000 -0.0000 0.0002
vn -1.0000 -0.0000 -0.0002
vn -0.0000 -0.8660 -0.5000
vn -0.6810 0.6342 0.3660
vn -0.0000 -0.8660 0.5000
vn -0.0000 0.8660 -0.5000
vn -0.0000 1.0000 -0.0000
vn 0.7071 -0.0000 -0.7071
vn 1.0000 -0.0000 0.0002
vn 0.5471 0.4164 -0.7262
vn 0.4473 0.8944 -0.0000
vn 0.8321 -0.5546 -0.0000
vn -0.4472 0.8944 -0.0000
vn -0.8321 -0.5546 -0.0000
vn 0.6517 -0.6569 0.3792
vn -0.0000 -0.0000 1.0000
vn -0.0000 0.4974 -0.8675
vn -0.0000 -1.0000 -0.0000
vn 0.7510 -0.5708 0.3320
vn -0.7491 -0.5727 0.3330
vn -0.5433 0.4177 0.7283
vn 0.5471 0.4164 0.7262
vn -0.7054 -0.6138 0.3545
vn -0.0000 -0.0000 -1.0000
vn -0.0000 -0.8644 -0.5027
vn -0.7036 -0.0000 -0.7106
vn -0.6581 -0.6521 0.3765
vn 0.7103 -0.6097 0.3518
vn -0.5433 0.4177 -0.7283
vn 0.7103 -0.6097 -0.3518
vn 0.6518 -0.6569 -0.3791
vn -0.0000 -0.8644 0.5027
vn 1.0000 -0.0003 -0.0000
vn 0.7071 -0.0000 0.7071
vn -0.7049 -0.6142 0.3547
vn -0.0001 0.8660 -0.5000
vn -0.6579 -0.6521 0.3766
vn 1.0000 -0.0000 -0.0002
vn -0.6817 0.6337 -0.3657
vn -0.0000 0.4973 0.8676
vn -0.0000 0.8660 0.5000
vn 0.6560 -0.6537 -0.3773
vn -0.0000 -0.8645 -0.5027
vn -0.0000 -0.8646 0.5025
vn -0.7491 -0.5727 -0.3330
vn 0.7510 -0.5708 -0.3320
vn 0.8321 -0.5547 -0.0000
vn -0.8320 -0.5547 -0.0000
vn -0.0000 0.4974 0.8675
vn 0.7054 -0.0002 0.7088
vn 0.6582 -0.6520 0.3763
vn -0.7500 -0.5719 0.3324
vn -0.5500 0.4154 0.7245
vn 0.5500 0.4154 0.7245
vn 0.7500 -0.5719 0.3324
vn 0.0001 -0.8660 0.5000
vn -0.6846 0.6313 0.3644
vn -0.5503 0.4153 -0.7243
vn -0.6516 -0.6569 -0.3793
vn -0.7054 -0.6138 -0.3545
vn -0.6515 -0.6570 -0.3794
vn 0.6829 0.6326 0.3654
vn 0.5500 0.4154 -0.7245
vn -0.7499 -0.5718 -0.3326
vn 0.7054 -0.0002 -0.7088
vn -0.7049 -0.6142 -0.3547
vn -0.6781 0.6365 -0.3674
vn 0.6809 0.6342 -0.3663
vn 0.6846 0.6312 0.3646
vn -0.7036 -0.0000 0.7106
vn 0.7055 -0.6139 -0.3542
vn 0.6827 0.6328 -0.3655
vn 0.7055 -0.6139 0.3542
vn -0.7071 -0.0000 -0.7071
vt 0.110928 0.019914
vt 0.115876 0.056782
vt 0.116165 0.056897
vt 0.111203 0.019947
vt 0.035561 0.059146
vt 0.035287 0.059268
vt 0.035224 0.059083
vt 0.002892 1.840070
vt 0.001162 1.837030
vt 0.448586 1.838781
vt 0.450296 1.841778
vt 1.583640 0.448335
vt 1.583260 0.001078
vt 1.550986 0.019744
vt 1.551320 0.467031
vt 0.453746 1.842656
vt 0.900852 1.844419
vt 0.900873 1.840923
vt 0.453766 1.839156
vt 0.448586 1.838783
vt 0.448502 1.838502
vt 0.001252 1.836770
vt 0.951658 1.446138
vt 0.907138 1.444338
vt 0.925104 0.997450
vt 0.969624 0.999250
vt 0.283664 1.574157
vt 0.239114 1.573607
vt 0.244672 1.126391
vt 0.289228 1.126934
vt 0.028119 0.072123
vt 0.028119 0.075613
vt 0.028449 0.075633
vt 0.028449 0.072103
vt 0.111424 0.056696
vt 0.111196 0.056897
vt 0.106110 0.019793
vt 0.106340 0.019642
vt 0.182361 1.607347
vt 0.182545 1.160053
vt 0.150265 1.141394
vt 0.150024 1.588651
vt 0.058942 0.018951
vt 0.059155 0.018706
vt 0.059268 0.018966
vt 0.007736 0.135162
vt 0.007636 0.134852
vt 0.007816 0.135092
vt 0.001350 0.160882
vt 0.001290 0.160572
vt 0.001080 0.160922
vt 0.051986 0.137422
vt 0.052116 0.137502
vt 0.052156 0.137172
vt 0.044850 0.170692
vt 0.045150 0.170262
vt 0.044850 0.170432
vt 0.884278 1.837306
vt 0.436881 1.835793
vt 0.437171 1.835544
vt 0.093452 0.022270
vt 0.098478 0.059268
vt 0.101941 0.058798
vt 0.096916 0.021800
vt 0.066333 0.008751
vt 0.066380 0.009063
vt 0.062870 0.009483
vt 0.062826 0.009171
vt 0.006842 0.058932
vt 0.006942 0.059268
vt 0.007112 0.059238
vt 0.042673 0.059056
vt 0.042502 0.058994
vt 0.042403 0.059268
vt 0.054420 0.033190
vt 0.054527 0.032977
vt 0.054201 0.032977
vt 0.089761 0.059253
vt 0.090087 0.059268
vt 0.089974 0.059008
vt 1.352268 1.840281
vt 1.799228 1.841776
vt 1.799375 1.842048
vt 0.100564 0.019899
vt 0.104028 0.019429
vt 0.109053 0.056427
vt 0.105590 0.056897
vt 0.175432 0.047389
vt 0.175261 0.047414
vt 0.175261 0.001644
vt 0.175433 0.001652
vt 0.077012 0.002267
vt 0.077087 0.001989
vt 0.080604 0.002093
vt 0.080468 0.002371
vt 0.003192 1.840330
vt 0.419617 0.002224
vt 0.419592 0.002531
vt 0.089980 0.061639
vt 0.089761 0.061426
vt 0.090087 0.061426
vt 0.173061 0.047389
vt 0.173062 0.001652
vt 0.172890 0.001644
vt 0.172890 0.047414
vt 0.000690 0.164432
vt 0.419123 0.005936
vt 0.113794 0.056696
vt 0.108710 0.019642
vt 0.108480 0.019793
vt 0.113566 0.056897
vt 0.450436 1.842048
vt 0.738152 1.832894
vt 0.738172 1.829384
vt 1.185279 1.831157
vt 1.185259 1.834660
vt 1.352416 1.842925
vt 1.352126 1.842664
vt 1.799375 1.844419
vt 0.738062 1.833144
vt 1.185342 1.834936
vt 0.030772 0.063277
vt 0.027265 0.063697
vt 0.027309 0.064009
vt 0.030819 0.063589
vt 1.073113 1.583640
vt 1.078677 1.136417
vt 1.034121 1.135874
vt 1.028563 1.583090
vt 1.799375 1.839677
vt 1.352269 1.837915
vt 1.351979 1.838166
vt 0.042673 0.082935
vt 0.042673 0.079485
vt 0.042323 0.079455
vt 0.042323 0.082975
vt 0.001084 0.042673
vt 0.001066 0.042505
vt 0.004726 0.041939
vt 0.004741 0.042108
vt 0.123277 0.061633
vt 0.119797 0.061639
vt 0.119797 0.017084
vt 0.123277 0.017079
vt 1.188589 1.835265
vt 1.635695 1.837031
vt 1.635715 1.833528
vt 1.188609 1.831755
vt 0.001083 0.052156
vt 0.004741 0.051591
vt 0.004727 0.051423
vt 0.001066 0.051988
vt 0.052156 0.089875
vt 0.051886 0.090087
vt 0.051985 0.089813
vt 0.629240 1.465104
vt 0.647206 1.018216
vt 0.602686 1.016416
vt 0.584720 1.463304
vt 0.021066 0.089751
vt 0.021336 0.090057
vt 0.021166 0.090087
vt 0.054176 0.021046
vt 0.054445 0.021336
vt 0.054527 0.021009
vt 0.090087 0.054527
vt 0.090008 0.054199
vt 0.089738 0.054499
vt 0.028239 0.071883
vt 0.028239 0.075863
vt 0.125314 0.016626
vt 0.125314 0.061609
vt 0.125648 0.061639
vt 0.125648 0.016657
vt 0.066246 0.013839
vt 0.062800 0.013943
vt 0.062873 0.014224
vt 0.066380 0.014116
vt 0.168321 0.045038
vt 0.168321 0.000484
vt 0.164841 0.000489
vt 0.164841 0.045044
vt 0.007112 0.064009
vt 0.007112 0.063857
vt 0.006837 0.063980
vt 0.004467 0.059161
vt 0.004741 0.059268
vt 0.004650 0.058916
vt 0.023417 0.058962
vt 0.023417 0.059268
vt 0.023707 0.059161
vt 0.090087 0.047292
vt 0.089750 0.047231
vt 0.089813 0.047414
vt 0.901812 1.840286
vt 0.901832 1.836786
vt 1.348938 1.838552
vt 1.348917 1.842048
vt 1.188498 1.835515
vt 1.635779 1.837307
vt 0.006838 0.089980
vt 0.007020 0.089735
vt 0.007112 0.090087
vt 0.904203 1.842654
vt 1.351309 1.844419
vt 1.351162 1.844149
vt 0.001107 1.845297
vt 0.448066 1.846790
vt 0.000817 1.845034
vt 0.000850 0.164642
vt 0.419149 0.006218
vt 0.085056 0.068445
vt 0.085346 0.068644
vt 0.085056 0.068751
vt 0.090087 0.064009
vt 0.089812 0.063980
vt 0.090087 0.063857
vt 0.170358 0.000031
vt 0.170692 0.000062
vt 0.170692 0.045044
vt 0.170358 0.045014
vt 0.078100 0.013839
vt 0.078234 0.014116
vt 0.074727 0.014224
vt 0.074654 0.013943
vt 1.635795 1.833252
vt 1.188509 1.831505
vt 0.041452 0.004637
vt 0.044908 0.004741
vt 0.045044 0.004463
vt 0.041527 0.004359
vt 1.614319 1.680839
vt 1.614459 1.680558
vt 1.167064 1.679046
vt 0.738072 1.829134
vt 1.185359 1.830881
vt 0.447925 1.844419
vt 0.000670 1.842628
vt 0.448066 1.844141
vt 0.001875 0.000949
vt 0.002150 0.000982
vt 0.007112 0.037932
vt 0.006823 0.037817
s 0
usemtl wood
f 1/1/1 2/2/1 3/3/1 4/4/1
f 5/5/2 6/6/2 7/7/2
f 8/8/3 9/9/3 10/10/3 11/11/3
f 12/12/4 2/13/4 1/14/4 13/15/4
f 14/16/5 15/17/5 16/18/5 17/19/5
f 18/20/6 19/21/6 20/22/6 9/9/6
f 21/23/7 22/24/7 23/25/7 24/26/7
f 25/27/8 26/28/8 27/29/8 28/30/8
f 29/31/9 30/32/9 31/33/9 32/34/9
f 5/35/10 7/36/10 33/37/10 34/38/10
f 35/39/11 36/40/11 37/41/11 38/42/11
f 27/43/12 39/44/12 40/45/12
f 26/46/13 41/47/13 42/48/13
f 43/49/14 21/50/14 44/51/14
f 25/52/15 9/53/15 20/54/15
f 45/55/16 8/56/16 22/57/16
f 6/58/17 38/59/17 46/60/17
f 4/61/18 3/62/18 47/63/18 48/64/18
f 49/65/19 33/66/19 50/67/19 51/68/19
f 43/49/20 45/55/20 22/57/20 21/50/20
f 52/69/21 53/70/21 54/71/21
f 55/72/22 56/73/22 57/74/22
f 18/75/23 58/76/23 19/77/23
f 59/78/24 60/79/24 61/80/24
f 62/81/25 63/82/25 64/83/25
f 50/84/26 33/85/26 7/86/26 65/87/26
f 23/88/27 66/89/27 67/90/27 24/91/27
f 10/92/28 68/93/28 66/94/28 11/95/28
f 11/11/29 22/96/29 8/8/29
f 44/51/30 24/97/30 69/98/30
f 10/99/31 28/100/31 68/101/31
f 44/51/32 52/98/32 54/97/32
f 44/51/33 54/97/33 43/50/33
f 55/102/34 54/103/34 53/104/34 56/105/34
f 42/106/35 44/51/35 69/98/35 39/107/35
f 37/108/36 36/109/36 48/110/36 47/111/36
f 23/112/37 22/96/37 11/11/37
f 30/113/38 29/114/38 49/115/38 51/116/38
f 62/117/39 12/118/39 63/119/39
f 35/39/40 38/42/40 5/41/40 34/40/40
f 13/120/41 30/113/41 51/116/41 70/121/41
f 71/122/42 72/123/42 4/124/42 48/125/42
f 20/126/43 19/127/43 59/128/43 41/129/43
f 8/8/4 57/11/4 18/20/4 9/9/4
f 15/130/44 14/131/44 38/132/44
f 14/133/20 17/134/20 62/135/20 46/136/20
f 64/137/45 65/138/45 7/139/45 6/140/45
f 42/106/35 61/107/35 52/98/35 44/51/35
f 66/141/26 68/142/26 40/143/26 67/144/26
f 31/145/43 72/146/43 71/147/43 32/148/43
f 16/149/46 15/150/46 47/151/46 3/152/46
f 23/153/47 11/154/47 66/155/47
f 43/156/5 54/157/5 55/158/5 45/159/5
f 69/160/48 24/161/48 67/162/48
f 46/163/49 38/164/49 14/165/49
f 17/166/50 12/167/50 62/168/50
f 29/31/13 32/34/13 35/169/13
f 31/33/15 30/32/15 13/170/15
f 59/171/51 19/172/51 58/173/51 60/174/51
f 52/175/52 61/176/52 60/177/52 53/178/52
f 44/51/53 21/50/53 24/97/53
f 56/179/18 53/180/18 60/181/18 58/182/18
f 16/183/54 3/184/54 2/185/54
f 1/186/55 4/187/55 72/188/55
f 71/189/56 48/190/56 36/191/56
f 37/192/57 47/193/57 15/194/57
f 46/195/58 62/196/58 64/197/58 6/198/58
f 13/199/59 1/200/59 72/146/59 31/145/59
f 70/201/60 51/202/60 50/203/60
f 57/11/61 8/8/61 45/96/61
f 17/204/62 16/205/62 2/206/62
f 17/207/63 2/208/63 12/209/63
f 41/210/64 59/211/64 61/107/64 42/106/64
f 49/212/65 34/213/65 33/214/65
f 64/215/66 63/216/66 65/217/66
f 27/218/19 40/219/19 68/220/19 28/221/19
f 69/222/67 67/223/67 40/224/67 39/225/67
f 55/112/68 57/11/68 45/96/68
f 10/10/69 9/9/69 25/22/69 28/21/69
f 26/210/70 42/106/70 39/107/70 27/211/70
f 71/147/71 36/226/71 35/227/71 32/148/71
f 18/228/72 57/229/72 56/230/72 58/231/72
f 20/54/9 41/47/9 26/46/9 25/52/9
f 37/232/73 15/233/73 38/234/73
f 49/115/74 29/114/74 35/235/74 34/236/74
f 5/237/75 38/238/75 6/239/75
f 12/12/3 13/15/3 70/14/3 63/13/3
f 70/240/76 50/241/76 65/242/76 63/243/76
