# Blender 4.0.2
# www.blender.org
mtllib zadeldak_roof_side_small_2000.mtl
o zadeldak_roof_side_small_2000
v -0.229570 0.953805 0.000870
v -0.229924 0.237326 1.241865
v -0.000984 0.237326 1.241865
v -0.000630 0.953805 0.000870
v 0.001370 0.953815 0.000870
v 0.001003 0.237331 1.241865
v 0.019010 0.237330 1.241865
v 0.019370 0.953815 0.000870
v 0.000370 0.953305 -0.000000
v -0.000630 0.933805 0.000870
v 0.000370 0.935305 -0.000000
v -0.230570 0.953305 -0.000000
v -0.229570 0.933805 0.000870
v -0.230570 0.935305 -0.000000
v 0.000016 0.218556 1.241735
v -0.000984 0.217816 1.242725
v -0.000984 0.217327 1.241865
v -0.229924 0.217326 1.241865
v -0.229924 0.217816 1.242725
v -0.230924 0.218556 1.241725
v -0.230924 0.236246 1.241725
v -0.229924 0.235826 1.242725
v -0.000984 0.235826 1.242725
v 0.000016 0.236246 1.241725
v 0.020370 0.761374 -0.000000
v 0.019370 0.759875 0.000870
v 0.001370 0.759875 0.000870
v 0.000370 0.761374 -0.000000
v 0.020370 0.953315 -0.000000
v 0.000370 0.953315 -0.000000
v 0.001003 0.043391 1.241864
v 0.001003 0.043891 1.242724
v 0.000003 0.044487 1.241865
v 0.000013 0.236251 1.241724
v 0.001003 0.235831 1.242725
v 0.019013 0.235831 1.242725
v 0.020003 0.236251 1.241724
v 0.020003 0.044621 1.241724
v 0.019013 0.043891 1.242724
v 0.019010 0.043391 1.241865
v -0.229570 0.933805 -0.000000
v -0.000630 0.933805 -0.000000
v 0.019370 0.953815 -0.000000
v 0.001370 0.953815 -0.000000
v -0.000630 0.953805 -0.000000
v -0.229570 0.953805 -0.000000
v 0.019370 0.759875 -0.000000
v 0.001370 0.759875 -0.000000
v -0.229570 0.953805 -0.000870
v -0.229924 0.237326 -1.241865
v -0.000984 0.237326 -1.241865
v -0.000630 0.953805 -0.000870
v 0.001370 0.953815 -0.000870
v 0.001003 0.237331 -1.241865
v 0.019010 0.237330 -1.241865
v 0.019370 0.953815 -0.000870
v -0.000630 0.933805 -0.000870
v -0.229570 0.933805 -0.000870
v 0.000016 0.218556 -1.241735
v -0.000984 0.217816 -1.242725
v -0.000984 0.217327 -1.241865
v -0.229924 0.217326 -1.241865
v -0.229924 0.217816 -1.242725
v -0.230924 0.218556 -1.241725
v -0.230924 0.236246 -1.241725
v -0.229924 0.235826 -1.242725
v -0.000984 0.235826 -1.242725
v 0.000016 0.236246 -1.241725
v 0.019370 0.759875 -0.000870
v 0.001370 0.759875 -0.000870
v 0.001003 0.043391 -1.241864
v 0.001003 0.043891 -1.242724
v 0.000003 0.044487 -1.241865
v 0.000013 0.236251 -1.241724
v 0.001003 0.235831 -1.242725
v 0.019013 0.235831 -1.242725
v 0.020003 0.236251 -1.241724
v 0.020003 0.044621 -1.241724
v 0.019013 0.043891 -1.242724
v 0.019010 0.043391 -1.241865
vn -0.0000 0.8660 0.5000
vn -0.0000 1.0000 -0.0000
vn 0.4472 0.8944 -0.0000
vn -0.4472 0.8944 -0.0000
vn 0.7498 -0.5752 0.3272
vn -0.7513 -0.5732 0.3271
vn -0.5501 0.4152 0.7245
vn 0.5501 0.4152 0.7245
vn -0.0000 0.4974 0.8675
vn 0.7070 -0.6126 -0.3534
vn 0.6539 -0.6553 -0.3782
vn -1.0000 -0.0000 -0.0003
vn 0.8319 -0.5550 -0.0000
vn -0.8319 -0.5550 -0.0000
vn 0.4472 0.8945 -0.0000
vn -0.6876 -0.6277 0.3650
vn -0.5545 0.4138 0.7220
vn 0.5537 0.4152 0.7218
vn 0.7528 -0.5701 0.3292
vn -0.6886 -0.6279 -0.3627
vn -0.6536 -0.6554 -0.3786
vn -0.0000 -0.0000 1.0000
vn -0.0000 -0.8643 0.5029
vn -0.0000 -0.8660 -0.5000
vn 1.0000 -0.0000 0.0003
vn -0.6827 0.0003 0.7307
vn -0.0000 0.4975 0.8674
vn 0.7053 0.0002 0.7089
vn 0.6836 0.6319 0.3651
vn -0.0000 -0.8691 0.4947
vn -0.6855 0.6306 0.3639
vn 0.7108 -0.0000 0.7034
vn -0.0000 -1.0000 -0.0000
vn -0.7071 -0.0000 0.7071
vn -0.7053 -0.6138 -0.3546
vn 0.6848 0.6310 0.3645
vn -0.6537 -0.6554 -0.3785
vn -0.6836 0.6321 0.3648
vn 0.7078 -0.6119 -0.3530
vn 0.6539 -0.6553 -0.3781
vn -0.0000 0.8660 -0.5000
vn 0.7497 -0.5753 -0.3272
vn -0.7512 -0.5733 -0.3271
vn -0.5501 0.4153 -0.7245
vn 0.5501 0.4153 -0.7245
vn -0.0000 0.4974 -0.8675
vn 0.7070 -0.6126 0.3534
vn 0.6539 -0.6553 0.3782
vn -1.0000 -0.0000 0.0003
vn 0.8318 -0.5550 -0.0000
vn -0.4471 0.8945 -0.0000
vn -0.6876 -0.6277 -0.3650
vn -0.5545 0.4138 -0.7220
vn 0.5538 0.4151 -0.7218
vn 0.7528 -0.5700 -0.3292
vn -0.6886 -0.6279 0.3627
vn -0.6535 -0.6554 0.3786
vn -0.0000 -0.0000 -1.0000
vn -0.0000 -0.8644 -0.5028
vn -0.0000 -0.8660 0.5000
vn 1.0000 -0.0000 -0.0003
vn -0.6827 0.0003 -0.7307
vn -0.0000 0.4975 -0.8675
vn 0.7053 0.0002 -0.7089
vn 0.6836 0.6320 -0.3651
vn -0.0000 -0.8691 -0.4946
vn -0.6855 0.6306 -0.3639
vn 0.7108 -0.0000 -0.7034
vn -0.7071 -0.0000 -0.7071
vn -0.7053 -0.6138 0.3546
vn 0.6848 0.6310 -0.3645
vn -0.6537 -0.6554 0.3785
vn -0.6836 0.6321 -0.3648
vn 0.7078 -0.6119 0.3530
vn 0.6539 -0.6553 0.3781
vt 0.172560 0.995030
vt 0.182742 0.556242
vt 0.112638 0.554637
vt 0.102460 0.993430
vt 0.073510 0.965790
vt 0.505767 0.980170
vt 0.505873 0.974747
vt 0.073590 0.960380
vt 0.073325 0.960355
vt 0.073265 0.965800
vt 0.958315 0.000840
vt 0.958580 0.000840
vt 0.958310 0.000500
vt 0.049525 0.993510
vt 0.049530 0.993860
vt 0.049790 0.993510
vt -0.030836 -0.003938
vt -0.030335 -0.003893
vt -0.030402 -0.004183
vt -0.024708 0.348729
vt -0.024629 0.348434
vt -0.025087 0.348469
vt -0.086023 0.014139
vt -0.085597 0.014003
vt -0.086024 0.013675
vt -0.081696 0.329929
vt -0.081270 0.329619
vt -0.081697 0.329484
vt 0.619160 0.478366
vt 0.670306 0.430307
vt 0.669944 0.429913
vt 0.618809 0.477982
vt 0.052230 0.040780
vt 0.490940 0.060338
vt 0.491189 0.059914
vt 0.052710 0.040400
vt 0.007870 0.040210
vt 0.446714 0.023988
vt 0.443828 0.019393
vt 0.004930 0.035540
vt 0.914843 0.020959
vt 0.915361 0.022103
vt 0.914761 0.020054
vt 0.914762 -0.015650
vt 0.915362 -0.017700
vt 0.914841 -0.016551
vt 0.073430 0.960000
vt 0.073310 0.966150
vt -0.112277 0.996031
vt -0.112245 0.995680
vt -0.112636 0.995588
vt -0.018160 0.534709
vt -0.017756 0.534754
vt -0.017847 0.534317
vt 0.350592 0.479341
vt 0.350594 0.479818
vt 0.350983 0.479649
vt 0.559466 0.911669
vt 0.559021 0.911860
vt 0.559121 0.912169
vt -0.004255 -0.005877
vt 0.428086 0.006324
vt 0.427934 0.005905
vt -0.004247 -0.005542
vt 0.427942 0.006239
vt -0.004687 -0.005952
vt 0.541375 0.290642
vt 0.489943 0.338293
vt 0.493688 0.342333
vt 0.545119 0.294682
vt 0.227088 1.141136
vt 0.232557 1.140612
vt 0.232541 1.140373
vt 0.227071 1.140895
vt 0.046990 0.049260
vt 0.025313 0.487635
vt 0.095353 0.491115
vt 0.117030 0.052740
vt 0.071300 0.997070
vt 0.066304 0.564310
vt 0.015884 0.535966
vt 0.020796 0.968682
vt -0.113228 0.663501
vt -0.106850 0.722150
vt -0.106451 0.722259
vt -0.112810 0.663546
vt 0.162266 0.449785
vt 0.156855 0.450339
vt 0.156909 0.450852
vt 0.162321 0.450299
vt -0.047239 0.213449
vt -0.050206 0.218004
vt -0.049763 0.218138
vt -0.046745 0.213500
vt 0.049260 0.045430
vt 0.488023 0.064936
vt 0.490940 0.060364
vt 0.049400 0.045840
vt 0.487875 0.065390
vt 0.488022 0.064963
vt 0.945536 0.031292
vt 0.937322 0.464014
vt 0.987970 0.436002
vt 0.996250 0.003290
vt -0.004622 0.006181
vt 0.427720 0.018375
vt 0.427880 0.012944
vt -0.004462 0.000751
vt 0.196760 -0.085970
vt 0.144368 -0.038090
vt 0.144576 -0.037857
vt 0.196966 -0.085737
vt 0.505860 0.980571
vt 0.483464 0.657144
vt 0.476845 0.599531
vt 0.476449 0.599689
vt 0.483083 0.657402
vt 0.337790 0.166420
vt 0.386660 0.116130
vt 0.386470 0.115945
vt 0.337605 0.166235
vt -0.054714 0.124507
vt -0.051798 0.129078
vt -0.051298 0.129044
vt -0.054267 0.124390
vt 0.174807 0.620936
vt 0.181141 0.678504
vt 0.186507 0.677908
vt 0.180173 0.620340
vt 0.446951 0.024394
vt 0.008340 0.040600
vt 0.505994 0.974330
vt 0.443683 0.018982
vt 0.005070 0.035130
vt 0.333360 0.162100
vt 0.382120 0.111700
vt 0.381930 0.111515
vt 0.333170 0.161915
vt 0.427386 0.025717
vt 0.427614 0.025295
vt -0.005186 0.013482
vt 0.427618 0.024770
vt -0.004722 0.012569
vt -0.005182 0.012959
vt 0.905880 0.000500
vt 0.905880 0.003990
vt 0.905960 0.003090
vt 0.905960 0.001405
s 0
f 1/1/1 2/2/1 3/3/1 4/4/1
f 5/5/1 6/6/1 7/7/1 8/8/1
f 43/9/2 44/10/2 5/5/2 8/8/2
f 45/11/3 4/12/3 9/13/3
f 46/14/4 12/15/4 1/16/4
f 15/17/5 16/18/5 17/19/5
f 18/20/6 19/21/6 20/22/6
f 21/23/7 22/24/7 2/25/7
f 3/26/8 23/27/8 24/28/8
f 3/29/9 2/30/9 22/31/9 23/32/9
f 11/33/10 15/34/10 17/35/10
f 11/33/11 17/35/11 10/36/11
f 14/37/12 20/38/12 21/39/12 12/40/12
f 47/41/13 25/42/13 26/43/13
f 27/44/14 28/45/14 48/46/14
f 43/9/15 8/8/15 29/47/15
f 5/5/4 44/10/4 30/48/4
f 31/49/16 32/50/16 33/51/16
f 34/52/17 35/53/17 6/54/17
f 7/55/18 36/56/18 37/57/18
f 38/58/19 39/59/19 40/60/19
f 27/61/20 31/62/20 33/63/20
f 27/64/21 33/65/21 28/66/21
f 19/67/22 16/68/22 23/69/22 22/70/22
f 31/71/23 40/72/23 39/73/23 32/74/23
f 10/75/24 17/76/24 18/77/24 13/78/24
f 29/79/25 37/80/25 38/81/25 25/82/25
f 34/83/26 33/84/26 32/85/26 35/86/26
f 7/87/27 6/88/27 35/89/27 36/90/27
f 15/91/28 24/92/28 23/93/28 16/94/28
f 9/95/25 24/96/25 15/97/25 11/33/25
f 4/98/29 3/99/29 24/100/29 9/95/29
f 28/101/12 33/102/12 34/103/12 30/104/12
f 26/105/24 40/106/24 31/107/24 27/108/24
f 18/109/30 17/110/30 16/111/30 19/112/30
f 30/48/31 34/113/31 6/6/31 5/5/31
f 38/114/32 37/115/32 36/116/32 39/117/32
f 10/118/33 13/119/33 41/120/33 42/121/33
f 21/122/34 20/123/34 19/124/34 22/125/34
f 35/126/22 32/127/22 39/128/22 36/129/22
f 18/130/35 20/38/35 13/131/35
f 7/7/36 37/132/36 29/47/36 8/8/36
f 20/38/37 14/37/37 13/131/37
f 21/39/38 2/133/38 1/134/38 12/40/38
f 1/135/2 4/136/2 45/137/2 46/138/2
f 38/139/39 40/140/39 25/141/39
f 40/142/40 26/143/40 25/144/40
f 26/145/33 27/146/33 48/147/33 47/148/33
f 49/1/41 52/4/41 51/3/41 50/2/41
f 53/5/41 56/8/41 55/7/41 54/6/41
f 43/9/2 56/8/2 53/5/2 44/10/2
f 45/11/3 9/13/3 52/12/3
f 46/14/4 49/16/4 12/15/4
f 59/17/42 61/19/42 60/18/42
f 62/20/43 64/22/43 63/21/43
f 65/23/44 50/25/44 66/24/44
f 51/26/45 68/28/45 67/27/45
f 51/29/46 67/32/46 66/31/46 50/30/46
f 11/33/47 61/35/47 59/34/47
f 11/33/48 57/36/48 61/35/48
f 14/37/49 12/40/49 65/39/49 64/38/49
f 47/41/50 69/43/50 25/42/50
f 70/44/14 48/46/14 28/45/14
f 43/9/15 29/47/15 56/8/15
f 53/5/51 30/48/51 44/10/51
f 71/49/52 73/51/52 72/50/52
f 74/52/53 54/54/53 75/53/53
f 55/55/54 77/57/54 76/56/54
f 78/58/55 80/60/55 79/59/55
f 70/61/56 73/63/56 71/62/56
f 70/64/57 28/66/57 73/65/57
f 63/67/58 66/70/58 67/69/58 60/68/58
f 71/71/59 72/74/59 79/73/59 80/72/59
f 57/75/60 58/78/60 62/77/60 61/76/60
f 29/79/61 25/82/61 78/81/61 77/80/61
f 74/83/62 75/86/62 72/85/62 73/84/62
f 55/87/63 76/90/63 75/89/63 54/88/63
f 59/91/64 60/94/64 67/93/64 68/92/64
f 9/95/61 11/33/61 59/97/61 68/96/61
f 52/98/65 9/95/65 68/100/65 51/99/65
f 28/101/49 30/104/49 74/103/49 73/102/49
f 69/105/60 70/108/60 71/107/60 80/106/60
f 62/109/66 63/112/66 60/111/66 61/110/66
f 30/48/67 53/5/67 54/6/67 74/113/67
f 78/114/68 79/117/68 76/116/68 77/115/68
f 57/118/33 42/121/33 41/120/33 58/119/33
f 65/122/69 66/125/69 63/124/69 64/123/69
f 75/126/58 76/129/58 79/128/58 72/127/58
f 62/130/70 58/131/70 64/38/70
f 55/7/71 56/8/71 29/47/71 77/132/71
f 64/38/72 58/131/72 14/37/72
f 65/39/73 12/40/73 49/134/73 50/133/73
f 49/135/2 46/138/2 45/137/2 52/136/2
f 78/139/74 25/141/74 80/140/74
f 80/142/75 25/144/75 69/143/75
f 69/145/33 47/148/33 48/147/33 70/146/33
