# Blender 4.0.2
# www.blender.org
mtllib zadeldak_roof_side_small_5000.mtl
o zadeldak_roof_side_small_5000
v 0.133730 1.613644 -0.000880
v 0.134730 1.615145 -0.000020
v 0.133730 1.613644 0.000880
v 0.115730 1.613644 0.000880
v 0.114730 1.615143 -0.000020
v 0.115730 1.613644 -0.000880
v 0.133730 1.807585 -0.000850
v 0.133730 1.807585 0.000850
v 0.134730 1.807083 -0.000020
v 0.115730 1.807585 0.000880
v 0.115730 1.807585 -0.000850
v 0.114730 1.807083 -0.000020
v 0.115730 0.031731 2.740844
v 0.115730 0.032230 2.741704
v 0.114730 0.032960 2.740704
v 0.114730 0.224590 2.740704
v 0.115730 0.224170 2.741704
v 0.115730 0.225670 2.740844
v 0.133730 0.225668 2.740844
v 0.133730 0.224170 2.741704
v 0.134730 0.224590 2.740704
v 0.134730 0.032960 2.740704
v 0.133730 0.032230 2.741704
v 0.133730 0.031731 2.740844
v -0.115210 1.807585 0.000880
v 0.113730 1.807585 0.000850
v 0.113730 1.807583 -0.000850
v -0.115210 1.807585 -0.000850
v 0.114730 1.807083 -0.000020
v 0.114747 0.224588 2.740704
v 0.114747 0.206898 2.740704
v 0.114730 1.789084 0.000020
v 0.113747 0.225668 2.740844
v -0.115193 0.205670 2.740844
v 0.113747 0.205670 2.740844
v 0.113747 0.206168 2.741704
v -0.115193 0.206168 2.741704
v 0.113730 1.787585 0.000880
v 0.113730 1.787583 -0.000880
v -0.116210 1.807083 -0.000020
v -0.115210 1.787585 0.000880
v -0.116210 1.789084 -0.000020
v -0.115210 1.787583 -0.000880
v -0.116193 0.206898 2.740704
v -0.116193 0.224588 2.740704
v -0.115193 0.224168 2.741704
v -0.115193 0.225670 2.740844
v 0.113747 0.224168 2.741704
v -0.116193 0.224587 -2.740704
v -0.115193 0.225669 -2.740844
v -0.115193 0.224167 -2.741704
v 0.113747 0.205669 -2.740844
v 0.114747 0.206897 -2.740704
v -0.116193 0.206897 -2.740704
v -0.115193 0.205669 -2.740844
v -0.115193 0.206167 -2.741704
v 0.113747 0.206167 -2.741704
v 0.114747 0.224587 -2.740704
v 0.113747 0.225667 -2.740844
v 0.113747 0.224167 -2.741704
v 0.115730 0.031730 -2.740844
v 0.114730 0.032959 -2.740704
v 0.115730 0.032229 -2.741704
v 0.114730 0.224589 -2.740704
v 0.115730 0.225669 -2.740844
v 0.115730 0.224169 -2.741704
v 0.133730 0.225667 -2.740844
v 0.134730 0.224589 -2.740704
v 0.133730 0.224169 -2.741704
v 0.134730 0.032959 -2.740704
v 0.133730 0.031730 -2.740844
v 0.133730 0.032229 -2.741704
vn 0.8320 -0.5548 -0.0000
vn -0.8319 -0.5549 -0.0000
vn 0.4482 0.8939 -0.0000
vn -0.4481 0.8940 -0.0000
vn -0.7498 -0.5723 0.3320
vn -0.5500 0.4155 0.7245
vn 0.5497 0.4159 0.7244
vn 0.7498 -0.5723 0.3320
vn -0.6866 0.6296 0.3635
vn -0.7051 -0.6141 -0.3545
vn -0.6470 -0.6604 -0.3812
vn 0.0005 0.8660 0.5000
vn -0.0000 0.4976 0.8674
vn -0.7071 -0.0000 0.7071
vn -0.0000 1.0000 -0.0000
vn 1.0000 -0.0000 -0.0000
vn -0.0000 -1.0000 -0.0000
vn -1.0000 -0.0000 -0.0000
vn -0.0000 -0.8660 -0.5000
vn 0.7071 -0.0000 0.7071
vn -0.0000 -0.8649 0.5019
vn -0.0000 -0.0000 1.0000
vn -0.0000 1.0000 -0.0006
vn 0.7051 -0.6141 -0.3545
vn 0.6840 0.6318 0.3648
vn 0.6471 -0.6602 -0.3812
vn -0.0000 -0.8653 0.5012
vn 0.4477 0.8942 -0.0005
vn 0.8321 -0.5546 -0.0000
vn -0.8321 -0.5546 0.0001
vn 0.7497 -0.5727 0.3317
vn -0.7495 -0.5729 0.3316
vn -0.5503 0.4151 0.7245
vn 0.5500 0.4154 0.7245
vn -0.5503 0.4149 -0.7246
vn 0.7048 -0.6144 0.3547
vn -0.6564 -0.6534 0.3772
vn -0.0000 -1.0000 0.0006
vn -0.6472 -0.6602 -0.3811
vn -0.7497 -0.5727 -0.3316
vn 0.7495 -0.5729 -0.3316
vn 0.7048 -0.6144 -0.3547
vn 0.6559 -0.6537 -0.3774
vn -0.0000 0.8660 0.5000
vn -0.0000 -0.8653 -0.5012
vn 0.6798 0.6352 -0.3667
vn -0.7071 -0.0000 -0.7071
vn -0.0000 0.4971 0.8677
vn -0.7049 -0.6143 -0.3547
vn 0.6836 0.6320 0.3649
vn 0.5499 0.4156 -0.7245
vn -0.6870 0.6294 0.3633
vn -0.7497 -0.5725 -0.3320
vn -0.5500 0.4156 -0.7244
vn 0.5495 0.4163 -0.7244
vn 0.7497 -0.5725 -0.3320
vn -0.6801 0.6349 -0.3666
vn -0.7051 -0.6141 0.3545
vn -0.6557 -0.6539 0.3775
vn -0.0000 0.8660 -0.5000
vn -0.0000 0.4976 -0.8674
vn -0.0000 -0.8660 0.5000
vn 0.7071 -0.0000 -0.7071
vn -0.0000 -0.8649 -0.5019
vn -0.0000 -0.0000 -1.0000
vn 0.7051 -0.6141 0.3545
vn 0.6560 -0.6537 0.3774
vn 0.6476 -0.6599 0.3810
vn -0.0000 0.4971 -0.8677
vn -0.7048 -0.6144 0.3547
vn -0.6804 0.6346 -0.3664
vt 0.052126 0.084885
vt 0.051666 0.085144
vt 0.052156 0.085346
vt 0.021206 0.007112
vt 0.021336 0.006595
vt 0.020846 0.006813
vt 0.075513 0.016595
vt 0.075863 0.016275
vt 0.075483 0.016215
vt 0.040012 0.049315
vt 0.039992 0.049785
vt 0.040302 0.049565
vt 0.030819 0.085016
vt 0.030590 0.084957
vt 0.030460 0.085346
vt 0.013770 0.092458
vt 0.013828 0.092458
vt 0.014224 0.092398
vt 0.064009 0.000000
vt 0.063613 0.000000
vt 0.063561 0.000000
vt 0.087303 0.002023
vt 0.087501 0.002371
vt 0.087717 0.002284
vt 0.779327 0.840375
vt 0.806699 0.000838
vt 0.820623 0.001386
vt 0.793967 0.840695
vt 1.442802 0.841605
vt 1.469455 0.002287
vt 1.484070 0.002935
vt 0.987622 1.084970
vt 1.028892 0.246299
vt 1.001342 1.085789
vt 0.830045 0.001678
vt 0.804187 0.841015
vt 0.004741 0.082945
vt 0.004371 0.078118
vt 0.003970 0.078148
vt 0.004341 0.082975
vt 0.066956 0.142525
vt 0.118403 0.144614
vt 0.118536 0.144430
vt 0.067006 0.142338
vt 0.007394 0.047414
vt 0.011854 0.045654
vt 0.011684 0.045224
vt 0.007224 0.046984
vt 0.890049 0.867683
vt 0.915097 0.028080
vt 0.883984 0.001746
vt 0.858886 0.841307
vt 0.000111 0.033791
vt 0.004561 0.035561
vt 0.004741 0.035141
vt 0.000281 0.033361
vt 0.854488 0.840932
vt 0.881907 0.001438
vt 0.849216 0.025778
vt 0.821732 0.865312
vt 0.037546 1.521701
vt 0.063408 0.682366
vt 0.073492 0.682683
vt 0.046841 1.522001
vt 0.125488 0.074947
vt 0.075032 0.085172
vt 0.075110 0.085346
vt 0.125648 0.075105
vt 0.021336 0.085331
vt 0.020914 0.080459
vt 0.020690 0.080474
vt 0.021112 0.085346
vt 0.034498 0.120907
vt 0.085346 0.114871
vt 0.084776 0.110101
vt 0.033928 0.116137
vt 0.065858 0.094589
vt 0.092348 0.037759
vt 0.092338 0.037749
vt 0.065838 0.094579
vt 0.156067 0.653988
vt 0.170692 0.654248
vt 0.131095 1.493552
vt 1.658196 0.665030
vt 1.652734 1.515463
vt 1.641669 1.520624
vt 1.647466 0.665870
vt 1.668986 0.672250
vt 1.664136 1.514363
vt 0.405393 0.426630
vt 0.379537 1.265964
vt 0.365795 1.265934
vt 1.167707 0.651947
vt 1.199583 0.593890
vt 1.199000 0.593617
vt 1.167116 0.651679
vt 0.092458 0.037509
vt 0.082865 0.030367
vt 0.082845 0.030357
vt 0.082975 0.030117
vt 0.065728 0.094829
vt 0.056235 0.087477
vt 0.056115 0.087717
vt 0.056225 0.087467
vt 0.070612 0.003879
vt 0.070443 0.004549
vt 0.071122 0.004741
vt 0.033190 0.051900
vt 0.032700 0.051532
vt 0.032330 0.052156
vt 0.016090 0.037932
vt 0.016595 0.037459
vt 0.015705 0.037185
vt 0.034792 0.013750
vt 0.035523 0.014224
vt 0.035561 0.013567
vt 0.037427 0.011854
vt 0.037042 0.011108
vt 0.037932 0.011382
vt 1.630612 1.525288
vt 1.641587 1.520659
vt 0.000139 0.038607
vt 0.006621 0.040302
vt 0.007112 0.039790
vt 0.000516 0.038064
vt 0.759551 1.797004
vt 0.775225 0.951002
vt 0.763675 0.937232
vt 1.797925 1.815970
vt 1.802049 0.956198
vt 1.813599 0.969968
vt 0.061639 0.016339
vt 0.060779 0.016595
vt 0.061149 0.015971
vt 0.016085 0.010992
vt 0.016595 0.011854
vt 0.015916 0.011662
vt 1.575994 0.642722
vt 1.559061 1.502994
vt 1.565144 0.653723
vt 1.635976 0.670510
vt 1.631594 1.513837
vt 1.108439 0.059268
vt 1.107848 0.058999
vt 1.139732 0.000938
vt 1.140315 0.001211
vt 1.592614 1.510098
vt 1.597864 0.662233
vt 0.018966 0.004048
vt 0.013533 0.000615
vt 0.013380 0.001248
vt 0.018909 0.004741
vt 1.652820 1.515457
vt 0.081885 1.664244
vt 0.109053 1.607250
vt 0.103082 1.604742
vt 0.075975 1.661632
vt 0.000139 0.064685
vt 0.000516 0.064142
vt 0.007112 0.065868
vt 0.006621 0.066380
vt 1.657786 0.671610
vt 1.653747 1.531484
vt 1.643011 1.519453
vt 1.646816 0.666490
vt 1.089718 0.264847
vt 1.061687 0.322045
vt 1.062495 0.322418
vt 1.090531 0.265220
vt 1.582485 1.510148
vt 0.843976 0.002005
vt 0.818817 0.841605
vt 0.020567 0.075389
vt 0.021336 0.075206
vt 0.021298 0.075863
vt 0.030819 0.039972
vt 0.030460 0.040302
vt 0.030590 0.039913
vt 0.006658 0.094829
vt 0.007112 0.094769
vt 0.006716 0.094829
vt 0.080604 0.000000
vt 0.080156 0.000000
vt 0.080208 0.000000
vt 0.089673 0.013876
vt 0.090087 0.014137
vt 0.089871 0.014224
vt 0.343115 0.866453
vt 0.357755 0.866773
vt 0.384411 0.027464
vt 0.370487 0.026916
vt 0.112829 1.493552
vt 0.154097 0.654882
vt 0.139482 0.654234
vt 0.319079 1.118158
vt 0.332799 1.118979
vt 0.360349 0.279489
vt 0.367975 0.867093
vt 0.393833 0.027756
vt 0.009483 0.085316
vt 0.009083 0.085346
vt 0.008712 0.080519
vt 0.009113 0.080489
vt 0.059844 0.144896
vt 0.059894 0.144709
vt 0.111424 0.146801
vt 0.111291 0.146985
vt 0.049400 1.521701
vt 0.058695 1.522001
vt 0.085346 0.682683
vt 0.075262 0.682366
vt 0.051996 0.122361
vt 0.052156 0.122519
vt 0.001618 0.132760
vt 0.001540 0.132586
vt 0.023707 0.082960
vt 0.023484 0.082975
vt 0.023061 0.078103
vt 0.023285 0.078088
vt 0.072429 0.092458
vt 0.071859 0.087688
vt 0.122707 0.081652
vt 0.123277 0.086422
vt 1.379359 0.002040
vt 1.354362 0.841605
vt 1.393982 0.002300
vt 1.050228 0.545166
vt 1.010634 1.384471
vt 1.024374 1.384499
vt 0.382605 0.867683
vt 0.407764 0.028083
vt 1.611555 0.768371
vt 1.600705 0.779371
vt 1.594622 1.628642
vt 1.633425 0.787881
vt 1.628175 1.635746
vt 0.018966 0.015902
vt 0.018909 0.016595
vt 0.013380 0.013102
vt 0.013533 0.012469
vt 0.081885 1.604976
vt 0.075975 1.602364
vt 0.103082 1.545474
vt 0.109053 1.547982
vt 1.092088 0.267217
vt 1.092901 0.267590
vt 1.064865 0.324788
vt 1.064057 0.324415
vt 1.618046 1.635796
s 0
usemtl wood
f 1/1/1 2/2/1 3/3/1
f 4/4/2 5/5/2 6/6/2
f 7/7/3 8/8/3 9/9/3
f 10/10/4 11/11/4 12/12/4
f 13/13/5 14/14/5 15/15/5
f 16/16/6 17/17/6 18/18/6
f 19/19/7 20/20/7 21/21/7
f 22/22/8 23/23/8 24/24/8
f 12/25/9 16/26/9 18/27/9 10/28/9
f 4/29/10 13/30/10 15/31/10
f 4/32/11 15/33/11 5/34/11
f 10/28/12 18/27/12 19/35/12 8/36/12
f 19/37/13 18/38/13 17/39/13 20/40/13
f 16/41/14 15/42/14 14/43/14 17/44/14
f 7/45/15 11/46/15 10/47/15 8/48/15
f 9/49/16 21/50/16 22/51/16 2/52/16
f 3/53/17 4/54/17 6/55/17 1/56/17
f 5/57/18 15/58/18 16/59/18 12/60/18
f 3/61/19 24/62/19 13/63/19 4/64/19
f 22/65/20 21/66/20 20/67/20 23/68/20
f 13/69/21 24/70/21 23/71/21 14/72/21
f 17/73/22 14/74/22 23/75/22 20/76/22
f 25/77/23 26/78/23 27/79/23 28/80/23
f 22/81/24 24/82/24 2/83/24
f 29/84/16 30/85/16 31/86/16 32/87/16
f 26/88/25 33/89/25 30/85/25 29/84/25
f 24/90/26 3/91/26 2/92/26
f 34/93/27 35/94/27 36/95/27 37/96/27
f 27/79/28 26/78/28 29/97/28
f 38/98/29 39/99/29 32/100/29
f 28/80/4 40/101/4 25/77/4
f 41/102/30 42/103/30 43/104/30
f 31/105/31 36/106/31 35/107/31
f 34/108/32 37/109/32 44/110/32
f 45/111/33 46/112/33 47/113/33
f 33/114/34 48/115/34 30/116/34
f 49/117/35 50/118/35 51/119/35
f 32/87/36 52/120/36 53/121/36
f 45/122/14 44/123/14 37/124/14 46/125/14
f 54/126/37 43/127/37 42/128/37
f 38/98/38 41/102/38 43/104/38 39/99/38
f 44/129/39 42/130/39 41/131/39
f 55/132/40 54/133/40 56/134/40
f 53/135/41 52/136/41 57/137/41
f 32/87/42 31/86/42 35/120/42
f 32/138/43 35/139/43 38/140/43
f 25/141/44 47/142/44 33/89/44 26/88/44
f 55/143/45 56/144/45 57/145/45 52/146/45
f 38/140/19 35/139/19 34/147/19 41/148/19
f 31/149/20 30/150/20 48/151/20 36/152/20
f 27/88/46 29/84/46 58/153/46 59/89/46
f 37/154/22 36/155/22 48/156/22 46/157/22
f 49/158/47 51/159/47 56/160/47 54/161/47
f 42/162/18 44/163/18 45/164/18 40/165/18
f 33/166/48 47/167/48 46/168/48 48/169/48
f 34/147/49 44/170/49 41/148/49
f 19/35/50 21/171/50 9/172/50 8/36/50
f 29/84/16 32/87/16 53/121/16 58/153/16
f 59/173/51 58/174/51 60/175/51
f 45/164/52 47/142/52 25/141/52 40/165/52
f 61/176/53 62/177/53 63/178/53
f 64/179/54 65/180/54 66/181/54
f 67/182/55 68/183/55 69/184/55
f 70/185/56 71/186/56 72/187/56
f 12/188/57 11/189/57 65/190/57 64/191/57
f 6/192/58 62/193/58 61/194/58
f 6/195/59 5/196/59 62/197/59
f 11/189/60 7/198/60 67/199/60 65/190/60
f 67/200/61 69/201/61 66/202/61 65/203/61
f 64/204/47 66/205/47 63/206/47 62/207/47
f 9/49/16 2/52/16 70/51/16 68/50/16
f 5/57/18 12/60/18 64/59/18 62/58/18
f 1/208/62 6/209/62 61/210/62 71/211/62
f 70/212/63 72/213/63 69/214/63 68/215/63
f 61/216/64 63/217/64 72/218/64 71/219/64
f 66/220/65 69/221/65 72/222/65 63/223/65
f 70/224/66 2/225/66 71/226/66
f 71/227/67 2/228/67 1/229/67
f 67/199/46 7/198/46 9/230/46 68/231/46
f 32/232/68 39/233/68 52/234/68
f 28/141/60 27/88/60 59/89/60 50/142/60
f 39/233/62 43/235/62 55/236/62 52/234/62
f 53/237/63 57/238/63 60/239/63 58/240/63
f 56/241/65 51/242/65 60/243/65 57/244/65
f 42/162/18 40/165/18 49/164/18 54/163/18
f 59/245/69 60/246/69 51/247/69 50/248/69
f 55/236/70 43/235/70 54/249/70
f 49/164/71 40/165/71 28/141/71 50/142/71
