# Blender 4.0.2
# www.blender.org
mtllib zadeldak_roof_side_small_4500.mtl
o zadeldak_roof_side_small_4500
v 0.019090 1.470304 -0.000850
v 0.020090 1.471804 -0.000020
v 0.019090 1.470304 0.000880
v 0.001090 1.470304 0.000880
v 0.000090 1.471805 -0.000020
v 0.001090 1.470304 -0.000850
v 0.019090 1.664244 -0.000850
v 0.019090 1.664244 0.000850
v 0.020090 1.663745 -0.000020
v 0.001090 1.664244 0.000880
v 0.001090 1.664244 -0.000850
v 0.000090 1.663744 0.000020
v 0.001090 0.032728 2.490844
v 0.001090 0.033228 2.491704
v 0.000090 0.033957 2.490704
v 0.000090 0.225588 2.490704
v 0.001090 0.225168 2.491704
v 0.001090 0.226667 2.490844
v 0.019090 0.226667 2.490844
v 0.019090 0.225168 2.491704
v 0.020090 0.225588 2.490704
v 0.020090 0.033957 2.490704
v 0.019090 0.033228 2.491704
v 0.019090 0.032728 2.490844
v 0.000090 0.225587 -2.490704
v 0.001090 0.225167 -2.491704
v 0.001090 0.033227 -2.491704
v 0.000090 0.033956 -2.490704
v 0.001090 0.226666 -2.490844
v -0.229850 1.664244 0.000880
v -0.000910 1.664244 0.000850
v -0.000910 1.664245 -0.000850
v -0.229850 1.664244 -0.000850
v 0.019090 0.226666 -2.490844
v 0.019090 0.225167 -2.491704
v 0.000090 1.663745 -0.000020
v 0.000106 0.225584 2.490704
v 0.000106 0.207894 2.490704
v 0.000090 1.645744 -0.000020
v 0.001090 0.032727 -2.490844
v -0.000894 0.226664 2.490844
v -0.230834 0.225583 -2.490704
v -0.230850 1.663744 0.000020
v -0.229834 0.226666 -2.490844
v -0.229834 0.206667 2.490844
v -0.000894 0.206667 2.490845
v -0.000894 0.207164 2.491704
v -0.229834 0.207164 2.491704
v -0.000910 1.644244 0.000880
v -0.000910 1.644245 -0.000880
v -0.229850 1.644244 0.000880
v -0.230850 1.645744 -0.000020
v -0.229850 1.644244 -0.000850
v -0.230834 0.207894 2.490704
v -0.230834 0.225584 2.490704
v -0.229834 0.225164 2.491704
v -0.229834 0.226667 2.490844
v -0.000894 0.225164 2.491704
v -0.229834 0.225163 -2.491704
v -0.000894 0.226663 -2.490844
v 0.000106 0.225583 -2.490704
v -0.000894 0.225163 -2.491704
v -0.229834 0.206666 -2.490844
v -0.230834 0.207893 -2.490704
v -0.229834 0.207163 -2.491704
v -0.000894 0.207163 -2.491704
v -0.000894 0.206666 -2.490845
v 0.020090 0.033956 -2.490704
v 0.019090 0.032727 -2.490844
v 0.019090 0.033227 -2.491704
v 0.000106 0.207893 -2.490704
v 0.020090 0.225587 -2.490704
vn 0.8320 -0.5547 -0.0000
vn -0.8322 -0.5544 -0.0000
vn 0.4466 0.8948 -0.0000
vn -0.4472 0.8944 -0.0000
vn -0.7495 -0.5722 0.3329
vn -0.5499 0.4157 0.7244
vn 0.5499 0.4157 0.7244
vn 0.7495 -0.5722 0.3329
vn -0.7071 -0.0000 -0.7071
vn -0.6627 -0.6486 0.3744
vn -0.6825 0.6330 0.3655
vn -0.7051 -0.6141 -0.3545
vn -0.6476 -0.6599 -0.3810
vn 0.0004 0.8660 0.5000
vn -0.0000 0.4976 0.8674
vn -0.7071 -0.0000 0.7071
vn -0.0000 1.0000 -0.0000
vn 1.0000 -0.0000 -0.0000
vn -0.0000 -1.0000 -0.0000
vn -1.0000 -0.0000 -0.0000
vn -0.0000 -0.8660 -0.5000
vn -0.5498 0.4159 -0.7244
vn 0.7071 -0.0000 0.7071
vn -0.0000 -0.8645 0.5026
vn -0.0000 -0.0000 1.0000
vn -0.0000 1.0000 0.0003
vn -0.0000 0.4976 -0.8674
vn -0.7051 -0.6141 0.3545
vn 0.6834 0.6322 0.3650
vn 0.6833 0.6323 0.3651
vn -0.6841 0.6316 -0.3647
vn 0.7051 -0.6141 -0.3545
vn -0.0000 -0.8656 0.5007
vn 0.6472 -0.6602 -0.3812
vn 0.4467 0.8947 0.0005
vn 0.8319 -0.5549 -0.0003
vn -0.8320 -0.5547 -0.0000
vn 0.7496 -0.5729 0.3315
vn -0.7495 -0.5732 0.3313
vn -0.5504 0.4147 0.7247
vn 0.5500 0.4156 0.7245
vn -0.5504 0.4148 -0.7245
vn -0.6834 0.6322 -0.3650
vn -0.7494 -0.5724 -0.3328
vn -0.0000 -1.0000 -0.0003
vn 0.5500 0.4154 -0.7245
vn -0.7494 -0.5734 -0.3311
vn -0.0000 -0.8657 -0.5005
vn 0.7043 -0.6148 -0.3549
vn 0.6471 -0.6602 -0.3812
vn -0.0000 0.8660 0.5000
vn 0.6797 0.6352 -0.3668
vn -0.6831 0.6324 0.3652
vn 0.6555 -0.6540 0.3776
vn 0.7494 -0.5724 -0.3328
vn -0.7045 -0.6146 -0.3549
vn -0.0000 0.8660 -0.5000
vn -0.0000 -0.8660 0.5000
vn -0.0000 0.4970 0.8678
vn -0.6472 -0.6602 -0.3811
vn 0.7043 -0.6148 0.3549
vn 0.5498 0.4159 -0.7244
vn 0.7496 -0.5730 -0.3314
vn 0.7071 -0.0000 -0.7071
vn -0.0000 -0.0000 -1.0000
vn -0.7045 -0.6147 0.3549
vn -0.0000 0.4970 -0.8678
vn -0.6623 -0.6489 0.3746
vn -0.0000 -0.8645 -0.5026
vn 0.6794 0.6355 -0.3669
vn 0.7051 -0.6141 0.3545
vn 0.6623 -0.6489 0.3746
vt -0.001772 0.999513
vt -0.002232 0.999772
vt -0.001742 0.999973
vt 0.059217 0.712018
vt 0.059347 0.711497
vt 0.058857 0.711718
vt 0.123980 0.027630
vt 0.124330 0.027310
vt 0.123950 0.027250
vt 0.063140 0.716150
vt 0.063120 0.716620
vt 0.063430 0.716400
vt 0.186647 0.158142
vt 0.186418 0.158082
vt 0.186288 0.158469
vt 0.235553 -0.006657
vt 0.235606 -0.006657
vt 0.236007 -0.006717
vt 0.236404 0.015936
vt 0.236002 0.015937
vt 0.235954 0.015936
vt 0.162649 -0.133076
vt 0.162847 -0.132729
vt 0.163071 -0.132820
vt 0.043694 0.068515
vt 0.043740 0.068321
vt 0.095257 0.069425
vt 0.095127 0.069619
vt 0.244084 0.980119
vt 0.257804 0.980939
vt 0.282907 0.218032
vt 0.000500 0.998270
vt 0.025301 0.235309
vt 0.039364 0.235861
vt 0.015140 0.998590
vt 0.260115 0.980533
vt 0.284338 0.217796
vt 0.298961 0.218444
vt 0.242842 0.979824
vt 0.281691 0.217736
vt 0.256562 0.980645
vt 0.048858 0.236155
vt 0.025360 0.998910
vt 0.280845 0.004359
vt 0.280464 -0.000465
vt 0.280060 -0.000435
vt 0.280442 0.004389
vt 0.124500 0.027740
vt 0.128960 0.025980
vt 0.128790 0.025550
vt 0.039990 0.999500
vt 0.062752 0.236481
vt 0.031638 0.210147
vt 0.008827 0.973124
vt 0.048810 0.716580
vt 0.053260 0.718350
vt 0.053440 0.717930
vt 0.048980 0.716150
vt 0.033256 0.973891
vt 0.058171 0.210974
vt 0.025479 0.235314
vt 0.016404 0.972978
vt 0.039907 0.210225
vt 0.049918 0.210541
vt 0.025699 0.973278
vt 0.086509 -0.036216
vt 0.035936 -0.026906
vt 0.036012 -0.026725
vt 0.086670 -0.036049
vt 0.269974 0.005497
vt 0.269556 0.000649
vt 0.269330 0.000664
vt 0.269748 0.005512
vt 0.024176 0.037115
vt 0.075024 0.031079
vt 0.074454 0.026309
vt 0.023606 0.032345
vt 0.038680 0.760080
vt 0.065170 0.703250
vt 0.065160 0.703240
vt 0.038660 0.760070
vt 0.029090 0.001960
vt 0.024195 0.774818
vt 0.013026 0.779614
vt 0.018360 0.002800
vt 0.259687 0.980564
vt 0.298509 0.218478
vt 0.283911 0.217828
vt 0.039880 0.009180
vt 0.035472 0.774458
vt 0.024060 0.774817
vt 0.062929 0.236487
vt 0.014320 0.778601
vt 0.017710 0.003420
vt 0.006870 0.007440
vt 0.002888 0.773820
vt -0.208945 0.202672
vt -0.194320 0.202932
vt -0.231559 0.965655
vt 0.270642 0.891170
vt 0.300631 0.834606
vt 0.300052 0.834331
vt 0.270054 0.890895
vt -0.177157 0.203336
vt -0.200653 0.966088
vt -0.214395 0.966060
vt 0.065280 0.703000
vt 0.063840 0.703250
vt 0.063820 0.703240
vt 0.063950 0.703000
vt 0.038550 0.760320
vt 0.037210 0.760360
vt 0.037090 0.760600
vt 0.037200 0.760350
vt 0.277599 0.550950
vt 0.277420 0.551668
vt 0.278099 0.551820
vt 0.032599 1.055738
vt 0.032109 1.055403
vt 0.031740 1.056014
vt -0.312897 0.783570
vt -0.312398 0.783128
vt -0.313305 0.782837
vt -0.144019 0.470906
vt -0.143286 0.471409
vt -0.143252 0.470730
vt -0.176021 0.941617
vt -0.169539 0.943294
vt -0.169049 0.942760
vt -0.175644 0.941055
vt 0.186647 0.158143
vt 0.186289 0.158470
vt 0.186418 0.158083
vt 0.013158 0.779557
vt 0.002111 0.784217
vt 0.001982 0.785582
vt 0.007510 0.013800
vt 0.035459 0.792814
vt 0.040230 0.022310
vt 0.047129 0.471848
vt 0.041699 0.468403
vt 0.041548 0.469027
vt 0.047073 0.472533
vt -0.080987 0.729752
vt -0.054384 0.673739
vt -0.060348 0.671221
vt -0.086902 0.727151
vt 0.162846 -0.132729
vt 0.028680 0.008540
vt 0.025001 0.789971
vt 0.014182 0.778553
vt 0.025334 0.792864
vt -0.245999 0.581263
vt -0.273169 0.637042
vt -0.272357 0.637420
vt -0.245183 0.581617
vt 0.024863 0.789805
vt 0.269975 0.005497
vt -0.208943 0.202672
vt -0.194318 0.202932
vt -0.178372 0.203552
vt -0.215609 0.966274
vt -0.201869 0.966306
s 0
f 1/1/1 2/2/1 3/3/1
f 4/4/2 5/5/2 6/6/2
f 7/7/3 8/8/3 9/9/3
f 10/10/4 11/11/4 12/12/4
f 13/13/5 14/14/5 15/15/5
f 16/16/6 17/17/6 18/18/6
f 19/19/7 20/20/7 21/21/7
f 22/22/8 23/23/8 24/24/8
f 25/25/9 26/26/9 27/27/9 28/28/9
f 6/29/10 5/30/10 28/31/10
f 12/32/11 16/33/11 18/34/11 10/35/11
f 4/36/12 13/37/12 15/38/12
f 4/39/13 15/40/13 5/41/13
f 10/35/14 18/34/14 19/42/14 8/43/14
f 19/44/15 18/45/15 17/46/15 20/47/15
f 16/25/16 15/28/16 14/27/16 17/26/16
f 7/48/17 11/49/17 10/50/17 8/8/17
f 9/51/18 21/52/18 22/53/18 2/54/18
f 3/55/19 4/56/19 6/57/19 1/58/19
f 5/59/20 15/60/20 16/61/20 12/32/20
f 3/62/21 24/63/21 13/64/21 4/65/21
f 25/16/22 29/18/22 26/17/22
f 22/66/23 21/67/23 20/68/23 23/69/23
f 13/70/24 24/71/24 23/72/24 14/73/24
f 17/74/25 14/75/25 23/76/25 20/77/25
f 30/78/26 31/79/26 32/80/26 33/81/26
f 34/44/27 35/47/27 26/46/27 29/45/27
f 36/82/18 37/83/18 38/84/18 39/85/18
f 6/86/28 28/87/28 40/88/28
f 31/89/29 41/90/29 37/91/29 36/82/29
f 19/42/30 21/92/30 9/51/30 8/43/30
f 42/93/31 43/94/31 33/95/31 44/96/31
f 22/97/32 24/98/32 2/99/32
f 45/100/33 46/101/33 47/102/33 48/103/33
f 24/104/34 3/105/34 2/106/34
f 32/80/35 31/79/35 36/107/35
f 49/108/36 50/109/36 39/110/36
f 33/81/4 43/111/4 30/78/4
f 51/112/37 52/113/37 53/114/37
f 38/115/38 47/116/38 46/117/38
f 45/118/39 48/119/39 54/120/39
f 55/121/40 56/122/40 57/123/40
f 41/124/41 58/125/41 37/126/41
f 42/121/42 44/123/42 59/122/42
f 12/32/43 11/35/43 29/34/43 25/33/43
f 55/127/16 54/128/16 48/129/16 56/130/16
f 40/131/44 28/132/44 27/133/44
f 49/108/45 51/112/45 53/114/45 50/109/45
f 60/124/46 61/126/46 62/125/46
f 63/118/47 64/120/47 65/119/47
f 63/100/48 65/103/48 66/102/48 67/101/48
f 39/85/49 38/134/49 46/135/49
f 39/85/50 46/136/50 49/137/50
f 30/95/51 57/96/51 41/90/51 31/89/51
f 32/89/52 36/82/52 61/91/52 60/90/52
f 49/137/21 46/136/21 45/138/21 51/139/21
f 55/93/53 57/96/53 30/95/53 43/94/53
f 38/140/23 37/141/23 58/142/23 47/143/23
f 39/85/54 50/137/54 67/136/54
f 48/144/25 47/145/25 58/146/25 56/147/25
f 68/22/55 69/24/55 70/148/55
f 52/149/20 54/150/20 55/151/20 43/94/20
f 45/138/56 54/152/56 51/139/56
f 33/95/57 32/89/57 60/90/57 44/96/57
f 50/137/58 53/139/58 63/138/58 67/136/58
f 41/153/59 57/154/59 56/155/59 58/156/59
f 54/157/60 52/149/60 51/139/60
f 36/82/18 39/85/18 71/84/18 61/83/18
f 39/85/61 67/135/61 71/134/61
f 34/19/62 72/21/62 35/20/62
f 11/35/57 7/43/57 34/42/57 29/34/57
f 71/115/63 67/117/63 66/116/63
f 42/127/9 59/130/9 65/129/9 64/128/9
f 71/140/64 66/143/64 62/142/64 61/141/64
f 65/144/65 59/147/65 62/146/65 66/145/65
f 52/149/20 43/94/20 42/151/20 64/150/20
f 63/138/66 53/139/66 64/152/66
f 60/153/67 62/156/67 59/155/67 44/154/67
f 64/157/68 53/139/68 52/149/68
f 9/51/18 2/54/18 68/53/18 72/52/18
f 5/59/20 12/32/20 25/61/20 28/60/20
f 1/62/58 6/65/58 40/64/58 69/63/58
f 68/66/64 70/69/64 35/68/64 72/67/64
f 40/158/69 27/73/69 70/72/69 69/71/69
f 26/74/65 35/77/65 70/76/65 27/75/65
f 34/42/70 7/43/70 9/51/70 72/92/70
f 68/159/71 2/99/71 69/160/71
f 69/161/72 2/162/72 1/163/72
