# Blender 4.0.2
# www.blender.org
mtllib zadeldak_roof_side_small_2000.mtl
o zadeldak_roof_side_small_2000
v -0.114930 0.953805 0.000870
v -0.115284 0.237326 1.241865
v 0.113656 0.237326 1.241865
v 0.114010 0.953805 0.000870
v 0.116010 0.953815 0.000870
v 0.115643 0.237331 1.241865
v 0.133650 0.237330 1.241865
v 0.134010 0.953815 0.000870
v 0.115010 0.953305 -0.000000
v 0.114010 0.933805 0.000870
v 0.115010 0.935305 -0.000000
v -0.115930 0.953305 -0.000000
v -0.114930 0.933805 0.000870
v -0.115930 0.935305 -0.000000
v 0.114656 0.218556 1.241735
v 0.113656 0.217816 1.242725
v 0.113656 0.217327 1.241865
v -0.115284 0.217326 1.241865
v -0.115284 0.217816 1.242725
v -0.116284 0.218556 1.241725
v -0.116284 0.236246 1.241725
v -0.115284 0.235826 1.242725
v 0.113656 0.235826 1.242725
v 0.114656 0.236246 1.241725
v 0.135010 0.761374 -0.000000
v 0.134010 0.759875 0.000870
v 0.116010 0.759875 0.000870
v 0.115010 0.761374 -0.000000
v 0.135010 0.953315 -0.000000
v 0.115010 0.953315 -0.000000
v 0.115643 0.043391 1.241864
v 0.115643 0.043891 1.242724
v 0.114643 0.044487 1.241865
v 0.114653 0.236251 1.241724
v 0.115643 0.235831 1.242725
v 0.133653 0.235831 1.242725
v 0.134643 0.236251 1.241724
v 0.134643 0.044621 1.241724
v 0.133653 0.043891 1.242724
v 0.133650 0.043391 1.241865
v -0.114930 0.933805 -0.000000
v 0.114010 0.933805 -0.000000
v 0.134010 0.953815 -0.000000
v 0.116010 0.953815 -0.000000
v 0.114010 0.953805 -0.000000
v -0.114930 0.953805 -0.000000
v 0.134010 0.759875 -0.000000
v 0.116010 0.759875 -0.000000
v -0.114930 0.953805 -0.000870
v -0.115284 0.237326 -1.241865
v 0.113656 0.237326 -1.241865
v 0.114010 0.953805 -0.000870
v 0.116010 0.953815 -0.000870
v 0.115643 0.237331 -1.241865
v 0.133650 0.237330 -1.241865
v 0.134010 0.953815 -0.000870
v 0.114010 0.933805 -0.000870
v -0.114930 0.933805 -0.000870
v 0.114656 0.218556 -1.241735
v 0.113656 0.217816 -1.242725
v 0.113656 0.217327 -1.241865
v -0.115284 0.217326 -1.241865
v -0.115284 0.217816 -1.242725
v -0.116284 0.218556 -1.241725
v -0.116284 0.236246 -1.241725
v -0.115284 0.235826 -1.242725
v 0.113656 0.235826 -1.242725
v 0.114656 0.236246 -1.241725
v 0.134010 0.759875 -0.000870
v 0.116010 0.759875 -0.000870
v 0.115643 0.043391 -1.241864
v 0.115643 0.043891 -1.242724
v 0.114643 0.044487 -1.241865
v 0.114653 0.236251 -1.241724
v 0.115643 0.235831 -1.242725
v 0.133653 0.235831 -1.242725
v 0.134643 0.236251 -1.241724
v 0.134643 0.044621 -1.241724
v 0.133653 0.043891 -1.242724
v 0.133650 0.043391 -1.241865
vn -0.0000 0.8660 0.5000
vn -0.0000 1.0000 -0.0000
vn 0.4472 0.8944 -0.0000
vn -0.4472 0.8944 -0.0000
vn 0.7498 -0.5752 0.3272
vn -0.7512 -0.5733 0.3271
vn -0.5501 0.4153 0.7245
vn 0.5501 0.4152 0.7245
vn -0.0000 0.4974 0.8675
vn 0.7070 -0.6126 -0.3534
vn 0.6539 -0.6553 -0.3782
vn -1.0000 -0.0000 -0.0003
vn 0.8319 -0.5550 -0.0000
vn -0.8319 -0.5550 -0.0000
vn 0.4472 0.8945 -0.0000
vn -0.6876 -0.6277 0.3650
vn -0.5545 0.4138 0.7220
vn 0.5537 0.4152 0.7218
vn 0.7528 -0.5701 0.3292
vn -0.6886 -0.6279 -0.3627
vn -0.6536 -0.6554 -0.3786
vn -0.0000 -0.0000 1.0000
vn -0.0000 -0.8643 0.5029
vn -0.0000 -0.8660 -0.5000
vn 1.0000 -0.0000 0.0003
vn -0.6827 0.0003 0.7307
vn -0.0000 0.4975 0.8674
vn 0.7053 0.0002 0.7089
vn 0.6836 0.6319 0.3651
vn -0.0000 -0.8691 0.4947
vn -0.6855 0.6306 0.3639
vn 0.7108 -0.0000 0.7034
vn -0.0000 -1.0000 -0.0000
vn -0.7071 -0.0000 0.7071
vn -0.7053 -0.6138 -0.3546
vn 0.6848 0.6310 0.3645
vn -0.6537 -0.6554 -0.3785
vn -0.6836 0.6321 0.3648
vn 0.7078 -0.6119 -0.3530
vn 0.6539 -0.6553 -0.3781
vn -0.0000 0.8660 -0.5000
vn 0.7497 -0.5753 -0.3272
vn -0.7513 -0.5732 -0.3271
vn -0.5501 0.4152 -0.7245
vn 0.5501 0.4153 -0.7245
vn -0.0000 0.4974 -0.8675
vn 0.7070 -0.6126 0.3534
vn 0.6539 -0.6553 0.3782
vn -1.0000 -0.0000 0.0003
vn 0.8318 -0.5550 -0.0000
vn -0.4471 0.8945 -0.0000
vn -0.6876 -0.6277 -0.3650
vn -0.5545 0.4138 -0.7220
vn 0.5538 0.4151 -0.7219
vn 0.7528 -0.5700 -0.3292
vn -0.6886 -0.6279 0.3627
vn -0.6535 -0.6554 0.3786
vn -0.0000 -0.0000 -1.0000
vn -0.0000 -0.8644 -0.5028
vn -0.0000 -0.8660 0.5000
vn 1.0000 -0.0000 -0.0003
vn -0.6827 0.0003 -0.7307
vn -0.0000 0.4975 -0.8675
vn 0.7053 0.0002 -0.7089
vn 0.6836 0.6319 -0.3651
vn -0.0000 -0.8691 -0.4946
vn -0.6855 0.6306 -0.3639
vn 0.7108 -0.0000 -0.7034
vn -0.7071 -0.0000 -0.7071
vn -0.7053 -0.6138 0.3546
vn 0.6848 0.6310 -0.3645
vn -0.6537 -0.6554 0.3785
vn -0.6836 0.6321 -0.3648
vn 0.7078 -0.6119 0.3530
vn 0.6539 -0.6553 0.3781
vt 1.260523 0.440954
vt 1.270705 0.002166
vt 1.200601 0.000561
vt 1.190423 0.439354
vt 0.992318 1.791706
vt 1.424575 1.806086
vt 1.424681 1.800663
vt 0.992398 1.786296
vt 0.992133 1.786271
vt 0.992073 1.791716
vt 0.037666 0.054527
vt 0.037932 0.054527
vt 0.037661 0.054187
vt 0.037666 0.044694
vt 0.037671 0.045044
vt 0.037931 0.044694
vt 0.039801 0.090042
vt 0.040302 0.090087
vt 0.040235 0.089797
vt 0.080525 0.071122
vt 0.080604 0.070827
vt 0.080146 0.070862
vt 0.056471 0.045044
vt 0.056897 0.044908
vt 0.056470 0.044580
vt 0.018540 0.018966
vt 0.018966 0.018656
vt 0.018539 0.018521
vt 0.093468 1.540967
vt 0.144614 1.492908
vt 0.144252 1.492514
vt 0.093117 1.540583
vt 0.995325 1.798783
vt 1.434035 1.818341
vt 1.434284 1.817917
vt 0.995805 1.798403
vt 0.551879 1.813209
vt 0.990723 1.796987
vt 0.987837 1.792392
vt 0.548939 1.808539
vt 0.027931 0.017822
vt 0.028449 0.018966
vt 0.027849 0.016917
vt 0.004141 0.004741
vt 0.004741 0.002691
vt 0.004220 0.003840
vt 0.992238 1.785916
vt 0.992118 1.792066
vt 0.030787 0.018966
vt 0.030819 0.018615
vt 0.030428 0.018523
vt 0.044640 0.040257
vt 0.045044 0.040302
vt 0.044953 0.039865
vt 0.035170 0.042196
vt 0.035172 0.042673
vt 0.035561 0.042504
vt 0.007112 0.025578
vt 0.006667 0.025769
vt 0.006767 0.026078
vt 0.001500 1.822735
vt 0.433841 1.834936
vt 0.433689 1.834517
vt 0.302734 1.823155
vt 0.734923 1.834936
vt 0.302294 1.822745
vt 0.053153 1.721606
vt 0.001721 1.769257
vt 0.005466 1.773297
vt 0.056897 1.725646
vt 0.018238 0.071122
vt 0.023707 0.070598
vt 0.023691 0.070359
vt 0.018221 0.070881
vt 0.266602 0.681865
vt 0.244925 1.120240
vt 0.314965 1.123720
vt 0.336642 0.685345
vt 1.545708 0.462290
vt 1.540712 0.029530
vt 1.490292 0.001186
vt 1.495204 0.433902
vt 0.135466 0.000510
vt 0.141844 0.059159
vt 0.142243 0.059268
vt 0.135884 0.000555
vt 0.011799 0.067684
vt 0.006388 0.068238
vt 0.006442 0.068751
vt 0.011854 0.068198
vt 0.027955 0.004794
vt 0.024988 0.009349
vt 0.025431 0.009483
vt 0.028449 0.004845
vt 1.002087 1.625772
vt 1.440850 1.645278
vt 1.443767 1.640706
vt 1.005057 1.621122
vt 1.329934 1.794049
vt 1.768409 1.813599
vt 1.768556 1.813172
vt 1.329794 1.793639
vt 0.409205 1.032382
vt 0.400991 1.465104
vt 0.451639 1.437092
vt 0.459919 1.004380
vt 0.821608 1.810888
vt 1.253950 1.823082
vt 1.254110 1.817651
vt 0.821768 1.805458
vt 0.056691 1.611390
vt 0.004299 1.659270
vt 0.004507 1.659503
vt 0.056897 1.611623
vt 1.424668 1.806487
vt 0.135131 0.073234
vt 0.128512 0.015621
vt 0.128116 0.015779
vt 0.134750 0.073492
vt 0.008027 0.061639
vt 0.056897 0.011349
vt 0.056707 0.011164
vt 0.007842 0.061454
vt 0.008438 0.028619
vt 0.011354 0.033190
vt 0.011854 0.033156
vt 0.008885 0.028502
vt 0.111577 1.609047
vt 0.117911 1.666615
vt 0.123277 1.666019
vt 0.116943 1.608451
vt 0.990960 1.797393
vt 0.552349 1.813599
vt 1.424802 1.800246
vt 0.987692 1.791981
vt 0.549079 1.808129
vt 0.003396 0.056897
vt 0.052156 0.006497
vt 0.051966 0.006312
vt 0.003206 0.056712
vt 1.806259 1.820712
vt 1.806487 1.820290
vt 1.373687 1.808477
vt 1.690322 1.830194
vt 1.257982 1.817993
vt 1.257522 1.818383
vt 0.035481 0.084227
vt 0.035481 0.087717
vt 0.035561 0.086817
vt 0.035561 0.085132
vt 0.907286 1.356051
vt 0.837186 1.354451
vt 0.847364 0.915658
vt 0.917468 0.917263
vt 0.001870 0.054482
vt 0.002304 0.054237
vt 0.002371 0.054527
vt 0.054448 0.004741
vt 0.054069 0.004481
vt 0.054527 0.004446
vt 0.035135 0.061639
vt 0.035134 0.061175
vt 0.035561 0.061503
vt 0.025652 0.028449
vt 0.025651 0.028004
vt 0.026078 0.028139
vt 0.185926 1.481699
vt 0.185575 1.481315
vt 0.236710 1.433246
vt 0.237072 1.433640
vt 1.049852 1.796412
vt 1.488811 1.815546
vt 1.488562 1.815970
vt 1.050332 1.796032
vt 0.071090 0.007112
vt 0.070731 0.006669
vt 0.071122 0.006761
vt 0.013820 0.090042
vt 0.014133 0.089650
vt 0.014224 0.090087
vt 0.009092 0.065903
vt 0.009483 0.066211
vt 0.009094 0.066380
vt 0.014224 0.006612
vt 0.013879 0.007112
vt 0.013779 0.006803
vt 0.302582 1.820364
vt 0.734771 1.832146
vt 0.734923 1.832565
vt 1.258133 1.820784
vt 1.257693 1.820374
vt 1.690322 1.832565
vt 0.053153 1.662338
vt 0.056897 1.666378
vt 0.005466 1.714029
vt 0.001721 1.709989
vt 0.018238 0.073492
vt 0.018221 0.073251
vt 0.023691 0.072729
vt 0.023707 0.072968
vt 0.193110 0.710314
vt 0.263150 0.713794
vt 0.241473 1.152169
vt 0.171433 1.148689
vt 0.137837 0.000510
vt 0.138255 0.000555
vt 0.144614 0.059268
vt 0.144215 0.059159
vt 0.042618 0.046347
vt 0.042673 0.046861
vt 0.037261 0.047414
vt 0.037207 0.046901
vt 0.027955 0.009535
vt 0.028449 0.009586
vt 0.025431 0.014224
vt 0.024988 0.014090
vt 0.995662 1.796420
vt 0.995522 1.796010
vt 1.434284 1.815543
vt 1.434137 1.815970
vt 0.302421 1.818001
vt 0.302581 1.812571
vt 0.734923 1.824764
vt 0.734763 1.830195
vt 0.056691 1.552122
vt 0.056897 1.552355
vt 0.004507 1.600235
vt 0.004299 1.600002
vt 0.137502 0.073234
vt 0.137121 0.073492
vt 0.130487 0.015779
vt 0.130883 0.015621
vt 0.029774 0.000170
vt 0.030221 0.000053
vt 0.033190 0.004707
vt 0.032690 0.004741
vt 0.113948 1.549779
vt 0.119314 1.549183
vt 0.125648 1.606751
vt 0.120282 1.607347
vt 1.173277 1.823082
vt 0.740705 1.810847
vt 1.173506 1.822660
vt 0.433841 1.832565
vt 0.001041 1.820754
vt 0.001501 1.820364
s 0
usemtl wood
f 1/1/1 2/2/1 3/3/1 4/4/1
f 5/5/1 6/6/1 7/7/1 8/8/1
f 43/9/2 44/10/2 5/5/2 8/8/2
f 45/11/3 4/12/3 9/13/3
f 46/14/4 12/15/4 1/16/4
f 15/17/5 16/18/5 17/19/5
f 18/20/6 19/21/6 20/22/6
f 21/23/7 22/24/7 2/25/7
f 3/26/8 23/27/8 24/28/8
f 3/29/9 2/30/9 22/31/9 23/32/9
f 11/33/10 15/34/10 17/35/10
f 11/33/11 17/35/11 10/36/11
f 14/37/12 20/38/12 21/39/12 12/40/12
f 47/41/13 25/42/13 26/43/13
f 27/44/14 28/45/14 48/46/14
f 43/9/15 8/8/15 29/47/15
f 5/5/4 44/10/4 30/48/4
f 31/49/16 32/50/16 33/51/16
f 34/52/17 35/53/17 6/54/17
f 7/55/18 36/56/18 37/57/18
f 38/58/19 39/59/19 40/60/19
f 27/61/20 31/62/20 33/63/20
f 27/64/21 33/65/21 28/66/21
f 19/67/22 16/68/22 23/69/22 22/70/22
f 31/71/23 40/72/23 39/73/23 32/74/23
f 10/75/24 17/76/24 18/77/24 13/78/24
f 29/79/25 37/80/25 38/81/25 25/82/25
f 34/83/26 33/84/26 32/85/26 35/86/26
f 7/87/27 6/88/27 35/89/27 36/90/27
f 15/91/28 24/92/28 23/93/28 16/94/28
f 9/95/25 24/96/25 15/97/25 11/98/25
f 4/99/29 3/100/29 24/101/29 9/102/29
f 28/103/12 33/104/12 34/105/12 30/106/12
f 26/107/24 40/108/24 31/109/24 27/110/24
f 18/111/30 17/112/30 16/113/30 19/114/30
f 30/48/31 34/115/31 6/6/31 5/5/31
f 38/116/32 37/117/32 36/118/32 39/119/32
f 10/120/33 13/121/33 41/122/33 42/123/33
f 21/124/34 20/125/34 19/126/34 22/127/34
f 35/128/22 32/129/22 39/130/22 36/131/22
f 18/132/35 20/38/35 13/133/35
f 7/7/36 37/134/36 29/47/36 8/8/36
f 20/38/37 14/37/37 13/133/37
f 21/39/38 2/135/38 1/136/38 12/40/38
f 1/137/2 4/138/2 45/139/2 46/140/2
f 38/141/39 40/142/39 25/143/39
f 40/144/40 26/145/40 25/146/40
f 26/147/33 27/148/33 48/149/33 47/150/33
f 49/151/41 52/152/41 51/153/41 50/154/41
f 53/5/41 56/8/41 55/7/41 54/6/41
f 43/9/2 56/8/2 53/5/2 44/10/2
f 45/11/3 9/13/3 52/12/3
f 46/14/4 49/16/4 12/15/4
f 59/155/42 61/156/42 60/157/42
f 62/158/43 64/159/43 63/160/43
f 65/161/44 50/162/44 66/163/44
f 51/164/45 68/165/45 67/166/45
f 51/167/46 67/168/46 66/169/46 50/170/46
f 11/171/47 61/172/47 59/173/47
f 11/171/48 57/174/48 61/172/48
f 14/37/49 12/40/49 65/39/49 64/38/49
f 47/41/50 69/43/50 25/42/50
f 70/44/14 48/46/14 28/45/14
f 43/9/15 29/47/15 56/8/15
f 53/5/51 30/48/51 44/10/51
f 71/175/52 73/176/52 72/177/52
f 74/178/53 54/179/53 75/180/53
f 55/181/54 77/182/54 76/183/54
f 78/184/55 80/185/55 79/186/55
f 70/187/56 73/188/56 71/189/56
f 70/190/57 28/191/57 73/192/57
f 63/193/58 66/194/58 67/195/58 60/196/58
f 71/197/59 72/198/59 79/199/59 80/200/59
f 57/201/60 58/202/60 62/203/60 61/204/60
f 29/79/61 25/82/61 78/81/61 77/80/61
f 74/205/62 75/206/62 72/207/62 73/208/62
f 55/209/63 76/210/63 75/211/63 54/212/63
f 59/213/64 60/214/64 67/215/64 68/216/64
f 9/95/61 11/98/61 59/97/61 68/96/61
f 52/217/65 9/218/65 68/219/65 51/220/65
f 28/103/49 30/106/49 74/105/49 73/104/49
f 69/221/60 70/222/60 71/223/60 80/224/60
f 62/225/66 63/226/66 60/227/66 61/228/66
f 30/48/67 53/5/67 54/6/67 74/115/67
f 78/229/68 79/230/68 76/231/68 77/232/68
f 57/120/33 42/123/33 41/122/33 58/121/33
f 65/233/69 66/234/69 63/235/69 64/236/69
f 75/237/58 76/238/58 79/239/58 72/240/58
f 62/132/70 58/133/70 64/38/70
f 55/7/71 56/8/71 29/47/71 77/134/71
f 64/38/72 58/133/72 14/37/72
f 65/39/73 12/40/73 49/136/73 50/135/73
f 49/137/2 46/140/2 45/139/2 52/138/2
f 78/241/74 25/242/74 80/243/74
f 80/244/75 25/245/75 69/246/75
f 69/147/33 47/150/33 48/149/33 70/148/33
