o profile_canopy_perimeter
usemtl Material
v 0.0005 0.06480199843645096 -0.0020000000949949026
v 0.0005 0.06530199944972992 0
v 0.0005 0 0
v 0.0005 0.06480199843645096 -0.0020000000949949026
v 0.0005 0 0
v 0.0005 0 -0.0020000000949949026
v -0.0005 0.06480199843645096 -0.06620000302791595
v -0.0005 0.06574299931526184 -0.06808900088071823
v -0.0005 -0.014929999597370625 -0.14902600646018982
v -0.0005 0.06480199843645096 -0.06620000302791595
v -0.0005 -0.014929999597370625 -0.14902600646018982
v -0.0005 -0.014929999597370625 -0.1461929976940155
v -0.0005 0.06480199843645096 -0.0020000000949949026
v -0.0005 0.0668020024895668 -0.001500000013038516
v -0.0005 0.0668020024895668 -0.06552600115537643
v -0.0005 0.06480199843645096 -0.0020000000949949026
v -0.0005 0.0668020024895668 -0.06552600115537643
v -0.0005 0.06480199843645096 -0.06620000302791595
v -0.0005 0.06480199843645096 -0.06620000302791595
v 0.0005 0.06480199843645096 -0.06620000302791595
v 0.0005 0.06480199843645096 -0.0020000000949949026
v -0.0005 0.06480199843645096 -0.06620000302791595
v 0.0005 0.06480199843645096 -0.0020000000949949026
v -0.0005 0.06480199843645096 -0.0020000000949949026
v -0.0005 0.06480199843645096 -0.0020000000949949026
v 0.0005 0.06480199843645096 -0.0020000000949949026
v 0.0005 0 -0.0020000000949949026
v -0.0005 0.06480199843645096 -0.0020000000949949026
v 0.0005 0 -0.0020000000949949026
v -0.0005 0 -0.0020000000949949026
v -0.0005 0.06530199944972992 0
v -0.0005 0 0
v 0.0005 0 0
v -0.0005 0.06530199944972992 0
v 0.0005 0 0
v 0.0005 0.06530199944972992 0
v -0.0005 0.0668020024895668 -0.06552600115537643
v -0.0005 0.0668020024895668 -0.001500000013038516
v 0.0005 0.0668020024895668 -0.001500000013038516
v -0.0005 0.0668020024895668 -0.06552600115537643
v 0.0005 0.0668020024895668 -0.001500000013038516
v 0.0005 0.0668020024895668 -0.06552600115537643
v -0.0005 -0.014929999597370625 -0.14902600646018982
v -0.0005 0.06574299931526184 -0.06808900088071823
v 0.0005 0.06574399769306183 -0.06808900088071823
v -0.0005 -0.014929999597370625 -0.14902600646018982
v 0.0005 0.06574399769306183 -0.06808900088071823
v 0.0005 -0.014929000288248062 -0.14902600646018982
v 0.0005 0.06480199843645096 -0.06620000302791595
v 0.0005 0.0668020024895668 -0.06552600115537643
v 0.0005 0.0668020024895668 -0.001500000013038516
v 0.0005 0.06480199843645096 -0.06620000302791595
v 0.0005 0.0668020024895668 -0.001500000013038516
v 0.0005 0.06480199843645096 -0.0020000000949949026
v 0.0005 -0.014929000288248062 -0.1461929976940155
v 0.0005 -0.014929000288248062 -0.14902600646018982
v 0.0005 0.06574399769306183 -0.06808900088071823
v 0.0005 -0.014929000288248062 -0.1461929976940155
v 0.0005 0.06574399769306183 -0.06808900088071823
v 0.0005 0.06480199843645096 -0.06620000302791595
v -0.0005 -0.014929999597370625 -0.14902600646018982
v 0.0005 -0.014929000288248062 -0.14902600646018982
v 0.0005 -0.014929000288248062 -0.1461929976940155
v -0.0005 -0.014929999597370625 -0.14902600646018982
v 0.0005 -0.014929000288248062 -0.1461929976940155
v -0.0005 -0.014929999597370625 -0.1461929976940155
v 0.0005 0 0
v -0.0005 0 0
v -0.0005 0 -0.0020000000949949026
v 0.0005 0 0
v -0.0005 0 -0.0020000000949949026
v 0.0005 0 -0.0020000000949949026
v -0.0005 -0.014929999597370625 -0.1461929976940155
v 0.0005 -0.014929000288248062 -0.1461929976940155
v 0.0005 0.06480199843645096 -0.06620000302791595
v -0.0005 -0.014929999597370625 -0.1461929976940155
v 0.0005 0.06480199843645096 -0.06620000302791595
v -0.0005 0.06480199843645096 -0.06620000302791595
v -0.0005 0.06530199944972992 0
v -0.0005 0.0668020024895668 -0.001500000013038516
v -0.0005 0.06480199843645096 -0.0020000000949949026
v -0.0005 0.0668020024895668 -0.06552600115537643
v -0.0005 0.06574299931526184 -0.06808900088071823
v -0.0005 0.06480199843645096 -0.06620000302791595
v 0.0005 0.0668020024895668 -0.001500000013038516
v 0.0005 0.06530199944972992 0
v 0.0005 0.06480199843645096 -0.0020000000949949026
v 0.0005 0.06574399769306183 -0.06808900088071823
v 0.0005 0.0668020024895668 -0.06552600115537643
v 0.0005 0.06480199843645096 -0.06620000302791595
v -0.0005 0.0668020024895668 -0.06552600115537643
v 0.0005 0.0668020024895668 -0.06552600115537643
v 0.0005 0.06574399769306183 -0.06808900088071823
v -0.0005 0.0668020024895668 -0.06552600115537643
v 0.0005 0.06574399769306183 -0.06808900088071823
v -0.0005 0.06574299931526184 -0.06808900088071823
v -0.0005 0.06530199944972992 0
v 0.0005 0.06530199944972992 0
v 0.0005 0.0668020024895668 -0.001500000013038516
v -0.0005 0.06530199944972992 0
v 0.0005 0.0668020024895668 -0.001500000013038516
v -0.0005 0.0668020024895668 -0.001500000013038516
v -0.0005 0 0
v -0.0005 0.06530199944972992 0
v -0.0005 0.06480199843645096 -0.0020000000949949026
v -0.0005 0 0
v -0.0005 0.06480199843645096 -0.0020000000949949026
v -0.0005 0 -0.0020000000949949026
vt 0.10291700065135956 0.00044800000614486635
vt 0.10285700112581253 0.00003600000127335079
vt 0.11598300188779831 0.0013770000077784061
vt 0.10291700065135956 0.00044800000614486635
vt 0.11598300188779831 0.0013770000077784061
vt 0.11594200134277344 0.0017790000420063734
vt 0.10159900039434433 0.049995001405477524
vt 0.10137099772691727 0.04963500052690506
vt 0.11592499911785126 0.03170999884605408
vt 0.10159900039434433 0.049995001405477524
vt 0.11592499911785126 0.03170999884605408
vt 0.11598300188779831 0.032280001789331436
vt 0.10291700065135956 0.06289900094270706
vt 0.1025250032544136 0.06304100155830383
vt 0.10121099650859833 0.050172001123428345
vt 0.10291700065135956 0.06289900094270706
vt 0.10121099650859833 0.050172001123428345
vt 0.10159900039434433 0.049995001405477524
vt 0.0785520002245903 0.00003600000127335079
vt 0.0785520002245903 0.9999619722366333
vt 0.06571300327777863 0.9999619722366333
vt 0.0785520002245903 0.00003600000127335079
vt 0.06571300327777863 0.9999619722366333
vt 0.06571300327777863 0.00003600000127335079
vt 0.06571300327777863 0.00003600000127335079
vt 0.06571300327777863 0.9999619722366333
vt 0.05275300145149231 0.9999619722366333
vt 0.06571300327777863 0.00003600000127335079
vt 0.05275300145149231 0.9999619722366333
vt 0.05275300145149231 0.00003600000127335079
vt 0.038694001734256744 0.000037000001611886546
vt 0.05175299942493439 0.000037000001611886546
vt 0.05175299942493439 0.9999629855155945
vt 0.038694001734256744 0.000037000001611886546
vt 0.05175299942493439 0.9999629855155945
vt 0.038694001734256744 0.9999629855155945
vt 0.024890000000596046 0.000037000001611886546
vt 0.03769399970769882 0.000037000001611886546
vt 0.03769399970769882 0.9999629855155945
vt 0.024890000000596046 0.000037000001611886546
vt 0.03769399970769882 0.9999629855155945
vt 0.02488899976015091 0.9999629855155945
vt 0.0010359999723732471 0.000037000001611886546
vt 0.023889999836683273 0.000037000001611886546
vt 0.023889999836683273 0.9999639987945557
vt 0.0010359999723732471 0.000037000001611886546
vt 0.023889999836683273 0.9999639987945557
vt 0.0010359999723732471 0.9999629855155945
vt 0.10159900039434433 0.013353000394999981
vt 0.10121099650859833 0.013175999745726585
vt 0.1025250032544136 0.00030700000934302807
vt 0.10159900039434433 0.013353000394999981
vt 0.1025250032544136 0.00030700000934302807
vt 0.10291700065135956 0.00044800000614486635
vt 0.11598300188779831 0.031067999079823494
vt 0.11592499911785126 0.031638000160455704
vt 0.10137099772691727 0.01371300034224987
vt 0.11598300188779831 0.031067999079823494
vt 0.10137099772691727 0.01371300034224987
vt 0.10159900039434433 0.013353000394999981
vt 0.0010359999723732471 0.000037000001611886546
vt 0.0010359999723732471 0.9999629855155945
vt 0.00003600000127335079 0.9999639987945557
vt 0.0010359999723732471 0.000037000001611886546
vt 0.00003600000127335079 0.9999639987945557
vt 0.00003600000127335079 0.000037999998312443495
vt 0.05175299942493439 0.9999629855155945
vt 0.05175299942493439 0.000037000001611886546
vt 0.05275300145149231 0.00003600000127335079
vt 0.05175299942493439 0.9999629855155945
vt 0.05275300145149231 0.00003600000127335079
vt 0.05275300145149231 0.9999619722366333
vt 0.10113900154829025 0.00003600000127335079
vt 0.10113900154829025 0.9999629855155945
vt 0.0785520002245903 0.9999619722366333
vt 0.10113900154829025 0.00003600000127335079
vt 0.0785520002245903 0.9999619722366333
vt 0.0785520002245903 0.00003600000127335079
vt 0.10285700112581253 0.06331200152635574
vt 0.1025250032544136 0.06304100155830383
vt 0.10291700065135956 0.06289900094270706
vt 0.10121099650859833 0.050172001123428345
vt 0.10137099772691727 0.04963500052690506
vt 0.10159900039434433 0.049995001405477524
vt 0.1025250032544136 0.00030700000934302807
vt 0.10285700112581253 0.00003600000127335079
vt 0.10291700065135956 0.00044800000614486635
vt 0.10137099772691727 0.01371300034224987
vt 0.10121099650859833 0.013175999745726585
vt 0.10159900039434433 0.013353000394999981
vt 0.024890000000596046 0.000037000001611886546
vt 0.02488899976015091 0.9999629855155945
vt 0.023889999836683273 0.9999639987945557
vt 0.024890000000596046 0.000037000001611886546
vt 0.023889999836683273 0.9999639987945557
vt 0.023889999836683273 0.000037000001611886546
vt 0.038694001734256744 0.000037000001611886546
vt 0.038694001734256744 0.9999629855155945
vt 0.03769399970769882 0.9999629855155945
vt 0.038694001734256744 0.000037000001611886546
vt 0.03769399970769882 0.9999629855155945
vt 0.03769399970769882 0.000037000001611886546
vt 0.11598300188779831 0.06197100132703781
vt 0.10285700112581253 0.06331200152635574
vt 0.10291700065135956 0.06289900094270706
vt 0.11598300188779831 0.06197100132703781
vt 0.10291700065135956 0.06289900094270706
vt 0.11594200134277344 0.06156900152564049
vn 1 0 0
vn 1 0 0
vn 1 0 0
vn 1 0 0
vn 1 0 0
vn 1 0 0
vn -1 0 0
vn -1 0 0
vn -1 0 0
vn -1 0 0
vn -1 0 0
vn -1 0 0
vn -1 0 0
vn -1 0 0
vn -1 0 0
vn -1 0 0
vn -1 0 0
vn -1 0 0
vn 0 -1 0
vn 0 -1 0
vn 0 -1 0
vn 0 -1 0
vn 0 -1 0
vn 0 -1 0
vn 0 0 -1
vn 0 0 -1
vn 0 0 -1
vn 0 0 -1
vn 0 0 -1
vn 0 0 -1
vn 0 0 1
vn 0 0 1
vn 0 0 1
vn 0 0 1
vn 0 0 1
vn 0 0 1
vn 0 1 0
vn 0 1 0
vn 0 1 0
vn 0 1 0
vn 0 1 0
vn 0 1 0
vn 0 0.7083057632358606 -0.7059057626672735
vn 0 0.7083057632358606 -0.7059057626672735
vn 0 0.7083057632358606 -0.7059057626672735
vn 0 0.7083057632358606 -0.7059057626672735
vn 0 0.7083057632358606 -0.7059057626672735
vn 0 0.7083057632358606 -0.7059057626672735
vn 1 0 0
vn 1 0 0
vn 1 0 0
vn 1 0 0
vn 1 0 0
vn 1 0 0
vn 1 0 0
vn 1 0 0
vn 1 0 0
vn 1 0 0
vn 1 0 0
vn 1 0 0
vn 0 -1 0
vn 0 -1 0
vn 0 -1 0
vn 0 -1 0
vn 0 -1 0
vn 0 -1 0
vn 0 -1 0
vn 0 -1 0
vn 0 -1 0
vn 0 -1 0
vn 0 -1 0
vn 0 -1 0
vn 0 -0.7083057632358606 0.7059057626672735
vn 0 -0.7083057632358606 0.7059057626672735
vn 0 -0.7083057632358606 0.7059057626672735
vn 0 -0.7083057632358606 0.7059057626672735
vn 0 -0.7083057632358606 0.7059057626672735
vn 0 -0.7083057632358606 0.7059057626672735
vn -1 0 0
vn -1 0 0
vn -1 0 0
vn -1 0 0
vn -1 0 0
vn -1 0 0
vn 1 0 0
vn 1 0 0
vn 1 0 0
vn 1 0 0
vn 1 0 0
vn 1 0 0
vn 0 0.9242031145448129 -0.3819013001623166
vn 0 0.9242031145448129 -0.3819013001623166
vn 0 0.9242031145448129 -0.3819013001623166
vn 0 0.9242031145448129 -0.3819013001623166
vn 0 0.9242031145448129 -0.3819013001623166
vn 0 0.9242031145448129 -0.3819013001623166
vn 0 0.7071067811865476 0.7071067811865476
vn 0 0.7071067811865476 0.7071067811865476
vn 0 0.7071067811865476 0.7071067811865476
vn 0 0.7071067811865476 0.7071067811865476
vn 0 0.7071067811865476 0.7071067811865476
vn 0 0.7071067811865476 0.7071067811865476
vn -1 0 0
vn -1 0 0
vn -1 0 0
vn -1 0 0
vn -1 0 0
vn -1 0 0
f 1/1/1 2/2/2 3/3/3
f 4/4/4 5/5/5 6/6/6
f 7/7/7 8/8/8 9/9/9
f 10/10/10 11/11/11 12/12/12
f 13/13/13 14/14/14 15/15/15
f 16/16/16 17/17/17 18/18/18
f 19/19/19 20/20/20 21/21/21
f 22/22/22 23/23/23 24/24/24
f 25/25/25 26/26/26 27/27/27
f 28/28/28 29/29/29 30/30/30
f 31/31/31 32/32/32 33/33/33
f 34/34/34 35/35/35 36/36/36
f 37/37/37 38/38/38 39/39/39
f 40/40/40 41/41/41 42/42/42
f 43/43/43 44/44/44 45/45/45
f 46/46/46 47/47/47 48/48/48
f 49/49/49 50/50/50 51/51/51
f 52/52/52 53/53/53 54/54/54
f 55/55/55 56/56/56 57/57/57
f 58/58/58 59/59/59 60/60/60
f 61/61/61 62/62/62 63/63/63
f 64/64/64 65/65/65 66/66/66
f 67/67/67 68/68/68 69/69/69
f 70/70/70 71/71/71 72/72/72
f 73/73/73 74/74/74 75/75/75
f 76/76/76 77/77/77 78/78/78
f 79/79/79 80/80/80 81/81/81
f 82/82/82 83/83/83 84/84/84
f 85/85/85 86/86/86 87/87/87
f 88/88/88 89/89/89 90/90/90
f 91/91/91 92/92/92 93/93/93
f 94/94/94 95/95/95 96/96/96
f 97/97/97 98/98/98 99/99/99
f 100/100/100 101/101/101 102/102/102
f 103/103/103 104/104/104 105/105/105
f 106/106/106 107/107/107 108/108/108
