# Blender 4.0.2
# www.blender.org
mtllib tile3_ridge_1.mtl
o tile3_ridge_1
v -0.250000 -0.025016 0.085640
v -0.064500 -0.030452 0.089675
v -0.125000 -0.030452 0.089675
v -0.125000 -0.028221 0.089284
v -0.064500 -0.028221 0.089284
v -0.125000 -0.026409 0.087939
v -0.064500 -0.026409 0.087939
v -0.125000 -0.046469 0.084247
v -0.064500 -0.046469 0.084247
v -0.064500 -0.033102 0.089112
v -0.125000 -0.033102 0.089112
v -0.125000 -0.025016 0.085640
v -0.064500 -0.025016 0.085640
v -0.060500 -0.025016 0.085640
v 0.000000 -0.033102 0.089112
v -0.248000 -0.046469 0.084247
v 0.000000 -0.044590 0.084931
v -0.060500 -0.046469 0.084247
v -0.060500 -0.033102 0.089112
v -0.002000 -0.046469 0.084247
v -0.187500 -0.033101 0.089112
v 0.000000 -0.026409 0.087939
v -0.060500 -0.026409 0.087939
v -0.187500 -0.026409 0.087939
v 0.000000 -0.028221 0.089284
v -0.060500 -0.028221 0.089284
v 0.000000 -0.030452 0.089675
v -0.060500 -0.030452 0.089675
v -0.062500 -0.026794 0.084726
v -0.062500 -0.032562 0.087202
v -0.062500 -0.045794 0.082381
v -0.062500 -0.027892 0.086598
v -0.062500 -0.029022 0.087458
v -0.062500 -0.030429 0.087688
v -0.064500 0.011506 0.000000
v -0.187500 0.011506 0.000000
v -0.125000 0.011506 0.000000
v -0.062500 0.009334 0.000000
v 0.000000 0.011505 0.000000
v -0.060500 0.011506 0.000000
v -0.187500 -0.046469 0.084247
v -0.187500 -0.025016 0.085640
v -0.187500 -0.030452 0.089675
v -0.187500 -0.028221 0.089284
v -0.064500 -0.025016 -0.085640
v -0.125000 -0.025016 -0.085640
v -0.125000 -0.033102 -0.089112
v -0.064500 -0.033102 -0.089112
v -0.064500 -0.046468 -0.084247
v -0.125000 -0.046468 -0.084247
v -0.064500 -0.026408 -0.087939
v -0.125000 -0.026408 -0.087939
v -0.064500 -0.028220 -0.089284
v -0.125000 -0.028220 -0.089284
v -0.125000 -0.030452 -0.089675
v -0.064500 -0.030452 -0.089675
v -0.250000 -0.025016 -0.085640
v -0.060500 -0.025016 -0.085640
v -0.187500 -0.025016 -0.085640
v 0.000000 -0.033102 -0.089112
v -0.248000 -0.046468 -0.084247
v 0.000000 -0.044590 -0.084931
v -0.060500 -0.046468 -0.084247
v -0.060500 -0.033102 -0.089112
v -0.002000 -0.046468 -0.084247
v -0.187500 -0.046468 -0.084247
v 0.000000 -0.026408 -0.087939
v -0.060500 -0.026408 -0.087939
v -0.187500 -0.026408 -0.087939
v 0.000000 -0.028220 -0.089284
v -0.060500 -0.028220 -0.089284
v 0.000000 -0.030452 -0.089675
v -0.060500 -0.030452 -0.089675
v -0.187500 -0.030452 -0.089675
v -0.062500 -0.026794 -0.084726
v -0.062500 -0.032562 -0.087202
v -0.062500 -0.045794 -0.082381
v -0.062500 -0.027891 -0.086598
v -0.062500 -0.029022 -0.087458
v -0.062500 -0.030429 -0.087688
v -0.187500 -0.033102 -0.089112
v -0.187500 -0.028220 -0.089284
v -0.250000 -0.033102 0.089112
v -0.250000 -0.030452 0.089675
v -0.250000 -0.044590 0.084931
v -0.250000 -0.028221 0.089284
v -0.250000 0.011505 0.000000
v 0.000000 -0.025016 0.085640
v -0.250000 -0.026409 0.087939
v -0.250000 -0.028220 -0.089284
v -0.250000 -0.030452 -0.089675
v -0.250000 -0.033102 -0.089112
v -0.250000 -0.044590 -0.084931
v 0.000000 -0.025016 -0.085640
v -0.250000 -0.026408 -0.087939
vn 0.0778 0.9970 -0.0000
vn -0.0000 0.9993 -0.0377
vn -0.0000 0.9189 0.3944
vn 0.0377 0.9993 -0.0000
vn -0.0000 1.0000 -0.0000
vn -0.0684 0.8877 0.4553
vn 0.0550 0.9985 -0.0000
vn 0.0378 0.9993 -0.0000
vn -0.7354 0.6777 -0.0000
vn -0.7065 0.6510 0.2776
vn -0.0000 -0.3210 0.9471
vn -0.0000 -0.3420 0.9397
vn -0.0000 -0.3209 0.9471
vn -0.0000 0.7509 0.6604
vn -0.0000 0.3949 0.9187
vn -0.0000 -0.0352 0.9994
vn 0.7065 0.6510 0.2776
vn 0.7354 0.6777 -0.0000
vn 0.7039 -0.2431 0.6675
vn 0.7032 0.6105 0.3644
vn 0.6985 0.4292 0.5727
vn 0.7006 -0.1529 0.6970
vn 0.6971 0.1206 0.7067
vn -0.7039 -0.2430 0.6675
vn -0.7032 0.6105 0.3644
vn -0.6985 0.4292 0.5727
vn -0.7006 -0.1529 0.6970
vn -0.6972 0.1206 0.7067
vn -0.0001 0.9189 -0.3944
vn -0.0000 0.9189 -0.3944
vn -0.0684 0.8877 -0.4553
vn -0.7065 0.6510 -0.2776
vn -0.0000 -0.3209 -0.9471
vn -0.0000 -0.3420 -0.9397
vn -0.0000 0.7509 -0.6604
vn -0.0000 0.3949 -0.9187
vn -0.0000 -0.0352 -0.9994
vn 0.7065 0.6510 -0.2776
vn 0.7039 -0.2431 -0.6675
vn 0.7032 0.6105 -0.3644
vn 0.6985 0.4292 -0.5727
vn 0.7006 -0.1529 -0.6970
vn 0.6971 0.1206 -0.7067
vn -0.7039 -0.2430 -0.6675
vn -0.7032 0.6105 -0.3644
vn -0.6985 0.4292 -0.5727
vn -0.7006 -0.1529 -0.6970
vn -0.6972 0.1206 -0.7067
vt 0.503850 0.852963
vt 0.548224 0.852997
vt 0.547431 0.923355
vt 0.503908 0.924141
vt 0.454426 0.852925
vt 0.499402 0.852960
vt 0.499822 0.924158
vt 0.456514 0.923710
vt 0.594822 0.853032
vt 0.641767 0.853068
vt 0.641572 0.923132
vt 0.594503 0.923168
vt 0.501626 0.852961
vt 0.501865 0.924340
vt 0.547497 0.930787
vt 0.547552 0.941331
vt 0.503902 0.941395
vt 0.504027 0.931019
vt 0.547452 0.925348
vt 0.504138 0.925980
vt 0.547468 0.927043
vt 0.504244 0.927544
vt 0.547482 0.928752
vt 0.504184 0.929119
vt 0.641574 0.930605
vt 0.641577 0.939811
vt 0.640071 0.941317
vt 0.594515 0.941328
vt 0.594512 0.930631
vt 0.499874 0.941385
vt 0.457916 0.941395
vt 0.456468 0.939940
vt 0.456488 0.931065
vt 0.499729 0.931030
vt 0.641573 0.925158
vt 0.594506 0.925191
vt 0.499600 0.925992
vt 0.456502 0.925715
vt 0.641573 0.926858
vt 0.594508 0.926889
vt 0.499500 0.927553
vt 0.456495 0.927411
vt 0.641574 0.928564
vt 0.594509 0.928593
vt 0.499565 0.929128
vt 0.456491 0.929099
vt 0.501887 0.941384
vt 0.501878 0.930865
vt 0.501869 0.926242
vt 0.501872 0.927575
vt 0.501874 0.928919
vt 0.504016 0.781785
vt 0.547538 0.782637
vt 0.456621 0.782144
vt 0.499930 0.781762
vt 0.594610 0.782896
vt 0.641679 0.783003
vt 0.501973 0.781583
vt 0.547615 0.775206
vt 0.504146 0.774907
vt 0.504036 0.764531
vt 0.547687 0.764661
vt 0.504250 0.779947
vt 0.547562 0.780645
vt 0.504357 0.778383
vt 0.547580 0.778950
vt 0.547597 0.777240
vt 0.504300 0.776808
vt 0.641692 0.775531
vt 0.594630 0.775432
vt 0.594649 0.764736
vt 0.640205 0.764817
vt 0.641708 0.766325
vt 0.500009 0.764535
vt 0.499847 0.774890
vt 0.456607 0.774789
vt 0.456600 0.765914
vt 0.458051 0.764461
vt 0.594616 0.780873
vt 0.641682 0.780978
vt 0.456613 0.780139
vt 0.499711 0.779928
vt 0.594620 0.779175
vt 0.641685 0.779278
vt 0.456608 0.778443
vt 0.499614 0.778366
vt 0.641688 0.777571
vt 0.594624 0.777471
vt 0.499681 0.776792
vt 0.456606 0.776755
vt 0.501996 0.775058
vt 0.502021 0.764539
vt 0.501981 0.779682
vt 0.501985 0.778348
vt 0.501990 0.777004
s 1
usemtl Checker
f 35/1/1 37/2/2 12/3/3 13/4/3
f 39/5/4 40/6/5 14/7/3 88/8/6
f 36/9/7 87/10/8 1/11/6 42/12/3
f 40/6/9 38/13/9 29/14/10 14/7/10
f 11/15/11 8/16/12 9/17/12 10/18/13
f 12/3/3 6/19/14 7/20/14 13/4/3
f 6/19/14 4/21/15 5/22/15 7/20/14
f 3/23/16 11/15/11 10/18/13 2/24/16
f 4/21/15 3/23/16 2/24/16 5/22/15
f 12/3/3 37/2/2 36/9/7 42/12/3
f 83/25/13 85/26/12 16/27/12 41/28/12 21/29/11
f 18/30/12 20/31/12 17/32/12 15/33/13 19/34/13
f 8/16/12 11/15/11 21/29/11 41/28/12
f 1/11/6 89/35/14 24/36/14 42/12/3
f 14/7/3 23/37/14 22/38/14 88/8/6
f 6/19/14 12/3/3 42/12/3 24/36/14
f 89/35/14 86/39/15 44/40/15 24/36/14
f 23/37/14 26/41/15 25/42/15 22/38/14
f 4/21/15 6/19/14 24/36/14 44/40/15
f 84/43/16 83/25/13 21/29/11 43/44/16
f 28/45/16 19/34/13 15/33/13 27/46/16
f 11/15/11 3/23/16 43/44/16 21/29/11
f 86/39/15 84/43/16 43/44/16 44/40/15
f 26/41/15 28/45/16 27/46/16 25/42/15
f 3/23/16 4/21/15 44/40/15 43/44/16
f 13/4/17 29/14/17 38/13/18 35/1/18
f 9/17/19 31/47/19 30/48/19 10/18/19
f 7/20/20 32/49/20 29/14/20 13/4/20
f 5/22/21 33/50/21 32/49/21 7/20/21
f 10/18/22 30/48/22 34/51/22 2/24/22
f 2/24/23 34/51/23 33/50/23 5/22/23
f 19/34/24 30/48/24 31/47/24 18/30/24
f 14/7/25 29/14/25 32/49/25 23/37/25
f 23/37/26 32/49/26 33/50/26 26/41/26
f 28/45/27 34/51/27 30/48/27 19/34/27
f 26/41/28 33/50/28 34/51/28 28/45/28
f 35/1/1 45/52/29 46/53/30 37/2/2
f 39/5/4 94/54/31 58/55/30 40/6/5
f 36/9/7 59/56/30 57/57/31 87/10/8
f 40/6/9 58/55/32 75/58/32 38/13/9
f 47/59/33 48/60/33 49/61/34 50/62/34
f 46/53/30 45/52/29 51/63/35 52/64/35
f 52/64/35 51/63/35 53/65/36 54/66/36
f 55/67/37 56/68/37 48/60/33 47/59/33
f 54/66/36 53/65/36 56/68/37 55/67/37
f 46/53/30 59/56/30 36/9/7 37/2/2
f 92/69/33 81/70/33 66/71/34 61/72/34 93/73/34
f 63/74/34 64/75/33 60/76/33 62/77/34 65/78/34
f 50/62/34 66/71/34 81/70/33 47/59/33
f 57/57/31 59/56/30 69/79/35 95/80/35
f 58/55/30 94/54/31 67/81/35 68/82/35
f 52/64/35 69/79/35 59/56/30 46/53/30
f 95/80/35 69/79/35 82/83/36 90/84/36
f 68/82/35 67/81/35 70/85/36 71/86/36
f 54/66/36 82/83/36 69/79/35 52/64/35
f 91/87/37 74/88/37 81/70/33 92/69/33
f 73/89/37 72/90/37 60/76/33 64/75/33
f 47/59/33 81/70/33 74/88/37 55/67/37
f 90/84/36 82/83/36 74/88/37 91/87/37
f 71/86/36 70/85/36 72/90/37 73/89/37
f 55/67/37 74/88/37 82/83/36 54/66/36
f 45/52/38 35/1/18 38/13/18 75/58/38
f 49/61/39 48/60/39 76/91/39 77/92/39
f 51/63/40 45/52/40 75/58/40 78/93/40
f 53/65/41 51/63/41 78/93/41 79/94/41
f 48/60/42 56/68/42 80/95/42 76/91/42
f 56/68/43 53/65/43 79/94/43 80/95/43
f 64/75/44 63/74/44 77/92/44 76/91/44
f 58/55/45 68/82/45 78/93/45 75/58/45
f 68/82/46 71/86/46 79/94/46 78/93/46
f 73/89/47 64/75/47 76/91/47 80/95/47
f 71/86/48 73/89/48 80/95/48 79/94/48
