# Blender 4.0.2
# www.blender.org
mtllib door_dubbele_stapeldorpeldeur_glass.mtl
o door_dubbele_stapeldorpeldeur_glass
v 0.002503 0.670028 -0.830140
v 0.002503 0.670028 -0.830140
v 0.002503 0.670028 -0.830140
v -0.002503 0.670028 -0.830140
v -0.002503 0.670028 -0.830140
v -0.002503 0.670028 -0.830140
v 0.002503 0.670028 -0.100028
v 0.002503 0.670028 -0.100028
v 0.002503 0.670028 -0.100028
v -0.002503 0.670028 -0.100028
v -0.002503 0.670028 -0.100028
v -0.002503 0.670028 -0.100028
v -0.002503 1.842029 -0.830140
v -0.002503 1.842029 -0.830140
v -0.002503 1.842029 -0.830140
v 0.002503 1.842029 -0.830140
v 0.002503 1.842029 -0.830140
v 0.002503 1.842029 -0.830140
v -0.002503 1.842030 -0.100028
v -0.002503 1.842030 -0.100028
v -0.002503 1.842030 -0.100028
v 0.002503 1.842030 -0.100028
v 0.002503 1.842030 -0.100028
v 0.002503 1.842030 -0.100028
v 0.002503 0.670028 0.830140
v 0.002503 0.670028 0.830140
v 0.002503 0.670028 0.830140
v -0.002503 0.670028 0.830140
v -0.002503 0.670028 0.830140
v -0.002503 0.670028 0.830140
v 0.002503 0.670028 0.100028
v 0.002503 0.670028 0.100028
v 0.002503 0.670028 0.100028
v -0.002503 0.670028 0.100028
v -0.002503 0.670028 0.100028
v -0.002503 0.670028 0.100028
v -0.002503 1.842029 0.830140
v -0.002503 1.842029 0.830140
v -0.002503 1.842029 0.830140
v 0.002503 1.842029 0.830140
v 0.002503 1.842029 0.830140
v 0.002503 1.842029 0.830140
v -0.002503 1.842030 0.100028
v -0.002503 1.842030 0.100028
v -0.002503 1.842030 0.100028
v 0.002503 1.842030 0.100028
v 0.002503 1.842030 0.100028
v 0.002503 1.842030 0.100028
vn -0.0000 -1.0000 -0.0000
vn -0.0000 1.0000 -0.0000
vn -1.0000 -0.0000 -0.0000
vn -0.0000 -0.0000 -1.0000
vn 1.0000 -0.0000 -0.0000
vn -0.0000 -0.0000 1.0000
vt 1.000000 1.000000
vt 1.000000 1.000000
vt -0.001244 1.000000
vt -0.001244 1.000000
vt 1.000000 1.000000
vt -0.001244 1.000000
vt -0.001244 1.000000
vt 1.000000 1.000000
vt -0.001244 1.000000
vt -0.001244 1.000000
vt 0.000000 1.000000
vt 0.000000 1.000000
vt 0.000000 1.000000
vt 0.000000 1.000000
vt -0.001244 1.000000
s 0
usemtl glass
f 11/1/1 5/2/1 1/3/1
f 11/1/1 1/3/1 7/4/1
f 21/5/2 23/6/2 17/7/2
f 21/5/2 17/7/2 15/8/2
f 10/8/3 19/1/3 13/1/3
f 10/8/3 13/1/3 4/1/3
f 6/8/4 14/8/4 16/9/4
f 6/8/4 16/9/4 2/10/4
f 3/11/5 18/12/5 24/13/5
f 3/11/5 24/13/5 9/14/5
f 8/9/6 22/15/6 20/8/6
f 8/9/6 20/8/6 12/8/6
f 35/1/1 31/4/1 25/3/1
f 35/1/1 25/3/1 29/2/1
f 45/5/2 39/8/2 41/7/2
f 45/5/2 41/7/2 47/6/2
f 34/8/3 28/1/3 37/1/3
f 34/8/3 37/1/3 43/1/3
f 30/8/6 26/10/6 40/9/6
f 30/8/6 40/9/6 38/8/6
f 27/11/5 33/14/5 48/13/5
f 27/11/5 48/13/5 42/12/5
f 32/9/4 36/8/4 44/8/4
f 32/9/4 44/8/4 46/15/4
