# Blender 4.0.2
# www.blender.org
mtllib roof_tile_end.001.mtl
o roof_tile_end.001
v 0.459100 0.065255 -0.002787
v 0.465000 0.053220 -0.002158
v 0.465000 0.037587 -0.300427
v 0.459100 0.049629 -0.301063
v 0.376701 0.078263 -0.003470
v 0.367400 0.068627 -0.002970
v 0.356200 0.054094 -0.002206
v 0.339800 0.042425 -0.001591
v 0.319800 0.034483 -0.001182
v 0.301200 0.031795 -0.001040
v 0.278400 0.033942 -0.001148
v 0.262000 0.039579 -0.001442
v 0.253501 0.044231 -0.001691
v 0.241501 0.052613 -0.002129
v 0.240000 0.054025 -0.002201
v 0.240000 0.039463 -0.001437
v 0.248600 0.033509 -0.001127
v 0.258700 0.028188 -0.000850
v 0.270001 0.024182 -0.000635
v 0.283600 0.020696 -0.000459
v 0.293400 0.020099 -0.000422
v 0.305200 0.019963 -0.000421
v 0.317101 0.021763 -0.000512
v 0.328600 0.024438 -0.000651
v 0.339700 0.029067 -0.000893
v 0.345600 0.031695 -0.001034
v 0.351200 0.035078 -0.001207
v 0.366501 0.046911 -0.001826
v 0.374800 0.057773 -0.002401
v 0.381400 0.065396 -0.002797
v 0.390700 0.071950 -0.003142
v 0.397501 0.074738 -0.003289
v 0.402501 0.076219 -0.003366
v 0.407900 0.076913 -0.003398
v 0.413200 0.077166 -0.003417
v 0.418501 0.076581 -0.003382
v 0.423000 0.075805 -0.003342
v 0.428001 0.073977 -0.003248
v 0.432100 0.072397 -0.003164
v 0.440501 0.066877 -0.002874
v 0.448300 0.058564 -0.002441
v 0.453501 0.049178 -0.001949
v 0.453501 -0.041616 0.002813
v 0.465000 -0.041616 0.002813
v 0.450600 0.075556 -0.003333
v 0.440001 0.083381 -0.003738
v 0.428001 0.088540 -0.004011
v 0.413100 0.090808 -0.004133
v 0.400800 0.089674 -0.004072
v 0.388100 0.085419 -0.003849
v 0.450600 0.059924 -0.301600
v 0.465000 -0.038549 -0.296438
v 0.453501 -0.038549 -0.296438
v 0.453501 0.033544 -0.300218
v 0.448300 0.042932 -0.300709
v 0.440501 0.051245 -0.301142
v 0.440001 0.067756 -0.302013
v 0.440001 0.066600 -0.323979
v 0.428001 0.071758 -0.324253
v 0.415000 0.073733 -0.324351
v 0.415000 0.072583 -0.346326
v 0.400800 0.071541 -0.350068
v 0.388100 0.067108 -0.353232
v 0.385000 0.065130 -0.353945
v 0.385000 0.064120 -0.373240
v 0.376700 0.058901 -0.372967
v 0.367400 0.049259 -0.372458
v 0.356200 0.034734 -0.371702
v 0.339800 0.023063 -0.371088
v 0.319800 0.015115 -0.370670
v 0.301200 0.012427 -0.370528
v 0.278400 0.014581 -0.370644
v 0.262000 0.020218 -0.370938
v 0.253501 0.024864 -0.371179
v 0.241501 0.033245 -0.371618
v 0.233481 0.041118 -0.372035
v 0.233481 0.059555 -0.020197
v 0.240000 0.053101 -0.019858
v 0.240000 0.038539 -0.019094
v 0.248600 0.014147 -0.370623
v 0.234620 0.042305 -0.019292
v 0.234620 0.023867 -0.371131
v 0.258700 0.008821 -0.370338
v 0.270001 0.004821 -0.370131
v 0.283600 0.001329 -0.369947
v 0.293400 0.000737 -0.369918
v 0.305200 0.000596 -0.369909
v 0.317101 0.002395 -0.370001
v 0.328600 0.005077 -0.370147
v 0.339700 0.009706 -0.370389
v 0.345600 0.012328 -0.370522
v 0.351200 0.015717 -0.370703
v 0.366501 0.027550 -0.371322
v 0.374800 0.038404 -0.371890
v 0.381400 0.046033 -0.372294
v 0.385000 0.048592 -0.372428
v 0.385000 0.049603 -0.353132
v 0.390700 0.053673 -0.351833
v 0.397501 0.056557 -0.350174
v 0.402501 0.058108 -0.348892
v 0.407900 0.058883 -0.347516
v 0.413200 0.059202 -0.346112
v 0.415000 0.059029 -0.345614
v 0.415000 0.060184 -0.323648
v 0.418501 0.059800 -0.323624
v 0.423000 0.059023 -0.323583
v 0.428001 0.057195 -0.323490
v 0.432100 0.055615 -0.323406
v 0.440001 0.050430 -0.323130
v 0.200080 0.023867 -0.371131
v 0.195020 0.032352 -0.371573
v 0.199720 0.048794 -0.372439
v 0.206560 0.048794 -0.372439
v 0.210080 0.037397 -0.371838
v 0.219080 0.037397 -0.371838
v 0.222340 0.048794 -0.372439
v 0.227240 0.048794 -0.372439
v 0.222340 0.067232 -0.020599
v 0.219080 0.055835 -0.019999
v 0.215020 0.055835 -0.019999
v 0.215020 0.042305 -0.019292
v 0.227240 0.067232 -0.020599
v 0.200080 0.040850 -0.047017
v 0.215020 0.041260 -0.039267
v 0.210080 0.054652 -0.042532
v 0.215020 0.054790 -0.039974
v 0.206560 0.065955 -0.044963
v 0.199720 0.065764 -0.048507
v 0.195020 0.049203 -0.050091
vn -0.2581 -0.9648 0.0506
vn -0.3519 -0.9347 0.0490
vn -0.2580 -0.9648 0.0506
vn -0.4611 0.0463 0.8861
vn -0.0000 0.0523 0.9986
vn 0.0001 0.0524 0.9986
vn 0.0001 0.0523 0.9986
vn 0.6883 0.7244 -0.0380
vn 0.4644 0.8844 -0.0463
vn 0.4982 0.8659 -0.0454
vn -0.0001 -0.0523 -0.9986
vn -0.0000 -0.0523 -0.9986
vn -0.0003 -0.0524 -0.9986
vn 0.4941 -0.8682 0.0455
vn 0.3401 -0.9391 0.0492
vn 0.3325 -0.9418 0.0494
vn 0.4818 -0.8751 0.0458
vn -0.9683 -0.2496 0.0131
vn -1.0000 -0.0000 -0.0000
vn -0.1554 -0.9865 0.0517
vn -0.2919 -0.9551 0.0501
vn -0.2919 -0.9552 0.0501
vn -0.5714 -0.8196 0.0429
vn -0.5200 -0.8530 0.0447
vn 0.0944 -0.9942 0.0521
vn -0.0177 -0.9985 0.0523
vn -0.0314 -0.9981 0.0523
vn 0.0877 -0.9948 0.0521
vn 0.2196 -0.9743 0.0511
vn 0.2069 -0.9770 0.0512
vn 0.3952 0.9173 -0.0481
vn 0.2751 0.9601 -0.0503
vn 0.8407 0.5408 -0.0283
vn -0.2582 0.9648 -0.0506
vn -0.4784 0.8769 -0.0460
vn 0.2112 0.9761 -0.0512
vn -0.0248 0.9983 -0.0523
vn 1.0000 -0.0000 -0.0000
vn 0.7096 -0.7037 0.0369
vn 0.5660 -0.8233 0.0431
vn -0.0362 -0.9980 0.0523
vn -0.0001 0.9986 -0.0523
vn -0.4575 -0.8880 0.0465
vn 0.9998 0.0147 -0.0120
vn -0.5497 -0.8342 0.0437
vn -0.6139 -0.7883 0.0413
vn -0.6442 -0.7638 0.0400
vn -0.4016 -0.9146 0.0479
vn 0.3074 -0.9503 0.0498
vn 0.3073 -0.9503 0.0498
vn 0.1886 -0.9807 0.0514
vn 0.6720 -0.7396 0.0387
vn 0.7761 -0.6297 0.0330
vn 0.4633 -0.8850 0.0464
vn 0.5276 0.8484 -0.0445
vn 0.4044 0.9133 -0.0479
vn -0.9615 0.2743 -0.0144
vn 0.0692 -0.9962 0.0522
vn 0.6392 0.7680 -0.0402
vn -0.1400 -0.9888 0.0518
vn -0.1087 -0.9927 0.0520
vn 0.3962 -0.9169 0.0480
vn -0.8086 -0.5876 0.0308
vn -0.7574 0.6520 -0.0342
vn -0.6308 0.7749 -0.0406
vn 0.5765 -0.8160 0.0427
vn -0.2173 0.9748 -0.0513
vn -0.4442 0.8947 -0.0469
vn -0.4281 0.9025 -0.0473
vn -0.1973 0.9790 -0.0516
vn -0.8593 -0.5108 0.0268
vn 0.5776 -0.8152 0.0427
vn 0.0016 0.9986 -0.0528
vn 0.0384 0.9979 -0.0526
vn -0.6939 0.7191 -0.0377
vn -0.1082 -0.9928 0.0520
vn -0.9616 0.2742 -0.0144
vn 0.9742 0.2253 -0.0118
vn 0.2566 -0.0509 -0.9652
vn 0.2585 -0.0517 -0.9646
vn 0.2579 -0.0504 -0.9649
vn 0.7397 0.6720 -0.0352
vn 0.7008 0.7124 -0.0373
vn 0.0001 -0.0524 -0.9986
vn -0.0003 -0.0523 -0.9986
vn -0.0001 -0.0524 -0.9986
vn -0.0003 0.9986 -0.0523
vn -0.0000 -0.9986 0.0523
vn 0.0001 -0.9986 0.0523
vn -0.0000 -0.9999 -0.0102
vn -0.5321 0.8455 -0.0443
vn -0.0000 -0.0524 -0.9986
vn 0.9556 0.2943 -0.0154
vn -0.0734 0.9959 -0.0528
vn 0.7764 0.6294 -0.0330
vn -0.0000 0.9986 -0.0523
vn -0.0003 0.0525 0.9986
vn -0.0000 0.0526 0.9986
vn -0.0000 0.0522 0.9986
vn -0.0001 0.0524 0.9986
vn 0.0001 0.0525 0.9986
vn 0.0012 -0.0519 -0.9987
vn -0.0001 -0.0522 -0.9986
vn 0.0003 -0.0522 -0.9986
vn 0.0003 -0.0524 -0.9986
vn 0.0005 -0.0524 -0.9986
vn 0.0004 -0.0524 -0.9986
vn 0.2561 -0.0505 -0.9653
vn 0.2550 -0.0511 -0.9656
vn 0.2563 -0.0507 -0.9653
vn 0.2564 -0.0506 -0.9653
vn 0.2591 -0.0506 -0.9645
vn 0.2584 -0.0500 -0.9647
vn 0.2621 -0.0506 -0.9637
vn 0.2601 -0.0503 -0.9643
vn -0.0003 -0.0525 -0.9986
vn -0.0002 -0.0525 -0.9986
vn -0.0000 -0.0527 -0.9986
vn 0.0003 -0.0525 -0.9986
vn 0.0002 -0.0524 -0.9986
vn -0.0001 -0.0526 -0.9986
vn 0.0002 -0.0526 -0.9986
vn 0.0002 -0.0522 -0.9986
vn -0.0002 -0.0522 -0.9986
vn -0.0002 -0.0524 -0.9986
vn 0.0001 -0.0523 -0.9986
vn -0.0001 -0.0525 -0.9986
vn -0.0000 -0.0526 -0.9986
vn 0.0002 -0.0521 -0.9986
vn -0.0001 -0.0521 -0.9986
vn 0.0001 -0.0519 -0.9987
vn 0.0004 -0.0522 -0.9986
vn -0.0002 -0.0523 -0.9986
vn 0.0002 0.0524 0.9986
vn -0.0001 0.0525 0.9986
vn -0.0000 0.0524 0.9986
vn -0.0001 0.0522 0.9986
vn -0.0004 0.0523 0.9986
vn -0.0002 0.0523 0.9986
vn 0.0003 0.0523 0.9986
vn -0.0002 0.0522 0.9986
vn 0.0013 0.0524 0.9986
vn 0.0019 0.0524 0.9986
vn 0.0003 0.0525 0.9986
vn -0.0003 0.0520 0.9986
vn 0.0001 0.0522 0.9986
vn -0.0003 0.0518 0.9987
vn 0.0002 0.0525 0.9986
vn -0.0002 0.0526 0.9986
vn 0.0001 0.0520 0.9986
vn -0.0001 0.0527 0.9986
vt 1.664370 5.197056
vt 1.662720 5.197057
vt 1.662719 5.097670
vt 1.664369 5.097670
vt 8.108414 8.963918
vt 8.111952 8.965147
vt 8.111951 8.967536
vt 8.106851 8.969179
vt 8.104216 8.967412
vt 8.104216 8.962194
vt 8.108415 8.962193
vt 3.031528 8.774996
vt 3.036882 8.775349
vt 3.035727 8.779812
vt 4.089903 1.146951
vt 4.085816 1.146951
vt 4.085830 1.054382
vt 4.089915 1.054384
vt 6.787358 9.030351
vt 6.785713 9.026141
vt 6.787363 9.026105
vt 1.674664 5.205886
vt 1.672386 5.205326
vt 1.672385 5.097671
vt 1.674663 5.097670
vt 1.651376 5.190238
vt 1.629002 5.190238
vt 1.623198 5.097669
vt 1.651376 5.097671
vt 1.713405 5.212341
vt 1.713405 5.097671
vt 1.717757 5.097669
vt 1.717758 5.212342
vt 1.728256 5.103149
vt 1.730292 5.103150
vt 1.730293 5.212342
vt 1.725013 5.212343
vt 1.725012 5.097670
vt 1.728255 5.097669
vt 1.669082 5.204465
vt 1.667438 5.204026
vt 1.667437 5.097671
vt 1.669081 5.097669
vt 1.670769 5.204904
vt 1.670768 5.097670
vt 4.085816 1.153768
vt 4.081767 1.153769
vt 4.081781 1.054382
vt 4.094045 1.146952
vt 4.094058 1.054382
vt 4.042203 1.169053
vt 4.042201 1.054383
vt 4.048871 1.054381
vt 4.048874 1.169053
vt 9.556328 8.768263
vt 9.556326 8.772783
vt 9.550846 8.772783
vt 9.550848 8.768263
vt 4.029281 1.169054
vt 4.029279 1.054382
vt 4.036376 1.054383
vt 4.036378 1.169053
vt 6.449936 9.269356
vt 6.455924 9.269356
vt 6.455924 9.274176
vt 6.449936 9.274176
vt 9.243179 4.090243
vt 9.236361 4.090243
vt 9.236362 4.086040
vt 9.243179 4.086038
vt 1.685559 5.212342
vt 1.685559 5.097669
vt 1.691556 5.097670
vt 1.691556 5.212342
vt 1.710363 5.212342
vt 1.710362 5.097670
vt 9.487861 5.236116
vt 9.494060 5.236116
vt 9.494060 5.240314
vt 9.487861 5.240314
vt 4.001822 1.066854
vt 4.003352 1.066061
vt 4.003352 1.059862
vt 4.004610 1.059862
vt 4.004612 1.169054
vt 4.001823 1.169054
vt 1.661357 5.197057
vt 1.661356 5.097670
vt 9.180001 0.397206
vt 9.180000 0.402225
vt 9.173183 0.402225
vt 9.173181 0.397098
vt 1.658428 5.197055
vt 1.658241 5.190237
vt 1.658240 5.097670
vt 1.721473 5.097671
vt 1.721473 5.212341
vt 1.699315 5.212343
vt 1.699315 5.097670
vt 1.702975 5.097670
vt 1.702975 5.212341
vt 1.678192 5.212343
vt 1.678192 5.097670
vt 1.681319 5.097671
vt 1.681321 5.212341
vt 1.693585 5.097671
vt 1.693586 5.212341
vt 4.020902 1.169053
vt 4.020899 1.054383
vt 4.023903 1.054381
vt 4.023905 1.169054
vt 4.008290 1.169055
vt 4.008288 1.059862
vt 1.706705 5.212341
vt 1.706704 5.097671
vt 4.016363 1.169053
vt 4.016360 1.054383
vt 1.665784 5.097670
vt 1.666876 5.197057
vt 1.665785 5.197056
vt 1.695588 5.097670
vt 1.695587 5.212342
vt 1.654705 5.190238
vt 1.654705 5.097671
vt 4.060804 1.169052
vt 4.060803 1.054382
vt 4.064957 1.054381
vt 4.064960 1.169053
vt 1.676822 5.206354
vt 4.073283 1.161761
vt 4.069132 1.162812
vt 4.069130 1.054382
vt 4.073281 1.054382
vt 1.744062 5.212341
vt 1.740997 5.212342
vt 1.740997 5.111754
vt 1.744063 5.112569
vt 1.676822 5.212343
vt 4.077692 1.153767
vt 4.077110 1.054382
vt 4.055112 1.054382
vt 4.055115 1.169054
vt 1.666876 5.203874
vt 3.996002 1.169055
vt 3.990695 1.169054
vt 3.990695 1.069283
vt 3.995999 1.068524
vt 4.121834 1.146955
vt 4.098205 1.146951
vt 4.098216 1.054384
vt 4.127648 1.054387
vt 0.774634 8.838050
vt 0.776356 8.838323
vt 0.775717 8.842486
vt 4.012877 1.059862
vt 4.015721 1.059862
vt 4.015721 1.054382
vt 4.012878 1.169055
vt 8.488878 8.382722
vt 8.491993 8.381544
vt 8.493570 8.385154
vt 3.998121 1.169055
vt 3.998119 1.067424
vt 1.736366 5.103149
vt 1.736367 5.109349
vt 7.758975 0.327796
vt 7.851725 0.327796
vt 7.851725 0.331360
vt 7.758975 0.331360
vt 4.067999 1.163065
vt 4.067999 1.169053
vt 1.554626 8.218236
vt 1.559547 8.220399
vt 1.556702 8.223203
vt 4.077692 1.160585
vt 4.009809 1.169055
vt 4.009808 1.059862
vt 6.650750 5.378230
vt 6.647683 5.381820
vt 6.649142 5.377846
vt 3.035727 8.781069
vt 3.031528 8.781069
vt 3.030359 8.773329
vt 3.034879 8.773329
vt 3.039264 8.777283
vt 3.039264 8.778801
vt 6.789803 9.025538
vt 6.791334 9.029454
vt 6.788749 9.025823
vt 6.783310 9.030213
vt 6.781484 9.025538
vt 6.784351 9.026147
vt 0.782463 8.837428
vt 0.781118 8.842055
vt 0.780362 8.838107
vt 0.779997 8.842355
vt 0.778027 8.838330
vt 0.771269 8.841467
vt 0.772443 8.837428
vt 0.772980 8.837648
vt 8.494892 8.379520
vt 8.497108 8.383003
vt 8.499985 8.380100
vt 8.489609 8.386429
vt 8.466225 8.383048
vt 8.466734 8.379520
vt 1.589932 8.215497
vt 1.587090 8.218642
vt 1.584094 8.216157
vt 1.582061 8.221910
vt 1.580245 8.222816
vt 1.578728 8.219346
vt 1.578355 8.223475
vt 1.574809 8.224624
vt 1.572348 8.221293
vt 1.571188 8.225158
vt 1.567465 8.225410
vt 1.566534 8.221648
vt 1.563825 8.225064
vt 1.560813 8.224631
vt 1.553315 8.221677
vt 1.550332 8.219771
vt 1.546263 8.216407
vt 1.535594 8.215524
vt 1.541810 8.211825
vt 1.534249 8.212770
vt 1.539030 8.211595
vt 1.552120 8.216582
vt 1.548628 8.213683
vt 1.592165 8.213305
vt 1.587924 8.211951
vt 1.593741 8.207805
vt 1.593343 8.212607
vt 1.591044 8.209207
vt 1.536122 8.207805
vt 1.538235 8.207980
vt 1.543108 8.208383
vt 1.544621 8.208508
vt 1.546353 8.211043
vt 6.656309 5.382467
vt 6.652267 5.382718
vt 6.653794 5.378463
vt 6.652143 5.378474
vt 6.644214 5.380202
vt 6.647623 5.377217
vt 6.640955 5.377630
vt 6.644817 5.375494
vt 6.638380 5.374346
vt 6.643126 5.373968
vt 6.636677 5.370557
vt 6.641100 5.371079
vt 6.634933 5.365140
vt 6.639973 5.368162
vt 6.663780 5.379171
vt 6.660221 5.381291
vt 6.661331 5.376087
vt 6.658185 5.377698
vt 6.676703 5.348570
vt 6.666763 5.376273
vt 6.663832 5.373888
vt 6.673348 5.347367
vt 6.601629 5.352702
vt 6.601043 5.352956
vt 6.602570 5.348703
vt 6.605702 5.347864
vt 6.606009 5.351509
vt 6.609206 5.347367
vt 6.608975 5.351039
vt 6.612923 5.347379
vt 6.617255 5.347785
vt 6.614350 5.351110
vt 6.620177 5.348636
vt 6.623633 5.349832
vt 6.621226 5.352870
vt 6.626916 5.351603
vt 6.629991 5.353589
vt 6.626370 5.355601
vt 6.632743 5.356102
vt 6.634189 5.357487
vt 6.631372 5.360014
vt 6.635468 5.359062
vt 6.638691 5.364120
vt 6.655155 5.378431
vt 6.646120 5.376449
s 1
usemtl tile
f 106/1/1 107/2/2 38/3/2 37/4/3
f 125/5/4 127/6/4 128/7/4 129/8/4 123/9/4 124/10/4 126/11/4
f 81/12/5 77/13/6 119/14/7
f 51/15/8 57/16/9 46/17/10 45/18/8
f 59/19/11 107/20/12 106/21/13
f 98/22/14 99/23/15 32/24/16 31/25/17
f 54/26/18 53/27/19 43/28/19 42/29/18
f 85/30/20 20/31/20 19/32/21 84/33/22
f 79/34/23 81/35/23 82/36/23 80/37/24 17/38/24 16/39/23
f 101/40/25 102/41/26 35/42/27 34/43/28
f 99/23/15 100/44/29 33/45/30 32/24/16
f 57/16/9 58/46/31 59/47/32 47/48/32 46/17/10
f 4/49/33 51/15/8 45/18/8 1/50/33
f 70/51/34 9/52/34 8/53/35 69/54/35
f 16/55/19 15/56/19 78/57/19 79/58/19
f 72/59/36 11/60/36 10/61/37 71/62/37
f 65/63/38 64/64/38 97/65/38 96/66/38
f 61/67/38 60/68/38 104/69/38 103/70/38
f 93/71/39 28/72/39 27/73/40 92/74/40
f 86/75/41 21/76/41 20/31/20 85/30/20
f 124/77/19 121/78/19 120/79/19 126/80/19
f 125/81/42 126/82/42 120/83/42 119/84/42 115/85/42 114/86/42
f 107/2/2 108/87/43 39/88/43 38/3/2
f 109/89/44 58/90/44 57/91/44 56/92/44
f 108/87/43 109/93/45 56/94/46 40/95/47 39/88/43
f 84/33/22 19/32/21 18/96/48 83/97/48
f 89/98/49 24/99/50 23/100/51 88/101/51
f 95/102/52 30/103/52 29/104/53 94/105/53
f 92/74/40 27/73/40 26/106/54 91/107/54
f 74/108/55 13/109/55 12/110/56 73/111/56
f 116/112/57 115/85/57 119/84/57 118/113/57
f 87/114/58 22/115/58 21/76/41 86/75/41
f 75/116/59 14/117/59 13/109/55 74/108/55
f 36/118/60 35/42/27 104/119/61 105/120/60
f 91/107/54 26/106/54 25/121/62 90/122/62
f 55/123/63 54/26/18 42/29/18 41/124/63
f 67/125/64 6/126/64 5/127/65 66/128/65
f 83/97/48 18/96/48 17/38/24 80/37/24
f 97/129/66 98/22/14 31/25/17
f 62/130/67 63/131/68 50/132/69 49/133/70
f 100/44/29 101/40/25 34/43/28 33/45/30
f 111/134/71 110/135/71 123/136/71 129/137/71
f 95/102/52 96/138/72 97/129/66 31/25/17 30/103/52
f 47/48/32 59/47/32 60/139/73 48/140/74
f 69/54/35 8/53/35 7/141/75 68/142/75
f 94/105/53 29/104/53 28/72/39 93/71/39
f 88/101/51 23/100/51 22/115/58 87/114/58
f 102/41/26 103/143/76 104/119/61 35/42/27
f 68/142/75 7/141/75 6/126/64 67/125/64
f 105/120/60 106/1/1 37/4/3 36/118/60
f 112/144/77 111/145/77 129/146/77 128/147/77
f 71/62/37 10/61/37 9/52/34 70/51/34
f 52/148/38 3/149/78 2/150/78 44/151/38
f 101/152/79 100/153/80 62/154/81
f 3/149/78 4/49/33 1/50/33 2/150/78
f 77/155/82 78/156/83 15/157/83 14/117/59 75/116/59 76/158/82
f 90/122/62 25/121/62 24/99/50 89/98/49
f 54/159/84 55/160/85 4/161/86
f 73/111/56 12/110/56 11/60/36 72/59/36
f 113/162/87 112/144/87 128/147/87 127/163/87
f 121/164/88 124/165/88 81/35/88
f 81/35/88 124/165/88 82/36/89
f 43/166/90 53/167/90 52/168/90 44/169/90
f 56/94/46 55/123/63 41/124/63 40/95/47
f 124/165/88 123/136/89 110/135/89 82/36/89
f 64/170/91 65/171/91 66/128/65 5/127/65 50/132/69 63/131/68
f 73/172/12 72/173/92 84/174/86
f 114/86/93 113/162/93 127/163/93 125/81/93
f 61/175/94 62/130/67 49/133/70 48/140/74 60/139/73
f 76/158/82 117/176/95 122/177/95 77/155/82
f 117/176/96 116/112/96 118/113/96 122/177/96
f 36/178/97 48/179/98 35/180/6
f 120/181/99 121/182/99 119/14/7
f 121/182/99 81/12/5 119/14/7
f 81/12/5 79/183/100 78/184/100
f 77/13/6 122/185/101 119/14/7
f 122/185/101 118/186/98 119/14/7
f 81/12/5 78/184/100 77/13/6
f 104/187/102 60/188/103 105/189/104
f 60/188/103 59/19/11 105/189/104
f 59/19/11 58/190/105 107/20/12
f 58/190/105 109/191/106 108/192/107
f 58/190/105 108/192/107 107/20/12
f 106/21/13 105/189/104 59/19/11
f 97/193/108 64/194/109 98/195/110
f 64/194/109 63/196/111 98/195/110
f 63/196/111 62/154/81 99/197/112
f 62/154/81 61/198/113 101/152/79
f 99/197/112 62/154/81 100/153/80
f 61/198/113 103/199/114 102/200/115
f 61/198/113 102/200/115 101/152/79
f 98/195/110 63/196/111 99/197/112
f 55/160/85 56/201/116 51/202/117
f 56/201/116 57/203/118 51/202/117
f 51/202/117 4/161/86 55/160/85
f 4/161/86 3/204/105 54/159/84
f 3/204/105 52/205/92 54/159/84
f 52/205/92 53/206/92 54/159/84
f 94/207/92 93/208/119 68/209/120
f 93/208/119 92/210/121 68/209/120
f 92/210/121 91/211/122 69/212/92
f 91/211/122 90/213/123 69/212/92
f 90/213/123 89/214/124 70/215/125
f 89/214/124 88/216/86 70/215/125
f 88/216/86 87/217/123 71/218/126
f 87/217/123 86/219/126 71/218/126
f 86/219/126 85/220/127 72/173/92
f 85/220/127 84/174/86 72/173/92
f 84/174/86 83/221/128 73/172/12
f 83/221/128 80/222/129 73/172/12
f 82/223/129 110/224/130 115/225/11
f 110/224/130 111/226/11 114/227/12
f 80/222/129 82/223/129 74/228/131
f 74/228/131 82/223/129 75/229/132
f 71/218/126 86/219/126 72/173/92
f 95/230/125 94/207/92 67/231/11
f 65/232/11 96/233/11 66/234/133
f 96/233/11 95/230/125 66/234/133
f 67/231/11 66/234/133 95/230/125
f 68/209/120 67/231/11 94/207/92
f 90/213/123 70/215/125 69/212/92
f 69/212/92 68/209/120 92/210/121
f 111/226/11 112/235/128 114/227/12
f 112/235/128 113/236/128 114/227/12
f 110/224/130 114/227/12 115/225/11
f 115/225/11 116/237/128 117/238/121
f 71/218/126 70/215/125 88/216/86
f 82/223/129 115/225/11 76/239/92
f 75/229/132 82/223/129 76/239/92
f 115/225/11 117/238/121 76/239/92
f 80/222/129 74/228/131 73/172/12
f 46/240/5 47/241/100 38/242/5
f 47/241/100 48/179/98 36/178/97
f 37/243/134 47/241/100 36/178/97
f 48/179/98 49/244/135 34/245/101
f 49/244/135 50/246/6 32/247/136
f 48/179/98 34/245/101 35/180/6
f 50/246/6 5/248/5 31/249/134
f 5/248/5 6/250/137 30/251/137
f 31/249/134 5/248/5 30/251/137
f 6/250/137 7/252/98 29/253/100
f 47/241/100 37/243/134 38/242/5
f 1/254/138 45/255/7 41/256/139
f 45/255/7 46/240/5 40/257/140
f 44/258/136 2/259/141 42/260/139
f 2/259/141 1/254/138 42/260/139
f 42/260/139 43/261/136 44/258/136
f 14/262/142 15/263/143 16/264/144
f 16/264/144 17/265/5 13/266/98
f 17/265/5 18/267/145 12/268/139
f 13/266/98 17/265/5 12/268/139
f 18/267/145 19/269/146 12/268/139
f 19/269/146 20/270/147 11/271/146
f 20/270/147 21/272/7 11/271/146
f 21/272/7 22/273/7 10/274/148
f 22/273/7 23/275/135 10/274/148
f 23/275/135 24/276/149 9/277/135
f 24/276/149 25/278/7 9/277/135
f 25/278/7 26/279/150 8/280/99
f 9/277/135 25/278/7 8/280/99
f 26/279/150 27/281/137 8/280/99
f 27/281/137 28/282/151 7/252/98
f 27/281/137 7/252/98 8/280/99
f 28/282/151 29/253/100 7/252/98
f 23/275/135 9/277/135 10/274/148
f 19/269/146 11/271/146 12/268/139
f 21/272/7 10/274/148 11/271/146
f 14/262/142 16/264/144 13/266/98
f 29/253/100 30/251/137 6/250/137
f 41/256/139 42/260/139 1/254/138
f 40/257/140 41/256/139 45/255/7
f 39/283/139 40/257/140 46/240/5
f 50/246/6 31/249/134 32/247/136
f 38/242/5 39/283/139 46/240/5
f 32/247/136 33/284/138 49/244/135
f 33/284/138 34/245/101 49/244/135
