o isolated_plate_base_metal
usemtl roof_top
v 0.06527300179004669 0.10859499871730804 -0.2499990016222
v 0.0850910022854805 0.07859200239181519 -0.2500005066394806
v 0.0850910022854805 0.07859700173139572 -4.999999987376214e-7
v 0.06527300179004669 0.10859499871730804 -0.2499990016222
v 0.0850910022854805 0.07859700173139572 -4.999999987376214e-7
v 0.06527300179004669 0.10859999805688858 9.999999974752427e-7
v 0.1807270050048828 0.08109000325202942 -0.2499990016222
v 0.18299999833106995 0.07859200239181519 -0.2500005066394806
v 0.18300099670886993 0.07859700173139572 -4.999999987376214e-7
v 0.1807270050048828 0.08109000325202942 -0.2499990016222
v 0.18300099670886993 0.07859700173139572 -4.999999987376214e-7
v 0.1807270050048828 0.08109500259160995 9.999999974752427e-7
v 0.2807280123233795 0.08109000325202942 -0.2499990016222
v 0.28299999237060547 0.0785909965634346 -0.2500005066394806
v 0.28299999237060547 0.07859700173139572 -4.999999987376214e-7
v 0.2807280123233795 0.08109000325202942 -0.2499990016222
v 0.28299999237060547 0.07859700173139572 -4.999999987376214e-7
v 0.2807280123233795 0.08109500259160995 9.999999974752427e-7
v 0.18299999833106995 0.07859200239181519 -0.2500005066394806
v 0.2348179966211319 0.07859200239181519 -0.2500005066394806
v 0.2348179966211319 0.07859700173139572 -4.999999987376214e-7
v 0.18299999833106995 0.07859200239181519 -0.2500005066394806
v 0.2348179966211319 0.07859700173139572 -4.999999987376214e-7
v 0.18300099670886993 0.07859700173139572 -4.999999987376214e-7
v 0.0850910022854805 0.07859200239181519 -0.2500005066394806
v 0.13481800258159637 0.07859200239181519 -0.2500005066394806
v 0.13481800258159637 0.07859700173139572 -4.999999987376214e-7
v 0.0850910022854805 0.07859200239181519 -0.2500005066394806
v 0.13481800258159637 0.07859700173139572 -4.999999987376214e-7
v 0.0850910022854805 0.07859700173139572 -4.999999987376214e-7
v 0 0.07859200239181519 -0.2500005066394806
v 0.019818000495433807 0.10859499871730804 -0.2499990016222
v 0.019818000495433807 0.10859999805688858 9.999999974752427e-7
v 0 0.07859200239181519 -0.2500005066394806
v 0.019818000495433807 0.10859999805688858 9.999999974752427e-7
v 0 0.07859700173139572 -4.999999987376214e-7
v 0.13481800258159637 0.07859200239181519 -0.2500005066394806
v 0.1370909959077835 0.08109000325202942 -0.2499990016222
v 0.1370919942855835 0.08109500259160995 9.999999974752427e-7
v 0.13481800258159637 0.07859200239181519 -0.2500005066394806
v 0.1370919942855835 0.08109500259160995 9.999999974752427e-7
v 0.13481800258159637 0.07859700173139572 -4.999999987376214e-7
v 0.2348179966211319 0.07859200239181519 -0.2500005066394806
v 0.23709100484848022 0.08109000325202942 -0.2499990016222
v 0.23709100484848022 0.08109500259160995 9.999999974752427e-7
v 0.2348179966211319 0.07859200239181519 -0.2500005066394806
v 0.23709100484848022 0.08109500259160995 9.999999974752427e-7
v 0.2348179966211319 0.07859700173139572 -4.999999987376214e-7
v 0.1370909959077835 0.08109000325202942 -0.2499990016222
v 0.1807270050048828 0.08109000325202942 -0.2499990016222
v 0.1807270050048828 0.08109500259160995 9.999999974752427e-7
v 0.1370909959077835 0.08109000325202942 -0.2499990016222
v 0.1807270050048828 0.08109500259160995 9.999999974752427e-7
v 0.1370919942855835 0.08109500259160995 9.999999974752427e-7
v 0.28299999237060547 0.0785909965634346 -0.2500005066394806
v 0.33272698521614075 0.0785909965634346 -0.2500005066394806
v 0.33272698521614075 0.07859700173139572 -4.999999987376214e-7
v 0.28299999237060547 0.0785909965634346 -0.2500005066394806
v 0.33272698521614075 0.07859700173139572 -4.999999987376214e-7
v 0.28299999237060547 0.07859700173139572 -4.999999987376214e-7
v 0.019818000495433807 0.10859499871730804 -0.2499990016222
v 0.06527300179004669 0.10859499871730804 -0.2499990016222
v 0.06527300179004669 0.10859999805688858 9.999999974752427e-7
v 0.019818000495433807 0.10859499871730804 -0.2499990016222
v 0.06527300179004669 0.10859999805688858 9.999999974752427e-7
v 0.019818000495433807 0.10859999805688858 9.999999974752427e-7
v 0.23709100484848022 0.08109000325202942 -0.2499990016222
v 0.2807280123233795 0.08109000325202942 -0.2499990016222
v 0.2807280123233795 0.08109500259160995 9.999999974752427e-7
v 0.23709100484848022 0.08109000325202942 -0.2499990016222
v 0.2807280123233795 0.08109500259160995 9.999999974752427e-7
v 0.23709100484848022 0.08109500259160995 9.999999974752427e-7
vt 0.11164800077676773 0.5615509748458862
vt 0.11863700300455093 0.5615479946136475
vt 0.11863599717617035 1.1446419954299927
vt 0.11164800077676773 0.5615509748458862
vt 0.11863599717617035 1.1446419954299927
vt 0.11164700239896774 1.1446449756622314
vt 0.13743999600410461 0.5615509748458862
vt 0.13809600472450256 0.5615479946136475
vt 0.13809600472450256 1.1446419954299927
vt 0.13743999600410461 0.5615509748458862
vt 0.13809600472450256 1.1446419954299927
vt 0.13743899762630463 1.1446449756622314
vt 0.1573060005903244 0.5615509748458862
vt 0.15796199440956116 0.5615479946136475
vt 0.15796199440956116 1.1446419954299927
vt 0.1573060005903244 0.5615509748458862
vt 0.15796199440956116 1.1446419954299927
vt 0.15730500221252441 1.1446449756622314
vt 0.13809600472450256 0.5615479946136475
vt 0.14816699922084808 0.5615479946136475
vt 0.14816699922084808 1.1446419954299927
vt 0.13809600472450256 0.5615479946136475
vt 0.14816699922084808 1.1446419954299927
vt 0.13809600472450256 1.1446419954299927
vt 0.11863599717617035 0.5615479946136475
vt 0.12830199301242828 0.5615479946136475
vt 0.12830199301242828 1.1446419954299927
vt 0.11863599717617035 0.5615479946136475
vt 0.12830199301242828 1.1446419954299927
vt 0.11863599717617035 1.1446419954299927
vt 0.09582299739122391 0.5615479946136475
vt 0.10281199961900711 0.5615509748458862
vt 0.1028129979968071 1.1446449756622314
vt 0.09582299739122391 0.5615479946136475
vt 0.1028129979968071 1.1446449756622314
vt 0.09582400321960449 1.1446419954299927
vt 0.1283009946346283 0.5615479946136475
vt 0.12895800173282623 0.5615509748458862
vt 0.12895800173282623 1.1446449756622314
vt 0.1283009946346283 0.5615479946136475
vt 0.12895800173282623 1.1446449756622314
vt 0.12830199301242828 1.1446419954299927
vt 0.14816699922084808 0.5615479946136475
vt 0.14882299304008484 0.5615509748458862
vt 0.14882400631904602 1.1446449756622314
vt 0.14816699922084808 0.5615479946136475
vt 0.14882400631904602 1.1446449756622314
vt 0.14816699922084808 1.1446419954299927
vt 0.12895800173282623 0.5615509748458862
vt 0.13743899762630463 0.5615509748458862
vt 0.13743899762630463 1.1446449756622314
vt 0.12895800173282623 0.5615509748458862
vt 0.13743899762630463 1.1446449756622314
vt 0.12895800173282623 1.1446449756622314
vt 0.15796199440956116 0.5615479946136475
vt 0.1676270067691803 0.5615479946136475
vt 0.1676270067691803 1.1446419954299927
vt 0.15796199440956116 0.5615479946136475
vt 0.1676270067691803 1.1446419954299927
vt 0.15796199440956116 1.1446419954299927
vt 0.1028129979968071 0.5615509748458862
vt 0.11164700239896774 0.5615509748458862
vt 0.11164700239896774 1.1446449756622314
vt 0.1028129979968071 0.5615509748458862
vt 0.11164700239896774 1.1446449756622314
vt 0.1028129979968071 1.1446449756622314
vt 0.14882400631904602 0.5615509748458862
vt 0.15730500221252441 0.5615509748458862
vt 0.15730500221252441 1.1446449756622314
vt 0.14882400631904602 0.5615509748458862
vt 0.15730500221252441 1.1446449756622314
vt 0.14882400631904602 1.1446449756622314
vn -0.8343813221049055 -0.5511876353134838 0
vn -0.8343813221049055 -0.5511876353134838 0
vn -0.8343813221049055 -0.5511876353134838 0
vn -0.8343813221049055 -0.5511876353134838 0
vn -0.8343813221049055 -0.5511876353134838 0
vn -0.8343813221049055 -0.5511876353134838 0
vn -0.7396232514989877 -0.6730211332804232 0
vn -0.7396232514989877 -0.6730211332804232 0
vn -0.7396232514989877 -0.6730211332804232 0
vn -0.7396232514989877 -0.6730211332804232 0
vn -0.7396232514989877 -0.6730211332804232 0
vn -0.7396232514989877 -0.6730211332804232 0
vn -0.7397635648357537 -0.6728669022485039 0
vn -0.7397635648357537 -0.6728669022485039 0
vn -0.7397635648357537 -0.6728669022485039 0
vn -0.7397635648357537 -0.6728669022485039 0
vn -0.7397635648357537 -0.6728669022485039 0
vn -0.7397635648357537 -0.6728669022485039 0
vn 0 -1 0
vn 0 -1 0
vn 0 -1 0
vn 0 -1 0
vn 0 -1 0
vn 0 -1 0
vn 0 -1 0
vn 0 -1 0
vn 0 -1 0
vn 0 -1 0
vn 0 -1 0
vn 0 -1 0
vn 0.8343813221049055 -0.5511876353134838 0
vn 0.8343813221049055 -0.5511876353134838 0
vn 0.8343813221049055 -0.5511876353134838 0
vn 0.8343813221049055 -0.5511876353134838 0
vn 0.8343813221049055 -0.5511876353134838 0
vn 0.8343813221049055 -0.5511876353134838 0
vn 0.7396232514989877 -0.6730211332804232 0
vn 0.7396232514989877 -0.6730211332804232 0
vn 0.7396232514989877 -0.6730211332804232 0
vn 0.7396232514989877 -0.6730211332804232 0
vn 0.7396232514989877 -0.6730211332804232 0
vn 0.7396232514989877 -0.6730211332804232 0
vn 0.7396232514989877 -0.6730211332804232 0
vn 0.7396232514989877 -0.6730211332804232 0
vn 0.7396232514989877 -0.6730211332804232 0
vn 0.7396232514989877 -0.6730211332804232 0
vn 0.7396232514989877 -0.6730211332804232 0
vn 0.7396232514989877 -0.6730211332804232 0
vn 0 -1 0
vn 0 -1 0
vn 0 -1 0
vn 0 -1 0
vn 0 -1 0
vn 0 -1 0
vn 0 -1 0
vn 0 -1 0
vn 0 -1 0
vn 0 -1 0
vn 0 -1 0
vn 0 -1 0
vn 0 -1 0
vn 0 -1 0
vn 0 -1 0
vn 0 -1 0
vn 0 -1 0
vn 0 -1 0
vn 0 -1 0
vn 0 -1 0
vn 0 -1 0
vn 0 -1 0
vn 0 -1 0
vn 0 -1 0
f 1/1/1 2/2/2 3/3/3
f 4/4/4 5/5/5 6/6/6
f 7/7/7 8/8/8 9/9/9
f 10/10/10 11/11/11 12/12/12
f 13/13/13 14/14/14 15/15/15
f 16/16/16 17/17/17 18/18/18
f 19/19/19 20/20/20 21/21/21
f 22/22/22 23/23/23 24/24/24
f 25/25/25 26/26/26 27/27/27
f 28/28/28 29/29/29 30/30/30
f 31/31/31 32/32/32 33/33/33
f 34/34/34 35/35/35 36/36/36
f 37/37/37 38/38/38 39/39/39
f 40/40/40 41/41/41 42/42/42
f 43/43/43 44/44/44 45/45/45
f 46/46/46 47/47/47 48/48/48
f 49/49/49 50/50/50 51/51/51
f 52/52/52 53/53/53 54/54/54
f 55/55/55 56/56/56 57/57/57
f 58/58/58 59/59/59 60/60/60
f 61/61/61 62/62/62 63/63/63
f 64/64/64 65/65/65 66/66/66
f 67/67/67 68/68/68 69/69/69
f 70/70/70 71/71/71 72/72/72
