# Blender 4.0.2
# www.blender.org
mtllib tiled_roof_sturt_4500.mtl
o tiled_roof_sturt_4500
v 0.000000 1.037371 0.940915
v 0.000000 0.903569 1.100375
v 0.200000 0.903569 1.100375
v 0.200000 1.037371 0.940915
v -0.000000 0.200000 0.102492
v 0.200000 0.200000 0.102492
v 0.000000 0.200000 0.261942
v 0.200000 0.200000 0.261942
v -0.000000 0.200020 0.102482
v 0.200000 0.200020 0.102482
v -0.000000 0.333800 0.102482
v 0.200000 0.333800 0.102482
v 0.200000 1.037371 -0.940915
v 0.200000 0.903569 -1.100375
v 0.000000 0.903569 -1.100375
v 0.000000 1.037371 -0.940915
v 0.200000 0.200000 -0.102492
v -0.000000 0.200000 -0.102492
v 0.200000 0.200000 -0.261942
v -0.000000 0.200000 -0.261942
v 0.200000 0.200020 -0.102482
v -0.000000 0.200020 -0.102482
v 0.200000 0.333800 -0.102482
v -0.000000 0.333800 -0.102482
vn -0.0000 0.7660 -0.6428
vn -1.0000 -0.0000 -0.0000
vn -0.0000 -1.0000 -0.0000
vn -0.0000 -0.0000 -1.0000
vn 1.0000 -0.0000 -0.0000
vn -0.0000 -0.4471 -0.8945
vn -0.0000 0.7660 0.6428
vn -0.0000 -0.7660 0.6428
vn -0.0000 -0.0000 1.0000
vn -0.0000 -0.4475 0.8943
vn -0.0000 -0.7660 -0.6428
vt 0.040511 0.544604
vt 0.040511 0.606822
vt 0.193596 0.606822
vt 0.193596 0.544604
vt 0.655517 0.608267
vt 0.644272 0.544494
vt 0.303776 0.544503
vt 0.277025 0.576384
vt 0.277023 0.576391
vt 0.315022 0.608275
vt 0.315022 0.544403
vt 0.315022 0.482185
vt 0.277023 0.482185
vt 0.277023 0.544403
vt 0.040511 0.544604
vt 0.000007 0.544604
vt 0.000007 0.606822
vt 0.644272 0.480737
vt 0.655517 0.416964
vt 0.315021 0.416956
vt 0.277023 0.448841
vt 0.277025 0.448848
vt 0.303776 0.480728
vt -0.000000 0.544605
vt 0.000000 0.606822
vt 0.000007 0.544605
vt 0.095478 0.618280
vt 0.150680 0.610723
vt 0.143477 0.558392
vt 0.088582 0.565753
vt 0.315022 0.544403
vt 0.655516 0.544403
vt 0.655517 0.482185
vt 0.040511 0.583490
vt 0.040511 0.645708
vt 0.193596 0.645708
vt 0.193596 0.583490
vt 0.644272 0.544494
vt 0.315022 0.505517
vt 0.315022 0.443299
vt 0.277023 0.443299
vt 0.277023 0.505517
vt 0.000007 0.583490
vt 0.000007 0.645708
vt 0.040511 0.645708
vt 0.644272 0.480737
vt 0.277023 0.448841
vt 0.000000 0.583490
vt 0.000000 0.645712
vt 0.000007 0.645709
vt 0.091090 0.585501
vt 0.146260 0.577964
vt 0.139057 0.525633
vt 0.084194 0.532973
vt 0.315022 0.443299
vt 0.655517 0.505517
vt 0.655517 0.443299
s 0
usemtl wood
f 12/1/1 11/2/1 1/3/1 4/4/1
f 2/5/2 1/6/2 11/7/2 9/8/2 5/9/2 7/10/2
f 8/11/3 7/12/3 5/13/3 6/14/3
f 12/15/4 10/16/4 9/17/4 11/2/4
f 4/18/5 3/19/5 8/20/5 6/21/5 10/22/5 12/23/5
f 6/24/6 5/25/6 9/17/6 10/26/6
f 3/27/7 4/28/7 1/29/7 2/30/7
f 7/12/8 8/31/8 3/32/8 2/33/8
f 24/34/7 23/35/7 13/36/7 16/37/7
f 14/5/5 13/38/5 23/7/5 21/8/5 17/9/5 19/10/5
f 20/39/3 19/40/3 17/41/3 18/42/3
f 24/34/9 22/43/9 21/44/9 23/45/9
f 16/46/2 15/19/2 20/20/2 18/47/2 22/22/2 24/23/2
f 18/48/10 17/49/10 21/50/10 22/43/10
f 15/51/1 16/52/1 13/53/1 14/54/1
f 19/55/11 20/39/11 15/56/11 14/57/11
