# Blender 4.0.2
# www.blender.org
mtllib tri_window_6000.mtl
o tri_window_6000
v 0.002000 0.201286 2.559729
v 0.000000 0.202000 2.555766
v 0.002000 0.200000 2.559261
v 0.002000 2.261856 0.104033
v 0.002000 2.261142 0.102501
v 0.000000 2.258853 0.104501
v 0.002000 0.202000 0.102501
v 0.002000 0.200000 0.104501
v 0.000000 0.202000 0.104501
v 0.002000 0.246286 2.436092
v 0.002000 0.245000 2.435624
v 0.000000 0.243000 2.443119
v 0.002000 2.165354 0.149033
v 0.000000 2.170928 0.145501
v 0.002000 2.164639 0.147501
v 0.002000 0.247000 0.147501
v 0.000000 0.243000 0.145501
v 0.002000 0.245000 0.149501
v 0.035000 0.246286 2.436092
v 0.035000 0.245000 2.435624
v 0.035000 2.164639 0.147501
v 0.035000 2.165354 0.149033
v 0.035000 0.245000 0.149501
v 0.035000 0.247000 0.147501
v 0.068000 0.201286 2.559729
v 0.068000 0.200000 2.559261
v 0.070000 0.202000 2.555766
v 0.068000 2.261856 0.104033
v 0.070000 2.258853 0.104501
v 0.068000 2.261142 0.102501
v 0.068000 0.202000 0.102501
v 0.070000 0.202000 0.104501
v 0.068000 0.200000 0.104501
v 0.068000 0.246286 2.436092
v 0.070000 0.243000 2.443119
v 0.068000 0.245000 2.435624
v 0.068000 2.165354 0.149033
v 0.068000 2.164639 0.147501
v 0.070000 2.170928 0.145501
v 0.068000 0.247000 0.147501
v 0.068000 0.245000 0.149501
v 0.070000 0.243000 0.145501
v 0.002000 0.247000 -0.147501
v 0.002000 0.245000 -0.149501
v 0.000000 0.243000 -0.145501
v 0.002000 2.165354 -0.149033
v 0.002000 2.164639 -0.147501
v 0.000000 2.170928 -0.145501
v 0.002000 0.246286 -2.436092
v 0.000000 0.243000 -2.443119
v 0.002000 0.245000 -2.435624
v 0.002000 0.200000 -0.104501
v 0.002000 0.202000 -0.102501
v -0.000000 0.202000 -0.104501
v 0.002000 2.261142 -0.102501
v 0.002000 2.261856 -0.104033
v 0.000000 2.258853 -0.104501
v 0.002000 0.201286 -2.559729
v 0.002000 0.200000 -2.559261
v 0.000000 0.202000 -2.555766
v 0.035000 0.247000 -0.147501
v 0.035000 0.245000 -0.149501
v 0.035000 2.165354 -0.149033
v 0.035000 2.164639 -0.147501
v 0.035000 0.245000 -2.435624
v 0.035000 0.246286 -2.436092
v 0.068000 0.247000 -0.147501
v 0.070000 0.243000 -0.145501
v 0.068000 0.245000 -0.149501
v 0.068000 2.164639 -0.147501
v 0.068000 2.165354 -0.149033
v 0.070000 2.170928 -0.145501
v 0.068000 0.246286 -2.436092
v 0.068000 0.245000 -2.435624
v 0.070000 0.243000 -2.443119
v 0.068000 0.202000 -0.102501
v 0.068000 0.200000 -0.104501
v 0.070000 0.202000 -0.104501
v 0.068000 2.261142 -0.102501
v 0.070000 2.258853 -0.104501
v 0.068000 2.261856 -0.104033
v 0.068000 0.201286 -2.559729
v 0.070000 0.202000 -2.555766
v 0.068000 0.200000 -2.559261
vn -0.0000 -0.0000 1.0000
vn -0.0000 -1.0000 -0.0000
vn -0.0000 -0.7660 -0.6428
vn -0.0000 -0.0000 -1.0000
vn -0.0000 1.0000 -0.0000
vn -1.0000 -0.0000 -0.0000
vn 1.0000 -0.0000 -0.0000
vn -0.0000 -0.7660 0.6428
vn -0.0000 0.7660 -0.6428
vn -0.8930 -0.1540 0.4229
vn -0.8250 0.5121 -0.2389
vn -0.5773 -0.5773 -0.5774
vn -0.9681 0.0857 -0.2355
vn -0.9564 -0.2648 0.1235
vn -0.9045 0.3015 0.3015
vn 0.8930 -0.1540 0.4229
vn 0.8250 0.5121 -0.2389
vn 0.5774 -0.5774 -0.5774
vn 0.9681 0.0858 -0.2354
vn 0.9564 -0.2648 0.1235
vn 0.9045 0.3015 0.3015
vn -0.9045 0.3015 -0.3015
vn -0.9564 -0.2648 -0.1235
vn -0.9681 0.0857 0.2355
vn -0.5773 -0.5774 0.5774
vn -0.8250 0.5122 0.2389
vn -0.8930 -0.1538 -0.4229
vn 0.9045 0.3015 -0.3015
vn 0.9564 -0.2648 -0.1235
vn 0.9681 0.0858 0.2354
vn 0.5773 -0.5773 0.5774
vn 0.8250 0.5122 0.2389
vn 0.8930 -0.1540 -0.4229
vn -0.7071 -0.5417 -0.4545
vn -0.7071 -0.0000 0.7071
vn -0.7071 0.7071 -0.0000
vn -0.7071 0.5417 0.4545
vn -0.7071 -0.0000 -0.7071
vn -0.7071 -0.7071 -0.0000
vn -0.0000 0.7071 0.7071
vn -0.0000 0.3421 -0.9397
vn -0.0000 -0.9063 0.4227
vn 0.7071 -0.5417 -0.4545
vn 0.7071 -0.0000 0.7071
vn 0.7071 0.7071 -0.0000
vn 0.7071 0.5417 0.4545
vn 0.7071 -0.0000 -0.7071
vn 0.7071 -0.7071 -0.0000
vn -0.0000 -0.7071 -0.7071
vn -0.0000 -0.3421 0.9397
vn -0.0000 0.9063 -0.4227
vn -0.0000 0.9063 0.4227
vn -0.0000 -0.9063 -0.4227
vn -0.0000 -0.3421 -0.9397
vn -0.0000 0.7071 -0.7071
vn -0.0000 -0.7071 0.7071
vn -0.0000 0.3421 0.9397
vn -0.7071 -0.5417 0.4545
vn -0.7071 0.5417 -0.4545
vn 0.7071 -0.5417 0.4545
vn 0.7071 0.5417 -0.4545
vn -0.0000 0.7660 0.6428
vt 2.082869 2.030819
vt 2.082862 2.043300
vt 1.350143 2.042912
vt 1.350150 2.030430
vt 1.383276 1.659741
vt 0.445301 1.659741
vt 0.445301 1.634522
vt 1.383276 1.634522
vt 0.845417 1.878947
vt 0.845417 1.891502
vt -0.242288 1.891456
vt -0.242288 1.879001
vt 0.989164 1.700521
vt 1.775972 1.700520
vt 1.775972 1.725739
vt 0.989164 1.725740
vt 1.703409 1.851138
vt 0.615717 1.851139
vt 0.615717 1.838530
vt 1.703408 1.838529
vt 1.173048 1.950145
vt 1.173043 1.937664
vt 2.046563 1.937276
vt 2.046569 1.949757
vt 0.677917 1.815673
vt 0.693583 1.831339
vt -0.243056 1.831339
vt -0.200013 1.815672
vt 0.878437 1.890738
vt 0.844840 1.875072
vt 1.630774 1.875072
vt 1.615108 1.890738
vt 1.997070 2.068936
vt 1.264371 2.068936
vt 1.264371 2.056327
vt 1.997070 2.056327
vt 1.628307 1.811539
vt 0.750377 1.811539
vt 0.707334 1.795872
vt 1.643974 1.795873
vt 1.472431 1.855272
vt 2.209101 1.855272
vt 2.224768 1.870938
vt 1.438834 1.870939
vt 2.209101 1.855272
vt -0.199846 1.696873
vt 0.946209 1.696871
vt 0.979806 1.712538
vt -0.242888 1.712540
vt -0.242619 1.958093
vt 0.630884 1.958092
vt 0.630884 1.970702
vt -0.242619 1.970702
vt -0.199848 1.732340
vt -0.242891 1.716674
vt 0.979806 1.716672
vt 0.946209 1.732338
vt 1.703409 1.851138
vt 0.615717 1.851139
vt 1.173048 1.950145
vt 1.997070 2.068936
vt 1.264371 2.068936
vt 0.979806 1.712538
vt 1.383276 1.659741
vt 0.445301 1.659741
vt 0.445301 1.634522
vt 1.383276 1.634522
vt 0.529506 1.535522
vt 1.710000 1.535523
vt 1.710001 1.560742
vt 0.529506 1.560741
vt 1.775972 1.700520
vt 1.775972 1.725739
vt 0.989164 1.725740
vt -0.242619 1.958093
vt 0.630884 1.958092
vt 1.350149 2.030430
vt 0.693583 1.831339
vt -0.242288 1.879001
vt -0.244227 1.715909
vt -0.244316 1.716155
vt 0.988891 1.725740
vt 0.990039 1.726504
vt 1.384040 1.634522
vt 1.383276 1.633757
vt 1.172869 1.950145
vt 1.172284 1.950902
vt 0.846146 1.878186
vt 0.845677 1.878947
vt 1.613579 1.891502
vt 1.614344 1.891502
vt 0.445122 1.659741
vt 0.446637 1.660505
vt 0.980680 1.713302
vt 0.980817 1.713009
vt 1.775972 1.699756
vt 1.776736 1.700520
vt -0.196982 1.696109
vt -0.197160 1.696109
vt 1.264098 2.068936
vt 1.263607 2.069700
vt 0.631648 1.958092
vt 0.631648 1.957328
vt 1.997834 2.068936
vt 1.997834 2.069700
vt 1.264098 2.068936
vt 0.614988 1.851903
vt 0.615546 1.851139
vt 1.710264 1.535523
vt 1.709157 1.534758
vt 0.529334 1.535523
vt 0.530793 1.534758
vt 0.845677 1.878947
vt -0.242458 1.879001
vt -0.243016 1.878246
vt 1.776736 1.725739
vt 1.775972 1.726503
vt 0.988891 1.725740
vt 0.530793 1.561506
vt 0.529334 1.560741
vt 0.880840 1.891502
vt 2.047334 1.950513
vt 0.980681 1.715908
vt 0.843965 1.874308
vt 1.630774 1.874308
vt 0.446637 1.633758
vt 2.047328 1.937275
vt 2.047333 1.949757
vt 1.172284 1.950145
vt 1.172278 1.937664
vt 1.349379 2.042912
vt 1.349385 2.030430
vt 0.943806 1.696107
vt 1.474834 1.854508
vt 2.207573 1.854508
vt -0.243383 1.957329
vt -0.244224 1.713304
vt 0.990039 1.699756
vt 1.383276 1.660505
vt 0.446637 1.660505
vt 0.631648 1.970702
vt -0.243383 1.970702
vt -0.243383 1.958093
vt 1.263607 2.068936
vt 1.263607 2.056327
vt 1.384040 1.659741
vt 0.444537 1.659741
vt 0.444537 1.634523
vt 0.988400 1.725740
vt 0.988400 1.700521
vt 1.710737 1.535523
vt 1.710737 1.560742
vt 1.263607 2.068936
vt 0.528770 1.560741
vt 0.528770 1.535523
vt 0.705999 1.795108
vt 1.643974 1.795109
vt 1.997834 2.056327
vt 0.614988 1.851139
vt 0.614988 1.838530
vt 1.626779 1.812303
vt 0.753241 1.812303
vt 0.846146 1.878947
vt 0.846146 1.891502
vt 1.704137 1.851902
vt -0.243016 1.891456
vt -0.243016 1.879001
vt 2.047333 1.949757
vt -0.197149 1.814908
vt 0.676389 1.814909
vt 1.709158 1.561506
vt 0.529506 1.535522
vt 1.710001 1.535523
vt 1.710001 1.560742
vt 0.529506 1.560741
s 0
usemtl plastic_black
f 16/1/1 24/2/1 21/3/1 15/4/1
f 33/5/2 26/6/2 3/7/2 8/8/2
f 13/9/3 22/10/3 19/11/3 10/12/3
f 30/13/4 31/14/4 7/15/4 5/16/4
f 37/17/3 34/18/3 19/19/3 22/20/3
f 11/21/5 20/22/5 23/23/5 18/24/5
f 17/25/6 9/26/6 2/27/6 12/28/6
f 14/29/6 6/30/6 9/31/6 17/32/6
f 40/33/1 38/34/1 21/35/1 24/36/1
f 42/37/7 35/38/7 27/39/7 32/40/7
f 48/41/6 45/42/6 54/43/6 57/44/6
f 39/41/7 42/45/7 32/43/7 29/44/7
f 35/46/7 39/47/7 29/48/7 27/49/7
f 36/50/5 41/51/5 23/52/5 20/53/5
f 12/54/6 2/55/6 6/56/6 14/57/6
f 46/58/8 49/59/8 66/19/8 63/20/8
f 74/60/5 65/22/5 62/23/5 69/24/5
f 43/61/4 47/62/4 64/35/4 61/36/4
f 50/46/6 48/47/6 57/63/6 60/49/6
f 52/64/2 59/65/2 84/66/2 77/67/2
f 58/68/9 56/69/9 81/70/9 82/71/9
f 72/29/7 80/30/7 78/31/7 68/32/7
f 55/13/1 53/72/1 76/73/1 79/74/1
f 45/37/6 50/38/6 60/39/6 54/40/6
f 51/75/5 44/76/5 62/52/5 65/53/5
f 75/54/7 83/55/7 80/56/7 72/57/7
f 67/1/4 61/2/4 64/3/4 70/77/4
f 68/25/7 78/78/7 83/27/7 75/28/7
f 71/9/8 63/10/8 66/11/8 73/79/8
f 1/80/10 2/55/10 3/81/10
f 4/82/11 5/16/11 6/83/11
f 7/84/12 8/8/12 9/85/12
f 10/86/13 11/21/13 12/87/13
f 13/9/14 14/88/14 15/89/14
f 16/90/15 17/32/15 18/91/15
f 25/92/16 26/6/16 27/93/16
f 28/94/17 29/48/17 30/95/17
f 31/14/18 32/96/18 33/97/18
f 34/98/19 35/46/19 36/99/19
f 37/100/20 38/34/20 39/101/20
f 40/102/21 41/51/21 42/103/21
f 43/61/22 44/104/22 45/105/22
f 46/106/23 47/62/23 48/101/23
f 49/59/24 50/107/24 51/108/24
f 52/97/25 53/72/25 54/96/25
f 55/109/26 56/69/26 57/110/26
f 58/68/27 59/111/27 60/112/27
f 67/90/28 68/32/28 69/91/28
f 70/113/29 71/9/29 72/88/29
f 73/79/30 74/114/30 75/115/30
f 76/73/31 77/116/31 78/117/31
f 79/74/32 80/83/32 81/118/32
f 82/71/33 83/119/33 84/120/33
f 12/115/34 14/88/34 13/9/34 10/12/34
f 14/29/35 17/32/35 16/90/35 15/121/35
f 17/122/36 12/87/36 11/21/36 18/24/36
f 1/80/37 4/123/37 6/56/37 2/55/37
f 5/124/38 7/125/38 9/31/38 6/30/38
f 8/8/39 3/7/39 2/126/39 9/85/39
f 18/24/40 23/23/40 24/127/40 16/128/40
f 20/22/41 11/21/41 10/129/41 19/130/41
f 15/4/42 21/3/42 22/131/42 13/132/42
f 34/98/43 37/133/43 39/47/43 35/46/43
f 38/134/44 40/135/44 42/45/44 39/41/44
f 41/51/45 36/50/45 35/136/45 42/103/45
f 27/49/46 29/48/46 28/94/46 25/137/46
f 29/138/47 32/96/47 31/14/47 30/13/47
f 32/139/48 27/140/48 26/6/48 33/5/48
f 40/102/40 24/141/40 23/52/40 41/51/40
f 19/142/41 34/143/41 36/50/41 20/53/41
f 37/144/42 22/145/42 21/35/42 38/34/42
f 7/84/49 31/146/49 33/5/49 8/8/49
f 25/147/50 1/148/50 3/7/50 26/6/50
f 4/149/51 28/150/51 30/13/51 5/16/51
f 81/70/52 56/69/52 55/151/52 79/152/52
f 46/153/53 63/145/53 64/35/53 47/62/53
f 58/68/54 82/71/54 84/154/54 59/155/54
f 54/40/39 60/39/39 59/156/39 52/157/39
f 43/61/55 61/36/55 62/158/55 44/104/55
f 76/73/56 53/72/56 52/97/56 77/116/56
f 66/19/57 49/59/57 51/159/57 65/160/57
f 44/161/36 51/162/36 50/38/36 45/37/36
f 70/163/53 64/164/53 63/10/53 71/9/53
f 47/62/38 43/61/38 45/105/38 48/101/38
f 49/59/58 46/58/58 48/165/58 50/107/58
f 65/166/57 74/167/57 73/79/57 66/11/57
f 69/24/55 62/23/55 61/127/55 67/168/55
f 60/112/59 57/110/59 56/69/59 58/68/59
f 57/138/35 54/96/35 53/72/35 55/13/35
f 77/67/48 84/66/48 83/126/48 78/85/48
f 68/25/45 75/28/45 74/169/45 69/170/45
f 75/115/60 72/88/60 71/9/60 73/79/60
f 72/29/47 68/32/47 67/90/47 70/121/47
f 82/71/61 81/70/61 80/171/61 83/119/61
f 79/74/44 76/73/44 78/117/44 80/83/44
f 25/172/62 28/173/62 4/174/62 1/175/62
