# Blender 4.0.2
# www.blender.org
mtllib tri_window_5500.mtl
o tri_window_5500
v 0.002000 0.201286 2.309729
v 0.000000 0.202000 2.305766
v 0.002000 0.200000 2.309261
v 0.002000 2.052081 0.104033
v 0.002000 2.051367 0.102501
v 0.000000 2.049078 0.104501
v 0.002000 0.202000 0.102501
v 0.002000 0.200000 0.104501
v 0.000000 0.202000 0.104501
v 0.002000 0.246286 2.186092
v 0.002000 0.245000 2.185624
v 0.000000 0.243000 2.193119
v 0.002000 1.955578 0.149033
v 0.000000 1.961153 0.145501
v 0.002000 1.954864 0.147501
v 0.002000 0.247000 0.147501
v 0.000000 0.243000 0.145501
v 0.002000 0.245000 0.149501
v 0.035000 0.246286 2.186092
v 0.035000 0.245000 2.185624
v 0.035000 1.954864 0.147501
v 0.035000 1.955578 0.149033
v 0.035000 0.245000 0.149501
v 0.035000 0.247000 0.147501
v 0.068000 0.201286 2.309729
v 0.068000 0.200000 2.309261
v 0.070000 0.202000 2.305766
v 0.068000 2.052081 0.104033
v 0.070000 2.049078 0.104501
v 0.068000 2.051367 0.102501
v 0.068000 0.202000 0.102501
v 0.070000 0.202000 0.104501
v 0.068000 0.200000 0.104501
v 0.068000 0.246286 2.186092
v 0.070000 0.243000 2.193119
v 0.068000 0.245000 2.185624
v 0.068000 1.955578 0.149033
v 0.068000 1.954864 0.147501
v 0.070000 1.961153 0.145501
v 0.068000 0.247000 0.147501
v 0.068000 0.245000 0.149501
v 0.070000 0.243000 0.145501
v 0.002000 0.247000 -0.147501
v 0.002000 0.245000 -0.149501
v 0.000000 0.243000 -0.145501
v 0.002000 1.955578 -0.149033
v 0.002000 1.954864 -0.147501
v 0.000000 1.961153 -0.145501
v 0.002000 0.246286 -2.186092
v 0.000000 0.243000 -2.193119
v 0.002000 0.245000 -2.185624
v 0.002000 0.200000 -0.104501
v 0.002000 0.202000 -0.102501
v -0.000000 0.202000 -0.104501
v 0.002000 2.051367 -0.102501
v 0.002000 2.052081 -0.104033
v 0.000000 2.049078 -0.104501
v 0.002000 0.201286 -2.309729
v 0.002000 0.200000 -2.309261
v 0.000000 0.202000 -2.305766
v 0.035000 0.247000 -0.147501
v 0.035000 0.245000 -0.149501
v 0.035000 1.955578 -0.149033
v 0.035000 1.954864 -0.147501
v 0.035000 0.245000 -2.185624
v 0.035000 0.246286 -2.186092
v 0.068000 0.247000 -0.147501
v 0.070000 0.243000 -0.145501
v 0.068000 0.245000 -0.149501
v 0.068000 1.954864 -0.147501
v 0.068000 1.955578 -0.149033
v 0.070000 1.961153 -0.145501
v 0.068000 0.246286 -2.186092
v 0.068000 0.245000 -2.185624
v 0.070000 0.243000 -2.193119
v 0.068000 0.202000 -0.102501
v 0.068000 0.200000 -0.104501
v 0.070000 0.202000 -0.104501
v 0.068000 2.051367 -0.102501
v 0.070000 2.049078 -0.104501
v 0.068000 2.052081 -0.104033
v 0.068000 0.201286 -2.309729
v 0.070000 0.202000 -2.305766
v 0.068000 0.200000 -2.309261
vn -0.0000 -0.0000 1.0000
vn -0.0000 -1.0000 -0.0000
vn -0.0000 -0.7660 -0.6428
vn -0.0000 -0.0000 -1.0000
vn -0.0000 1.0000 -0.0000
vn -1.0000 -0.0000 -0.0000
vn 1.0000 -0.0000 -0.0000
vn -0.0000 -0.7660 0.6428
vn -0.0000 0.7660 -0.6428
vn -0.8930 -0.1540 0.4229
vn -0.8250 0.5122 -0.2389
vn -0.5773 -0.5773 -0.5774
vn -0.9681 0.0857 -0.2355
vn -0.9563 -0.2649 0.1235
vn -0.9045 0.3015 0.3015
vn 0.8930 -0.1540 0.4229
vn 0.8250 0.5121 -0.2389
vn 0.5774 -0.5774 -0.5774
vn 0.9681 0.0858 -0.2354
vn 0.9563 -0.2649 0.1235
vn 0.9045 0.3015 0.3015
vn -0.9045 0.3015 -0.3015
vn -0.9563 -0.2649 -0.1235
vn -0.9681 0.0858 0.2354
vn -0.5773 -0.5773 0.5774
vn -0.8250 0.5122 0.2389
vn -0.8930 -0.1538 -0.4229
vn 0.9045 0.3015 -0.3015
vn 0.9563 -0.2649 -0.1235
vn 0.9681 0.0858 0.2354
vn 0.5773 -0.5773 0.5774
vn 0.8250 0.5122 0.2389
vn 0.8930 -0.1540 -0.4229
vn -0.7071 -0.5417 -0.4545
vn -0.7071 -0.0000 0.7071
vn -0.7071 0.7071 -0.0000
vn -0.7071 0.5417 0.4545
vn -0.7071 -0.0000 -0.7071
vn -0.7071 -0.7071 -0.0000
vn -0.0000 0.7071 0.7071
vn -0.0000 0.3421 -0.9397
vn -0.0000 -0.9063 0.4226
vn 0.7071 -0.5417 -0.4545
vn 0.7071 -0.0000 0.7071
vn 0.7071 0.7071 -0.0000
vn 0.7071 0.5417 0.4545
vn 0.7071 -0.0000 -0.7071
vn 0.7071 -0.7071 -0.0000
vn -0.0000 -0.7071 -0.7071
vn -0.0000 -0.3421 0.9397
vn -0.0000 0.9063 -0.4227
vn -0.0000 0.9063 0.4227
vn -0.0000 -0.9063 -0.4226
vn -0.0000 -0.3421 -0.9397
vn -0.0000 0.7071 -0.7071
vn -0.0000 -0.7071 0.7071
vn -0.0000 0.3420 0.9397
vn -0.7071 -0.5417 0.4545
vn -0.0000 0.3421 0.9397
vn -0.7071 0.5417 -0.4545
vn 0.7071 -0.5417 0.4545
vn 0.7071 0.5417 -0.4545
vn -0.0000 0.7660 0.6428
vt 0.413086 2.011019
vt 0.413079 2.023501
vt -0.239486 2.023155
vt -0.239479 2.010673
vt 1.257877 1.692740
vt 0.415429 1.692740
vt 0.415428 1.667522
vt 1.257877 1.667521
vt 1.706706 1.898743
vt 1.706706 1.911302
vt 0.734829 1.911250
vt 0.734829 1.898801
vt 0.864722 1.766520
vt 1.571374 1.766519
vt 1.571375 1.791739
vt 0.864723 1.791739
vt 0.726616 1.910537
vt -0.245249 1.910538
vt -0.245249 1.897929
vt 0.726616 1.897928
vt -0.239512 2.042544
vt -0.239518 2.030063
vt 0.538479 2.029717
vt 0.538485 2.042198
vt 1.413810 1.855272
vt 1.429476 1.870939
vt 0.588363 1.870938
vt 0.631405 1.855272
vt 1.668086 1.894038
vt 1.634489 1.878372
vt 2.340266 1.878372
vt 2.324600 1.894038
vt 2.511865 1.989737
vt 1.859318 1.989737
vt 1.859318 1.977128
vt 2.511865 1.977128
vt 0.582218 1.870938
vt -0.200186 1.870938
vt -0.243229 1.855272
vt 0.597884 1.855272
vt 0.489998 1.934471
vt 1.146512 1.934471
vt 1.162179 1.950137
vt 0.456401 1.950138
vt 1.146512 1.934471
vt 1.162179 1.950137
vt -0.200545 1.756273
vt 0.820811 1.756272
vt 0.854407 1.771938
vt -0.243588 1.771939
vt 0.552496 2.030692
vt 1.330477 2.030692
vt 1.330477 2.043301
vt 0.552496 2.043301
vt -0.200547 1.752140
vt -0.243589 1.736473
vt 0.854407 1.736472
vt 0.820811 1.752138
vt 0.726616 1.910537
vt -0.245249 1.910538
vt 0.726616 1.897928
vt 2.511865 1.989737
vt 1.859318 1.989737
vt 1.257878 1.692740
vt 0.415429 1.692740
vt 0.415428 1.667522
vt 1.257877 1.667521
vt 0.501589 1.568522
vt 1.564800 1.568522
vt 1.564800 1.593741
vt 0.501589 1.593741
vt 0.864723 1.766520
vt 1.571374 1.766519
vt 1.571375 1.791739
vt 0.864722 1.791739
vt 1.330477 2.030692
vt 1.429476 1.870939
vt 1.706706 1.898743
vt 0.734829 1.898801
vt -0.244925 1.735709
vt -0.245014 1.735955
vt 0.864450 1.791739
vt 0.865597 1.792503
vt 1.258641 1.667521
vt 1.257877 1.666757
vt -0.239691 2.042544
vt -0.240276 2.043301
vt 1.707437 1.897982
vt 1.706967 1.898743
vt 2.323072 1.894802
vt 2.323836 1.894802
vt 0.415250 1.692740
vt 0.416764 1.693504
vt 0.855282 1.772702
vt 0.855418 1.772410
vt 1.571374 1.765755
vt 1.572139 1.766519
vt -0.197681 1.755509
vt -0.197860 1.755509
vt 1.859045 1.989737
vt 1.858554 1.990501
vt 1.331241 2.030692
vt 1.331241 2.029927
vt 2.512629 1.989737
vt 2.512629 1.990501
vt 1.859045 1.989737
vt -0.245980 1.911302
vt -0.245420 1.910538
vt 1.571374 1.765755
vt 1.565063 1.568522
vt 1.563955 1.567758
vt 0.501416 1.568522
vt 0.502880 1.567758
vt 1.706967 1.898743
vt 0.734658 1.898801
vt 0.734098 1.898047
vt 1.572139 1.791739
vt 1.571375 1.792503
vt 0.864449 1.791739
vt 0.502880 1.594505
vt 0.501416 1.593741
vt 1.670489 1.894802
vt 0.539249 2.042954
vt 0.855282 1.735708
vt 1.633614 1.877608
vt 2.340266 1.877608
vt 0.416764 1.666758
vt 0.539243 2.029716
vt 0.539249 2.042198
vt -0.240276 2.042544
vt -0.240282 2.030063
vt -0.240250 2.023154
vt -0.240244 2.010673
vt 0.818408 1.755508
vt 0.492401 1.933707
vt 1.144984 1.933707
vt 0.551732 2.029927
vt -0.244923 1.772704
vt 0.865597 1.765756
vt 1.257877 1.693504
vt 1.331241 2.043301
vt 0.551732 2.043301
vt 0.551732 2.030692
vt 1.858554 1.989737
vt 1.858554 1.977128
vt 1.258642 1.692740
vt 0.414664 1.692740
vt 0.414664 1.667522
vt 0.863958 1.791739
vt 0.863958 1.766520
vt 1.565538 1.568522
vt 1.565539 1.593741
vt 1.858554 1.989737
vt 0.500851 1.593741
vt 0.500851 1.568522
vt -0.244565 1.854508
vt 0.597884 1.854508
vt 2.512629 1.977128
vt -0.245980 1.910538
vt -0.245980 1.897929
vt 0.580690 1.871703
vt -0.197323 1.871702
vt 1.707437 1.898743
vt 1.707437 1.911302
vt 0.727347 1.911301
vt 0.734098 1.911250
vt 0.734098 1.898801
vt 0.634269 1.854508
vt 1.412281 1.854508
vt 1.563955 1.594506
vt 1.571374 1.792503
vt 0.501589 1.568522
vt 1.564800 1.568523
vt 0.501589 1.593741
s 0
usemtl plastic_black
f 16/1/1 24/2/1 21/3/1 15/4/1
f 33/5/2 26/6/2 3/7/2 8/8/2
f 13/9/3 22/10/3 19/11/3 10/12/3
f 30/13/4 31/14/4 7/15/4 5/16/4
f 37/17/3 34/18/3 19/19/3 22/20/3
f 11/21/5 20/22/5 23/23/5 18/24/5
f 17/25/6 9/26/6 2/27/6 12/28/6
f 14/29/6 6/30/6 9/31/6 17/32/6
f 40/33/1 38/34/1 21/35/1 24/36/1
f 42/37/7 35/38/7 27/39/7 32/40/7
f 48/41/6 45/42/6 54/43/6 57/44/6
f 39/41/7 42/45/7 32/46/7 29/44/7
f 35/47/7 39/48/7 29/49/7 27/50/7
f 36/51/5 41/52/5 23/53/5 20/54/5
f 12/55/6 2/56/6 6/57/6 14/58/6
f 46/59/8 49/60/8 66/19/8 63/61/8
f 74/21/5 65/22/5 62/23/5 69/24/5
f 43/62/4 47/63/4 64/35/4 61/36/4
f 50/47/6 48/48/6 57/49/6 60/50/6
f 52/64/2 59/65/2 84/66/2 77/67/2
f 58/68/9 56/69/9 81/70/9 82/71/9
f 72/29/7 80/30/7 78/31/7 68/32/7
f 55/72/1 53/73/1 76/74/1 79/75/1
f 45/37/6 50/38/6 60/39/6 54/40/6
f 51/51/5 44/76/5 62/53/5 65/54/5
f 75/55/7 83/56/7 80/57/7 72/58/7
f 67/1/4 61/2/4 64/3/4 70/4/4
f 68/25/7 78/77/7 83/27/7 75/28/7
f 71/78/8 63/10/8 66/11/8 73/79/8
f 1/80/10 2/56/10 3/81/10
f 4/82/11 5/16/11 6/83/11
f 7/84/12 8/8/12 9/85/12
f 10/86/13 11/21/13 12/87/13
f 13/9/14 14/88/14 15/89/14
f 16/90/15 17/32/15 18/91/15
f 25/92/16 26/6/16 27/93/16
f 28/94/17 29/49/17 30/95/17
f 31/14/18 32/96/18 33/97/18
f 34/98/19 35/47/19 36/99/19
f 37/100/20 38/34/20 39/101/20
f 40/102/21 41/52/21 42/103/21
f 43/62/22 44/104/22 45/105/22
f 46/106/23 47/63/23 48/101/23
f 49/60/24 50/107/24 51/108/24
f 52/97/25 53/73/25 54/109/25
f 55/110/26 56/69/26 57/111/26
f 58/68/27 59/112/27 60/113/27
f 67/90/28 68/32/28 69/91/28
f 70/114/29 71/78/29 72/88/29
f 73/79/30 74/115/30 75/116/30
f 76/74/31 77/117/31 78/118/31
f 79/75/32 80/83/32 81/119/32
f 82/71/33 83/120/33 84/121/33
f 12/116/34 14/88/34 13/9/34 10/12/34
f 14/29/35 17/32/35 16/90/35 15/122/35
f 17/123/36 12/87/36 11/21/36 18/24/36
f 1/80/37 4/124/37 6/57/37 2/56/37
f 5/125/38 7/126/38 9/31/38 6/30/38
f 8/8/39 3/7/39 2/127/39 9/85/39
f 18/24/40 23/23/40 24/128/40 16/129/40
f 20/22/41 11/21/41 10/130/41 19/131/41
f 15/4/42 21/3/42 22/132/42 13/133/42
f 34/98/43 37/134/43 39/48/43 35/47/43
f 38/135/44 40/136/44 42/45/44 39/41/44
f 41/52/45 36/51/45 35/137/45 42/103/45
f 27/50/46 29/49/46 28/94/46 25/138/46
f 29/139/47 32/96/47 31/14/47 30/13/47
f 32/140/48 27/93/48 26/6/48 33/5/48
f 40/102/40 24/141/40 23/53/40 41/52/40
f 19/142/41 34/143/41 36/51/41 20/54/41
f 37/144/42 22/145/42 21/35/42 38/34/42
f 7/84/49 31/146/49 33/5/49 8/8/49
f 25/147/50 1/148/50 3/7/50 26/6/50
f 4/149/51 28/150/51 30/13/51 5/16/51
f 81/70/52 56/69/52 55/151/52 79/152/52
f 46/153/53 63/145/53 64/35/53 47/63/53
f 58/68/54 82/71/54 84/154/54 59/155/54
f 54/40/39 60/39/39 59/156/39 52/157/39
f 43/62/55 61/36/55 62/158/55 44/104/55
f 76/74/56 53/73/56 52/97/56 77/117/56
f 66/19/57 49/60/57 51/159/57 65/160/57
f 44/161/36 51/162/36 50/38/36 45/37/36
f 70/163/53 64/164/53 63/10/53 71/78/53
f 47/63/38 43/62/38 45/105/38 48/101/38
f 49/60/58 46/59/58 48/165/58 50/107/58
f 65/166/59 74/167/59 73/79/59 66/11/59
f 69/24/55 62/23/55 61/128/55 67/129/55
f 60/113/60 57/111/60 56/69/60 58/68/60
f 57/139/35 54/96/35 53/73/35 55/72/35
f 77/67/48 84/66/48 83/127/48 78/85/48
f 68/25/45 75/28/45 74/168/45 69/169/45
f 75/116/61 72/88/61 71/78/61 73/79/61
f 72/29/47 68/32/47 67/90/47 70/122/47
f 82/71/62 81/70/62 80/170/62 83/120/62
f 79/75/44 76/74/44 78/171/44 80/83/44
f 25/172/63 28/173/63 4/70/63 1/174/63
