# Blender 4.0.2
# www.blender.org
mtllib tile-01-side1.mtl
o tile-01-side1
v -0.235230 0.324413 0.412549
v -0.244788 0.306076 0.421765
v -0.239160 0.287127 0.341632
v -0.249143 0.268790 0.350849
v -0.226618 0.302804 0.333754
v -0.223612 0.340090 0.404670
v -0.206630 0.350446 0.399469
v -0.208547 0.313160 0.328551
v -0.187501 0.317006 0.326615
v -0.186618 0.354292 0.397532
v -0.166126 0.350446 0.399469
v -0.166365 0.313160 0.328551
v -0.147985 0.302804 0.333754
v -0.147975 0.340091 0.404670
v -0.135115 0.324413 0.412549
v -0.135115 0.287127 0.341631
v -0.125001 0.268790 0.350849
v -0.125001 0.306076 0.421765
v -0.000001 0.306076 0.421767
v -0.010115 0.287739 0.430985
v -0.022985 0.272062 0.438862
v -0.022985 0.234775 0.367944
v -0.010115 0.250453 0.360067
v -0.000001 0.268790 0.350849
v -0.041365 0.261708 0.444067
v -0.062501 0.257861 0.446002
v -0.062501 0.220575 0.375084
v -0.041365 0.224421 0.373151
v -0.083637 0.261708 0.444067
v -0.102017 0.272062 0.438862
v -0.102017 0.234775 0.367944
v -0.083637 0.224421 0.373151
v -0.114887 0.287739 0.430985
v -0.114887 0.250453 0.360067
v -0.225723 0.096534 -0.049766
v -0.239024 0.079762 -0.041336
v -0.187501 0.110735 -0.056903
v -0.207774 0.107045 -0.055048
v -0.149545 0.097016 -0.050008
v -0.167228 0.107045 -0.055048
v -0.127026 0.063530 -0.033178
v -0.137041 0.081688 -0.042304
v -0.000001 0.059860 -0.031332
v -0.009252 0.043087 -0.022903
v -0.021690 0.028505 -0.015575
v -0.040502 0.018307 -0.010448
v -0.062501 0.014302 -0.008436
v -0.084500 0.018307 -0.010448
v -0.103578 0.028987 -0.015817
v -0.116812 0.045013 -0.023870
v -0.227018 0.130550 0.006138
v -0.227018 0.101214 -0.049658
v -0.239887 0.085537 -0.041779
v -0.239887 0.114873 0.014017
v -0.250001 0.067199 -0.032563
v -0.250001 0.096536 0.023233
v -0.239750 0.084260 -0.042982
v -0.226813 0.100110 -0.050948
v -0.187501 0.144752 -0.001000
v -0.187501 0.115415 -0.056796
v -0.208637 0.111568 -0.054862
v -0.208637 0.140905 0.000934
v -0.208500 0.110489 -0.056165
v -0.187501 0.114311 -0.058086
v -0.147985 0.130550 0.006138
v -0.147985 0.101214 -0.049658
v -0.166365 0.111568 -0.054862
v -0.166365 0.140905 0.000933
v -0.166502 0.110489 -0.056165
v -0.148232 0.100186 -0.050986
v -0.125001 0.096536 0.023233
v -0.125001 0.067199 -0.032563
v -0.135115 0.085537 -0.041779
v -0.135115 0.114873 0.014017
v -0.135420 0.084564 -0.043135
v -0.125322 0.066255 -0.033933
v -0.000001 0.096536 0.023233
v -0.000001 0.067199 -0.032563
v -0.010115 0.048862 -0.023346
v -0.010115 0.078198 0.032450
v -0.022985 0.033185 -0.015466
v -0.022985 0.062522 0.040330
v -0.022780 0.032081 -0.016756
v -0.009979 0.047585 -0.024548
v -0.000001 0.065674 -0.033641
v -0.041365 0.022830 -0.010263
v -0.041365 0.052166 0.045533
v -0.062501 0.018983 -0.008328
v -0.062501 0.048320 0.047468
v -0.062501 0.017879 -0.009618
v -0.041228 0.021751 -0.011565
v -0.083637 0.022830 -0.010263
v -0.083637 0.052166 0.045533
v -0.102018 0.033185 -0.015466
v -0.102018 0.062522 0.040330
v -0.102265 0.032158 -0.016795
v -0.083774 0.021751 -0.011565
v -0.114887 0.048862 -0.023346
v -0.114887 0.078198 0.032450
v -0.115192 0.047890 -0.024701
v -0.239340 0.082474 -0.042698
v -0.226197 0.098844 -0.050926
v -0.208090 0.109297 -0.056180
v -0.187501 0.113045 -0.058064
v -0.166912 0.109297 -0.056180
v -0.148973 0.099149 -0.051080
v -0.136335 0.083693 -0.043312
v -0.126284 0.065469 -0.034153
v -0.022164 0.030816 -0.016735
v -0.009568 0.045799 -0.024265
v -0.000001 0.063144 -0.032984
v -0.062501 0.016613 -0.009596
v -0.040818 0.020559 -0.011581
v -0.103006 0.031121 -0.016888
v -0.084184 0.020559 -0.011581
v -0.116107 0.047019 -0.024878
v -0.226759 0.084711 -0.043824
v -0.239715 0.068816 -0.035834
v -0.208465 0.095097 -0.049043
v -0.187501 0.098913 -0.050961
v -0.166537 0.095097 -0.049043
v -0.148296 0.084807 -0.043872
v -0.135499 0.069200 -0.036028
v -0.239887 0.200837 0.177513
v -0.250001 0.182499 0.186730
v -0.227017 0.216513 0.169635
v -0.208637 0.226868 0.164430
v -0.187501 0.230715 0.162497
v -0.166365 0.226868 0.164430
v -0.147985 0.216514 0.169634
v -0.135115 0.200837 0.177513
v -0.125001 0.182499 0.186730
v -0.010115 0.164161 0.195946
v -0.022985 0.148485 0.203826
v -0.000001 0.182499 0.186730
v -0.041365 0.138130 0.209030
v -0.062501 0.134284 0.210965
v -0.083637 0.138130 0.209030
v -0.102017 0.148485 0.203827
v -0.114887 0.164162 0.195947
v -0.000001 0.050166 -0.026461
v -0.009943 0.032141 -0.017401
v -0.022726 0.016683 -0.009632
v -0.041193 0.006358 -0.004444
v -0.062501 0.002481 -0.002493
v -0.083809 0.006358 -0.004444
v -0.102329 0.016779 -0.009680
v -0.115271 0.032525 -0.017594
v -0.125405 0.050898 -0.026829
v -0.244842 0.184453 0.485747
v -0.245677 0.141881 0.413885
v -0.247877 0.063711 -0.033267
v -0.247937 -0.066850 0.032310
v -0.250001 -0.066016 0.034672
v -0.249371 -0.036680 0.090467
v -0.249466 0.066645 -0.034129
v -0.250017 -0.066781 0.033211
v -0.248750 0.065413 -0.034124
v -0.249155 -0.066845 0.032310
v -0.245301 0.058687 -0.030744
v -0.244339 -0.066864 0.032313
v -0.247525 0.049284 0.253965
vn -0.9756 0.2096 -0.0656
vn -0.8642 0.4621 -0.1992
vn -0.8614 0.4603 -0.2149
vn -0.9766 0.2001 -0.0792
vn -0.6949 0.6434 -0.3213
vn -0.6979 0.6457 -0.3099
vn -0.3818 0.8224 -0.4217
vn -0.3818 0.8204 -0.4256
vn -0.0015 0.8857 -0.4642
vn 0.0020 0.8856 -0.4644
vn 0.3758 0.8194 -0.4329
vn 0.3743 0.8204 -0.4324
vn 0.6832 0.6466 -0.3393
vn 0.6822 0.6466 -0.3414
vn 0.8546 0.4585 -0.2437
vn 0.8545 0.4606 -0.2403
vn 0.8978 0.3899 -0.2048
vn 0.8969 0.3910 -0.2066
vn -0.6826 0.6472 -0.3394
vn -0.6831 0.6463 -0.3401
vn -0.8547 0.4594 -0.2417
vn -0.8545 0.4606 -0.2402
vn -0.8980 0.3893 -0.2051
vn -0.8978 0.3898 -0.2048
vn -0.0000 0.8854 -0.4648
vn 0.0010 0.8851 -0.4654
vn -0.3721 0.8215 -0.4321
vn -0.3730 0.8211 -0.4320
vn 0.6826 0.6472 -0.3394
vn 0.6826 0.6461 -0.3415
vn 0.3715 0.8217 -0.4322
vn 0.3731 0.8211 -0.4321
vn 0.8549 0.4585 -0.2427
vn 0.8544 0.4607 -0.2402
vn -0.0000 -0.4490 -0.8935
vn -0.0000 -0.4491 -0.8935
vn -0.0002 -0.4490 -0.8936
vn -0.0000 -0.4488 -0.8936
vn 0.0005 -0.4493 -0.8934
vn 0.0001 -0.4491 -0.8935
vn -0.0001 -0.4491 -0.8935
vn -0.0002 -0.4490 -0.8935
vn -0.0000 -0.4489 -0.8936
vn -0.0001 -0.4489 -0.8936
vn 0.0002 -0.4490 -0.8935
vn -0.0004 -0.4488 -0.8936
vn 0.0001 -0.4490 -0.8935
vn -0.6825 0.6472 -0.3395
vn -0.6733 0.5905 -0.4450
vn -0.8461 0.4053 -0.3463
vn -0.8545 0.4606 -0.2403
vn -0.9730 0.1465 -0.1785
vn -0.9746 0.1993 -0.1019
vn -0.6645 0.0787 -0.7431
vn -0.5317 0.2291 -0.8154
vn -0.0000 0.8853 -0.4649
vn -0.0000 0.8283 -0.5603
vn -0.3696 0.7627 -0.5307
vn -0.2952 0.3778 -0.8776
vn -0.0000 0.4409 -0.8976
vn 0.6827 0.6471 -0.3393
vn 0.6762 0.5936 -0.4364
vn 0.3703 0.7644 -0.5278
vn 0.2954 0.3859 -0.8740
vn 0.5428 0.2478 -0.8025
vn 0.8977 0.3900 -0.2049
vn 0.8906 0.3387 -0.3037
vn 0.8484 0.4062 -0.3394
vn 0.6740 0.0908 -0.7331
vn 0.7010 0.0275 -0.7126
vn -0.8978 0.3899 -0.2048
vn -0.8931 0.3462 -0.2872
vn -0.8513 0.3978 -0.3422
vn -0.8544 0.4607 -0.2402
vn -0.6773 0.5830 -0.4487
vn -0.5005 0.1773 -0.8474
vn -0.6528 0.0590 -0.7552
vn -0.8277 0.1893 -0.5282
vn -0.3707 0.7611 -0.5324
vn -0.0000 0.8265 -0.5629
vn -0.0000 0.8851 -0.4654
vn -0.0000 0.3781 -0.9258
vn -0.2756 0.3229 -0.9054
vn 0.3695 0.7627 -0.5307
vn 0.3728 0.8212 -0.4320
vn 0.6766 0.5901 -0.4405
vn 0.6826 0.6472 -0.3395
vn 0.5126 0.1972 -0.8357
vn 0.2795 0.3306 -0.9014
vn 0.8494 0.4050 -0.3383
vn 0.8545 0.4605 -0.2403
vn 0.6586 0.0710 -0.7492
vn -0.2011 -0.3393 -0.9189
vn -0.1615 -0.2920 -0.9427
vn -0.0905 -0.2360 -0.9675
vn -0.0000 -0.2126 -0.9771
vn 0.0905 -0.2323 -0.9684
vn 0.1695 -0.2760 -0.9461
vn 0.2012 -0.3274 -0.9232
vn 0.2010 -0.3509 -0.9146
vn -0.1180 -0.3187 -0.9405
vn -0.1616 -0.3426 -0.9255
vn -0.3388 -0.2679 -0.9019
vn -0.0000 -0.2674 -0.9636
vn -0.0703 -0.2797 -0.9575
vn 0.1337 -0.3111 -0.9409
vn 0.0747 -0.2760 -0.9582
vn 0.1813 -0.3393 -0.9230
vn -0.8556 0.4596 -0.2380
vn -0.9757 0.1956 -0.0984
vn -0.6844 0.6460 -0.3380
vn -0.3741 0.8208 -0.4317
vn -0.0001 0.8855 -0.4647
vn 0.6825 0.6472 -0.3395
vn -0.8545 0.4605 -0.2403
vn -0.3731 0.8211 -0.4321
vn -0.0000 0.8853 -0.4651
vn 0.3730 0.8211 -0.4320
vn 0.8545 0.4606 -0.2402
vn -0.9997 -0.0058 0.0249
vn -0.9994 0.0038 0.0342
vn -0.9970 -0.0341 -0.0700
vn -1.0000 -0.0032 0.0074
vn -0.7968 -0.0546 -0.6017
vn -0.8910 -0.2030 -0.4061
vn -0.3470 -0.3890 -0.8534
vn -0.3800 -0.4138 -0.8273
vn -0.9999 -0.0107 0.0128
vt 0.274211 0.017552
vt 0.312692 0.017552
vt 0.312692 0.160800
vt 0.274211 0.160800
vt 0.352665 0.160800
vt 0.352665 0.017552
vt 0.391866 0.017552
vt 0.391866 0.160800
vt 0.430580 0.160800
vt 0.430580 0.017552
vt 0.469407 0.017552
vt 0.469407 0.160800
vt 0.508651 0.160800
vt 0.508651 0.017552
vt 0.548091 0.017552
vt 0.548091 0.160800
vt 0.589699 0.160800
vt 0.589699 0.017552
vt 0.830313 0.160800
vt 0.830313 0.017552
vt 0.869467 0.017552
vt 0.869467 0.160800
vt 0.910378 0.017552
vt 0.910378 0.160800
vt 0.750937 0.160800
vt 0.750937 0.017552
vt 0.790603 0.017552
vt 0.790603 0.160800
vt 0.671356 0.160800
vt 0.671356 0.017552
vt 0.711272 0.017552
vt 0.711272 0.160800
vt 0.631487 0.017552
vt 0.631487 0.160800
vt 0.391867 0.943350
vt 0.391869 0.965298
vt 0.352669 0.965298
vt 0.352666 0.943350
vt 0.469409 0.965298
vt 0.430583 0.965299
vt 0.430581 0.943351
vt 0.469408 0.943351
vt 0.910378 0.965301
vt 0.869468 0.965301
vt 0.869467 0.943352
vt 0.910378 0.943352
vt 0.548091 0.943351
vt 0.548091 0.965299
vt 0.508651 0.965298
vt 0.508651 0.943351
vt 0.671356 0.965298
vt 0.671356 0.943351
vt 0.711272 0.943352
vt 0.711273 0.965301
vt 0.750937 0.943352
vt 0.750937 0.965302
vt 0.790603 0.943352
vt 0.790604 0.965301
vt 0.312694 0.943351
vt 0.312697 0.965299
vt 0.274218 0.965299
vt 0.274214 0.943351
vt 0.631488 0.965300
vt 0.631487 0.943352
vt 0.008777 0.965299
vt 0.008765 0.943352
vt 0.589698 0.965300
vt 0.589698 0.943351
vt 0.830312 0.965301
vt 0.830312 0.943352
vt 0.352665 0.820809
vt 0.352665 0.933224
vt 0.312692 0.933224
vt 0.312692 0.820810
vt 0.274212 0.933224
vt 0.274212 0.820810
vt 0.312692 0.936282
vt 0.352665 0.936282
vt 0.430580 0.820809
vt 0.430580 0.933224
vt 0.391866 0.933224
vt 0.391866 0.820809
vt 0.391866 0.936282
vt 0.430581 0.936282
vt 0.508651 0.820809
vt 0.508651 0.933225
vt 0.469408 0.933224
vt 0.469408 0.820809
vt 0.469408 0.936282
vt 0.508651 0.936282
vt 0.589698 0.820809
vt 0.589698 0.933225
vt 0.548091 0.933225
vt 0.548091 0.820809
vt 0.548091 0.936283
vt 0.589698 0.936283
vt 0.910378 0.820810
vt 0.910378 0.933226
vt 0.869467 0.933226
vt 0.869467 0.820810
vt 0.830313 0.933225
vt 0.830313 0.820809
vt 0.830313 0.936283
vt 0.869467 0.936284
vt 0.910378 0.936284
vt 0.790603 0.933226
vt 0.790603 0.820810
vt 0.750937 0.933226
vt 0.750937 0.820810
vt 0.750937 0.936283
vt 0.790603 0.936284
vt 0.711272 0.933226
vt 0.711272 0.820810
vt 0.671356 0.933225
vt 0.671356 0.820809
vt 0.671356 0.936283
vt 0.711272 0.936284
vt 0.631487 0.933225
vt 0.631487 0.820809
vt 0.631487 0.936283
vt 0.312693 0.938834
vt 0.352665 0.938834
vt 0.391867 0.938834
vt 0.430581 0.938834
vt 0.469408 0.938834
vt 0.508651 0.938834
vt 0.548091 0.938834
vt 0.589698 0.938834
vt 0.830312 0.938835
vt 0.869467 0.938835
vt 0.910378 0.938835
vt 0.750937 0.938835
vt 0.790603 0.938835
vt 0.671356 0.938835
vt 0.711272 0.938835
vt 0.631487 0.938835
vt 0.312692 0.491401
vt 0.274211 0.491401
vt 0.352665 0.491401
vt 0.391866 0.491401
vt 0.430580 0.491401
vt 0.469407 0.491401
vt 0.508651 0.491401
vt 0.548091 0.491401
vt 0.589699 0.491401
vt 0.869467 0.491401
vt 0.830313 0.491401
vt 0.910378 0.491401
vt 0.790603 0.491401
vt 0.750937 0.491401
vt 0.711272 0.491401
vt 0.671356 0.491401
vt 0.631487 0.491401
vt 0.008759 0.160800
vt 0.008759 0.017552
vt 0.008760 0.933225
vt 0.008760 0.820814
vt 0.274212 0.936282
vt 0.008762 0.936283
vt 0.274213 0.938834
vt 0.008763 0.938834
vt 0.008759 0.491401
s 1
usemtl Checker
f 2/1/1 1/2/2 3/3/3 4/4/4
f 5/5/5 3/3/3 1/2/2 6/6/6
f 6/6/6 7/7/7 8/8/8 5/5/5
f 9/9/9 8/8/8 7/7/7 10/10/10
f 10/10/10 11/11/11 12/12/12 9/9/9
f 13/13/13 12/12/12 11/11/11 14/14/14
f 14/14/14 15/15/15 16/16/16 13/13/13
f 17/17/17 16/16/16 15/15/15 18/18/18
f 22/19/19 21/20/20 20/21/21 23/22/22
f 23/22/22 20/21/21 19/23/23 24/24/24
f 27/25/25 26/26/26 25/27/27 28/28/28
f 28/28/28 25/27/27 21/20/20 22/19/19
f 31/29/29 30/30/30 29/31/31 32/32/32
f 32/32/32 29/31/31 26/26/26 27/25/25
f 17/17/17 18/18/18 33/33/33 34/34/34
f 34/34/34 33/33/33 30/30/30 31/29/29
f 38/35/35 119/36/36 117/37/36 35/38/37
f 121/39/36 120/40/38 37/41/36 40/42/36
f 141/43/39 142/44/40 44/45/37 43/46/40
f 42/47/41 123/48/36 122/49/35 39/50/36
f 147/51/36 49/52/35 48/53/35 146/54/36
f 146/54/36 48/53/35 47/55/36 145/56/36
f 46/57/35 144/58/36 145/56/36 47/55/36
f 36/59/36 118/60/42 160/61/43 152/62/44
f 122/49/35 121/39/36 40/42/36 39/50/36
f 148/63/41 50/64/45 49/52/35 147/51/36
f 152/62/44 160/61/43 161/65/38 153/66/46
f 149/67/47 41/68/36 50/64/45 148/63/41
f 117/37/36 118/60/42 36/59/36 35/38/37
f 142/44/40 143/69/36 45/70/35 44/45/37
f 45/70/35 143/69/36 144/58/36 46/57/35
f 51/71/48 52/72/49 53/73/50 54/74/51
f 54/74/51 53/73/50 55/75/52 56/76/53
f 57/77/54 53/73/50 52/72/49 58/78/55
f 59/79/56 60/80/57 61/81/58 62/82/28
f 62/82/28 61/81/58 52/72/49 51/71/48
f 58/78/55 52/72/49 61/81/58 63/83/59
f 63/83/59 61/81/58 60/80/57 64/84/60
f 65/85/61 66/86/62 67/87/63 68/88/32
f 68/88/32 67/87/63 60/80/57 59/79/56
f 64/84/60 60/80/57 67/87/63 69/89/64
f 69/89/64 67/87/63 66/86/62 70/90/65
f 71/91/66 72/92/67 73/93/68 74/94/16
f 74/94/16 73/93/68 66/86/62 65/85/61
f 70/90/65 66/86/62 73/93/68 75/95/69
f 75/95/69 73/93/68 72/92/67 76/96/70
f 77/97/71 78/98/72 79/99/73 80/100/74
f 80/100/74 79/99/73 81/101/75 82/102/19
f 83/103/76 81/101/75 79/99/73 84/104/77
f 84/104/77 79/99/73 78/98/72 85/105/78
f 82/102/19 81/101/75 86/106/79 87/107/28
f 87/107/28 86/106/79 88/108/80 89/109/81
f 90/110/82 88/108/80 86/106/79 91/111/83
f 91/111/83 86/106/79 81/101/75 83/103/76
f 89/109/81 88/108/80 92/112/84 93/113/85
f 93/113/85 92/112/84 94/114/86 95/115/87
f 96/116/88 94/114/86 92/112/84 97/117/89
f 97/117/89 92/112/84 88/108/80 90/110/82
f 95/115/87 94/114/86 98/118/90 99/119/91
f 99/119/91 98/118/90 72/92/67 71/91/66
f 76/96/70 72/92/67 98/118/90 100/120/92
f 100/120/92 98/118/90 94/114/86 96/116/88
f 36/59/36 101/121/93 102/122/94 35/38/37
f 58/78/55 102/122/94 101/121/93 57/77/54
f 35/38/37 102/122/94 103/123/95 38/35/35
f 38/35/35 103/123/95 104/124/96 37/41/36
f 64/84/60 104/124/96 103/123/95 63/83/59
f 63/83/59 103/123/95 102/122/94 58/78/55
f 37/41/36 104/124/96 105/125/97 40/42/36
f 40/42/36 105/125/97 106/126/98 39/50/36
f 70/90/65 106/126/98 105/125/97 69/89/64
f 69/89/64 105/125/97 104/124/96 64/84/60
f 39/50/36 106/126/98 107/127/99 42/47/41
f 42/47/41 107/127/99 108/128/100 41/68/36
f 76/96/70 108/128/100 107/127/99 75/95/69
f 75/95/69 107/127/99 106/126/98 70/90/65
f 45/70/35 109/129/101 110/130/102 44/45/37
f 44/45/37 110/130/102 111/131/103 43/46/40
f 85/105/78 111/131/103 110/130/102 84/104/77
f 84/104/77 110/130/102 109/129/101 83/103/76
f 47/55/36 112/132/104 113/133/105 46/57/35
f 46/57/35 113/133/105 109/129/101 45/70/35
f 83/103/76 109/129/101 113/133/105 91/111/83
f 91/111/83 113/133/105 112/132/104 90/110/82
f 49/52/35 114/134/106 115/135/107 48/53/35
f 48/53/35 115/135/107 112/132/104 47/55/36
f 90/110/82 112/132/104 115/135/107 97/117/89
f 97/117/89 115/135/107 114/134/106 96/116/88
f 41/68/36 108/128/100 116/136/108 50/64/45
f 50/64/45 116/136/108 114/134/106 49/52/35
f 96/116/88 114/134/106 116/136/108 100/120/92
f 100/120/92 116/136/108 108/128/100 76/96/70
f 4/4/4 3/3/3 124/137/109 125/138/110
f 125/138/110 124/137/109 54/74/51 56/76/53
f 51/71/48 54/74/51 124/137/109 126/139/111
f 126/139/111 124/137/109 3/3/3 5/5/5
f 5/5/5 8/8/8 127/140/112 126/139/111
f 126/139/111 127/140/112 62/82/28 51/71/48
f 59/79/56 62/82/28 127/140/112 128/141/113
f 128/141/113 127/140/112 8/8/8 9/9/9
f 9/9/9 12/12/12 129/142/32 128/141/113
f 128/141/113 129/142/32 68/88/32 59/79/56
f 65/85/61 68/88/32 129/142/32 130/143/114
f 130/143/114 129/142/32 12/12/12 13/13/13
f 13/13/13 16/16/16 131/144/34 130/143/114
f 130/143/114 131/144/34 74/94/16 65/85/61
f 71/91/66 74/94/16 131/144/34 132/145/17
f 132/145/17 131/144/34 16/16/16 17/17/17
f 22/19/19 23/22/22 133/146/115 134/147/19
f 134/147/19 133/146/115 80/100/74 82/102/19
f 77/97/71 80/100/74 133/146/115 135/148/71
f 135/148/71 133/146/115 23/22/22 24/24/24
f 27/25/25 28/28/28 136/149/116 137/150/117
f 137/150/117 136/149/116 87/107/28 89/109/81
f 82/102/19 87/107/28 136/149/116 134/147/19
f 134/147/19 136/149/116 28/28/28 22/19/19
f 31/29/29 32/32/32 138/151/118 139/152/114
f 139/152/114 138/151/118 93/113/85 95/115/87
f 89/109/81 93/113/85 138/151/118 137/150/117
f 137/150/117 138/151/118 32/32/32 27/25/25
f 17/17/17 34/34/34 140/153/119 132/145/17
f 132/145/17 140/153/119 99/119/91 71/91/66
f 95/115/87 99/119/91 140/153/119 139/152/114
f 139/152/114 140/153/119 34/34/34 31/29/29
f 2/1/1 4/4/4 151/154/120 150/155/121
f 120/40/38 119/36/36 38/35/35 37/41/36
f 56/76/53 55/75/52 154/156/122 155/157/123
f 55/75/52 156/158/124 157/159/125 154/156/122
f 158/160/126 152/62/44 153/66/46 159/161/127
f 158/160/126 159/161/127 157/159/125 156/158/124
f 4/4/4 125/138/110 162/162/128 151/154/120
f 125/138/110 56/76/53 155/157/123 162/162/128
f 53/73/50 57/77/54 156/158/124 55/75/52
f 156/158/124 57/77/54 101/121/93 158/160/126
f 158/160/126 101/121/93 36/59/36 152/62/44
f 123/48/36 42/47/41 41/68/36 149/67/47
