# Blender 4.0.2
# www.blender.org
mtllib roof_tri_window_3000_glass.mtl
o roof_tri_window_3000_glass
v 0.024000 0.242571 1.075900
v 0.020000 0.244000 1.067974
v 0.024000 0.240000 1.074964
v 0.024000 1.023209 0.145564
v 0.024000 1.021780 0.142500
v 0.020000 1.017202 0.146500
v 0.024000 0.244000 0.142500
v 0.024000 0.240000 0.146500
v 0.020000 0.244000 0.146500
v 0.036000 0.242571 1.075900
v 0.036000 0.240000 1.074964
v 0.040000 0.244000 1.067974
v 0.036000 1.023209 0.145564
v 0.040000 1.017202 0.146500
v 0.036000 1.021780 0.142500
v 0.036000 0.244000 0.142500
v 0.040000 0.244000 0.146500
v 0.036000 0.240000 0.146500
v 0.036000 0.242571 -1.075900
v 0.040000 0.244000 -1.067974
v 0.036000 0.240000 -1.074964
v 0.036000 1.023209 -0.145564
v 0.036000 1.021780 -0.142500
v 0.040000 1.017202 -0.146500
v 0.036000 0.244000 -0.142500
v 0.036000 0.240000 -0.146500
v 0.040000 0.244000 -0.146500
v 0.024000 0.242571 -1.075900
v 0.024000 0.240000 -1.074964
v 0.020000 0.244000 -1.067974
v 0.024000 1.023209 -0.145564
v 0.020000 1.017202 -0.146500
v 0.024000 1.021780 -0.142500
v 0.024000 0.244000 -0.142500
v 0.020000 0.244000 -0.146500
v 0.024000 0.240000 -0.146500
vn -0.0000 -1.0000 -0.0000
vn -0.0000 0.7660 -0.6428
vn -0.0000 -0.0000 -1.0000
vn 1.0000 -0.0000 -0.0000
vn -1.0000 -0.0000 -0.0000
vn -0.0000 -0.0000 1.0000
vn -0.8930 -0.1539 0.4229
vn -0.8250 0.5122 -0.2388
vn -0.5773 -0.5773 -0.5774
vn 0.8930 -0.1539 0.4229
vn 0.8250 0.5122 -0.2388
vn 0.5773 -0.5773 -0.5774
vn 0.8930 -0.1539 -0.4229
vn 0.8250 0.5122 0.2388
vn 0.5773 -0.5773 0.5774
vn -0.8930 -0.1539 -0.4229
vn -0.8250 0.5122 0.2388
vn -0.5773 -0.5773 0.5774
vn -0.7071 0.5417 0.4545
vn -0.7071 -0.0000 -0.7071
vn -0.7071 -0.7071 -0.0000
vn 0.7071 0.5417 0.4545
vn 0.7071 -0.0000 -0.7071
vn 0.7071 -0.7071 -0.0000
vn -0.0000 -0.7071 -0.7071
vn -0.0000 -0.3420 0.9397
vn -0.0000 0.9063 -0.4226
vn 0.7071 0.5417 -0.4545
vn 0.7071 -0.0000 0.7071
vn -0.7071 0.5417 -0.4545
vn -0.7071 -0.0000 0.7071
vn -0.0000 -0.7071 0.7071
vn -0.0000 -0.3420 -0.9397
vn -0.0000 0.9063 0.4226
vn -0.0000 0.7660 0.6428
vt 0.819669 0.335040
vt 0.819669 0.856985
vt 0.812923 0.856985
vt 0.812923 0.335040
vt 0.799224 0.841172
vt 0.799225 0.318903
vt 0.805970 0.318903
vt 0.805970 0.841172
vt 0.297512 0.716929
vt 0.297512 0.279693
vt 0.304258 0.279693
vt 0.304258 0.716929
vt 0.002857 0.534950
vt 0.002857 0.016935
vt 0.437520 0.016935
vt 0.400109 0.374684
vt 0.628894 0.647341
vt 0.400109 0.647341
vt 0.812923 0.335040
vt 0.297512 0.716929
vt 0.304258 0.279693
vt 0.304258 0.716929
vt 0.399686 0.372339
vt 0.398926 0.372615
vt 0.297512 0.278890
vt 0.295264 0.282267
vt 0.297512 0.719178
vt 0.295264 0.716929
vt 0.812923 0.334514
vt 0.810675 0.338970
vt 0.440896 0.016409
vt 0.440093 0.014686
vt 0.306507 0.716929
vt 0.304258 0.719178
vt 0.819669 0.859234
vt 0.821918 0.856985
vt 0.812923 0.334514
vt 0.002857 0.014686
vt 0.000608 0.016935
vt 0.630672 0.647618
vt 0.821918 0.338970
vt 0.002054 0.539406
vt 0.306507 0.282267
vt 0.810674 0.856985
vt 0.812923 0.332792
vt 0.819669 0.332792
vt 0.297512 0.277445
vt 0.304258 0.277445
vt 0.630249 0.648525
vt 0.400109 0.648525
vt 0.398926 0.647341
vt 0.002857 0.014686
vt 0.000608 0.538880
vt 0.812923 0.859234
vt 0.799224 0.841172
vt 0.799225 0.318903
vt 0.805970 0.318903
vt 0.805970 0.841172
s 0
usemtl glass
f 3/1/1 8/2/1 18/3/1 11/4/1
f 22/5/2 19/6/2 28/7/2 31/8/2
f 7/9/3 5/10/3 15/11/3 16/12/3
f 12/13/4 17/14/4 14/15/4
f 2/16/5 6/17/5 9/18/5
f 21/1/1 26/2/1 36/3/1 29/19/1
f 25/20/6 23/10/6 33/21/6 34/22/6
f 30/13/5 35/14/5 32/15/5
f 20/16/4 24/17/4 27/18/4
f 1/23/7 2/16/7 3/24/7
f 4/25/8 5/10/8 6/26/8
f 7/9/9 8/27/9 9/28/9
f 10/29/10 11/4/10 12/30/10
f 13/31/11 14/15/11 15/32/11
f 16/12/12 17/33/12 18/34/12
f 19/23/13 20/16/13 21/24/13
f 22/25/14 23/10/14 24/26/14
f 25/35/15 26/2/15 27/36/15
f 28/37/16 29/19/16 30/30/16
f 31/31/17 32/15/17 33/32/17
f 34/38/18 35/14/18 36/39/18
f 1/23/19 4/40/19 6/17/19 2/16/19
f 5/10/20 7/9/20 9/28/20 6/26/20
f 8/2/21 3/1/21 2/41/21 9/36/21
f 12/13/22 14/15/22 13/31/22 10/42/22
f 14/43/23 17/33/23 16/12/23 15/11/23
f 17/44/24 12/30/24 11/4/24 18/3/24
f 7/9/25 16/12/25 18/34/25 8/27/25
f 10/45/26 1/46/26 3/1/26 11/4/26
f 4/47/27 13/48/27 15/11/27 5/10/27
f 19/23/28 22/40/28 24/17/28 20/16/28
f 23/49/29 25/50/29 27/18/29 24/17/29
f 26/51/24 21/24/24 20/16/24 27/18/24
f 30/13/30 32/15/30 31/31/30 28/42/30
f 32/15/31 35/14/31 34/52/31 33/32/31
f 35/14/21 30/13/21 29/53/21 36/39/21
f 25/35/32 34/54/32 36/3/32 26/2/32
f 28/45/33 19/46/33 21/1/33 29/19/33
f 22/47/34 31/48/34 33/21/34 23/10/34
f 4/55/35 1/56/35 10/57/35 13/58/35
