# Blender 4.0.2
# www.blender.org
mtllib roof_tri_window_3000.mtl
o roof_tri_window_3000
v 0.004000 0.202571 1.185799
v -0.000000 0.204000 1.177873
v 0.004000 0.200000 1.184863
v 0.004000 1.108989 0.105564
v 0.004000 1.107560 0.102500
v -0.000000 1.102982 0.106500
v 0.004000 0.204000 0.102500
v 0.004000 0.200000 0.106500
v -0.000000 0.204000 0.106500
v 0.004000 0.242571 1.075900
v 0.004000 0.240000 1.074964
v -0.000000 0.236000 1.089954
v 0.004000 1.023209 0.145564
v -0.000000 1.034358 0.138500
v 0.004000 1.021780 0.142500
v 0.004000 0.244000 0.142500
v -0.000000 0.236000 0.138500
v 0.004000 0.240000 0.146500
v 0.030000 0.242571 1.075900
v 0.030000 0.240000 1.074964
v 0.030000 1.021780 0.142500
v 0.030000 1.023209 0.145564
v 0.030000 0.240000 0.146500
v 0.030000 0.244000 0.142500
v 0.056000 0.202571 1.185799
v 0.056000 0.200000 1.184863
v 0.060000 0.204000 1.177873
v 0.056000 1.108989 0.105564
v 0.060000 1.102982 0.106500
v 0.056000 1.107560 0.102500
v 0.056000 0.204000 0.102500
v 0.060000 0.204000 0.106500
v 0.056000 0.200000 0.106500
v 0.056000 0.242571 1.075900
v 0.060000 0.236000 1.089954
v 0.056000 0.240000 1.074964
v 0.056000 1.023209 0.145564
v 0.056000 1.021780 0.142500
v 0.060000 1.034358 0.138500
v 0.056000 0.244000 0.142500
v 0.056000 0.240000 0.146500
v 0.060000 0.236000 0.138500
v 0.056000 0.202571 -1.185799
v 0.060000 0.204000 -1.177873
v 0.056000 0.200000 -1.184863
v 0.056000 1.108989 -0.105564
v 0.056000 1.107560 -0.102500
v 0.060000 1.102982 -0.106500
v 0.056000 0.204000 -0.102500
v 0.056000 0.200000 -0.106500
v 0.060000 0.204000 -0.106500
v 0.056000 0.242571 -1.075900
v 0.056000 0.240000 -1.074964
v 0.060000 0.236000 -1.089954
v 0.056000 1.023209 -0.145564
v 0.060000 1.034358 -0.138500
v 0.056000 1.021780 -0.142500
v 0.056000 0.244000 -0.142500
v 0.060000 0.236000 -0.138500
v 0.056000 0.240000 -0.146500
v 0.030000 0.242571 -1.075900
v 0.030000 0.240000 -1.074964
v 0.030000 1.021780 -0.142500
v 0.030000 1.023209 -0.145564
v 0.030000 0.240000 -0.146500
v 0.030000 0.244000 -0.142500
v 0.004000 0.202571 -1.185799
v 0.004000 0.200000 -1.184863
v 0.000000 0.204000 -1.177873
v 0.004000 1.108989 -0.105564
v 0.000000 1.102982 -0.106500
v 0.004000 1.107560 -0.102500
v 0.004000 0.204000 -0.102500
v -0.000000 0.204000 -0.106500
v 0.004000 0.200000 -0.106500
v 0.004000 0.242571 -1.075900
v 0.000000 0.236000 -1.089954
v 0.004000 0.240000 -1.074964
v 0.004000 1.023209 -0.145564
v 0.004000 1.021780 -0.142500
v 0.000000 1.034358 -0.138500
v 0.004000 0.244000 -0.142500
v 0.004000 0.240000 -0.146500
v 0.000000 0.236000 -0.138500
vn -0.0000 -0.0000 1.0000
vn -0.0000 -1.0000 -0.0000
vn -0.0000 -0.7660 -0.6428
vn -0.0000 -0.0000 -1.0000
vn -0.0000 1.0000 -0.0000
vn -1.0000 -0.0000 -0.0000
vn 1.0000 -0.0000 -0.0000
vn -0.0000 0.7660 -0.6428
vn -0.0000 -0.7660 0.6428
vn -0.8930 -0.1540 0.4229
vn -0.8250 0.5122 -0.2388
vn -0.5774 -0.5774 -0.5773
vn -0.9681 0.0857 -0.2355
vn -0.9563 -0.2649 0.1235
vn -0.9045 0.3015 0.3015
vn 0.8930 -0.1540 0.4229
vn 0.8250 0.5122 -0.2388
vn 0.5773 -0.5774 -0.5773
vn 0.9681 0.0857 -0.2355
vn 0.9563 -0.2649 0.1235
vn 0.9045 0.3015 0.3015
vn 0.8930 -0.1540 -0.4229
vn 0.8250 0.5122 0.2388
vn 0.5773 -0.5774 0.5773
vn 0.9681 0.0857 0.2355
vn 0.9563 -0.2649 -0.1235
vn 0.9045 0.3015 -0.3015
vn -0.8930 -0.1540 -0.4229
vn -0.8250 0.5122 0.2388
vn -0.5774 -0.5774 0.5773
vn -0.9681 0.0857 0.2355
vn -0.9563 -0.2649 -0.1235
vn -0.9045 0.3015 -0.3015
vn -0.7071 -0.5417 -0.4545
vn -0.7071 -0.0000 0.7071
vn -0.7071 0.7071 -0.0000
vn -0.7071 0.5417 0.4545
vn -0.7071 -0.0000 -0.7071
vn -0.7071 -0.7071 -0.0000
vn -0.0000 0.7071 0.7071
vn -0.0000 0.3420 -0.9397
vn -0.0000 -0.9063 0.4226
vn 0.7071 -0.5417 -0.4545
vn 0.7071 -0.0000 0.7071
vn 0.7071 0.7071 -0.0000
vn 0.7071 0.5417 0.4545
vn 0.7071 -0.0000 -0.7071
vn 0.7071 -0.7071 -0.0000
vn -0.0000 -0.7071 -0.7071
vn -0.0000 -0.3421 0.9397
vn -0.0000 0.9063 -0.4226
vn 0.7071 -0.5417 0.4545
vn 0.7071 0.5417 -0.4545
vn -0.0000 0.7071 -0.7071
vn -0.0000 0.3420 0.9397
vn -0.0000 -0.9063 -0.4226
vn -0.7071 -0.5417 0.4545
vn -0.7071 0.5417 -0.4545
vn -0.0000 -0.7071 0.7071
vn -0.0000 -0.3420 -0.9397
vn -0.0000 0.9063 0.4226
vn -0.0000 0.7660 0.6428
vt 0.358165 0.192957
vt 0.358165 0.178341
vt 0.795401 0.178341
vt 0.795401 0.192957
vt 0.016572 0.836670
vt 0.622784 0.836670
vt 0.622784 0.865902
vt 0.016572 0.865902
vt 0.356378 0.228916
vt 0.356378 0.214300
vt 0.878647 0.214300
vt 0.878647 0.228916
vt 0.863894 0.264875
vt 0.355950 0.264875
vt 0.355950 0.235642
vt 0.863894 0.235642
vt 0.356378 0.199684
vt 0.878647 0.199684
vt 0.878647 0.214300
vt 0.356378 0.214300
vt 0.538880 0.872628
vt 0.538880 0.887245
vt 0.016935 0.887245
vt 0.016935 0.872629
vt 0.630092 0.955790
vt 0.648081 0.973779
vt 0.045799 0.973779
vt 0.095223 0.955790
vt 0.826168 0.124955
vt 0.864746 0.142944
vt 0.359374 0.142944
vt 0.377363 0.124955
vt 0.358165 0.163724
vt 0.795401 0.163725
vt 0.630092 0.997751
vt 0.095223 0.997751
vt 0.045799 0.979762
vt 0.648081 0.979762
vt 0.639003 0.829943
vt 0.032375 0.829943
vt 0.032375 0.800711
vt 0.639003 0.800711
vt 0.826168 0.302901
vt 0.377363 0.302901
vt 0.359374 0.284912
vt 0.864746 0.284912
vt 0.086959 0.882550
vt 0.785178 0.882546
vt 0.823756 0.900536
vt 0.037534 0.900539
vt 0.538880 0.901861
vt 0.016935 0.901861
vt 0.016935 0.887245
vt 0.086959 0.975100
vt 0.037534 0.957111
vt 0.823756 0.957114
vt 0.785177 0.975103
vt 0.358165 0.192957
vt 0.795401 0.192957
vt 0.356378 0.228916
vt 0.878647 0.214300
vt 0.863894 0.264875
vt 0.356378 0.199684
vt 0.878647 0.199684
vt 0.356378 0.214300
vt 0.648081 0.979762
vt 0.377363 0.302901
vt 0.086959 0.882550
vt 0.785178 0.882547
vt 0.823756 0.900536
vt 0.037534 0.900539
vt 0.538880 0.901861
vt 0.086959 0.975101
vt 0.037534 0.957111
vt 0.823756 0.957114
vt 0.785178 0.975103
vt 0.033605 0.954863
vt 0.033342 0.955585
vt 0.864698 0.235642
vt 0.861321 0.233394
vt 0.014323 0.865902
vt 0.016572 0.868151
vt 0.539406 0.872628
vt 0.541128 0.870380
vt 0.354658 0.231164
vt 0.355763 0.228916
vt 0.381861 0.122706
vt 0.379612 0.122706
vt 0.623310 0.836670
vt 0.618854 0.834421
vt 0.826329 0.902785
vt 0.826731 0.901923
vt 0.355950 0.267123
vt 0.353701 0.264875
vt 0.880367 0.197435
vt 0.879049 0.199684
vt 0.796204 0.163725
vt 0.797650 0.161476
vt 0.014687 0.901861
vt 0.014687 0.904110
vt 0.037534 0.957111
vt 0.033342 0.955586
vt 0.539406 0.872628
vt 0.778107 0.977352
vt 0.785178 0.975103
vt 0.778910 0.977352
vt 0.826329 0.902785
vt 0.826731 0.901923
vt 0.353701 0.264875
vt 0.879049 0.199684
vt 0.014687 0.901861
vt 0.880367 0.231164
vt 0.381861 0.122706
vt 0.819097 0.122706
vt 0.014686 0.870380
vt 0.033605 0.954863
vt 0.826329 0.954866
vt 0.867319 0.145192
vt 0.359374 0.145193
vt 0.618854 0.868151
vt 0.014686 0.887245
vt 0.014686 0.872628
vt 0.541128 0.872628
vt 0.541128 0.887245
vt 0.797650 0.178341
vt 0.797650 0.192957
vt 0.354658 0.197435
vt 0.355916 0.161476
vt 0.541128 0.904109
vt 0.033605 0.902788
vt 0.861321 0.267123
vt 0.016572 0.834421
vt 0.014686 0.887245
vt 0.541128 0.901861
vt 0.797650 0.163725
vt 0.014323 0.836670
vt 0.625032 0.836670
vt 0.625032 0.865902
vt 0.866143 0.235642
vt 0.866143 0.264875
vt 0.778107 0.977352
vt 0.095385 0.977349
vt 0.826329 0.954866
vt 0.648081 0.976027
vt 0.041869 0.976027
vt 0.797650 0.192957
vt 0.033605 0.902788
vt 0.797650 0.163725
vt 0.014323 0.836670
vt 0.032375 0.829943
s 0
usemtl white
f 16/1/1 24/2/1 21/3/1 15/4/1
f 33/5/2 26/6/2 3/7/2 8/8/2
f 13/9/3 22/10/3 19/11/3 10/12/3
f 30/13/4 31/14/4 7/15/4 5/16/4
f 37/17/3 34/18/3 19/19/3 22/20/3
f 11/21/5 20/22/5 23/23/5 18/24/5
f 17/25/6 9/26/6 2/27/6 12/28/6
f 14/29/6 6/30/6 9/31/6 17/32/6
f 40/33/1 38/34/1 21/3/1 24/2/1
f 42/35/7 35/36/7 27/37/7 32/38/7
f 67/39/8 70/40/8 46/41/8 43/42/8
f 39/43/7 42/44/7 32/45/7 29/46/7
f 35/47/7 39/48/7 29/49/7 27/50/7
f 36/51/5 41/52/5 23/53/5 20/22/5
f 12/54/6 2/55/6 6/56/6 14/57/6
f 58/58/4 66/2/4 63/3/4 57/59/4
f 75/5/2 68/6/2 45/7/2 50/8/2
f 55/60/9 64/10/9 61/61/9 52/12/9
f 72/62/1 73/14/1 49/15/1 47/16/1
f 79/63/9 76/64/9 61/61/9 64/65/9
f 53/21/5 62/22/5 65/23/5 60/24/5
f 59/25/7 51/26/7 44/27/7 54/28/7
f 56/29/7 48/30/7 51/31/7 59/32/7
f 82/33/4 80/34/4 63/3/4 66/2/4
f 84/35/6 77/36/6 69/37/6 74/66/6
f 81/43/6 84/67/6 74/45/6 71/46/6
f 77/68/6 81/69/6 71/70/6 69/71/6
f 78/72/5 83/52/5 65/53/5 62/22/5
f 54/73/7 44/74/7 48/75/7 56/76/7
f 1/77/10 2/74/10 3/78/10
f 4/79/11 5/16/11 6/80/11
f 7/81/12 8/8/12 9/82/12
f 10/83/13 11/21/13 12/84/13
f 13/9/14 14/85/14 15/86/14
f 16/87/15 17/32/15 18/88/15
f 25/89/16 26/6/16 27/90/16
f 28/91/17 29/49/17 30/92/17
f 31/14/18 32/93/18 33/94/18
f 34/18/19 35/95/19 36/96/19
f 37/97/20 38/34/20 39/98/20
f 40/99/21 41/52/21 42/100/21
f 43/77/22 44/101/22 45/102/22
f 46/79/23 47/16/23 48/80/23
f 49/81/24 50/8/24 51/82/24
f 52/103/25 53/21/25 54/84/25
f 55/104/26 56/105/26 57/106/26
f 58/87/27 59/32/27 60/88/27
f 67/89/28 68/6/28 69/90/28
f 70/107/29 71/70/29 72/108/29
f 73/14/30 74/93/30 75/109/30
f 76/64/31 77/95/31 78/110/31
f 79/97/32 80/34/32 81/98/32
f 82/111/33 83/52/33 84/100/33
f 12/112/34 14/85/34 13/9/34 10/12/34
f 14/29/35 17/32/35 16/113/35 15/114/35
f 17/115/36 12/84/36 11/21/36 18/24/36
f 1/116/37 4/117/37 6/56/37 2/55/37
f 5/118/38 7/119/38 9/31/38 6/30/38
f 8/8/39 3/7/39 2/120/39 9/82/39
f 18/24/40 23/23/40 24/121/40 16/122/40
f 20/22/41 11/21/41 10/123/41 19/124/41
f 15/4/42 21/3/42 22/125/42 13/126/42
f 34/18/43 37/17/43 39/127/43 35/95/43
f 38/34/44 40/33/44 42/128/44 39/98/44
f 41/52/45 36/51/45 35/129/45 42/100/45
f 27/50/46 29/49/46 28/91/46 25/130/46
f 29/131/47 32/93/47 31/14/47 30/13/47
f 32/132/48 27/90/48 26/6/48 33/5/48
f 40/99/40 24/133/40 23/53/40 41/52/40
f 19/124/41 34/134/41 36/51/41 20/22/41
f 37/135/42 22/125/42 21/3/42 38/34/42
f 7/81/49 31/136/49 33/5/49 8/8/49
f 25/137/50 1/138/50 3/7/50 26/6/50
f 4/139/51 28/140/51 30/13/51 5/16/51
f 54/73/52 56/76/52 55/141/52 52/142/52
f 56/29/47 59/32/47 58/113/47 57/114/47
f 59/115/45 54/84/45 53/21/45 60/24/45
f 43/116/53 46/143/53 48/75/53 44/74/53
f 47/118/44 49/119/44 51/31/44 48/30/44
f 50/144/48 45/145/48 44/27/48 51/26/48
f 60/24/54 65/23/54 66/121/54 58/122/54
f 62/22/55 53/21/55 52/123/55 61/124/55
f 57/59/56 63/3/56 64/125/56 55/146/56
f 76/64/57 79/63/57 81/127/57 77/95/57
f 80/34/38 82/33/38 84/128/38 81/98/38
f 83/52/36 78/72/36 77/129/36 84/100/36
f 69/71/58 71/70/58 70/107/58 67/147/58
f 71/131/35 74/93/35 73/14/35 72/62/35
f 74/132/39 69/90/39 68/6/39 75/5/39
f 82/111/54 66/133/54 65/53/54 83/52/54
f 61/124/55 76/134/55 78/72/55 62/22/55
f 79/148/56 64/125/56 63/3/56 80/34/56
f 49/81/59 73/149/59 75/5/59 50/8/59
f 67/137/60 43/138/60 45/7/60 68/6/60
f 46/139/61 70/140/61 72/62/61 47/16/61
f 25/39/62 28/150/62 4/41/62 1/42/62
