# Blender 4.0.2
# www.blender.org
mtllib tile-01.mtl
o tile-01
v -0.239887 0.326212 0.415970
v -0.250001 0.307875 0.425187
v -0.239887 0.287127 0.341632
v -0.250001 0.268790 0.350849
v -0.227017 0.302804 0.333754
v -0.227018 0.341889 0.408092
v -0.208637 0.352245 0.402891
v -0.208637 0.313160 0.328551
v -0.187501 0.317006 0.326615
v -0.187501 0.356091 0.400953
v -0.166365 0.352245 0.402891
v -0.166365 0.313160 0.328551
v -0.147985 0.302804 0.333754
v -0.147985 0.341890 0.408092
v -0.135115 0.326212 0.415971
v -0.135115 0.287127 0.341631
v -0.125001 0.268790 0.350849
v -0.125001 0.307875 0.425187
v -0.000001 0.307875 0.425189
v -0.010115 0.289538 0.434407
v -0.022985 0.273861 0.442284
v -0.022985 0.234775 0.367944
v -0.010115 0.250453 0.360067
v -0.000001 0.268790 0.350849
v -0.041365 0.263507 0.447489
v -0.062501 0.259660 0.449424
v -0.062501 0.220575 0.375084
v -0.041365 0.224421 0.373151
v -0.083637 0.263507 0.447489
v -0.102017 0.273861 0.442284
v -0.102017 0.234775 0.367944
v -0.083637 0.224421 0.373151
v -0.114887 0.289538 0.434407
v -0.114887 0.250453 0.360067
v -0.225723 0.096534 -0.049766
v -0.225939 0.092299 -0.047638
v -0.239168 0.075711 -0.039299
v -0.239024 0.079762 -0.041336
v -0.250001 0.056069 -0.029428
v -0.250001 0.059860 -0.031332
v -0.250001 0.052571 -0.027670
v -0.239492 0.071625 -0.037247
v -0.226425 0.087804 -0.045377
v -0.187501 0.110735 -0.056903
v -0.187501 0.106500 -0.054774
v -0.207918 0.102785 -0.052906
v -0.207774 0.107045 -0.055048
v -0.208242 0.098229 -0.050618
v -0.187501 0.102005 -0.052514
v -0.149545 0.097016 -0.050008
v -0.149284 0.092700 -0.047839
v -0.167084 0.102785 -0.052906
v -0.167228 0.107045 -0.055048
v -0.166760 0.098229 -0.050618
v -0.148699 0.088024 -0.045487
v -0.127026 0.063530 -0.033178
v -0.126688 0.059127 -0.030964
v -0.136719 0.077314 -0.040106
v -0.137041 0.081688 -0.042304
v -0.135996 0.072507 -0.037689
v -0.125928 0.054252 -0.028514
v -0.000001 0.059860 -0.031332
v -0.000001 0.056069 -0.029428
v -0.009396 0.039035 -0.020867
v -0.009252 0.043087 -0.022903
v -0.021906 0.024271 -0.013446
v -0.021690 0.028505 -0.015575
v -0.022392 0.019775 -0.011187
v -0.009720 0.034950 -0.018814
v -0.000001 0.052571 -0.027670
v -0.040646 0.014045 -0.008307
v -0.040502 0.018307 -0.010448
v -0.062501 0.010068 -0.006308
v -0.062501 0.014302 -0.008436
v -0.062501 0.005572 -0.004049
v -0.040970 0.009491 -0.006018
v -0.084356 0.014045 -0.008307
v -0.084500 0.018307 -0.010448
v -0.103317 0.024672 -0.013648
v -0.103578 0.028987 -0.015817
v -0.102732 0.019995 -0.011297
v -0.084032 0.009491 -0.006018
v -0.116491 0.040639 -0.021673
v -0.116812 0.045013 -0.023870
v -0.115768 0.035831 -0.019257
v -0.227018 0.130550 0.006138
v -0.227018 0.101214 -0.049658
v -0.239887 0.085537 -0.041779
v -0.239887 0.114873 0.014017
v -0.250001 0.067199 -0.032563
v -0.250001 0.096536 0.023233
v -0.250001 0.065674 -0.033641
v -0.239750 0.084260 -0.042982
v -0.226813 0.100110 -0.050948
v -0.187501 0.144752 -0.001000
v -0.187501 0.115415 -0.056796
v -0.208637 0.111568 -0.054862
v -0.208637 0.140905 0.000934
v -0.208500 0.110489 -0.056165
v -0.187501 0.114311 -0.058086
v -0.147985 0.130550 0.006138
v -0.147985 0.101214 -0.049658
v -0.166365 0.111568 -0.054862
v -0.166365 0.140905 0.000933
v -0.166502 0.110489 -0.056165
v -0.148232 0.100186 -0.050986
v -0.125001 0.096536 0.023233
v -0.125001 0.067199 -0.032563
v -0.135115 0.085537 -0.041779
v -0.135115 0.114873 0.014017
v -0.135420 0.084564 -0.043135
v -0.125322 0.066255 -0.033933
v -0.000001 0.096536 0.023233
v -0.000001 0.067199 -0.032563
v -0.010115 0.048862 -0.023346
v -0.010115 0.078198 0.032450
v -0.022985 0.033185 -0.015466
v -0.022985 0.062522 0.040330
v -0.022780 0.032081 -0.016756
v -0.009979 0.047585 -0.024548
v -0.000001 0.065674 -0.033641
v -0.041365 0.022830 -0.010263
v -0.041365 0.052166 0.045533
v -0.062501 0.018983 -0.008328
v -0.062501 0.048320 0.047468
v -0.062501 0.017879 -0.009618
v -0.041228 0.021751 -0.011565
v -0.083637 0.022830 -0.010263
v -0.083637 0.052166 0.045533
v -0.102018 0.033185 -0.015466
v -0.102018 0.062522 0.040330
v -0.102265 0.032158 -0.016795
v -0.083774 0.021751 -0.011565
v -0.114887 0.048862 -0.023346
v -0.114887 0.078198 0.032450
v -0.115192 0.047890 -0.024701
v -0.250001 0.063144 -0.032984
v -0.239340 0.082474 -0.042698
v -0.226197 0.098844 -0.050926
v -0.208090 0.109297 -0.056180
v -0.187501 0.113045 -0.058064
v -0.166912 0.109297 -0.056180
v -0.148973 0.099149 -0.051080
v -0.136335 0.083693 -0.043312
v -0.126284 0.065469 -0.034153
v -0.022164 0.030816 -0.016735
v -0.009568 0.045799 -0.024265
v -0.000001 0.063144 -0.032984
v -0.062501 0.016613 -0.009596
v -0.040818 0.020559 -0.011581
v -0.103006 0.031121 -0.016888
v -0.084184 0.020559 -0.011581
v -0.116107 0.047019 -0.024878
v -0.239715 0.068816 -0.035834
v -0.250001 0.050166 -0.026461
v -0.226759 0.084711 -0.043824
v -0.208465 0.095097 -0.049043
v -0.187501 0.098913 -0.050961
v -0.166537 0.095097 -0.049043
v -0.148296 0.084807 -0.043872
v -0.135499 0.069200 -0.036028
v -0.239887 0.200837 0.177513
v -0.250001 0.182499 0.186730
v -0.227017 0.216513 0.169635
v -0.208637 0.226868 0.164430
v -0.187501 0.230715 0.162497
v -0.166365 0.226868 0.164430
v -0.147985 0.216514 0.169634
v -0.135115 0.200837 0.177513
v -0.125001 0.182499 0.186730
v -0.010115 0.164161 0.195946
v -0.022985 0.148485 0.203826
v -0.000001 0.182499 0.186730
v -0.041365 0.138130 0.209030
v -0.062501 0.134284 0.210965
v -0.083637 0.138130 0.209030
v -0.102017 0.148485 0.203827
v -0.114887 0.164162 0.195947
v -0.000001 0.050166 -0.026461
v -0.009943 0.032141 -0.017401
v -0.022726 0.016683 -0.009632
v -0.041193 0.006358 -0.004444
v -0.062501 0.002481 -0.002493
v -0.083809 0.006358 -0.004444
v -0.102329 0.016779 -0.009680
v -0.115271 0.032525 -0.017594
v -0.125405 0.050898 -0.026829
vn -0.8971 0.3908 -0.2061
vn -0.8540 0.4594 -0.2444
vn -0.8544 0.4607 -0.2402
vn -0.8978 0.3898 -0.2048
vn -0.6826 0.6472 -0.3395
vn -0.6817 0.6474 -0.3408
vn -0.3716 0.8214 -0.4328
vn -0.3733 0.8209 -0.4321
vn -0.0000 0.8855 -0.4646
vn 0.0019 0.8851 -0.4654
vn 0.3728 0.8210 -0.4324
vn 0.3732 0.8210 -0.4321
vn 0.6826 0.6472 -0.3394
vn 0.6810 0.6478 -0.3414
vn 0.8546 0.4586 -0.2437
vn 0.8544 0.4607 -0.2402
vn 0.8978 0.3899 -0.2048
vn 0.8969 0.3910 -0.2067
vn -0.6826 0.6472 -0.3394
vn -0.6831 0.6463 -0.3401
vn -0.8547 0.4595 -0.2417
vn -0.8545 0.4606 -0.2402
vn -0.8980 0.3893 -0.2051
vn -0.8978 0.3899 -0.2048
vn -0.0000 0.8855 -0.4647
vn 0.0011 0.8851 -0.4654
vn -0.3720 0.8215 -0.4321
vn -0.3732 0.8210 -0.4321
vn 0.6826 0.6460 -0.3415
vn 0.3715 0.8217 -0.4322
vn 0.3733 0.8209 -0.4321
vn 0.8549 0.4585 -0.2428
vn -0.0001 -0.4490 -0.8935
vn -0.0000 -0.4491 -0.8935
vn -0.0001 -0.4491 -0.8935
vn 0.0001 -0.4487 -0.8937
vn -0.0000 -0.4489 -0.8936
vn -0.0000 -0.4490 -0.8935
vn 0.0001 -0.4486 -0.8937
vn -0.0002 -0.4492 -0.8934
vn 0.0002 -0.4490 -0.8936
vn 0.0003 -0.4489 -0.8936
vn -0.0003 -0.4489 -0.8936
vn -0.0000 -0.4486 -0.8937
vn -0.0000 -0.4487 -0.8937
vn 0.0002 -0.4492 -0.8934
vn 0.0001 -0.4489 -0.8936
vn 0.0001 -0.4491 -0.8935
vn -0.0000 -0.4492 -0.8934
vn 0.0001 -0.4490 -0.8935
vn -0.6733 0.5906 -0.4449
vn -0.8460 0.4053 -0.3463
vn -0.8896 0.3307 -0.3149
vn -0.5833 -0.0826 -0.8081
vn -0.6645 0.0786 -0.7431
vn -0.5317 0.2291 -0.8154
vn -0.0000 0.8283 -0.5602
vn -0.3696 0.7627 -0.5307
vn -0.3731 0.8211 -0.4321
vn -0.2952 0.3778 -0.8776
vn -0.0000 0.4409 -0.8975
vn 0.6827 0.6471 -0.3393
vn 0.6762 0.5935 -0.4364
vn 0.3703 0.7644 -0.5278
vn 0.3732 0.8209 -0.4321
vn 0.2954 0.3859 -0.8740
vn 0.5428 0.2478 -0.8025
vn 0.8906 0.3387 -0.3037
vn 0.8484 0.4062 -0.3394
vn 0.6740 0.0907 -0.7331
vn 0.7010 0.0275 -0.7126
vn -0.8931 0.3462 -0.2872
vn -0.8513 0.3978 -0.3422
vn -0.6773 0.5829 -0.4488
vn -0.5005 0.1773 -0.8474
vn -0.6528 0.0590 -0.7552
vn -0.8278 0.1893 -0.5282
vn -0.3707 0.7611 -0.5324
vn -0.3731 0.8210 -0.4321
vn -0.0000 0.8265 -0.5629
vn -0.0000 0.3781 -0.9258
vn -0.2756 0.3228 -0.9055
vn 0.3695 0.7627 -0.5307
vn 0.6766 0.5900 -0.4406
vn 0.6827 0.6472 -0.3394
vn 0.5125 0.1971 -0.8357
vn 0.2795 0.3306 -0.9014
vn 0.8494 0.4051 -0.3382
vn 0.6585 0.0710 -0.7492
vn -0.0630 -0.4209 -0.9049
vn -0.2011 -0.3392 -0.9190
vn -0.1618 -0.2918 -0.9427
vn -0.0905 -0.2360 -0.9675
vn -0.0000 -0.2126 -0.9771
vn 0.0905 -0.2323 -0.9684
vn 0.1694 -0.2760 -0.9461
vn 0.2012 -0.3274 -0.9232
vn 0.2010 -0.3509 -0.9146
vn -0.1180 -0.3188 -0.9405
vn -0.1615 -0.3426 -0.9255
vn -0.3388 -0.2679 -0.9019
vn -0.0000 -0.2674 -0.9636
vn -0.0709 -0.2798 -0.9574
vn 0.1337 -0.3111 -0.9409
vn 0.0749 -0.2760 -0.9582
vn 0.1813 -0.3393 -0.9230
vn 0.0002 -0.4490 -0.8935
vn 0.0001 -0.4490 -0.8936
vn -0.0000 -0.4488 -0.8937
vn 0.0002 -0.4488 -0.8936
vn 0.8545 0.4606 -0.2402
vn 0.3730 0.8211 -0.4321
vn 0.6826 0.6472 -0.3395
vn 0.0002 -0.4489 -0.8936
vn -0.0001 -0.4489 -0.8936
vt 0.664426 1.013043
vt 0.619627 1.013043
vt 0.619627 0.856825
vt 0.664426 0.856825
vt 0.577372 0.856825
vt 0.577372 1.013043
vt 0.536037 1.013043
vt 0.536037 0.856825
vt 0.495354 0.856825
vt 0.495354 1.013044
vt 0.454671 1.013044
vt 0.454671 0.856824
vt 0.413631 0.856824
vt 0.413631 1.013044
vt 0.372387 1.013044
vt 0.372387 0.856824
vt 0.328828 0.856824
vt 0.328828 1.013045
vt 0.076214 0.856823
vt 0.076214 1.013045
vt 0.035375 1.013045
vt 0.035375 0.856823
vt -0.007199 1.013045
vt -0.007199 0.856823
vt 0.159544 0.856824
vt 0.159544 1.013045
vt 0.117858 1.013045
vt 0.117858 0.856824
vt 0.243166 0.856824
vt 0.243166 1.013045
vt 0.201231 1.013045
vt 0.201231 0.856824
vt 0.285014 1.013045
vt 0.285014 0.856824
vt 0.577371 0.040058
vt 0.577370 0.031301
vt 0.619626 0.031304
vt 0.619627 0.040061
vt 0.664424 0.031307
vt 0.664425 0.040064
vt 0.664423 0.022062
vt 0.619625 0.022059
vt 0.577370 0.022056
vt 0.495354 0.040053
vt 0.495353 0.031296
vt 0.536036 0.031299
vt 0.536037 0.040056
vt 0.536035 0.022053
vt 0.495353 0.022051
vt 0.413630 0.040048
vt 0.413630 0.031291
vt 0.454671 0.031294
vt 0.454671 0.040050
vt 0.454670 0.022048
vt 0.413630 0.022045
vt 0.328828 0.040042
vt 0.328828 0.031285
vt 0.372386 0.031288
vt 0.372386 0.040045
vt 0.372386 0.022043
vt 0.328828 0.022040
vt -0.007199 0.040035
vt -0.007199 0.031278
vt 0.035375 0.031278
vt 0.035375 0.040035
vt 0.076214 0.031278
vt 0.076214 0.040035
vt 0.076214 0.022033
vt 0.035375 0.022032
vt -0.007199 0.022032
vt 0.117858 0.031279
vt 0.117858 0.040036
vt 0.159544 0.031279
vt 0.159544 0.040036
vt 0.159544 0.022034
vt 0.117858 0.022033
vt 0.201231 0.031280
vt 0.201231 0.040037
vt 0.243166 0.031281
vt 0.243166 0.040038
vt 0.243166 0.022035
vt 0.201231 0.022034
vt 0.285014 0.031283
vt 0.285014 0.040040
vt 0.285014 0.022037
vt 0.577372 0.168359
vt 0.577372 0.051107
vt 0.619628 0.051110
vt 0.619628 0.168362
vt 0.664427 0.051113
vt 0.664427 0.168364
vt 0.664426 0.047903
vt 0.619627 0.047900
vt 0.577372 0.047897
vt 0.495354 0.168355
vt 0.495354 0.051102
vt 0.536038 0.051105
vt 0.536038 0.168357
vt 0.536037 0.047895
vt 0.495354 0.047892
vt 0.413631 0.168351
vt 0.413631 0.051097
vt 0.454671 0.051100
vt 0.454671 0.168353
vt 0.454671 0.047890
vt 0.413631 0.047887
vt 0.328828 0.168346
vt 0.328828 0.051092
vt 0.372387 0.051095
vt 0.372387 0.168348
vt 0.372387 0.047885
vt 0.328828 0.047882
vt -0.007199 0.168340
vt -0.007199 0.051085
vt 0.035375 0.051085
vt 0.035375 0.168340
vt 0.076214 0.051085
vt 0.076214 0.168340
vt 0.076214 0.047875
vt 0.035375 0.047875
vt -0.007199 0.047875
vt 0.117858 0.051086
vt 0.117858 0.168341
vt 0.159544 0.051086
vt 0.159544 0.168341
vt 0.159544 0.047876
vt 0.117858 0.047875
vt 0.201231 0.051087
vt 0.201231 0.168341
vt 0.243166 0.051088
vt 0.243166 0.168342
vt 0.243166 0.047877
vt 0.201231 0.047876
vt 0.285014 0.051089
vt 0.285014 0.168344
vt 0.285014 0.047879
vt 0.664426 0.045091
vt 0.619627 0.045089
vt 0.577372 0.045086
vt 0.536037 0.045083
vt 0.495354 0.045081
vt 0.454671 0.045078
vt 0.413631 0.045076
vt 0.372387 0.045073
vt 0.328828 0.045070
vt 0.076214 0.045064
vt 0.035375 0.045063
vt -0.007199 0.045063
vt 0.159544 0.045064
vt 0.117858 0.045064
vt 0.243166 0.045066
vt 0.201231 0.045065
vt 0.285014 0.045068
vt 0.619625 0.015700
vt 0.664422 0.015703
vt 0.577369 0.015697
vt 0.536035 0.015695
vt 0.495353 0.015692
vt 0.454670 0.015689
vt 0.413630 0.015686
vt 0.372386 0.015684
vt 0.619627 0.511939
vt 0.664426 0.511940
vt 0.577372 0.511938
vt 0.536037 0.511936
vt 0.495354 0.511935
vt 0.454671 0.511934
vt 0.413631 0.511933
vt 0.372387 0.511932
vt 0.328828 0.511931
vt 0.035375 0.511927
vt 0.076214 0.511927
vt -0.007199 0.511927
vt 0.117858 0.511928
vt 0.159544 0.511928
vt 0.201231 0.511928
vt 0.243166 0.511929
vt 0.285014 0.511929
vt -0.007199 0.015673
vt 0.035375 0.015673
vt 0.076214 0.015674
vt 0.117858 0.015674
vt 0.159544 0.015675
vt 0.201231 0.015675
vt 0.243166 0.015676
vt 0.285014 0.015678
vt 0.328828 0.015681
s 1
usemtl Checker
f 2/1/1 1/2/2 3/3/3 4/4/4
f 5/5/5 3/3/3 1/2/2 6/6/6
f 6/6/6 7/7/7 8/8/8 5/5/5
f 9/9/9 8/8/8 7/7/7 10/10/10
f 10/10/10 11/11/11 12/12/12 9/9/9
f 13/13/13 12/12/12 11/11/11 14/14/14
f 14/14/14 15/15/15 16/16/16 13/13/13
f 17/17/17 16/16/16 15/15/15 18/18/18
f 22/19/19 21/20/20 20/21/21 23/22/22
f 23/22/22 20/21/21 19/23/23 24/24/24
f 27/25/25 26/26/26 25/27/27 28/28/28
f 28/28/28 25/27/27 21/20/20 22/19/19
f 31/29/13 30/30/29 29/31/30 32/32/31
f 32/32/31 29/31/30 26/26/26 27/25/25
f 17/17/17 18/18/18 33/33/32 34/34/16
f 34/34/16 33/33/32 30/30/29 31/29/13
f 35/35/33 36/36/34 37/37/35 38/38/34
f 38/38/34 37/37/35 39/39/36 40/40/33
f 41/41/37 39/39/36 37/37/35 42/42/33
f 42/42/33 37/37/35 36/36/34 43/43/38
f 44/44/34 45/45/34 46/46/34 47/47/34
f 47/47/34 46/46/34 36/36/34 35/35/33
f 43/43/38 36/36/34 46/46/34 48/48/38
f 48/48/38 46/46/34 45/45/34 49/49/38
f 50/50/39 51/51/34 52/52/34 53/53/34
f 53/53/34 52/52/34 45/45/34 44/44/34
f 49/49/38 45/45/34 52/52/34 54/54/38
f 54/54/38 52/52/34 51/51/34 55/55/35
f 56/56/34 57/57/34 58/58/40 59/59/35
f 59/59/35 58/58/40 51/51/34 50/50/39
f 55/55/35 51/51/34 58/58/40 60/60/41
f 60/60/41 58/58/40 57/57/34 61/61/42
f 62/62/34 63/63/43 64/64/44 65/65/43
f 65/65/43 64/64/44 66/66/45 67/67/38
f 68/68/46 66/66/45 64/64/44 69/69/47
f 69/69/47 64/64/44 63/63/43 70/70/48
f 67/67/38 66/66/45 71/71/38 72/72/38
f 72/72/38 71/71/38 73/73/38 74/74/45
f 75/75/49 73/73/38 71/71/38 76/76/34
f 76/76/34 71/71/38 66/66/45 68/68/46
f 74/74/45 73/73/38 77/77/38 78/78/38
f 78/78/38 77/77/38 79/79/50 80/80/50
f 81/81/40 79/79/50 77/77/38 82/82/34
f 82/82/34 77/77/38 73/73/38 75/75/49
f 80/80/50 79/79/50 83/83/38 84/84/41
f 84/84/41 83/83/38 57/57/34 56/56/34
f 61/61/42 57/57/34 83/83/38 85/85/35
f 85/85/35 83/83/38 79/79/50 81/81/40
f 86/86/5 87/87/51 88/88/52 89/89/22
f 89/89/22 88/88/52 90/90/53 91/91/4
f 92/92/54 90/90/53 88/88/52 93/93/55
f 93/93/55 88/88/52 87/87/51 94/94/56
f 95/95/25 96/96/57 97/97/58 98/98/59
f 98/98/59 97/97/58 87/87/51 86/86/5
f 94/94/56 87/87/51 97/97/58 99/99/60
f 99/99/60 97/97/58 96/96/57 100/100/61
f 101/101/62 102/102/63 103/103/64 104/104/65
f 104/104/65 103/103/64 96/96/57 95/95/25
f 100/100/61 96/96/57 103/103/64 105/105/66
f 105/105/66 103/103/64 102/102/63 106/106/67
f 107/107/17 108/108/68 109/109/69 110/110/16
f 110/110/16 109/109/69 102/102/63 101/101/62
f 106/106/67 102/102/63 109/109/69 111/111/70
f 111/111/70 109/109/69 108/108/68 112/112/71
f 113/113/4 114/114/72 115/115/73 116/116/22
f 116/116/22 115/115/73 117/117/74 118/118/19
f 119/119/75 117/117/74 115/115/73 120/120/76
f 120/120/76 115/115/73 114/114/72 121/121/77
f 118/118/19 117/117/74 122/122/78 123/123/79
f 123/123/79 122/122/78 124/124/80 125/125/9
f 126/126/81 124/124/80 122/122/78 127/127/82
f 127/127/82 122/122/78 117/117/74 119/119/75
f 125/125/9 124/124/80 128/128/83 129/129/12
f 129/129/12 128/128/83 130/130/84 131/131/85
f 132/132/86 130/130/84 128/128/83 133/133/87
f 133/133/87 128/128/83 124/124/80 126/126/81
f 131/131/85 130/130/84 134/134/88 135/135/16
f 135/135/16 134/134/88 108/108/68 107/107/17
f 112/112/71 108/108/68 134/134/88 136/136/89
f 136/136/89 134/134/88 130/130/84 132/132/86
f 40/40/33 137/137/90 138/138/91 38/38/34
f 38/38/34 138/138/91 139/139/92 35/35/33
f 94/94/56 139/139/92 138/138/91 93/93/55
f 93/93/55 138/138/91 137/137/90 92/92/54
f 35/35/33 139/139/92 140/140/93 47/47/34
f 47/47/34 140/140/93 141/141/94 44/44/34
f 100/100/61 141/141/94 140/140/93 99/99/60
f 99/99/60 140/140/93 139/139/92 94/94/56
f 44/44/34 141/141/94 142/142/95 53/53/34
f 53/53/34 142/142/95 143/143/96 50/50/39
f 106/106/67 143/143/96 142/142/95 105/105/66
f 105/105/66 142/142/95 141/141/94 100/100/61
f 50/50/39 143/143/96 144/144/97 59/59/35
f 59/59/35 144/144/97 145/145/98 56/56/34
f 112/112/71 145/145/98 144/144/97 111/111/70
f 111/111/70 144/144/97 143/143/96 106/106/67
f 67/67/38 146/146/99 147/147/100 65/65/43
f 65/65/43 147/147/100 148/148/101 62/62/34
f 121/121/77 148/148/101 147/147/100 120/120/76
f 120/120/76 147/147/100 146/146/99 119/119/75
f 74/74/45 149/149/102 150/150/103 72/72/38
f 72/72/38 150/150/103 146/146/99 67/67/38
f 119/119/75 146/146/99 150/150/103 127/127/82
f 127/127/82 150/150/103 149/149/102 126/126/81
f 80/80/50 151/151/104 152/152/105 78/78/38
f 78/78/38 152/152/105 149/149/102 74/74/45
f 126/126/81 149/149/102 152/152/105 133/133/87
f 133/133/87 152/152/105 151/151/104 132/132/86
f 56/56/34 145/145/98 153/153/106 84/84/41
f 84/84/41 153/153/106 151/151/104 80/80/50
f 132/132/86 151/151/104 153/153/106 136/136/89
f 136/136/89 153/153/106 145/145/98 112/112/71
f 41/41/37 42/42/33 154/154/107 155/155/108
f 156/156/33 154/154/107 42/42/33 43/43/38
f 43/43/38 48/48/38 157/157/38 156/156/33
f 158/158/44 157/157/38 48/48/38 49/49/38
f 49/49/38 54/54/38 159/159/50 158/158/44
f 160/160/109 159/159/50 54/54/38 55/55/35
f 55/55/35 60/60/41 161/161/110 160/160/109
f 4/4/4 3/3/3 162/162/3 163/163/4
f 163/163/4 162/162/3 89/89/22 91/91/4
f 86/86/5 89/89/22 162/162/3 164/164/19
f 164/164/19 162/162/3 3/3/3 5/5/5
f 5/5/5 8/8/8 165/165/28 164/164/19
f 164/164/19 165/165/28 98/98/59 86/86/5
f 95/95/25 98/98/59 165/165/28 166/166/9
f 166/166/9 165/165/28 8/8/8 9/9/9
f 9/9/9 12/12/12 167/167/12 166/166/9
f 166/166/9 167/167/12 104/104/65 95/95/25
f 101/101/62 104/104/65 167/167/12 168/168/13
f 168/168/13 167/167/12 12/12/12 13/13/13
f 13/13/13 16/16/16 169/169/111 168/168/13
f 168/168/13 169/169/111 110/110/16 101/101/62
f 107/107/17 110/110/16 169/169/111 170/170/17
f 170/170/17 169/169/111 16/16/16 17/17/17
f 22/19/19 23/22/22 171/171/22 172/172/19
f 172/172/19 171/171/22 116/116/22 118/118/19
f 113/113/4 116/116/22 171/171/22 173/173/4
f 173/173/4 171/171/22 23/22/22 24/24/24
f 27/25/25 28/28/28 174/174/79 175/175/9
f 175/175/9 174/174/79 123/123/79 125/125/9
f 118/118/19 123/123/79 174/174/79 172/172/19
f 172/172/19 174/174/79 28/28/28 22/19/19
f 31/29/13 32/32/31 176/176/112 177/177/113
f 177/177/113 176/176/112 129/129/12 131/131/85
f 125/125/9 129/129/12 176/176/112 175/175/9
f 175/175/9 176/176/112 32/32/31 27/25/25
f 17/17/17 34/34/16 178/178/16 170/170/17
f 170/170/17 178/178/16 135/135/16 107/107/17
f 131/131/85 135/135/16 178/178/16 177/177/113
f 177/177/113 178/178/16 34/34/16 31/29/13
f 69/69/47 70/70/48 179/179/114 180/180/47
f 68/68/46 69/69/47 180/180/47 181/181/48
f 76/76/34 68/68/46 181/181/48 182/182/37
f 75/75/49 76/76/34 182/182/37 183/183/38
f 184/184/49 82/82/34 75/75/49 183/183/38
f 185/185/35 81/81/40 82/82/34 184/184/49
f 186/186/115 85/85/35 81/81/40 185/185/35
f 187/187/35 61/61/42 85/85/35 186/186/115
f 161/161/110 60/60/41 61/61/42 187/187/35
