# Blender 4.0.2
# www.blender.org
mtllib purlin_6000.mtl
o purlin_6000
v -0.000000 2.456082 0.191520
v -0.000000 2.411082 0.245150
v 1.000000 2.411082 0.245140
v 1.000000 2.456082 0.191520
v 0.000000 2.325852 0.082250
v 1.000000 2.325852 0.082250
v -0.000000 2.280852 0.135870
v 1.000000 2.280852 0.135870
v -0.000000 1.729250 1.057725
v -0.000000 1.684250 1.111355
v 1.000000 1.684250 1.111345
v 1.000000 1.729250 1.057725
v 0.000000 1.599020 0.948455
v 1.000000 1.599020 0.948455
v -0.000000 1.554020 1.002075
v 1.000000 1.554020 1.002075
v -0.000000 1.002418 1.923930
v -0.000000 0.957417 1.977560
v 1.000000 0.957417 1.977550
v 1.000000 1.002418 1.923930
v 0.000000 0.872188 1.814660
v 1.000000 0.872188 1.814660
v -0.000000 0.827188 1.868280
v 1.000000 0.827188 1.868280
v 1.000000 2.456082 -0.191520
v 1.000000 2.411082 -0.245150
v 0.000000 2.411082 -0.245140
v 0.000000 2.456082 -0.191521
v 1.000000 2.325852 -0.082250
v 0.000000 2.325852 -0.082250
v 1.000000 2.280852 -0.135870
v 0.000000 2.280852 -0.135871
v 1.000000 1.729250 -1.057725
v 1.000000 1.684250 -1.111355
v 0.000000 1.684250 -1.111345
v 0.000000 1.729250 -1.057725
v 1.000000 1.599020 -0.948455
v 0.000000 1.599020 -0.948455
v 1.000000 1.554020 -1.002075
v 0.000000 1.554020 -1.002075
v 1.000000 1.002418 -1.923930
v 1.000000 0.957417 -1.977560
v 0.000000 0.957417 -1.977550
v 0.000000 1.002418 -1.923930
v 1.000000 0.872188 -1.814660
v 0.000000 0.872188 -1.814660
v 1.000000 0.827188 -1.868280
v 0.000000 0.827188 -1.868280
vn -1.0000 -0.0000 -0.0000
vn -0.0000 -0.7660 -0.6429
vn 1.0000 -0.0000 -0.0000
vn -0.0000 0.7660 0.6428
vn -0.0000 -0.6428 0.7660
vn -0.0000 0.6428 -0.7661
vn -0.0000 -0.7660 0.6429
vn -0.0000 0.7660 -0.6428
vn -0.0000 -0.6428 -0.7660
vn -0.0000 0.6428 0.7661
vt 0.699549 0.336553
vt 0.699547 0.315087
vt 0.751680 0.315086
vt 0.751680 0.336554
vt 0.000379 0.293620
vt 1.533652 0.293619
vt 1.533652 0.315086
vt 0.000379 0.315086
vt 0.803811 0.336552
vt 0.751680 0.336552
vt 0.751683 0.315086
vt 0.803814 0.315086
vt 0.803814 0.293620
vt -0.729459 0.293620
vt -0.729459 0.272154
vt 0.803814 0.272151
vt 0.000379 0.167887
vt 1.533652 0.167889
vt 1.533651 0.220020
vt 0.000379 0.220020
vt 0.000379 0.220020
vt 1.533652 0.220020
vt 1.533651 0.272151
vt 0.000379 0.272151
s 0
usemtl wood
f 5/1/1 7/2/1 2/3/1 1/4/1
f 5/5/2 6/6/2 8/7/2 7/8/2
f 3/9/3 8/10/3 6/11/3 4/12/3
f 2/13/4 3/14/4 4/15/4 1/16/4
f 7/17/5 8/18/5 3/19/5 2/20/5
f 1/21/6 4/22/6 6/23/6 5/24/6
f 13/1/1 15/2/1 10/3/1 9/4/1
f 13/5/2 14/6/2 16/7/2 15/8/2
f 11/9/3 16/10/3 14/11/3 12/12/3
f 10/13/4 11/14/4 12/15/4 9/16/4
f 15/17/5 16/18/5 11/19/5 10/20/5
f 9/21/6 12/22/6 14/23/6 13/24/6
f 21/1/1 23/2/1 18/3/1 17/4/1
f 21/5/2 22/6/2 24/7/2 23/8/2
f 19/9/3 24/10/3 22/11/3 20/12/3
f 18/13/4 19/14/4 20/15/4 17/16/4
f 23/17/5 24/18/5 19/19/5 18/20/5
f 17/21/6 20/22/6 22/23/6 21/24/6
f 29/1/3 31/2/3 26/3/3 25/4/3
f 29/5/7 30/6/7 32/7/7 31/8/7
f 27/9/1 32/10/1 30/11/1 28/12/1
f 26/13/8 27/14/8 28/15/8 25/16/8
f 31/17/9 32/18/9 27/19/9 26/20/9
f 25/21/10 28/22/10 30/23/10 29/24/10
f 37/1/3 39/2/3 34/3/3 33/4/3
f 37/5/7 38/6/7 40/7/7 39/8/7
f 35/9/1 40/10/1 38/11/1 36/12/1
f 34/13/8 35/14/8 36/15/8 33/16/8
f 39/17/9 40/18/9 35/19/9 34/20/9
f 33/21/10 36/22/10 38/23/10 37/24/10
f 45/1/3 47/2/3 42/3/3 41/4/3
f 45/5/7 46/6/7 48/7/7 47/8/7
f 43/9/1 48/10/1 46/11/1 44/12/1
f 42/13/8 43/14/8 44/15/8 41/16/8
f 47/17/9 48/18/9 43/19/9 42/20/9
f 41/21/10 44/22/10 46/23/10 45/24/10
