# Blender 4.0.2
# www.blender.org
mtllib isolated_plate_roof_side_5500.mtl
o isolated_plate_roof_side_5500
v -0.020001 0.101170 2.826340
v -0.000001 0.101170 2.826340
v -0.000001 -0.029370 2.670770
v -0.020000 -0.029370 2.670770
v -0.020001 -0.029370 2.826340
v -0.000001 -0.029370 2.826340
v -0.000001 2.472751 -0.000001
v -0.020000 2.472751 -0.000001
v -0.000001 2.211672 -0.000001
v -0.020000 2.211672 -0.000001
v -0.020001 0.064190 2.826340
v -0.040001 0.064190 2.826340
v -0.040001 0.227370 2.826340
v -0.020001 0.227370 2.826340
v -0.020001 0.222770 2.826340
v 0.097799 0.189480 2.833700
v -0.049901 0.209430 2.850450
v -0.040001 0.227370 2.826340
v -0.020001 0.227370 2.826340
v -0.046401 0.224520 2.863110
v 0.101299 0.204570 2.846360
v -0.049901 2.601236 -0.000000
v -0.020000 2.594351 -0.000000
v -0.046401 2.626948 0.000000
v 0.101299 2.592945 -0.000000
v 0.097799 2.567233 0.000000
v -0.040001 2.598951 -0.000000
v -0.040001 2.435776 -0.000000
v -0.040001 2.598951 -0.000000
v -0.020000 2.435776 -0.000000
v -0.020000 2.598951 -0.000000
v -0.020000 2.598951 -0.000000
v -0.020001 0.101170 -2.826340
v -0.000001 0.101170 -2.826340
v -0.000001 -0.029370 -2.670770
v -0.020000 -0.029370 -2.670770
v -0.020001 -0.029370 -2.826340
v -0.000001 -0.029370 -2.826340
v -0.000001 2.472751 0.000001
v -0.020000 2.472751 0.000001
v -0.000001 2.211672 0.000001
v -0.020000 2.211672 0.000001
v -0.020001 0.064190 -2.826340
v -0.040001 0.064190 -2.826340
v -0.040001 0.227370 -2.826340
v -0.020001 0.227370 -2.826340
v -0.020001 0.222770 -2.826340
v 0.097799 0.189480 -2.833700
v -0.049901 0.209430 -2.850450
v -0.040001 0.227370 -2.826340
v -0.020001 0.227370 -2.826340
v -0.046401 0.224520 -2.863110
v 0.101299 0.204570 -2.846360
v -0.049901 2.601236 0.000000
v -0.020000 2.594351 0.000000
v -0.046401 2.626948 0.000000
v 0.101299 2.592945 0.000000
v 0.097799 2.567233 -0.000000
v -0.040001 2.598951 0.000000
v -0.040001 2.435776 0.000000
v -0.040001 2.598951 0.000000
v -0.020000 2.435776 0.000000
v -0.020000 2.598951 0.000000
v -0.020000 2.598951 0.000000
vn 1.0000 -0.0000 -0.0000
vn -0.0000 -1.0000 -0.0000
vn -0.0000 0.7660 0.6428
vn -0.0000 -0.7660 -0.6428
vn -0.0000 -0.0000 1.0000
vn -1.0000 -0.0000 -0.0000
vn 0.9846 -0.1340 -0.1125
vn -0.1744 -0.7543 -0.6329
vn -0.1736 -0.7546 -0.6328
vn -0.1737 -0.7545 -0.6329
vn -0.1737 -0.7544 -0.6330
vn 0.1737 0.7544 0.6330
vn -0.9846 0.1340 0.1125
vn -0.0000 -0.0000 -1.0000
vn 0.0001 -0.6427 0.7661
vn -0.0000 0.7660 -0.6428
vn -0.0000 -0.7660 0.6428
vn 0.9846 -0.1340 0.1125
vn -0.1743 -0.7543 0.6329
vn -0.1736 -0.7546 0.6328
vn -0.1737 -0.7545 0.6329
vn -0.1737 -0.7544 0.6330
vn 0.1737 0.7544 -0.6330
vn -0.9846 0.1340 -0.1125
vn 0.0001 -0.6427 -0.7661
vt 1.117864 0.298589
vt 1.171394 0.362383
vt -0.005459 0.362383
vt -0.032224 0.330486
vt 0.005789 0.298589
vt 0.054821 0.169889
vt 0.104443 0.169889
vt 0.104443 0.176268
vt 0.054821 0.176268
vt 1.082286 0.176268
vt 1.082286 0.182647
vt 0.340176 0.182647
vt 0.340176 0.176268
vt 1.105018 0.169888
vt 1.105018 0.176268
vt 0.272124 0.176268
vt 0.272124 0.169889
vt 0.492798 0.176268
vt 0.534436 0.176268
vt 0.534436 0.182647
vt 0.492798 0.182647
vt 0.005789 -0.086400
vt -0.032224 -0.118297
vt -0.005459 -0.150194
vt 1.171393 -0.150193
vt 1.117864 -0.086400
vt 1.274108 0.040130
vt 0.095647 0.040131
vt 0.062145 0.000360
vt 1.240605 0.000358
vt 1.240605 0.592057
vt 0.062145 0.592057
vt 0.095646 0.552170
vt 1.274108 0.552169
vt 0.081287 0.133926
vt 1.237383 0.133925
vt 1.237382 0.140270
vt 0.081287 0.140270
vt 0.365332 0.133926
vt 0.325403 0.133926
vt 0.325403 0.127537
vt 0.365332 0.127537
vt 0.067930 -0.097785
vt 0.062652 -0.104150
vt 1.248858 -0.103904
vt 1.248860 -0.097539
vt 1.248712 0.249372
vt 0.080785 0.220208
vt 0.081232 0.217034
vt 1.239164 0.246118
vt 1.250715 0.246404
vt 1.241133 0.243199
vt 1.242076 0.236723
vt 1.250710 0.198619
vt 1.250714 0.246443
vt 1.242075 0.236761
vt 1.247446 0.198020
vt 1.238819 0.236164
vt 0.081959 0.240172
vt 0.087534 0.202031
vt 0.087299 0.210283
vt 0.080335 0.162560
vt 1.252895 0.164100
vt 1.252910 0.211821
vt 0.062660 0.458975
vt 0.067938 0.452641
vt 1.255870 0.452392
vt 1.255869 0.458726
vt 0.935224 0.192397
vt 0.936168 0.192267
vt 0.935224 0.198742
vt 0.081288 0.140270
vt 1.237382 0.140271
vt 1.237382 0.146635
vt 0.081288 0.146634
vt 0.061934 0.404337
vt 0.062880 0.403211
vt 1.241343 0.403212
vt 0.060905 0.404087
vt 1.241123 0.402993
vt 1.240162 0.404118
vt 0.081757 0.192398
vt 1.237852 0.192397
vt 1.237851 0.198742
vt 0.081757 0.198743
vt 0.232910 0.386639
vt 0.232902 0.380249
vt 0.280805 0.380248
vt 0.280813 0.386638
vt -1.117864 0.152683
vt -0.005789 0.152683
vt 0.032224 0.120786
vt 0.005459 0.088889
vt -1.171394 0.088889
vt -0.054821 0.281383
vt -0.054821 0.275004
vt -0.104443 0.275004
vt -0.104443 0.281383
vt -1.082286 0.275004
vt -0.340176 0.275004
vt -0.340176 0.268625
vt -1.082286 0.268625
vt -1.105018 0.281384
vt -0.272124 0.281383
vt -0.272124 0.275004
vt -1.105018 0.275004
vt -0.492798 0.275004
vt -0.492798 0.268625
vt -0.534436 0.268625
vt -0.534436 0.275004
vt -0.005789 0.537672
vt -1.117864 0.537672
vt -1.171393 0.601466
vt 0.005459 0.601466
vt 0.032224 0.569569
vt -1.274108 0.411142
vt -1.240605 0.450915
vt -0.062145 0.450912
vt -0.095647 0.411141
vt -1.240605 -0.140785
vt -1.274108 -0.100897
vt -0.095646 -0.100898
vt -0.062145 -0.140785
vt -0.081287 0.317346
vt -0.081287 0.311002
vt -1.237382 0.311002
vt -1.237383 0.317347
vt -0.365332 0.317347
vt -0.365332 0.323735
vt -0.325403 0.323735
vt -0.325403 0.317347
vt -0.067930 0.549057
vt -1.248860 0.548811
vt -1.248858 0.555176
vt -0.062652 0.555422
vt -1.248712 0.201900
vt -1.239164 0.205155
vt -0.081232 0.234238
vt -0.080785 0.231064
vt -1.250715 0.204868
vt -1.242076 0.214550
vt -1.241133 0.208073
vt -1.250710 0.252653
vt -1.242075 0.214511
vt -1.250714 0.204829
vt -1.247446 0.253252
vt -0.087534 0.249241
vt -0.081959 0.211100
vt -1.238819 0.215109
vt -0.087299 0.240989
vt -1.252910 0.239451
vt -1.252895 0.287172
vt -0.080335 0.288712
vt -0.062660 -0.007703
vt -1.255869 -0.007454
vt -1.255870 -0.001119
vt -0.067938 -0.001368
vt -0.935224 0.258875
vt -0.935224 0.252530
vt -0.936168 0.259006
vt -0.081288 0.311002
vt -0.081288 0.304638
vt -1.237382 0.304638
vt -1.237382 0.311002
vt -0.061934 0.046935
vt -1.241343 0.048060
vt -0.062880 0.048061
vt -0.060905 0.047185
vt -1.240162 0.047155
vt -1.241123 0.048279
vt -0.081757 0.258874
vt -0.081757 0.252529
vt -1.237851 0.252530
vt -1.237852 0.258875
vt -0.232910 0.064633
vt -0.280813 0.064634
vt -0.280805 0.071024
vt -0.232902 0.071023
s 0
usemtl wood
f 9/1/1 7/2/1 2/3/1 6/4/1 3/5/1
f 5/6/2 4/7/2 3/8/2 6/9/2
f 7/10/3 8/11/3 1/12/3 2/13/3
f 10/14/4 9/15/4 3/16/4 4/17/4
f 6/18/5 2/19/5 1/20/5 5/21/5
f 4/22/6 5/23/6 1/24/6 8/25/6 10/26/6
f 11/27/1 30/28/1 31/29/1 14/30/1
f 13/31/6 29/32/6 28/33/6 12/34/6
f 30/35/4 11/36/4 12/37/4 28/38/4
f 11/39/5 14/40/5 13/41/5 12/42/5
f 26/43/7 25/44/7 21/45/7 16/46/7
f 17/47/8 22/48/8 27/49/8 18/50/8
f 17/51/9 18/52/9 15/53/9
f 16/54/10 17/55/10 15/56/10
f 16/57/11 15/58/11 23/59/11 26/60/11
f 25/61/12 24/62/12 20/63/12 21/64/12
f 24/65/13 22/66/13 17/67/13 20/68/13
f 19/69/14 15/70/14 18/71/14
f 29/72/3 13/73/3 14/74/3 31/75/3
f 32/76/6 23/77/6 15/78/6
f 32/79/6 15/80/6 19/81/6
f 32/82/4 19/83/4 18/84/4 27/85/4
f 20/86/15 17/87/15 16/88/15 21/89/15
f 41/90/1 35/91/1 38/92/1 34/93/1 39/94/1
f 37/95/2 38/96/2 35/97/2 36/98/2
f 39/99/16 34/100/16 33/101/16 40/102/16
f 42/103/17 36/104/17 35/105/17 41/106/17
f 38/107/14 37/108/14 33/109/14 34/110/14
f 36/111/6 42/112/6 40/113/6 33/114/6 37/115/6
f 43/116/1 46/117/1 63/118/1 62/119/1
f 45/120/6 44/121/6 60/122/6 61/123/6
f 62/124/17 60/125/17 44/126/17 43/127/17
f 43/128/14 44/129/14 45/130/14 46/131/14
f 58/132/18 48/133/18 53/134/18 57/135/18
f 49/136/19 50/137/19 59/138/19 54/139/19
f 49/140/20 47/141/20 50/142/20
f 48/143/21 47/144/21 49/145/21
f 48/146/22 58/147/22 55/148/22 47/149/22
f 57/150/23 53/151/23 52/152/23 56/153/23
f 56/154/24 52/155/24 49/156/24 54/157/24
f 51/158/5 50/159/5 47/160/5
f 61/161/16 63/162/16 46/163/16 45/164/16
f 64/165/6 47/166/6 55/167/6
f 64/168/6 51/169/6 47/170/6
f 64/171/17 59/172/17 50/173/17 51/174/17
f 52/175/25 53/176/25 48/177/25 49/178/25
