# Blender 4.0.2
# www.blender.org
mtllib isolated_plate_roof_side_4000.mtl
o isolated_plate_roof_side_4000
v -0.020001 0.101170 2.076340
v -0.000001 0.101170 2.076340
v -0.000001 -0.029370 1.920770
v -0.020000 -0.029370 1.920770
v -0.020001 -0.029370 2.076340
v -0.000001 -0.029370 2.076340
v -0.000001 1.843426 -0.000001
v -0.020000 1.843426 -0.000001
v -0.000001 1.582347 -0.000001
v -0.020000 1.582347 -0.000001
v -0.020001 0.064190 2.076340
v -0.040001 0.064190 2.076340
v -0.040001 0.227370 2.076340
v -0.020001 0.227370 2.076340
v -0.020001 0.222770 2.076340
v 0.097799 0.189480 2.083700
v -0.049901 0.209430 2.100450
v -0.040001 0.227370 2.076340
v -0.020001 0.227370 2.076340
v -0.046401 0.224520 2.113110
v 0.101299 0.204570 2.096360
v -0.049901 1.971911 -0.000000
v -0.020000 1.965026 -0.000000
v -0.046401 1.997623 0.000000
v 0.101299 1.963620 -0.000000
v 0.097799 1.937908 0.000000
v -0.040001 1.969626 -0.000000
v -0.040001 1.806450 -0.000000
v -0.040001 1.969626 -0.000000
v -0.020000 1.806450 -0.000000
v -0.020000 1.969626 -0.000000
v -0.020000 1.969626 -0.000000
v -0.020001 0.101170 -2.076340
v -0.000001 0.101170 -2.076340
v -0.000001 -0.029370 -1.920769
v -0.020000 -0.029370 -1.920769
v -0.020001 -0.029370 -2.076340
v -0.000001 -0.029370 -2.076340
v -0.000001 1.843426 0.000001
v -0.020000 1.843426 0.000001
v -0.000001 1.582347 0.000001
v -0.020000 1.582347 0.000001
v -0.020001 0.064190 -2.076340
v -0.040001 0.064190 -2.076340
v -0.040001 0.227370 -2.076340
v -0.020001 0.227370 -2.076340
v -0.020001 0.222770 -2.076340
v 0.097799 0.189480 -2.083700
v -0.049901 0.209430 -2.100450
v -0.040001 0.227370 -2.076340
v -0.020001 0.227370 -2.076340
v -0.046401 0.224520 -2.113110
v 0.101299 0.204570 -2.096360
v -0.049901 1.971911 0.000000
v -0.020000 1.965026 0.000000
v -0.046401 1.997623 0.000000
v 0.101299 1.963620 0.000000
v 0.097799 1.937908 -0.000000
v -0.040001 1.969626 0.000000
v -0.040001 1.806450 0.000000
v -0.040001 1.969626 0.000000
v -0.020000 1.806450 0.000000
v -0.020000 1.969626 0.000000
v -0.020000 1.969626 0.000000
vn 1.0000 -0.0000 -0.0000
vn -0.0000 -1.0000 -0.0000
vn -0.0000 0.7660 0.6428
vn -0.0000 -0.7660 -0.6428
vn -0.0000 -0.0000 1.0000
vn -1.0000 -0.0000 -0.0000
vn 0.9846 -0.1340 -0.1125
vn -0.1744 -0.7543 -0.6329
vn -0.1736 -0.7546 -0.6328
vn -0.1737 -0.7545 -0.6329
vn -0.1737 -0.7544 -0.6330
vn 0.1737 0.7544 0.6330
vn -0.9846 0.1340 0.1125
vn -0.0000 -0.0000 -1.0000
vn 0.0001 -0.6427 0.7661
vn -0.0000 0.7660 -0.6428
vn -0.0000 -0.7660 0.6428
vn 0.9846 -0.1340 0.1125
vn -0.1743 -0.7543 0.6329
vn -0.1736 -0.7546 0.6328
vn -0.1737 -0.7545 0.6329
vn -0.1737 -0.7544 0.6330
vn 0.1737 0.7544 -0.6330
vn -0.9846 0.1340 -0.1125
vn 0.0001 -0.6427 -0.7661
vt 0.988833 0.144816
vt 1.042362 0.208610
vt 0.177800 0.208610
vt 0.151036 0.176713
vt 0.189048 0.144816
vt 0.294049 0.169889
vt 0.343671 0.169889
vt 0.343671 0.176268
vt 0.294049 0.176268
vt 1.005613 0.176268
vt 1.005613 0.182647
vt 0.456284 0.182647
vt 0.456284 0.176268
vt 1.014323 0.169888
vt 1.014323 0.176268
vt 0.410114 0.176268
vt 0.410115 0.169889
vt 0.492798 0.176268
vt 0.534436 0.176268
vt 0.534436 0.182647
vt 0.492798 0.182647
vt 0.189048 0.067373
vt 0.151035 0.035476
vt 0.177800 0.003579
vt 1.042362 0.003579
vt 0.988832 0.067373
vt 1.090597 0.193519
vt 0.224854 0.193519
vt 0.191352 0.153747
vt 1.057095 0.153746
vt 1.057095 0.438222
vt 0.191352 0.438222
vt 0.224854 0.398335
vt 1.090597 0.398334
vt 0.200731 0.133926
vt 1.056505 0.133926
vt 1.056505 0.140271
vt 0.200731 0.140270
vt 0.365332 0.133926
vt 0.325403 0.133926
vt 0.325403 0.127537
vt 0.365332 0.127537
vt 0.196893 0.053336
vt 0.191614 0.046971
vt 1.065427 0.047085
vt 1.065427 0.053450
vt 1.066795 0.220315
vt 0.200500 0.206856
vt 0.200961 0.203663
vt 1.057222 0.217095
vt 1.067176 0.219732
vt 1.057594 0.216527
vt 1.058537 0.210051
vt 1.067165 0.171922
vt 1.067169 0.219746
vt 1.058530 0.210065
vt 1.066556 0.171812
vt 1.057922 0.209954
vt 0.201801 0.211740
vt 0.207371 0.173598
vt 0.207247 0.237597
vt 0.200273 0.189874
vt 1.071868 0.190562
vt 1.071871 0.238284
vt 0.191614 0.308583
vt 0.196892 0.302249
vt 1.072423 0.302134
vt 1.072423 0.308468
vt 0.935224 0.192397
vt 0.936168 0.192267
vt 0.935224 0.198742
vt 0.200731 0.140270
vt 1.056504 0.140271
vt 1.056504 0.146635
vt 0.200732 0.146634
vt 0.191318 0.250338
vt 0.192263 0.249212
vt 1.058007 0.249214
vt 0.191723 0.250348
vt 1.058281 0.249238
vt 1.057339 0.250362
vt 0.201201 0.192398
vt 1.056973 0.192397
vt 1.056973 0.198742
vt 0.201201 0.198743
vt 0.259662 0.235010
vt 0.259654 0.228620
vt 0.307558 0.228620
vt 0.307567 0.235010
vt -0.988833 0.306456
vt -0.189048 0.306456
vt -0.151036 0.274559
vt -0.177800 0.242662
vt -1.042362 0.242662
vt -0.294049 0.281383
vt -0.294049 0.275004
vt -0.343671 0.275004
vt -0.343671 0.281383
vt -1.005613 0.275004
vt -0.456284 0.275004
vt -0.456284 0.268625
vt -1.005613 0.268625
vt -1.014323 0.281384
vt -0.410115 0.281384
vt -0.410114 0.275004
vt -1.014323 0.275004
vt -0.492798 0.275004
vt -0.492798 0.268625
vt -0.534436 0.268625
vt -0.534436 0.275004
vt -0.189048 0.383899
vt -0.988832 0.383899
vt -1.042362 0.447693
vt -0.177800 0.447693
vt -0.151035 0.415796
vt -1.090597 0.257754
vt -1.057095 0.297526
vt -0.191352 0.297525
vt -0.224854 0.257753
vt -1.057095 0.013050
vt -1.090597 0.052938
vt -0.224854 0.052937
vt -0.191352 0.013050
vt -0.200731 0.317347
vt -0.200731 0.311002
vt -1.056505 0.311002
vt -1.056505 0.317347
vt -0.365332 0.317347
vt -0.365332 0.323735
vt -0.325403 0.323735
vt -0.325403 0.317347
vt -0.196893 0.397936
vt -1.065427 0.397822
vt -1.065427 0.404187
vt -0.191614 0.404301
vt -1.066795 0.230957
vt -1.057222 0.234177
vt -0.200961 0.247609
vt -0.200500 0.244416
vt -1.067176 0.231540
vt -1.058537 0.241222
vt -1.057594 0.234746
vt -1.067165 0.279350
vt -1.058530 0.241208
vt -1.067169 0.231526
vt -1.066556 0.279461
vt -0.207371 0.277674
vt -0.201801 0.239533
vt -1.057922 0.241318
vt -0.207247 0.213675
vt -1.071871 0.212988
vt -1.071868 0.260710
vt -0.200273 0.261398
vt -0.191614 0.142689
vt -1.072423 0.142804
vt -1.072423 0.149138
vt -0.196892 0.149023
vt -0.935224 0.258875
vt -0.935224 0.252530
vt -0.936168 0.259006
vt -0.200731 0.311002
vt -0.200731 0.304638
vt -1.056504 0.304638
vt -1.056504 0.311002
vt -0.191318 0.200934
vt -1.058007 0.202058
vt -0.192263 0.202060
vt -0.191723 0.200924
vt -1.057339 0.200910
vt -1.058281 0.202034
vt -0.201201 0.258874
vt -0.201201 0.252530
vt -1.056973 0.252530
vt -1.056973 0.258875
vt -0.259662 0.216262
vt -0.307567 0.216262
vt -0.307558 0.222652
vt -0.259654 0.222652
s 0
usemtl wood
f 9/1/1 7/2/1 2/3/1 6/4/1 3/5/1
f 5/6/2 4/7/2 3/8/2 6/9/2
f 7/10/3 8/11/3 1/12/3 2/13/3
f 10/14/4 9/15/4 3/16/4 4/17/4
f 6/18/5 2/19/5 1/20/5 5/21/5
f 4/22/6 5/23/6 1/24/6 8/25/6 10/26/6
f 11/27/1 30/28/1 31/29/1 14/30/1
f 13/31/6 29/32/6 28/33/6 12/34/6
f 30/35/4 11/36/4 12/37/4 28/38/4
f 11/39/5 14/40/5 13/41/5 12/42/5
f 26/43/7 25/44/7 21/45/7 16/46/7
f 17/47/8 22/48/8 27/49/8 18/50/8
f 17/51/9 18/52/9 15/53/9
f 16/54/10 17/55/10 15/56/10
f 16/57/11 15/58/11 23/59/11 26/60/11
f 25/61/12 24/62/12 20/63/12 21/64/12
f 24/65/13 22/66/13 17/67/13 20/68/13
f 19/69/14 15/70/14 18/71/14
f 29/72/3 13/73/3 14/74/3 31/75/3
f 32/76/6 23/77/6 15/78/6
f 32/79/6 15/80/6 19/81/6
f 32/82/4 19/83/4 18/84/4 27/85/4
f 20/86/15 17/87/15 16/88/15 21/89/15
f 41/90/1 35/91/1 38/92/1 34/93/1 39/94/1
f 37/95/2 38/96/2 35/97/2 36/98/2
f 39/99/16 34/100/16 33/101/16 40/102/16
f 42/103/17 36/104/17 35/105/17 41/106/17
f 38/107/14 37/108/14 33/109/14 34/110/14
f 36/111/6 42/112/6 40/113/6 33/114/6 37/115/6
f 43/116/1 46/117/1 63/118/1 62/119/1
f 45/120/6 44/121/6 60/122/6 61/123/6
f 62/124/17 60/125/17 44/126/17 43/127/17
f 43/128/14 44/129/14 45/130/14 46/131/14
f 58/132/18 48/133/18 53/134/18 57/135/18
f 49/136/19 50/137/19 59/138/19 54/139/19
f 49/140/20 47/141/20 50/142/20
f 48/143/21 47/144/21 49/145/21
f 48/146/22 58/147/22 55/148/22 47/149/22
f 57/150/23 53/151/23 52/152/23 56/153/23
f 56/154/24 52/155/24 49/156/24 54/157/24
f 51/158/5 50/159/5 47/160/5
f 61/161/16 63/162/16 46/163/16 45/164/16
f 64/165/6 47/166/6 55/167/6
f 64/168/6 51/169/6 47/170/6
f 64/171/17 59/172/17 50/173/17 51/174/17
f 52/175/25 53/176/25 48/177/25 49/178/25
