# Blender 4.0.2
# www.blender.org
mtllib isolated_plate_roof_side_5000.mtl
o isolated_plate_roof_side_5000
v -0.020001 0.101170 2.576340
v -0.000001 0.101170 2.576340
v -0.000001 -0.029370 2.420770
v -0.020000 -0.029370 2.420770
v -0.020001 -0.029370 2.576340
v -0.000001 -0.029370 2.576340
v -0.000001 2.262976 -0.000001
v -0.020000 2.262976 -0.000001
v -0.000001 2.001897 -0.000001
v -0.020000 2.001897 -0.000001
v -0.020001 0.064190 2.576340
v -0.040001 0.064190 2.576340
v -0.040001 0.227370 2.576340
v -0.020001 0.227370 2.576340
v -0.020001 0.222770 2.576340
v 0.097799 0.189480 2.583700
v -0.049901 0.209430 2.600450
v -0.040001 0.227370 2.576340
v -0.020001 0.227370 2.576340
v -0.046401 0.224520 2.613110
v 0.101299 0.204570 2.596360
v -0.049901 2.391461 -0.000000
v -0.020000 2.384576 -0.000000
v -0.046401 2.417173 0.000000
v 0.101299 2.383170 -0.000000
v 0.097799 2.357458 0.000000
v -0.040001 2.389176 -0.000000
v -0.040001 2.226001 -0.000000
v -0.040001 2.389176 -0.000000
v -0.020000 2.226001 -0.000000
v -0.020000 2.389176 -0.000000
v -0.020000 2.389176 -0.000000
v -0.020001 0.101170 -2.576340
v -0.000001 0.101170 -2.576340
v -0.000001 -0.029370 -2.420770
v -0.020000 -0.029370 -2.420770
v -0.020001 -0.029370 -2.576340
v -0.000001 -0.029370 -2.576340
v -0.000001 2.262976 0.000001
v -0.020000 2.262976 0.000001
v -0.000001 2.001897 0.000001
v -0.020000 2.001897 0.000001
v -0.020001 0.064190 -2.576340
v -0.040001 0.064190 -2.576340
v -0.040001 0.227370 -2.576340
v -0.020001 0.227370 -2.576340
v -0.020001 0.222770 -2.576340
v 0.097799 0.189480 -2.583700
v -0.049901 0.209430 -2.600450
v -0.040001 0.227370 -2.576340
v -0.020001 0.227370 -2.576340
v -0.046401 0.224520 -2.613110
v 0.101299 0.204570 -2.596360
v -0.049901 2.391461 0.000000
v -0.020000 2.384576 0.000000
v -0.046401 2.417173 0.000000
v 0.101299 2.383170 0.000000
v 0.097799 2.357458 -0.000000
v -0.040001 2.389176 0.000000
v -0.040001 2.226001 0.000000
v -0.040001 2.389176 0.000000
v -0.020000 2.226001 0.000000
v -0.020000 2.389176 0.000000
v -0.020000 2.389176 0.000000
vn 1.0000 -0.0000 -0.0000
vn -0.0000 -1.0000 -0.0000
vn -0.0000 0.7660 0.6428
vn -0.0000 -0.7660 -0.6428
vn -0.0000 -0.0000 1.0000
vn -1.0000 -0.0000 -0.0000
vn 0.9846 -0.1340 -0.1125
vn -0.1744 -0.7543 -0.6329
vn -0.1736 -0.7546 -0.6328
vn -0.1737 -0.7545 -0.6329
vn -0.1737 -0.7544 -0.6330
vn 0.1737 0.7544 0.6330
vn -0.9846 0.1340 0.1125
vn -0.0000 -0.0000 -1.0000
vn 0.0001 -0.6427 0.7661
vn -0.0000 0.7660 -0.6428
vn -0.0000 -0.7660 0.6428
vn 0.9846 -0.1340 0.1125
vn -0.1743 -0.7543 0.6329
vn -0.1736 -0.7546 0.6328
vn -0.1737 -0.7545 0.6329
vn -0.1737 -0.7544 0.6330
vn 0.1737 0.7544 -0.6330
vn -0.9846 0.1340 -0.1125
vn 0.0001 -0.6427 -0.7661
vt 1.074854 0.247332
vt 1.128383 0.311125
vt 0.055627 0.311125
vt 0.028863 0.279228
vt 0.066876 0.247332
vt 0.134564 0.169889
vt 0.184186 0.169889
vt 0.184186 0.176268
vt 0.134563 0.176268
vt 1.056625 0.176268
vt 1.056625 0.182647
vt 0.378775 0.182647
vt 0.378775 0.176268
vt 1.074646 0.169888
vt 1.074646 0.176268
vt 0.317980 0.176268
vt 0.317980 0.169889
vt 0.492798 0.176268
vt 0.534436 0.176268
vt 0.534436 0.182647
vt 0.492798 0.182647
vt 0.066875 -0.035142
vt 0.028862 -0.067039
vt 0.055627 -0.098936
vt 1.128383 -0.098936
vt 1.074853 -0.035142
vt 1.212938 0.091260
vt 0.138716 0.091260
vt 0.105214 0.051489
vt 1.179435 0.051487
vt 1.179435 0.540779
vt 0.105214 0.540779
vt 0.138715 0.500892
vt 1.212937 0.500891
vt 0.121263 0.133926
vt 1.177251 0.133926
vt 1.177251 0.140270
vt 0.121263 0.140270
vt 0.365332 0.133926
vt 0.325403 0.133926
vt 0.325403 0.127537
vt 0.365332 0.127537
vt 0.110925 -0.047414
vt 0.105647 -0.053779
vt 1.187725 -0.053577
vt 1.187726 -0.047212
vt 1.188176 0.239541
vt 0.120853 0.215526
vt 0.121305 0.212346
vt 1.178619 0.236299
vt 1.189535 0.237514
vt 1.179953 0.234308
vt 1.180897 0.227832
vt 1.189527 0.189719
vt 1.189530 0.237543
vt 1.180891 0.227861
vt 1.187310 0.189314
vt 1.178680 0.227457
vt 0.122064 0.230724
vt 0.127638 0.192583
vt 0.127437 0.219376
vt 0.120469 0.171653
vt 1.192705 0.172910
vt 1.192716 0.220631
vt 0.105651 0.408848
vt 0.110929 0.402513
vt 1.194724 0.402308
vt 1.194724 0.408643
vt 0.935224 0.192397
vt 0.936168 0.192267
vt 0.935224 0.198742
vt 0.121263 0.140270
vt 1.177251 0.140271
vt 1.177251 0.146635
vt 0.121263 0.146634
vt 0.105076 0.352975
vt 0.106022 0.351849
vt 1.180248 0.351851
vt 0.104744 0.352811
vt 1.180489 0.351755
vt 1.179531 0.352879
vt 0.121732 0.192398
vt 1.177720 0.192397
vt 1.177720 0.198742
vt 0.121732 0.198743
vt 0.241827 0.336096
vt 0.241819 0.329706
vt 0.289723 0.329706
vt 0.289731 0.336096
vt -1.074854 0.203940
vt -0.066876 0.203940
vt -0.028863 0.172044
vt -0.055627 0.140147
vt -1.128383 0.140147
vt -0.134564 0.281383
vt -0.134563 0.275004
vt -0.184186 0.275004
vt -0.184186 0.281383
vt -1.056625 0.275004
vt -0.378775 0.275004
vt -0.378775 0.268625
vt -1.056625 0.268625
vt -1.074646 0.281384
vt -0.317980 0.281384
vt -0.317980 0.275004
vt -1.074646 0.275004
vt -0.492798 0.275004
vt -0.492798 0.268625
vt -0.534436 0.268625
vt -0.534436 0.275004
vt -0.066875 0.486414
vt -1.074853 0.486414
vt -1.128383 0.550208
vt -0.055627 0.550208
vt -0.028862 0.518311
vt -1.212938 0.360013
vt -1.179435 0.399785
vt -0.105214 0.399783
vt -0.138716 0.360012
vt -1.179435 -0.089507
vt -1.212937 -0.049618
vt -0.138715 -0.049620
vt -0.105214 -0.089507
vt -0.121263 0.317346
vt -0.121263 0.311002
vt -1.177251 0.311002
vt -1.177251 0.317347
vt -0.365332 0.317347
vt -0.365332 0.323735
vt -0.325403 0.323735
vt -0.325403 0.317347
vt -0.110925 0.498686
vt -1.187726 0.498484
vt -1.187725 0.504849
vt -0.105647 0.505051
vt -1.188176 0.211731
vt -1.178619 0.214973
vt -0.121305 0.238926
vt -0.120853 0.235746
vt -1.189535 0.213758
vt -1.180897 0.223440
vt -1.179953 0.216964
vt -1.189527 0.261553
vt -1.180891 0.223411
vt -1.189530 0.213729
vt -1.187310 0.261959
vt -0.127638 0.258689
vt -0.122064 0.220548
vt -1.178680 0.223815
vt -0.127437 0.231896
vt -1.192716 0.230641
vt -1.192705 0.278362
vt -0.120469 0.279619
vt -0.105651 0.042424
vt -1.194724 0.042630
vt -1.194724 0.048964
vt -0.110929 0.048759
vt -0.935224 0.258875
vt -0.935224 0.252530
vt -0.936168 0.259006
vt -0.121263 0.311002
vt -0.121263 0.304638
vt -1.177251 0.304638
vt -1.177251 0.311002
vt -0.105076 0.098297
vt -1.180248 0.099421
vt -0.106022 0.099423
vt -0.104744 0.098461
vt -1.179531 0.098394
vt -1.180489 0.099517
vt -0.121732 0.258874
vt -0.121732 0.252529
vt -1.177720 0.252530
vt -1.177720 0.258875
vt -0.241827 0.115176
vt -0.289731 0.115176
vt -0.289723 0.121566
vt -0.241819 0.121566
s 0
usemtl wood
f 9/1/1 7/2/1 2/3/1 6/4/1 3/5/1
f 5/6/2 4/7/2 3/8/2 6/9/2
f 7/10/3 8/11/3 1/12/3 2/13/3
f 10/14/4 9/15/4 3/16/4 4/17/4
f 6/18/5 2/19/5 1/20/5 5/21/5
f 4/22/6 5/23/6 1/24/6 8/25/6 10/26/6
f 11/27/1 30/28/1 31/29/1 14/30/1
f 13/31/6 29/32/6 28/33/6 12/34/6
f 30/35/4 11/36/4 12/37/4 28/38/4
f 11/39/5 14/40/5 13/41/5 12/42/5
f 26/43/7 25/44/7 21/45/7 16/46/7
f 17/47/8 22/48/8 27/49/8 18/50/8
f 17/51/9 18/52/9 15/53/9
f 16/54/10 17/55/10 15/56/10
f 16/57/11 15/58/11 23/59/11 26/60/11
f 25/61/12 24/62/12 20/63/12 21/64/12
f 24/65/13 22/66/13 17/67/13 20/68/13
f 19/69/14 15/70/14 18/71/14
f 29/72/3 13/73/3 14/74/3 31/75/3
f 32/76/6 23/77/6 15/78/6
f 32/79/6 15/80/6 19/81/6
f 32/82/4 19/83/4 18/84/4 27/85/4
f 20/86/15 17/87/15 16/88/15 21/89/15
f 41/90/1 35/91/1 38/92/1 34/93/1 39/94/1
f 37/95/2 38/96/2 35/97/2 36/98/2
f 39/99/16 34/100/16 33/101/16 40/102/16
f 42/103/17 36/104/17 35/105/17 41/106/17
f 38/107/14 37/108/14 33/109/14 34/110/14
f 36/111/6 42/112/6 40/113/6 33/114/6 37/115/6
f 43/116/1 46/117/1 63/118/1 62/119/1
f 45/120/6 44/121/6 60/122/6 61/123/6
f 62/124/17 60/125/17 44/126/17 43/127/17
f 43/128/14 44/129/14 45/130/14 46/131/14
f 58/132/18 48/133/18 53/134/18 57/135/18
f 49/136/19 50/137/19 59/138/19 54/139/19
f 49/140/20 47/141/20 50/142/20
f 48/143/21 47/144/21 49/145/21
f 48/146/22 58/147/22 55/148/22 47/149/22
f 57/150/23 53/151/23 52/152/23 56/153/23
f 56/154/24 52/155/24 49/156/24 54/157/24
f 51/158/5 50/159/5 47/160/5
f 61/161/16 63/162/16 46/163/16 45/164/16
f 64/165/6 47/166/6 55/167/6
f 64/168/6 51/169/6 47/170/6
f 64/171/17 59/172/17 50/173/17 51/174/17
f 52/175/25 53/176/25 48/177/25 49/178/25
