# Blender 4.0.2
# www.blender.org
mtllib roof_tri_window_5500_glass.mtl
o roof_tri_window_5500_glass
v 0.024000 0.242571 2.395900
v 0.020000 0.244000 2.387974
v 0.024000 0.240000 2.394964
v 0.024000 2.130828 0.145564
v 0.024000 2.129399 0.142500
v 0.020000 2.124821 0.146500
v 0.024000 0.244000 0.142500
v 0.024000 0.240000 0.146500
v 0.020000 0.244000 0.146500
v 0.036000 0.242571 2.395900
v 0.036000 0.240000 2.394964
v 0.040000 0.244000 2.387974
v 0.036000 2.130828 0.145564
v 0.040000 2.124821 0.146500
v 0.036000 2.129399 0.142500
v 0.036000 0.244000 0.142500
v 0.040000 0.244000 0.146500
v 0.036000 0.240000 0.146500
v 0.036000 0.242571 -2.395900
v 0.040000 0.244000 -2.387974
v 0.036000 0.240000 -2.394964
v 0.036000 2.130828 -0.145564
v 0.036000 2.129399 -0.142500
v 0.040000 2.124821 -0.146500
v 0.036000 0.244000 -0.142500
v 0.036000 0.240000 -0.146500
v 0.040000 0.244000 -0.146500
v 0.024000 0.242571 -2.395900
v 0.024000 0.240000 -2.394964
v 0.020000 0.244000 -2.387974
v 0.024000 2.130828 -0.145564
v 0.020000 2.124821 -0.146500
v 0.024000 2.129399 -0.142500
v 0.024000 0.244000 -0.142500
v 0.020000 0.244000 -0.146500
v 0.024000 0.240000 -0.146500
vn -0.0000 -1.0000 -0.0000
vn -0.0000 0.7660 -0.6428
vn -0.0000 -0.0000 -1.0000
vn 1.0000 -0.0000 -0.0000
vn -1.0000 -0.0000 -0.0000
vn -0.0000 -0.0000 1.0000
vn -0.8930 -0.1539 0.4229
vn -0.8250 0.5122 -0.2388
vn -0.5773 -0.5773 -0.5774
vn 0.8930 -0.1539 0.4229
vn 0.8250 0.5122 -0.2388
vn 0.5773 -0.5773 -0.5774
vn 0.8930 -0.1539 -0.4229
vn 0.8250 0.5122 0.2388
vn 0.5773 -0.5773 0.5774
vn -0.8930 -0.1539 -0.4229
vn -0.8250 0.5122 0.2388
vn -0.5773 -0.5773 0.5774
vn -0.7071 0.5417 0.4545
vn -0.7071 -0.0000 -0.7071
vn -0.7071 -0.7071 -0.0000
vn 0.7071 0.5417 0.4545
vn 0.7071 -0.0000 -0.7071
vn 0.7071 -0.7071 -0.0000
vn -0.0000 -0.7071 -0.7071
vn -0.0000 -0.3420 0.9397
vn -0.0000 0.9063 -0.4226
vn 0.7071 0.5417 -0.4545
vn 0.7071 -0.0000 0.7071
vn -0.7071 0.5417 -0.4545
vn -0.7071 -0.0000 0.7071
vn -0.0000 -0.7071 0.7071
vn -0.0000 -0.3420 -0.9397
vn -0.0000 0.9063 0.4226
vn -0.0000 0.7660 0.6428
vt 0.819669 -0.407010
vt 0.819669 0.856985
vt 0.812923 0.856985
vt 0.812923 -0.407010
vt 0.799225 1.114689
vt 0.799225 -0.110379
vt 0.805971 -0.110379
vt 0.805970 1.114689
vt 0.297512 0.716929
vt 0.297512 -0.342965
vt 0.304258 -0.342965
vt 0.304258 0.716929
vt 0.002857 1.277001
vt 0.002857 0.016935
vt 1.060177 0.016935
vt 0.400109 -0.015895
vt 0.956631 0.647341
vt 0.400109 0.647341
vt 0.819669 -0.407010
vt 0.812923 -0.407010
vt 0.297512 0.716929
vt 0.297512 -0.342965
vt 0.304258 -0.342965
vt 0.399686 -0.018240
vt 0.398926 -0.017963
vt 0.297512 -0.343768
vt 0.295264 -0.340391
vt 0.819669 0.859234
vt 0.821918 0.856985
vt 0.812923 -0.407536
vt 0.810675 -0.403080
vt 1.063554 0.016409
vt 1.062751 0.014686
vt 0.002857 0.014686
vt 0.000608 0.016935
vt 0.819669 0.859234
vt 0.812923 -0.407536
vt 0.399686 -0.018240
vt 0.958408 0.647618
vt 0.957985 0.648525
vt 0.400109 0.648525
vt 0.398926 0.647341
vt 1.063554 0.016409
vt 0.002054 1.281456
vt 0.002857 0.014686
vt 0.810675 0.856985
vt 0.812923 0.859234
vt 0.812923 -0.409258
vt 0.819669 -0.409258
vt 0.297512 -0.345213
vt 0.304258 -0.345213
vt 0.000608 1.280930
vt 0.812923 -0.409258
vt 0.297512 -0.345213
vt 0.304258 -0.345213
vt 0.799225 1.114689
vt 0.799225 -0.110379
vt 0.805970 -0.110379
s 0
usemtl glass
f 3/1/1 8/2/1 18/3/1 11/4/1
f 22/5/2 19/6/2 28/7/2 31/8/2
f 7/9/3 5/10/3 15/11/3 16/12/3
f 12/13/4 17/14/4 14/15/4
f 2/16/5 6/17/5 9/18/5
f 21/19/1 26/2/1 36/3/1 29/20/1
f 25/21/6 23/22/6 33/23/6 34/12/6
f 30/13/5 35/14/5 32/15/5
f 20/16/4 24/17/4 27/18/4
f 1/24/7 2/16/7 3/25/7
f 4/26/8 5/10/8 6/27/8
f 7/28/9 8/2/9 9/29/9
f 10/30/10 11/4/10 12/31/10
f 13/32/11 14/15/11 15/33/11
f 16/34/12 17/14/12 18/35/12
f 19/24/13 20/16/13 21/25/13
f 22/26/14 23/22/14 24/27/14
f 25/36/15 26/2/15 27/29/15
f 28/37/16 29/20/16 30/31/16
f 31/32/17 32/15/17 33/33/17
f 34/34/18 35/14/18 36/35/18
f 1/38/19 4/39/19 6/17/19 2/16/19
f 5/40/20 7/41/20 9/18/20 6/17/20
f 8/42/21 3/25/21 2/16/21 9/18/21
f 12/13/22 14/15/22 13/43/22 10/44/22
f 14/15/23 17/14/23 16/45/23 15/33/23
f 17/46/24 12/31/24 11/4/24 18/3/24
f 7/28/25 16/47/25 18/3/25 8/2/25
f 10/48/26 1/49/26 3/1/26 11/4/26
f 4/50/27 13/51/27 15/11/27 5/10/27
f 19/38/28 22/39/28 24/17/28 20/16/28
f 23/40/29 25/41/29 27/18/29 24/17/29
f 26/42/24 21/25/24 20/16/24 27/18/24
f 30/13/30 32/15/30 31/43/30 28/44/30
f 32/15/31 35/14/31 34/45/31 33/33/31
f 35/14/21 30/13/21 29/52/21 36/35/21
f 25/36/32 34/47/32 36/3/32 26/2/32
f 28/53/33 19/49/33 21/19/33 29/20/33
f 22/54/34 31/55/34 33/23/34 23/22/34
f 4/56/35 1/57/35 10/58/35 13/8/35
