# Blender 4.0.2
# www.blender.org
mtllib roof_tri_window_5500.mtl
o roof_tri_window_5500
v 0.004000 0.202571 2.505799
v -0.000000 0.204000 2.497873
v 0.004000 0.200000 2.504863
v 0.004000 2.216608 0.105564
v 0.004000 2.215179 0.102500
v -0.000000 2.210601 0.106500
v 0.004000 0.204000 0.102500
v 0.004000 0.200000 0.106500
v -0.000000 0.204000 0.106500
v 0.004000 0.242571 2.395900
v 0.004000 0.240000 2.394964
v -0.000000 0.236000 2.409954
v 0.004000 2.130828 0.145564
v -0.000000 2.141977 0.138500
v 0.004000 2.129399 0.142500
v 0.004000 0.244000 0.142500
v -0.000000 0.236000 0.138500
v 0.004000 0.240000 0.146500
v 0.030000 0.242571 2.395900
v 0.030000 0.240000 2.394964
v 0.030000 2.129399 0.142500
v 0.030000 2.130828 0.145564
v 0.030000 0.240000 0.146500
v 0.030000 0.244000 0.142500
v 0.056000 0.202571 2.505799
v 0.056000 0.200000 2.504863
v 0.060000 0.204000 2.497873
v 0.056000 2.216608 0.105564
v 0.060000 2.210601 0.106500
v 0.056000 2.215179 0.102500
v 0.056000 0.204000 0.102500
v 0.060000 0.204000 0.106500
v 0.056000 0.200000 0.106500
v 0.056000 0.242571 2.395900
v 0.060000 0.236000 2.409954
v 0.056000 0.240000 2.394964
v 0.056000 2.130828 0.145564
v 0.056000 2.129399 0.142500
v 0.060000 2.141977 0.138500
v 0.056000 0.244000 0.142500
v 0.056000 0.240000 0.146500
v 0.060000 0.236000 0.138500
v 0.056000 0.202571 -2.505799
v 0.060000 0.204000 -2.497873
v 0.056000 0.200000 -2.504863
v 0.056000 2.216608 -0.105564
v 0.056000 2.215179 -0.102500
v 0.060000 2.210601 -0.106500
v 0.056000 0.204000 -0.102500
v 0.056000 0.200000 -0.106500
v 0.060000 0.204000 -0.106500
v 0.056000 0.242571 -2.395900
v 0.056000 0.240000 -2.394964
v 0.060000 0.236000 -2.409954
v 0.056000 2.130828 -0.145564
v 0.060000 2.141977 -0.138500
v 0.056000 2.129399 -0.142500
v 0.056000 0.244000 -0.142500
v 0.060000 0.236000 -0.138500
v 0.056000 0.240000 -0.146500
v 0.030000 0.242571 -2.395900
v 0.030000 0.240000 -2.394964
v 0.030000 2.129399 -0.142500
v 0.030000 2.130828 -0.145564
v 0.030000 0.240000 -0.146500
v 0.030000 0.244000 -0.142500
v 0.004000 0.202571 -2.505799
v 0.004000 0.200000 -2.504863
v 0.000000 0.204000 -2.497873
v 0.004000 2.216608 -0.105564
v 0.000000 2.210601 -0.106500
v 0.004000 2.215179 -0.102500
v 0.004000 0.204000 -0.102500
v -0.000000 0.204000 -0.106500
v 0.004000 0.200000 -0.106500
v 0.004000 0.242571 -2.395900
v 0.000000 0.236000 -2.409954
v 0.004000 0.240000 -2.394964
v 0.004000 2.130828 -0.145564
v 0.004000 2.129399 -0.142500
v 0.000000 2.141977 -0.138500
v 0.004000 0.244000 -0.142500
v 0.004000 0.240000 -0.146500
v 0.000000 0.236000 -0.138500
vn -0.0000 -0.0000 1.0000
vn -0.0000 -1.0000 -0.0000
vn -0.0000 -0.7660 -0.6428
vn -0.0000 -0.0000 -1.0000
vn -0.0000 1.0000 -0.0000
vn -1.0000 -0.0000 -0.0000
vn 1.0000 -0.0000 -0.0000
vn -0.0000 0.7660 -0.6428
vn -0.0000 -0.7660 0.6428
vn -0.8930 -0.1539 0.4229
vn -0.8250 0.5122 -0.2388
vn -0.5773 -0.5774 -0.5773
vn -0.9681 0.0857 -0.2355
vn -0.9563 -0.2649 0.1235
vn -0.9045 0.3015 0.3015
vn 0.8930 -0.1539 0.4229
vn 0.8250 0.5122 -0.2388
vn 0.5773 -0.5774 -0.5773
vn 0.9681 0.0857 -0.2355
vn 0.9563 -0.2649 0.1235
vn 0.9045 0.3015 0.3015
vn 0.8930 -0.1539 -0.4229
vn 0.8250 0.5122 0.2388
vn 0.5773 -0.5774 0.5773
vn 0.9681 0.0857 0.2355
vn 0.9563 -0.2649 -0.1235
vn 0.9045 0.3015 -0.3015
vn -0.8930 -0.1539 -0.4229
vn -0.8250 0.5122 0.2388
vn -0.5774 -0.5774 0.5773
vn -0.9681 0.0857 0.2355
vn -0.9563 -0.2649 -0.1235
vn -0.9045 0.3015 -0.3015
vn -0.7071 -0.5417 -0.4545
vn -0.7071 -0.0000 0.7071
vn -0.7071 0.7071 -0.0000
vn -0.7071 0.5417 0.4545
vn -0.7071 -0.0000 -0.7071
vn -0.7071 -0.7071 -0.0000
vn -0.0000 0.7071 0.7071
vn -0.0000 0.3420 -0.9397
vn -0.0000 -0.9063 0.4226
vn 0.7071 -0.5417 -0.4545
vn 0.7071 -0.0000 0.7071
vn 0.7071 0.7071 -0.0000
vn 0.7071 0.5417 0.4545
vn 0.7071 -0.0000 -0.7071
vn 0.7071 -0.7071 -0.0000
vn -0.0000 -0.7071 -0.7071
vn -0.0000 -0.3420 0.9397
vn -0.0000 0.9063 -0.4226
vn 0.7071 -0.5417 0.4545
vn 0.7071 0.5417 -0.4545
vn -0.0000 0.7071 -0.7071
vn -0.0000 0.3420 0.9397
vn -0.0000 -0.9063 -0.4226
vn -0.7071 -0.5417 0.4545
vn -0.7071 0.5417 -0.4545
vn -0.0000 -0.7071 0.7071
vn -0.0000 -0.3420 -0.9397
vn -0.0000 0.9063 0.4226
vn -0.0000 0.7660 0.6428
vt 0.358165 0.192957
vt 0.358165 0.178341
vt 1.418059 0.178341
vt 1.418059 0.192957
vt 0.016572 0.836670
vt 1.364834 0.836670
vt 1.364833 0.865902
vt 0.016572 0.865902
vt 0.082861 0.228916
vt 0.082861 0.214300
vt 1.307930 0.214300
vt 1.307930 0.228916
vt 1.486553 0.264875
vt 0.355950 0.264875
vt 0.355950 0.235642
vt 1.486552 0.235642
vt 0.082861 0.199684
vt 1.307929 0.199683
vt 1.307930 0.214300
vt 0.082861 0.214300
vt 1.280930 0.872628
vt 1.280930 0.887244
vt 0.016935 0.887245
vt 0.016935 0.872628
vt 0.630092 0.955790
vt 0.648081 0.973779
vt -0.696251 0.973779
vt -0.646827 0.955789
vt 1.448826 0.124955
vt 1.487404 0.142944
vt 0.359374 0.142944
vt 0.377364 0.124955
vt 0.358165 0.163724
vt 1.418059 0.163724
vt 1.418059 0.178341
vt 0.630092 0.997751
vt -0.646827 0.997751
vt -0.696251 0.979762
vt 0.648081 0.979762
vt 1.069529 0.829943
vt -0.244694 0.829943
vt -0.244694 0.800711
vt 1.069529 0.800711
vt 1.448825 0.302901
vt 0.377363 0.302901
vt 0.359374 0.284912
vt 1.487403 0.284912
vt -0.481483 1.359543
vt 1.185416 1.359546
vt 1.223993 1.377535
vt -0.530908 1.377533
vt 1.280930 0.901860
vt 0.016935 0.901861
vt 0.016935 0.887245
vt 1.280929 0.887244
vt -0.481482 0.498128
vt -0.530906 0.480139
vt 1.224003 0.480138
vt 1.185424 0.498126
vt 0.358165 0.192957
vt 1.418059 0.192957
vt 0.016572 0.836670
vt 1.364833 0.865902
vt 0.016572 0.865902
vt 0.082861 0.228916
vt 0.355950 0.264875
vt 0.082861 0.199684
vt 0.648081 0.973779
vt 0.358165 0.163724
vt 1.418059 0.163724
vt 0.358165 0.178341
vt 0.648081 0.979762
vt 1.448826 0.302901
vt 0.359374 0.284912
vt 1.487403 0.284912
vt 1.223993 1.377535
vt 0.016935 0.901861
vt -0.534836 0.477890
vt -0.535099 0.478613
vt 1.487356 0.235642
vt 1.483979 0.233394
vt 0.014323 0.865902
vt 0.016572 0.868151
vt 1.281456 0.872628
vt 1.283178 0.870380
vt 0.081193 0.231164
vt 0.082265 0.228916
vt 0.381861 0.122706
vt 0.377363 0.124955
vt 0.379612 0.122706
vt 1.365360 0.836669
vt 1.360904 0.834421
vt 1.226567 1.379784
vt 1.226968 1.378923
vt 0.355949 0.267123
vt 0.353701 0.264875
vt 1.309597 0.197435
vt 1.308320 0.199684
vt 1.418862 0.163724
vt 1.420308 0.161476
vt 0.014687 0.901861
vt 0.014687 0.904110
vt 1.487356 0.235642
vt 1.281456 0.872628
vt 1.178353 0.500375
vt 1.179157 0.500375
vt 1.365360 0.836669
vt 1.226968 1.378923
vt 0.355949 0.267123
vt 0.353701 0.264875
vt 1.308320 0.199683
vt 1.418863 0.163724
vt 0.014687 0.901861
vt 1.309598 0.231164
vt 0.381861 0.122706
vt 1.441755 0.122706
vt 0.014686 0.870380
vt 1.226577 0.477889
vt 1.489978 0.145192
vt 0.359374 0.145193
vt 1.360904 0.868150
vt 0.014686 0.887245
vt 0.014686 0.872628
vt 1.283178 0.872628
vt 1.283178 0.887244
vt 1.420308 0.178341
vt 1.420308 0.192957
vt 0.081193 0.197435
vt 0.355916 0.161476
vt 1.283178 0.904109
vt -0.534837 1.379782
vt 1.483979 0.267123
vt 0.016572 0.834421
vt 0.014686 0.887245
vt 1.283178 0.887244
vt 1.283178 0.901860
vt 1.420308 0.163724
vt 1.420308 0.178341
vt 0.014323 0.836670
vt 1.367082 0.836669
vt 1.367082 0.865902
vt 1.488801 0.235642
vt 1.488801 0.264875
vt -0.473055 0.500376
vt 0.648081 0.976027
vt -0.700181 0.976027
vt 1.283178 0.872628
vt 1.420308 0.192957
vt 1.420308 0.163724
vt 0.014323 0.836670
vt 1.367082 0.836670
vt 1.069529 0.829943
vt -0.244694 0.829943
vt -0.244694 0.800711
s 0
usemtl white
f 16/1/1 24/2/1 21/3/1 15/4/1
f 33/5/2 26/6/2 3/7/2 8/8/2
f 13/9/3 22/10/3 19/11/3 10/12/3
f 30/13/4 31/14/4 7/15/4 5/16/4
f 37/17/3 34/18/3 19/19/3 22/20/3
f 11/21/5 20/22/5 23/23/5 18/24/5
f 17/25/6 9/26/6 2/27/6 12/28/6
f 14/29/6 6/30/6 9/31/6 17/32/6
f 40/33/1 38/34/1 21/35/1 24/2/1
f 42/36/7 35/37/7 27/38/7 32/39/7
f 67/40/8 70/41/8 46/42/8 43/43/8
f 39/44/7 42/45/7 32/46/7 29/47/7
f 35/48/7 39/49/7 29/50/7 27/51/7
f 36/52/5 41/53/5 23/54/5 20/55/5
f 12/56/6 2/57/6 6/58/6 14/59/6
f 58/60/4 66/2/4 63/3/4 57/61/4
f 75/62/2 68/6/2 45/63/2 50/64/2
f 55/65/9 64/10/9 61/11/9 52/12/9
f 72/13/1 73/66/1 49/15/1 47/16/1
f 79/67/9 76/18/9 61/19/9 64/20/9
f 53/21/5 62/22/5 65/23/5 60/24/5
f 59/25/7 51/68/7 44/27/7 54/28/7
f 56/29/7 48/30/7 51/31/7 59/32/7
f 82/69/4 80/70/4 63/35/4 66/71/4
f 84/36/6 77/37/6 69/38/6 74/72/6
f 81/73/6 84/45/6 74/74/6 71/75/6
f 77/48/6 81/49/6 71/76/6 69/51/6
f 78/52/5 83/77/5 65/54/5 62/55/5
f 54/56/7 44/57/7 48/58/7 56/59/7
f 1/78/10 2/57/10 3/79/10
f 4/80/11 5/16/11 6/81/11
f 7/82/12 8/8/12 9/83/12
f 10/84/13 11/21/13 12/85/13
f 13/9/14 14/86/14 15/87/14
f 16/88/15 17/89/15 18/90/15
f 25/91/16 26/6/16 27/92/16
f 28/93/17 29/76/17 30/94/17
f 31/14/18 32/95/18 33/96/18
f 34/18/19 35/97/19 36/98/19
f 37/99/20 38/34/20 39/100/20
f 40/101/21 41/53/21 42/102/21
f 43/78/22 44/57/22 45/79/22
f 46/103/23 47/16/23 48/81/23
f 49/82/24 50/64/24 51/83/24
f 52/104/25 53/21/25 54/85/25
f 55/105/26 56/59/26 57/106/26
f 58/88/27 59/89/27 60/90/27
f 67/107/28 68/6/28 69/92/28
f 70/93/29 71/76/29 72/108/29
f 73/66/30 74/109/30 75/110/30
f 76/18/31 77/97/31 78/111/31
f 79/112/32 80/70/32 81/100/32
f 82/113/33 83/77/33 84/102/33
f 12/114/34 14/86/34 13/9/34 10/12/34
f 14/29/35 17/32/35 16/115/35 15/116/35
f 17/117/36 12/85/36 11/21/36 18/24/36
f 1/78/37 4/118/37 6/58/37 2/57/37
f 5/119/38 7/120/38 9/31/38 6/30/38
f 8/8/39 3/7/39 2/121/39 9/83/39
f 18/24/40 23/23/40 24/122/40 16/123/40
f 20/22/41 11/21/41 10/124/41 19/125/41
f 15/4/42 21/3/42 22/126/42 13/127/42
f 34/18/43 37/17/43 39/128/43 35/97/43
f 38/34/44 40/33/44 42/129/44 39/100/44
f 41/53/45 36/52/45 35/130/45 42/102/45
f 27/51/46 29/50/46 28/93/46 25/131/46
f 29/132/47 32/95/47 31/14/47 30/13/47
f 32/133/48 27/92/48 26/6/48 33/5/48
f 40/101/40 24/134/40 23/54/40 41/53/40
f 19/135/41 34/136/41 36/52/41 20/55/41
f 37/137/42 22/138/42 21/35/42 38/34/42
f 7/82/49 31/139/49 33/5/49 8/8/49
f 25/140/50 1/141/50 3/7/50 26/6/50
f 4/142/51 28/143/51 30/13/51 5/16/51
f 54/56/52 56/59/52 55/105/52 52/144/52
f 56/29/47 59/32/47 58/115/47 57/116/47
f 59/117/45 54/85/45 53/21/45 60/24/45
f 43/78/53 46/118/53 48/58/53 44/57/53
f 47/119/44 49/120/44 51/31/44 48/30/44
f 50/145/48 45/146/48 44/27/48 51/68/48
f 60/24/54 65/23/54 66/122/54 58/123/54
f 62/22/55 53/21/55 52/147/55 61/125/55
f 57/61/56 63/3/56 64/126/56 55/148/56
f 76/18/57 79/67/57 81/128/57 77/97/57
f 80/70/38 82/69/38 84/129/38 81/100/38
f 83/77/36 78/52/36 77/130/36 84/102/36
f 69/51/58 71/76/58 70/93/58 67/131/58
f 71/132/35 74/95/35 73/66/35 72/13/35
f 74/133/39 69/92/39 68/6/39 75/62/39
f 82/113/54 66/134/54 65/54/54 83/77/54
f 61/135/55 76/136/55 78/52/55 62/55/55
f 79/149/56 64/138/56 63/35/56 80/70/56
f 49/82/59 73/150/59 75/62/59 50/64/59
f 67/151/60 43/141/60 45/63/60 68/6/60
f 46/142/61 70/143/61 72/13/61 47/16/61
f 25/152/62 28/153/62 4/154/62 1/43/62
