# Blender 4.0.2
# www.blender.org
mtllib tiled_wall_roof_3500_win_600x600.mtl
o tiled_wall_roof_3500_win_600x600
v 0.000000 0.380993 1.223157
v 0.000000 0.200993 1.437673
v 0.011276 0.379207 1.225285
v 0.024937 0.380000 1.224339
v 0.000937 0.200000 1.438855
v 0.024938 0.200000 1.438855
v 0.010527 0.380000 1.224339
v 0.000937 0.380000 1.224339
v 0.011276 0.559207 1.010769
v 0.024937 0.560000 1.009824
v 0.024937 0.740000 0.795308
v 0.000000 0.560993 1.008641
v 0.000937 0.560000 1.009824
v 0.024937 1.375876 0.037500
v 0.000000 1.280993 0.150578
v 0.000000 0.740993 0.794125
v 0.010527 0.560000 1.009824
v 0.011276 0.739207 0.796253
v 0.000937 0.920000 0.580793
v 0.010527 0.920000 0.580793
v 0.011276 1.099207 0.367222
v 0.011276 1.279207 0.152706
v 0.010527 0.740000 0.795308
v 0.000937 0.740000 0.795308
v 0.024937 0.920001 0.580793
v 0.000937 1.100000 0.366277
v 0.010527 1.100000 0.366277
v 0.006003 1.375877 0.037500
v 0.024937 1.100000 0.366277
v 0.000000 1.100993 0.365094
v 0.024937 1.280000 0.151761
v 0.011276 0.919208 0.581737
v 0.010527 1.280000 0.151761
v 0.000937 1.280000 0.151761
v 0.000000 0.920993 0.579609
v 0.024937 1.386958 0.037500
v 0.006705 1.386958 0.037500
v 0.024937 1.386958 0.000000
v 0.006705 1.386958 -0.000000
v 0.024937 1.386958 -0.037500
v 0.006705 1.386958 -0.037500
v 0.024937 1.375877 -0.037500
v 0.006003 1.375877 -0.037500
v 0.011276 0.559207 -1.010769
v 0.024937 0.560000 -1.009824
v 0.024937 0.740000 -0.795309
v 0.000000 0.560993 -1.008641
v 0.000937 0.560000 -1.009824
v 0.000000 1.280993 -0.150578
v 0.000000 0.740993 -0.794126
v 0.010527 0.560000 -1.009824
v 0.011276 0.739207 -0.796254
v 0.000937 0.920000 -0.580793
v 0.010527 0.920000 -0.580793
v 0.011276 1.099207 -0.367222
v 0.011276 1.279207 -0.152706
v 0.010527 0.740000 -0.795308
v 0.000937 0.740000 -0.795308
v 0.024937 0.920000 -0.580793
v 0.000937 1.100000 -0.366277
v 0.010527 1.100000 -0.366277
v 0.024937 1.100000 -0.366277
v 0.000000 1.100993 -0.365094
v 0.024937 1.280000 -0.151761
v 0.011276 0.919207 -0.581738
v 0.010527 1.280000 -0.151761
v 0.000937 1.280000 -0.151761
v 0.000000 0.920993 -0.579610
v 0.000000 0.380993 -1.223157
v 0.000000 0.200993 -1.437673
v 0.011276 0.379207 -1.225285
v 0.024937 0.380000 -1.224340
v 0.000937 0.200000 -1.438855
v 0.024938 0.200000 -1.438855
v 0.010527 0.380000 -1.224340
v 0.000937 0.380000 -1.224340
v 0.007443 0.318622 0.320000
v 0.011276 0.379207 0.320000
v 0.004733 0.275791 -0.320000
v 0.011276 0.379207 -0.320000
v 0.003886 0.802406 0.320000
v 0.009428 0.890000 0.320000
v 0.009428 0.890000 -0.320000
v 0.009131 0.885305 -0.320000
v 0.000320 0.560654 0.320000
v 0.000000 0.560993 0.320000
v 0.000617 0.560339 -0.320000
v 0.000000 0.560993 -0.320000
v 0.000591 0.380367 0.320000
v 0.000000 0.380993 -0.320000
v 0.000346 0.380626 -0.320000
v 0.000000 0.380993 0.320000
v 0.008301 0.692182 0.320000
v 0.011276 0.739207 0.320000
v 0.004302 0.628989 -0.320000
v 0.011276 0.739207 -0.320000
v 0.010804 0.379707 0.320000
v 0.010527 0.380000 0.320000
v 0.010999 0.379500 -0.320000
v 0.010527 0.380000 -0.320000
v 0.024937 0.250000 0.320000
v 0.024937 0.318878 0.320000
v 0.024937 0.250000 -0.320000
v 0.024937 0.275621 -0.320000
v 0.024937 0.560000 0.320000
v 0.024937 0.628786 -0.320000
v 0.024937 0.560000 -0.320000
v 0.024937 0.692604 0.320000
v 0.007789 0.504100 0.320000
v 0.011276 0.559207 0.320000
v 0.004559 0.453043 -0.320000
v 0.011276 0.559207 -0.320000
v 0.024937 0.380000 0.320000
v 0.024937 0.452860 0.320000
v 0.024937 0.504423 -0.320000
v 0.024937 0.380000 -0.320000
v 0.010783 0.559729 0.320000
v 0.010527 0.560000 0.320000
v 0.011020 0.559478 -0.320000
v 0.010527 0.560000 -0.320000
v 0.000280 0.740697 0.320000
v 0.000000 0.740993 0.320000
v 0.000657 0.740297 -0.320000
v 0.000000 0.740993 -0.320000
v 0.010751 0.739763 0.320000
v 0.010527 0.740000 0.320000
v 0.011052 0.739444 -0.320000
v 0.010527 0.740000 -0.320000
v 0.024937 0.740000 0.320000
v 0.024937 0.802172 0.320000
v 0.024937 0.740000 -0.320000
v 0.024937 0.885887 -0.320000
v 0.003101 0.250000 0.320000
v 0.003101 0.250000 -0.320000
v 0.000937 0.560000 0.320000
v 0.000937 0.560000 -0.320000
v 0.000937 0.380000 0.320000
v 0.000937 0.380000 -0.320000
v 0.000937 0.740000 0.320000
v 0.000937 0.740000 -0.320000
v 0.024937 0.890000 0.320000
v 0.024937 0.890000 -0.320000
vn -0.9980 0.0631 -0.0000
vn -0.7271 -0.6865 -0.0000
vn -0.7270 -0.6866 -0.0000
vn -0.7272 -0.6864 -0.0000
vn -0.0000 0.7660 -0.6428
vn -0.7272 -0.6865 -0.0000
vn 1.0000 -0.0000 -0.0000
vn -0.0000 0.7661 0.6427
vn -0.0000 1.0000 -0.0000
vn -0.0000 0.7660 0.6428
vn -0.0000 0.7660 -0.6429
vn -0.0000 0.7659 -0.6429
vn -0.0000 0.7658 -0.6430
vn -0.0000 0.7661 -0.6427
vn -0.0000 0.7662 -0.6426
vn -0.0000 -0.0000 1.0000
vn -0.0000 -0.0000 -1.0000
vn -0.0000 -1.0000 -0.0000
vn -0.0000 0.7660 0.6429
vn -0.0000 0.7663 0.6425
vn -0.0000 0.7664 0.6424
vn -0.0000 0.7658 0.6430
vn -0.0000 0.7662 0.6426
vn -0.0000 0.7659 0.6429
vn -0.0000 0.7659 0.6430
vn -0.0000 0.7663 0.6424
vn -0.0000 0.7657 0.6432
vn -0.7271 -0.6866 -0.0000
vn -0.7273 -0.6864 -0.0000
vn -0.7269 -0.6867 -0.0000
vn -0.7273 -0.6863 -0.0000
vn -0.0000 -0.0001 1.0000
vn -0.0000 0.0002 1.0000
vn -0.0000 0.0003 1.0000
vn -0.0000 0.0001 1.0000
vn -0.0000 -0.0002 1.0000
vn -0.0000 0.0002 -1.0000
vn -0.0000 0.0003 -1.0000
vn -0.0000 -0.0001 -1.0000
vt 1.282024 1.133942
vt 0.999338 1.133942
vt 0.999338 1.115061
vt 0.516805 1.133942
vt 0.799491 1.101713
vt 0.799491 1.133942
vt 0.852025 0.391001
vt 0.947098 0.389213
vt 0.946803 0.391001
vt 0.799491 0.709081
vt 0.999338 0.709081
vt 1.081069 0.718169
vt 1.214374 0.991673
vt 0.999338 0.991673
vt 0.999338 0.991063
vt 0.584454 0.991673
vt 0.799491 0.990496
vt 0.799491 0.991673
vt 0.219648 0.515610
vt 0.220072 0.515367
vt 0.220072 0.520043
vt 1.281359 0.169282
vt 0.999338 0.168155
vt 1.281728 0.167494
vt 0.517469 0.169282
vt 0.799490 0.168622
vt 0.799490 0.169282
vt 0.785040 0.331972
vt 1.013419 0.333761
vt 0.785409 0.333761
vt 0.718056 0.907645
vt 1.080404 0.909434
vt 0.718424 0.909434
vt 0.852030 1.803796
vt 1.013794 1.861005
vt 0.785044 1.861005
vt 1.148054 1.047125
vt 0.999338 1.047125
vt 0.999338 1.032493
vt 0.650775 1.047125
vt 0.799491 1.012830
vt 0.799491 1.047125
vt 0.718054 0.719958
vt 1.080773 0.719958
vt 0.851730 0.389213
vt 1.281729 1.135734
vt 0.999338 1.135734
vt 0.999338 1.135073
vt 0.517100 1.135734
vt 0.799491 1.134605
vt 0.799490 1.135734
vt 0.887709 2.217737
vt 0.899419 2.214215
vt 0.911129 2.217737
vt 0.999344 1.690232
vt 1.348721 1.706124
vt 0.450117 1.706124
vt 0.785039 0.966675
vt 1.014084 0.964886
vt 1.013788 0.966675
vt 0.911124 0.610001
vt 0.899414 0.613449
vt 0.887704 0.610001
vt 0.584088 2.015887
vt 0.799495 1.994025
vt 0.799495 2.015887
vt 1.147765 1.958678
vt 0.999343 2.015887
vt 0.999343 1.973741
vt 0.784745 0.964886
vt 1.215039 0.224734
vt 0.999338 0.224734
vt 0.999338 0.207588
vt 0.583790 0.224734
vt 0.799490 0.191701
vt 0.799490 0.224734
vt 1.281736 2.170768
vt 0.999343 2.170768
vt 0.999343 2.147611
vt 0.584088 2.113559
vt 0.799495 2.170768
vt 0.517102 2.170768
vt 0.450484 1.078402
vt 1.348715 1.076610
vt 1.348345 1.078402
vt 0.785044 1.726355
vt 1.080779 1.783565
vt 0.718059 1.783565
vt 0.852026 0.578689
vt 0.946434 0.580478
vt 0.852394 0.580478
vt 0.316286 0.515367
vt 0.315862 0.515610
vt 0.316286 0.520043
vt 1.214743 0.226523
vt 0.999338 0.226523
vt 0.999338 0.225912
vt 0.584084 0.226523
vt 0.799490 0.225346
vt 0.799490 0.226523
vt 1.147389 0.662717
vt 0.999338 0.662717
vt 0.999338 0.662183
vt 0.651439 0.662717
vt 0.799491 0.661463
vt 0.799491 0.662717
vt 1.147758 1.048914
vt 0.999338 1.048914
vt 0.999338 1.048379
vt 0.651069 1.048914
vt 0.799491 1.047660
vt 0.799490 1.048914
vt 1.147765 1.396360
vt 0.999343 1.396360
vt 0.999343 1.376600
vt 0.718059 1.339150
vt 0.799495 1.396360
vt 0.651073 1.396360
vt 0.999338 1.093675
vt 0.799491 1.093675
vt 0.999338 0.681826
vt 0.717760 0.718169
vt 0.799491 0.707620
vt 0.999339 0.989884
vt 1.214744 0.989884
vt 0.584086 0.989884
vt 0.799491 0.989884
vt 0.799491 0.990496
vt -1.144395 -0.300634
vt -1.138479 -0.309955
vt -1.144395 -0.309955
vt 0.701144 0.515367
vt 0.752393 0.513899
vt 0.701675 0.511952
vt 0.412077 0.515610
vt 0.316286 0.520043
vt 0.316817 0.511952
vt 0.604506 0.515610
vt 0.508716 0.520043
vt 0.604930 0.520043
vt 0.752393 0.520043
vt 0.701145 0.520043
vt 0.701145 0.512255
vt 0.604930 0.512255
vt 0.605460 0.511952
vt 0.604930 0.515367
vt 0.604930 0.520043
vt 0.700721 0.515610
vt 0.604506 0.515610
vt 0.508715 0.512255
vt 0.509246 0.511952
vt 0.508715 0.515367
vt 0.508715 0.520043
vt 0.508291 0.515610
vt 0.412501 0.512256
vt 0.413031 0.511951
vt 0.412501 0.515367
vt 0.412501 0.520043
vt 0.316286 0.512255
vt 0.316286 0.515367
vt 0.700721 0.515610
vt 0.701144 0.520043
vt 0.123857 0.520043
vt 0.123857 0.512255
vt 0.124388 0.511952
vt 0.508292 0.515610
vt 0.412501 0.520043
vt 0.315862 0.515610
vt 0.220072 0.512255
vt 0.220602 0.511951
vt -1.138487 -1.779711
vt -1.144403 -1.860824
vt -1.144630 -1.779711
vt 0.999338 0.168155
vt 0.999338 0.167494
vt 0.799490 0.167494
vt -1.144395 -0.300634
vt 1.013788 0.331972
vt 1.080774 0.907645
vt 0.946809 1.803796
vt 0.999338 0.991673
vt 0.517100 0.164515
vt 0.799490 0.167494
vt 0.517100 0.167494
vt 0.999338 0.164516
vt 1.281728 0.164516
vt 0.450116 1.076610
vt 1.348715 1.069145
vt 0.999338 1.133942
vt 0.799491 1.134605
vt 0.946809 2.248210
vt 0.852030 2.248210
vt 0.887709 2.214215
vt 0.911129 2.214215
vt 1.013788 0.328994
vt 1.281736 1.648914
vt 0.999343 1.668341
vt 0.999343 1.648914
vt 0.517102 1.648914
vt 0.799495 1.682089
vt 0.911124 0.613449
vt 0.887704 0.613449
vt 0.999343 1.958678
vt 0.651073 1.958678
vt 0.799495 1.994025
vt 0.946804 0.575711
vt 0.946804 0.578689
vt 0.999338 0.169282
vt 0.799490 0.169282
vt 0.799491 0.191701
vt 0.799495 2.113559
vt 0.799495 2.131223
vt 1.214750 2.113559
vt 0.999343 2.113559
vt 1.013794 1.726355
vt 0.752393 0.520043
vt 0.701145 0.512256
vt 0.220072 0.520043
vt 0.605461 0.511952
vt 0.604930 0.515367
vt 0.509246 0.511952
vt 0.508715 0.512255
vt 0.508715 0.515367
vt 0.123857 0.520043
vt 0.413031 0.511952
vt 0.412501 0.512256
vt 0.412501 0.515367
vt 0.412077 0.515610
vt 0.220072 0.515367
vt 0.316817 0.511951
vt 0.316286 0.512255
vt 0.123857 0.512255
vt 0.124388 0.511952
vt 0.220602 0.511951
vt 0.220072 0.512255
vt 0.799491 0.986906
vt 0.799491 0.989884
vt 0.999338 0.986906
vt 1.214744 0.986906
vt 0.999338 0.224734
vt 0.999339 0.660928
vt 1.147759 0.660928
vt 0.651071 0.660928
vt 0.799491 0.660928
vt 0.799491 0.661463
vt 0.799491 0.657950
vt 0.999339 0.657950
vt 1.147759 0.657950
vt 0.799491 1.047125
vt 1.080779 1.339151
vt 0.799495 1.348685
vt 1.080774 0.904667
vt 0.783333 0.397222
vt 0.783333 0.397443
vt 0.783333 0.428115
vt 0.806372 0.711111
vt 0.800306 0.711111
vt 0.794444 0.036111
vt 0.794445 0.019133
vt 0.794445 0.035891
vt 0.813175 0.355556
vt 0.817483 0.355556
vt 0.999338 0.169282
vt 0.999344 1.668341
vt 0.799495 1.690232
vt 1.214750 2.015887
vt 0.799495 1.349993
vt 0.799491 1.101713
vt -1.138479 -0.300634
vt -1.138487 -1.860824
vt -1.138487 -1.860824
vt 0.999338 1.032493
vt 0.799490 0.164515
vt 0.450116 1.069145
vt 0.999338 1.135073
vt 0.785040 0.328994
vt 0.799495 1.648914
vt 0.799495 1.958677
vt 0.852026 0.575711
vt 0.584086 0.986906
vt 0.999339 0.989884
vt 0.999338 0.662183
vt 0.651071 0.657950
vt 0.999339 0.660928
vt 0.999338 1.048380
vt 0.999343 1.348686
vt 0.718056 0.904667
vt 0.783333 0.497222
vt 0.783333 0.462660
vt 0.783333 0.476933
vt 0.783333 0.447222
vt 0.783333 0.447443
vt 0.866667 0.533333
vt 0.783333 0.526216
vt 0.783333 0.526169
vt 0.783333 0.497443
vt 0.783333 0.497361
vt 0.783333 0.497048
vt 0.783333 0.496947
vt 0.783333 0.447367
vt 0.783333 0.447128
vt 0.783333 0.428059
vt 0.783333 0.446947
vt 0.783333 0.397377
vt 0.783333 0.397140
vt 0.783333 0.396947
vt 0.783333 0.356860
vt 0.783333 0.355556
vt 0.783333 0.356698
vt 0.794445 0.136111
vt 0.794445 0.136305
vt 0.794445 0.136387
vt 0.794445 0.153446
vt 0.877778 0.177778
vt 0.794445 0.153381
vt 0.794445 0.135891
vt 0.794445 0.136045
vt 0.794445 0.086293
vt 0.794445 0.086387
vt 0.794445 0.086111
vt 0.794445 0.122828
vt 0.794445 0.122946
vt 0.794445 0.085891
vt 0.794445 0.086036
vt 0.794445 0.036387
vt 0.794445 0.070583
vt 0.794445 0.056350
vt 0.794445 0.036213
vt 0.794445 0.036030
vt 0.794445 -0.000000
vt 0.794445 0.019062
s 0
usemtl wood
f 3/1/1 78/2/1 77/3/1
f 71/4/1 79/5/1 80/6/1
f 66/7/2 22/8/2 33/9/2
f 83/10/1 82/11/1 32/12/1
f 12/13/3 86/14/3 85/15/3
f 47/16/4 87/17/4 88/18/4
f 71/19/5 75/20/5 72/21/5
f 1/22/6 89/23/6 8/24/6
f 69/25/6 91/26/6 90/27/6
f 60/28/4 30/29/4 63/30/4
f 53/31/4 35/32/4 68/33/4
f 64/34/7 29/35/7 62/36/7
f 18/37/1 94/38/1 93/39/1
f 52/40/1 95/41/1 96/42/1
f 54/43/3 32/12/3 20/44/3
f 56/45/1 30/29/1 22/8/1
f 7/46/2 98/47/2 97/48/2
f 75/49/6 99/50/6 100/51/6
f 42/52/7 38/53/7 14/54/7
f 101/55/7 6/56/7 74/57/7
f 61/58/2 21/59/2 27/60/2
f 28/61/1 39/62/1 43/63/1
f 45/64/7 106/65/7 107/66/7
f 11/67/7 105/68/7 108/69/7
f 55/70/1 35/32/1 21/59/1
f 9/71/1 110/72/1 109/73/1
f 44/74/1 111/75/1 112/76/1
f 4/77/7 113/78/7 114/79/7
f 45/80/7 116/81/7 72/82/7
f 70/83/6 5/84/6 2/85/6
f 62/86/7 25/87/7 59/88/7
f 67/89/2 15/90/2 49/91/2
f 17/92/8 9/93/8 10/94/8
f 17/95/4 118/96/4 117/97/4
f 51/98/2 119/99/2 120/100/2
f 16/101/3 122/102/3 121/103/3
f 50/104/2 123/105/2 124/106/2
f 23/107/3 126/108/3 125/109/3
f 57/110/4 127/111/4 128/112/4
f 11/113/7 129/114/7 130/115/7
f 59/116/7 131/117/7 46/118/7
f 133/119/1 134/120/1 70/83/1
f 66/7/2 56/45/2 22/8/2
f 16/101/1 81/121/1 122/102/1
f 65/122/1 124/106/1 84/123/1
f 12/13/2 135/124/2 13/125/2
f 48/126/4 136/127/4 87/128/4
f 37/129/9 38/130/9 39/131/9
f 33/132/10 28/133/10 15/134/10
f 52/135/5 45/136/5 47/137/5
f 21/138/10 25/139/10 29/140/10
f 42/141/5 64/142/5 66/132/5
f 66/132/11 67/143/11 49/134/11
f 60/144/12 63/145/12 61/146/12
f 61/146/13 63/145/13 62/147/13
f 56/148/14 66/132/14 64/142/14
f 55/149/15 61/146/15 62/147/15
f 53/150/11 68/151/11 54/152/11
f 54/152/12 68/151/12 59/153/12
f 55/149/5 59/153/5 68/151/5
f 65/154/14 54/152/14 59/153/14
f 58/155/14 50/156/14 57/157/14
f 57/157/5 50/156/5 46/158/5
f 52/135/5 57/157/5 46/158/5
f 48/159/5 47/137/5 51/160/5
f 51/160/12 47/137/12 45/136/12
f 22/161/10 29/140/10 31/162/10
f 74/163/11 73/164/11 70/165/11
f 32/166/10 11/167/10 25/139/10
f 44/168/11 51/160/11 45/136/11
f 76/169/11 69/170/11 75/20/11
f 75/20/12 69/170/12 72/21/12
f 14/171/16 37/172/16 28/173/16
f 8/24/2 89/174/2 137/175/2
f 69/25/2 138/176/2 91/26/2
f 38/130/9 41/177/9 39/131/9
f 60/28/4 26/178/4 30/29/4
f 53/31/6 19/179/6 35/32/6
f 41/172/17 42/171/17 43/173/17
f 64/34/7 31/180/7 29/35/7
f 18/37/1 86/181/1 12/13/1
f 47/16/1 88/18/1 95/41/1
f 54/43/3 65/122/3 32/12/3
f 75/182/18 138/183/18 76/184/18
f 8/24/18 98/185/18 7/186/18
f 73/187/18 6/188/18 5/84/18
f 56/45/1 63/30/1 30/29/1
f 7/46/2 78/189/2 3/1/2
f 71/4/3 80/6/3 99/190/3
f 31/191/7 64/192/7 14/54/7
f 64/192/7 42/52/7 14/54/7
f 42/52/7 40/193/7 38/53/7
f 38/53/7 36/194/7 14/54/7
f 60/28/18 27/195/18 26/178/18
f 4/196/7 102/197/7 113/198/7
f 72/199/7 104/200/7 74/57/7
f 61/58/3 55/70/3 21/59/3
f 49/91/1 15/90/1 43/63/1
f 15/90/1 28/61/1 43/63/1
f 28/61/1 37/201/1 39/62/1
f 39/62/1 41/202/1 43/63/1
f 129/203/7 11/67/7 108/69/7
f 46/204/7 106/205/7 45/64/7
f 67/89/18 33/206/18 34/207/18
f 55/70/1 68/33/1 35/32/1
f 9/71/1 92/208/1 1/22/1
f 69/25/1 90/209/1 111/210/1
f 66/132/5 43/133/5 42/141/5
f 45/80/7 107/211/7 115/212/7
f 10/213/7 114/79/7 105/214/7
f 70/83/6 73/187/6 5/84/6
f 62/86/7 29/215/7 25/87/7
f 67/89/4 34/207/4 15/90/4
f 31/162/10 14/216/10 33/132/10
f 74/163/5 71/19/5 72/21/5
f 15/134/8 34/217/8 33/132/8
f 9/93/10 4/218/10 10/94/10
f 22/161/19 31/162/19 33/132/19
f 30/219/20 26/144/20 27/220/20
f 30/219/21 27/220/21 29/140/21
f 44/168/5 72/21/5 69/170/5
f 21/138/22 29/140/22 27/220/22
f 35/221/23 19/222/23 20/223/23
f 35/221/23 20/223/23 25/139/23
f 3/19/10 6/224/10 4/218/10
f 32/166/24 25/139/24 20/223/24
f 16/225/25 24/226/25 23/227/25
f 16/225/10 23/227/10 11/167/10
f 18/228/10 10/94/10 11/167/10
f 65/154/5 46/158/5 50/156/5
f 3/19/26 4/218/26 7/229/26
f 62/147/5 56/148/5 64/142/5
f 18/228/10 11/167/10 23/227/10
f 12/230/10 13/231/10 17/92/10
f 12/230/8 17/92/8 10/94/8
f 5/232/24 6/224/24 2/233/24
f 1/234/27 8/235/27 7/229/27
f 7/229/27 4/218/27 1/234/27
f 48/126/18 120/236/18 136/237/18
f 13/125/18 118/238/18 17/239/18
f 17/95/28 110/240/28 9/71/28
f 44/74/3 112/76/3 119/99/3
f 16/101/29 139/241/29 24/242/29
f 58/243/6 140/244/6 123/245/6
f 58/243/18 128/246/18 140/244/18
f 24/242/18 126/247/18 23/248/18
f 23/107/2 94/38/2 18/37/2
f 52/40/30 96/249/30 127/111/30
f 59/116/7 25/250/7 142/251/7
f 53/31/18 20/252/18 19/179/18
f 131/253/16 96/254/16 106/255/16
f 101/256/9 134/257/9 133/257/9
f 113/258/17 102/259/17 78/260/17
f 82/261/18 142/262/18 141/262/18
f 71/4/1 70/83/1 79/5/1
f 65/122/1 84/123/1 83/10/1
f 82/11/1 81/121/1 32/12/1
f 81/121/1 16/101/1 32/12/1
f 65/122/1 83/10/1 32/12/1
f 47/16/4 48/126/4 87/17/4
f 1/22/2 92/263/2 89/23/2
f 52/40/1 47/16/1 95/41/1
f 75/49/2 71/4/2 99/50/2
f 101/55/7 102/264/7 4/196/7
f 74/57/7 104/200/7 103/265/7
f 101/55/7 4/196/7 6/56/7
f 74/57/7 103/265/7 101/55/7
f 11/67/7 10/266/7 105/68/7
f 44/74/1 69/25/1 111/75/1
f 45/80/7 115/212/7 116/81/7
f 51/98/2 44/74/2 119/99/2
f 50/104/28 58/243/28 123/105/28
f 57/110/4 52/40/4 127/111/4
f 59/116/7 132/267/7 131/117/7
f 2/85/1 3/1/1 133/119/1
f 3/1/1 77/3/1 133/119/1
f 134/120/1 79/268/1 70/83/1
f 2/85/1 133/119/1 70/83/1
f 65/122/1 50/104/1 124/106/1
f 12/13/4 85/15/4 135/124/4
f 37/129/9 36/269/9 38/130/9
f 33/132/10 14/216/10 28/133/10
f 52/135/5 46/158/5 45/136/5
f 21/138/10 35/221/10 25/139/10
f 55/149/5 62/147/5 59/153/5
f 22/161/10 30/219/10 29/140/10
f 32/166/10 16/225/10 11/167/10
f 14/171/16 36/270/16 37/172/16
f 69/25/6 76/184/6 138/176/6
f 38/130/9 40/269/9 41/177/9
f 41/172/17 40/271/17 42/171/17
f 18/37/1 93/272/1 86/181/1
f 75/182/18 100/273/18 138/183/18
f 8/24/18 137/175/18 98/185/18
f 73/187/18 74/274/18 6/188/18
f 7/46/2 97/275/2 78/189/2
f 60/28/18 61/276/18 27/195/18
f 72/199/7 116/277/7 104/200/7
f 46/204/7 131/278/7 106/205/7
f 67/89/18 66/279/18 33/206/18
f 9/71/1 109/73/1 92/208/1
f 66/132/5 49/134/5 43/133/5
f 10/213/7 4/77/7 114/79/7
f 74/163/5 70/165/5 71/19/5
f 9/93/10 1/234/10 4/218/10
f 44/168/5 45/136/5 72/21/5
f 3/19/10 2/233/10 6/224/10
f 18/228/10 12/230/10 10/94/10
f 65/154/5 59/153/5 46/158/5
f 62/147/5 63/145/5 56/148/5
f 48/126/18 51/280/18 120/236/18
f 13/125/18 135/281/18 118/238/18
f 17/95/2 117/97/2 110/240/2
f 16/101/31 121/282/31 139/241/31
f 58/243/18 57/283/18 128/246/18
f 24/242/18 139/284/18 126/247/18
f 23/107/4 125/285/4 94/38/4
f 25/250/7 11/113/7 130/115/7
f 25/250/7 130/115/7 141/286/7
f 142/251/7 132/267/7 59/116/7
f 25/250/7 141/286/7 142/251/7
f 53/31/18 54/287/18 20/252/18
f 116/288/16 115/289/16 111/290/16
f 115/289/16 107/291/16 112/292/16
f 111/290/16 115/289/16 112/292/16
f 103/293/16 104/294/16 79/295/16
f 104/294/16 116/288/16 80/296/16
f 79/295/16 134/293/16 103/293/16
f 100/288/32 99/297/32 116/288/32
f 99/297/33 80/296/33 116/288/33
f 80/296/16 79/295/16 104/294/16
f 91/298/16 138/288/16 100/288/16
f 100/288/16 116/288/16 111/290/16
f 90/299/34 91/298/34 100/288/34
f 111/290/16 90/299/16 100/288/16
f 120/291/35 119/300/35 107/291/35
f 119/300/36 112/292/36 107/291/36
f 87/301/32 136/291/32 120/291/32
f 95/302/16 88/303/16 120/291/16
f 88/303/35 87/301/35 120/291/35
f 128/253/16 127/304/16 131/253/16
f 127/304/16 96/254/16 131/253/16
f 96/254/16 95/302/16 106/255/16
f 95/302/16 120/291/16 106/255/16
f 123/305/16 140/253/16 128/253/16
f 106/255/16 120/291/16 107/291/16
f 124/306/16 123/305/16 128/253/16
f 84/307/16 124/306/16 128/253/16
f 142/308/16 83/308/16 132/309/16
f 83/308/16 84/307/16 132/309/16
f 84/307/16 128/253/16 131/253/16
f 132/309/16 84/307/16 131/253/16
f 101/256/9 103/256/9 134/257/9
f 126/310/17 139/310/17 121/311/17
f 121/311/37 122/312/37 126/310/37
f 122/312/17 81/313/17 126/310/17
f 81/313/17 82/314/17 130/315/17
f 82/314/17 141/314/17 130/315/17
f 94/316/17 125/317/17 129/310/17
f 125/317/38 126/310/38 129/310/38
f 85/318/17 86/319/17 118/320/17
f 86/319/17 93/321/17 118/320/17
f 126/310/17 81/313/17 130/315/17
f 93/321/17 94/316/17 108/322/17
f 118/320/17 93/321/17 105/320/17
f 118/320/17 135/320/17 85/318/17
f 110/323/39 117/324/39 105/320/39
f 117/324/17 118/320/17 105/320/17
f 92/325/17 109/326/17 114/327/17
f 109/326/17 110/323/17 105/320/17
f 92/325/17 114/327/17 98/258/17
f 98/258/37 137/258/37 89/328/37
f 89/328/39 92/325/39 98/258/39
f 114/327/17 109/326/17 105/320/17
f 93/321/17 108/322/17 105/320/17
f 126/310/17 130/315/17 129/310/17
f 97/329/17 98/258/17 113/258/17
f 94/316/17 129/310/17 108/322/17
f 78/260/17 97/329/17 113/258/17
f 98/258/17 114/327/17 113/258/17
f 133/330/17 77/331/17 101/330/17
f 77/331/17 78/260/17 102/259/17
f 102/259/17 101/330/17 77/331/17
f 82/261/18 83/261/18 142/262/18
