# Blender 4.0.2
# www.blender.org
mtllib tiled_wall_roof_4000_win_600x600.mtl
o tiled_wall_roof_4000_win_600x600
v 0.011276 0.559207 1.260770
v 0.000000 0.380993 1.473158
v 0.000000 0.200993 1.687673
v 0.024937 0.560000 1.259824
v 0.011276 0.379207 1.475285
v 0.024937 0.380000 1.474340
v 0.000000 0.560993 1.258641
v 0.000937 0.560000 1.259825
v 0.000937 0.200000 1.688856
v 0.024937 0.200000 1.688856
v 0.010527 0.560000 1.259825
v 0.010527 0.380000 1.474340
v 0.000937 0.380000 1.474340
v 0.024937 0.740000 1.045308
v 0.000937 1.460001 0.187245
v 0.010527 1.460001 0.187245
v 0.011276 1.459208 0.188191
v 0.024937 1.460001 0.187245
v 0.000000 1.460993 0.186063
v 0.000000 1.280993 0.400578
v 0.000000 0.740993 1.044125
v 0.011276 0.739207 1.046253
v 0.000937 0.920000 0.830792
v 0.010527 0.920000 0.830792
v 0.011276 1.099207 0.617221
v 0.011276 1.279207 0.402706
v 0.010527 0.740000 1.045308
v 0.000937 0.740000 1.045308
v 0.024937 0.920000 0.830792
v 0.000937 1.100001 0.616277
v 0.010527 1.100001 0.616277
v 0.007887 1.585652 0.037500
v 0.024937 1.585651 0.037500
v 0.024937 1.100001 0.616277
v 0.000000 1.100993 0.615094
v 0.024937 1.280000 0.401761
v 0.011276 0.919207 0.831737
v 0.010527 1.280000 0.401761
v 0.000937 1.280000 0.401761
v 0.000000 0.920993 0.829609
v 0.008589 1.596733 0.037500
v 0.024937 1.596733 0.037500
v 0.008589 1.596733 0.000000
v 0.024937 1.596733 0.000000
v 0.008589 1.596733 -0.037500
v 0.024937 1.596733 -0.037500
v 0.007887 1.585652 -0.037500
v 0.024937 1.585652 -0.037500
v 0.024937 0.740000 -1.045308
v 0.000937 1.460001 -0.187245
v 0.010527 1.460001 -0.187245
v 0.011276 1.459208 -0.188190
v 0.024937 1.460001 -0.187245
v 0.000000 1.460993 -0.186063
v 0.000000 1.280993 -0.400578
v 0.000000 0.740993 -1.044125
v 0.011276 0.739207 -1.046253
v 0.000937 0.920000 -0.830792
v 0.010527 0.920000 -0.830792
v 0.011276 1.099207 -0.617222
v 0.011276 1.279208 -0.402706
v 0.010527 0.740000 -1.045308
v 0.000937 0.740000 -1.045308
v 0.024937 0.920000 -0.830793
v 0.000937 1.100000 -0.616276
v 0.010527 1.100000 -0.616276
v 0.024937 1.100000 -0.616277
v 0.000000 1.100993 -0.615094
v 0.024937 1.280000 -0.401761
v 0.011276 0.919207 -0.831738
v 0.010527 1.280000 -0.401761
v 0.000937 1.280000 -0.401761
v 0.000000 0.920993 -0.829610
v 0.011276 0.559207 -1.260769
v 0.000000 0.380993 -1.473157
v 0.000000 0.200993 -1.687673
v 0.024937 0.560000 -1.259824
v 0.011276 0.379207 -1.475285
v 0.024937 0.380000 -1.474340
v 0.000000 0.560993 -1.258642
v 0.000937 0.560000 -1.259824
v 0.000937 0.200000 -1.688855
v 0.024938 0.200000 -1.688856
v 0.010527 0.560000 -1.259824
v 0.010527 0.380000 -1.474340
v 0.000937 0.380000 -1.474340
v 0.008200 0.870590 0.320000
v 0.011276 0.919207 0.320000
v 0.004353 0.809788 -0.320000
v 0.011276 0.919207 -0.320000
v 0.000349 0.560623 0.320000
v 0.000000 0.560993 0.320000
v 0.000587 0.560371 -0.320000
v 0.000000 0.560993 -0.320000
v 0.000288 0.920688 0.320000
v 0.000000 0.920993 0.320000
v 0.000649 0.920306 -0.320000
v 0.000000 0.920993 -0.320000
v 0.004592 0.633568 0.320000
v 0.011276 0.739207 -0.320000
v 0.007723 0.683053 -0.320000
v 0.011276 0.739207 0.320000
v 0.010757 0.919757 0.320000
v 0.010527 0.920000 0.320000
v 0.011046 0.919451 -0.320000
v 0.010527 0.920000 -0.320000
v 0.024937 0.560000 0.320000
v 0.024937 0.683363 0.320000
v 0.024937 0.560000 -0.320000
v 0.024937 0.633388 -0.320000
v 0.003972 0.983764 0.320000
v 0.008795 1.060000 -0.298920
v 0.008795 1.060000 0.320000
v 0.007396 0.497882 0.320000
v 0.011276 0.559207 0.320000
v 0.004756 0.456163 -0.320000
v 0.011276 0.559207 -0.320000
v 0.024937 0.420000 0.320000
v 0.024937 0.455995 0.320000
v 0.024937 0.420000 -0.320000
v 0.024937 0.498128 -0.320000
v 0.024937 1.060000 -0.294704
v 0.024937 0.983537 0.320000
v 0.024937 0.920000 0.320000
v 0.024937 0.920000 -0.320000
v 0.024937 1.060000 -0.320000
v 0.010806 0.559704 0.320000
v 0.010527 0.560000 0.320000
v 0.010997 0.559503 -0.320000
v 0.010527 0.560000 -0.320000
v 0.000325 0.740649 0.320000
v 0.000000 0.740993 0.320000
v 0.000612 0.740345 -0.320000
v 0.000000 0.740993 -0.320000
v 0.010787 0.739725 0.320000
v 0.010527 0.740000 0.320000
v 0.011016 0.739483 -0.320000
v 0.010527 0.740000 -0.320000
v 0.024937 0.740000 0.320000
v 0.024937 0.809589 -0.320000
v 0.024937 0.740000 -0.320000
v 0.024937 0.870993 0.320000
v 0.000937 0.560000 0.320000
v 0.000937 0.560000 -0.320000
v 0.000937 0.920000 0.320000
v 0.000937 0.920000 -0.320000
v 0.008795 1.060000 -0.320000
v 0.002468 0.420000 0.320000
v 0.002468 0.420000 -0.320000
v 0.024937 1.060000 0.320000
v 0.000937 0.740000 0.320000
v 0.000937 0.740000 -0.320000
vn -0.9980 0.0631 -0.0000
vn -0.7271 -0.6865 -0.0000
vn -0.7272 -0.6864 -0.0000
vn -0.7272 -0.6865 -0.0000
vn -0.0000 0.7660 -0.6429
vn -0.7274 -0.6863 -0.0000
vn -0.7273 -0.6863 -0.0000
vn 1.0000 -0.0000 -0.0000
vn -0.0000 0.7658 0.6431
vn -0.7271 -0.6866 -0.0000
vn -0.0000 -1.0000 -0.0000
vn -0.0000 0.7660 0.6428
vn -0.0000 0.7660 -0.6428
vn -0.0000 0.7659 -0.6429
vn -0.0000 0.7661 -0.6428
vn -0.0000 0.7662 -0.6426
vn -0.0000 0.7659 -0.6430
vn -0.0000 0.7661 -0.6427
vn -0.0000 0.7658 -0.6431
vn -0.0000 1.0000 -0.0000
vn -0.7269 -0.6867 -0.0000
vn -0.0000 -0.0000 -1.0000
vn -0.7270 -0.6866 -0.0000
vn -0.0000 -0.0000 1.0000
vn -0.0000 0.7661 0.6427
vn -0.0000 0.7662 0.6426
vn -0.0000 0.7660 0.6429
vn -0.0000 0.7663 0.6425
vn -0.0000 0.7664 0.6424
vn -0.7274 -0.6862 -0.0000
vn -0.7273 -0.6864 -0.0000
vn -0.0000 0.0002 1.0000
vn -0.0000 0.0001 1.0000
vn -0.0000 -0.0001 1.0000
vn -0.0000 0.0001 -1.0000
vt 0.438740 1.133942
vt 1.426410 1.078402
vt 1.360090 1.133942
vt 0.773959 0.391001
vt 1.025164 0.389213
vt 1.024868 0.391001
vt 1.159134 0.718169
vt 0.999338 0.718169
vt 0.999338 0.703042
vt 0.639694 0.718169
vt 0.799490 0.684123
vt 0.799490 0.718169
vt 1.292439 0.991673
vt 0.999338 0.991673
vt 0.999338 0.991006
vt 0.506389 0.991673
vt 0.799491 0.990552
vt 0.799490 0.991673
vt 0.153311 0.520043
vt 0.152889 0.515610
vt 0.153311 0.515367
vt 0.439404 0.169282
vt 1.359794 0.167494
vt 1.359425 0.169282
vt 0.706975 0.331972
vt 1.091484 0.333761
vt 0.707344 0.333761
vt 1.158469 0.909434
vt 0.999338 0.909434
vt 0.999338 0.908885
vt 0.640359 0.909434
vt 0.799491 0.908195
vt 0.799490 0.909434
vt 0.773964 1.803796
vt 1.091860 1.861005
vt 0.706978 1.861005
vt 1.226119 1.047125
vt 0.999338 1.014255
vt 0.572710 1.047125
vt 0.799491 1.029652
vt 0.799491 1.047125
vt 1.158839 0.719958
vt 0.999338 0.719958
vt 0.999338 0.719408
vt 0.639989 0.719958
vt 0.799490 0.718719
vt 0.799490 0.719958
vt 0.773665 0.389213
vt 1.359795 1.135735
vt 0.439034 1.135735
vt 0.840949 2.191000
vt 1.024874 2.248210
vt 0.773964 2.248210
vt 0.372051 1.706124
vt 1.359802 1.648914
vt 1.426788 1.706124
vt 0.706974 0.966675
vt 1.092149 0.964886
vt 1.091853 0.966675
vt 0.840650 0.635930
vt 1.024499 0.580478
vt 0.958179 0.635930
vt 0.999343 2.015887
vt 1.225831 1.958677
vt 1.292816 2.015887
vt 0.799495 2.015887
vt 0.506022 2.015887
vt 0.799495 1.992562
vt 0.806073 0.952687
vt 0.999338 0.952687
vt 0.957883 0.637718
vt 0.840944 0.637718
vt 1.293104 0.224734
vt 0.999338 0.224734
vt 0.999338 0.205653
vt 0.505724 0.224734
vt 0.799491 0.192672
vt 0.799491 0.224734
vt 1.359802 2.170768
vt 0.439036 2.170768
vt 0.999343 2.158055
vt 0.372051 1.076610
vt 0.372419 1.078402
vt 1.158845 1.783565
vt 0.999343 1.783565
vt 0.999344 1.763371
vt 0.706978 1.726355
vt 0.799495 1.739068
vt 0.799495 1.783565
vt 0.887709 2.363156
vt 0.899419 2.359634
vt 0.911129 2.363156
vt 0.773961 0.578689
vt 0.774329 0.580478
vt 0.911124 0.783744
vt 0.899414 0.787192
vt 0.887704 0.783744
vt 0.535929 0.515610
vt 0.536351 0.520043
vt 0.536351 0.515367
vt 1.292809 0.226523
vt 0.999338 0.226523
vt 0.999338 0.225856
vt 0.506019 0.226523
vt 0.799490 0.225402
vt 0.799490 0.226523
vt 1.225454 0.662717
vt 0.999338 0.662717
vt 0.999338 0.662097
vt 0.573374 0.662717
vt 0.799491 0.661549
vt 0.799490 0.662717
vt 0.840945 0.743167
vt 0.957514 0.744956
vt 0.841314 0.744956
vt 1.225824 1.048914
vt 0.999338 1.048914
vt 0.999338 1.048293
vt 0.573004 1.048913
vt 0.799490 1.047746
vt 0.799490 1.048914
vt 0.573007 1.396360
vt 0.799495 1.374243
vt 0.799495 1.396360
vt 1.158845 1.339151
vt 0.999343 1.396360
vt 0.999343 1.354727
vt 0.999338 0.662717
vt 0.799490 0.684123
vt 0.999339 0.989884
vt 1.292809 0.989884
vt 0.506020 0.989884
vt 0.799491 0.989884
vt 1.426780 1.069145
vt 0.372051 1.069145
vt 0.794716 0.520043
vt 0.728398 0.511951
vt 0.727870 0.520043
vt 0.249071 0.520043
vt 0.344409 0.515610
vt 0.344831 0.520043
vt 0.631689 0.515610
vt 0.632111 0.520043
vt 0.727870 0.515367
vt 0.727870 0.512256
vt 0.728398 0.511952
vt 0.632111 0.512256
vt 0.632638 0.511952
vt 0.632111 0.515367
vt 0.632111 0.520043
vt 0.727870 0.520043
vt 0.727448 0.515610
vt 0.631688 0.515610
vt 0.344409 0.515610
vt 0.249071 0.520043
vt 0.344831 0.520043
vt 0.536351 0.512255
vt 0.536878 0.511951
vt 0.536351 0.515367
vt 0.536351 0.520043
vt 0.535929 0.515610
vt 0.727448 0.515610
vt 0.440591 0.512256
vt 0.441119 0.511951
vt 0.440591 0.515367
vt 0.440591 0.520043
vt 0.440169 0.515610
vt 0.248649 0.515610
vt 0.153311 0.520043
vt 0.344831 0.512255
vt 0.345359 0.511952
vt 0.344831 0.515367
vt 0.057551 0.520043
vt 0.057551 0.512255
vt 0.058079 0.511952
vt 0.440169 0.515610
vt 0.440591 0.520043
vt 0.249071 0.512256
vt 0.249599 0.511951
vt 0.249071 0.515367
vt 0.248649 0.515610
vt 0.153311 0.512255
vt 0.153839 0.511951
vt -1.143783 -0.300634
vt -1.138479 -0.309955
vt -1.143784 -0.309955
vt 0.439034 0.167494
vt -1.143784 -0.300634
vt 1.024869 0.575711
vt 1.024869 0.578689
vt 1.091854 0.331972
vt 0.999339 0.907645
vt 1.158839 0.907645
vt 0.639990 0.907645
vt 0.799491 0.907645
vt -1.143791 -3.396251
vt -1.138487 -3.315137
vt -1.144019 -3.315137
vt 1.024874 1.803796
vt 0.999338 1.014255
vt 0.799491 0.991673
vt 0.799491 1.029652
vt 0.799490 0.718169
vt 0.799490 0.718719
vt 1.359794 0.164516
vt 1.091854 0.328994
vt 0.957889 2.191000
vt 0.794716 0.514511
vt 0.439036 1.648914
vt 0.706680 0.964886
vt 0.999343 1.976678
vt 0.999343 1.958677
vt 0.573007 1.958677
vt 0.799495 1.992562
vt 0.957884 0.740189
vt 0.957884 0.743167
vt 0.999338 0.928966
vt 0.999338 0.909434
vt 0.799491 0.952687
vt 0.999338 0.181420
vt 0.799490 0.181420
vt 0.506022 2.113559
vt 0.799495 2.113559
vt 0.799495 2.133224
vt 1.292816 2.113559
vt 0.999343 2.146615
vt 0.999343 2.113559
vt 1.426780 1.076610
vt 1.091860 1.726355
vt 0.999344 1.739068
vt 0.957889 2.403091
vt 0.840949 2.403091
vt 0.887709 2.359634
vt 0.911129 2.359634
vt 0.911124 0.787192
vt 0.887704 0.787192
vt -1.138487 -3.315137
vt -1.143791 -3.396251
vt 0.727870 0.512256
vt 0.152889 0.515610
vt 0.057551 0.520043
vt 0.153311 0.515367
vt 0.058079 0.511951
vt 0.057551 0.512255
vt 0.153839 0.511951
vt 0.153311 0.512256
vt 0.249071 0.515367
vt 0.249599 0.511952
vt 0.249071 0.512255
vt 0.344831 0.515367
vt 0.632638 0.511952
vt 0.632110 0.512255
vt 0.632110 0.515367
vt 0.440591 0.515367
vt 0.536879 0.511952
vt 0.536351 0.512256
vt 0.441119 0.511952
vt 0.345359 0.511952
vt 0.344831 0.512255
vt 0.440591 0.512256
vt 0.799491 0.989884
vt 0.506020 0.986906
vt 0.799491 0.986906
vt 0.999339 0.986906
vt 1.292809 0.986906
vt 0.999338 0.224734
vt 0.799490 0.225402
vt 0.999338 0.660928
vt 1.225824 0.660928
vt 0.573005 0.660928
vt 0.799491 0.660928
vt 0.799491 0.661549
vt 0.799491 0.657950
vt 0.999339 0.657950
vt 1.225824 0.657950
vt 0.999338 1.047125
vt 0.799491 1.047125
vt 0.999343 1.339151
vt 0.639993 1.339150
vt 0.799491 0.904667
vt 0.999338 0.904667
vt 1.158839 0.904667
vt 0.000000 0.867187
vt 0.000000 0.850000
vt 0.000000 0.850220
vt 0.106372 0.888889
vt 0.100130 0.888889
vt 0.166667 0.732745
vt 0.166667 0.749780
vt 0.166667 0.750000
vt 0.268555 0.888889
vt 0.273038 0.888889
vt 0.999338 1.047125
vt 0.999338 0.928966
vt 0.799495 2.158055
vt 0.799495 2.133224
vt 0.639993 1.783565
vt 0.807394 1.739068
vt 1.225831 1.396360
vt 0.999338 0.703042
vt -1.138479 -0.300634
vt -1.138479 -0.300634
vt 0.773960 0.575711
vt 0.999338 0.908885
vt -1.138486 -3.396251
vt 0.439034 0.164515
vt 0.706975 0.328994
vt 0.799495 1.958677
vt 0.840945 0.740189
vt 0.807394 1.739068
vt -1.138486 -3.396251
vt 0.999339 0.989884
vt 0.999338 0.225856
vt 0.999338 0.662097
vt 0.573005 0.657950
vt 0.999338 0.660928
vt 0.799495 1.339151
vt 0.639990 0.904667
vt -0.000000 0.750000
vt -0.000000 0.750152
vt -0.000000 0.750000
vt -0.000000 0.750220
vt -0.000000 0.780615
vt -0.000000 0.780670
vt -0.000000 0.799724
vt -0.000000 0.800000
vt -0.000000 0.799904
vt -0.000000 0.749915
vt 0.000000 0.800000
vt -0.000000 0.749724
vt 0.000000 0.800144
vt -0.000000 0.711111
vt 0.000000 0.800220
vt 0.000000 0.815819
vt 0.000000 0.849724
vt 0.000000 0.829615
vt 0.000000 0.849897
vt 0.000000 0.850138
vt 0.000000 0.878844
vt 0.083333 0.888889
vt 0.166667 0.850000
vt 0.166667 0.850191
vt 0.166667 0.850276
vt 0.166667 0.867712
vt 0.250000 0.888889
vt 0.166667 0.867649
vt 0.166667 0.849932
vt 0.166667 0.850000
vt 0.166667 0.836387
vt 0.166667 0.849780
vt 0.166667 0.800180
vt 0.166667 0.800276
vt 0.166667 0.800000
vt 0.166667 0.836275
vt 0.166667 0.800000
vt 0.166667 0.799780
vt 0.166667 0.799924
vt 0.166667 0.750276
vt 0.166667 0.770436
vt 0.166667 0.784268
vt 0.166667 0.750173
vt 0.166667 0.749918
vt 0.166667 0.721110
vt 0.166667 0.711111
vt 0.273038 0.888889
vt 0.268554 0.888889
s 0
usemtl wood
f 78/1/1 3/2/1 5/3/1
f 71/4/2 26/5/2 38/6/2
f 37/7/1 88/8/1 87/9/1
f 70/10/1 89/11/1 90/12/1
f 7/13/3 92/14/3 91/15/3
f 80/16/4 93/17/4 94/18/4
f 79/19/5 78/20/5 85/21/5
f 75/22/3 13/23/3 2/24/3
f 65/25/2 35/26/2 68/27/2
f 40/28/6 96/29/6 95/30/6
f 73/31/7 97/32/7 98/33/7
f 22/37/1 99/38/1 7/13/1
f 57/39/1 101/40/1 100/41/1
f 24/42/7 104/43/7 103/44/7
f 59/45/2 105/46/2 106/47/2
f 68/27/1 26/5/1 61/48/1
f 78/1/4 12/49/4 85/50/4
f 66/57/3 25/58/3 31/59/3
f 52/60/1 20/61/1 17/62/1
f 25/58/1 112/69/1 113/70/1
f 52/60/2 16/71/2 51/72/2
f 1/73/1 115/74/1 114/75/1
f 74/76/1 116/77/1 117/78/1
f 82/82/3 3/2/3 76/83/3
f 72/93/3 20/61/3 55/94/3
f 32/95/1 43/96/1 47/97/1
f 25/98/9 34/99/9 31/100/9
f 11/101/2 128/102/2 127/103/2
f 84/104/4 129/105/4 130/106/4
f 21/107/10 132/108/10 131/109/10
f 56/110/10 133/111/10 134/112/10
f 50/113/2 19/114/2 54/115/2
f 27/116/7 136/117/7 135/118/7
f 62/119/4 137/120/4 138/121/4
f 78/1/1 76/83/1 3/2/1
f 71/4/2 61/48/2 26/5/2
f 37/7/1 132/128/1 21/107/1
f 56/110/1 134/112/1 89/129/1
f 7/13/4 143/130/4 8/131/4
f 81/132/2 144/133/2 93/17/2
f 10/134/11 82/82/11 83/135/11
f 33/136/12 19/137/12 18/138/12
f 77/139/13 57/140/13 49/141/13
f 26/142/12 34/99/12 36/143/12
f 51/144/5 50/145/5 54/146/5
f 72/147/5 55/148/5 71/149/5
f 71/149/13 55/148/13 69/150/13
f 51/144/14 54/146/14 53/151/14
f 52/152/15 51/144/15 53/151/15
f 69/150/16 61/153/16 71/149/16
f 22/154/12 4/155/12 14/156/12
f 65/157/5 68/158/5 66/159/5
f 66/159/17 68/158/17 67/160/17
f 67/160/18 60/161/18 66/159/18
f 17/162/12 36/143/12 18/138/12
f 58/163/17 73/164/17 59/165/17
f 59/165/17 73/164/17 64/166/17
f 64/166/15 70/167/15 59/165/15
f 1/168/12 6/169/12 4/155/12
f 63/170/18 56/171/18 62/172/18
f 62/172/18 56/171/18 49/141/18
f 67/160/13 61/153/13 69/150/13
f 83/173/18 82/174/18 76/175/18
f 49/141/17 57/140/17 62/172/17
f 37/176/12 14/156/12 29/177/12
f 81/178/18 80/179/18 84/180/18
f 84/180/14 80/179/14 77/139/14
f 74/181/13 84/180/13 77/139/13
f 86/182/5 75/183/5 85/21/5
f 85/21/19 75/183/19 79/19/19
f 41/184/20 44/185/20 43/186/20
f 75/22/4 86/187/4 13/23/4
f 44/185/20 45/188/20 43/186/20
f 72/93/11 38/189/11 39/190/11
f 65/25/10 30/191/10 35/26/10
f 40/28/2 145/192/2 23/193/2
f 58/194/21 146/195/21 97/32/21
f 45/196/22 48/197/22 47/198/22
f 7/13/1 99/200/1 92/14/1
f 57/39/1 94/201/1 101/202/1
f 24/42/2 88/8/2 37/7/2
f 70/10/3 90/203/3 105/204/3
f 86/187/11 12/205/11 13/23/11
f 65/25/11 31/206/11 30/191/11
f 68/27/1 35/26/1 26/5/1
f 78/1/23 5/3/23 12/49/23
f 48/136/13 54/146/13 47/208/13
f 66/57/3 60/210/3 25/58/3
f 52/60/1 55/94/1 20/61/1
f 50/113/11 16/215/11 15/216/11
f 40/28/1 111/217/1 96/218/1
f 147/219/1 60/210/1 98/33/1
f 52/60/10 17/62/10 16/71/10
f 148/220/1 149/221/1 75/22/1
f 52/152/13 69/150/13 55/148/13
f 82/82/2 9/228/2 3/2/2
f 72/93/2 39/190/2 20/61/2
f 54/115/1 19/114/1 47/97/1
f 19/114/1 32/95/1 47/97/1
f 32/95/1 41/235/1 43/96/1
f 43/96/1 45/236/1 47/97/1
f 33/237/24 41/238/24 32/198/24
f 19/137/12 15/239/12 16/144/12
f 19/137/12 16/144/12 18/138/12
f 74/181/13 79/19/13 75/183/13
f 17/162/25 18/138/25 16/144/25
f 83/173/13 78/20/13 79/19/13
f 64/166/13 60/161/13 67/160/13
f 25/98/12 29/177/12 34/99/12
f 5/240/12 10/241/12 6/169/12
f 49/141/13 70/167/13 64/166/13
f 5/240/26 6/169/26 12/242/26
f 3/243/26 9/244/26 10/241/26
f 12/242/9 6/169/9 2/245/9
f 2/245/27 13/246/27 12/242/27
f 1/168/26 4/155/26 11/247/26
f 7/248/28 8/249/28 11/247/28
f 11/247/26 4/155/26 7/248/26
f 22/154/25 14/156/25 27/250/25
f 20/251/12 39/252/12 38/253/12
f 20/251/12 38/253/12 36/143/12
f 37/176/12 29/177/12 24/254/12
f 35/255/28 30/256/28 31/100/28
f 36/143/12 38/253/12 26/142/12
f 24/254/29 29/177/29 40/257/29
f 27/250/12 14/156/12 21/258/12
f 21/258/27 28/259/27 27/250/27
f 35/255/28 31/100/28 34/99/28
f 40/257/26 23/260/26 24/254/26
f 144/261/11 84/262/11 130/263/11
f 8/131/11 128/264/11 11/265/11
f 11/101/2 115/266/2 1/73/2
f 74/76/23 117/78/23 129/267/23
f 21/107/7 151/268/7 28/269/7
f 63/270/30 152/271/30 133/272/30
f 63/270/11 138/273/11 152/271/11
f 28/269/11 136/274/11 27/275/11
f 50/113/4 15/216/4 19/114/4
f 27/116/2 102/276/2 22/37/2
f 57/39/23 100/277/23 137/120/23
f 58/194/11 106/280/11 146/195/11
f 23/193/11 104/281/11 24/282/11
f 121/283/24 109/284/24 117/285/24
f 118/286/20 149/287/20 148/287/20
f 114/288/22 115/289/22 107/290/22
f 112/291/11 126/292/11 122/292/11
f 70/10/1 56/110/1 89/11/1
f 80/16/2 81/132/2 93/17/2
f 73/31/3 58/194/3 97/32/3
f 22/37/1 102/293/1 99/38/1
f 59/45/2 70/10/2 105/46/2
f 25/58/1 60/210/1 112/69/1
f 113/70/1 111/294/1 25/58/1
f 111/294/1 40/28/1 25/58/1
f 74/76/1 75/22/1 116/77/1
f 84/104/2 74/76/2 129/105/2
f 56/110/23 63/270/23 133/111/23
f 62/119/31 57/39/31 137/120/31
f 37/7/1 87/300/1 132/128/1
f 7/13/2 91/15/2 143/130/2
f 10/134/11 9/228/11 82/82/11
f 33/136/12 32/208/12 19/137/12
f 77/139/13 80/179/13 57/140/13
f 26/142/12 35/255/12 34/99/12
f 22/154/12 7/248/12 4/155/12
f 17/162/12 20/251/12 36/143/12
f 1/168/12 2/245/12 6/169/12
f 67/160/13 68/158/13 61/153/13
f 37/176/12 21/258/12 14/156/12
f 41/184/20 42/301/20 44/185/20
f 44/185/20 46/302/20 45/188/20
f 72/93/11 71/303/11 38/189/11
f 40/28/23 95/304/23 145/192/23
f 45/196/22 46/305/22 48/197/22
f 57/39/1 80/16/1 94/201/1
f 24/42/10 103/44/10 88/8/10
f 86/187/11 85/306/11 12/205/11
f 65/25/11 66/307/11 31/206/11
f 48/136/13 53/151/13 54/146/13
f 50/113/11 51/309/11 16/215/11
f 147/219/1 112/69/1 60/210/1
f 60/210/1 73/31/1 98/33/1
f 2/24/1 1/73/1 148/220/1
f 1/73/1 114/75/1 148/220/1
f 149/221/1 116/77/1 75/22/1
f 2/24/1 148/220/1 75/22/1
f 52/152/13 53/151/13 69/150/13
f 33/237/24 42/311/24 41/238/24
f 74/181/13 77/139/13 79/19/13
f 83/173/13 76/175/13 78/20/13
f 64/166/13 73/164/13 60/161/13
f 25/98/12 40/257/12 29/177/12
f 5/240/12 3/243/12 10/241/12
f 49/141/13 56/171/13 70/167/13
f 144/261/11 81/132/11 84/262/11
f 8/131/11 143/312/11 128/264/11
f 11/101/10 127/313/10 115/266/10
f 21/107/3 131/314/3 151/268/3
f 63/270/11 62/315/11 138/273/11
f 28/269/11 151/316/11 136/274/11
f 27/116/4 135/118/4 102/276/4
f 58/194/11 59/318/11 106/280/11
f 23/193/11 145/192/11 104/281/11
f 106/319/24 105/320/24 125/321/24
f 105/320/24 90/322/24 125/321/24
f 90/322/24 89/323/24 140/324/24
f 89/323/24 134/325/24 138/326/24
f 133/327/24 152/326/24 138/326/24
f 89/323/24 138/326/24 140/324/24
f 134/325/24 133/327/24 138/326/24
f 97/328/24 146/319/24 106/319/24
f 140/324/24 138/326/24 141/329/24
f 98/330/24 97/328/24 106/319/24
f 138/326/24 137/331/24 141/329/24
f 147/332/24 98/330/24 106/319/24
f 137/331/32 100/333/32 141/329/32
f 147/332/24 106/319/24 126/332/24
f 125/321/24 126/332/24 106/319/24
f 140/324/24 125/321/24 90/322/24
f 100/333/24 101/334/24 141/329/24
f 101/334/24 94/335/24 110/336/24
f 110/336/24 141/329/24 101/334/24
f 94/335/33 93/337/33 130/284/33
f 110/336/24 94/335/24 130/284/24
f 93/337/34 144/284/34 130/284/34
f 130/284/24 129/338/24 109/284/24
f 129/338/24 117/285/24 109/284/24
f 117/285/24 116/339/24 121/283/24
f 116/339/24 149/340/24 120/340/24
f 121/283/24 116/339/24 120/340/24
f 109/284/24 110/336/24 130/284/24
f 118/286/20 120/286/20 149/287/20
f 104/341/22 145/341/22 95/342/22
f 95/342/22 96/343/22 104/341/22
f 96/343/22 111/344/22 104/341/22
f 111/344/22 113/345/22 123/346/22
f 113/345/22 150/345/22 123/346/22
f 103/347/22 104/341/22 124/348/22
f 104/341/22 111/344/22 123/346/22
f 123/346/22 124/348/22 104/341/22
f 124/348/22 142/349/22 88/350/22
f 88/350/35 103/347/35 124/348/35
f 131/351/22 132/352/22 136/353/22
f 132/352/22 87/354/22 136/353/22
f 87/354/22 88/350/22 142/349/22
f 136/353/22 87/354/22 139/355/22
f 136/353/22 151/353/22 131/351/22
f 102/356/35 135/357/35 139/355/35
f 135/357/22 136/353/22 139/355/22
f 92/358/22 99/359/22 128/290/22
f 99/359/22 102/356/22 108/360/22
f 128/290/22 99/359/22 107/290/22
f 128/290/22 143/290/22 91/361/22
f 91/361/22 92/358/22 128/290/22
f 128/290/22 107/290/22 127/362/22
f 87/354/22 142/349/22 139/355/22
f 139/355/22 108/360/22 102/356/22
f 107/290/22 119/363/22 114/288/22
f 119/363/22 118/364/22 148/364/22
f 108/360/22 107/290/22 99/359/22
f 127/362/35 107/290/35 115/289/35
f 148/364/22 114/288/22 119/363/22
f 122/292/11 150/365/11 113/366/11
f 112/291/11 147/291/11 126/292/11
f 122/292/11 113/366/11 112/291/11
usemtl wood_black
f 69/34/8 34/35/8 67/36/8
f 53/51/8 36/52/8 69/53/8
f 83/54/8 6/55/8 10/56/8
f 107/63/8 14/64/8 4/65/8
f 109/66/8 77/67/8 110/68/8
f 6/79/8 79/80/8 118/81/8
f 29/84/8 124/85/8 123/86/8
f 67/87/8 126/88/8 125/89/8
f 48/90/8 44/91/8 33/92/8
f 49/122/8 140/123/8 141/124/8
f 29/125/8 139/126/8 142/127/8
f 69/34/8 36/199/8 34/35/8
f 53/51/8 18/207/8 36/52/8
f 83/54/8 79/209/8 6/55/8
f 14/64/8 108/211/8 139/212/8
f 49/213/8 110/214/8 77/67/8
f 77/222/8 109/223/8 121/224/8
f 4/225/8 119/226/8 107/227/8
f 34/229/8 123/86/8 150/230/8
f 18/231/8 53/232/8 33/92/8
f 53/232/8 48/90/8 33/92/8
f 48/90/8 46/233/8 44/91/8
f 44/91/8 42/234/8 33/92/8
f 124/278/8 29/125/8 142/127/8
f 64/279/8 140/123/8 49/122/8
f 107/63/8 108/211/8 14/64/8
f 79/80/8 77/222/8 120/295/8
f 77/222/8 121/296/8 120/295/8
f 118/81/8 119/226/8 6/79/8
f 79/80/8 120/295/8 118/81/8
f 125/89/8 64/297/8 67/87/8
f 67/87/8 122/298/8 126/88/8
f 29/125/8 14/299/8 139/126/8
f 49/213/8 141/308/8 110/214/8
f 4/225/8 6/79/8 119/226/8
f 150/230/8 122/310/8 34/229/8
f 122/310/8 67/87/8 34/229/8
f 34/229/8 29/84/8 123/86/8
f 64/279/8 125/317/8 140/123/8
