# Blender 4.0.2
# www.blender.org
mtllib tiled_wall_roof_5500_frame_win_600x600.mtl
o tiled_wall_roof_5500_frame_win_600x600
v 0.094938 0.250000 -2.379267
v 0.094938 0.250000 2.379267
v 0.024938 0.250000 -2.379267
v 0.024938 0.250000 2.379267
v 0.094938 0.200000 -2.438855
v 0.094938 0.200000 2.438855
v 0.024938 0.200000 -2.438855
v 0.024938 0.200000 2.438855
v 0.094938 2.225465 0.025000
v 0.094938 0.250000 2.379267
v 0.024938 2.225465 0.025000
v 0.024938 0.250000 2.379267
v 0.094938 2.160195 0.025000
v 0.094938 0.250000 2.301481
v 0.024938 2.160195 0.025000
v 0.024938 0.250000 2.301481
v 0.024938 0.250000 -2.301481
v 0.024938 2.160195 -0.025000
v 0.094938 0.250000 -2.301481
v 0.094938 2.160195 -0.025000
v 0.024938 0.250000 -2.379267
v 0.024938 2.225465 -0.025000
v 0.094938 0.250000 -2.379267
v 0.094938 2.225465 -0.025000
v 0.094938 2.225465 0.025000
v 0.094938 1.536877 0.025000
v 0.024938 2.225465 0.025000
v 0.024938 1.536877 0.025000
v 0.094938 2.225465 -0.025000
v 0.094938 1.536877 -0.025000
v 0.024938 2.225465 -0.025000
v 0.024938 1.536877 -0.025000
v 0.024938 0.250000 -2.225000
v 0.024938 0.314175 -2.225000
v 0.094938 0.250000 -2.225000
v 0.094938 0.314175 -2.224999
v 0.024938 0.250000 -2.175000
v 0.024938 0.356130 -2.175000
v 0.094938 0.250000 -2.175000
v 0.094938 0.356130 -2.175000
v 0.024938 0.250000 -1.675000
v 0.024938 0.775681 -1.675000
v 0.094938 0.250000 -1.675000
v 0.094938 0.775681 -1.674999
v 0.024938 0.250000 -1.625000
v 0.024938 0.817635 -1.625000
v 0.094938 0.250000 -1.625000
v 0.094938 0.817635 -1.625000
v 0.024938 0.250000 -1.125000
v 0.024938 1.237185 -1.125000
v 0.094938 0.250000 -1.125000
v 0.094938 1.237185 -1.125000
v 0.024938 0.250000 -1.075000
v 0.024938 1.279140 -1.075000
v 0.094938 0.250000 -1.075000
v 0.094938 1.279140 -1.075000
v 0.024938 0.250000 -0.719658
v 0.024938 1.577308 -0.719658
v 0.094938 0.250000 -0.719658
v 0.094938 1.577308 -0.719658
v 0.024938 0.250000 -0.669658
v 0.024938 1.619262 -0.669658
v 0.094938 0.250000 -0.669658
v 0.094938 1.619262 -0.669658
v 0.094938 1.619262 0.669658
v 0.094938 0.250000 0.669658
v 0.024938 1.619262 0.669658
v 0.024938 0.250000 0.669658
v 0.094938 1.577308 0.719658
v 0.094938 0.250000 0.719658
v 0.024938 1.577308 0.719658
v 0.024938 0.250000 0.719658
v 0.094938 1.279140 1.075000
v 0.094938 0.250000 1.075000
v 0.024938 1.279140 1.075000
v 0.024938 0.250000 1.075000
v 0.094938 1.237185 1.125000
v 0.094938 0.250000 1.125000
v 0.024938 1.237185 1.125000
v 0.024938 0.250000 1.125000
v 0.094938 0.817635 1.625000
v 0.094938 0.250000 1.625000
v 0.024938 0.817635 1.625000
v 0.024938 0.250000 1.625000
v 0.094938 0.775681 1.674999
v 0.094938 0.250000 1.675000
v 0.024938 0.775681 1.675000
v 0.024938 0.250000 1.675000
v 0.094938 0.356130 2.175000
v 0.094938 0.250000 2.175000
v 0.024938 0.356130 2.175000
v 0.024938 0.250000 2.175000
v 0.094938 0.314175 2.224999
v 0.094938 0.250000 2.225000
v 0.024938 0.314175 2.225000
v 0.024938 0.250000 2.225000
v 0.094938 1.486877 0.320000
v 0.094938 1.486877 -0.320000
v 0.024938 1.486877 0.320000
v 0.024938 1.486877 -0.320000
v 0.094938 1.536877 0.320000
v 0.094938 1.536877 -0.320000
v 0.024938 1.536877 0.320000
v 0.024938 1.536877 -0.320000
v 0.094938 1.870705 0.370000
v 0.094938 0.250000 0.370000
v 0.024938 1.870705 0.370000
v 0.024938 0.250000 0.370000
v 0.094938 1.912660 0.320000
v 0.094938 0.250000 0.320000
v 0.024938 1.912660 0.320000
v 0.024938 0.250000 0.320000
v 0.094938 1.870705 -0.370000
v 0.094938 0.250000 -0.370000
v 0.024938 1.870705 -0.370000
v 0.024938 0.250000 -0.370000
v 0.094938 1.912660 -0.320000
v 0.094938 0.250000 -0.320000
v 0.024938 1.912660 -0.320000
v 0.024938 0.250000 -0.320000
v 0.094938 0.786877 0.320000
v 0.094938 0.786877 -0.320000
v 0.024938 0.786877 0.320000
v 0.024938 0.786877 -0.320000
v 0.094938 0.836877 0.320000
v 0.094938 0.836877 -0.320000
v 0.024938 0.836877 0.320000
v 0.024938 0.836877 -0.320000
v 0.094938 0.786877 0.025000
v 0.094938 0.250000 0.025000
v 0.024938 0.786877 0.025000
v 0.024938 0.250000 0.025000
v 0.094938 0.786877 -0.025000
v 0.094938 0.250000 -0.025000
v 0.024938 0.786877 -0.025000
v 0.024938 0.250000 -0.025000
vn -0.0000 1.0000 -0.0000
vn -0.0000 -1.0000 -0.0000
vn -0.0000 0.7660 -0.6428
vn -1.0000 -0.0000 -0.0000
vn 1.0000 -0.0000 -0.0000
vn -0.0000 0.7660 0.6428
vn -0.0000 -0.7660 -0.6428
vn -0.0000 -0.0000 -1.0000
vn -0.0000 -0.7660 0.6428
vn -0.0000 -0.0000 1.0000
vt 2.231413 0.869281
vt 0.512937 0.869281
vt 0.512938 0.892157
vt 2.231413 0.892157
vt 2.250883 0.915033
vt 2.250884 0.892157
vt 0.493464 0.892157
vt 0.493464 0.915033
vt 0.369282 0.394019
vt 0.369281 0.410359
vt 0.392157 0.410358
vt 0.392157 0.394019
vt 0.012938 0.743692
vt -0.006535 0.760033
vt 1.750886 0.760029
vt 1.731415 0.743690
vt -0.744485 0.782907
vt -0.763956 0.799247
vt 0.993464 0.799247
vt 0.973992 0.782907
vt 0.392156 0.377677
vt 0.392156 0.394017
vt 0.415032 0.394017
vt 0.415032 0.377677
vt 1.926122 0.869281
vt 1.156754 0.869281
vt 1.156755 0.892157
vt 1.926123 0.892157
vt 1.900700 0.915033
vt 1.900701 0.892157
vt 1.156754 0.892158
vt 1.156753 0.915034
vt 0.369316 -0.590698
vt 0.369316 -0.578430
vt 0.392191 -0.578426
vt 0.392192 -0.590695
vt 0.857033 0.386524
vt 0.870745 0.402866
vt 1.841913 0.402915
vt 1.861384 0.386574
vt -0.874447 0.425857
vt -0.854975 0.442197
vt 0.116141 0.442166
vt 0.129850 0.425825
vt 0.392151 0.482047
vt 0.392151 0.494888
vt 0.415026 0.494883
vt 0.415026 0.482043
vt -0.079237 1.183344
vt -0.079237 1.183344
vt -0.102113 1.183344
vt -0.124989 1.167003
vt -0.102113 1.167004
vt -0.102113 1.167003
vt -0.124989 1.167003
vt 1.365060 0.172292
vt 1.365038 0.195167
vt 0.691958 0.683389
vt 0.691953 0.667045
vt 0.466916 0.667031
vt 0.466919 0.683375
vt 0.427688 -0.090431
vt 0.427686 -0.074089
vt 0.652715 -0.074095
vt 0.652717 -0.090438
vt -0.376010 0.195157
vt -0.376005 0.195156
vt -0.375990 0.218033
vt -0.376030 0.218035
vt 0.007321 -1.512079
vt 0.007331 -1.528422
vt 0.096852 -1.528437
vt 0.110570 -1.512093
vt -0.079237 1.183344
vt -0.079237 1.183344
vt 0.149732 2.105127
vt 0.136016 2.121481
vt 0.046489 2.121431
vt 0.046482 2.105097
vt -0.124991 1.167003
vt -0.102115 1.167004
vt -0.102116 1.167004
vt -0.124991 1.167003
vt -0.377993 0.195282
vt -0.378016 0.195286
vt -0.378012 0.218160
vt -0.377986 0.218160
vt 1.365059 0.172291
vt 1.365061 0.172293
vt 1.365038 0.195165
vt 1.365038 0.195166
vt 0.007270 -1.152609
vt 0.007276 -1.168948
vt 0.247619 -1.168961
vt 0.261331 -1.152617
vt -0.079237 1.183344
vt -0.102113 1.183344
vt 0.300544 1.745622
vt 0.286838 1.761961
vt 0.046483 1.761947
vt 0.046478 1.745609
vt -0.124991 1.167003
vt -0.102115 1.167004
vt -0.102115 1.167003
vt -0.124991 1.167003
vt -0.377494 0.195249
vt -0.377509 0.195250
vt -0.377520 0.218131
vt -0.377494 0.218128
vt 1.365060 0.172292
vt 1.365060 0.172291
vt 1.365038 0.195166
vt 0.007228 -0.793107
vt 0.007230 -0.809448
vt 0.398394 -0.809461
vt 0.412102 -0.793121
vt 0.451342 1.386106
vt 0.437632 1.402448
vt 0.046447 1.402422
vt 0.046446 1.386083
vt -0.124990 1.167003
vt -0.102114 1.167004
vt -0.102114 1.167003
vt -0.124990 1.167003
vt -0.376992 0.195220
vt -0.377015 0.195221
vt -0.377019 0.218098
vt -0.377000 0.218098
vt 1.365061 0.172291
vt 1.365060 0.172292
vt 1.365039 0.195166
vt 1.365039 0.195167
vt -0.124989 1.167003
vt -0.102113 1.167004
vt -0.102114 1.167003
vt -0.124989 1.167003
vt -0.079237 1.183344
vt 0.561799 1.073870
vt 0.547636 1.090212
vt 0.047086 1.090176
vt 0.046749 1.073832
vt 0.007524 -0.480873
vt 0.007858 -0.497215
vt 0.508383 -0.497239
vt 0.522545 -0.480898
vt -0.376559 0.195193
vt -0.376582 0.195195
vt -0.376584 0.218071
vt -0.376561 0.218069
vt 1.365059 0.172290
vt 1.365059 0.172290
vt 1.365038 0.195165
vt 1.365038 0.195165
vt -0.079237 1.183344
vt -0.124989 1.167003
vt -0.102113 1.167004
vt 1.365060 0.172292
vt 1.365060 0.172292
vt 1.365040 0.195167
vt 1.365041 0.195167
vt 0.450600 0.779804
vt 0.466941 0.779805
vt 0.466901 0.570610
vt 0.450560 0.570609
vt 0.411335 0.022331
vt 0.427674 0.022330
vt 0.427700 -0.186850
vt 0.411360 -0.186849
vt -0.375562 0.195128
vt -0.375562 0.195128
vt -0.375563 0.218005
vt -0.375563 0.218006
vt -0.079237 1.183344
vt -0.124989 1.167003
vt -0.102113 1.167004
vt -0.102113 1.167003
vt -0.124989 1.167003
vt 1.365062 0.172293
vt 1.365062 0.172293
vt 1.365040 0.195167
vt 1.365040 0.195167
vt 0.576042 0.796152
vt 0.589750 0.779810
vt 0.046363 0.779770
vt 0.046365 0.796112
vt 0.007153 -0.203175
vt 0.007151 -0.186833
vt 0.550507 -0.186856
vt 0.536797 -0.203198
vt -0.376174 0.195167
vt -0.376151 0.195166
vt -0.376157 0.218043
vt -0.376179 0.218044
vt 1.365067 0.172293
vt 1.365067 0.172293
vt 1.365047 0.195168
vt 1.365046 0.195168
vt 0.221827 0.779784
vt 0.238168 0.779785
vt 0.238129 0.570591
vt 0.221788 0.570589
vt 0.182579 0.022336
vt 0.198919 0.022335
vt 0.198944 -0.186844
vt 0.182604 -0.186844
vt -0.375562 0.195129
vt -0.375562 0.195129
vt -0.375563 0.218007
vt -0.375563 0.218007
vt -0.079237 1.183345
vt -0.079237 1.183344
vt -0.102113 1.183344
vt -0.102113 1.183344
vt -0.124989 1.167003
vt -0.102113 1.167003
vt -0.102113 1.167003
vt -0.124989 1.167003
vt 0.221811 0.683360
vt 0.221807 0.667017
vt 0.046350 0.667006
vt 0.046354 0.683350
vt 0.007139 -0.090420
vt 0.007137 -0.074078
vt 0.182587 -0.074082
vt 0.182589 -0.090425
s 0
usemtl wood.001
f 2/1/1 1/2/1 3/3/1 4/4/1
f 6/5/2 8/6/2 7/7/2 5/8/2
f 1/9/3 5/10/3 7/11/3 3/12/3
f 3/13/4 7/14/4 8/15/4 4/16/4
f 2/17/5 6/18/5 5/19/5 1/20/5
f 4/21/6 8/22/6 6/23/6 2/24/6
f 10/25/6 9/26/6 11/27/6 12/28/6
f 14/29/7 16/30/7 15/31/7 13/32/7
f 9/33/8 13/34/8 15/35/8 11/36/8
f 11/37/4 15/38/4 16/39/4 12/40/4
f 10/41/5 14/42/5 13/43/5 9/44/5
f 12/45/2 16/46/2 14/47/2 10/48/2
f 23/41/5 24/44/5 20/43/5 19/42/5
f 23/25/3 21/28/3 22/27/3 24/26/3
f 22/37/4 21/40/4 17/39/4 18/38/4
f 19/29/9 20/32/9 18/31/9 17/30/9
f 21/45/2 23/48/2 19/47/2 17/46/2
f 24/33/10 22/36/10 18/35/10 20/34/10
f 26/49/10 25/50/10 27/51/10 28/51/10
f 30/52/8 32/53/8 31/54/8 29/55/8
f 25/56/1 29/56/1 31/57/1 27/57/1
f 27/58/4 31/59/4 32/60/4 28/61/4
f 26/62/5 30/63/5 29/64/5 25/65/5
f 28/66/2 32/67/2 30/68/2 26/69/2
f 39/70/5 35/71/5 36/72/5 40/73/5
f 39/74/10 40/75/10 38/51/10 37/51/10
f 38/76/4 34/77/4 33/78/4 37/79/4
f 35/80/8 33/81/8 34/82/8 36/83/8
f 37/84/2 33/85/2 35/86/2 39/87/2
f 40/88/3 36/89/3 34/90/3 38/91/3
f 47/92/5 43/93/5 44/94/5 48/95/5
f 47/74/10 48/96/10 46/97/10 45/51/10
f 46/98/4 42/99/4 41/100/4 45/101/4
f 43/102/8 41/103/8 42/104/8 44/105/8
f 45/106/2 41/107/2 43/108/2 47/109/2
f 48/110/3 44/111/3 42/91/3 46/112/3
f 55/113/5 51/114/5 52/115/5 56/116/5
f 55/74/10 56/96/10 54/51/10 53/51/10
f 54/117/4 50/118/4 49/119/4 53/120/4
f 51/121/8 49/122/8 50/123/8 52/124/8
f 53/125/2 49/126/2 51/127/2 55/128/2
f 56/129/3 52/130/3 50/131/3 54/132/3
f 59/133/8 57/134/8 58/135/8 60/136/8
f 63/74/10 64/137/10 62/51/10 61/51/10
f 62/138/4 58/139/4 57/140/4 61/141/4
f 63/142/5 59/143/5 60/144/5 64/145/5
f 61/146/2 57/147/2 59/148/2 63/149/2
f 64/150/3 60/151/3 58/152/3 62/153/3
f 66/74/8 68/51/8 67/51/8 65/137/8
f 70/133/10 69/136/10 71/135/10 72/134/10
f 65/150/6 67/153/6 71/152/6 69/151/6
f 67/138/4 68/141/4 72/140/4 71/139/4
f 66/142/5 65/145/5 69/144/5 70/143/5
f 68/146/2 66/149/2 70/148/2 72/147/2
f 74/74/8 76/51/8 75/51/8 73/96/8
f 78/121/10 77/124/10 79/123/10 80/122/10
f 73/129/6 75/132/6 79/131/6 77/130/6
f 75/117/4 76/120/4 80/119/4 79/118/4
f 74/113/5 73/116/5 77/115/5 78/114/5
f 76/125/2 74/128/2 78/127/2 80/126/2
f 82/74/8 84/51/8 83/97/8 81/96/8
f 86/102/10 85/105/10 87/104/10 88/103/10
f 81/110/6 83/112/6 87/91/6 85/111/6
f 83/98/4 84/101/4 88/100/4 87/99/4
f 82/92/5 81/95/5 85/94/5 86/93/5
f 84/106/2 82/109/2 86/108/2 88/107/2
f 90/74/8 92/51/8 91/51/8 89/75/8
f 94/80/10 93/83/10 95/82/10 96/81/10
f 89/88/6 91/91/6 95/90/6 93/89/6
f 91/76/4 92/79/4 96/78/4 95/77/4
f 90/70/5 89/73/5 93/72/5 94/71/5
f 92/84/2 90/87/2 94/86/2 96/85/2
f 98/154/2 97/154/2 99/51/2 100/51/2
f 102/155/1 104/156/1 103/156/1 101/155/1
f 97/157/10 101/158/10 103/159/10 99/160/10
f 99/161/4 103/162/4 104/163/4 100/164/4
f 98/165/5 102/166/5 101/167/5 97/168/5
f 100/169/8 104/170/8 102/171/8 98/172/8
f 106/74/10 105/173/10 107/51/10 108/51/10
f 110/174/8 112/175/8 111/176/8 109/177/8
f 105/178/6 109/179/6 111/180/6 107/181/6
f 107/182/4 111/183/4 112/184/4 108/185/4
f 106/186/5 110/187/5 109/188/5 105/189/5
f 108/190/2 112/191/2 110/192/2 106/193/2
f 114/74/8 116/51/8 115/51/8 113/173/8
f 118/174/10 117/177/10 119/176/10 120/175/10
f 113/178/3 115/181/3 119/180/3 117/179/3
f 115/182/4 116/185/4 120/184/4 119/183/4
f 114/186/5 113/189/5 117/188/5 118/187/5
f 116/190/2 114/193/2 118/192/2 120/191/2
f 122/154/2 121/154/2 123/51/2 124/51/2
f 126/155/1 128/156/1 127/156/1 125/155/1
f 121/194/10 125/195/10 127/196/10 123/197/10
f 123/198/4 127/199/4 128/200/4 124/201/4
f 122/202/5 126/203/5 125/204/5 121/205/5
f 124/206/8 128/207/8 126/208/8 122/209/8
f 130/210/10 129/211/10 131/212/10 132/213/10
f 134/214/8 136/215/8 135/216/8 133/217/8
f 129/56/1 133/56/1 135/57/1 131/57/1
f 131/218/4 135/219/4 136/220/4 132/221/4
f 130/222/5 134/223/5 133/224/5 129/225/5
f 132/66/2 136/67/2 134/68/2 130/69/2
