# Blender 4.0.2
# www.blender.org
mtllib garage_door_frame.mtl
o garage_door_frame
v -1.245000 0.402000 -0.002000
v -1.247000 0.402000 -0.000000
v -1.247000 0.400000 -0.002000
v -1.247000 0.400000 -0.113000
v -1.247000 0.402000 -0.115000
v -1.245000 0.402000 -0.113000
v -1.245000 2.198000 -0.113000
v -1.247000 2.198000 -0.115000
v -1.247000 2.200000 -0.113000
v -1.247000 2.198000 -0.000000
v -1.245000 2.198000 -0.002000
v -1.247000 2.200000 -0.002000
v -1.268000 0.400000 -0.002000
v -1.268000 0.402000 -0.000000
v -1.270000 0.402000 -0.002000
v -1.270000 2.198000 -0.002000
v -1.268000 2.198000 -0.000000
v -1.268000 2.200000 -0.002000
v -1.268000 0.400000 -0.113000
v -1.270000 0.402000 -0.113000
v -1.268000 0.402000 -0.115000
v -1.268000 2.198000 -0.115000
v -1.270000 2.198000 -0.113000
v -1.268000 2.200000 -0.113000
v 1.245000 0.402000 -0.113000
v 1.247000 0.402000 -0.115000
v 1.247000 0.400000 -0.113000
v 1.247000 0.400000 -0.002000
v 1.247000 0.402000 0.000000
v 1.245000 0.402000 -0.002000
v 1.245000 2.198000 -0.002000
v 1.247000 2.198000 0.000000
v 1.247000 2.200000 -0.002000
v 1.247000 2.198000 -0.115000
v 1.245000 2.198000 -0.113000
v 1.247000 2.200000 -0.113000
v 1.268000 0.400000 -0.113000
v 1.268000 0.402000 -0.115000
v 1.270000 0.402000 -0.113000
v 1.270000 2.198000 -0.113000
v 1.268000 2.198000 -0.115000
v 1.268000 2.200000 -0.113000
v 1.268000 0.400000 -0.002000
v 1.270000 0.402000 -0.002000
v 1.268000 0.402000 0.000000
v 1.268000 2.198000 0.000000
v 1.270000 2.198000 -0.002000
v 1.268000 2.200000 -0.002000
vn -0.0000 -1.0000 -0.0000
vn -1.0000 -0.0000 -0.0000
vn -0.0000 -0.0000 -1.0000
vn -0.0000 1.0000 -0.0000
vn -0.0000 -0.0000 1.0000
vn 1.0000 -0.0000 -0.0000
vn 0.5774 -0.5774 0.5773
vn 0.5774 -0.5774 -0.5773
vn 0.5774 0.5773 -0.5774
vn 0.5773 0.5773 0.5774
vn -0.5773 -0.5773 0.5774
vn -0.5773 0.5773 0.5774
vn -0.5773 -0.5773 -0.5774
vn -0.5773 0.5773 -0.5774
vn -0.5774 -0.5774 -0.5773
vn -0.5774 -0.5774 0.5773
vn -0.5774 0.5773 0.5774
vn -0.5774 0.5773 -0.5774
vn 0.5773 -0.5773 -0.5774
vn 0.5773 0.5773 -0.5774
vn 0.5773 -0.5773 0.5774
vn 0.7071 -0.7071 -0.0000
vn 0.7071 -0.0000 -0.7071
vn -0.0000 -0.7071 0.7071
vn -0.0000 -0.7071 -0.7071
vn -0.0000 0.7071 -0.7071
vn -0.7071 0.7071 -0.0000
vn 0.7071 -0.0000 0.7071
vn -0.7071 -0.0000 -0.7071
vn 0.7071 0.7071 -0.0000
vn -0.0000 0.7071 0.7071
vn -0.7071 -0.0000 0.7071
vn -0.7071 -0.7071 -0.0000
vt 0.375836 0.151791
vt 0.406922 0.151791
vt 0.406922 0.157672
vt 0.375836 0.157672
vt 0.000560 0.000560
vt 0.503542 0.000560
vt 0.503542 0.031646
vt 0.000560 0.031646
vt 0.000560 0.129386
vt 0.503542 0.129386
vt 0.503542 0.135267
vt 0.000560 0.135267
vt 0.503542 0.150390
vt 0.503542 0.156272
vt 0.472455 0.156272
vt 0.472456 0.150390
vt 0.000560 0.133587
vt 0.503542 0.133587
vt 0.503542 0.139468
vt 0.000560 0.139468
vt 0.000560 0.032767
vt 0.503542 0.032767
vt 0.503542 0.063853
vt 0.000560 0.063853
vt 0.000560 0.064973
vt 0.503542 0.064973
vt 0.503542 0.096059
vt 0.000560 0.096059
vt 0.000560 0.140588
vt 0.503542 0.140588
vt 0.503542 0.146470
vt 0.000560 0.146470
vt 0.408042 0.157672
vt 0.408042 0.151791
vt 0.439129 0.151791
vt 0.439129 0.157672
vt 0.000560 0.144789
vt 0.503542 0.144789
vt 0.503542 0.150670
vt 0.000560 0.150670
vt 0.000560 0.097180
vt 0.503542 0.097180
vt 0.503542 0.128266
vt 0.000560 0.128266
vt 0.000560 0.064413
vt 0.000000 0.063853
vt 0.440249 0.150390
vt 0.439689 0.150390
vt 0.440249 0.149830
vt 0.503542 0.032207
vt 0.504102 0.032767
vt 0.503542 0.064413
vt 0.504102 0.063853
vt 0.471335 0.156272
vt 0.471895 0.156272
vt 0.471335 0.156832
vt 0.503542 0.000000
vt 0.504102 0.000560
vt 0.440249 0.156272
vt 0.440249 0.156832
vt 0.439689 0.156272
vt 0.504102 0.031646
vt 0.000560 0.128826
vt 0.000000 0.128266
vt 0.000000 0.146470
vt 0.000560 0.147030
vt 0.503542 0.096620
vt 0.504102 0.097180
vt 0.503542 0.128826
vt 0.504102 0.128266
vt 0.375276 0.151791
vt 0.375836 0.151231
vt 0.504102 0.064973
vt 0.000000 0.096059
vt 0.000560 0.096620
vt 0.503542 0.096620
vt 0.504102 0.096059
vt 0.471335 0.150390
vt 0.471335 0.149830
vt 0.000560 0.032207
vt 0.471895 0.150390
vt 0.504102 0.129386
vt 0.504102 0.135267
vt 0.000560 0.032207
vt 0.000560 0.000000
vt 0.000000 0.097180
vt 0.000560 0.096620
vt 0.375276 0.157672
vt 0.000000 0.140588
vt 0.407482 0.157672
vt 0.407482 0.151791
vt 0.439129 0.158232
vt 0.408042 0.158232
vt 0.439689 0.151791
vt 0.439689 0.157672
vt 0.000560 0.064413
vt 0.000000 0.064973
s 0
usemtl wood
f 37/1/1 43/2/1 28/3/1 27/4/1
f 15/5/2 16/6/2 23/7/2 20/8/2
f 21/9/3 22/10/3 8/11/3 5/12/3
f 9/13/4 24/14/4 18/15/4 12/16/4
f 2/17/5 10/18/5 17/19/5 14/20/5
f 6/21/6 7/22/6 11/23/6 1/24/6
f 39/25/6 40/26/6 47/27/6 44/28/6
f 45/29/5 46/30/5 32/31/5 29/32/5
f 33/33/4 48/34/4 42/35/4 36/36/4
f 26/37/3 34/38/3 41/39/3 38/40/3
f 30/41/2 31/42/2 35/43/2 25/44/2
f 1/24/7 2/45/7 3/46/7
f 4/47/8 5/48/8 6/49/8
f 7/22/9 8/50/9 9/51/9
f 10/52/10 11/23/10 12/53/10
f 13/54/11 14/55/11 15/56/11
f 16/6/12 17/57/12 18/58/12
f 19/59/13 20/60/13 21/61/13
f 22/50/14 23/7/14 24/62/14
f 25/44/15 26/63/15 27/64/15
f 28/65/16 29/32/16 30/66/16
f 31/42/17 32/67/17 33/68/17
f 34/69/18 35/43/18 36/70/18
f 37/1/19 38/71/19 39/72/19
f 40/26/20 41/52/20 42/73/20
f 43/74/21 44/28/21 45/75/21
f 46/76/10 47/27/10 48/77/10
f 3/78/22 4/47/22 6/49/22 1/79/22
f 5/80/23 8/50/23 7/22/23 6/21/23
f 2/81/24 14/55/24 13/54/24 3/78/24
f 4/47/25 19/59/25 21/61/25 5/48/25
f 8/11/26 22/10/26 24/82/26 9/83/26
f 18/58/27 24/62/27 23/7/27 16/6/27
f 1/24/28 11/23/28 10/52/28 2/45/28
f 20/8/29 23/7/29 22/50/29 21/84/29
f 9/51/30 12/53/30 11/23/30 7/22/30
f 12/16/31 18/15/31 17/55/31 10/81/31
f 14/85/32 17/57/32 16/6/32 15/5/32
f 15/56/33 20/60/33 19/59/33 13/54/33
f 27/64/33 28/86/33 30/41/33 25/44/33
f 29/87/32 32/67/32 31/42/32 30/41/32
f 26/88/25 38/71/25 37/1/25 27/4/25
f 28/65/24 43/89/24 45/29/24 29/32/24
f 32/90/31 46/91/31 48/34/31 33/33/31
f 42/73/30 48/77/30 47/27/30 40/26/30
f 25/44/29 35/43/29 34/69/29 26/63/29
f 44/28/28 47/27/28 46/76/28 45/75/28
f 33/33/27 36/36/27 35/92/27 31/93/27
f 36/36/26 42/35/26 41/94/26 34/95/26
f 38/96/23 41/52/23 40/26/23 39/25/23
f 39/25/22 44/28/22 43/74/22 37/97/22
f 13/54/1 19/59/1 4/47/1 3/78/1
