# Blender 4.0.2
# www.blender.org
mtllib double_door_wood_cadre.mtl
o double_door_wood_cadre
v 1.268000 2.200000 -0.145500
v 1.270000 2.198000 -0.145500
v 1.268000 2.198000 -0.147500
v -1.267999 2.198000 -0.147500
v -1.269999 2.198000 -0.145500
v -1.267999 2.200000 -0.145500
v -1.267999 2.200000 -0.004500
v -1.269999 2.198000 -0.004500
v -1.267999 2.198000 -0.002500
v 1.270000 2.198000 -0.004500
v 1.268000 2.200000 -0.004500
v 1.268000 2.198000 -0.002500
v 1.268000 2.172000 -0.147500
v 1.270000 2.172000 -0.145500
v 1.268000 2.170000 -0.145500
v 1.268000 2.172000 -0.002500
v 1.268000 2.170000 -0.004500
v 1.270000 2.172000 -0.004500
v -1.269999 2.172000 -0.145500
v -1.267999 2.172000 -0.147500
v -1.267999 2.170000 -0.145500
v -1.269999 2.172000 -0.004500
v -1.267999 2.170000 -0.004500
v -1.267999 2.172000 -0.002500
v -1.270000 0.402020 -0.145500
v -1.268000 0.402020 -0.147500
v -1.268000 0.400020 -0.145500
v -1.268000 0.400020 -0.004500
v -1.268000 0.402020 -0.002500
v -1.270000 0.402020 -0.004500
v -1.270000 2.168000 -0.004500
v -1.268000 2.168000 -0.002500
v -1.268000 2.170000 -0.004500
v -1.268000 2.168000 -0.147500
v -1.270000 2.168000 -0.145500
v -1.268000 2.170000 -0.145500
v -1.252000 0.400020 -0.145500
v -1.252000 0.402020 -0.147500
v -1.245000 0.402020 -0.145500
v -1.245000 2.168000 -0.145500
v -1.252000 2.168000 -0.147500
v -1.252000 2.170000 -0.145500
v -1.252000 0.400020 -0.004500
v -1.245000 0.402020 -0.004500
v -1.252000 0.402020 -0.002500
v -1.252000 2.168000 -0.002500
v -1.245000 2.168000 -0.004500
v -1.252000 2.170000 -0.004500
v 1.245000 0.402020 -0.145500
v 1.252000 0.402020 -0.147500
v 1.252000 0.400020 -0.145500
v 1.252000 0.400020 -0.004500
v 1.252000 0.402020 -0.002500
v 1.245000 0.402020 -0.004500
v 1.245000 2.168000 -0.004500
v 1.252000 2.168000 -0.002500
v 1.252000 2.170000 -0.004500
v 1.252000 2.168000 -0.147500
v 1.245000 2.168000 -0.145500
v 1.252000 2.170000 -0.145500
v 1.268000 0.400020 -0.145500
v 1.268000 0.402020 -0.147500
v 1.270000 0.402020 -0.145500
v 1.270000 2.168000 -0.145500
v 1.268000 2.168000 -0.147500
v 1.268000 2.170000 -0.145500
v 1.268000 0.400020 -0.004500
v 1.270000 0.402020 -0.004500
v 1.268000 0.402020 -0.002500
v 1.268000 2.168000 -0.002500
v 1.270000 2.168000 -0.004500
v 1.268000 2.170000 -0.004500
vn -1.0000 -0.0000 -0.0000
vn -0.0000 -0.0000 1.0000
vn 1.0000 -0.0000 -0.0000
vn -0.0000 -1.0000 -0.0000
vn -0.0000 -0.0000 -1.0000
vn -0.0000 1.0000 -0.0000
vn 0.5773 0.5773 -0.5774
vn -0.5774 0.5773 -0.5774
vn -0.5774 0.5773 0.5774
vn 0.5773 0.5773 0.5774
vn 0.5773 -0.5773 -0.5774
vn 0.5773 -0.5773 0.5774
vn -0.5774 -0.5773 -0.5774
vn -0.5774 -0.5773 0.5774
vn 0.1980 -0.6931 -0.6931
vn 0.1980 0.6931 -0.6931
vn 0.1980 -0.6931 0.6931
vn 0.1980 0.6931 0.6931
vn -0.1980 -0.6931 -0.6931
vn -0.1980 -0.6931 0.6931
vn -0.1980 0.6931 0.6931
vn -0.1980 0.6931 -0.6931
vn -0.0000 0.7071 -0.7071
vn -0.7072 0.7071 -0.0000
vn 0.7071 -0.0000 -0.7071
vn -0.7071 -0.0000 0.7071
vn 0.7071 0.7071 -0.0000
vn -0.0000 0.7071 0.7071
vn -0.7071 -0.0000 -0.7071
vn 0.7071 -0.0000 0.7071
vn 0.7071 -0.7071 -0.0000
vn -0.0000 -0.7071 -0.7071
vn -0.0000 -0.7071 0.7071
vn -0.7072 -0.7071 -0.0000
vn -0.7071 -0.7071 -0.0000
vn 0.2747 0.9615 -0.0000
vn 0.2747 -0.0000 0.9615
vn 0.2747 -0.0000 -0.9615
vn 0.2747 -0.9615 -0.0000
vn -0.2747 -0.9615 -0.0000
vn -0.2747 -0.0000 0.9615
vn -0.2747 -0.0000 -0.9615
vn -0.2747 0.9615 -0.0000
vt 0.300777 0.103778
vt 0.269444 0.103778
vt 0.269444 0.098000
vt 0.300778 0.098000
vt 0.995111 0.062444
vt 0.995111 0.068222
vt 0.431556 0.068222
vt 0.431556 0.062444
vt 0.280556 0.042667
vt 0.311890 0.042667
vt 0.311890 0.048444
vt 0.280556 0.048444
vt 0.995111 0.021444
vt 0.995111 0.052778
vt 0.431556 0.052778
vt 0.431556 0.021444
vt 0.403778 0.115778
vt 0.435111 0.115778
vt 0.435111 0.119334
vt 0.403778 0.119334
vt 0.431556 0.075778
vt 0.995111 0.075778
vt 0.995111 0.081556
vt 0.431556 0.081556
vt 0.394889 0.053778
vt 0.426222 0.053778
vt 0.426222 0.057333
vt 0.394889 0.057333
vt 0.065782 0.444686
vt 0.458222 0.444686
vt 0.458222 0.476019
vt 0.065782 0.476019
vt 0.135338 0.802405
vt 0.527778 0.802405
vt 0.527778 0.805960
vt 0.135338 0.805960
vt 0.403928 0.114890
vt 0.403928 0.111334
vt 0.435113 0.111334
vt 0.435113 0.114890
vt 0.072449 0.709646
vt 0.464889 0.709646
vt 0.464889 0.713202
vt 0.072449 0.713202
vt 0.065782 0.476908
vt 0.458222 0.476908
vt 0.458222 0.508241
vt 0.065782 0.508241
vt 0.065782 0.509130
vt 0.458222 0.509130
vt 0.458222 0.540463
vt 0.065782 0.540463
vt 0.072449 0.705202
vt 0.464889 0.705201
vt 0.464889 0.708757
vt 0.072449 0.708757
vt 0.395011 0.052889
vt 0.395011 0.049333
vt 0.426224 0.049333
vt 0.426224 0.052889
vt 0.065782 0.569130
vt 0.458222 0.569130
vt 0.458222 0.572686
vt 0.065782 0.572686
vt 0.065782 0.541352
vt 0.458222 0.541352
vt 0.458222 0.572686
vt 0.065782 0.572686
vt 0.995112 0.083780
vt 0.995556 0.083780
vt 0.995112 0.084208
vt 0.431111 0.075778
vt 0.431556 0.075334
vt 0.431556 0.053657
vt 0.431111 0.053657
vt 0.431556 0.053222
vt 0.995556 0.053650
vt 0.995111 0.053650
vt 0.995111 0.053222
vt 0.995555 0.081556
vt 0.995111 0.082000
vt 0.431556 0.068667
vt 0.431111 0.068222
vt 0.431111 0.081556
vt 0.431556 0.082000
vt 0.431111 0.052778
vt 0.431556 0.053222
vt 0.065782 0.508686
vt 0.065338 0.508241
vt 0.435555 0.119334
vt 0.435111 0.119778
vt 0.458222 0.476463
vt 0.458667 0.476908
vt 0.458222 0.508686
vt 0.458667 0.508241
vt 0.403333 0.115778
vt 0.404148 0.114593
vt 0.457852 0.445056
vt 0.458222 0.444241
vt 0.458667 0.444686
vt 0.434741 0.114593
vt 0.435555 0.115778
vt 0.458222 0.476463
vt 0.457852 0.475648
vt 0.458667 0.476019
vt 0.066153 0.572315
vt 0.065782 0.573130
vt 0.065338 0.572686
vt 0.072005 0.708757
vt 0.072820 0.709942
vt 0.457852 0.541723
vt 0.458222 0.540908
vt 0.458667 0.541352
vt 0.458222 0.573130
vt 0.457852 0.572315
vt 0.458667 0.572686
vt 0.394444 0.053778
vt 0.394889 0.053333
vt 0.458222 0.508686
vt 0.458667 0.509130
vt 0.065338 0.540463
vt 0.065782 0.540908
vt 0.458222 0.540908
vt 0.458667 0.540463
vt 0.431567 0.084773
vt 0.431567 0.084338
vt 0.431123 0.084339
vt 0.995555 0.075778
vt 0.995555 0.062444
vt 0.995555 0.068222
vt 0.431111 0.062444
vt 0.995555 0.021444
vt 0.995555 0.052778
vt 0.995111 0.068667
vt 0.431111 0.021444
vt 0.403778 0.119778
vt 0.065782 0.476463
vt 0.403333 0.119334
vt 0.403486 0.114890
vt 0.403486 0.111334
vt 0.457667 0.476019
vt 0.457667 0.444686
vt 0.065782 0.475464
vt 0.458222 0.475463
vt 0.065782 0.476463
vt 0.435113 0.115334
vt 0.403928 0.115334
vt 0.435555 0.111334
vt 0.435555 0.114890
vt 0.065782 0.444241
vt 0.458222 0.445241
vt 0.065782 0.445241
vt 0.403778 0.114778
vt 0.435111 0.114778
vt 0.065338 0.541352
vt 0.066338 0.541352
vt 0.066338 0.572685
vt 0.065782 0.540908
vt 0.458222 0.541908
vt 0.065782 0.541908
vt 0.394444 0.057333
vt 0.072005 0.705202
vt 0.394569 0.052889
vt 0.394569 0.049333
vt 0.065782 0.572130
vt 0.458222 0.572130
vt 0.426224 0.053889
vt 0.395011 0.053889
vt 0.426667 0.049333
vt 0.426667 0.052889
vt 0.065782 0.508686
vt 0.065338 0.509130
s 0
usemtl wood
f 19/1/1 22/2/1 8/3/1 5/4/1
f 9/5/2 24/6/2 16/7/2 12/8/2
f 2/9/3 10/10/3 18/11/3 14/12/3
f 15/13/4 17/14/4 23/15/4 21/16/4
f 37/17/4 43/18/4 28/19/4 27/20/4
f 4/21/5 3/22/5 13/23/5 20/24/5
f 61/25/4 67/26/4 52/27/4 51/28/4
f 39/29/3 40/30/3 47/31/3 44/32/3
f 45/33/2 46/34/2 32/35/2 29/36/2
f 33/37/6 48/38/6 42/39/6 36/40/6
f 26/41/5 34/42/5 41/43/5 38/44/5
f 30/45/1 31/46/1 35/47/1 25/48/1
f 63/49/3 64/50/3 71/51/3 68/52/3
f 69/53/2 70/54/2 56/55/2 53/56/2
f 57/57/6 72/58/6 66/59/6 60/60/6
f 50/61/5 58/62/5 65/63/5 62/64/5
f 54/65/1 55/66/1 59/67/1 49/68/1
f 1/69/7 2/70/7 3/71/7
f 4/21/8 5/72/8 6/73/8
f 7/74/9 8/75/9 9/76/9
f 10/77/10 11/78/10 12/79/10
f 13/23/11 14/80/11 15/81/11
f 16/7/12 17/82/12 18/83/12
f 19/84/13 20/24/13 21/85/13
f 22/86/14 23/15/14 24/87/14
f 25/48/13 26/88/13 27/89/13
f 28/19/14 29/90/14 30/91/14
f 31/46/9 32/92/9 33/93/9
f 34/94/8 35/47/8 36/95/8
f 37/17/15 38/96/15 39/97/15
f 40/98/16 41/99/16 42/100/16
f 43/18/17 44/101/17 45/102/17
f 46/103/18 47/104/18 48/105/18
f 49/106/19 50/107/19 51/108/19
f 52/109/20 53/56/20 54/110/20
f 55/111/21 56/112/21 57/113/21
f 58/114/22 59/115/22 60/116/22
f 61/25/11 62/117/11 63/118/11
f 64/50/7 65/119/7 66/120/7
f 67/121/12 68/52/12 69/122/12
f 70/123/10 71/51/10 72/124/10
f 3/71/23 4/125/23 6/126/23 1/69/23
f 5/127/24 8/75/24 7/74/24 6/126/24
f 2/128/25 14/80/25 13/23/25 3/22/25
f 8/129/26 22/130/26 24/6/26 9/5/26
f 1/69/27 11/78/27 10/77/27 2/70/27
f 9/76/28 12/79/28 11/78/28 7/74/28
f 4/21/29 20/24/29 19/84/29 5/72/29
f 12/8/30 16/7/30 18/83/30 10/131/30
f 14/132/31 18/133/31 17/14/31 15/13/31
f 15/81/32 21/85/32 20/24/32 13/23/32
f 16/7/33 24/6/33 23/134/33 17/82/33
f 21/16/34 23/15/34 22/86/34 19/135/34
f 27/20/35 28/19/35 30/91/35 25/136/35
f 29/137/26 32/92/26 31/46/26 30/45/26
f 26/138/32 38/96/32 37/17/32 27/20/32
f 28/19/33 43/18/33 45/102/33 29/90/33
f 32/139/28 46/140/28 48/38/28 33/37/28
f 42/100/36 48/105/36 47/141/36 40/142/36
f 25/48/29 35/47/29 34/94/29 26/88/29
f 44/143/37 47/144/37 46/103/37 45/145/37
f 33/37/24 36/40/24 35/146/24 31/147/24
f 36/40/23 42/39/23 41/148/23 34/149/23
f 38/150/38 41/99/38 40/151/38 39/152/38
f 39/153/39 44/154/39 43/18/39 37/17/39
f 51/108/40 52/155/40 54/156/40 49/157/40
f 53/158/41 56/112/41 55/159/41 54/160/41
f 50/161/32 62/117/32 61/25/32 51/28/32
f 52/109/33 67/162/33 69/53/33 53/56/33
f 56/163/28 70/164/28 72/58/28 57/57/28
f 66/120/27 72/124/27 71/51/27 64/50/27
f 49/165/42 59/166/42 58/114/42 50/107/42
f 68/52/30 71/51/30 70/123/30 69/122/30
f 57/57/43 60/60/43 59/167/43 55/168/43
f 60/60/23 66/59/23 65/169/23 58/170/23
f 62/171/25 65/119/25 64/50/25 63/49/25
f 63/49/31 68/52/31 67/121/31 61/172/31
f 6/126/6 7/74/6 11/78/6 1/69/6
