# Blender 4.0.2
# www.blender.org
mtllib isolated_plate_wall_roof_4000_win_600x600.mtl
o isolated_plate_wall_roof_4000_win_600x600
v 0.011276 0.559207 1.133171
v 0.000000 0.380993 1.345561
v 0.000000 0.200992 1.560078
v 0.024937 0.560000 1.132226
v 0.011276 0.379207 1.347689
v 0.024937 0.380000 1.346743
v 0.024937 0.740000 0.917708
v 0.000000 0.560993 1.131043
v 0.000937 0.560000 1.132226
v 0.000937 0.200000 1.561261
v 0.000000 0.740993 0.916525
v 0.024938 0.200000 1.561261
v 0.010527 0.560000 1.132226
v 0.011276 0.739207 0.918653
v 0.010527 0.380000 1.346744
v 0.000937 0.920001 0.703191
v 0.010527 0.920001 0.703191
v 0.010527 0.740000 0.917708
v 0.000937 0.740000 0.917708
v 0.024937 0.920001 0.703190
v 0.000937 0.380000 1.346744
v 0.011276 0.919207 0.704136
v 0.000000 0.920993 0.702007
v 0.000937 1.460001 0.059638
v 0.010527 1.460001 0.059638
v 0.011276 1.459208 0.060583
v 0.024937 1.460001 0.059637
v 0.000000 1.460993 0.058455
v 0.000000 1.280993 0.272972
v 0.024937 1.510042 0.000000
v 0.011276 1.099207 0.489618
v 0.011276 1.279207 0.275100
v 0.000937 1.100000 0.488673
v 0.010527 1.100000 0.488673
v 0.003103 1.510042 0.000000
v 0.024937 1.100000 0.488673
v 0.000000 1.100993 0.487490
v 0.024937 1.280000 0.274155
v 0.010527 1.280000 0.274155
v 0.000937 1.280000 0.274155
v 0.011276 0.559207 -1.133170
v 0.024937 0.560000 -1.132226
v 0.024937 0.740000 -0.917708
v 0.000937 1.460001 -0.059637
v 0.010527 1.460001 -0.059637
v 0.000000 0.560993 -1.131043
v 0.011276 1.459208 -0.060582
v 0.000937 0.560000 -1.132226
v 0.024937 1.460001 -0.059637
v 0.000000 1.460993 -0.058455
v 0.000000 1.280993 -0.272972
v 0.000000 0.740993 -0.916525
v 0.010527 0.560000 -1.132226
v 0.011276 0.739207 -0.918653
v 0.000937 0.920000 -0.703190
v 0.010527 0.920000 -0.703190
v 0.011276 1.099207 -0.489618
v 0.011276 1.279207 -0.275100
v 0.010527 0.740000 -0.917708
v 0.000937 0.740000 -0.917708
v 0.024937 0.920000 -0.703190
v 0.000937 1.100000 -0.488672
v 0.010527 1.100000 -0.488672
v 0.024937 1.100000 -0.488673
v 0.000000 1.100993 -0.487490
v 0.024937 1.280000 -0.274155
v 0.011276 0.919207 -0.704135
v 0.010527 1.280000 -0.274155
v 0.000937 1.280000 -0.274155
v 0.000000 0.920993 -0.702007
v 0.000000 0.380993 -1.345561
v 0.000000 0.200993 -1.560078
v 0.011276 0.379207 -1.347689
v 0.024937 0.380000 -1.346744
v 0.000937 0.200000 -1.561261
v 0.024938 0.200000 -1.561261
v 0.010527 0.380000 -1.346743
v 0.000937 0.380000 -1.346743
v 0.024937 1.060000 -0.320000
v 0.024937 0.920000 0.320000
v 0.024937 1.060000 0.320000
v 0.024937 0.920000 -0.320000
v 0.024937 0.740000 0.320000
v 0.024937 0.740000 -0.320000
v 0.010527 0.560000 0.320000
v 0.010527 0.560000 -0.320000
v 0.000937 0.560000 0.320000
v 0.000937 0.560000 -0.320000
v 0.011276 0.919207 0.320000
v 0.011276 0.919207 -0.320000
v 0.010527 0.920000 -0.320000
v 0.010527 0.920000 0.320000
v 0.000937 0.920000 0.320000
v 0.000937 0.920000 -0.320000
v 0.024937 0.560000 0.320000
v 0.024937 0.560000 -0.320000
v 0.024937 0.420000 0.320000
v 0.024937 0.420000 -0.320000
v 0.000937 0.740000 0.320000
v 0.000937 0.740000 -0.320000
v 0.000000 0.740993 -0.320000
v 0.000000 0.740993 0.320000
v 0.011276 0.739207 0.320000
v 0.011276 0.739207 -0.320000
v 0.010527 0.740000 -0.320000
v 0.010527 0.740000 0.320000
v 0.002468 0.420000 0.320000
v 0.002468 0.420000 -0.320000
v 0.011276 0.559207 -0.320000
v 0.011276 0.559207 0.320000
v 0.000000 0.920993 0.320000
v 0.000000 0.920993 -0.320000
v 0.008795 1.060000 -0.320000
v 0.008795 1.060000 0.320000
v 0.000000 0.560993 0.320000
v 0.000000 0.560993 -0.320000
vn -0.7271 -0.6865 -0.0000
vn 1.0000 -0.0000 -0.0000
vn -0.9980 0.0631 -0.0000
vn -0.0000 -1.0000 -0.0000
vn -0.0000 0.7660 -0.6428
vn -0.7272 -0.6864 -0.0000
vn -0.0000 0.7660 0.6428
vn -0.7271 -0.6866 -0.0000
vn -0.7270 -0.6866 -0.0000
vn -0.7272 -0.6865 -0.0000
vn -0.0000 -0.0000 1.0000
vn -0.0000 1.0000 -0.0000
vn -0.0000 -0.0000 -1.0000
vn -0.0000 0.7660 -0.6429
vn -0.0000 0.7661 -0.6427
vn -0.0000 0.7659 -0.6429
vn -0.0000 0.7659 -0.6430
vn -0.0000 0.7661 -0.6428
vn -0.0000 0.7659 0.6429
vn -0.0000 0.7661 0.6427
vn -0.0000 0.7662 0.6426
vn -0.0000 0.7660 0.6429
vn -0.0000 0.7663 0.6425
vn -0.0000 0.7659 0.6430
vn -0.0000 0.7663 0.6424
vn -0.7273 -0.6863 -0.0000
vn -0.0000 0.0001 1.0000
vn -0.0000 0.0001 -1.0000
vt 0.478878 1.135734
vt 1.320246 1.133942
vt 1.319951 1.135734
vt 0.746824 1.726355
vt 1.052014 1.726355
vt 0.799495 1.739068
vt 0.917667 0.744956
vt 0.899414 0.760217
vt 0.881161 0.744956
vt 0.478878 0.164515
vt 1.319951 0.167494
vt 0.478878 0.167494
vt 1.324131 2.598219
vt 1.324520 2.593911
vt 1.236201 2.593911
vt 1.119000 1.339151
vt 0.999344 1.396360
vt 0.999343 1.339151
vt 0.679838 1.339150
vt 0.799495 1.396360
vt 0.612852 1.396360
vt 0.880792 0.743167
vt 0.813807 0.578689
vt 0.984653 0.580478
vt 0.814176 0.580478
vt 1.252965 0.989884
vt 0.999339 0.986906
vt 1.252965 0.986906
vt 0.545864 0.989884
vt 0.799491 0.986906
vt 0.799491 0.989884
vt 0.478583 1.133942
vt 1.386567 1.078402
vt 1.118993 0.719958
vt 0.999338 0.718169
vt 1.119289 0.718169
vt 0.679834 0.719958
vt 0.799490 0.718169
vt 0.799490 0.719958
vt -1.631860 1.925276
vt -1.544418 1.928832
vt -1.543931 1.920967
vt 0.813807 0.575711
vt 0.985023 0.578689
vt 0.746820 0.966675
vt 1.052303 0.964886
vt 1.052008 0.966675
vt 0.813810 2.248210
vt 0.918042 2.191000
vt 0.985028 2.248210
vt 0.747190 0.333761
vt 0.985317 0.389213
vt 0.813511 0.389213
vt 1.118994 0.907645
vt 0.999339 0.904667
vt 1.118994 0.904667
vt 0.679836 0.904667
vt 0.799491 0.907645
vt 0.679836 0.907645
vt 0.411894 1.069145
vt 1.386937 1.076610
vt 0.411893 1.076610
vt 0.746820 0.331972
vt 1.051639 0.333761
vt 0.813811 1.803796
vt 1.052014 1.861005
vt 0.746824 1.861005
vt 0.799495 2.158055
vt 0.999343 2.158055
vt 1.319958 2.170768
vt 0.411894 1.706124
vt 1.319958 1.648914
vt 1.386944 1.706124
vt 1.185610 0.662717
vt 0.999339 0.660928
vt 1.185980 0.660928
vt 0.613219 0.662717
vt 0.799491 0.660928
vt 0.799490 0.662717
vt 1.185979 1.048914
vt 0.999338 1.047125
vt 1.186275 1.047125
vt 0.612849 1.048914
vt 0.799491 1.047125
vt 0.799490 1.048914
vt 0.479247 0.169282
vt 1.319581 0.169282
vt 0.799490 0.181420
vt 0.880796 2.403091
vt 0.899419 2.387187
vt 0.918042 2.403091
vt 0.880791 0.637718
vt 0.918332 0.635930
vt 0.918036 0.637718
vt 0.880497 0.635930
vt 1.252965 0.226523
vt 0.999338 0.224734
vt 1.253260 0.224734
vt 0.545863 0.226523
vt 0.799490 0.224734
vt 0.799490 0.226523
vt 0.813806 0.391001
vt 0.985022 0.391001
vt 0.999338 0.657950
vt 1.185980 0.657950
vt 0.612850 0.660928
vt 0.799491 0.657950
vt 1.185986 1.958677
vt 0.999343 2.015887
vt 0.999344 1.958678
vt 0.799495 2.015887
vt 0.612852 1.958678
vt 0.799495 1.958678
vt 0.746525 0.964886
vt 0.999338 0.952686
vt 0.999338 0.662717
vt 0.679540 0.718169
vt 0.999338 0.991673
vt 1.252595 0.991673
vt 0.612554 1.047125
vt 0.799490 0.991673
vt 0.880792 0.740189
vt 0.918037 0.743167
vt 0.412262 1.078402
vt 1.118624 0.909434
vt 0.999339 0.907645
vt 0.680204 0.909434
vt 0.799490 0.909434
vt 0.746820 0.328994
vt 1.052008 0.331972
vt 0.999339 0.989884
vt 0.546233 0.991673
vt 0.799491 0.989884
vt 0.799490 0.991673
vt 0.000000 0.800220
vt 0.000000 0.850000
vt 0.106372 0.888889
vt 0.100130 0.888889
vt 0.166667 0.750000
vt 0.166667 0.799780
vt 0.273038 0.888889
vt 0.268554 0.888889
vt 0.799495 1.783565
vt 0.679838 1.783565
vt 1.119000 1.783565
vt 0.999344 1.783565
vt 0.999343 1.739068
vt 1.319951 0.164516
vt 1.412838 2.598455
vt 1.412838 2.601480
vt 1.413325 2.601776
vt 1.412838 2.593911
vt 1.500767 2.598219
vt 1.324520 2.601480
vt 1.325007 2.601776
vt 1.324520 2.598455
vt 1.412449 2.598220
vt 1.501156 2.598456
vt 1.501156 2.601480
vt 1.501643 2.601776
vt 1.501156 2.593911
vt 1.589085 2.598220
vt 1.589474 2.598455
vt 1.589474 2.601480
vt 1.589961 2.601776
vt 1.589474 2.593911
vt 1.677403 2.598219
vt 1.677793 2.598455
vt 1.677793 2.601480
vt 1.678279 2.601776
vt 1.677793 2.593911
vt 1.765722 2.598219
vt 1.766111 2.598455
vt 1.766111 2.601480
vt 1.766598 2.601776
vt 1.790664 2.600797
vt 1.766111 2.593911
vt 1.790664 2.593911
vt 1.236202 2.601480
vt 1.236689 2.601776
vt 1.236202 2.598456
vt 1.235812 2.598220
vt 1.147883 2.601480
vt 1.148370 2.601776
vt 1.147883 2.593911
vt 1.185986 1.396360
vt 0.799495 1.339150
vt 0.999338 0.989884
vt 0.545865 0.986906
vt 0.999338 0.719958
vt -2.010075 1.927853
vt -1.986009 1.928832
vt -1.985522 1.925512
vt -1.985522 1.928536
vt -1.985522 1.920967
vt -2.010075 1.920967
vt -1.720567 1.920967
vt -1.808885 1.920967
vt -1.808496 1.925276
vt -1.897204 1.920967
vt -1.896815 1.925276
vt -1.897204 1.925512
vt -1.985133 1.925276
vt -1.897691 1.928832
vt -1.897204 1.928536
vt -1.809373 1.928832
vt -1.808885 1.928536
vt -1.808885 1.925512
vt -1.632249 1.920967
vt -1.720178 1.925276
vt -1.367294 1.920967
vt -1.455613 1.920967
vt -1.455223 1.925276
vt -1.543542 1.925276
vt -1.455612 1.925512
vt -1.721054 1.928832
vt -1.720567 1.925512
vt -1.367294 1.928537
vt -1.367781 1.928832
vt -1.456100 1.928832
vt -1.455612 1.928536
vt -1.720567 1.928537
vt -1.543931 1.928536
vt -1.543931 1.925512
vt -1.632736 1.928832
vt -1.632249 1.928536
vt -1.632249 1.925512
vt 0.985023 0.575711
vt 0.880796 2.191000
vt 0.799491 0.904667
vt 1.386937 1.069145
vt 0.985028 1.803796
vt 0.999343 2.113559
vt 1.252972 2.113559
vt 0.478880 2.170768
vt 0.545866 2.113559
vt 0.799495 2.113559
vt 0.478880 1.648914
vt 0.999338 0.662717
vt 0.999337 1.048914
vt 0.545568 0.224734
vt 0.999338 0.181420
vt 0.999338 0.224734
vt 0.999338 0.226523
vt 0.612850 0.657950
vt 1.252972 2.015887
vt 0.545866 2.015887
vt 0.999338 0.909434
vt 0.799491 0.952686
vt 0.999338 1.047125
vt 0.918037 0.740189
vt 1.052008 0.328994
vt 0.999338 0.991673
vt -0.000000 0.749724
vt -0.000000 0.750000
vt -0.000000 0.750220
vt -0.000000 0.799724
vt 0.000000 0.800000
vt -0.000000 0.711111
vt -0.000000 0.750000
vt -0.000000 0.800000
vt 0.083333 0.888889
vt 0.000000 0.850220
vt 0.000000 0.849724
vt 0.106372 0.888889
vt 0.166667 0.800000
vt 0.166667 0.800276
vt 0.166667 0.849780
vt 0.166667 0.850000
vt 0.166667 0.850276
vt 0.250000 0.888889
vt 0.166667 0.800000
vt 0.166667 0.850000
vt 0.166667 0.711111
vt 0.166667 0.749780
vt 0.166667 0.750276
vt 0.273038 0.888889
s 0
usemtl wood
f 77/1/1 5/2/1 15/3/1
f 64/4/2 36/5/2 79/6/2
f 28/7/3 35/8/3 50/9/3
f 77/10/4 21/11/4 78/12/4
f 41/13/5 42/14/5 74/15/5
f 20/16/2 83/17/2 80/18/2
f 61/19/2 84/20/2 43/21/2
f 44/22/6 28/7/6 50/9/6
f 69/23/6 29/24/6 51/25/6
f 9/26/4 85/27/4 13/28/4
f 48/29/4 86/30/4 88/31/4
f 73/32/3 3/33/3 5/2/3
f 17/34/6 89/35/6 22/36/6
f 56/37/1 90/38/1 91/39/1
f 14/40/7 8/41/7 4/42/7
f 68/43/4 40/44/4 69/23/4
f 63/45/8 31/46/8 34/47/8
f 66/48/2 27/49/2 38/50/2
f 65/51/3 32/52/3 58/53/3
f 16/54/4 92/55/4 17/56/4
f 56/57/4 94/58/4 55/59/4
f 76/60/4 10/61/4 75/62/4
f 62/63/1 37/64/1 65/51/1
f 66/65/2 36/66/2 64/67/2
f 98/68/2 97/69/2 6/70/2
f 76/71/2 6/72/2 12/73/2
f 11/74/6 99/75/6 19/76/6
f 52/77/1 100/78/1 101/79/1
f 18/80/9 103/81/9 14/82/9
f 59/83/1 104/84/1 105/85/1
f 71/86/3 2/87/3 108/88/3
f 49/89/2 30/90/2 27/91/2
f 45/92/8 26/93/8 25/94/8
f 47/95/3 29/24/3 26/93/3
f 13/96/1 110/97/1 1/98/1
f 53/99/9 109/100/9 86/101/9
f 68/102/1 32/52/1 39/103/1
f 19/76/4 106/104/4 18/105/4
f 60/106/4 105/107/4 100/78/4
f 7/108/2 95/109/2 83/110/2
f 96/111/2 43/112/2 84/113/2
f 31/46/3 57/114/3 114/115/3
f 78/12/6 2/87/6 71/86/6
f 22/36/3 102/116/3 11/74/3
f 67/117/3 101/79/3 90/38/3
f 14/82/3 115/118/3 8/119/3
f 54/120/3 116/121/3 104/84/3
f 45/122/4 24/123/4 44/22/4
f 75/62/10 3/33/10 72/124/10
f 23/125/1 93/126/1 16/54/1
f 70/127/6 94/58/6 112/128/6
f 63/129/4 33/130/4 62/63/4
f 8/119/10 87/131/10 9/26/10
f 46/132/10 88/133/10 116/134/10
f 104/135/11 86/136/11 96/136/11
f 97/137/12 108/138/12 107/138/12
f 95/139/13 85/139/13 103/140/13
f 79/141/4 114/142/4 113/142/4
f 77/1/1 73/32/1 5/2/1
f 82/143/2 61/144/2 64/4/2
f 36/5/2 20/145/2 80/146/2
f 36/5/2 80/146/2 81/147/2
f 79/6/2 82/143/2 64/4/2
f 36/5/2 81/147/2 79/6/2
f 77/10/4 15/148/4 21/11/4
f 59/149/14 60/150/14 52/151/14
f 59/149/5 52/151/5 43/152/5
f 52/151/5 67/153/5 43/152/5
f 48/154/5 46/155/5 53/156/5
f 46/155/5 54/157/5 42/14/5
f 53/156/5 46/155/5 42/14/5
f 54/157/15 59/149/15 43/152/15
f 56/158/16 55/159/16 70/160/16
f 56/158/17 70/160/17 61/161/17
f 70/160/5 57/162/5 61/161/5
f 63/163/5 62/164/5 65/165/5
f 67/153/15 56/158/15 61/161/15
f 63/163/16 65/165/16 64/166/16
f 65/165/5 58/167/5 64/166/5
f 57/162/15 63/163/15 64/166/15
f 68/168/18 69/169/18 51/170/18
f 68/168/18 51/170/18 66/171/18
f 51/170/5 47/172/5 66/171/5
f 45/173/14 44/174/14 50/175/14
f 58/167/18 68/168/18 66/171/18
f 45/173/5 50/175/5 35/176/5
f 66/171/5 47/172/5 49/177/5
f 47/172/18 45/173/18 49/177/18
f 45/173/5 35/176/5 30/178/5
f 49/177/5 45/173/5 30/178/5
f 66/171/5 64/166/5 58/167/5
f 64/166/5 61/161/5 57/162/5
f 67/153/5 61/161/5 43/152/5
f 41/13/16 53/156/16 42/14/16
f 78/179/14 71/180/14 77/181/14
f 71/180/5 41/13/5 74/15/5
f 77/181/17 71/180/17 74/15/17
f 54/157/5 43/152/5 42/14/5
f 73/182/5 77/181/5 74/15/5
f 75/183/5 72/184/5 76/185/5
f 72/184/5 73/182/5 76/185/5
f 74/15/5 76/185/5 73/182/5
f 20/16/2 7/186/2 83/17/2
f 61/19/2 82/187/2 84/20/2
f 44/22/6 24/123/6 28/7/6
f 69/23/1 40/44/1 29/24/1
f 9/26/4 87/188/4 85/27/4
f 48/29/4 53/189/4 86/30/4
f 73/32/3 72/124/3 3/33/3
f 17/34/1 92/190/1 89/35/1
f 56/37/1 67/117/1 90/38/1
f 35/191/7 28/192/7 25/193/7
f 28/192/7 24/194/7 25/193/7
f 27/195/7 30/196/7 25/193/7
f 30/196/7 35/191/7 25/193/7
f 20/197/7 36/198/7 31/199/7
f 36/198/7 38/200/7 32/201/7
f 32/201/19 38/200/19 39/202/19
f 26/203/7 29/204/7 38/200/7
f 29/204/20 40/205/20 39/202/20
f 27/195/7 25/193/7 26/203/7
f 38/200/7 27/195/7 26/203/7
f 29/204/20 39/202/20 38/200/20
f 32/201/7 37/206/7 36/198/7
f 37/206/21 33/207/21 34/208/21
f 7/209/7 20/197/7 22/210/7
f 31/199/19 36/198/19 34/208/19
f 12/211/7 6/212/7 5/213/7
f 6/212/7 4/42/7 1/214/7
f 5/213/22 6/212/22 15/215/22
f 4/42/7 7/209/7 14/40/7
f 37/206/23 34/208/23 36/198/23
f 20/197/7 31/199/7 23/216/7
f 22/210/24 20/197/24 17/217/24
f 10/218/21 12/211/21 3/219/21
f 5/213/7 3/219/7 12/211/7
f 2/220/20 21/221/20 15/215/20
f 15/215/20 6/212/20 2/220/20
f 1/214/7 2/220/7 6/212/7
f 23/216/23 16/222/23 17/217/23
f 23/216/25 17/217/25 20/197/25
f 8/41/20 9/223/20 13/224/20
f 13/224/7 1/214/7 4/42/7
f 22/210/7 11/225/7 7/209/7
f 11/225/7 19/226/7 18/227/7
f 11/225/20 18/227/20 7/209/20
f 14/40/20 7/209/20 18/227/20
f 8/41/7 13/224/7 4/42/7
f 68/43/4 39/228/4 40/44/4
f 63/45/6 57/114/6 31/46/6
f 66/48/2 49/229/2 27/49/2
f 65/51/3 37/64/3 32/52/3
f 16/54/4 93/126/4 92/55/4
f 56/57/4 91/230/4 94/58/4
f 76/60/4 12/231/4 10/61/4
f 62/63/1 33/130/1 37/64/1
f 66/65/2 38/232/2 36/66/2
f 95/233/2 4/234/2 97/69/2
f 4/234/2 6/70/2 97/69/2
f 74/235/2 42/236/2 98/68/2
f 42/236/2 96/237/2 98/68/2
f 74/235/2 98/68/2 6/70/2
f 76/71/2 74/238/2 6/72/2
f 11/74/6 102/239/6 99/75/6
f 52/77/10 60/106/10 100/78/10
f 18/80/9 106/240/9 103/81/9
f 59/83/1 54/120/1 104/84/1
f 109/100/3 41/241/3 108/88/3
f 41/241/3 71/86/3 108/88/3
f 2/87/3 1/98/3 107/242/3
f 1/98/3 110/243/3 107/242/3
f 2/87/3 107/242/3 108/88/3
f 45/92/1 47/95/1 26/93/1
f 47/95/3 51/25/3 29/24/3
f 13/96/1 85/244/1 110/97/1
f 53/99/9 41/241/9 109/100/9
f 68/102/26 58/53/26 32/52/26
f 19/76/4 99/75/4 106/104/4
f 60/106/4 59/245/4 105/107/4
f 7/108/2 4/246/2 95/109/2
f 96/111/2 42/247/2 43/112/2
f 111/248/3 23/125/3 31/46/3
f 57/114/3 70/127/3 112/128/3
f 57/114/3 112/128/3 113/249/3
f 114/115/3 111/248/3 31/46/3
f 57/114/3 113/249/3 114/115/3
f 78/12/6 21/11/6 2/87/6
f 22/36/3 89/35/3 102/116/3
f 67/117/3 52/77/3 101/79/3
f 14/82/3 103/250/3 115/118/3
f 54/120/3 46/132/3 116/121/3
f 45/122/4 25/251/4 24/123/4
f 75/62/8 10/61/8 3/33/8
f 23/125/1 111/248/1 93/126/1
f 70/127/26 55/59/26 94/58/26
f 63/129/4 34/252/4 33/130/4
f 8/119/10 115/253/10 87/131/10
f 46/132/10 48/29/10 88/133/10
f 112/254/11 94/255/11 91/255/11
f 90/256/11 101/257/11 105/258/11
f 101/257/11 100/258/11 105/258/11
f 113/259/11 112/254/11 91/255/11
f 113/259/11 91/255/11 79/259/11
f 91/255/11 90/256/11 82/260/11
f 82/260/11 79/259/11 91/255/11
f 84/261/11 82/260/11 90/256/11
f 90/256/11 105/258/11 84/261/11
f 105/258/27 104/135/27 84/261/27
f 108/262/11 98/262/11 109/263/11
f 98/262/11 96/136/11 109/263/11
f 96/136/11 84/261/11 104/135/11
f 104/135/11 116/264/11 86/136/11
f 116/264/11 88/136/11 86/136/11
f 86/136/11 109/263/11 96/136/11
f 97/137/12 98/265/12 108/138/12
f 99/266/13 102/267/13 106/266/13
f 102/267/13 89/268/13 106/266/13
f 92/269/13 93/269/13 111/270/13
f 92/269/13 111/270/13 114/271/13
f 103/140/28 106/266/28 83/272/28
f 106/266/13 89/268/13 83/272/13
f 89/268/13 92/269/13 80/273/13
f 92/269/13 114/271/13 81/271/13
f 80/273/13 92/269/13 81/271/13
f 80/273/13 83/272/13 89/268/13
f 95/139/13 97/274/13 110/275/13
f 97/274/13 107/274/13 110/275/13
f 83/272/13 95/139/13 103/140/13
f 87/139/13 115/276/13 85/139/13
f 115/276/13 103/140/13 85/139/13
f 95/139/13 110/275/13 85/139/13
f 79/141/4 81/277/4 114/142/4
