# Blender 4.0.2
# www.blender.org
mtllib isolated_plate_wall_roof_4500_frame_win_600x600.mtl
o isolated_plate_wall_roof_4500_frame_win_600x600
v 0.094938 0.250000 -1.751674
v 0.094938 0.250000 1.751674
v 0.024938 0.250000 -1.751674
v 0.024938 0.250000 1.751674
v 0.094938 0.200000 -1.811262
v 0.094938 0.200000 1.811261
v 0.024938 0.200000 -1.811262
v 0.024938 0.200000 1.811261
v 0.094938 1.698851 0.025000
v 0.094938 0.250000 1.751674
v 0.024938 1.698851 0.025000
v 0.024938 0.250000 1.751674
v 0.094938 1.633581 0.025000
v 0.094938 0.250000 1.673888
v 0.024938 1.633581 0.025000
v 0.024938 0.250000 1.673888
v 0.094938 1.698851 0.025000
v 0.094938 1.190000 0.025000
v 0.024938 1.698851 0.025000
v 0.024938 1.190000 0.025000
v 0.094938 1.698851 -0.025000
v 0.094938 1.190000 -0.025000
v 0.024938 1.698851 -0.025000
v 0.024938 1.190000 -0.025000
v 0.094938 1.090135 0.672653
v 0.094938 0.250000 0.672653
v 0.024938 1.090135 0.672653
v 0.024938 0.250000 0.672653
v 0.094938 1.048181 0.722653
v 0.094938 0.250000 0.722653
v 0.024938 1.048181 0.722653
v 0.024938 0.250000 0.722653
v 0.094938 0.752526 1.075000
v 0.094938 0.250000 1.075000
v 0.024938 0.752526 1.075000
v 0.024938 0.250000 1.075000
v 0.094938 0.710571 1.125000
v 0.094938 0.250000 1.125000
v 0.024938 0.710571 1.125000
v 0.024938 0.250000 1.125000
v 0.094938 1.698851 -0.025000
v 0.094938 0.250000 -1.751674
v 0.024938 1.698851 -0.025000
v 0.024938 0.250000 -1.751674
v 0.094938 1.633581 -0.025000
v 0.094938 0.250000 -1.673888
v 0.024938 1.633581 -0.025000
v 0.024938 0.250000 -1.673888
v 0.094938 0.752526 -1.075000
v 0.094938 0.250000 -1.075000
v 0.024938 0.752526 -1.075000
v 0.024938 0.250000 -1.075000
v 0.094938 0.710571 -1.125000
v 0.094938 0.250000 -1.125000
v 0.024938 0.710571 -1.125000
v 0.024938 0.250000 -1.125000
v 0.024938 0.450000 0.320000
v 0.024938 0.450000 -0.320000
v 0.094938 0.450000 0.320000
v 0.094938 0.450001 -0.320000
v 0.024938 0.500000 0.320000
v 0.024938 0.500000 -0.320000
v 0.094938 0.500000 0.320000
v 0.094938 0.500000 -0.320000
v 0.094938 1.190000 -0.320000
v 0.094938 1.190000 0.320000
v 0.024938 1.190000 -0.320000
v 0.024938 1.190000 0.320000
v 0.094938 1.140000 -0.320000
v 0.094938 1.140000 0.320000
v 0.024938 1.140000 -0.320000
v 0.024938 1.140000 0.320000
v 0.094938 0.450000 0.025000
v 0.094938 0.250000 0.025000
v 0.024938 0.450000 0.025000
v 0.024938 0.250000 0.025000
v 0.094938 0.450000 -0.025000
v 0.094938 0.250000 -0.025000
v 0.024938 0.450000 -0.025000
v 0.024938 0.250000 -0.025000
v 0.094938 1.386047 0.320000
v 0.094938 0.250000 0.320000
v 0.024938 1.386047 0.320000
v 0.024938 0.250000 0.320000
v 0.094938 1.344092 0.369999
v 0.094938 0.250000 0.370000
v 0.024938 1.344092 0.370000
v 0.024938 0.250000 0.370000
v 0.094938 1.090135 -0.672653
v 0.094938 0.250000 -0.672653
v 0.024938 1.090135 -0.672653
v 0.024938 0.250000 -0.672653
v 0.094938 1.048181 -0.722653
v 0.094938 0.250000 -0.722653
v 0.024938 1.048181 -0.722653
v 0.024938 0.250000 -0.722653
v 0.094938 1.386047 -0.320000
v 0.094938 0.250000 -0.320000
v 0.024938 1.386047 -0.320000
v 0.024938 0.250000 -0.320000
v 0.094938 1.344092 -0.369999
v 0.094938 0.250000 -0.370000
v 0.024938 1.344092 -0.370000
v 0.024938 0.250000 -0.370000
vn -0.0000 1.0000 -0.0000
vn -0.0000 -1.0000 -0.0000
vn -0.0000 0.7660 -0.6428
vn -1.0000 -0.0000 -0.0000
vn 1.0000 -0.0000 -0.0000
vn -0.0000 0.7660 0.6428
vn -0.0000 -0.7660 -0.6428
vn -0.0000 -0.0000 -1.0000
vn -0.0000 -0.0000 1.0000
vn -0.0000 -0.7660 0.6428
vt 1.944617 0.869281
vt 0.799733 0.869281
vt 0.799733 0.892157
vt 1.944617 0.892157
vt 1.964087 0.915033
vt 1.964089 0.892157
vt 0.780259 0.892157
vt 0.780259 0.915033
vt 0.369283 0.252800
vt 0.369283 0.269140
vt 0.392159 0.269140
vt 0.392159 0.252800
vt 0.299734 0.743692
vt 0.280260 0.760032
vt 1.464090 0.760030
vt 1.444620 0.743690
vt -0.457689 0.782907
vt -0.477161 0.799247
vt 0.706669 0.799247
vt 0.687196 0.782907
vt 0.392155 0.236458
vt 0.392155 0.252798
vt 0.415031 0.252798
vt 0.415031 0.236458
vt 1.757824 0.869281
vt 1.193552 0.869282
vt 1.193552 0.892157
vt 1.757824 0.892157
vt 1.732402 0.915033
vt 1.732403 0.892157
vt 1.193551 0.892158
vt 1.193551 0.915034
vt 1.037815 -0.344264
vt 1.030409 -0.335440
vt 1.047930 -0.320733
vt 1.055336 -0.329557
vt 0.643634 0.079462
vt 0.657346 0.095805
vt 1.360769 0.095843
vt 1.380241 0.079502
vt -0.415495 0.101175
vt -0.396022 0.117516
vt 0.307378 0.117494
vt 0.321088 0.101153
vt 0.333998 0.513488
vt 0.324919 0.522568
vt 0.341097 0.538740
vt 0.350177 0.529660
vt 0.130719 1.380345
vt 0.130719 1.380345
vt 0.107843 1.380345
vt 0.084967 1.364004
vt 0.107843 1.364004
vt 0.107843 1.364004
vt 0.084967 1.364004
vt 1.575016 0.369293
vt 1.574994 0.392168
vt 0.729810 0.880379
vt 0.729806 0.864035
vt 0.563509 0.864025
vt 0.563512 0.880368
vt 0.524285 0.106573
vt 0.524283 0.122915
vt 0.690575 0.122910
vt 0.690577 0.106568
vt -0.166054 0.392158
vt -0.166049 0.392157
vt -0.166034 0.415033
vt -0.166074 0.415035
vt 0.130719 1.380345
vt 0.130719 1.380345
vt 0.084967 1.364004
vt 0.084967 1.364004
vt 0.107843 1.364004
vt 0.107843 1.364004
vt 1.575015 0.369288
vt 1.574994 0.392163
vt 1.574994 0.392163
vt 1.575015 0.369288
vt 0.530940 1.271832
vt 0.256368 1.271812
vt 0.256373 1.288155
vt 0.517233 1.288175
vt 0.217144 -0.284851
vt 0.491700 -0.284865
vt 0.477991 -0.301206
vt 0.217146 -0.301193
vt -0.166605 0.392194
vt -0.166607 0.415070
vt -0.166629 0.415072
vt -0.166627 0.392196
vt 0.130719 1.380345
vt 0.084966 1.364004
vt 0.084966 1.364004
vt 0.107842 1.364004
vt 0.107842 1.364004
vt 1.575014 0.369295
vt 1.574993 0.392169
vt 1.574992 0.392170
vt 1.575014 0.369295
vt 0.420635 1.583093
vt 0.256402 1.583084
vt 0.256403 1.599422
vt 0.406924 1.599433
vt 0.217184 -0.596106
vt 0.381408 -0.596112
vt 0.367699 -0.612453
vt 0.217186 -0.612448
vt -0.167036 0.392221
vt -0.167044 0.415098
vt -0.167063 0.415098
vt -0.167059 0.392222
vt 1.575011 0.369291
vt 1.575012 0.369291
vt 1.574991 0.392166
vt 1.574991 0.392166
vt -0.166522 0.392189
vt -0.166522 0.392189
vt -0.166525 0.415066
vt 0.084967 1.364004
vt 0.107843 1.364004
vt 0.470952 0.767598
vt 0.454609 0.767596
vt 0.454647 0.976788
vt 0.470988 0.976788
vt 0.431767 0.010153
vt 0.415427 0.010154
vt 0.415401 0.219334
vt 0.431742 0.219334
vt 1.575015 0.369292
vt 1.575015 0.369292
vt 1.574993 0.392167
vt 1.574993 0.392167
vt 0.696474 0.767612
vt 0.680132 0.767611
vt 0.680170 0.976803
vt 0.696513 0.976805
vt 0.657261 0.010149
vt 0.640921 0.010150
vt 0.640897 0.219330
vt 0.657237 0.219330
vt -0.166522 0.392188
vt -0.166522 0.392188
vt -0.166525 0.415065
vt -0.166525 0.415065
vt 0.107843 1.380345
vt 0.107843 1.380345
vt 0.084967 1.364004
vt 0.107843 1.364004
vt 0.107843 1.364004
vt 0.454644 0.880362
vt 0.454640 0.864019
vt 0.389278 0.864015
vt 0.389282 0.880359
vt 0.350061 0.106577
vt 0.350059 0.122919
vt 0.415419 0.122918
vt 0.415421 0.106575
vt 0.107843 1.380345
vt 0.084967 1.364004
vt 0.084967 1.364004
vt 0.107843 1.364004
vt 1.575015 0.369291
vt 1.574995 0.392166
vt 1.574995 0.392166
vt 1.575015 0.369290
vt 0.627622 1.156573
vt 0.256334 1.156541
vt 0.256339 1.172884
vt 0.613914 1.172915
vt 0.217130 -0.169591
vt 0.588386 -0.169609
vt 0.574678 -0.185950
vt 0.217132 -0.185933
vt -0.166447 0.392180
vt -0.166449 0.415057
vt -0.166471 0.415059
vt -0.166469 0.392182
s 0
usemtl wood.002
f 2/1/1 1/2/1 3/3/1 4/4/1
f 6/5/2 8/6/2 7/7/2 5/8/2
f 1/9/3 5/10/3 7/11/3 3/12/3
f 3/13/4 7/14/4 8/15/4 4/16/4
f 2/17/5 6/18/5 5/19/5 1/20/5
f 4/21/6 8/22/6 6/23/6 2/24/6
f 10/25/6 9/26/6 11/27/6 12/28/6
f 14/29/7 16/30/7 15/31/7 13/32/7
f 9/33/8 13/34/8 15/35/8 11/36/8
f 11/37/4 15/38/4 16/39/4 12/40/4
f 10/41/5 14/42/5 13/43/5 9/44/5
f 12/45/2 16/46/2 14/47/2 10/48/2
f 18/49/9 17/50/9 19/51/9 20/51/9
f 22/52/8 24/53/8 23/54/8 21/55/8
f 17/56/1 21/56/1 23/57/1 19/57/1
f 19/58/4 23/59/4 24/60/4 20/61/4
f 18/62/5 22/63/5 21/64/5 17/65/5
f 20/66/2 24/67/2 22/68/2 18/69/2
f 26/70/8 28/51/8 27/51/8 25/71/8
f 30/72/9 29/73/9 31/74/9 32/75/9
f 25/76/6 27/77/6 31/78/6 29/79/6
f 27/80/4 28/81/4 32/82/4 31/83/4
f 26/84/5 25/85/5 29/86/5 30/87/5
f 28/88/2 26/89/2 30/90/2 32/91/2
f 34/70/8 36/51/8 35/51/8 33/92/8
f 38/93/9 37/94/9 39/95/9 40/96/9
f 33/97/6 35/98/6 39/99/6 37/100/6
f 35/101/4 36/102/4 40/103/4 39/104/4
f 34/105/5 33/106/5 37/107/5 38/108/5
f 36/109/2 34/110/2 38/111/2 40/112/2
f 42/25/3 44/28/3 43/27/3 41/26/3
f 46/29/10 45/32/10 47/31/10 48/30/10
f 41/33/9 43/36/9 47/35/9 45/34/9
f 43/37/4 44/40/4 48/39/4 47/38/4
f 42/41/5 41/44/5 45/43/5 46/42/5
f 44/45/2 42/48/2 46/47/2 48/46/2
f 50/70/9 49/92/9 51/51/9 52/51/9
f 54/93/8 56/96/8 55/95/8 53/94/8
f 49/97/3 53/100/3 55/99/3 51/98/3
f 51/101/4 55/104/4 56/103/4 52/102/4
f 50/105/5 54/108/5 53/107/5 49/106/5
f 52/109/2 56/112/2 54/111/2 50/110/2
f 64/113/8 60/114/8 58/115/8 62/116/8
f 63/71/1 64/71/1 62/51/1 61/51/1
f 61/117/9 57/118/9 59/119/9 63/119/9
f 59/120/2 57/121/2 58/121/2 60/120/2
f 62/122/4 58/123/4 57/124/4 61/125/4
f 63/126/5 59/127/5 60/128/5 64/129/5
f 66/71/1 65/71/1 67/51/1 68/51/1
f 70/120/2 72/121/2 71/121/2 69/120/2
f 65/130/8 69/131/8 71/132/8 67/133/8
f 67/134/4 71/135/4 72/136/4 68/137/4
f 66/138/5 70/139/5 69/140/5 65/141/5
f 68/142/9 72/143/9 70/144/9 66/145/9
f 74/71/9 73/71/9 75/146/9 76/147/9
f 78/148/8 80/149/8 79/150/8 77/148/8
f 73/56/1 77/56/1 79/57/1 75/57/1
f 75/151/4 79/152/4 80/153/4 76/154/4
f 74/155/5 78/156/5 77/157/5 73/158/5
f 76/66/2 80/67/2 78/68/2 74/69/2
f 82/70/8 84/51/8 83/159/8 81/71/8
f 86/160/9 85/161/9 87/162/9 88/75/9
f 81/163/6 83/164/6 87/165/6 85/166/6
f 83/167/4 84/168/4 88/169/4 87/170/4
f 82/171/5 81/172/5 85/173/5 86/174/5
f 84/175/2 82/176/2 86/177/2 88/178/2
f 90/70/9 89/71/9 91/51/9 92/51/9
f 94/72/8 96/75/8 95/74/8 93/73/8
f 89/76/3 93/79/3 95/78/3 91/77/3
f 91/80/4 95/83/4 96/82/4 92/81/4
f 90/84/5 94/87/5 93/86/5 89/85/5
f 92/88/2 96/91/2 94/90/2 90/89/2
f 98/70/9 97/71/9 99/159/9 100/51/9
f 102/160/8 104/75/8 103/162/8 101/161/8
f 97/163/3 101/166/3 103/165/3 99/164/3
f 99/167/4 103/170/4 104/169/4 100/168/4
f 98/171/5 102/174/5 101/173/5 97/172/5
f 100/175/2 104/178/2 102/177/2 98/176/2
