# Blender 4.0.2
# www.blender.org
mtllib isolated_plate_wall_roof_6000_frame_win_600x600.mtl
o isolated_plate_wall_roof_6000_frame_win_600x600
v 0.094938 0.250000 -2.501674
v 0.094938 0.250000 2.501674
v 0.024938 0.250000 -2.501674
v 0.024938 0.250000 2.501674
v 0.094938 0.200000 -2.561262
v 0.094938 0.200000 2.561261
v 0.024938 0.200000 -2.561262
v 0.024938 0.200000 2.561261
v 0.094938 2.328176 0.025000
v 0.094938 0.250000 2.501674
v 0.024938 2.328176 0.025000
v 0.024938 0.250000 2.501674
v 0.094938 2.262906 0.025000
v 0.094938 0.250000 2.423888
v 0.024938 2.262906 0.025000
v 0.024938 0.250000 2.423888
v 0.024938 0.250000 -2.423888
v 0.024938 2.262906 -0.025000
v 0.094938 0.250000 -2.423888
v 0.094938 2.262906 -0.025000
v 0.024938 0.250000 -2.501674
v 0.024938 2.328176 -0.025000
v 0.094938 0.250000 -2.501674
v 0.094938 2.328176 -0.025000
v 0.094938 2.328176 0.025000
v 0.094938 1.606877 0.025000
v 0.024938 2.328176 0.025000
v 0.024938 1.606877 0.025000
v 0.094938 2.328176 -0.025000
v 0.094938 1.606877 -0.025000
v 0.024938 2.328176 -0.025000
v 0.024938 1.606877 -0.025000
v 0.024938 0.250000 -2.225000
v 0.024938 0.416886 -2.225000
v 0.094938 0.250000 -2.225000
v 0.094938 0.416886 -2.225000
v 0.024938 0.250000 -2.175000
v 0.024938 0.458841 -2.175000
v 0.094938 0.250000 -2.175000
v 0.094938 0.458841 -2.175000
v 0.024938 0.250000 -1.675000
v 0.024938 0.878391 -1.675000
v 0.094938 0.250000 -1.675000
v 0.094938 0.878391 -1.675000
v 0.024938 0.250000 -1.625000
v 0.024938 0.920346 -1.625000
v 0.094938 0.250000 -1.625000
v 0.094938 0.920346 -1.625000
v 0.024938 0.250000 -1.125000
v 0.024938 1.339896 -1.125000
v 0.094938 0.250000 -1.125000
v 0.094938 1.339896 -1.125000
v 0.024938 0.250000 -1.075000
v 0.024938 1.381850 -1.075000
v 0.094938 0.250000 -1.075000
v 0.094938 1.381850 -1.075000
v 0.024938 0.866877 0.320000
v 0.024938 0.866877 -0.320000
v 0.094938 0.866877 0.320000
v 0.094938 0.866878 -0.320000
v 0.024938 0.916877 0.320000
v 0.024938 0.916877 -0.320000
v 0.094938 0.916877 0.320000
v 0.094938 0.916877 -0.320000
v 0.094938 1.719460 0.672653
v 0.094938 0.250000 0.672653
v 0.024938 1.719460 0.672653
v 0.024938 0.250000 0.672653
v 0.094938 1.677505 0.722653
v 0.094938 0.250000 0.722653
v 0.024938 1.677505 0.722653
v 0.024938 0.250000 0.722653
v 0.094938 1.381850 1.075000
v 0.094938 0.250000 1.075000
v 0.024938 1.381850 1.075000
v 0.024938 0.250000 1.075000
v 0.094938 1.339896 1.125000
v 0.094938 0.250000 1.125000
v 0.024938 1.339896 1.125000
v 0.024938 0.250000 1.125000
v 0.094938 0.920346 1.625000
v 0.094938 0.250000 1.625000
v 0.024938 0.920346 1.625000
v 0.024938 0.250000 1.625000
v 0.094938 0.878391 1.675000
v 0.094938 0.250000 1.675000
v 0.024938 0.878391 1.675000
v 0.024938 0.250000 1.675000
v 0.094938 0.458841 2.175000
v 0.094938 0.250000 2.175000
v 0.024938 0.458841 2.175000
v 0.024938 0.250000 2.175000
v 0.094938 0.416886 2.225000
v 0.094938 0.250000 2.225000
v 0.024938 0.416886 2.225000
v 0.024938 0.250000 2.225000
v 0.094938 2.015371 0.320000
v 0.094938 0.250000 0.320000
v 0.024938 2.015371 0.320000
v 0.024938 0.250000 0.320000
v 0.094938 1.973417 0.369999
v 0.094938 0.250000 0.370000
v 0.024938 1.973417 0.370000
v 0.024938 0.250000 0.370000
v 0.094938 1.606877 -0.320000
v 0.094938 1.606877 0.320000
v 0.024938 1.606877 -0.320000
v 0.024938 1.606877 0.320000
v 0.094938 1.556877 -0.320000
v 0.094938 1.556877 0.320000
v 0.024938 1.556877 -0.320000
v 0.024938 1.556877 0.320000
v 0.094938 1.719460 -0.672653
v 0.094938 0.250000 -0.672653
v 0.024938 1.719460 -0.672653
v 0.024938 0.250000 -0.672653
v 0.094938 1.677505 -0.722653
v 0.094938 0.250000 -0.722653
v 0.024938 1.677505 -0.722653
v 0.024938 0.250000 -0.722653
v 0.094938 2.015371 -0.320000
v 0.094938 0.250000 -0.320000
v 0.024938 2.015371 -0.320000
v 0.024938 0.250000 -0.320000
v 0.094938 1.973417 -0.369999
v 0.094938 0.250000 -0.370000
v 0.024938 1.973417 -0.370000
v 0.024938 0.250000 -0.370000
v 0.094938 0.866877 0.025000
v 0.094938 0.250000 0.025000
v 0.024938 0.866877 0.025000
v 0.024938 0.250000 0.025000
v 0.094938 0.866877 -0.025000
v 0.094938 0.250000 -0.025000
v 0.024938 0.866877 -0.025000
v 0.024938 0.250000 -0.025000
vn -0.0000 1.0000 -0.0000
vn -0.0000 -1.0000 -0.0000
vn -0.0000 0.7660 -0.6428
vn -1.0000 -0.0000 -0.0000
vn 1.0000 -0.0000 -0.0000
vn -0.0000 0.7660 0.6428
vn -0.0000 -0.7660 -0.6428
vn -0.0000 -0.0000 -1.0000
vn -0.0000 -0.7660 0.6428
vn -0.0000 -0.0000 1.0000
vt 2.189715 0.869281
vt 0.554635 0.869281
vt 0.554635 0.892157
vt 2.189715 0.892157
vt 2.209185 0.915033
vt 2.209187 0.892157
vt 0.535161 0.892157
vt 0.535161 0.915033
vt 0.369282 0.373487
vt 0.369282 0.389827
vt 0.392157 0.389827
vt 0.392158 0.373487
vt 0.054635 0.743692
vt 0.035162 0.760033
vt 1.709189 0.760029
vt 1.689718 0.743690
vt -0.702787 0.782907
vt -0.722259 0.799247
vt 0.951767 0.799247
vt 0.932295 0.782907
vt 0.392156 0.357145
vt 0.392156 0.373485
vt 0.415032 0.373485
vt 0.415031 0.357145
vt 1.901653 0.869281
vt 1.092283 0.869281
vt 1.092284 0.892157
vt 1.901654 0.892157
vt 1.876231 0.915033
vt 1.876232 0.892157
vt 1.092283 0.892158
vt 1.092283 0.915034
vt 1.113828 -0.434838
vt 1.105842 -0.425322
vt 1.123363 -0.410615
vt 1.131350 -0.420131
vt 0.511421 -0.078104
vt 0.525134 -0.061763
vt 1.548520 -0.061710
vt 1.567992 -0.078050
vt -0.603247 -0.056377
vt -0.583775 -0.040037
vt 0.439560 -0.040069
vt 0.453269 -0.056410
vt 0.421540 0.425939
vt 0.412461 0.435019
vt 0.428639 0.451191
vt 0.437719 0.442111
vt 0.130719 1.380345
vt 0.130719 1.380345
vt 0.107843 1.380345
vt 0.107843 1.380345
vt 0.084967 1.364004
vt 0.107843 1.364004
vt 0.107843 1.364004
vt 0.084967 1.364004
vt 1.575016 0.369293
vt 1.574994 0.392168
vt 0.935480 0.880391
vt 0.935476 0.864047
vt 0.699749 0.864033
vt 0.699752 0.880377
vt 0.660520 0.106569
vt 0.660518 0.122911
vt 0.896237 0.122905
vt 0.896239 0.106562
vt -0.166054 0.392158
vt -0.166049 0.392157
vt -0.166034 0.415033
vt -0.166074 0.415035
vt 0.217277 -1.315078
vt 0.217287 -1.331421
vt 0.271822 -1.331431
vt 0.285534 -1.315087
vt 0.130719 1.380345
vt 0.130719 1.380345
vt 0.324695 2.302117
vt 0.310984 2.318462
vt 0.256445 2.318432
vt 0.256437 2.302097
vt 0.084965 1.364004
vt 0.107841 1.364004
vt 0.107841 1.364004
vt 0.084965 1.364004
vt -0.168037 0.392283
vt -0.168060 0.392286
vt -0.168056 0.415161
vt -0.168030 0.415161
vt 1.575017 0.369294
vt 1.575018 0.369294
vt 1.574995 0.392167
vt 1.574994 0.392166
vt 0.217226 -0.955608
vt 0.217232 -0.971947
vt 0.422587 -0.971958
vt 0.436298 -0.955615
vt 0.107843 1.380345
vt 0.475510 1.942621
vt 0.461804 1.958960
vt 0.256439 1.958948
vt 0.256434 1.942610
vt 0.084965 1.364004
vt 0.107841 1.364004
vt 0.084965 1.364004
vt -0.167538 0.392250
vt -0.167553 0.392251
vt -0.167564 0.415132
vt -0.167538 0.415129
vt 1.575016 0.369292
vt 1.575016 0.369292
vt 1.574994 0.392167
vt 1.574994 0.392167
vt 0.217184 -0.596106
vt 0.217186 -0.612448
vt 0.573361 -0.612459
vt 0.587069 -0.596119
vt 0.130719 1.380345
vt 0.626307 1.583105
vt 0.612597 1.599447
vt 0.256403 1.599422
vt 0.256402 1.583084
vt 0.084966 1.364004
vt 0.107842 1.364004
vt 0.107842 1.364004
vt 0.084966 1.364004
vt -0.167036 0.392221
vt -0.167059 0.392222
vt -0.167063 0.415098
vt -0.167044 0.415098
vt 1.575016 0.369293
vt 1.575015 0.369293
vt 1.574994 0.392167
vt 1.574995 0.392167
vt 0.084967 1.364004
vt 0.107843 1.364004
vt 0.130719 1.380345
vt 0.474220 0.767598
vt 0.457878 0.767596
vt 0.457915 0.976788
vt 0.474257 0.976788
vt 0.435035 0.010153
vt 0.418695 0.010153
vt 0.418670 0.219334
vt 0.435010 0.219334
vt -0.166522 0.392189
vt -0.166522 0.392189
vt -0.166525 0.415066
vt 1.575011 0.369291
vt 1.575012 0.369291
vt 1.574991 0.392166
vt 1.574991 0.392166
vt 0.130719 1.380345
vt 0.084967 1.364004
vt 0.084967 1.364004
vt 0.107842 1.364004
vt 0.107843 1.364004
vt 1.575016 0.369291
vt 1.574994 0.392166
vt 1.574994 0.392165
vt 1.575015 0.369291
vt 0.736614 1.271847
vt 0.256368 1.271812
vt 0.256373 1.288156
vt 0.722907 1.288188
vt 0.217144 -0.284851
vt 0.697363 -0.284875
vt 0.683655 -0.301216
vt 0.217146 -0.301193
vt -0.166605 0.392194
vt -0.166607 0.415070
vt -0.166629 0.415072
vt -0.166627 0.392196
vt 0.107843 1.380345
vt 0.130719 1.380345
vt 0.084967 1.364004
vt 0.107842 1.364004
vt 1.575016 0.369292
vt 1.574995 0.392168
vt 1.574994 0.392167
vt 1.575016 0.369292
vt 0.833298 1.156591
vt 0.256337 1.156544
vt 0.256341 1.172885
vt 0.819590 1.172933
vt 0.217129 -0.169592
vt 0.794048 -0.169619
vt 0.780340 -0.185960
vt 0.217131 -0.185934
vt -0.166447 0.392179
vt -0.166449 0.415056
vt -0.166471 0.415058
vt -0.166469 0.392182
vt 1.575015 0.369292
vt 1.575015 0.369292
vt 1.574993 0.392167
vt 1.574993 0.392167
vt 0.699743 0.767612
vt 0.683401 0.767611
vt 0.683439 0.976804
vt 0.699781 0.976805
vt 0.660529 0.010149
vt 0.644189 0.010150
vt 0.644165 0.219330
vt 0.660505 0.219330
vt -0.166522 0.392188
vt -0.166522 0.392188
vt -0.166525 0.415065
vt -0.166525 0.415065
vt 0.130719 1.380345
vt 0.107843 1.380345
vt 0.107843 1.380345
vt 0.084967 1.364004
vt 0.107843 1.364004
vt 0.107843 1.364004
vt 0.084967 1.364003
vt 0.457912 0.880363
vt 0.457908 0.864019
vt 0.256306 0.864007
vt 0.256310 0.880350
vt 0.217095 0.106580
vt 0.217093 0.122923
vt 0.418687 0.122918
vt 0.418689 0.106575
s 0
usemtl wood.002
f 2/1/1 1/2/1 3/3/1 4/4/1
f 6/5/2 8/6/2 7/7/2 5/8/2
f 1/9/3 5/10/3 7/11/3 3/12/3
f 3/13/4 7/14/4 8/15/4 4/16/4
f 2/17/5 6/18/5 5/19/5 1/20/5
f 4/21/6 8/22/6 6/23/6 2/24/6
f 10/25/6 9/26/6 11/27/6 12/28/6
f 14/29/7 16/30/7 15/31/7 13/32/7
f 9/33/8 13/34/8 15/35/8 11/36/8
f 11/37/4 15/38/4 16/39/4 12/40/4
f 10/41/5 14/42/5 13/43/5 9/44/5
f 12/45/2 16/46/2 14/47/2 10/48/2
f 23/41/5 24/44/5 20/43/5 19/42/5
f 23/25/3 21/28/3 22/27/3 24/26/3
f 22/37/4 21/40/4 17/39/4 18/38/4
f 19/29/9 20/32/9 18/31/9 17/30/9
f 21/45/2 23/48/2 19/47/2 17/46/2
f 24/33/10 22/36/10 18/35/10 20/34/10
f 26/49/10 25/50/10 27/51/10 28/52/10
f 30/53/8 32/54/8 31/55/8 29/56/8
f 25/57/1 29/57/1 31/58/1 27/58/1
f 27/59/4 31/60/4 32/61/4 28/62/4
f 26/63/5 30/64/5 29/65/5 25/66/5
f 28/67/2 32/68/2 30/69/2 26/70/2
f 39/71/5 35/72/5 36/73/5 40/74/5
f 39/75/10 40/76/10 38/51/10 37/52/10
f 38/77/4 34/78/4 33/79/4 37/80/4
f 35/81/8 33/82/8 34/83/8 36/84/8
f 37/85/2 33/86/2 35/87/2 39/88/2
f 40/89/3 36/90/3 34/91/3 38/92/3
f 47/93/5 43/94/5 44/95/5 48/96/5
f 47/75/10 48/50/10 46/97/10 45/52/10
f 46/98/4 42/99/4 41/100/4 45/101/4
f 43/102/8 41/103/8 42/103/8 44/104/8
f 45/105/2 41/106/2 43/107/2 47/108/2
f 48/109/3 44/110/3 42/111/3 46/112/3
f 55/113/5 51/114/5 52/115/5 56/116/5
f 55/75/10 56/117/10 54/52/10 53/52/10
f 54/118/4 50/119/4 49/120/4 53/121/4
f 51/122/8 49/123/8 50/124/8 52/125/8
f 53/126/2 49/127/2 51/128/2 55/129/2
f 56/130/3 52/131/3 50/132/3 54/133/3
f 59/134/2 57/135/2 58/135/2 60/134/2
f 63/136/1 64/136/1 62/52/1 61/52/1
f 62/137/4 58/138/4 57/139/4 61/140/4
f 63/141/5 59/142/5 60/143/5 64/144/5
f 61/145/10 57/146/10 59/147/10 63/147/10
f 64/148/8 60/149/8 58/150/8 62/151/8
f 66/75/8 68/52/8 67/52/8 65/152/8
f 70/153/10 69/154/10 71/155/10 72/156/10
f 65/157/6 67/158/6 71/159/6 69/160/6
f 67/161/4 68/162/4 72/163/4 71/164/4
f 66/165/5 65/166/5 69/167/5 70/168/5
f 68/169/2 66/170/2 70/171/2 72/172/2
f 74/75/8 76/52/8 75/52/8 73/117/8
f 78/122/10 77/125/10 79/124/10 80/123/10
f 73/130/6 75/133/6 79/132/6 77/131/6
f 75/118/4 76/121/4 80/120/4 79/119/4
f 74/113/5 73/116/5 77/115/5 78/114/5
f 76/126/2 74/129/2 78/128/2 80/127/2
f 82/75/8 84/52/8 83/97/8 81/50/8
f 86/102/10 85/104/10 87/103/10 88/103/10
f 81/109/6 83/112/6 87/111/6 85/110/6
f 83/98/4 84/101/4 88/100/4 87/99/4
f 82/93/5 81/96/5 85/95/5 86/94/5
f 84/105/2 82/108/2 86/107/2 88/106/2
f 90/75/8 92/52/8 91/51/8 89/76/8
f 94/81/10 93/84/10 95/83/10 96/82/10
f 89/89/6 91/92/6 95/91/6 93/90/6
f 91/77/4 92/80/4 96/79/4 95/78/4
f 90/71/5 89/74/5 93/73/5 94/72/5
f 92/85/2 90/88/2 94/87/2 96/86/2
f 98/75/8 100/52/8 99/173/8 97/174/8
f 102/153/10 101/175/10 103/176/10 104/156/10
f 97/177/6 99/178/6 103/179/6 101/180/6
f 99/181/4 100/182/4 104/183/4 103/184/4
f 98/185/5 97/186/5 101/187/5 102/188/5
f 100/189/2 98/190/2 102/191/2 104/192/2
f 106/136/1 105/136/1 107/52/1 108/52/1
f 110/134/2 112/135/2 111/135/2 109/134/2
f 105/193/8 109/194/8 111/195/8 107/196/8
f 107/197/4 111/198/4 112/199/4 108/200/4
f 106/201/5 110/202/5 109/203/5 105/204/5
f 108/205/10 112/206/10 110/207/10 106/208/10
f 114/75/10 113/152/10 115/52/10 116/52/10
f 118/153/8 120/156/8 119/155/8 117/154/8
f 113/157/3 117/160/3 119/159/3 115/158/3
f 115/161/4 119/164/4 120/163/4 116/162/4
f 114/165/5 118/168/5 117/167/5 113/166/5
f 116/169/2 120/172/2 118/171/2 114/170/2
f 122/75/10 121/174/10 123/173/10 124/52/10
f 126/153/8 128/156/8 127/176/8 125/175/8
f 121/177/3 125/180/3 127/179/3 123/178/3
f 123/181/4 127/184/4 128/183/4 124/182/4
f 122/185/5 126/188/5 125/187/5 121/186/5
f 124/189/2 128/192/2 126/191/2 122/190/2
f 130/209/10 129/136/10 131/210/10 132/211/10
f 134/212/8 136/213/8 135/214/8 133/215/8
f 129/57/1 133/57/1 135/58/1 131/58/1
f 131/216/4 135/217/4 136/218/4 132/219/4
f 130/220/5 134/221/5 133/222/5 129/223/5
f 132/67/2 136/68/2 134/69/2 130/70/2
