# Blender 4.0.2
# www.blender.org
mtllib isolated_plate_wall_roof_3000_win_600x600.mtl
o isolated_plate_wall_roof_3000_win_600x600
v 0.011276 0.559207 0.633169
v 0.000000 0.380993 0.845559
v 0.000000 0.200993 1.060077
v 0.024937 0.560000 0.632224
v 0.011276 0.379207 0.847687
v 0.024937 0.380000 0.846741
v 0.000000 0.560993 0.631040
v 0.000937 0.560000 0.632224
v 0.000937 0.200000 1.061260
v 0.024937 0.200000 1.061260
v 0.010527 0.560000 0.632224
v 0.010527 0.380000 0.846742
v 0.000937 0.380000 0.846742
v 0.024937 0.740000 0.417705
v 0.000000 0.740993 0.416522
v 0.011276 0.739207 0.418650
v 0.000937 0.920000 0.203186
v 0.010527 0.920000 0.203186
v 0.010527 0.740000 0.417705
v 0.000937 0.740000 0.417705
v 0.024937 0.920000 0.203186
v 0.011276 0.919207 0.204131
v 0.010724 1.090492 0.000000
v 0.000000 0.920993 0.202004
v 0.024937 1.090492 0.000000
v 0.011276 0.559207 -0.633168
v 0.024937 0.560000 -0.632223
v 0.024937 0.740000 -0.417705
v 0.000000 0.560993 -0.631041
v 0.000937 0.560000 -0.632223
v 0.000000 0.740993 -0.416522
v 0.010527 0.560000 -0.632223
v 0.011276 0.739207 -0.418650
v 0.000937 0.920000 -0.203186
v 0.010527 0.920000 -0.203186
v 0.010527 0.740000 -0.417705
v 0.000937 0.740000 -0.417705
v 0.024937 0.920000 -0.203187
v 0.011276 0.919207 -0.204132
v 0.000000 0.920993 -0.202004
v 0.000000 0.380993 -0.845559
v 0.000000 0.200993 -1.060077
v 0.011276 0.379207 -0.847687
v 0.024937 0.380000 -0.846742
v 0.000937 0.200000 -1.061261
v 0.024937 0.200000 -1.061261
v 0.010527 0.380000 -0.846742
v 0.000937 0.380000 -0.846742
vn -0.9980 0.0631 -0.0000
vn -0.0000 0.7660 -0.6429
vn -0.0000 0.7659 0.6429
vn -0.7272 -0.6865 -0.0000
vn 1.0000 -0.0000 -0.0000
vn -0.7273 -0.6864 -0.0000
vn -0.7271 -0.6865 -0.0000
vn -0.7271 -0.6866 -0.0000
vn -0.7272 -0.6864 -0.0000
vn -0.0000 0.7660 0.6428
vn -0.0000 0.7660 -0.6428
vn -0.0000 0.7661 -0.6427
vn -0.0000 0.7659 -0.6429
vn -0.0000 0.7661 -0.6428
vn -0.0000 0.7662 -0.6426
vn -0.0000 0.7661 0.6428
vn -0.0000 0.7660 0.6429
vn -0.0000 0.7661 0.6427
vn -0.0000 0.7662 0.6426
vn 0.0001 0.7663 0.6424
vn -0.0000 0.7664 0.6424
vn -0.0000 0.7665 0.6423
vn -0.0000 -1.0000 -0.0000
vt 0.568393 1.078402
vt 1.164115 1.133942
vt 0.634714 1.133942
vt -1.575019 1.431733
vt -1.575409 1.431497
vt -1.575409 1.436042
vt -1.725738 -0.584587
vt -1.726127 -0.584351
vt -1.725738 -0.580043
vt 0.701996 0.989884
vt 1.096464 0.991673
vt 0.702365 0.991673
vt 0.835971 1.783565
vt 0.899419 1.729377
vt 0.962867 1.783565
vt 0.568024 1.076610
vt 1.230436 1.078402
vt 0.635009 1.135734
vt 1.163820 1.135734
vt 0.835968 0.907645
vt 0.962492 0.909434
vt 0.836336 0.909434
vt 0.701999 2.015887
vt 1.029853 1.958677
vt 1.096839 2.015887
vt 0.835966 0.719958
vt 0.963157 0.718169
vt 0.962861 0.719958
vt 0.769350 0.662717
vt 0.835672 0.718169
vt 0.701700 0.224734
vt 1.163450 0.169282
vt 1.097128 0.224734
vt 0.635009 0.167494
vt 0.635379 0.169282
vt 0.568026 1.706124
vt 1.163826 1.648914
vt 1.230812 1.706124
vt 0.768686 1.047125
vt 1.029847 1.048914
vt 0.768981 1.048914
vt 1.030142 1.047125
vt 0.701999 2.113559
vt 1.163826 2.170768
vt 0.635012 2.170768
vt 0.835971 1.339151
vt 1.029853 1.396360
vt 0.768985 1.396360
vt 1.029848 0.660928
vt 1.029478 0.662717
vt 0.899414 0.962174
vt 0.701995 0.226523
vt 1.096833 0.226523
vt -1.813570 -0.587907
vt -1.814057 -0.580042
vt -1.664214 1.428177
vt -1.751656 1.431733
vt -1.752046 1.436041
vt -1.663727 1.436041
vt -1.487090 1.436042
vt -1.487577 1.428177
vt -1.840364 1.431497
vt -1.840364 1.428472
vt -1.840851 1.428177
vt -1.752046 1.428472
vt -1.752532 1.428177
vt -1.752046 1.431497
vt -1.840364 1.436042
vt -1.839975 1.431733
vt -1.663727 1.428472
vt -1.663727 1.431497
vt -1.637809 -0.584351
vt -1.725251 -0.587907
vt -1.637420 -0.580043
vt -1.487090 1.428472
vt -1.663338 1.431733
vt -1.575409 1.428472
vt -1.575896 1.428177
vt -1.924017 1.436042
vt -1.924017 1.431559
vt -1.548615 -0.587907
vt -1.549102 -0.587612
vt -1.549102 -0.584587
vt -1.549102 -0.580043
vt -1.549491 -0.584351
vt -1.636933 -0.587907
vt -1.814446 -0.584351
vt -1.814057 -0.584587
vt -1.901888 -0.587907
vt -1.902375 -0.580042
vt -1.637420 -0.587612
vt -1.637420 -0.584587
vt -1.902375 -0.587612
vt -1.814057 -0.587612
vt -1.725739 -0.587612
vt 1.096834 0.989884
vt 1.230806 1.076610
vt 0.568024 1.069145
vt 1.230806 1.069145
vt 0.962862 0.907645
vt 0.768985 1.958677
vt 1.163819 0.167494
vt 0.635012 1.648914
vt 0.835968 0.904667
vt 0.962862 0.904667
vt 1.096839 2.113559
vt 0.962867 1.339151
vt 0.768982 0.660928
vt 0.635009 0.164515
vt 1.163819 0.164516
vt 0.768982 0.657950
vt 1.029848 0.657950
vt -1.465449 -0.580042
vt -1.465449 -0.584525
vt 0.701996 0.986906
vt 1.096834 0.986906
s 0
usemtl wood
f 42/1/1 5/2/1 43/3/1
f 43/4/2 47/5/2 44/6/2
f 11/7/3 1/8/3 4/9/3
f 30/10/4 7/11/4 29/12/4
f 45/16/6 3/17/6 42/1/6
f 47/18/7 5/2/7 12/19/7
f 34/20/7 24/21/7 40/22/7
f 35/26/7 22/27/7 18/28/7
f 31/29/1 22/27/1 39/30/1
f 26/31/1 2/32/1 1/33/1
f 48/34/8 2/32/8 41/35/8
f 33/39/7 19/40/7 36/41/7
f 29/12/1 16/42/1 33/39/1
f 31/29/9 20/49/9 15/50/9
f 24/21/1 23/51/1 40/22/1
f 32/52/7 1/33/7 11/53/7
f 42/1/1 3/17/1 5/2/1
f 1/8/10 2/54/10 6/55/10 4/9/10
f 29/56/11 33/57/11 28/58/11 27/59/11
f 46/60/11 42/61/11 43/4/11 44/6/11
f 35/62/2 34/63/2 40/64/2
f 37/65/12 31/66/12 36/67/12
f 36/67/12 31/66/12 28/58/12
f 35/62/13 40/64/13 38/68/13
f 39/69/12 35/62/12 38/68/12
f 33/57/14 36/67/14 28/58/14
f 30/70/11 29/56/11 32/71/11
f 32/71/14 29/56/14 27/59/14
f 16/72/10 7/73/10 4/9/10 14/74/10
f 46/60/12 45/75/12 42/61/12
f 28/58/11 31/66/11 39/69/11 38/68/11
f 26/76/2 32/71/2 27/59/2
f 48/77/15 41/78/15 47/5/15
f 47/5/12 41/78/12 44/6/12
f 25/79/11 38/68/11 40/64/11 23/80/11
f 24/81/10 17/82/10 18/83/10
f 24/81/10 18/83/10 21/84/10
f 41/78/11 26/76/11 27/59/11 44/6/11
f 22/85/16 21/84/16 18/83/16
f 22/85/10 15/86/10 14/74/10 21/84/10
f 5/87/17 6/55/17 12/88/17
f 5/87/10 3/89/10 10/90/10 6/55/10
f 15/86/10 20/91/10 19/92/10
f 15/86/18 19/92/18 14/74/18
f 16/72/10 14/74/10 19/92/10
f 9/93/16 10/90/16 3/89/16
f 2/54/19 13/94/19 12/88/19
f 12/88/20 6/55/20 2/54/20
f 7/73/21 8/95/21 11/7/21
f 7/73/22 11/7/22 4/9/22
f 30/10/8 8/96/8 7/11/8
f 9/97/23 45/16/23 46/98/23 10/99/23
f 45/16/4 9/97/4 3/17/4
f 47/18/9 43/3/9 5/2/9
f 34/20/4 17/100/4 24/21/4
f 35/26/7 39/30/7 22/27/7
f 31/29/1 15/50/1 22/27/1
f 26/31/1 41/35/1 2/32/1
f 48/34/7 13/102/7 2/32/7
f 33/39/7 16/42/7 19/40/7
f 17/100/23 34/20/23 35/104/23 18/105/23
f 29/12/1 7/11/1 16/42/1
f 31/29/8 37/108/8 20/49/8
f 13/102/23 48/34/23 47/109/23 12/110/23
f 20/49/23 37/108/23 36/111/23 19/112/23
f 25/113/10 23/114/10 24/81/10 21/84/10
f 32/52/9 26/31/9 1/33/9
f 8/96/23 30/10/23 32/115/23 11/116/23
usemtl wood_black
f 38/13/5 25/14/5 21/15/5
f 27/23/5 14/24/5 4/25/5
f 46/36/5 6/37/5 10/38/5
f 27/43/5 6/44/5 44/45/5
f 38/46/5 14/47/5 28/48/5
f 27/23/5 28/101/5 14/24/5
f 46/36/5 44/103/5 6/37/5
f 27/43/5 4/106/5 6/44/5
f 38/46/5 21/107/5 14/47/5
