# Blender 4.0.2
# www.blender.org
mtllib isolated_plate_wall_roof_5500_win_600x600.mtl
o isolated_plate_wall_roof_5500_win_600x600
v 0.011276 0.559207 1.883173
v 0.000000 0.380993 2.095562
v 0.000000 0.200992 2.310079
v 0.024937 0.560000 1.882228
v 0.011276 0.379207 2.097690
v 0.024937 0.380000 2.096744
v 0.024937 0.740000 1.667711
v 0.000000 0.560993 1.881045
v 0.000937 0.560000 1.882227
v 0.000937 0.200000 2.311261
v 0.000000 1.280993 1.022976
v 0.000000 0.740993 1.666528
v 0.024937 0.200000 2.311261
v 0.010527 0.560000 1.882227
v 0.011276 0.739207 1.668656
v 0.010527 0.380000 2.096744
v 0.000937 0.920000 1.453193
v 0.010527 0.920000 1.453193
v 0.011276 1.099207 1.239622
v 0.011276 1.279208 1.025104
v 0.010527 0.740000 1.667711
v 0.000937 0.740000 1.667711
v 0.024937 0.920000 1.453193
v 0.000937 1.100000 1.238677
v 0.010527 1.100000 1.238677
v 0.000937 0.380000 2.096744
v 0.024937 1.100000 1.238676
v 0.000000 1.100993 1.237493
v 0.024937 1.280000 1.024160
v 0.011276 0.919207 1.454139
v 0.010527 1.280000 1.024160
v 0.000937 1.280000 1.024160
v 0.000000 0.920993 1.452011
v 0.000937 1.460001 0.809643
v 0.010527 1.460001 0.809643
v 0.011276 1.459207 0.810587
v 0.024937 1.460001 0.809642
v 0.000000 1.460993 0.808459
v 0.000937 1.640000 0.595125
v 0.024937 2.139367 0.000000
v 0.011276 1.639207 0.596070
v 0.010527 1.640000 0.595125
v 0.000000 1.640993 0.593942
v 0.024937 1.640000 0.595125
v 0.011276 1.999208 0.167036
v 0.000000 2.000993 0.164908
v 0.011276 1.819208 0.381553
v 0.008755 2.139367 0.000000
v 0.000000 1.820993 0.379425
v 0.024937 2.000001 0.166091
v 0.010527 2.000001 0.166091
v 0.010527 1.820001 0.380608
v 0.000937 1.820001 0.380608
v 0.000937 2.000001 0.166091
v 0.024937 1.820001 0.380608
v 0.000937 1.460001 -0.809643
v 0.010527 1.460001 -0.809643
v 0.011276 1.459208 -0.810588
v 0.024937 1.460000 -0.809643
v 0.000000 1.460993 -0.808460
v 0.000937 1.640000 -0.595125
v 0.011276 1.639208 -0.596070
v 0.010527 1.640000 -0.595125
v 0.000000 1.640993 -0.593943
v 0.024937 1.640000 -0.595125
v 0.011276 1.999208 -0.167036
v 0.000000 2.000993 -0.164908
v 0.011276 1.819208 -0.381553
v 0.000000 1.820993 -0.379425
v 0.024938 2.000001 -0.166091
v 0.010527 2.000001 -0.166091
v 0.010527 1.820001 -0.380608
v 0.000937 1.820001 -0.380608
v 0.000937 2.000001 -0.166091
v 0.024937 1.820001 -0.380608
v 0.011276 0.559207 -1.883173
v 0.000000 0.380993 -2.095562
v 0.000000 0.200993 -2.310079
v 0.024937 0.560000 -1.882228
v 0.011276 0.379207 -2.097690
v 0.024937 0.380000 -2.096745
v 0.024937 0.740000 -1.667711
v 0.000000 0.560993 -1.881045
v 0.000937 0.560000 -1.882228
v 0.000937 0.200000 -2.311262
v 0.000000 1.280993 -1.022977
v 0.000000 0.740993 -1.666528
v 0.024937 0.200000 -2.311262
v 0.010527 0.560000 -1.882228
v 0.011276 0.739207 -1.668656
v 0.010527 0.380000 -2.096745
v 0.000937 0.920000 -1.453194
v 0.010527 0.920000 -1.453194
v 0.011276 1.099208 -1.239622
v 0.011276 1.279207 -1.025105
v 0.010527 0.740000 -1.667711
v 0.000937 0.740000 -1.667711
v 0.024937 0.920000 -1.453194
v 0.000937 1.100001 -1.238677
v 0.010527 1.100001 -1.238677
v 0.000937 0.380000 -2.096745
v 0.024937 1.100001 -1.238677
v 0.000000 1.100993 -1.237494
v 0.024937 1.280000 -1.024160
v 0.011276 0.919207 -1.454139
v 0.010527 1.280000 -1.024160
v 0.000937 1.280000 -1.024160
v 0.000000 0.920993 -1.452011
v 0.024937 0.920000 0.320000
v 0.024937 0.846877 -0.320000
v 0.024937 0.920000 -0.320000
v 0.024937 0.846877 0.320000
v 0.010527 1.280000 0.320000
v 0.010527 1.280000 -0.320000
v 0.000937 1.280000 0.320000
v 0.000937 1.280000 -0.320000
v 0.010527 1.460001 0.320000
v 0.010527 1.460001 -0.320000
v 0.000937 1.460001 0.320000
v 0.000937 1.460001 -0.320000
v 0.024937 1.280000 0.320000
v 0.024937 1.280000 -0.320000
v 0.024937 1.100001 0.320000
v 0.024937 1.100001 -0.320000
v 0.006700 0.846877 -0.320000
v 0.006700 0.846877 0.320000
v 0.011276 0.919207 0.320000
v 0.011276 0.919207 -0.320000
v 0.000000 1.460993 -0.320000
v 0.000000 1.460993 0.320000
v 0.011276 1.279207 0.320000
v 0.011276 1.279207 -0.320000
v 0.000000 1.100993 0.320000
v 0.000000 1.100993 -0.320000
v 0.000000 1.280993 0.320000
v 0.000000 1.280993 -0.320000
v 0.011276 1.459208 -0.320000
v 0.011276 1.459207 0.320000
v 0.010527 0.920000 0.320000
v 0.010527 0.920000 -0.320000
v 0.000937 0.920000 0.320000
v 0.000937 0.920000 -0.320000
v 0.010527 1.100001 0.320000
v 0.010527 1.100001 -0.320000
v 0.000937 1.100001 0.320000
v 0.000937 1.100001 -0.320000
v 0.000000 0.920993 0.320000
v 0.000000 0.920993 -0.320000
v 0.011276 1.099208 -0.320000
v 0.011276 1.099208 0.320000
v 0.024937 1.460001 0.320000
v 0.024937 1.460001 -0.320000
v 0.001638 1.486877 0.320000
v 0.001638 1.486877 -0.320000
v 0.024937 1.486877 0.320000
v 0.024937 1.486877 -0.320000
vn -0.9980 0.0631 -0.0000
vn 1.0000 -0.0000 -0.0000
vn -0.0000 -1.0000 -0.0000
vn -0.0000 0.7661 -0.6427
vn -0.7271 -0.6865 -0.0000
vn -0.0000 0.7662 0.6426
vn -0.7272 -0.6865 -0.0000
vn -0.7271 -0.6866 -0.0000
vn -0.7270 -0.6866 -0.0000
vn -0.7273 -0.6863 -0.0000
vn -0.7272 -0.6864 -0.0000
vn -0.7273 -0.6864 -0.0000
vn -0.0000 -0.0000 1.0000
vn -0.0000 1.0000 -0.0000
vn -0.0000 -0.0000 -1.0000
vn -0.0000 0.7659 -0.6430
vn -0.0000 0.7659 -0.6429
vn -0.0000 0.7660 -0.6428
vn -0.0000 0.7660 -0.6429
vn -0.0000 0.7658 -0.6431
vn -0.0000 0.7662 -0.6426
vn -0.0000 0.7660 0.6429
vn -0.0000 0.7660 0.6428
vn -0.0000 0.7659 0.6430
vn -0.0000 0.7662 0.6427
vn -0.0000 0.7663 0.6425
vn -0.0000 0.7659 0.6429
vn -0.0000 0.7663 0.6424
vn -0.0000 0.7658 0.6431
vn -0.0000 0.7661 0.6427
vn -0.7270 -0.6867 -0.0000
vn -0.0000 0.0001 1.0000
vn -0.0000 -0.0001 -1.0000
vt 0.847255 0.471452
vt 1.017894 0.416000
vt 0.951573 0.471452
vt 0.311372 0.224734
vt 1.553778 0.169283
vt 1.487457 0.224734
vt 0.311668 2.113559
vt 1.554156 2.170768
vt 0.244682 2.170768
vt 0.713580 0.822428
vt 1.085250 0.825406
vt 0.713580 0.825406
vt 1.420184 1.396360
vt 0.378653 1.396360
vt 0.999344 1.362391
vt 0.713583 2.325651
vt 1.018269 2.268441
vt 1.085255 2.325651
vt -1.281774 -0.479417
vt -1.282163 -0.475108
vt -1.281774 -0.474872
vt 0.378357 1.047125
vt 1.486792 0.991673
vt 1.420471 1.047125
vt 1.219221 0.578689
vt 0.999339 0.575711
vt 1.219220 0.575711
vt 0.579609 0.578689
vt 0.799491 0.575711
vt 0.799491 0.578689
vt 0.780566 0.414211
vt 0.780934 0.416000
vt 1.152235 0.743167
vt 0.999338 0.740189
vt 1.152235 0.740189
vt 0.646595 0.743167
vt 0.799491 0.740189
vt 0.799491 0.743167
vt -0.690523 -0.093319
vt -0.690134 -0.093555
vt -0.690523 -0.097864
vt 1.219227 1.803796
vt 0.999344 1.861005
vt 0.999344 1.803796
vt 0.579611 1.803796
vt 0.799495 1.861005
vt 0.512625 1.861005
vt 0.379022 0.662717
vt 1.419807 0.662717
vt 0.799490 0.695663
vt 0.177697 1.076610
vt 1.620764 1.078402
vt 0.178065 1.078402
vt 0.378654 1.958677
vt 1.487170 2.015887
vt 0.311668 2.015887
vt 1.151865 0.744956
vt 0.999339 0.743167
vt 0.646963 0.744956
vt 0.799491 0.743167
vt 0.799491 0.744956
vt 0.713579 0.802196
vt 1.085544 0.800408
vt 1.085249 0.802196
vt 1.219220 0.391001
vt 0.999338 0.389213
vt 1.219515 0.389213
vt 0.579608 0.391001
vt 0.799491 0.389213
vt 0.799490 0.391001
vt 0.780566 0.411233
vt 1.018264 0.414211
vt 0.311668 0.989884
vt 0.312036 0.991673
vt 0.999338 0.333761
vt 1.285836 0.333761
vt 0.579313 0.389213
vt 0.799490 0.333761
vt 0.847550 0.246755
vt 0.951278 0.249733
vt 0.847550 0.249733
vt 1.152529 0.635930
vt 0.999338 0.580478
vt 1.218850 0.580478
vt 0.646299 0.635930
vt 0.799490 0.580478
vt 0.799490 0.635930
vt 0.378653 0.657950
vt 1.420177 0.660928
vt 0.378653 0.660928
vt 0.780270 0.882647
vt 1.018263 0.884436
vt 0.780564 0.884436
vt 1.152234 0.637718
vt 0.999338 0.635930
vt 0.646593 0.637718
vt 0.799491 0.635930
vt 0.799490 0.637718
vt 1.353191 0.907645
vt 0.999339 0.904667
vt 1.353191 0.904667
vt 0.445639 0.904667
vt 0.799491 0.907645
vt 0.445639 0.907645
vt 0.780569 1.473801
vt 0.951283 1.416591
vt 1.018269 1.473801
vt 1.286205 0.331972
vt 0.999338 0.328994
vt 1.286205 0.328994
vt 0.512623 0.331972
vt 0.799490 0.328994
vt 0.799490 0.331972
vt 1.554443 1.133942
vt 0.244386 1.133942
vt 0.950909 0.251522
vt 0.899414 0.294577
vt 0.847920 0.251522
vt 1.084880 0.827195
vt 1.018559 0.882647
vt 1.286500 0.964886
vt 0.999338 0.909434
vt 1.352821 0.909434
vt 0.512328 0.964886
vt 0.799490 0.909434
vt 0.799490 0.964886
vt 0.244682 1.648914
vt 1.621142 1.706124
vt 0.177696 1.706124
vt 1.152241 2.191000
vt 0.999344 2.248210
vt 0.999343 2.191000
vt 0.646597 2.191000
vt 0.799495 2.248210
vt 0.579611 2.248210
vt 0.799491 0.753010
vt 0.999338 0.753010
vt 0.244681 0.164515
vt 1.554147 0.167494
vt 0.244681 0.167494
vt 0.951278 0.473241
vt 0.847550 0.473241
vt 1.353190 0.719958
vt 0.999338 0.718169
vt 1.353486 0.718169
vt 0.445637 0.719958
vt 0.799490 0.718169
vt 0.799490 0.719958
vt 0.713583 2.345882
vt 0.999344 2.394549
vt 0.799495 2.394549
vt 0.999338 0.331972
vt 0.512992 0.333761
vt 0.799490 0.331972
vt 1.554148 1.135734
vt 0.244681 1.135734
vt 0.311668 0.986906
vt 1.487162 0.989884
vt 0.999339 0.907645
vt 0.446007 0.909434
vt 0.799491 0.907645
vt 0.799490 0.909434
vt 0.713949 0.827195
vt 0.999339 0.578689
vt 0.579978 0.580478
vt 0.799491 0.580478
vt 1.420176 1.048914
vt 0.378651 1.048913
vt 0.177697 1.069145
vt 1.621134 1.076610
vt 1.286205 0.966675
vt 0.999338 0.964886
vt 0.512622 0.966675
vt 0.799490 0.964886
vt 0.799490 0.966675
vt 1.487161 0.226523
vt 0.311666 0.226523
vt 0.245051 0.169282
vt 1.286213 1.726355
vt 0.999344 1.783565
vt 0.999343 1.726355
vt 0.512625 1.726355
vt 0.799495 1.783565
vt 0.445639 1.783565
vt 0.847555 1.938446
vt 0.899419 1.894152
vt 0.951283 1.938446
vt 0.866667 0.641019
vt 0.866667 0.690799
vt 0.900816 0.177778
vt 0.895750 0.177778
vt 0.877778 0.198090
vt 0.877778 0.247870
vt 0.933233 0.888889
vt 0.939705 0.888889
vt 1.487170 2.113559
vt 1.085249 0.822428
vt 0.999343 1.339151
vt 1.353199 1.339151
vt 0.445639 1.339150
vt 0.799495 1.362391
vt 0.799495 1.339151
vt 0.780569 2.268441
vt -1.193456 -0.474872
vt -1.193456 -0.471848
vt -1.192969 -0.471552
vt -1.193456 -0.479417
vt -1.105527 -0.475108
vt -1.281774 -0.471848
vt -1.281287 -0.471552
vt -1.193845 -0.475108
vt -1.105138 -0.474872
vt -1.105138 -0.471848
vt -1.104651 -0.471552
vt -1.105138 -0.479417
vt -1.017209 -0.475108
vt -1.016819 -0.474872
vt -1.016819 -0.471848
vt -1.016333 -0.471552
vt -1.016820 -0.479417
vt -0.928891 -0.475108
vt -0.928501 -0.474872
vt -0.928502 -0.471848
vt -0.928015 -0.471552
vt -0.928501 -0.479417
vt -0.840573 -0.475108
vt -0.840183 -0.474872
vt -0.840183 -0.471848
vt -0.839696 -0.471552
vt -0.840183 -0.479417
vt -0.752254 -0.475108
vt -0.751865 -0.474872
vt -0.751865 -0.471848
vt -0.751378 -0.471552
vt -0.751865 -0.479417
vt -0.663936 -0.475108
vt -0.663547 -0.474872
vt -0.663547 -0.471848
vt -0.663060 -0.471552
vt -0.663547 -0.479417
vt -0.575618 -0.475108
vt -0.575229 -0.474872
vt -0.575229 -0.471848
vt -0.574742 -0.471552
vt -0.575229 -0.479417
vt -0.487300 -0.475108
vt -0.486911 -0.474872
vt -0.486911 -0.471848
vt -0.486424 -0.471552
vt -0.486911 -0.479417
vt -0.418530 -0.474313
vt -0.418530 -0.479417
vt -1.370092 -0.479417
vt -1.370092 -0.471848
vt -1.369605 -0.471552
vt 0.999339 0.578689
vt 0.579609 0.575711
vt 0.646595 0.740189
vt -0.867646 -0.089999
vt -0.867159 -0.090294
vt -0.867159 -0.093319
vt -0.866770 -0.093555
vt -0.779328 -0.089999
vt -0.778841 -0.097864
vt -0.778841 -0.090294
vt -0.778841 -0.093319
vt -0.955088 -0.093555
vt -0.867159 -0.097864
vt -0.955964 -0.089999
vt -0.955477 -0.090294
vt -0.955477 -0.093319
vt -1.043406 -0.093555
vt -0.955477 -0.097864
vt -1.044282 -0.089999
vt -1.043795 -0.090294
vt -1.043795 -0.093319
vt -1.131724 -0.093555
vt -1.043795 -0.097864
vt -1.132600 -0.089999
vt -1.132113 -0.090294
vt -1.132113 -0.093319
vt -1.220042 -0.093555
vt -1.132114 -0.097864
vt -1.220919 -0.089999
vt -1.220432 -0.090294
vt -1.220431 -0.093319
vt -1.308361 -0.093555
vt -1.220431 -0.097864
vt -1.309237 -0.089999
vt -1.308750 -0.090294
vt -1.308750 -0.093319
vt -1.396679 -0.093555
vt -1.308750 -0.097864
vt -1.397555 -0.089999
vt -1.397068 -0.090294
vt -1.397068 -0.093319
vt -1.465448 -0.092760
vt -1.465448 -0.097864
vt -1.397068 -0.097864
vt -0.778452 -0.093555
vt -0.513887 -0.097864
vt -0.602205 -0.097864
vt -0.601816 -0.093555
vt -0.602205 -0.093319
vt -0.691010 -0.089999
vt -0.690523 -0.090294
vt -0.513887 -0.090294
vt -0.514374 -0.089999
vt -0.602692 -0.089999
vt -0.602205 -0.090294
vt 1.286213 1.861005
vt 0.799495 1.803796
vt 0.445343 0.718169
vt 0.999338 0.695663
vt 1.420184 1.958677
vt 0.999338 0.744956
vt 0.713284 0.800408
vt 0.999338 0.391001
vt 1.018264 0.411233
vt 0.999338 0.389213
vt 0.951278 0.246755
vt 0.999338 0.635930
vt 1.420176 0.657950
vt 0.999337 0.637718
vt 0.799491 0.904667
vt 0.847555 1.416591
vt 0.999338 0.331972
vt 0.512623 0.328994
vt 1.554156 1.648914
vt 1.219227 2.248210
vt 0.799495 2.191000
vt 0.799491 0.744956
vt 1.554147 0.164516
vt 0.999338 0.719958
vt 0.799495 2.403091
vt 0.646597 2.403091
vt 1.085255 2.345882
vt 1.152241 2.403091
vt 0.999343 2.403091
vt 1.487162 0.986906
vt 0.999338 0.909434
vt 1.621133 1.069145
vt 0.999338 0.966675
vt 1.353199 1.783565
vt 0.799495 1.726355
vt 0.866667 0.540523
vt 0.866667 0.540799
vt 0.866667 0.541019
vt 0.866667 0.590523
vt 0.866667 0.590799
vt 0.866667 0.533333
vt 0.866667 0.640799
vt 0.866667 0.591019
vt 0.950000 0.711111
vt 0.866667 0.691019
vt 0.866667 0.640523
vt 0.866667 0.690523
vt 0.877778 0.248090
vt 0.877778 0.248366
vt 0.877778 0.297870
vt 0.877778 0.298090
vt 0.877778 0.298366
vt 0.877778 0.347870
vt 0.877778 0.348090
vt 0.877778 0.348366
vt 0.961111 0.355556
vt 0.877778 0.348090
vt 0.877778 0.177778
vt 0.877778 0.197870
vt 0.877778 0.198365
s 0
usemtl wood
f 66/1/1 49/2/1 45/3/1
f 76/4/1 2/5/1 1/6/1
f 63/10/3 39/11/3 61/12/3
f 81/19/4 80/20/4 91/21/4
f 90/22/1 8/23/1 15/24/1
f 32/25/3 113/26/3 31/27/3
f 107/28/3 114/29/3 116/30/3
f 73/31/5 49/2/5 69/32/5
f 34/33/3 117/34/3 35/35/3
f 56/36/3 118/37/3 120/38/3
f 14/39/6 1/40/6 4/41/6
f 87/48/1 12/49/1 125/50/1
f 85/51/7 3/52/7 78/53/7
f 38/57/5 119/58/5 34/33/5
f 60/59/7 120/60/7 129/61/7
f 63/62/8 41/63/8 42/64/8
f 31/65/5 131/66/5 20/67/5
f 106/68/9 132/69/9 114/70/9
f 72/71/3 53/72/3 73/31/3
f 84/73/7 8/23/7 83/74/7
f 20/67/1 133/75/1 28/76/1
f 95/77/1 134/78/1 132/69/1
f 71/79/3 54/80/3 74/81/3
f 36/82/1 135/83/1 11/84/1
f 58/85/1 136/86/1 137/87/1
f 96/88/3 22/89/3 97/90/3
f 68/91/5 52/92/5 72/93/5
f 35/94/10 138/95/10 36/82/10
f 57/96/5 137/97/5 118/98/5
f 17/99/3 139/100/3 18/101/3
f 93/102/3 142/103/3 92/104/3
f 24/108/3 143/109/3 25/110/3
f 99/111/3 144/112/3 146/113/3
f 78/53/1 5/114/1 80/115/1
f 46/116/1 48/117/1 67/118/1
f 68/91/1 43/119/1 47/120/1
f 19/121/1 147/122/1 33/123/1
f 94/124/1 148/125/1 149/126/1
f 74/81/10 46/116/10 67/118/10
f 41/63/1 154/136/1 153/137/1
f 91/138/3 26/139/3 101/140/3
f 66/1/7 51/141/7 71/142/7
f 97/90/7 12/49/7 87/48/7
f 18/143/5 127/144/5 30/145/5
f 93/146/5 128/147/5 140/148/5
f 28/76/10 145/152/10 24/108/10
f 103/153/5 146/154/5 134/78/5
f 80/115/9 16/155/9 91/156/9
f 89/157/3 9/158/3 84/73/3
f 33/123/5 141/159/5 17/99/5
f 108/160/5 142/161/5 148/162/5
f 61/12/11 43/119/11 64/163/11
f 11/84/11 115/164/11 32/25/11
f 86/165/7 116/30/7 136/166/7
f 90/22/5 21/167/5 96/168/5
f 88/169/3 10/170/3 85/51/3
f 25/171/9 150/172/9 19/121/9
f 100/173/7 149/174/7 144/175/7
f 76/4/7 14/176/7 89/177/7
f 101/140/12 2/5/12 77/178/12
f 149/188/13 140/189/13 111/189/13
f 112/190/14 125/191/14 126/191/14
f 109/192/15 139/192/15 150/193/15
f 153/194/3 156/195/3 155/195/3
f 66/1/1 69/32/1 49/2/1
f 76/4/1 77/178/1 2/5/1
f 63/10/3 42/197/3 39/11/3
f 89/204/16 84/205/16 83/206/16
f 89/204/17 83/206/17 79/207/17
f 83/206/18 90/208/18 79/207/18
f 101/209/19 77/210/19 91/21/19
f 77/210/18 76/211/18 81/19/18
f 91/21/20 77/210/20 81/19/20
f 76/211/21 89/204/21 79/207/21
f 96/212/4 97/213/4 87/214/4
f 96/212/4 87/214/4 82/215/4
f 87/214/18 105/216/18 82/215/18
f 93/217/18 92/218/18 108/219/18
f 90/208/18 96/212/18 82/215/18
f 93/217/4 108/219/4 98/220/4
f 108/219/18 94/221/18 98/220/18
f 82/215/18 105/216/18 98/220/18
f 105/216/17 93/217/17 98/220/17
f 100/222/4 99/223/4 103/224/4
f 100/222/21 103/224/21 102/225/21
f 103/224/18 95/226/18 102/225/18
f 94/221/4 100/222/4 102/225/4
f 106/227/19 107/228/19 86/229/19
f 98/220/18 94/221/18 102/225/18
f 106/227/18 86/229/18 104/230/18
f 86/229/18 58/231/18 104/230/18
f 95/226/4 106/227/4 104/230/4
f 57/232/4 56/233/4 60/234/4
f 57/232/4 60/234/4 59/235/4
f 60/234/18 62/236/18 59/235/18
f 63/237/18 61/238/18 64/239/18
f 58/231/18 57/232/18 59/235/18
f 63/237/19 64/239/19 65/240/19
f 64/239/18 68/241/18 65/240/18
f 62/236/21 63/237/21 65/240/21
f 72/242/18 73/243/18 69/244/18
f 58/231/18 59/235/18 104/230/18
f 59/235/18 62/236/18 65/240/18
f 72/242/18 69/244/18 75/245/18
f 69/244/18 66/246/18 75/245/18
f 68/241/16 72/242/16 75/245/16
f 71/247/18 74/248/18 67/249/18
f 71/247/18 67/249/18 70/250/18
f 67/249/18 48/251/18 40/252/18
f 70/250/18 67/249/18 40/252/18
f 75/245/18 65/240/18 68/241/18
f 70/250/18 75/245/18 66/246/18
f 66/246/4 71/247/4 70/250/4
f 104/230/18 102/225/18 95/226/18
f 82/215/18 79/207/18 90/208/18
f 81/19/18 88/253/18 80/20/18
f 88/253/18 85/254/18 78/255/18
f 80/20/18 88/253/18 78/255/18
f 79/207/18 81/19/18 76/211/18
f 90/22/1 83/74/1 8/23/1
f 32/25/3 115/256/3 113/26/3
f 107/28/3 106/257/3 114/29/3
f 73/31/7 53/72/7 49/2/7
f 34/33/3 119/58/3 117/34/3
f 56/36/3 57/258/3 118/37/3
f 33/259/22 17/260/22 18/261/22
f 30/262/23 12/263/23 7/264/23
f 12/263/23 22/265/23 21/266/23
f 19/267/23 33/259/23 23/268/23
f 33/259/24 18/261/24 23/268/24
f 12/263/25 21/266/25 7/264/25
f 18/261/26 30/262/26 23/268/26
f 28/269/6 24/270/6 25/271/6
f 20/272/23 28/269/23 27/273/23
f 28/269/26 25/271/26 27/273/26
f 11/274/6 32/275/6 31/276/6
f 25/271/23 19/267/23 27/273/23
f 36/277/23 11/274/23 29/278/23
f 11/274/6 31/276/6 29/278/6
f 31/276/27 20/272/27 29/278/27
f 38/279/26 34/280/26 35/281/26
f 19/267/23 23/268/23 27/273/23
f 41/282/23 38/279/23 37/283/23
f 38/279/28 35/281/28 37/283/28
f 35/281/29 36/277/29 37/283/29
f 43/284/6 39/285/6 42/286/6
f 47/287/23 43/284/23 44/288/23
f 43/284/30 42/286/30 44/288/30
f 49/289/23 53/290/23 52/291/23
f 42/286/24 41/282/24 44/288/24
f 45/292/23 49/289/23 55/293/23
f 49/289/23 52/291/23 55/293/23
f 52/291/23 47/287/23 55/293/23
f 46/294/23 54/295/23 51/296/23
f 48/297/23 46/294/23 40/298/23
f 46/294/23 51/296/23 50/299/23
f 50/299/23 40/298/23 46/294/23
f 37/283/23 44/288/23 41/282/23
f 44/288/23 55/293/23 47/287/23
f 55/293/23 50/299/23 45/292/23
f 45/292/30 50/299/30 51/296/30
f 29/278/23 37/283/23 36/277/23
f 27/273/23 29/278/23 20/272/23
f 7/264/23 23/268/23 30/262/23
f 21/266/30 15/300/30 7/264/30
f 13/301/23 6/302/23 5/303/23
f 6/302/23 4/41/23 1/40/23
f 5/303/26 6/302/26 16/304/26
f 4/41/23 7/264/23 15/300/23
f 15/300/23 8/305/23 4/41/23
f 8/305/27 9/306/27 14/39/27
f 10/307/30 13/301/30 3/308/30
f 5/303/23 3/308/23 13/301/23
f 2/309/23 26/310/23 16/304/23
f 16/304/27 6/302/27 2/309/27
f 1/40/23 2/309/23 6/302/23
f 8/305/27 14/39/27 4/41/27
f 125/50/1 128/147/1 105/313/1
f 12/49/1 30/145/1 126/314/1
f 30/145/1 127/144/1 126/314/1
f 125/50/1 105/313/1 87/48/1
f 12/49/1 126/314/1 125/50/1
f 85/51/8 10/170/8 3/52/8
f 38/57/8 130/316/8 119/58/8
f 60/59/7 56/36/7 120/60/7
f 63/62/9 62/317/9 41/63/9
f 31/65/5 113/318/5 131/66/5
f 106/68/5 95/77/5 132/69/5
f 72/71/3 52/319/3 53/72/3
f 84/73/7 9/158/7 8/23/7
f 20/67/1 131/320/1 133/75/1
f 95/77/1 103/153/1 134/78/1
f 71/79/3 51/321/3 54/80/3
f 36/82/1 138/322/1 135/83/1
f 58/85/1 86/165/1 136/86/1
f 96/88/3 21/323/3 22/89/3
f 68/91/5 47/120/5 52/92/5
f 35/94/11 117/324/11 138/95/11
f 57/96/11 58/85/11 137/97/11
f 17/99/3 141/159/3 139/100/3
f 93/102/3 140/325/3 142/103/3
f 24/108/3 145/327/3 143/109/3
f 99/111/3 100/328/3 144/112/3
f 78/53/1 3/52/1 5/114/1
f 68/91/1 64/163/1 43/119/1
f 19/121/1 150/172/1 147/122/1
f 94/124/1 108/160/1 148/125/1
f 74/81/9 54/80/9 46/116/9
f 130/316/1 38/57/1 41/63/1
f 41/63/1 62/317/1 154/136/1
f 62/317/1 60/59/1 129/332/1
f 154/136/1 62/317/1 129/332/1
f 153/137/1 130/316/1 41/63/1
f 91/138/3 16/333/3 26/139/3
f 66/1/9 45/3/9 51/141/9
f 97/90/5 22/89/5 12/49/5
f 18/143/5 139/334/5 127/144/5
f 93/146/11 105/313/11 128/147/11
f 28/76/9 133/75/9 145/152/9
f 103/153/9 99/111/9 146/154/9
f 80/115/31 5/114/31 16/155/31
f 89/157/3 14/340/3 9/158/3
f 33/123/11 147/341/11 141/159/11
f 108/160/5 92/104/5 142/161/5
f 61/12/11 39/11/11 43/119/11
f 11/84/7 135/83/7 115/164/7
f 86/165/7 107/28/7 116/30/7
f 90/22/5 15/24/5 21/167/5
f 88/169/3 13/342/3 10/170/3
f 25/171/7 143/343/7 150/172/7
f 100/173/7 94/124/7 149/174/7
f 76/4/5 1/6/5 14/176/5
f 101/140/5 26/139/5 2/5/5
f 129/346/13 120/347/13 118/347/13
f 137/348/13 136/349/13 114/350/13
f 136/349/13 116/350/13 114/350/13
f 154/351/13 129/346/13 118/347/13
f 154/351/13 118/347/13 156/351/13
f 118/347/13 137/348/13 152/347/13
f 156/351/13 118/347/13 152/347/13
f 124/352/13 122/350/13 132/353/13
f 122/350/13 152/347/13 137/348/13
f 132/353/13 122/350/13 114/350/13
f 125/354/13 110/354/13 128/355/13
f 110/354/13 111/189/13 128/355/13
f 111/189/13 124/352/13 149/188/13
f 137/348/13 114/350/13 122/350/13
f 132/353/13 134/356/13 144/352/13
f 134/356/13 146/352/13 144/352/13
f 148/357/13 142/189/13 140/189/13
f 140/189/32 128/355/32 111/189/32
f 124/352/13 132/353/13 144/352/13
f 149/188/13 124/352/13 144/352/13
f 149/188/13 148/357/13 140/189/13
f 112/190/14 110/190/14 125/191/14
f 145/358/15 133/359/15 143/358/15
f 133/359/15 131/360/15 143/358/15
f 113/361/15 115/361/15 135/362/15
f 113/361/15 135/362/15 138/363/15
f 150/193/15 143/358/15 123/358/15
f 143/358/15 131/360/15 123/358/15
f 131/360/15 113/361/15 121/361/15
f 113/361/15 138/363/15 121/361/15
f 117/364/15 119/364/15 130/365/15
f 117/364/15 130/365/15 153/366/15
f 153/366/15 155/366/15 117/364/15
f 155/366/15 151/367/15 117/364/15
f 121/361/15 123/358/15 131/360/15
f 123/358/15 109/192/15 150/193/15
f 138/363/33 117/364/33 151/367/33
f 151/367/15 121/361/15 138/363/15
f 109/192/15 112/368/15 127/369/15
f 112/368/15 126/368/15 127/369/15
f 109/192/15 127/369/15 139/192/15
f 139/192/15 141/192/15 147/370/15
f 139/192/15 147/370/15 150/193/15
f 153/194/3 154/194/3 156/195/3
usemtl wood_black
f 79/7/2 6/8/2 81/9/2
f 7/13/2 82/14/2 112/15/2
f 65/16/2 55/17/2 44/18/2
f 29/42/2 123/43/2 121/44/2
f 104/45/2 124/46/2 102/47/2
f 82/54/2 4/55/2 79/56/2
f 75/105/2 50/106/2 55/107/2
f 81/127/2 13/128/2 88/129/2
f 37/130/2 121/131/2 151/132/2
f 59/133/2 122/134/2 104/135/2
f 65/149/2 155/150/2 156/151/2
f 27/179/2 109/180/2 123/181/2
f 102/182/2 111/183/2 98/184/2
f 70/185/2 40/186/2 50/187/2
f 79/7/2 4/196/2 6/8/2
f 109/198/2 23/199/2 112/15/2
f 23/199/2 7/13/2 112/15/2
f 82/14/2 98/200/2 110/201/2
f 98/200/2 111/202/2 110/201/2
f 82/14/2 110/201/2 112/15/2
f 65/16/2 75/203/2 55/17/2
f 29/42/2 27/311/2 123/43/2
f 104/45/2 122/312/2 124/46/2
f 82/54/2 7/315/2 4/55/2
f 75/105/2 70/326/2 50/106/2
f 81/127/2 6/329/2 13/128/2
f 37/130/2 29/330/2 121/131/2
f 59/133/2 152/331/2 122/134/2
f 152/335/2 59/336/2 65/149/2
f 65/149/2 44/337/2 155/150/2
f 44/337/2 37/338/2 151/339/2
f 155/150/2 44/337/2 151/339/2
f 156/151/2 152/335/2 65/149/2
f 27/179/2 23/344/2 109/180/2
f 102/182/2 124/345/2 111/183/2
