# Blender 4.0.2
# www.blender.org
mtllib isolated_plate_wall_roof_3500_frame_win_600x600.mtl
o isolated_plate_wall_roof_3500_frame_win_600x600
v 0.094938 0.250000 -1.251674
v 0.094938 0.250000 1.251674
v 0.024938 0.250000 -1.251674
v 0.024938 0.250000 1.251674
v 0.094938 0.200000 -1.311262
v 0.094938 0.200000 1.311261
v 0.024938 0.200000 -1.311262
v 0.024938 0.200000 1.311261
v 0.094938 1.279301 0.025000
v 0.094938 0.250000 1.251674
v 0.024938 1.279301 0.025000
v 0.024938 0.250000 1.251674
v 0.094938 1.214031 0.025000
v 0.094938 0.250000 1.173888
v 0.024938 1.214031 0.025000
v 0.024938 0.250000 1.173888
v 0.094938 1.279301 0.025000
v 0.094938 0.940000 0.025000
v 0.024938 1.279301 0.025000
v 0.024938 0.940000 0.025000
v 0.094938 1.279301 -0.025000
v 0.094938 0.940000 -0.025000
v 0.024938 1.279301 -0.025000
v 0.024938 0.940000 -0.025000
v 0.094938 0.668696 0.674905
v 0.094938 0.250000 0.674906
v 0.024938 0.668696 0.674905
v 0.024938 0.250000 0.674906
v 0.094938 0.626741 0.724905
v 0.094938 0.250000 0.724906
v 0.024938 0.626741 0.724905
v 0.024938 0.250000 0.724906
v 0.024938 0.250000 -1.173888
v 0.024938 1.214031 -0.025000
v 0.094938 0.250000 -1.173888
v 0.094938 1.214031 -0.025000
v 0.024938 0.250000 -1.251674
v 0.024938 1.279301 -0.025000
v 0.094938 0.250000 -1.251674
v 0.094938 1.279301 -0.025000
v 0.024938 0.890000 0.320000
v 0.024938 0.890000 -0.320000
v 0.094938 0.890000 0.320000
v 0.094938 0.890000 -0.320000
v 0.024938 0.940000 0.320000
v 0.024938 0.940000 -0.320000
v 0.094938 0.940000 0.320000
v 0.094938 0.940000 -0.320000
v 0.094938 0.966497 0.319999
v 0.094938 0.250000 0.319999
v 0.024938 0.966497 0.319999
v 0.024938 0.250000 0.319999
v 0.094938 0.924543 0.369999
v 0.094938 0.250000 0.369999
v 0.024938 0.924543 0.369999
v 0.024938 0.250000 0.369999
v 0.094938 0.668696 -0.674905
v 0.094938 0.250000 -0.674906
v 0.024938 0.668696 -0.674905
v 0.024938 0.250000 -0.674906
v 0.094938 0.626741 -0.724905
v 0.094938 0.250000 -0.724906
v 0.024938 0.626741 -0.724905
v 0.024938 0.250000 -0.724906
v 0.094938 0.966497 -0.319999
v 0.094938 0.250000 -0.319999
v 0.024938 0.966497 -0.319999
v 0.024938 0.250000 -0.319999
v 0.094938 0.924543 -0.369999
v 0.094938 0.250000 -0.369999
v 0.024938 0.924543 -0.369999
v 0.024938 0.250000 -0.369999
vn -0.0000 1.0000 -0.0000
vn -0.0000 -1.0000 -0.0000
vn -0.0000 0.7660 -0.6428
vn -1.0000 -0.0000 -0.0000
vn 1.0000 -0.0000 -0.0000
vn -0.0000 0.7660 0.6428
vn -0.0000 -0.7660 -0.6428
vn -0.0000 -0.0000 -1.0000
vn -0.0000 -0.0000 1.0000
vn -0.0000 -0.7660 0.6428
vt 1.781218 0.869281
vt 0.963131 0.869281
vt 0.963131 0.892157
vt 1.781218 0.892157
vt 1.800689 0.915033
vt 1.800691 0.892157
vt 0.943658 0.892157
vt 0.943657 0.915033
vt 0.369284 0.172342
vt 0.369284 0.188682
vt 0.392160 0.188682
vt 0.392160 0.172342
vt 0.463133 0.743692
vt 0.443659 0.760032
vt 1.300692 0.760030
vt 1.281221 0.743690
vt -0.294290 0.782907
vt -0.313762 0.799247
vt 0.543270 0.799247
vt 0.523797 0.782907
vt 0.392155 0.156000
vt 0.392155 0.172340
vt 0.415031 0.172340
vt 0.415031 0.156000
vt 1.661938 0.869281
vt 1.261064 0.869282
vt 1.261064 0.892157
vt 1.661938 0.892157
vt 1.636516 0.915033
vt 1.636516 0.892157
vt 1.261064 0.892158
vt 1.261063 0.915034
vt 0.990474 -0.287857
vt 0.983836 -0.279947
vt 1.001358 -0.265240
vt 1.007996 -0.273150
vt 0.731774 0.184508
vt 0.745486 0.200850
vt 1.235606 0.200877
vt 1.255077 0.184537
vt -0.290325 0.206210
vt -0.270852 0.222551
vt 0.219255 0.222536
vt 0.232965 0.206194
vt 0.275638 0.571853
vt 0.266558 0.580934
vt 0.282737 0.597105
vt 0.291816 0.588025
vt 0.130719 1.380345
vt 0.130719 1.380345
vt 0.107843 1.380345
vt 0.107843 1.380345
vt 0.084967 1.364004
vt 0.107843 1.364004
vt 0.107843 1.364004
vt 0.084967 1.364004
vt 1.575016 0.369293
vt 1.574994 0.392168
vt 0.592696 0.880370
vt 0.592693 0.864027
vt 0.481806 0.864021
vt 0.481809 0.880363
vt 0.442585 0.106575
vt 0.442584 0.122917
vt 0.553467 0.122914
vt 0.553469 0.106572
vt -0.166054 0.392158
vt -0.166049 0.392157
vt -0.166034 0.415033
vt -0.166074 0.415035
vt 0.130719 1.380345
vt 0.084967 1.364004
vt 0.084967 1.364004
vt 0.107843 1.364004
vt 0.107843 1.364004
vt 1.575015 0.369287
vt 1.574994 0.392162
vt 1.574994 0.392161
vt 1.575015 0.369287
vt 0.393206 1.272559
vt 0.256369 1.272548
vt 0.256373 1.288892
vt 0.379499 1.288901
vt 0.217144 -0.285587
vt 0.353973 -0.285594
vt 0.340265 -0.301935
vt 0.217146 -0.301929
vt -0.166606 0.392194
vt -0.166608 0.415070
vt -0.166630 0.415072
vt -0.166628 0.392196
vt 0.107843 1.364004
vt 0.696474 0.767612
vt 0.680132 0.767611
vt 0.680170 0.976803
vt 0.696513 0.976805
vt 0.657261 0.010149
vt 0.640921 0.010150
vt 0.640897 0.219330
vt 0.657237 0.219330
vt -0.166522 0.392188
vt -0.166522 0.392188
vt -0.166525 0.415065
vt -0.166525 0.415065
vt 1.575015 0.369292
vt 1.575015 0.369292
vt 1.574993 0.392167
vt 1.574993 0.392167
vt 0.107843 1.380345
vt 0.130719 1.380345
vt 0.084967 1.364004
vt 0.107843 1.364004
vt 1.575012 0.369289
vt 1.574992 0.392163
vt 1.574992 0.392163
vt 1.575013 0.369288
vt 0.490501 1.156562
vt 0.256336 1.156542
vt 0.256340 1.172885
vt 0.476794 1.172905
vt 0.217129 -0.169590
vt 0.451279 -0.169602
vt 0.437571 -0.185943
vt 0.217131 -0.185932
vt -0.166447 0.392180
vt -0.166449 0.415057
vt -0.166471 0.415058
vt -0.166469 0.392182
s 0
usemtl wood.002
f 2/1/1 1/2/1 3/3/1 4/4/1
f 6/5/2 8/6/2 7/7/2 5/8/2
f 1/9/3 5/10/3 7/11/3 3/12/3
f 3/13/4 7/14/4 8/15/4 4/16/4
f 2/17/5 6/18/5 5/19/5 1/20/5
f 4/21/6 8/22/6 6/23/6 2/24/6
f 10/25/6 9/26/6 11/27/6 12/28/6
f 14/29/7 16/30/7 15/31/7 13/32/7
f 9/33/8 13/34/8 15/35/8 11/36/8
f 11/37/4 15/38/4 16/39/4 12/40/4
f 10/41/5 14/42/5 13/43/5 9/44/5
f 12/45/2 16/46/2 14/47/2 10/48/2
f 18/49/9 17/50/9 19/51/9 20/52/9
f 22/53/8 24/54/8 23/55/8 21/56/8
f 17/57/1 21/57/1 23/58/1 19/58/1
f 19/59/4 23/60/4 24/61/4 20/62/4
f 18/63/5 22/64/5 21/65/5 17/66/5
f 20/67/2 24/68/2 22/69/2 18/70/2
f 26/71/8 28/52/8 27/52/8 25/49/8
f 30/72/9 29/73/9 31/74/9 32/75/9
f 25/76/6 27/77/6 31/78/6 29/79/6
f 27/80/4 28/81/4 32/82/4 31/83/4
f 26/84/5 25/85/5 29/86/5 30/87/5
f 28/88/2 26/89/2 30/90/2 32/91/2
f 39/41/5 40/44/5 36/43/5 35/42/5
f 39/25/3 37/28/3 38/27/3 40/26/3
f 38/37/4 37/40/4 33/39/4 34/38/4
f 35/29/10 36/32/10 34/31/10 33/30/10
f 37/45/2 39/48/2 35/47/2 33/46/2
f 40/33/9 38/36/9 34/35/9 36/34/9
f 43/56/2 41/92/2 42/92/2 44/56/2
f 47/50/1 48/50/1 46/52/1 45/52/1
f 46/93/4 42/94/4 41/95/4 45/96/4
f 47/97/5 43/98/5 44/99/5 48/100/5
f 45/101/9 41/102/9 43/103/9 47/104/9
f 48/105/8 44/106/8 42/107/8 46/108/8
f 50/71/8 52/52/8 51/109/8 49/110/8
f 54/72/9 53/111/9 55/112/9 56/75/9
f 49/113/6 51/114/6 55/115/6 53/116/6
f 51/117/4 52/118/4 56/119/4 55/120/4
f 50/121/5 49/122/5 53/123/5 54/124/5
f 52/125/2 50/126/2 54/127/2 56/128/2
f 58/71/9 57/49/9 59/52/9 60/52/9
f 62/72/8 64/75/8 63/74/8 61/73/8
f 57/76/3 61/79/3 63/78/3 59/77/3
f 59/80/4 63/83/4 64/82/4 60/81/4
f 58/84/5 62/87/5 61/86/5 57/85/5
f 60/88/2 64/91/2 62/90/2 58/89/2
f 66/71/9 65/110/9 67/109/9 68/52/9
f 70/72/8 72/75/8 71/112/8 69/111/8
f 65/113/3 69/116/3 71/115/3 67/114/3
f 67/117/4 71/120/4 72/119/4 68/118/4
f 66/121/5 70/124/5 69/123/5 65/122/5
f 68/125/2 72/128/2 70/127/2 66/126/2
