# Blender 4.0.2
# www.blender.org
mtllib tile_spantbeen_3500.mtl
o tile_spantbeen_3500
v 0.200000 0.200000 1.750000
v 0.000000 0.200000 1.750000
v 0.200000 1.636958 0.037501
v 0.200000 1.375877 0.037500
v 0.000000 1.375877 0.037500
v 0.000000 1.636958 0.037500
v 0.000000 0.200000 1.438856
v 0.200000 0.200000 1.438855
v 0.000000 0.200000 -1.750000
v 0.200000 0.200000 -1.750000
v 0.000000 1.636958 -0.037501
v 0.000000 1.375877 -0.037500
v 0.200000 1.375877 -0.037500
v 0.200000 1.636958 -0.037500
v 0.200000 0.200000 -1.438856
v 0.000000 0.200000 -1.438855
vn -0.0000 -0.0000 -1.0000
vn -0.0000 -1.0000 -0.0000
vn -0.0000 0.7660 0.6428
vn 1.0000 -0.0000 -0.0000
vn -1.0000 -0.0000 -0.0000
vn -0.0000 -0.7660 -0.6428
vn -0.0000 -0.0000 1.0000
vn -0.0000 0.7660 -0.6428
vn -0.0000 -0.7660 0.6428
vt 0.503659 0.281073
vt 0.503660 0.218765
vt 0.584997 0.218765
vt 0.584996 0.281073
vt 0.594842 0.179823
vt 0.594842 0.242131
vt 0.497908 0.242131
vt 0.497908 0.179823
vt 0.696513 0.108094
vt 0.696513 0.170402
vt 0.000065 0.170402
vt 0.000065 0.108095
vt 0.644230 0.084729
vt 0.696513 0.147037
vt 0.000065 0.147037
vt 0.074321 0.084729
vt 0.696513 0.170402
vt 0.644230 0.232710
vt 0.074321 0.232710
vt 0.074321 0.137691
vt 0.074321 0.075383
vt 0.644230 0.075383
vt 0.644230 0.137691
s 0
usemtl wood
f 4/1/1 5/2/1 6/3/1 3/4/1
f 1/5/2 2/6/2 7/7/2 8/8/2
f 3/9/3 6/10/3 2/11/3 1/12/3
f 4/13/4 3/14/4 1/15/4 8/16/4
f 6/17/5 5/18/5 7/19/5 2/11/5
f 8/20/6 7/21/6 5/22/6 4/23/6
f 12/1/7 13/2/7 14/3/7 11/4/7
f 9/5/2 10/6/2 15/7/2 16/8/2
f 11/9/8 14/10/8 10/11/8 9/12/8
f 12/13/5 11/14/5 9/15/5 16/16/5
f 14/17/4 13/18/4 15/19/4 10/11/4
f 16/20/9 15/21/9 13/22/9 12/23/9
