# Blender 4.0.2
# www.blender.org
mtllib tile_rafter_3000.mtl
o tile_rafter_3000
v 0.075000 0.200000 1.500000
v 0.000000 0.200000 1.500000
v 0.075000 1.427183 0.037500
v 0.075000 1.224845 0.037500
v 0.000000 1.224845 0.037500
v 0.000000 1.427183 0.037500
v 0.000000 0.165482 1.300000
v 0.075000 0.165482 1.300000
v 0.075000 1.259363 0.037500
v 0.000000 1.259363 0.037500
v 0.000000 0.200000 1.300000
v 0.075000 0.200000 1.300000
v 0.000000 0.200000 -1.500000
v 0.075000 0.200000 -1.500000
v 0.000000 1.427183 -0.037501
v 0.000000 1.224845 -0.037500
v 0.075000 1.224845 -0.037500
v 0.075000 1.427183 -0.037500
v 0.075000 0.165482 -1.300000
v 0.000000 0.165482 -1.300000
v 0.000000 1.259363 -0.037500
v 0.075000 1.259363 -0.037500
v 0.075000 0.200000 -1.300000
v 0.000000 0.200000 -1.300000
vn -0.0000 -0.0000 -1.0000
vn -0.0000 -0.0000 1.0000
vn -0.0000 0.7660 0.6428
vn 1.0000 -0.0000 -0.0000
vn -1.0000 -0.0000 -0.0000
vn -0.0000 -0.7660 -0.6428
vn -0.0000 -1.0000 -0.0000
vn -0.0000 0.7660 -0.6428
vn -0.0000 -0.7660 0.6428
vt 0.467361 0.242131
vt 0.467361 0.218765
vt 0.519644 0.218765
vt 0.519644 0.242131
vt 0.532534 0.218765
vt 0.532534 0.242131
vt 0.532534 0.218765
vt 0.594842 0.147037
vt 0.594842 0.170402
vt 0.000065 0.170402
vt 0.000065 0.147037
vt 0.561235 0.106986
vt 0.047796 0.106986
vt 0.561235 0.210453
vt 0.554323 0.218691
vt 0.040883 0.218691
vt 0.047796 0.210453
vt 0.040883 0.098748
vt 0.040883 0.075383
vt 0.554323 0.075383
vt 0.554323 0.098748
vt 0.594842 0.218765
vt 0.594842 0.242131
vt 0.456607 0.242131
vt 0.456607 0.218765
s 0
usemtl wood
f 9/1/1 10/2/1 6/3/1 3/4/1
f 12/5/2 11/6/2 7/6/2 8/7/2
f 3/8/3 6/9/3 2/10/3 1/11/3
f 9/12/4 3/8/4 1/11/4 12/13/4
f 10/14/5 5/15/5 7/16/5 11/17/5
f 8/18/6 7/19/6 5/20/6 4/21/6
f 6/9/5 10/14/5 11/17/5 2/10/5
f 4/21/4 9/12/4 12/13/4 8/18/4
f 1/22/7 2/23/7 11/6/7 12/5/7
f 4/24/1 5/25/1 10/2/1 9/1/1
f 21/1/2 22/2/2 18/3/2 15/4/2
f 24/5/1 23/6/1 19/6/1 20/7/1
f 15/8/8 18/9/8 14/10/8 13/11/8
f 21/12/5 15/8/5 13/11/5 24/13/5
f 22/14/4 17/15/4 19/16/4 23/17/4
f 20/18/9 19/19/9 17/20/9 16/21/9
f 18/9/4 22/14/4 23/17/4 14/10/4
f 16/21/5 21/12/5 24/13/5 20/18/5
f 13/22/7 14/23/7 23/6/7 24/5/7
f 16/24/2 17/25/2 22/2/2 21/1/2
