# Blender 4.0.2
# www.blender.org
mtllib roof_tri_window_4500.mtl
o roof_tri_window_4500
v 0.004000 0.202571 1.935799
v -0.000000 0.204000 1.927873
v 0.004000 0.200000 1.934863
v 0.004000 1.738314 0.105564
v 0.004000 1.736885 0.102500
v -0.000000 1.732307 0.106500
v 0.004000 0.204000 0.102500
v 0.004000 0.200000 0.106500
v -0.000000 0.204000 0.106500
v 0.004000 0.242571 1.825900
v 0.004000 0.240000 1.824964
v -0.000000 0.236000 1.839954
v 0.004000 1.652534 0.145564
v -0.000000 1.663683 0.138500
v 0.004000 1.651105 0.142500
v 0.004000 0.244000 0.142500
v -0.000000 0.236000 0.138500
v 0.004000 0.240000 0.146500
v 0.030000 0.242571 1.825900
v 0.030000 0.240000 1.824964
v 0.030000 1.651105 0.142500
v 0.030000 1.652534 0.145564
v 0.030000 0.240000 0.146500
v 0.030000 0.244000 0.142500
v 0.056000 0.202571 1.935799
v 0.056000 0.200000 1.934863
v 0.060000 0.204000 1.927873
v 0.056000 1.738314 0.105564
v 0.060000 1.732307 0.106500
v 0.056000 1.736885 0.102500
v 0.056000 0.204000 0.102500
v 0.060000 0.204000 0.106500
v 0.056000 0.200000 0.106500
v 0.056000 0.242571 1.825900
v 0.060000 0.236000 1.839954
v 0.056000 0.240000 1.824964
v 0.056000 1.652534 0.145564
v 0.056000 1.651105 0.142500
v 0.060000 1.663683 0.138500
v 0.056000 0.244000 0.142500
v 0.056000 0.240000 0.146500
v 0.060000 0.236000 0.138500
v 0.056000 0.202571 -1.935799
v 0.060000 0.204000 -1.927873
v 0.056000 0.200000 -1.934863
v 0.056000 1.738314 -0.105564
v 0.056000 1.736885 -0.102500
v 0.060000 1.732307 -0.106500
v 0.056000 0.204000 -0.102500
v 0.056000 0.200000 -0.106500
v 0.060000 0.204000 -0.106500
v 0.056000 0.242571 -1.825900
v 0.056000 0.240000 -1.824964
v 0.060000 0.236000 -1.839954
v 0.056000 1.652534 -0.145564
v 0.060000 1.663683 -0.138500
v 0.056000 1.651105 -0.142500
v 0.056000 0.244000 -0.142500
v 0.060000 0.236000 -0.138500
v 0.056000 0.240000 -0.146500
v 0.030000 0.242571 -1.825900
v 0.030000 0.240000 -1.824964
v 0.030000 1.651105 -0.142500
v 0.030000 1.652534 -0.145564
v 0.030000 0.240000 -0.146500
v 0.030000 0.244000 -0.142500
v 0.004000 0.202571 -1.935799
v 0.004000 0.200000 -1.934863
v 0.000000 0.204000 -1.927873
v 0.004000 1.738314 -0.105564
v 0.000000 1.732307 -0.106500
v 0.004000 1.736885 -0.102500
v 0.004000 0.204000 -0.102500
v -0.000000 0.204000 -0.106500
v 0.004000 0.200000 -0.106500
v 0.004000 0.242571 -1.825900
v 0.000000 0.236000 -1.839954
v 0.004000 0.240000 -1.824964
v 0.004000 1.652534 -0.145564
v 0.004000 1.651105 -0.142500
v 0.000000 1.663683 -0.138500
v 0.004000 0.244000 -0.142500
v 0.004000 0.240000 -0.146500
v 0.000000 0.236000 -0.138500
vn -0.0000 -0.0000 1.0000
vn -0.0000 -1.0000 -0.0000
vn -0.0000 -0.7660 -0.6428
vn -0.0000 -0.0000 -1.0000
vn -0.0000 1.0000 -0.0000
vn -1.0000 -0.0000 -0.0000
vn 1.0000 -0.0000 -0.0000
vn -0.0000 0.7660 -0.6428
vn -0.0000 -0.7660 0.6428
vn -0.8930 -0.1539 0.4229
vn -0.8250 0.5122 -0.2388
vn -0.5774 -0.5774 -0.5773
vn -0.9681 0.0857 -0.2355
vn -0.9563 -0.2649 0.1235
vn -0.9045 0.3015 0.3015
vn 0.8930 -0.1540 0.4229
vn 0.8250 0.5122 -0.2388
vn 0.5773 -0.5774 -0.5773
vn 0.9681 0.0857 -0.2355
vn 0.9563 -0.2649 0.1235
vn 0.9045 0.3015 0.3015
vn 0.8930 -0.1540 -0.4229
vn 0.8250 0.5122 0.2388
vn 0.5773 -0.5774 0.5773
vn 0.9681 0.0857 0.2355
vn 0.9563 -0.2649 -0.1235
vn 0.9045 0.3015 -0.3015
vn -0.8930 -0.1539 -0.4229
vn -0.8250 0.5122 0.2388
vn -0.5774 -0.5774 0.5773
vn -0.9681 0.0857 0.2355
vn -0.9563 -0.2649 -0.1235
vn -0.9045 0.3015 -0.3015
vn -0.7071 -0.5417 -0.4545
vn -0.7071 -0.0000 0.7071
vn -0.7071 0.7071 -0.0000
vn -0.7071 0.5417 0.4545
vn -0.7071 -0.0000 -0.7071
vn -0.7071 -0.7071 -0.0000
vn -0.0000 0.7071 0.7071
vn -0.0000 0.3420 -0.9397
vn -0.0000 -0.9063 0.4226
vn 0.7071 -0.5417 -0.4545
vn 0.7071 -0.0000 0.7071
vn 0.7071 0.7071 -0.0000
vn 0.7071 0.5417 0.4545
vn 0.7071 -0.0000 -0.7071
vn 0.7071 -0.7071 -0.0000
vn -0.0000 -0.7071 -0.7071
vn -0.0000 -0.3420 0.9397
vn -0.0000 0.9063 -0.4226
vn 0.7071 -0.5417 0.4545
vn 0.7071 0.5417 -0.4545
vn -0.0000 0.7071 -0.7071
vn -0.0000 0.3420 0.9397
vn -0.0000 -0.9063 -0.4226
vn -0.7071 -0.5417 0.4545
vn -0.7071 0.5417 -0.4545
vn -0.0000 -0.7071 0.7071
vn -0.0000 -0.3420 -0.9397
vn -0.0000 0.9063 0.4226
vn -0.0000 0.7660 0.6428
vt 0.358165 0.192957
vt 0.358165 0.178341
vt 1.149182 0.178341
vt 1.149182 0.192957
vt 0.016572 0.836670
vt 1.044403 0.836670
vt 1.044403 0.865902
vt 0.016572 0.865902
vt 0.203206 0.228916
vt 0.203206 0.214300
vt 1.124431 0.214300
vt 1.124431 0.228916
vt 1.217675 0.264875
vt 0.355950 0.264875
vt 0.355950 0.235642
vt 1.217675 0.235642
vt 0.203206 0.199684
vt 1.124431 0.199684
vt 1.124431 0.214300
vt 0.203206 0.214300
vt 0.960499 0.872628
vt 0.960499 0.887244
vt 0.016935 0.887245
vt 0.016935 0.872628
vt 0.630092 0.955790
vt 0.648081 0.973779
vt -0.375821 0.973779
vt -0.326396 0.955790
vt 1.179949 0.124955
vt 1.218526 0.142944
vt 0.359374 0.142944
vt 0.377363 0.124955
vt 0.358165 0.163724
vt 1.149182 0.163725
vt 1.149182 0.178341
vt 0.358165 0.178341
vt 0.630092 0.997751
vt -0.326396 0.997751
vt -0.375821 0.979762
vt 0.648081 0.979762
vt 0.885137 0.829943
vt -0.123122 0.829943
vt -0.123123 0.800711
vt 0.885137 0.800711
vt 1.179948 0.302901
vt 0.377363 0.302901
vt 0.359374 0.284912
vt 1.218526 0.284912
vt -0.236020 1.153567
vt 1.012584 1.153566
vt 1.051162 1.171556
vt -0.285445 1.171557
vt 0.960499 0.901860
vt 0.016935 0.901861
vt 0.016935 0.887245
vt 0.960499 0.887244
vt -0.236020 0.704093
vt -0.285445 0.686104
vt 1.051164 0.686106
vt 1.012586 0.704095
vt 0.358165 0.192957
vt 1.149182 0.192957
vt 0.016572 0.836670
vt 1.044403 0.836670
vt 0.016572 0.865902
vt 0.203206 0.228916
vt 0.203206 0.214300
vt 1.124431 0.214300
vt 1.124431 0.228916
vt 1.217675 0.264875
vt 0.355950 0.264875
vt 0.355950 0.235642
vt 0.203206 0.199684
vt 1.124431 0.199684
vt 0.203206 0.214300
vt 0.960499 0.872628
vt 0.358165 0.163724
vt 0.648081 0.979762
vt 0.377363 0.302901
vt 0.359374 0.284912
vt 1.218526 0.284912
vt -0.236020 1.153567
vt 1.012584 1.153566
vt 1.051162 1.171556
vt -0.285445 1.171557
vt 0.016935 0.901861
vt 1.051164 0.686106
vt 1.012586 0.704095
vt -0.289374 0.683855
vt -0.285445 0.686104
vt -0.289637 0.684578
vt 1.218478 0.235642
vt 1.215101 0.233394
vt 0.014323 0.865902
vt 0.016572 0.868151
vt 0.961025 0.872628
vt 0.962748 0.870380
vt 0.201526 0.231164
vt 0.202606 0.228916
vt 0.381861 0.122706
vt 0.379612 0.122706
vt 1.044929 0.836670
vt 1.040473 0.834421
vt 1.053736 1.173805
vt 1.054138 1.172943
vt 0.355950 0.267123
vt 0.353701 0.264875
vt 1.126111 0.197435
vt 1.124824 0.199684
vt 1.149985 0.163724
vt 1.151430 0.161476
vt 0.014687 0.901861
vt 0.014687 0.904110
vt -0.289374 0.683855
vt -0.289637 0.684578
vt 1.005515 0.706344
vt 1.012586 0.704095
vt 1.006318 0.706344
vt 1.053736 1.173805
vt 1.054137 1.172943
vt 0.353701 0.264875
vt 1.149985 0.163725
vt 0.014687 0.901861
vt 1.126111 0.231164
vt 1.172878 0.122706
vt 0.014686 0.870380
vt 1.053738 0.683858
vt 1.221100 0.145192
vt 0.359374 0.145193
vt 1.040473 0.868150
vt 0.014686 0.887245
vt 0.014686 0.872628
vt 0.962748 0.872628
vt 0.962748 0.887244
vt 1.151430 0.178341
vt 1.151431 0.192957
vt 0.201527 0.197435
vt 0.355916 0.161476
vt 0.962747 0.904109
vt -0.289374 1.173805
vt 1.215101 0.267123
vt 0.016572 0.834421
vt 0.014686 0.887245
vt 0.962748 0.887244
vt 0.962748 0.901861
vt 1.151430 0.163725
vt 1.151431 0.178341
vt 0.014323 0.836670
vt 1.046652 0.836670
vt 1.046651 0.865902
vt 1.219924 0.235642
vt 1.219924 0.264875
vt 1.005515 0.706344
vt -0.227593 0.706341
vt 1.053738 0.683858
vt 0.648081 0.976027
vt -0.379750 0.976027
vt -0.289374 1.173805
vt 0.962748 0.901860
vt 1.151430 0.163725
vt 0.014323 0.836670
vt 1.046651 0.865902
vt 1.219924 0.235642
vt 0.885137 0.829943
vt -0.123123 0.800711
s 0
usemtl white
f 16/1/1 24/2/1 21/3/1 15/4/1
f 33/5/2 26/6/2 3/7/2 8/8/2
f 13/9/3 22/10/3 19/11/3 10/12/3
f 30/13/4 31/14/4 7/15/4 5/16/4
f 37/17/3 34/18/3 19/19/3 22/20/3
f 11/21/5 20/22/5 23/23/5 18/24/5
f 17/25/6 9/26/6 2/27/6 12/28/6
f 14/29/6 6/30/6 9/31/6 17/32/6
f 40/33/1 38/34/1 21/35/1 24/36/1
f 42/37/7 35/38/7 27/39/7 32/40/7
f 67/41/8 70/42/8 46/43/8 43/44/8
f 39/45/7 42/46/7 32/47/7 29/48/7
f 35/49/7 39/50/7 29/51/7 27/52/7
f 36/53/5 41/54/5 23/55/5 20/56/5
f 12/57/6 2/58/6 6/59/6 14/60/6
f 58/61/4 66/2/4 63/3/4 57/62/4
f 75/63/2 68/64/2 45/7/2 50/65/2
f 55/66/9 64/67/9 61/68/9 52/69/9
f 72/70/1 73/71/1 49/72/1 47/16/1
f 79/73/9 76/74/9 61/19/9 64/75/9
f 53/76/5 62/22/5 65/23/5 60/24/5
f 59/25/7 51/26/7 44/27/7 54/28/7
f 56/29/7 48/30/7 51/31/7 59/32/7
f 82/77/4 80/34/4 63/35/4 66/2/4
f 84/37/6 77/38/6 69/39/6 74/78/6
f 81/45/6 84/79/6 74/80/6 71/81/6
f 77/82/6 81/83/6 71/84/6 69/85/6
f 78/53/5 83/86/5 65/55/5 62/56/5
f 54/57/7 44/58/7 48/87/7 56/88/7
f 1/89/10 2/90/10 3/91/10
f 4/92/11 5/16/11 6/93/11
f 7/94/12 8/8/12 9/95/12
f 10/96/13 11/21/13 12/97/13
f 13/9/14 14/98/14 15/99/14
f 16/100/15 17/32/15 18/101/15
f 25/102/16 26/6/16 27/103/16
f 28/104/17 29/51/17 30/105/17
f 31/14/18 32/106/18 33/107/18
f 34/18/19 35/108/19 36/109/19
f 37/110/20 38/34/20 39/111/20
f 40/112/21 41/54/21 42/113/21
f 43/114/22 44/58/22 45/115/22
f 46/92/23 47/16/23 48/93/23
f 49/94/24 50/65/24 51/95/24
f 52/96/25 53/76/25 54/97/25
f 55/116/26 56/117/26 57/118/26
f 58/100/27 59/32/27 60/101/27
f 67/102/28 68/64/28 69/103/28
f 70/119/29 71/84/29 72/120/29
f 73/71/30 74/106/30 75/121/30
f 76/74/31 77/108/31 78/109/31
f 79/122/32 80/34/32 81/111/32
f 82/123/33 83/86/33 84/113/33
f 12/124/34 14/98/34 13/9/34 10/12/34
f 14/29/35 17/32/35 16/100/35 15/125/35
f 17/126/36 12/97/36 11/21/36 18/24/36
f 1/89/37 4/127/37 6/59/37 2/58/37
f 5/128/38 7/129/38 9/31/38 6/30/38
f 8/8/39 3/7/39 2/130/39 9/95/39
f 18/24/40 23/23/40 24/131/40 16/132/40
f 20/22/41 11/21/41 10/133/41 19/134/41
f 15/4/42 21/3/42 22/135/42 13/136/42
f 34/18/43 37/17/43 39/137/43 35/108/43
f 38/34/44 40/33/44 42/138/44 39/111/44
f 41/54/45 36/53/45 35/139/45 42/113/45
f 27/52/46 29/51/46 28/104/46 25/140/46
f 29/141/47 32/106/47 31/14/47 30/13/47
f 32/142/48 27/103/48 26/6/48 33/5/48
f 40/112/40 24/143/40 23/55/40 41/54/40
f 19/144/41 34/145/41 36/53/41 20/56/41
f 37/146/42 22/147/42 21/35/42 38/34/42
f 7/94/49 31/148/49 33/5/49 8/8/49
f 25/149/50 1/150/50 3/7/50 26/6/50
f 4/151/51 28/152/51 30/13/51 5/16/51
f 54/57/52 56/88/52 55/153/52 52/154/52
f 56/29/47 59/32/47 58/100/47 57/125/47
f 59/126/45 54/97/45 53/76/45 60/24/45
f 43/114/53 46/155/53 48/87/53 44/58/53
f 47/128/44 49/129/44 51/31/44 48/30/44
f 50/156/48 45/157/48 44/27/48 51/26/48
f 60/24/54 65/23/54 66/131/54 58/132/54
f 62/22/55 53/76/55 52/133/55 61/134/55
f 57/62/56 63/3/56 64/135/56 55/136/56
f 76/74/57 79/73/57 81/137/57 77/108/57
f 80/34/38 82/77/38 84/138/38 81/111/38
f 83/86/36 78/53/36 77/139/36 84/113/36
f 69/85/58 71/84/58 70/119/58 67/158/58
f 71/141/35 74/106/35 73/71/35 72/70/35
f 74/142/39 69/103/39 68/64/39 75/63/39
f 82/123/54 66/143/54 65/55/54 83/86/54
f 61/144/55 76/159/55 78/53/55 62/56/55
f 79/160/56 64/147/56 63/35/56 80/34/56
f 49/94/59 73/161/59 75/63/59 50/65/59
f 67/149/60 43/162/60 45/7/60 68/64/60
f 46/163/61 70/152/61 72/70/61 47/16/61
f 25/164/62 28/42/62 4/165/62 1/44/62
