# Blender 4.0.2
# www.blender.org
mtllib zadeldak_roof_bulk_4500.mtl
o zadeldak_roof_bulk_4500
v 0.024150 1.585775 -0.000870
v -0.023850 1.585775 -0.000870
v -0.023850 1.585775 0.000870
v 0.024150 1.585775 0.000860
v -0.024870 0.147113 -2.491714
v -0.024850 1.585275 -0.000000
v -0.023860 0.148183 -2.491854
v -0.024870 0.032713 -2.491854
v -0.023860 0.146683 -2.492724
v -0.023860 0.033223 -2.492724
v -0.023850 1.354825 0.000870
v -0.023850 1.354825 -0.000870
v 0.024150 1.354825 -0.000870
v 0.024150 1.354825 0.000870
v 0.024140 0.146683 -2.492724
v 0.024140 0.033223 -2.492724
v -0.024870 0.033223 -2.293714
v -0.024850 1.356325 -0.000000
v -0.023870 0.032223 -2.293714
v 0.024130 0.032223 -2.293714
v 0.024130 0.033223 -2.292724
v -0.023870 0.033223 -2.292724
v 0.025130 0.147113 -2.491714
v 0.025150 1.585275 -0.000000
v 0.025150 1.470795 -0.000000
v 0.025150 1.356325 -0.000000
v 0.025130 0.033223 -2.293714
v 0.025130 0.032713 -2.491854
v 0.024140 0.032223 -2.491714
v -0.023860 0.032223 -2.491714
v 0.024140 0.148183 -2.491854
v -0.024870 0.147112 2.491714
v -0.023860 0.148182 2.491854
v -0.024870 0.032712 2.491854
v -0.023860 0.033222 2.492724
v -0.023860 0.146682 2.492724
v 0.024140 0.033222 2.492724
v 0.024140 0.146682 2.492724
v -0.024870 0.033222 2.293714
v -0.023870 0.032222 2.293714
v -0.023870 0.033222 2.292724
v 0.024130 0.033222 2.292724
v 0.024130 0.032222 2.293714
v 0.025130 0.147112 2.491714
v 0.025130 0.032712 2.491854
v 0.025130 0.033222 2.293714
v -0.023860 0.032222 2.491714
v 0.024140 0.032222 2.491714
v 0.024140 0.148182 2.491854
vn -0.0000 1.0000 -0.0000
vn -0.6801 0.6349 -0.3665
vn -0.6813 0.0004 -0.7320
vn -0.0000 -1.0000 -0.0000
vn -0.0000 -0.0000 -1.0000
vn -1.0000 -0.0000 -0.0000
vn -0.0000 -0.7036 0.7106
vn 1.0000 -0.0000 -0.0000
vn -0.0000 -0.7106 -0.7036
vn 0.6838 0.6320 -0.3648
vn -0.0000 -0.8663 0.4995
vn -0.5755 -0.5754 0.5812
vn -0.5754 -0.5751 0.5815
vn 0.5755 -0.5754 0.5812
vn 0.8320 -0.5548 -0.0000
vn -0.8320 -0.5548 -0.0000
vn -0.8323 -0.5543 -0.0000
vn -0.4472 0.8945 -0.0000
vn 0.4471 0.8945 -0.0000
vn 0.2445 -0.6887 -0.6826
vn -0.2400 -0.6899 -0.6829
vn -0.5458 0.4206 -0.7247
vn 0.5535 0.4180 -0.7204
vn -0.5955 -0.8033 0.0010
vn -0.6541 -0.6553 0.3779
vn -0.6542 -0.6549 0.3783
vn -0.4435 -0.7764 0.4479
vn -0.4434 -0.7766 0.4476
vn -0.0000 0.5017 -0.8651
vn 0.6540 -0.6553 0.3780
vn 0.4434 -0.7765 0.4478
vn 0.5994 -0.8005 0.0010
vn -0.0000 0.8661 -0.4998
vn 0.6886 0.0004 -0.7252
vn -0.6801 0.6350 0.3665
vn -0.6813 0.0005 0.7320
vn -0.0000 -0.0000 1.0000
vn -0.0000 -0.7036 -0.7106
vn -0.0000 -0.7106 0.7036
vn 0.6828 0.6328 0.3652
vn -0.0000 -0.8663 -0.4995
vn -0.5755 -0.5754 -0.5812
vn 0.5755 -0.5754 -0.5812
vn 0.2446 -0.6890 0.6822
vn -0.2400 -0.6899 0.6829
vn -0.5458 0.4204 0.7248
vn 0.5535 0.4180 0.7204
vn -0.5955 -0.8033 -0.0010
vn -0.6541 -0.6553 -0.3779
vn -0.6542 -0.6550 -0.3782
vn -0.4435 -0.7764 -0.4479
vn -0.4435 -0.7766 -0.4474
vn -0.0000 0.5017 0.8650
vn 0.6540 -0.6553 -0.3780
vn 0.4433 -0.7765 -0.4478
vn 0.5994 -0.8005 -0.0010
vn 0.0001 0.8661 0.4998
vn 0.6886 0.0004 0.7252
vt 0.001205 1.395345
vt 0.001205 1.381185
vt 0.000705 1.381155
vt 0.000705 1.395385
vt 0.848869 1.381142
vt 0.001025 1.380815
vt 0.848760 1.381554
vt 0.244822 0.001911
vt 0.211480 0.001617
vt 0.211618 0.002024
vt 0.244684 0.002288
vt 0.020133 0.171604
vt 0.020093 0.171084
vt 0.006023 0.170404
vt 0.005933 0.170914
vt 0.379807 0.585307
vt 0.346317 0.585307
vt 0.346327 0.599471
vt 0.379817 0.599471
vt 0.019046 0.503447
vt 0.000561 0.531711
vt 0.049641 0.563541
vt 0.830244 0.606335
vt 0.867174 0.549725
vt 0.045504 0.599471
vt 0.052625 0.587234
vt 0.052266 0.587025
vt 0.045145 0.599262
vt 0.886189 0.910855
vt 0.037037 0.930711
vt 0.054617 0.959581
vt 0.072187 0.988441
vt 0.853732 0.969968
vt 0.903782 0.939681
vt 0.023836 0.048029
vt 0.027050 0.061778
vt 0.027457 0.061679
vt 0.024240 0.047930
vt 0.848740 1.395230
vt 0.001035 1.395715
vt 0.848852 1.395643
vt 0.777939 1.418150
vt 0.000102 1.418150
vt 0.000102 1.432320
vt 0.777939 1.432324
vt 0.011078 0.073218
vt 0.011440 0.073019
vt 0.011080 0.072805
vt 0.024799 0.123348
vt 0.025155 0.123555
vt 0.025169 0.123138
vt 0.005503 0.170494
vt 0.020593 0.171224
vt 0.016016 0.116353
vt 0.015577 0.116465
vt 0.015949 0.116691
vt 0.004395 0.102583
vt 0.004166 0.102963
vt 0.004576 0.102848
vt 0.017793 0.059446
vt 0.018304 0.059489
vt 0.018145 0.059100
vt 0.011279 0.054913
vt 0.011440 0.054514
vt 0.010947 0.054553
vt 0.938018 0.023869
vt 0.880872 0.036299
vt 0.880980 0.036609
vt 0.938103 0.024275
vt 0.780227 1.471466
vt 0.000874 1.473119
vt 0.000433 1.473509
vt 0.779972 1.473222
vt 0.001169 1.471594
vt 0.780227 1.473509
vt 0.001786 0.072921
vt 0.001793 0.086946
vt 0.002288 0.086944
vt 0.002282 0.072920
vt 0.915223 1.478085
vt 0.135129 1.476355
vt 0.135579 1.476745
vt 0.782515 0.606061
vt 0.003952 0.608623
vt 0.782267 0.606340
vt 0.070974 0.345497
vt 0.128131 0.333225
vt 0.128039 0.332815
vt 0.070943 0.345169
vt 0.847475 1.395335
vt 0.847475 1.381183
vt 0.173240 0.590197
vt 0.176247 0.604047
vt 0.233382 0.591667
vt 0.230375 0.577817
vt 0.179344 0.006864
vt 0.212789 0.006541
vt 0.212658 0.006169
vt 0.179488 0.006462
vt 0.848869 1.491403
vt 0.848758 1.491813
vt 0.001169 1.491043
vt 0.000989 1.490673
vt 0.034321 0.303936
vt 0.034184 0.304312
vt 0.000901 0.304156
vt 0.000761 0.303750
vt 0.597173 0.491497
vt 0.597183 0.505661
vt 0.563693 0.505661
vt 0.563683 0.491497
vt 0.019047 0.503448
vt 0.002049 0.972424
vt 0.001688 0.972214
vt 0.008791 0.959940
vt 0.009152 0.960151
vt 0.005517 0.036553
vt 0.005913 0.036458
vt 0.009152 0.050242
vt 0.008755 0.050337
vt 0.848756 1.360782
vt 0.848869 1.361192
vt 0.000941 1.361394
vt 0.001111 1.361024
vt 0.777939 1.436454
vt 0.777939 1.450628
vt 0.000102 1.450624
vt 0.000102 1.436454
vt 0.004217 0.096098
vt 0.004217 0.095692
vt 0.004576 0.095894
vt 0.006492 0.075294
vt 0.006864 0.075082
vt 0.006855 0.075506
vt 0.006864 0.136960
vt 0.006809 0.137283
vt 0.006465 0.137047
vt 0.006673 0.098013
vt 0.006864 0.098275
vt 0.006446 0.098386
vt 0.010929 0.004524
vt 0.011280 0.004187
vt 0.011440 0.004576
vt 0.022728 0.052625
vt 0.022385 0.052285
vt 0.022881 0.052243
vt 0.258466 0.325917
vt 0.258550 0.326325
vt 0.201446 0.338632
vt 0.201337 0.338320
vt 0.780227 1.476045
vt 0.000427 1.478085
vt 0.000867 1.477695
vt 0.782258 0.608334
vt 0.782515 0.608623
vt 0.003476 0.606491
vt 0.377032 0.331523
vt 0.377529 0.331520
vt 0.377513 0.345494
vt 0.377016 0.345497
vt 0.780227 1.482661
vt 0.000581 1.481323
vt 0.000131 1.480933
vt 1.308769 1.304157
vt 1.308521 1.304449
vt 0.530244 1.306481
vt 0.135037 0.336344
vt 0.135011 0.336012
vt 0.192108 0.323611
vt 0.192197 0.324025
vt 0.846581 1.414009
vt 0.000311 1.414019
vt 0.000311 1.399859
vt 0.846581 1.399857
vt 0.557633 0.516979
vt 0.614768 0.504599
vt 0.617775 0.518449
vt 0.560640 0.530829
vt 0.094725 0.002288
vt 0.094866 0.001886
vt 0.127995 0.001565
vt 0.128131 0.001937
s 0
usemtl wood
f 1/1/1 2/2/1 3/3/1 4/4/1
f 5/5/2 6/6/2 2/2/2 7/7/2
f 8/8/3 5/9/3 9/10/3 10/11/3
f 11/12/4 12/13/4 13/14/4 14/15/4
f 10/16/5 9/17/5 15/18/5 16/19/5
f 5/20/6 8/21/6 17/22/6 18/23/6 6/24/6
f 19/25/7 20/26/7 21/27/7 22/28/7
f 23/29/8 24/30/8 25/31/8 26/32/8 27/33/8 28/34/8
f 10/35/9 16/36/9 29/37/9 30/38/9
f 31/39/10 1/1/10 24/40/10 23/41/10
f 21/42/11 13/43/11 12/44/11 22/45/11
f 17/46/12 19/47/13 22/48/12
f 21/49/14 20/50/14 27/51/14
f 14/15/15 13/14/15 26/52/15
f 12/13/16 11/12/16 18/53/17
f 3/3/18 2/2/18 6/6/18
f 1/1/19 4/4/19 24/40/19
f 29/54/20 16/55/20 28/56/20
f 8/57/21 10/58/21 30/59/21
f 7/60/22 9/61/22 5/62/22
f 23/63/23 15/64/23 31/65/23
f 17/66/24 8/67/24 30/68/24 19/69/24
f 22/70/25 12/71/25 18/72/26
f 22/73/27 18/74/28 17/75/27
f 7/76/29 31/77/29 15/78/29 9/79/29
f 27/80/30 26/81/30 13/82/30
f 27/83/31 13/84/31 21/85/31
f 28/86/32 27/87/32 20/88/32 29/89/32
f 31/90/33 7/91/33 2/2/33 1/1/33
f 30/92/4 29/93/4 20/94/4 19/95/4
f 23/96/34 28/97/34 16/98/34 15/99/34
f 32/100/35 33/101/35 3/102/35 6/103/35
f 34/104/36 35/105/36 36/106/36 32/107/36
f 35/108/37 37/109/37 38/110/37 36/111/37
f 32/112/6 6/24/6 18/23/6 39/22/6 34/21/6
f 40/113/38 41/114/38 42/115/38 43/116/38
f 44/29/8 45/34/8 46/33/8 26/32/8 25/31/8 24/30/8
f 35/117/39 47/118/39 48/119/39 37/120/39
f 49/121/40 44/122/40 24/123/40 4/124/40
f 42/125/41 41/126/41 11/127/41 14/128/41
f 39/129/42 41/130/42 40/131/42
f 42/132/43 46/133/43 43/134/43
f 48/135/44 45/136/44 37/137/44
f 34/138/45 47/139/45 35/140/45
f 33/141/46 32/142/46 36/143/46
f 44/144/47 49/145/47 38/146/47
f 39/147/48 40/148/48 47/149/48 34/150/48
f 41/151/49 18/152/50 11/153/49
f 41/154/51 39/155/51 18/156/52
f 33/157/53 36/158/53 38/159/53 49/160/53
f 46/161/54 14/162/54 26/163/54
f 46/164/55 42/165/55 14/166/55
f 45/167/56 48/168/56 43/169/56 46/170/56
f 49/171/57 4/172/57 3/173/57 33/174/57
f 47/175/4 40/176/4 43/177/4 48/178/4
f 44/179/58 38/180/58 37/181/58 45/182/58
