# Blender 4.0.2
# www.blender.org
mtllib tile_ridge_start.mtl
o tile_ridge_start
v 0.000000 0.120922 0.000000
v 0.060000 0.111192 0.052487
v 0.060000 0.118466 0.026758
v 0.020001 0.118466 0.026758
v 0.020001 0.111192 0.052487
v 0.020001 0.099379 0.076199
v 0.020001 0.083482 0.096983
v 0.020001 0.064111 0.114041
v 0.020001 0.042012 0.126715
v 0.020001 0.018032 0.134520
v 0.020001 0.000000 0.137770
v 0.020001 -0.031845 0.134520
v 0.020001 -0.055824 0.126715
v 0.020001 -0.077924 0.114041
v 0.020001 -0.097295 0.096983
v 0.020001 -0.113192 0.076199
v 0.000000 -0.134735 0.000000
v 0.000000 -0.132279 0.026758
v 0.000000 -0.125005 0.052487
v 0.000000 -0.113192 0.076199
v 0.000000 -0.097295 0.096983
v 0.000000 -0.077924 0.114041
v 0.000000 -0.055824 0.126715
v 0.000000 -0.031845 0.134520
v 0.000000 0.000000 0.137770
v 0.000000 0.018032 0.134520
v 0.000000 0.042012 0.126715
v 0.000000 0.064111 0.114041
v 0.000000 0.083482 0.096983
v 0.000000 0.099379 0.076199
v 0.000000 0.111192 0.052487
v 0.000000 0.118466 0.026758
v 0.020001 -0.125005 0.052487
v 0.020001 -0.132279 0.026758
v 0.020001 -0.134735 0.000000
v 0.020001 0.120922 0.000000
v 0.060000 0.099379 0.076199
v 0.060000 0.083482 0.096983
v 0.060000 0.064111 0.114041
v 0.060000 0.042012 0.126715
v 0.060000 0.018032 0.134520
v 0.060000 0.000000 0.137770
v 0.060000 0.120922 0.000000
v 0.060000 0.091981 0.043419
v 0.060000 0.097999 0.022135
v 0.060000 0.082210 0.063034
v 0.060000 0.069059 0.080228
v 0.060000 0.053035 0.094338
v 0.060000 0.034753 0.104823
v 0.060000 0.014916 0.111279
v 0.060000 0.000000 0.113967
v 0.060000 0.100031 0.000000
v 0.250000 0.091981 0.043419
v 0.250000 0.097999 0.022135
v 0.250000 0.082210 0.063034
v 0.250000 0.069059 0.080228
v 0.250000 0.053035 0.094338
v 0.250000 0.034753 0.104823
v 0.250000 0.014916 0.111279
v 0.250000 0.000000 0.113967
v 0.250000 0.100031 0.000000
v 0.250000 0.081438 0.038442
v 0.250000 0.086766 0.019598
v 0.250000 0.072786 0.055809
v 0.250000 0.061143 0.071032
v 0.250000 0.046956 0.083524
v 0.250000 0.030770 0.092807
v 0.250000 0.013207 0.098524
v 0.250000 0.000000 0.100904
v 0.250000 0.088565 0.000000
v 0.060000 0.000000 0.100904
v 0.020001 0.081438 0.038442
v 0.020001 0.086766 0.019598
v 0.020001 0.072786 0.055809
v 0.020001 0.061143 0.071032
v 0.020001 0.046956 0.083524
v 0.020001 0.030770 0.092807
v 0.020001 0.013207 0.098524
v 0.020001 0.000000 0.100904
v 0.020001 0.088565 0.000000
v 0.060000 0.111192 -0.052487
v 0.060000 0.118466 -0.026758
v 0.020001 0.118466 -0.026758
v 0.020001 0.111192 -0.052487
v 0.020001 0.099379 -0.076199
v 0.020001 0.083482 -0.096983
v 0.020001 0.064111 -0.114040
v 0.020001 0.042012 -0.126715
v 0.020001 0.018032 -0.134520
v 0.020001 0.000000 -0.137770
v 0.020001 -0.031845 -0.134520
v 0.020001 -0.055824 -0.126715
v 0.020001 -0.077924 -0.114040
v 0.020001 -0.097295 -0.096983
v 0.020001 -0.113192 -0.076199
v 0.000000 -0.132279 -0.026758
v 0.000000 -0.125005 -0.052487
v 0.000000 -0.113192 -0.076199
v 0.000000 -0.097295 -0.096983
v 0.000000 -0.077924 -0.114040
v 0.000000 -0.055824 -0.126715
v 0.000000 -0.031845 -0.134520
v 0.000000 0.000000 -0.137770
v 0.000000 0.018032 -0.134520
v 0.000000 0.042012 -0.126715
v 0.000000 0.064111 -0.114040
v 0.000000 0.083482 -0.096983
v 0.000000 0.099379 -0.076199
v 0.000000 0.111192 -0.052487
v 0.000000 0.118466 -0.026758
v 0.020001 -0.125005 -0.052487
v 0.020001 -0.132279 -0.026758
v 0.060000 0.099379 -0.076199
v 0.060000 0.083482 -0.096983
v 0.060000 0.064111 -0.114040
v 0.060000 0.042012 -0.126715
v 0.060000 0.018032 -0.134520
v 0.060000 0.000000 -0.137770
v 0.060000 0.091981 -0.043419
v 0.060000 0.097999 -0.022135
v 0.060000 0.082210 -0.063034
v 0.060000 0.069059 -0.080228
v 0.060000 0.053035 -0.094338
v 0.060000 0.034753 -0.104822
v 0.060000 0.014916 -0.111279
v 0.060000 0.000000 -0.113967
v 0.250000 0.091981 -0.043419
v 0.250000 0.097999 -0.022135
v 0.250000 0.082210 -0.063034
v 0.250000 0.069059 -0.080228
v 0.250000 0.053035 -0.094338
v 0.250000 0.034753 -0.104822
v 0.250000 0.014916 -0.111279
v 0.250000 0.000000 -0.113967
v 0.250000 0.081438 -0.038442
v 0.250000 0.086766 -0.019598
v 0.250000 0.072786 -0.055809
v 0.250000 0.061143 -0.071032
v 0.250000 0.046956 -0.083524
v 0.250000 0.030770 -0.092807
v 0.250000 0.013207 -0.098524
v 0.250000 0.000000 -0.100904
v 0.060000 0.000000 -0.100904
v 0.020001 0.081438 -0.038442
v 0.020001 0.086766 -0.019598
v 0.020001 0.072786 -0.055809
v 0.020001 0.061143 -0.071032
v 0.020001 0.046956 -0.083524
v 0.020001 0.030770 -0.092807
v 0.020001 0.013207 -0.098524
v 0.020001 0.000000 -0.100904
vn -0.0000 -0.8485 0.5291
vn -0.0000 -0.7311 0.6823
vn -0.0000 0.9832 0.1825
vn -0.0000 0.9327 0.3605
vn -0.0000 0.5821 0.8131
vn -0.0000 0.7311 0.6823
vn -0.0000 -0.2067 0.9784
vn -0.0000 0.0852 0.9964
vn -0.0000 0.0383 0.9993
vn -0.0000 -0.5821 0.8131
vn -0.0000 -1.0000 -0.0000
vn -0.0000 -0.9832 0.1825
vn -0.0000 0.8485 0.5291
vn -0.0000 1.0000 -0.0000
vn -0.0000 0.2440 0.9698
vn -0.0000 -0.9327 0.3605
vn -0.0000 -0.4056 0.9140
vn -0.0000 0.4056 0.9140
vn 1.0000 -0.0000 -0.0000
vn -0.0000 0.1774 0.9841
vn -0.0000 -0.8485 -0.5291
vn -0.0000 -0.9327 -0.3605
vn -0.0000 -0.2440 -0.9698
vn -0.0000 -0.1774 -0.9841
vn -0.0000 -0.5821 -0.8131
vn -0.0000 -0.7311 -0.6823
vn -0.0000 -0.9832 -0.1825
vn -0.0000 -0.4057 -0.9140
vn -0.0000 0.9832 -0.1825
vn -0.0000 0.9327 -0.3605
vn -0.0000 0.7311 -0.6823
vn -0.0000 0.5821 -0.8131
vn -0.0000 0.0852 -0.9964
vn -0.0000 -0.2067 -0.9784
vn -0.0000 0.0383 -0.9993
vn -0.0000 0.8485 -0.5291
vn -0.0000 0.2440 -0.9698
vn -0.0000 -0.4056 -0.9140
vn -0.0000 0.4056 -0.9140
vn -0.0000 0.1774 -0.9841
vn -0.0000 -0.2440 0.9698
vn -0.0000 -0.1774 0.9841
vn -0.0000 -0.4057 0.9140
vn -1.0000 -0.0000 -0.0000
vt 0.502207 0.026128
vt 0.508472 0.034324
vt 0.502207 0.034324
vt 0.502206 0.122890
vt 0.508472 0.114515
vt 0.508472 0.122890
vt 0.502206 0.089935
vt 0.508472 0.098020
vt 0.502206 0.098020
vt 0.502206 0.058289
vt 0.508472 0.068316
vt 0.502206 0.068316
vt 0.508472 0.042409
vt 0.502206 0.042409
vt 0.502207 0.001037
vt 0.508472 0.009454
vt 0.502207 0.009454
vt 0.521001 0.106216
vt 0.508472 0.106216
vt 0.508471 0.131307
vt 0.502206 0.131307
vt 0.508472 0.074055
vt 0.502206 0.074055
vt 0.502207 0.017829
vt 0.508472 0.017829
vt 0.508472 0.050389
vt 0.502206 0.050389
vt 0.502206 0.106216
vt 0.508472 0.081954
vt 0.502206 0.081954
vt 0.502206 0.114514
vt 0.508472 0.089935
vt 0.508472 0.058289
vt 0.508472 0.026128
vt 0.521001 0.081954
vt 0.521001 0.114515
vt 0.521001 0.074055
vt 0.521001 0.098020
vt 0.521001 0.089935
vt 0.521001 0.131307
vt 0.521001 0.122890
vt 0.175172 0.486644
vt 0.165674 0.487906
vt 0.169793 0.482520
vt 0.157202 0.502468
vt 0.148714 0.497633
vt 0.154928 0.495610
vt 0.178872 0.479216
vt 0.172854 0.476376
vt 0.149690 0.504913
vt 0.144042 0.498475
vt 0.181150 0.471157
vt 0.174739 0.469709
vt 0.170192 0.493155
vt 0.160655 0.492326
vt 0.181920 0.462775
vt 0.175376 0.462775
vt 0.164124 0.498498
vt 0.383980 0.323269
vt 0.443497 0.330134
vt 0.383980 0.330134
vt 0.383980 0.291917
vt 0.443497 0.296664
vt 0.383980 0.296664
vt 0.383980 0.316489
vt 0.443497 0.323269
vt 0.383981 0.309800
vt 0.443497 0.316489
vt 0.383980 0.344025
vt 0.443497 0.337062
vt 0.443497 0.344025
vt 0.383980 0.303199
vt 0.443497 0.309800
vt 0.383980 0.337062
vt 0.443497 0.303199
vt 0.263716 0.495362
vt 0.256793 0.496395
vt 0.261237 0.492481
vt 0.273418 0.470231
vt 0.269263 0.476370
vt 0.269826 0.470231
vt 0.258697 0.499782
vt 0.251722 0.499302
vt 0.272781 0.477165
vt 0.267594 0.482273
vt 0.252970 0.503066
vt 0.246221 0.501093
vt 0.270897 0.483832
vt 0.264884 0.487713
vt 0.246756 0.505089
vt 0.242084 0.501839
vt 0.267836 0.489976
vt 0.336928 0.306863
vt 0.264883 0.312940
vt 0.264883 0.306863
vt 0.264883 0.283307
vt 0.324399 0.279104
vt 0.336928 0.283308
vt 0.336928 0.294938
vt 0.264883 0.300859
vt 0.264883 0.294938
vt 0.336928 0.319075
vt 0.264883 0.325239
vt 0.264883 0.319075
vt 0.336928 0.289093
vt 0.264883 0.289093
vt 0.336928 0.312940
vt 0.264883 0.343616
vt 0.336928 0.349619
vt 0.264883 0.349619
vt 0.345754 0.338393
vt 0.349846 0.278876
vt 0.349846 0.338393
vt 0.508471 0.228290
vt 0.502206 0.236486
vt 0.502206 0.228290
vt 0.508471 0.139724
vt 0.502206 0.148099
vt 0.502206 0.139724
vt 0.508471 0.164594
vt 0.502206 0.172679
vt 0.502206 0.164594
vt 0.508471 0.194298
vt 0.502206 0.204325
vt 0.502206 0.194298
vt 0.508471 0.220205
vt 0.502206 0.220205
vt 0.502206 0.253160
vt 0.508471 0.261577
vt 0.502206 0.261577
vt 0.521001 0.156398
vt 0.508471 0.156398
vt 0.508471 0.188559
vt 0.502206 0.188559
vt 0.508471 0.244785
vt 0.502206 0.244785
vt 0.508471 0.212224
vt 0.502206 0.212224
vt 0.502206 0.156398
vt 0.508471 0.180659
vt 0.502206 0.180659
vt 0.508471 0.148099
vt 0.508471 0.172679
vt 0.508471 0.204325
vt 0.508471 0.236486
vt 0.521001 0.180659
vt 0.521001 0.148099
vt 0.521001 0.188559
vt 0.521001 0.164594
vt 0.521001 0.172679
vt 0.521001 0.139724
vt 0.175172 0.438906
vt 0.165674 0.437644
vt 0.170192 0.432396
vt 0.157202 0.423083
vt 0.148714 0.427918
vt 0.149690 0.420638
vt 0.178872 0.446334
vt 0.169793 0.443030
vt 0.144042 0.427076
vt 0.144042 0.419620
vt 0.181150 0.454394
vt 0.172854 0.449175
vt 0.160655 0.433225
vt 0.164124 0.427053
vt 0.174739 0.455842
vt 0.154928 0.429940
vt 0.443497 0.357916
vt 0.383980 0.364781
vt 0.383980 0.357916
vt 0.443497 0.391385
vt 0.383981 0.396133
vt 0.383980 0.391385
vt 0.443497 0.364781
vt 0.383980 0.371561
vt 0.443497 0.371561
vt 0.383980 0.378249
vt 0.383980 0.350987
vt 0.443497 0.378249
vt 0.383980 0.384851
vt 0.443497 0.350987
vt 0.443497 0.384851
vt 0.263716 0.445100
vt 0.256793 0.444068
vt 0.258697 0.440680
vt 0.269263 0.464092
vt 0.272781 0.463298
vt 0.251722 0.441160
vt 0.252970 0.437396
vt 0.267594 0.458189
vt 0.270897 0.456630
vt 0.246221 0.439369
vt 0.246756 0.435374
vt 0.264884 0.452749
vt 0.267836 0.450486
vt 0.242084 0.438624
vt 0.242084 0.434532
vt 0.261237 0.447981
vt 0.336928 0.337538
vt 0.264883 0.337538
vt 0.336928 0.367171
vt 0.336928 0.371375
vt 0.324399 0.371375
vt 0.264883 0.355541
vt 0.336928 0.325239
vt 0.264883 0.331404
vt 0.336928 0.355541
vt 0.264883 0.361386
vt 0.336928 0.331404
vt 0.428640 0.012606
vt 0.421184 0.000076
vt 0.432732 0.000076
vt 0.336928 0.361386
vt 0.264883 0.367171
vt 0.009749 0.447640
vt 0.008853 0.405594
vt 0.051556 0.452205
vt 0.344000 0.103807
vt 0.345540 0.111961
vt 0.279925 0.085691
vt 0.336928 0.300859
vt 0.508472 0.001037
vt 0.521001 0.068316
vt 0.144042 0.505931
vt 0.443497 0.291917
vt 0.242084 0.505931
vt 0.264883 0.279104
vt 0.336928 0.279104
vt 0.336928 0.343616
vt 0.349846 0.350922
vt 0.338298 0.350922
vt 0.338298 0.338393
vt 0.345754 0.278876
vt 0.508471 0.253160
vt 0.521001 0.194298
vt 0.443497 0.396133
vt 0.264883 0.371375
vt 0.432732 0.012606
vt 0.432732 0.072122
vt 0.428640 0.072122
vt 0.421184 0.012606
vt 0.001584 0.431412
vt 0.001052 0.425432
vt 0.006306 0.408939
vt 0.001685 0.419544
vt 0.003459 0.413975
vt 0.001052 0.397079
vt 0.009095 0.391092
vt 0.003261 0.437253
vt 0.006018 0.442733
vt 0.019530 0.455011
vt 0.014311 0.451786
vt 0.031113 0.458244
vt 0.025203 0.457192
vt 0.048002 0.454450
vt 0.042736 0.456846
vt 0.037033 0.458127
vt 0.066024 0.453231
vt 0.059357 0.460720
vt 0.072334 0.438750
vt 0.069912 0.446354
vt 0.072472 0.422547
vt 0.073198 0.430712
vt 0.066419 0.407089
vt 0.070183 0.414571
vt 0.055095 0.394729
vt 0.061324 0.400389
vt 0.040224 0.387348
vt 0.047970 0.390325
vt 0.024071 0.386071
vt 0.032155 0.385912
vt 0.016285 0.387820
vt 0.345540 0.120336
vt 0.344000 0.128611
vt 0.266938 0.106824
vt 0.340979 0.136467
vt 0.265398 0.115099
vt 0.336594 0.143603
vt 0.331013 0.149744
vt 0.265398 0.123474
vt 0.324449 0.154654
vt 0.269958 0.139248
vt 0.317157 0.158145
vt 0.274343 0.146040
vt 0.309415 0.160082
vt 0.301522 0.160391
vt 0.279925 0.151744
vt 0.291646 0.158657
vt 0.286488 0.156140
vt 0.266937 0.131628
vt 0.269958 0.098968
vt 0.274344 0.091832
vt 0.286488 0.080781
vt 0.340979 0.096187
vt 0.293781 0.077290
vt 0.336594 0.089395
vt 0.301522 0.075353
vt 0.309416 0.075044
vt 0.331013 0.083691
vt 0.315128 0.075601
vt 0.324450 0.079295
s 1
usemtl tile
f 20/1/1 15/2/2 21/3/2
f 32/4/3 5/5/4 4/6/3
f 28/7/5 7/8/6 29/9/6
f 24/10/7 11/11/8 25/12/9
f 21/3/2 14/13/10 22/14/10
f 17/15/11 34/16/12 18/17/12
f 7/8/6 37/18/13 6/19/13
f 32/4/3 36/20/14 1/21/14
f 25/12/9 10/22/15 26/23/15
f 19/24/16 34/16/12 33/25/16
f 22/14/10 13/26/17 23/27/17
f 29/9/6 6/19/13 30/28/13
f 26/23/15 9/29/18 27/30/18
f 30/28/13 5/5/4 31/31/4
f 27/30/18 8/32/5 28/7/5
f 23/27/17 12/33/7 24/10/7
f 19/24/16 16/34/1 20/1/1
f 10/22/15 40/35/18 9/29/18
f 5/5/4 37/18/13 2/36/4
f 11/11/8 41/37/15 10/22/15
f 8/32/5 38/38/6 7/8/6
f 8/32/5 40/35/18 39/39/5
f 4/6/3 43/40/14 36/20/14
f 4/6/3 2/36/4 3/41/3
f 37/42/19 47/43/19 46/44/19
f 40/45/19 50/46/19 49/47/19
f 2/48/19 46/44/19 44/49/19
f 41/50/19 51/51/19 50/46/19
f 3/52/19 44/49/19 45/53/19
f 38/54/19 48/55/19 47/43/19
f 43/56/19 45/53/19 52/57/19
f 39/58/19 49/47/19 48/55/19
f 46/59/13 53/60/4 44/61/4
f 51/62/20 59/63/15 50/64/15
f 47/65/6 55/66/13 46/59/13
f 48/67/5 56/68/6 47/65/6
f 52/69/14 54/70/3 61/71/14
f 49/72/18 57/73/5 48/67/5
f 44/61/4 54/70/3 45/74/3
f 50/64/15 58/75/18 49/72/18
f 56/76/19 66/77/19 65/78/19
f 61/79/19 63/80/19 70/81/19
f 57/82/19 67/83/19 66/77/19
f 54/84/19 62/85/19 63/80/19
f 58/86/19 68/87/19 67/83/19
f 53/88/19 64/89/19 62/85/19
f 59/90/19 69/91/19 68/87/19
f 55/92/19 65/78/19 64/89/19
f 74/93/21 62/94/22 64/95/21
f 68/96/23 71/97/24 78/98/23
f 76/99/25 65/100/26 66/101/25
f 73/102/27 70/103/11 63/104/27
f 77/105/28 66/101/25 67/106/28
f 72/107/22 63/104/27 62/94/22
f 137/108/1 147/109/2 138/110/2
f 78/98/23 67/106/28 68/96/23
f 126/111/11 142/112/11 143/113/11
f 94/114/26 98/115/21 99/116/26
f 83/117/29 109/118/30 110/119/29
f 86/120/31 106/121/32 107/122/31
f 90/123/33 102/124/34 103/125/35
f 93/126/25 99/116/26 100/127/25
f 96/128/27 35/129/11 17/130/11
f 113/131/36 86/120/31 85/132/36
f 36/20/14 110/119/29 1/21/14
f 89/133/37 103/125/35 104/134/37
f 111/135/22 96/128/27 97/136/22
f 92/137/38 100/127/25 101/138/38
f 85/132/36 107/122/31 108/139/36
f 88/140/39 104/134/37 105/141/39
f 84/142/30 108/139/36 109/118/30
f 87/143/32 105/141/39 106/121/32
f 91/144/34 101/138/38 102/124/34
f 95/145/21 97/136/22 98/115/21
f 116/146/39 89/133/37 88/140/39
f 81/147/30 85/132/36 84/142/30
f 117/148/37 90/123/33 89/133/37
f 114/149/31 87/143/32 86/120/31
f 115/150/32 88/140/39 87/143/32
f 36/20/14 82/151/29 83/117/29
f 82/151/29 84/142/30 83/117/29
f 113/152/19 122/153/19 114/154/19
f 116/155/19 125/156/19 117/157/19
f 81/158/19 121/159/19 113/152/19
f 117/157/19 126/160/19 118/161/19
f 82/162/19 119/163/19 81/158/19
f 114/154/19 123/164/19 115/165/19
f 43/56/19 120/166/19 82/162/19
f 115/165/19 124/167/19 116/155/19
f 127/168/30 121/169/36 119/170/30
f 133/171/37 126/172/40 125/173/37
f 129/174/36 122/175/31 121/169/36
f 130/176/31 123/177/32 122/175/31
f 61/71/14 120/178/29 52/69/14
f 131/179/32 124/180/39 123/177/32
f 128/181/29 119/170/30 120/178/29
f 132/182/39 125/173/37 124/180/39
f 130/183/19 139/184/19 131/185/19
f 61/79/19 136/186/19 128/187/19
f 131/185/19 140/188/19 132/189/19
f 128/187/19 135/190/19 127/191/19
f 132/189/19 141/192/19 133/193/19
f 127/191/19 137/194/19 129/195/19
f 133/193/19 142/196/19 134/197/19
f 129/195/19 138/198/19 130/183/19
f 144/199/16 137/108/1 135/200/16
f 150/201/41 151/202/42 143/203/42
f 147/109/2 139/204/10 138/110/2
f 80/205/11 136/206/12 70/103/11
f 148/207/10 140/208/17 139/204/10
f 145/209/12 135/200/16 136/206/12
f 51/210/11 11/211/11 79/212/11
f 149/213/43 141/214/41 140/208/17
f 80/215/19 79/216/19 151/217/19
f 98/218/44 97/219/44 108/220/44
f 75/221/26 64/95/21 65/100/26
f 20/1/1 16/34/1 15/2/2
f 32/4/3 31/31/4 5/5/4
f 28/7/5 8/32/5 7/8/6
f 24/10/7 12/33/7 11/11/8
f 21/3/2 15/2/2 14/13/10
f 17/15/11 35/222/11 34/16/12
f 7/8/6 38/38/6 37/18/13
f 32/4/3 4/6/3 36/20/14
f 25/12/9 11/11/8 10/22/15
f 19/24/16 18/17/12 34/16/12
f 22/14/10 14/13/10 13/26/17
f 29/9/6 7/8/6 6/19/13
f 26/23/15 10/22/15 9/29/18
f 30/28/13 6/19/13 5/5/4
f 27/30/18 9/29/18 8/32/5
f 23/27/17 13/26/17 12/33/7
f 19/24/16 33/25/16 16/34/1
f 10/22/15 41/37/15 40/35/18
f 5/5/4 6/19/13 37/18/13
f 11/11/8 42/223/20 41/37/15
f 8/32/5 39/39/5 38/38/6
f 8/32/5 9/29/18 40/35/18
f 4/6/3 3/41/3 43/40/14
f 4/6/3 5/5/4 2/36/4
f 37/42/19 38/54/19 47/43/19
f 40/45/19 41/50/19 50/46/19
f 2/48/19 37/42/19 46/44/19
f 41/50/19 42/224/19 51/51/19
f 3/52/19 2/48/19 44/49/19
f 38/54/19 39/58/19 48/55/19
f 43/56/19 3/52/19 45/53/19
f 39/58/19 40/45/19 49/47/19
f 46/59/13 55/66/13 53/60/4
f 51/62/20 60/225/20 59/63/15
f 47/65/6 56/68/6 55/66/13
f 48/67/5 57/73/5 56/68/6
f 52/69/14 45/74/3 54/70/3
f 49/72/18 58/75/18 57/73/5
f 44/61/4 53/60/4 54/70/3
f 50/64/15 59/63/15 58/75/18
f 56/76/19 57/82/19 66/77/19
f 61/79/19 54/84/19 63/80/19
f 57/82/19 58/86/19 67/83/19
f 54/84/19 53/88/19 62/85/19
f 58/86/19 59/90/19 68/87/19
f 53/88/19 55/92/19 64/89/19
f 59/90/19 60/226/19 69/91/19
f 55/92/19 56/76/19 65/78/19
f 74/93/21 72/107/22 62/94/22
f 69/227/24 71/97/24 68/96/23
f 71/97/24 79/228/24 78/98/23
f 76/99/25 75/221/26 65/100/26
f 73/102/27 80/205/11 70/103/11
f 77/105/28 76/99/25 66/101/25
f 72/107/22 73/102/27 63/104/27
f 137/108/1 146/229/1 147/109/2
f 78/98/23 77/105/28 67/106/28
f 143/113/11 151/230/11 126/111/11
f 151/230/11 90/231/11 126/111/11
f 90/231/11 118/232/11 126/111/11
f 126/111/11 134/233/11 142/112/11
f 94/114/26 95/145/21 98/115/21
f 83/117/29 84/142/30 109/118/30
f 86/120/31 87/143/32 106/121/32
f 90/123/33 91/144/34 102/124/34
f 93/126/25 94/114/26 99/116/26
f 96/128/27 112/234/27 35/129/11
f 113/131/36 114/149/31 86/120/31
f 36/20/14 83/117/29 110/119/29
f 89/133/37 90/123/33 103/125/35
f 111/135/22 112/234/27 96/128/27
f 92/137/38 93/126/25 100/127/25
f 85/132/36 86/120/31 107/122/31
f 88/140/39 89/133/37 104/134/37
f 84/142/30 85/132/36 108/139/36
f 87/143/32 88/140/39 105/141/39
f 91/144/34 92/137/38 101/138/38
f 95/145/21 111/135/22 97/136/22
f 116/146/39 117/148/37 89/133/37
f 81/147/30 113/131/36 85/132/36
f 117/148/37 118/235/40 90/123/33
f 114/149/31 115/150/32 87/143/32
f 115/150/32 116/146/39 88/140/39
f 36/20/14 43/40/14 82/151/29
f 82/151/29 81/147/30 84/142/30
f 113/152/19 121/159/19 122/153/19
f 116/155/19 124/167/19 125/156/19
f 81/158/19 119/163/19 121/159/19
f 117/157/19 125/156/19 126/160/19
f 82/162/19 120/166/19 119/163/19
f 114/154/19 122/153/19 123/164/19
f 43/56/19 52/57/19 120/166/19
f 115/165/19 123/164/19 124/167/19
f 127/168/30 129/174/36 121/169/36
f 133/171/37 134/236/40 126/172/40
f 129/174/36 130/176/31 122/175/31
f 130/176/31 131/179/32 123/177/32
f 61/71/14 128/181/29 120/178/29
f 131/179/32 132/182/39 124/180/39
f 128/181/29 127/168/30 119/170/30
f 132/182/39 133/171/37 125/173/37
f 130/183/19 138/198/19 139/184/19
f 61/79/19 70/81/19 136/186/19
f 131/185/19 139/184/19 140/188/19
f 128/187/19 136/186/19 135/190/19
f 132/189/19 140/188/19 141/192/19
f 127/191/19 135/190/19 137/194/19
f 133/193/19 141/192/19 142/196/19
f 129/195/19 137/194/19 138/198/19
f 144/199/16 146/229/1 137/108/1
f 142/237/42 141/214/41 143/203/42
f 141/214/41 150/201/41 143/203/42
f 147/109/2 148/207/10 139/204/10
f 80/205/11 145/209/12 136/206/12
f 148/207/10 149/213/43 140/208/17
f 145/209/12 144/199/16 135/200/16
f 79/212/11 71/238/11 51/210/11
f 71/238/11 69/239/11 51/210/11
f 69/239/11 60/240/11 51/210/11
f 51/210/11 42/241/11 11/211/11
f 149/213/43 150/201/41 141/214/41
f 74/242/19 75/243/19 78/244/19
f 75/243/19 76/245/19 78/244/19
f 76/245/19 77/246/19 78/244/19
f 79/216/19 11/247/19 12/248/19
f 78/244/19 79/216/19 72/249/19
f 72/249/19 74/242/19 78/244/19
f 80/215/19 73/250/19 79/216/19
f 73/250/19 72/249/19 79/216/19
f 144/251/19 145/252/19 151/217/19
f 145/252/19 80/215/19 151/217/19
f 147/253/19 146/254/19 150/255/19
f 146/254/19 144/251/19 150/255/19
f 149/256/19 148/257/19 150/255/19
f 148/257/19 147/253/19 150/255/19
f 151/217/19 150/255/19 144/251/19
f 91/258/19 90/259/19 151/217/19
f 93/260/19 92/261/19 151/217/19
f 92/261/19 91/258/19 151/217/19
f 95/262/19 94/263/19 151/217/19
f 94/263/19 93/260/19 151/217/19
f 112/264/19 111/265/19 151/217/19
f 111/265/19 95/262/19 151/217/19
f 34/266/19 35/267/19 79/216/19
f 35/267/19 112/264/19 151/217/19
f 16/268/19 33/269/19 79/216/19
f 33/269/19 34/266/19 79/216/19
f 14/270/19 15/271/19 79/216/19
f 15/271/19 16/268/19 79/216/19
f 12/248/19 13/272/19 79/216/19
f 13/272/19 14/270/19 79/216/19
f 35/267/19 151/217/19 79/216/19
f 96/273/44 17/274/44 1/275/44
f 17/274/44 18/276/44 32/277/44
f 18/276/44 19/278/44 32/277/44
f 19/278/44 20/279/44 31/280/44
f 32/277/44 19/278/44 31/280/44
f 20/279/44 21/281/44 29/282/44
f 21/281/44 22/283/44 28/284/44
f 22/283/44 23/285/44 28/284/44
f 23/285/44 24/286/44 27/287/44
f 28/284/44 23/285/44 27/287/44
f 24/286/44 25/288/44 26/289/44
f 26/289/44 27/287/44 24/286/44
f 28/284/44 29/282/44 21/281/44
f 29/282/44 30/290/44 20/279/44
f 30/290/44 31/280/44 20/279/44
f 32/277/44 1/275/44 17/274/44
f 1/275/44 110/291/44 96/273/44
f 110/291/44 109/292/44 96/273/44
f 109/292/44 108/220/44 97/219/44
f 96/273/44 109/292/44 97/219/44
f 108/220/44 107/293/44 99/294/44
f 107/293/44 106/295/44 100/296/44
f 106/295/44 105/297/44 100/296/44
f 105/297/44 104/298/44 101/299/44
f 100/296/44 105/297/44 101/299/44
f 104/298/44 103/300/44 102/301/44
f 102/301/44 101/299/44 104/298/44
f 100/296/44 99/294/44 107/293/44
f 99/294/44 98/218/44 108/220/44
f 75/221/26 74/93/21 64/95/21
