# Blender 4.0.2
# www.blender.org
mtllib tiled_roof_sturt_4000.mtl
o tiled_roof_sturt_4000
v 0.000000 0.932479 0.815921
v 0.000000 0.798676 0.975381
v 0.200000 0.798676 0.975381
v 0.200000 0.932479 0.815921
v -0.000000 0.200000 0.102492
v 0.200000 0.200000 0.102492
v 0.000000 0.200000 0.261942
v 0.200000 0.200000 0.261942
v -0.000000 0.200020 0.102482
v 0.200000 0.200020 0.102482
v -0.000000 0.333800 0.102482
v 0.200000 0.333800 0.102482
v 0.200000 0.932479 -0.815921
v 0.200000 0.798676 -0.975381
v 0.000000 0.798676 -0.975381
v 0.000000 0.932479 -0.815921
v 0.200000 0.200000 -0.102492
v -0.000000 0.200000 -0.102492
v 0.200000 0.200000 -0.261942
v -0.000000 0.200000 -0.261942
v 0.200000 0.200020 -0.102482
v -0.000000 0.200020 -0.102482
v 0.200000 0.333800 -0.102482
v -0.000000 0.333800 -0.102482
vn -0.0000 0.7660 -0.6428
vn -1.0000 -0.0000 -0.0000
vn -0.0000 -1.0000 -0.0000
vn -0.0000 -0.0000 -1.0000
vn 1.0000 -0.0000 -0.0000
vn -0.0000 -0.4471 -0.8945
vn -0.0000 0.7660 0.6428
vn -0.0000 -0.7660 0.6428
vn -0.0000 -0.0000 1.0000
vn -0.0000 -0.4475 0.8943
vn -0.0000 -0.7660 -0.6428
vt 0.040511 0.544604
vt 0.040511 0.606822
vt 0.170774 0.606822
vt 0.170774 0.544604
vt 0.604755 0.608269
vt 0.593510 0.544497
vt 0.303776 0.544503
vt 0.277025 0.576384
vt 0.277023 0.576391
vt 0.315022 0.608275
vt 0.315022 0.544403
vt 0.315022 0.482185
vt 0.277023 0.482185
vt 0.277023 0.544403
vt 0.040511 0.544604
vt 0.000007 0.544604
vt 0.000007 0.606822
vt 0.593510 0.480735
vt 0.604755 0.416962
vt 0.315021 0.416956
vt 0.277023 0.448841
vt 0.277025 0.448848
vt 0.303776 0.480728
vt -0.000000 0.544605
vt 0.000000 0.606822
vt 0.000007 0.544605
vt 0.103030 0.617226
vt 0.158218 0.609678
vt 0.150935 0.557399
vt 0.096115 0.564711
vt 0.315022 0.544403
vt 0.604755 0.544403
vt 0.604755 0.482185
vt 0.040511 0.583490
vt 0.040511 0.645708
vt 0.170774 0.645708
vt 0.170774 0.583490
vt 0.593510 0.544496
vt 0.315022 0.505517
vt 0.315022 0.443299
vt 0.277023 0.443299
vt 0.277023 0.505517
vt 0.000007 0.583490
vt 0.000007 0.645708
vt 0.040511 0.645708
vt 0.593510 0.480735
vt 0.604755 0.416962
vt 0.277023 0.448841
vt 0.000000 0.583490
vt 0.000000 0.645712
vt 0.000007 0.645709
vt 0.098614 0.584464
vt 0.153764 0.576941
vt 0.146481 0.524661
vt 0.091699 0.531949
vt 0.315022 0.443299
vt 0.604755 0.505517
vt 0.604755 0.443299
s 0
usemtl wood
f 12/1/1 11/2/1 1/3/1 4/4/1
f 2/5/2 1/6/2 11/7/2 9/8/2 5/9/2 7/10/2
f 8/11/3 7/12/3 5/13/3 6/14/3
f 12/15/4 10/16/4 9/17/4 11/2/4
f 4/18/5 3/19/5 8/20/5 6/21/5 10/22/5 12/23/5
f 6/24/6 5/25/6 9/17/6 10/26/6
f 3/27/7 4/28/7 1/29/7 2/30/7
f 7/12/8 8/31/8 3/32/8 2/33/8
f 24/34/7 23/35/7 13/36/7 16/37/7
f 14/5/5 13/38/5 23/7/5 21/8/5 17/9/5 19/10/5
f 20/39/3 19/40/3 17/41/3 18/42/3
f 24/34/9 22/43/9 21/44/9 23/45/9
f 16/46/2 15/47/2 20/20/2 18/48/2 22/22/2 24/23/2
f 18/49/10 17/50/10 21/51/10 22/43/10
f 15/52/1 16/53/1 13/54/1 14/55/1
f 19/56/11 20/39/11 15/57/11 14/58/11
