# Blender 4.0.2
# www.blender.org
mtllib zadeldak_wall_triangle_carcass_2500.mtl
o zadeldak_wall_triangle_carcass_2500
v -0.000002 0.192229 -0.563246
v 0.000006 0.192223 -1.053920
v -0.023806 0.192223 -1.053920
v -0.023814 0.192229 -0.563246
v 0.000998 0.143229 -0.563246
v 0.001007 0.143223 -1.138792
v 0.001006 0.191223 -1.055653
v 0.000998 0.191229 -0.563246
v -0.023814 0.142229 -0.563246
v -0.023805 0.142223 -1.140524
v 0.000007 0.142223 -1.140524
v -0.000002 0.142229 -0.563246
v -0.000008 0.192234 0.000989
v -0.023820 0.192234 0.000989
v 0.000992 0.143234 0.000989
v 0.000992 0.191234 0.000989
v -0.023820 0.142234 0.000989
v -0.000008 0.142234 0.000989
v -0.000002 0.192228 0.565223
v -0.023814 0.192228 0.565223
v -0.023807 0.192222 1.053928
v 0.000006 0.192222 1.053928
v 0.000998 0.143229 0.565223
v 0.000998 0.191228 0.565223
v 0.001006 0.191222 1.055660
v 0.001007 0.143222 1.138800
v -0.023814 0.142228 0.565223
v -0.000002 0.142228 0.565223
v 0.000007 0.142222 1.140532
v -0.023806 0.142222 1.140532
v 0.000001 0.729186 0.024015
v 0.000001 0.742911 0.000015
v -0.023812 0.742911 0.000015
v -0.023812 0.729186 0.024015
v 0.001001 0.728186 0.024015
v 0.001001 0.741911 0.000515
v 0.000001 0.729186 -0.023985
v 0.000001 0.728186 -0.024985
v -0.023811 0.728186 -0.024985
v -0.023811 0.729186 -0.023985
v -0.023812 0.728186 0.025015
v -0.000413 0.728186 0.025015
v 0.000001 0.727771 0.025015
v 0.000001 0.192187 0.025030
v 0.001001 0.192188 0.024030
v 0.001001 0.728186 -0.022985
v 0.001001 0.727186 -0.023985
v 0.001001 0.192220 -0.023971
v 0.001001 0.192204 0.000030
v -0.023811 0.192221 -0.024971
v 0.000001 0.192221 -0.024971
v -0.023811 0.192187 0.025030
v -0.023811 0.192204 0.000030
v -0.023806 0.192089 1.056166
v -0.000408 0.192089 1.056166
v 0.000006 0.192296 1.055807
v 0.000006 0.800663 -0.000000
v -0.023806 0.800663 -0.000000
v 0.001007 0.191759 0.958520
v 0.001007 0.744166 -0.000000
v 0.001006 0.799510 -0.000000
v 0.001006 0.191759 1.054734
v -0.023806 0.191759 0.956514
v -0.023806 0.743013 -0.000000
v 0.000006 0.743013 -0.000000
v 0.000006 0.191759 0.956513
v -0.023806 0.191759 1.056254
v -0.000308 0.191759 1.056254
v 0.000506 0.191759 1.055736
v 0.001002 0.191760 -1.052726
v 0.001001 0.799508 -0.000000
v 0.001001 0.744084 -0.000000
v 0.001001 0.191760 -0.956725
v -0.023811 0.191760 -1.054725
v -0.023811 0.800663 -0.000000
v 0.000001 0.800663 -0.000000
v 0.000001 0.191760 -1.054725
v -0.023811 0.191760 -0.954725
v -0.023812 0.742929 -0.000000
v -0.023811 0.800662 -0.000000
v 0.000001 0.191760 -0.954725
v 0.000001 0.742929 -0.000000
v 0.000002 0.800662 -0.000000
vn -0.0000 1.0000 -0.0000
vn -0.0001 0.9564 -0.2919
vn -0.0000 0.9659 -0.2588
vn 1.0000 -0.0000 -0.0000
vn -0.0000 -1.0000 -0.0000
vn -1.0000 -0.0000 -0.0000
vn 0.7072 0.7070 -0.0000
vn 0.7071 0.7071 -0.0000
vn 0.7072 -0.7070 -0.0000
vn 0.7071 -0.7071 -0.0000
vn -0.0000 0.9659 0.2588
vn -0.0000 0.9564 0.2919
vn 0.7075 -0.7067 -0.0000
vn -0.0005 0.8660 -0.5000
vn -0.0002 0.8660 -0.5000
vn -0.0000 0.8660 -0.5000
vn -0.0000 0.8660 0.5000
vn -0.0000 0.8026 0.5965
vn -0.0000 0.8681 0.4964
vn -0.0000 0.7946 0.6072
vn 0.6017 0.6045 0.5221
vn 0.5856 0.5855 0.5606
vn 0.5297 0.7362 0.4212
vn 0.5271 0.7377 0.4219
vn -0.0000 0.7946 -0.6072
vn -0.0000 0.7070 -0.7072
vn -0.0000 0.7070 0.7072
vn 0.7071 -0.0000 0.7071
vn 0.5007 0.4996 0.7069
vn 0.5003 0.4997 0.7071
vn 0.8139 0.4634 -0.3505
vn 0.8165 0.4083 -0.4083
vn 0.8166 0.4084 -0.4078
vn 0.8135 0.4578 -0.3587
vn -0.0000 -0.0000 -1.0000
vn -0.0000 -0.0000 1.0000
vn 0.7071 -0.0000 -0.7071
vn -0.0000 0.8681 -0.4964
vn 0.7473 0.5767 -0.3300
vn 0.7448 0.5792 -0.3312
vn -1.0000 0.0001 -0.0001
vn -0.0000 0.8664 0.4993
vn -0.0000 0.8658 0.5004
vn -0.0000 0.8662 0.4997
vn -0.0000 0.8665 0.4993
vn -0.0000 -0.8664 -0.4993
vn 0.7075 -0.6123 -0.3529
vn 0.7064 -0.6133 -0.3534
vn -0.0000 0.2578 0.9662
vn -0.0000 0.2577 0.9662
vn 0.5007 0.3620 0.7863
vn 0.5002 0.3621 0.7866
vn 0.5002 0.3619 0.7867
vn 0.5003 0.3617 0.7867
vn 0.7068 0.6130 0.3532
vn 0.7077 0.6121 0.3527
vn 0.7076 0.6123 0.3528
vn 0.7073 0.6125 0.3530
vn 0.7073 0.6125 0.3529
vn -1.0000 -0.0000 0.0009
vn -1.0000 -0.0000 0.0013
vn -0.0000 -0.8660 0.5000
vn 0.7065 0.6129 -0.3538
vn 0.6826 0.6329 -0.3654
vn 0.6923 0.6250 -0.3607
vn 0.7073 0.6122 -0.3534
vn 0.7072 0.6123 -0.3535
vn 0.7071 -0.6124 0.3535
vn 0.7072 -0.6123 0.3535
vt 0.068503 0.439529
vt 0.064698 0.547926
vt 0.053873 0.547546
vt 0.057678 0.439150
vt 0.118748 0.473018
vt 0.114343 0.600163
vt 0.104375 0.581429
vt 0.108144 0.472649
vt 0.096608 0.394854
vt 0.092205 0.522382
vt 0.081380 0.522008
vt 0.085783 0.394478
vt 0.158011 0.467358
vt 0.154230 0.575754
vt 0.142517 0.594500
vt 0.146966 0.466973
vt 0.104077 0.581033
vt 0.107832 0.472637
vt 0.081082 0.521612
vt 0.085471 0.394467
vt 0.072849 0.314882
vt 0.062024 0.314505
vt 0.123096 0.348374
vt 0.112492 0.348000
vt 0.100954 0.270208
vt 0.090129 0.269830
vt 0.162356 0.342710
vt 0.151311 0.342325
vt 0.112179 0.347989
vt 0.089817 0.269820
vt 0.053888 0.547111
vt 0.064713 0.547491
vt 0.104391 0.580994
vt 0.114358 0.599728
vt 0.081395 0.521572
vt 0.092220 0.521947
vt 0.142533 0.594065
vt 0.154245 0.575319
vt 0.104092 0.580599
vt 0.081097 0.521178
vt 0.038099 0.559068
vt 0.077803 0.592571
vt 0.087771 0.611305
vt 0.026755 0.659650
vt 0.076427 0.711887
vt 0.043472 0.633732
vt 0.026575 0.659233
vt 0.043292 0.633315
vt 0.054117 0.633690
vt 0.196952 0.718652
vt 0.224494 0.693108
vt 0.286499 0.746480
vt -0.141476 0.500323
vt -0.052817 0.547277
vt -0.113934 0.474786
vt 0.000717 0.626591
vt 0.028259 0.601051
vt 0.027960 0.600656
vt 0.104852 0.738682
vt 0.132095 0.712749
vt 0.155381 0.772565
vt 0.249392 0.712761
vt 0.299927 0.746651
vt 0.299629 0.746265
vt 0.014680 0.944393
vt 0.019986 0.944390
vt 0.019992 0.955223
vt 0.014686 0.955226
vt 0.020520 0.926211
vt 0.020520 0.925876
vt 0.025715 0.925887
vt 0.018463 0.927040
vt 0.023658 0.926727
vt 0.023769 0.927044
vt 0.867676 0.358044
vt 0.867676 0.357733
vt 0.878510 0.358108
vt 0.866501 0.357748
vt 0.877327 0.357815
vt 0.877319 0.358124
vt 0.894379 0.356564
vt 0.894363 0.356148
vt 0.905110 0.356330
vt 0.899818 0.367226
vt 0.910515 0.366982
vt 0.910652 0.367249
vt 0.905822 0.362572
vt 0.905530 0.362456
vt 0.908390 0.275022
vt 0.908681 0.275157
vt 0.911499 0.366787
vt 0.911407 0.366524
vt 0.911484 0.366478
vt 0.912056 0.363086
vt 0.912022 0.362781
vt 0.912296 0.362887
vt 0.914444 0.357809
vt 0.914646 0.357571
vt 0.914955 0.357811
vt 0.916336 0.356354
vt 0.916824 0.356354
vt 0.916641 0.356602
vt 0.039040 0.839168
vt 0.039043 0.921607
vt 0.038822 0.921827
vt 0.033626 0.921796
vt 0.033626 0.921605
vt 0.033734 0.836104
vt 0.880510 0.275851
vt 0.877634 0.358346
vt 0.866807 0.357969
vt 0.869683 0.275474
vt 0.799339 0.756420
vt 0.728731 0.704613
vt 0.728684 0.704304
vt 0.731849 0.700045
vt 0.730923 0.699366
vt 0.800035 0.750075
vt 0.905447 0.362503
vt 0.894690 0.362330
vt 0.897577 0.274760
vt 0.918510 0.281115
vt 0.917144 0.363652
vt 0.916841 0.363418
vt 0.918207 0.280980
vt 0.047488 0.944376
vt 0.052794 0.944374
vt 0.052800 0.955206
vt 0.047494 0.955209
vt 0.038459 0.924831
vt 0.043654 0.924847
vt 0.043875 0.925133
vt 0.039726 0.924809
vt 0.045143 0.925121
vt 0.039838 0.925125
vt 0.033626 0.920515
vt 0.028431 0.920516
vt 0.028427 0.833041
vt 0.796356 0.746094
vt 0.799500 0.741760
vt 0.799713 0.741669
vt 0.730732 0.699225
vt 0.734180 0.694900
vt 0.800732 0.743731
vt 0.825653 0.053607
vt 0.836334 0.053992
vt 0.836456 0.054082
vt 0.894129 0.030224
vt 0.904936 0.030698
vt 0.902057 0.124459
vt 0.894202 0.030236
vt 0.901739 0.124443
vt 0.890930 0.124064
vt 1.027289 0.555034
vt 1.027165 0.646581
vt 1.016552 0.645043
vt 1.027266 0.545367
vt 1.016532 0.636128
vt 1.016653 0.538328
vt 0.876825 0.038448
vt 0.873798 0.125411
vt 0.862971 0.125034
vt 0.865997 0.038071
vt 1.038643 0.989156
vt 1.038674 0.989309
vt 0.878857 0.795367
vt 0.989217 0.926582
vt 0.917692 0.859780
vt 0.924086 0.850622
vt 0.995909 0.932877
vt 0.931297 0.857408
vt 0.998182 0.919928
vt 0.936014 0.075765
vt 0.932449 0.164587
vt 0.932152 0.164566
vt 0.934288 0.062999
vt 0.940624 0.149206
vt 0.933975 0.062988
vt 0.907960 0.025710
vt 0.907931 0.025779
vt 0.897181 0.025391
vt 0.904266 0.026525
vt 0.893509 0.026207
vt 0.893509 0.026132
vt 0.927811 0.038014
vt 0.927643 0.038067
vt 0.927612 0.037983
vt 0.930573 0.042613
vt 0.930313 0.042578
vt 0.930359 0.042508
vt 0.917358 0.121659
vt 0.924900 0.025582
vt 0.925034 0.025528
vt 0.924026 0.119900
vt 0.923439 0.025708
vt 0.923573 0.025740
vt 0.919220 0.130952
vt 0.924179 0.035720
vt 0.919495 0.130986
vt 0.011406 0.628147
vt 0.011401 0.747313
vt 0.000789 0.747877
vt 0.011404 0.619800
vt 0.000787 0.738863
vt 0.000791 0.628025
vt 0.888096 0.058183
vt 0.884145 0.171527
vt 0.873318 0.171150
vt 0.877269 0.057805
vt 0.940769 0.894457
vt 0.851546 0.829002
vt 0.858558 0.820436
vt 0.781250 0.828125
vt 0.873535 0.799072
vt 0.947782 0.899604
vt 0.865036 0.825190
vt 0.961334 0.895835
vt 0.914989 0.073318
vt 0.911595 0.177044
vt 0.900782 0.176749
vt 0.904177 0.072943
vt 0.925781 0.066406
vt 556.789062 139.148438
vt 552.554688 138.088867
vt 0.901890 0.067002
vt 0.902840 0.182560
vt 0.902538 0.182573
vt 0.904770 0.069205
vt 0.895844 0.189141
vt 0.904469 0.069507
vt 0.887486 0.185365
vt 0.898483 0.075852
vt 0.898781 0.075602
vt 0.894890 0.183367
vt 0.895473 0.076921
vt 0.895191 0.183352
s 1
f 1/1/1 2/2/2 3/3/3
f 1/1/1 3/3/3 4/4/1
f 5/5/4 6/6/4 7/7/4
f 5/5/4 7/7/4 8/8/4
f 9/9/5 10/10/5 11/11/5
f 9/9/5 11/11/5 12/12/5
f 4/13/6 3/14/6 10/15/6
f 4/13/6 10/15/6 9/16/6
f 8/8/7 7/7/8 2/17/8
f 8/8/7 2/17/8 1/18/7
f 12/12/9 11/11/10 6/19/10
f 12/12/9 6/19/10 5/20/9
f 13/21/1 1/1/1 4/4/1
f 13/21/1 4/4/1 14/22/1
f 15/23/4 5/5/4 8/8/4
f 15/23/4 8/8/4 16/24/4
f 17/25/5 9/9/5 12/12/5
f 17/25/5 12/12/5 18/26/5
f 14/27/6 4/13/6 9/16/6
f 14/27/6 9/16/6 17/28/6
f 16/24/7 8/8/7 1/18/7
f 16/24/7 1/18/7 13/29/7
f 18/26/9 12/12/9 5/20/9
f 18/26/9 5/20/9 15/30/9
f 19/1/1 20/4/1 21/31/11
f 19/1/1 21/31/11 22/32/12
f 23/5/4 24/8/4 25/33/4
f 23/5/4 25/33/4 26/34/4
f 27/9/5 28/12/5 29/35/5
f 27/9/5 29/35/5 30/36/5
f 20/13/6 27/16/6 30/37/6
f 20/13/6 30/37/6 21/38/6
f 24/8/8 19/18/8 22/39/8
f 24/8/8 22/39/8 25/33/8
f 28/12/13 23/20/13 26/40/10
f 28/12/13 26/40/10 29/35/10
f 13/21/1 14/22/1 20/4/1
f 13/21/1 20/4/1 19/1/1
f 15/23/4 16/24/4 24/8/4
f 15/23/4 24/8/4 23/5/4
f 17/25/5 18/26/5 28/12/5
f 17/25/5 28/12/5 27/9/5
f 14/27/6 17/28/6 27/16/6
f 14/27/6 27/16/6 20/13/6
f 16/24/7 13/29/7 19/18/8
f 16/24/7 19/18/8 24/8/8
f 18/26/9 15/30/9 23/20/13
f 18/26/9 23/20/13 28/12/13
f 2/41/2 7/42/14 6/43/15
f 2/44/2 6/45/15 11/46/16
f 2/47/2 11/48/16 10/49/16
f 2/50/2 10/51/16 3/52/3
f 21/53/11 30/54/17 29/55/17
f 21/56/11 29/57/17 26/58/17
f 21/59/11 26/60/17 25/61/17
f 21/62/11 25/63/17 22/64/12
f 31/65/18 32/66/19 33/67/19
f 31/65/18 33/67/19 34/68/20
f 31/69/21 35/70/22 36/71/23
f 31/72/21 36/73/23 32/74/24
f 37/75/25 38/76/26 39/77/26
f 37/78/25 39/79/26 40/80/25
f 34/81/20 41/82/27 42/83/27
f 34/84/20 42/85/27 31/86/18
f 35/87/28 43/88/28 44/89/28
f 35/87/28 44/89/28 45/90/28
f 31/91/21 42/92/29 43/93/30
f 31/94/21 43/95/30 35/96/22
f 46/97/31 47/98/32 38/99/33
f 46/100/31 38/101/33 37/102/34
f 48/103/4 47/104/4 46/105/4
f 48/103/4 46/105/4 36/106/4
f 48/103/4 36/107/4 49/108/4
f 50/109/35 39/110/35 38/111/35
f 50/109/35 38/111/35 51/112/35
f 52/113/6 41/114/6 34/115/6
f 52/113/6 34/115/6 33/116/6
f 52/113/6 33/117/6 53/118/6
f 44/89/36 43/88/36 42/119/36
f 44/89/36 42/119/36 41/120/36
f 44/89/36 41/120/36 52/121/36
f 51/122/37 38/123/37 47/124/37
f 51/122/37 47/124/37 48/125/37
f 32/126/38 37/127/25 40/128/25
f 32/126/38 40/128/25 33/129/38
f 36/130/39 46/131/31 37/132/34
f 36/133/39 37/134/34 32/135/40
f 36/136/4 35/137/4 45/138/4
f 36/107/4 45/138/4 49/108/4
f 33/139/6 40/140/41 39/141/6
f 33/142/6 39/143/6 50/144/6
f 33/117/6 50/144/6 53/118/6
f 54/145/42 55/146/43 56/147/44
f 54/148/42 56/149/44 57/150/45
f 54/151/42 57/152/45 58/153/45
f 59/154/4 60/155/4 61/156/4
f 59/157/4 61/158/4 62/159/4
f 63/160/46 64/161/46 65/162/46
f 63/160/46 65/162/46 66/163/46
f 67/164/6 54/165/6 58/166/6
f 67/167/6 58/168/6 64/169/6
f 67/170/6 64/171/6 63/172/6
f 66/173/47 65/174/48 60/175/48
f 66/176/47 60/177/48 59/178/47
f 68/179/49 55/180/49 54/181/49
f 68/182/50 54/183/50 67/184/50
f 69/185/51 56/186/51 55/187/51
f 69/188/52 55/189/53 68/190/54
f 57/191/55 56/192/56 69/193/57
f 57/194/55 69/195/57 62/196/58
f 57/197/55 62/198/59 61/199/55
f 70/200/4 71/201/4 72/202/4
f 70/203/4 72/204/4 73/205/4
f 74/206/16 75/207/16 76/208/16
f 74/206/16 76/208/16 77/209/16
f 78/210/6 79/211/6 80/212/60
f 78/213/6 80/214/60 75/214/61
f 78/215/6 75/216/6 74/217/6
f 81/218/62 82/219/62 79/220/62
f 81/218/62 79/220/62 78/221/62
f 77/222/63 76/223/64 83/224/65
f 77/225/63 83/226/65 71/227/66
f 77/228/63 71/229/67 70/230/63
f 82/231/68 81/232/68 73/233/68
f 82/234/69 73/235/69 72/236/69
