# Blender 4.0.2
# www.blender.org
mtllib zadeldak_wall_triangle_carcass_5000.mtl
o zadeldak_wall_triangle_carcass_5000
v -0.013863 0.192225 -2.307101
v -0.037675 0.192225 -2.307101
v -0.023819 0.192223 2.307102
v -0.000007 0.192223 2.307102
v -0.037674 0.142226 -2.393705
v -0.023818 0.142223 2.393705
v -0.012862 0.143226 -2.391972
v -0.012863 0.191226 -2.308833
v 0.000993 0.191223 2.308834
v 0.000994 0.143223 2.391973
v -0.013862 0.142226 -2.393705
v -0.000006 0.142223 2.393705
v -0.000008 1.452780 0.024015
v -0.000008 1.466506 0.000015
v -0.023820 1.466506 0.000015
v -0.023820 1.452780 0.024015
v 0.000992 1.451779 0.024015
v 0.000992 1.465504 0.000515
v -0.000007 1.452780 -0.023985
v -0.000007 1.451779 -0.024985
v -0.023820 1.451779 -0.024985
v -0.023820 1.452780 -0.023985
v -0.023820 1.451779 0.025015
v -0.000422 1.451779 0.025015
v -0.000008 1.451365 0.025015
v -0.000008 0.192175 0.025030
v 0.000992 0.192176 0.024030
v 0.000993 1.451779 -0.022985
v 0.000993 1.450779 -0.023985
v 0.000993 0.192208 -0.023971
v 0.000992 0.192192 0.000030
v -0.023820 0.192209 -0.024971
v -0.000007 0.192209 -0.024971
v -0.023820 0.192175 0.025030
v -0.023820 0.192192 0.000030
v -0.023819 0.192090 2.309339
v -0.000421 0.192090 2.309339
v -0.000006 0.192297 2.308980
v -0.000002 1.524256 -0.000000
v -0.023815 1.524256 -0.000000
v 0.000994 0.191763 2.211694
v 0.000998 1.467761 -0.000000
v 0.000998 1.523103 -0.000000
v 0.000994 0.191760 2.307907
v -0.023818 0.191763 2.209687
v -0.023815 1.466608 -0.000000
v -0.000002 1.466606 -0.000000
v -0.000006 0.191763 2.209687
v -0.023819 0.191760 2.309427
v -0.000321 0.191760 2.309427
v 0.000494 0.191760 2.308910
v -0.012868 0.191762 -2.305907
v 0.000992 1.523103 -0.000000
v 0.000992 1.467678 -0.000000
v -0.012868 0.191762 -2.209906
v -0.037680 0.191762 -2.307906
v -0.023820 1.524256 -0.000000
v -0.000008 1.524256 -0.000000
v -0.013868 0.191762 -2.307906
v -0.037680 0.191762 -2.207906
v -0.023820 1.466522 -0.000000
v -0.023820 1.524256 -0.000000
v -0.013868 0.191762 -2.207906
v -0.000008 1.466522 -0.000000
v -0.000007 1.524256 -0.000000
vn -0.0001 0.9565 -0.2917
vn -0.0000 0.9659 -0.2591
vn -0.0000 1.0000 -0.0000
vn -1.0000 -0.0050 0.0029
vn -1.0000 0.0050 0.0030
vn -1.0000 0.0052 0.0030
vn 1.0000 0.0050 -0.0030
vn 1.0000 0.0052 -0.0030
vn 1.0000 -0.0050 -0.0029
vn -0.0000 -1.0000 -0.0000
vn 0.7052 0.7091 -0.0021
vn 0.7089 0.7053 -0.0021
vn 0.7089 -0.7053 -0.0021
vn 0.7054 -0.7088 -0.0020
vn 0.0001 0.8660 -0.5000
vn 0.0004 0.8660 -0.5000
vn -0.0000 0.8660 -0.5000
vn -0.0000 0.8660 0.5000
vn -0.0001 0.8660 0.5000
vn -0.0000 0.8025 0.5967
vn -0.0000 0.8681 0.4965
vn -0.0000 0.7944 0.6074
vn 0.6016 0.6045 0.5222
vn 0.5857 0.5856 0.5604
vn 0.5305 0.7358 0.4210
vn 0.5277 0.7374 0.4217
vn -0.0000 0.7944 -0.6074
vn -0.0000 0.7067 -0.7075
vn -0.0000 0.7074 -0.7068
vn -0.0000 0.7071 0.7072
vn -0.0000 0.7070 0.7072
vn 0.7071 -0.0000 0.7071
vn 0.4998 0.4999 0.7073
vn 0.4997 0.5000 0.7074
vn 0.8140 0.4632 -0.3504
vn 0.7787 0.1766 -0.6021
vn 0.8008 0.2621 -0.5385
vn 0.8136 0.4575 -0.3586
vn 1.0000 -0.0000 -0.0000
vn -0.0000 -0.0000 -1.0000
vn -1.0000 -0.0000 -0.0000
vn -0.0000 -0.0000 1.0000
vn 0.7071 -0.0000 -0.7071
vn 0.7786 0.1765 -0.6021
vn -0.0000 0.8681 -0.4965
vn 0.7479 0.5762 -0.3297
vn 0.7451 0.5790 -0.3311
vn -0.0000 0.8662 0.4997
vn -0.0000 0.8663 0.4996
vn -0.0000 0.8662 0.4996
vn 0.9605 -0.2383 -0.1434
vn 1.0000 -0.0044 -0.0027
vn 1.0000 0.0016 0.0010
vn 0.9614 0.2356 0.1420
vn -0.0001 -0.8662 -0.4997
vn -0.0000 -0.8662 -0.4997
vn -0.9940 0.0960 0.0530
vn -1.0000 0.0023 0.0013
vn -0.9856 -0.1470 -0.0838
vn -0.9618 -0.2398 -0.1321
vn 0.7037 -0.6154 -0.3551
vn 0.7073 -0.6123 -0.3533
vn 0.7081 -0.6116 -0.3529
vn 0.7114 -0.6087 -0.3512
vn -0.0000 0.2590 0.9659
vn -0.0000 0.2589 0.9659
vn -0.0000 0.2577 0.9662
vn 0.4996 0.3631 0.7865
vn 0.4996 0.3628 0.7866
vn 0.4992 0.3622 0.7871
vn 0.4991 0.3621 0.7872
vn 0.4991 0.3620 0.7873
vn 0.3273 0.8185 0.4722
vn 0.7072 0.6125 0.3533
vn 0.7074 0.6123 0.3532
vn 0.7081 0.6116 0.3529
vn 0.7067 0.6129 0.3535
vn 0.7080 0.6117 0.3529
vn 0.9999 -0.0105 -0.0002
vn 1.0000 -0.0000 -0.0060
vn 0.9999 -0.0109 -0.0000
vn 1.0000 -0.0001 -0.0060
vn -0.0000 0.8652 -0.5014
vn -1.0000 -0.0000 0.0063
vn -0.9999 0.0104 -0.0000
vn -0.0000 -0.8660 0.5000
vn -0.0000 0.8653 -0.5012
vn 0.7101 0.6079 -0.3552
vn 0.7061 0.6114 -0.3572
vn 0.7062 0.6113 -0.3572
vn 0.7083 -0.6132 0.3496
vn 0.7038 -0.6171 0.3519
vn 0.7084 -0.6132 0.3496
vn 0.7037 -0.6172 0.3519
vt 0.063636 0.603168
vt 0.052811 0.602788
vt 0.051055 0.602726
vt 0.061880 0.603106
vt 0.119507 0.683457
vt 0.107794 0.702203
vt 0.107799 0.702194
vt 0.119512 0.683448
vt 0.119507 0.683456
vt 0.141505 0.710018
vt 0.131537 0.691284
vt 0.131532 0.691274
vt 0.141505 0.710017
vt 0.089462 0.577564
vt 0.078637 0.577190
vt 0.080313 0.577248
vt 0.091138 0.577622
vt 0.123548 0.664490
vt 0.123249 0.664097
vt 0.122671 0.663335
vt 0.123826 0.664780
vt 0.122949 0.663628
vt 0.123248 0.664019
vt 0.100251 0.604603
vt 0.099952 0.604209
vt 0.100504 0.604938
vt 0.100017 0.604393
vt 0.100270 0.604727
vt 0.100569 0.605126
vt 0.115197 0.701770
vt 0.154901 0.735273
vt 0.164869 0.754007
vt 0.144747 0.466096
vt 0.194419 0.518332
vt 0.161464 0.440178
vt 0.147306 0.472057
vt 0.164023 0.446139
vt 0.174848 0.446513
vt -0.250812 0.333216
vt -0.223269 0.307672
vt -0.161265 0.361044
vt 0.500347 0.840247
vt 0.589006 0.887201
vt 0.527889 0.814709
vt 0.170684 0.547384
vt 0.198227 0.521845
vt 0.197927 0.521450
vt -0.070756 0.287620
vt -0.043513 0.261687
vt -0.020227 0.321503
vt -0.405956 0.347256
vt -0.355427 0.381142
vt -0.355726 0.380749
vt 0.042773 0.944377
vt 0.048079 0.944374
vt 0.048085 0.955207
vt 0.042779 0.955210
vt 0.036728 0.964398
vt 0.036728 0.964091
vt 0.041923 0.964085
vt 0.038812 0.962645
vt 0.044007 0.962332
vt 0.044118 0.962643
vt 0.865322 0.403972
vt 0.865332 0.403660
vt 0.876158 0.404038
vt 0.876158 0.404073
vt 0.876148 0.404386
vt 0.894424 0.417426
vt 0.894417 0.417013
vt 0.905153 0.417189
vt 0.888969 0.406145
vt 0.899696 0.405909
vt 0.899818 0.406173
vt 0.904486 0.403382
vt 0.904194 0.403266
vt 0.908915 0.258980
vt 0.909206 0.259125
vt 0.899979 0.407478
vt 0.899872 0.407221
vt 0.899944 0.407171
vt 0.897503 0.410305
vt 0.897457 0.409993
vt 0.897753 0.410107
vt 0.917065 0.415472
vt 0.917257 0.415237
vt 0.917576 0.415473
vt 0.916031 0.416500
vt 0.916531 0.416496
vt 0.916328 0.416744
vt 0.039040 0.824029
vt 0.039043 0.960128
vt 0.038822 0.960348
vt 0.038822 0.960375
vt 0.033626 0.960376
vt 0.039040 0.823779
vt 0.033626 0.960617
vt 0.033734 0.820715
vt 0.881037 0.260723
vt 0.876293 0.396827
vt 0.865466 0.396450
vt 0.870210 0.260346
vt 0.812287 0.765919
vt 0.695796 0.680449
vt 0.695749 0.680140
vt 0.698866 0.675846
vt 0.811752 0.765527
vt 0.699463 0.676284
vt 0.812448 0.759182
vt 0.904112 0.403315
vt 0.893395 0.403138
vt 0.893377 0.403151
vt 0.898102 0.258705
vt 0.918761 0.265979
vt 0.916506 0.402153
vt 0.916203 0.401919
vt 0.918458 0.265843
vt 0.019395 0.944386
vt 0.024701 0.944384
vt 0.024707 0.955217
vt 0.019401 0.955223
vt 0.028569 0.963175
vt 0.033765 0.963175
vt 0.033986 0.963484
vt 0.027276 0.964329
vt 0.032694 0.964642
vt 0.027387 0.964642
vt 0.033626 0.961318
vt 0.028431 0.961319
vt 0.028427 0.817000
vt 0.028427 0.817652
vt 0.649467 0.638306
vt 0.652603 0.634026
vt 0.652916 0.633987
vt 0.699687 0.676448
vt 0.703135 0.672122
vt 0.812937 0.752685
vt 0.813145 0.752838
vt 1.013245 -0.085642
vt 1.023926 -0.085257
vt 1.024109 -0.085171
vt 0.895745 -0.016693
vt 0.906551 -0.016219
vt 0.901273 0.137823
vt 0.895840 -0.016706
vt 0.890463 0.137447
vt 0.970686 0.488717
vt 0.970621 0.638382
vt 0.960007 0.636843
vt 0.971878 0.491869
vt 0.962301 0.639908
vt 0.962079 0.484998
vt 0.870617 -0.009706
vt 0.873551 0.139474
vt 0.862724 0.139097
vt 0.870615 -0.009706
vt 0.859785 -0.010083
vt 0.988316 1.000155
vt 0.988265 1.000166
vt 0.882485 0.900697
vt 0.998153 1.012536
vt 0.884988 0.906621
vt 0.891382 0.897463
vt 0.997155 1.009115
vt 0.890471 0.893393
vt 0.998985 0.996862
vt 0.895666 0.019053
vt 0.895100 0.168807
vt 0.894800 0.168782
vt 0.893327 0.030375
vt 0.894781 0.178433
vt 0.893022 0.030365
vt 0.915054 -0.042686
vt 0.914974 -0.042616
vt 0.904253 -0.043003
vt 0.906586 -0.046114
vt 0.895844 -0.046432
vt 0.895844 -0.046507
vt 0.866364 -0.059884
vt 0.866241 -0.059829
vt 0.866074 -0.059916
vt 0.890533 -0.075411
vt 0.890228 -0.075441
vt 0.890320 -0.075514
vt 0.881596 0.143298
vt 0.887070 -0.011197
vt 0.887222 -0.011251
vt 0.881611 0.140214
vt 0.885323 -0.014095
vt 0.885490 -0.014063
vt 0.882027 0.133230
vt 0.888046 -0.021090
vt 0.882328 0.133267
vt 0.067844 0.555702
vt 0.067858 0.744312
vt 0.057246 0.744876
vt 0.067855 0.556192
vt 0.057243 0.745425
vt 0.057242 0.564417
vt 0.888637 -0.000238
vt 0.883807 0.187777
vt 0.872980 0.187399
vt 0.877810 -0.000616
vt 1.033150 0.892235
vt 0.887358 0.785253
vt 0.894370 0.776687
vt 1.032980 0.892098
vt 0.894209 0.776573
vt 1.046532 0.888330
vt 0.918500 0.014192
vt 0.910803 0.193902
vt 0.899990 0.193607
vt 0.907690 0.013791
vt 0.922974 0.017166
vt 0.919968 0.192055
vt 0.919968 0.192059
vt 0.941833 0.001241
vt 0.939861 0.189493
vt 0.939556 0.189506
vt 0.943920 -0.007780
vt 0.939758 0.181234
vt 0.943623 -0.007479
vt 0.930262 0.185715
vt 0.938522 0.004574
vt 0.938839 0.004324
vt 0.930355 0.190168
vt 0.936337 0.009680
vt 0.930645 0.190152
s 1
f 1/1/1 2/2/2 3/3/3
f 1/1/1 3/3/3 4/4/3
f 2/5/4 5/6/4 6/7/5
f 2/8/4 6/7/5 3/9/6
f 7/10/7 8/11/8 9/12/9
f 7/10/7 9/12/9 10/13/9
f 5/14/10 11/15/10 12/16/10
f 5/14/10 12/16/10 6/17/10
f 8/18/11 1/19/11 4/20/12
f 8/21/11 4/22/12 9/23/12
f 11/24/13 7/25/13 10/26/14
f 11/27/13 10/28/14 12/29/14
f 1/30/1 8/31/15 7/32/16
f 1/33/1 7/34/16 11/35/15
f 1/36/1 11/37/15 5/38/17
f 1/39/1 5/40/17 2/41/2
f 3/42/18 6/43/18 12/44/19
f 3/45/18 12/46/19 10/47/19
f 3/48/18 10/49/19 9/50/18
f 3/51/18 9/52/18 4/53/18
f 13/54/20 14/55/21 15/56/21
f 13/54/20 15/56/21 16/57/22
f 13/58/23 17/59/24 18/60/25
f 13/61/23 18/62/25 14/63/26
f 19/64/27 20/65/28 21/66/29
f 19/64/27 21/67/29 22/68/27
f 16/69/22 23/70/30 24/71/31
f 16/72/22 24/73/31 13/74/20
f 17/75/32 25/76/32 26/77/32
f 17/75/32 26/77/32 27/78/32
f 13/79/23 24/80/33 25/81/34
f 13/82/23 25/83/34 17/84/24
f 28/85/35 29/86/36 20/87/37
f 28/88/35 20/89/37 19/90/38
f 30/91/39 29/92/39 28/93/39
f 30/91/39 28/94/39 18/95/39
f 30/96/39 18/97/39 31/98/39
f 32/99/40 21/100/40 20/101/40
f 32/99/40 20/101/40 33/102/40
f 34/103/41 23/104/41 16/105/41
f 34/103/41 16/105/41 15/106/41
f 34/107/41 15/108/41 35/109/41
f 26/77/42 25/76/42 24/110/42
f 26/77/42 24/110/42 23/111/42
f 26/77/42 23/112/42 34/113/42
f 33/114/43 20/115/37 29/116/36
f 33/114/43 29/116/44 30/117/43
f 14/118/45 19/119/27 22/120/27
f 14/118/45 22/120/27 15/121/45
f 18/122/46 28/123/35 19/124/38
f 18/125/46 19/126/38 14/127/47
f 18/128/39 17/129/39 27/130/39
f 18/97/39 27/131/39 31/98/39
f 15/132/41 22/133/41 21/134/41
f 15/135/41 21/136/41 32/137/41
f 15/108/41 32/138/41 35/109/41
f 36/139/48 37/140/49 38/141/50
f 36/142/48 38/143/50 39/144/48
f 36/145/48 39/144/48 40/146/48
f 41/147/51 42/148/39 43/149/52
f 41/150/53 43/151/54 44/152/39
f 45/153/55 46/154/55 47/155/55
f 45/156/56 47/155/56 48/157/56
f 49/158/57 36/159/41 40/160/41
f 49/161/57 40/162/41 46/163/58
f 49/164/59 46/165/60 45/166/41
f 48/167/61 47/168/62 42/169/62
f 48/170/63 42/171/64 41/172/63
f 50/173/65 37/174/65 36/175/66
f 50/176/67 36/177/67 49/178/67
f 51/179/68 38/180/68 37/181/69
f 51/182/70 37/183/71 50/184/72
f 39/185/73 38/186/74 51/187/75
f 39/188/73 51/189/75 44/190/76
f 39/191/77 44/192/78 43/193/77
f 52/194/79 53/195/80 54/196/80
f 52/197/81 54/198/82 55/199/81
f 56/200/17 57/201/17 58/202/17
f 56/200/17 58/202/83 59/203/17
f 60/204/84 61/205/84 62/206/84
f 60/204/3 62/206/3 57/206/3
f 60/207/85 57/208/85 56/209/85
f 63/210/86 64/211/86 61/212/86
f 63/210/86 61/212/86 60/213/86
f 59/214/17 58/215/83 65/216/87
f 59/217/88 65/218/89 53/219/89
f 59/220/88 53/221/90 52/222/88
f 64/223/91 63/224/92 55/225/92
f 64/226/93 55/227/94 54/228/93
