# Blender 4.0.2
# www.blender.org
mtllib zadeldak_wall_triangle_carcass_2000.mtl
o zadeldak_wall_triangle_carcass_2000
v -0.000002 0.192230 -0.563246
v 0.000006 0.192224 -0.803919
v -0.023806 0.192224 -0.803919
v -0.023814 0.192230 -0.563246
v 0.000998 0.143230 -0.563246
v 0.001007 0.143224 -0.888791
v 0.001006 0.191224 -0.805652
v 0.000998 0.191230 -0.563246
v -0.023814 0.142230 -0.563246
v -0.023805 0.142224 -0.890523
v 0.000007 0.142224 -0.890523
v -0.000002 0.142230 -0.563246
v -0.000008 0.192235 0.000989
v -0.023820 0.192235 0.000989
v 0.000992 0.143235 0.000989
v 0.000992 0.191235 0.000989
v -0.023820 0.142235 0.000989
v -0.000008 0.142235 0.000989
v -0.000002 0.192229 0.565223
v -0.023814 0.192229 0.565223
v -0.023807 0.192223 0.803928
v 0.000006 0.192223 0.803928
v 0.000998 0.143230 0.565223
v 0.000998 0.191229 0.565223
v 0.001006 0.191223 0.805660
v 0.001007 0.143223 0.888800
v -0.023814 0.142229 0.565223
v -0.000002 0.142229 0.565223
v 0.000007 0.142223 0.890532
v -0.023806 0.142223 0.890532
v 0.000001 0.584849 0.024015
v 0.000001 0.598574 0.000015
v -0.023812 0.598574 0.000015
v -0.023812 0.584849 0.024015
v 0.001001 0.583849 0.024015
v 0.001001 0.597574 0.000515
v 0.000001 0.584849 -0.023985
v 0.000001 0.583849 -0.024985
v -0.023811 0.583849 -0.024985
v -0.023811 0.584849 -0.023985
v -0.023812 0.583849 0.025015
v -0.000413 0.583849 0.025015
v 0.000001 0.583434 0.025015
v 0.000001 0.192188 0.025030
v 0.001001 0.192189 0.024030
v 0.001001 0.583849 -0.022985
v 0.001001 0.582849 -0.023985
v 0.001001 0.192220 -0.023971
v 0.001001 0.192205 0.000030
v -0.023811 0.192222 -0.024971
v 0.000001 0.192222 -0.024971
v -0.023811 0.192188 0.025030
v -0.023811 0.192205 0.000030
v -0.023806 0.192090 0.806166
v -0.000408 0.192090 0.806166
v 0.000006 0.192297 0.805807
v 0.000006 0.656326 -0.000000
v -0.023806 0.656326 -0.000000
v 0.001007 0.191760 0.708520
v 0.001007 0.599829 -0.000000
v 0.001006 0.655173 -0.000000
v 0.001006 0.191760 0.804734
v -0.023806 0.191760 0.706514
v -0.023806 0.598676 -0.000000
v 0.000006 0.598676 -0.000000
v 0.000006 0.191760 0.706513
v -0.023806 0.191760 0.806254
v -0.000308 0.191760 0.806254
v 0.000506 0.191760 0.805736
v 0.001002 0.191761 -0.802725
v 0.001001 0.655171 -0.000000
v 0.001001 0.599747 -0.000000
v 0.001001 0.191761 -0.706724
v -0.023811 0.191761 -0.804724
v -0.023811 0.656326 -0.000000
v 0.000001 0.656326 -0.000000
v 0.000001 0.191761 -0.804724
v -0.023811 0.191761 -0.704724
v -0.023812 0.598592 -0.000000
v -0.023811 0.656325 -0.000000
v 0.000001 0.191761 -0.704724
v 0.000001 0.598592 -0.000000
v 0.000002 0.656325 -0.000000
vn -0.0000 1.0000 -0.0000
vn -0.0000 0.9564 -0.2919
vn -0.0000 0.9659 -0.2588
vn 1.0000 -0.0000 -0.0000
vn -0.0000 -1.0000 -0.0000
vn -1.0000 -0.0000 -0.0000
vn 0.7072 0.7070 -0.0000
vn 0.7071 -0.7071 -0.0000
vn 0.7072 0.7071 -0.0000
vn -0.0000 0.9659 0.2588
vn -0.0000 0.9564 0.2919
vn 0.7071 0.7071 -0.0000
vn 0.7075 -0.7067 -0.0000
vn -0.0003 0.8660 -0.5000
vn -0.0002 0.8660 -0.5000
vn -0.0000 0.8660 -0.5000
vn -0.0000 0.8660 0.5000
vn -0.0001 0.8660 0.5000
vn -0.0000 0.8026 0.5965
vn -0.0000 0.8681 0.4964
vn -0.0000 0.7946 0.6071
vn 0.6016 0.6045 0.5221
vn 0.5855 0.5856 0.5606
vn 0.5298 0.7362 0.4212
vn 0.5268 0.7378 0.4219
vn -0.0000 0.7946 -0.6071
vn -0.0000 0.7071 -0.7071
vn -0.0000 0.7071 0.7071
vn 0.7071 -0.0000 0.7071
vn 0.5009 0.4995 0.7068
vn 0.5004 0.4997 0.7071
vn 0.8139 0.4634 -0.3505
vn 0.8165 0.4083 -0.4083
vn 0.8165 0.4083 -0.4082
vn 0.8135 0.4578 -0.3587
vn -0.0000 -0.0000 -1.0000
vn -0.0000 -0.0000 1.0000
vn 0.7071 -0.0000 -0.7071
vn -0.0000 0.8681 -0.4964
vn 0.7473 0.5767 -0.3300
vn 0.7448 0.5792 -0.3313
vn -1.0000 0.0001 -0.0001
vn -0.0000 0.8666 0.4990
vn -0.0000 0.8665 0.4992
vn -0.0000 0.8666 0.4991
vn -0.0000 -0.8666 -0.4991
vn 0.7074 -0.6125 -0.3528
vn 0.7064 -0.6133 -0.3533
vn 0.7064 -0.6133 -0.3532
vn -0.0000 0.2576 0.9662
vn -0.0000 0.2575 0.9663
vn 0.5007 0.3620 0.7863
vn 0.5007 0.3621 0.7862
vn 0.5006 0.3619 0.7864
vn 0.5006 0.3618 0.7865
vn 0.7069 0.6130 0.3530
vn 0.7078 0.6122 0.3525
vn 0.7075 0.6124 0.3527
vn 0.7071 0.6128 0.3529
vn -1.0000 -0.0000 -0.0007
vn -1.0000 -0.0000 -0.0010
vn -0.0000 -0.8660 0.5000
vn 0.7065 0.6129 -0.3538
vn 0.7162 0.6044 -0.3489
vn 0.7129 0.6074 -0.3506
vn 0.7072 0.6123 -0.3535
vn 0.7072 -0.6123 0.3535
vn 0.7071 -0.6124 0.3535
vt 0.068503 0.439529
vt 0.066638 0.492697
vt 0.055814 0.492317
vt 0.057678 0.439150
vt 0.118748 0.473018
vt 0.116257 0.544935
vt 0.106289 0.526201
vt 0.108144 0.472649
vt 0.096608 0.394854
vt 0.094110 0.467153
vt 0.083285 0.466779
vt 0.085783 0.394478
vt 0.158011 0.467358
vt 0.156156 0.520526
vt 0.144443 0.539272
vt 0.146966 0.466973
vt 0.105991 0.525805
vt 0.107832 0.472637
vt 0.082988 0.466383
vt 0.085471 0.394467
vt 0.072849 0.314882
vt 0.062024 0.314505
vt 0.123096 0.348374
vt 0.112492 0.348000
vt 0.100954 0.270208
vt 0.090129 0.269830
vt 0.162356 0.342710
vt 0.151311 0.342325
vt 0.112179 0.347989
vt 0.089817 0.269820
vt 0.055828 0.491883
vt 0.066654 0.492262
vt 0.106305 0.525765
vt 0.116272 0.544500
vt 0.083300 0.466344
vt 0.094125 0.466719
vt 0.144459 0.538837
vt 0.156171 0.520091
vt 0.106006 0.525370
vt 0.083003 0.465950
vt 0.013432 0.514984
vt 0.053136 0.548488
vt 0.063104 0.567222
vt -0.009260 0.716181
vt 0.040412 0.768417
vt 0.007457 0.690262
vt -0.009619 0.715347
vt 0.007098 0.689429
vt 0.017923 0.689804
vt 0.331188 0.834203
vt 0.358730 0.808659
vt 0.420735 0.862030
vt -0.333432 0.398659
vt -0.244773 0.445613
vt -0.305890 0.373122
vt -0.050127 0.650264
vt -0.022585 0.624728
vt -0.022884 0.624330
vt 0.157373 0.873586
vt 0.184616 0.847652
vt 0.207902 0.907468
vt 0.445711 0.823486
vt 0.496254 0.857391
vt 0.495951 0.857002
vt 0.000928 0.944400
vt 0.006234 0.944397
vt 0.006240 0.955230
vt 0.000934 0.955234
vt 0.012516 0.905666
vt 0.012515 0.905323
vt 0.017711 0.905331
vt 0.008510 0.909213
vt 0.013705 0.908901
vt 0.013816 0.909215
vt 0.867676 0.335567
vt 0.867676 0.335257
vt 0.878510 0.335634
vt 0.867050 0.335525
vt 0.877876 0.335589
vt 0.877869 0.335902
vt 0.893433 0.326555
vt 0.893410 0.326140
vt 0.904165 0.326326
vt 0.903196 0.347831
vt 0.913900 0.347591
vt 0.914024 0.347851
vt 0.906593 0.339009
vt 0.906302 0.338893
vt 0.908390 0.275022
vt 0.908681 0.275157
vt 0.917149 0.347100
vt 0.917068 0.346833
vt 0.917149 0.346786
vt 0.918916 0.340350
vt 0.918886 0.340047
vt 0.919157 0.340150
vt 0.914376 0.328900
vt 0.914577 0.328665
vt 0.914904 0.328905
vt 0.914362 0.326376
vt 0.914848 0.326384
vt 0.914646 0.326623
vt 0.039040 0.839168
vt 0.039043 0.899365
vt 0.038822 0.899584
vt 0.038822 0.899519
vt 0.033626 0.899520
vt 0.033626 0.899139
vt 0.033734 0.836104
vt 0.880510 0.275851
vt 0.878409 0.336130
vt 0.867582 0.335753
vt 0.869683 0.275474
vt 0.799339 0.756420
vt 0.747745 0.718563
vt 0.747698 0.718254
vt 0.747750 0.718292
vt 0.750889 0.714014
vt 0.749037 0.712655
vt 0.800035 0.750075
vt 0.906217 0.338941
vt 0.895437 0.338771
vt 0.895485 0.338736
vt 0.897577 0.274760
vt 0.918510 0.281115
vt 0.917513 0.341425
vt 0.917210 0.341191
vt 0.918207 0.280980
vt 0.061240 0.944371
vt 0.066546 0.944369
vt 0.066552 0.955201
vt 0.061246 0.955202
vt 0.043327 0.907826
vt 0.048523 0.907844
vt 0.048744 0.908126
vt 0.045813 0.905016
vt 0.051229 0.905330
vt 0.045924 0.905329
vt 0.033626 0.896959
vt 0.028431 0.896960
vt 0.028427 0.833041
vt 0.827278 0.782021
vt 0.830490 0.777748
vt 0.830658 0.777588
vt 0.748655 0.712375
vt 0.752103 0.708049
vt 0.800732 0.743731
vt 0.790512 0.098043
vt 0.801117 0.098434
vt 0.801254 0.098516
vt 0.893499 0.047771
vt 0.904307 0.048245
vt 0.902421 0.117469
vt 0.893590 0.047793
vt 0.901983 0.117445
vt 0.891174 0.117066
vt 1.054885 0.582917
vt 1.054843 0.650595
vt 1.044230 0.649056
vt 1.054840 0.563657
vt 1.044189 0.631227
vt 1.044228 0.556618
vt 0.876194 0.056569
vt 0.874053 0.118092
vt 0.863226 0.117715
vt 0.865365 0.056192
vt 0.985185 0.843892
vt 0.985246 0.844015
vt 0.838884 0.725409
vt 0.988272 0.887878
vt 0.933701 0.836852
vt 0.940095 0.827694
vt 1.001608 0.900422
vt 0.954517 0.841263
vt 1.003880 0.887473
vt 0.954382 0.098163
vt 0.950214 0.161843
vt 0.949913 0.161821
vt 0.953453 0.072974
vt 0.960832 0.134219
vt 0.953148 0.072963
vt 0.911249 0.039071
vt 0.911228 0.039140
vt 0.900464 0.038751
vt 0.904266 0.040635
vt 0.893509 0.040318
vt 0.893509 0.040241
vt 0.927711 0.062529
vt 0.927574 0.062585
vt 0.927521 0.062503
vt 0.950943 0.072889
vt 0.950699 0.072855
vt 0.950729 0.072784
vt 0.935963 0.110715
vt 0.939167 0.038269
vt 0.939320 0.038216
vt 0.942799 0.108868
vt 0.938953 0.038646
vt 0.939091 0.038678
vt 0.935627 0.129200
vt 0.940826 0.058284
vt 0.935907 0.129236
vt -0.016229 0.657914
vt -0.016235 0.748781
vt -0.026847 0.749345
vt -0.016234 0.641219
vt -0.026852 0.731319
vt -0.026847 0.649444
vt 0.887366 0.079135
vt 0.884442 0.163030
vt 0.873615 0.162653
vt 0.876539 0.078758
vt 0.899875 0.898732
vt 0.834015 0.850418
vt 0.841027 0.841852
vt 0.804688 0.832031
vt 148.631836 0.796875
vt 148.627930 0.796875
vt 0.913904 0.909026
vt 0.853982 0.851358
vt 0.927455 0.905258
vt 0.914291 0.094637
vt 0.911883 0.168257
vt 0.901070 0.167962
vt 0.914291 0.094668
vt 0.901070 0.167948
vt 0.903479 0.094277
vt -268269.000000 -67130.250000
vt -43813888.000000 -10953600.000000
vt -43861504.000000 -10965376.000000
vt 0.882814 0.092360
vt 0.884782 0.178768
vt 0.884482 0.178782
vt 0.885887 0.098655
vt 0.876462 0.190311
vt 0.885588 0.098956
vt 0.868673 0.182790
vt 0.879665 0.102380
vt 0.879963 0.102130
vt 0.877206 0.179521
vt 0.876070 0.102880
vt 0.877516 0.179507
s 1
usemtl wood
f 1/1/1 2/2/2 3/3/3
f 1/1/1 3/3/3 4/4/1
f 5/5/4 6/6/4 7/7/4
f 5/5/4 7/7/4 8/8/4
f 9/9/5 10/10/5 11/11/5
f 9/9/5 11/11/5 12/12/5
f 4/13/6 3/14/6 10/15/6
f 4/13/6 10/15/6 9/16/6
f 8/8/7 7/7/7 2/17/7
f 8/8/7 2/17/7 1/18/7
f 12/12/8 11/11/8 6/19/8
f 12/12/8 6/19/8 5/20/8
f 13/21/1 1/1/1 4/4/1
f 13/21/1 4/4/1 14/22/1
f 15/23/4 5/5/4 8/8/4
f 15/23/4 8/8/4 16/24/4
f 17/25/5 9/9/5 12/12/5
f 17/25/5 12/12/5 18/26/5
f 14/27/6 4/13/6 9/16/6
f 14/27/6 9/16/6 17/28/6
f 16/24/9 8/8/7 1/18/7
f 16/24/9 1/18/7 13/29/9
f 18/26/8 12/12/8 5/20/8
f 18/26/8 5/20/8 15/30/8
f 19/1/1 20/4/1 21/31/10
f 19/1/1 21/31/10 22/32/11
f 23/5/4 24/8/4 25/33/4
f 23/5/4 25/33/4 26/34/4
f 27/9/5 28/12/5 29/35/5
f 27/9/5 29/35/5 30/36/5
f 20/13/6 27/16/6 30/37/6
f 20/13/6 30/37/6 21/38/6
f 24/8/9 19/18/9 22/39/12
f 24/8/9 22/39/12 25/33/12
f 28/12/13 23/20/13 26/40/8
f 28/12/13 26/40/8 29/35/8
f 13/21/1 14/22/1 20/4/1
f 13/21/1 20/4/1 19/1/1
f 15/23/4 16/24/4 24/8/4
f 15/23/4 24/8/4 23/5/4
f 17/25/5 18/26/5 28/12/5
f 17/25/5 28/12/5 27/9/5
f 14/27/6 17/28/6 27/16/6
f 14/27/6 27/16/6 20/13/6
f 16/24/9 13/29/9 19/18/9
f 16/24/9 19/18/9 24/8/9
f 18/26/8 15/30/8 23/20/13
f 18/26/8 23/20/13 28/12/13
f 2/41/2 7/42/14 6/43/15
f 2/44/2 6/45/15 11/46/16
f 2/47/2 11/48/16 10/49/16
f 2/50/2 10/51/16 3/52/3
f 21/53/10 30/54/17 29/55/17
f 21/56/10 29/57/17 26/58/18
f 21/59/10 26/60/18 25/61/17
f 21/62/10 25/63/17 22/64/11
f 31/65/19 32/66/20 33/67/20
f 31/65/19 33/67/20 34/68/21
f 31/69/22 35/70/23 36/71/24
f 31/72/22 36/73/24 32/74/25
f 37/75/26 38/76/27 39/77/27
f 37/78/26 39/79/27 40/80/26
f 34/81/21 41/82/28 42/83/28
f 34/84/21 42/85/28 31/86/19
f 35/87/29 43/88/29 44/89/29
f 35/87/29 44/89/29 45/90/29
f 31/91/22 42/92/30 43/93/31
f 31/94/22 43/95/31 35/96/23
f 46/97/32 47/98/33 38/99/34
f 46/100/32 38/101/34 37/102/35
f 48/103/4 47/104/4 46/105/4
f 48/103/4 46/106/4 36/107/4
f 48/103/4 36/108/4 49/109/4
f 50/110/36 39/111/36 38/112/36
f 50/110/36 38/112/36 51/113/36
f 52/114/6 41/115/6 34/116/6
f 52/114/6 34/117/6 33/118/6
f 52/114/6 33/119/6 53/120/6
f 44/89/37 43/88/37 42/121/37
f 44/89/37 42/121/37 41/122/37
f 44/89/37 41/123/37 52/124/37
f 51/125/38 38/126/38 47/127/38
f 51/125/38 47/127/38 48/128/38
f 32/129/39 37/130/26 40/131/26
f 32/129/39 40/131/26 33/132/39
f 36/133/40 46/134/32 37/135/35
f 36/136/40 37/137/35 32/138/41
f 36/139/4 35/140/4 45/141/4
f 36/108/4 45/141/4 49/109/4
f 33/142/6 40/143/42 39/144/6
f 33/145/6 39/146/6 50/147/6
f 33/119/6 50/147/6 53/120/6
f 54/148/43 55/149/44 56/150/45
f 54/151/43 56/152/45 57/153/43
f 54/154/43 57/155/43 58/156/43
f 59/157/4 60/158/4 61/159/4
f 59/160/4 61/161/4 62/162/4
f 63/163/46 64/164/46 65/165/46
f 63/163/46 65/165/46 66/166/46
f 67/167/6 54/168/6 58/169/6
f 67/170/6 58/171/6 64/172/6
f 67/173/6 64/174/6 63/175/6
f 66/176/47 65/177/48 60/178/49
f 66/179/47 60/180/49 59/181/47
f 68/182/50 55/183/50 54/184/51
f 68/185/50 54/186/51 67/187/51
f 69/188/52 56/189/53 55/190/54
f 69/191/52 55/192/54 68/193/55
f 57/194/56 56/195/57 69/196/58
f 57/197/56 69/198/58 62/199/59
f 57/200/56 62/201/59 61/202/56
f 70/203/4 71/204/4 72/205/4
f 70/206/4 72/207/4 73/208/4
f 74/209/16 75/210/16 76/211/16
f 74/209/16 76/211/16 77/212/16
f 78/213/6 79/214/6 80/215/60
f 78/216/6 80/217/60 75/218/61
f 78/219/6 75/220/61 74/221/6
f 81/222/62 82/223/62 79/224/62
f 81/225/62 79/226/62 78/227/62
f 77/228/63 76/229/64 83/230/65
f 77/231/63 83/232/65 71/233/66
f 77/234/63 71/235/66 70/236/63
f 82/237/67 81/238/68 73/239/68
f 82/240/67 73/241/68 72/242/67
