# Blender 4.0.2
# www.blender.org
mtllib zadeldak_wall_triangle_carcass_4000.mtl
o zadeldak_wall_triangle_carcass_4000
v -0.013863 0.191225 -1.803937
v -0.037675 0.191225 -1.803937
v -0.023819 0.191222 1.803930
v -0.000007 0.191222 1.803930
v -0.037674 0.141225 -1.890541
v -0.023818 0.141222 1.890533
v -0.012862 0.142225 -1.888808
v -0.012863 0.190225 -1.805669
v 0.000993 0.190222 1.805662
v 0.000994 0.142222 1.888801
v -0.013862 0.141225 -1.890541
v -0.000006 0.141222 1.890533
v -0.000008 1.161250 0.024015
v -0.000008 1.174976 0.000015
v -0.023820 1.174976 0.000015
v -0.023820 1.161250 0.024015
v 0.000992 1.160250 0.024015
v 0.000992 1.173975 0.000515
v -0.000007 1.161250 -0.023985
v -0.000007 1.160250 -0.024985
v -0.023820 1.160250 -0.024985
v -0.023820 1.161250 -0.023985
v -0.023820 1.160250 0.025015
v -0.000422 1.160250 0.025015
v -0.000008 1.159836 0.025015
v -0.000008 0.191174 0.025030
v 0.000992 0.191175 0.024030
v 0.000993 1.160250 -0.022985
v 0.000993 1.159250 -0.023985
v 0.000993 0.191207 -0.023971
v 0.000992 0.191191 0.000030
v -0.023820 0.191208 -0.024971
v -0.000007 0.191208 -0.024971
v -0.023820 0.191174 0.025030
v -0.023820 0.191191 0.000030
v -0.023819 0.191089 1.806167
v -0.000421 0.191089 1.806167
v -0.000006 0.191296 1.805808
v -0.000002 1.232727 -0.000000
v -0.023815 1.232727 -0.000000
v 0.000993 0.190762 1.708522
v 0.000998 1.176231 -0.000000
v 0.000998 1.231574 -0.000000
v 0.000994 0.190759 1.804735
v -0.023819 0.190762 1.706515
v -0.023815 1.175078 -0.000000
v -0.000002 1.175077 -0.000000
v -0.000007 0.190762 1.706515
v -0.023819 0.190759 1.806255
v -0.000321 0.190759 1.806255
v 0.000494 0.190759 1.805738
v -0.012868 0.190762 -1.802743
v 0.000992 1.231573 -0.000000
v 0.000992 1.176148 -0.000000
v -0.012868 0.190762 -1.706742
v -0.037680 0.190762 -1.804742
v -0.023820 1.232727 -0.000000
v -0.000008 1.232727 -0.000000
v -0.013868 0.190762 -1.804742
v -0.037680 0.190762 -1.704742
v -0.023820 1.174993 -0.000000
v -0.023820 1.232727 -0.000000
v -0.013868 0.190762 -1.704742
v -0.000008 1.174993 -0.000000
v -0.000007 1.232727 -0.000000
vn -0.0000 0.9565 -0.2916
vn -0.0000 0.9658 -0.2591
vn -0.0000 0.9660 0.2585
vn -0.0000 0.9564 0.2922
vn -1.0000 -0.0063 0.0037
vn -1.0000 -0.0064 0.0037
vn -1.0000 0.0063 0.0038
vn -1.0000 0.0066 0.0038
vn 1.0000 0.0063 -0.0038
vn 1.0000 0.0067 -0.0038
vn 1.0000 -0.0063 -0.0037
vn -0.0000 -1.0000 -0.0000
vn 0.7048 0.7094 -0.0027
vn 0.7094 0.7048 -0.0027
vn 0.7094 -0.7048 -0.0026
vn 0.7048 -0.7094 -0.0026
vn 0.0002 0.8660 -0.5000
vn 0.0003 0.8660 -0.5000
vn 0.0001 0.8660 -0.5000
vn -0.0000 0.8660 -0.5000
vn -0.0000 0.8660 0.5000
vn -0.0000 0.8026 0.5965
vn -0.0000 0.8681 0.4965
vn -0.0000 0.7946 0.6071
vn 0.6016 0.6046 0.5220
vn 0.5857 0.5857 0.5604
vn 0.5302 0.7359 0.4211
vn 0.5273 0.7376 0.4218
vn -0.0000 0.7946 -0.6071
vn -0.0000 0.7071 -0.7071
vn -0.0000 0.7071 0.7071
vn 0.7071 -0.0000 0.7071
vn 0.4998 0.5001 0.7071
vn 0.4999 0.5001 0.7071
vn 0.8139 0.4634 -0.3505
vn 0.8165 0.4083 -0.4082
vn 0.8165 0.4083 -0.4083
vn 0.8134 0.4579 -0.3587
vn 1.0000 -0.0000 -0.0000
vn -0.0000 -0.0000 -1.0000
vn -1.0000 -0.0000 -0.0000
vn -0.0000 -0.0000 1.0000
vn 0.7071 -0.0000 -0.7071
vn -0.0000 0.8681 -0.4965
vn 0.7475 0.5765 -0.3299
vn 0.7451 0.5790 -0.3311
vn -0.0000 0.8663 0.4996
vn -0.0000 0.8663 0.4995
vn -0.0000 -0.8662 -0.4996
vn 0.7081 -0.6117 -0.3528
vn 0.7070 -0.6126 -0.3534
vn -0.0000 0.2574 0.9663
vn -0.0000 0.2581 0.9661
vn 0.4996 0.3621 0.7869
vn 0.4996 0.3629 0.7866
vn 0.4996 0.3616 0.7871
vn 0.4996 0.3609 0.7875
vn 0.7067 0.6129 0.3535
vn 0.7071 0.6125 0.3533
vn 0.7074 0.6123 0.3531
vn 0.7079 0.6118 0.3529
vn 0.9999 -0.0134 -0.0003
vn 1.0000 -0.0000 -0.0077
vn 1.0000 -0.0002 -0.0076
vn 0.9999 -0.0141 -0.0000
vn -1.0000 -0.0000 0.0081
vn -0.0000 1.0000 -0.0000
vn -0.9999 0.0133 -0.0000
vn -0.0000 -0.8660 0.5000
vn 0.7110 0.6066 -0.3557
vn 0.7059 0.6110 -0.3582
vn 0.7060 0.6110 -0.3582
vn 0.7086 -0.6136 0.3485
vn 0.7028 -0.6185 0.3514
vn 0.7029 -0.6185 0.3514
vt 0.062758 0.603137
vt 0.051933 0.602757
vt 0.152305 0.630965
vt 0.140592 0.649711
vt 0.112430 0.655374
vt 0.102462 0.636640
vt 0.090300 0.577593
vt 0.079475 0.577219
vt 0.102163 0.636245
vt 0.079176 0.576824
vt 0.028431 0.944385
vt 0.033737 0.944382
vt 0.033743 0.955215
vt 0.028437 0.955218
vt 0.028431 0.944072
vt 0.033626 0.944071
vt 0.866022 0.380497
vt 0.866033 0.380185
vt 0.876860 0.380562
vt 0.876849 0.380874
vt 0.893947 0.386303
vt 0.893942 0.385889
vt 0.904676 0.386066
vt 0.904799 0.386330
vt 0.905051 0.386134
vt 0.904759 0.386018
vt 0.908390 0.275022
vt 0.908681 0.275157
vt 0.916278 0.385882
vt 0.916473 0.385645
vt 0.916776 0.385879
vt 0.916575 0.386125
vt 0.039040 0.839168
vt 0.039043 0.943850
vt 0.038822 0.944070
vt 0.033734 0.836104
vt 0.880510 0.275851
vt 0.869683 0.275474
vt 0.799339 0.756420
vt 0.709717 0.690663
vt 0.709670 0.690354
vt 0.712809 0.686076
vt 0.800035 0.750075
vt 0.897577 0.274760
vt 0.918510 0.281115
vt 0.918207 0.280980
vt 0.039043 0.944380
vt 0.039049 0.955212
vt 0.028427 0.833041
vt 0.715948 0.681797
vt 0.716257 0.681750
vt 0.800732 0.743731
vt 0.894839 0.011980
vt 0.905568 0.012367
vt 0.905645 0.012454
vt 0.901424 0.133463
vt 0.890615 0.133084
vt 0.999495 0.526948
vt 0.999487 0.642568
vt 0.988874 0.641029
vt 0.998669 0.526771
vt 0.988871 0.519900
vt 0.871185 0.019277
vt 0.873462 0.135060
vt 0.862635 0.134683
vt 0.871185 0.019277
vt 0.860358 0.018900
vt 0.990169 0.965580
vt 0.990094 0.965582
vt 0.901683 0.882709
vt 0.908077 0.873551
vt 0.991994 0.953333
vt 0.914675 0.052165
vt 0.914872 0.168185
vt 0.914568 0.168161
vt 0.914673 0.053201
vt 0.914370 0.053191
vt 0.905601 0.012298
vt 0.894844 0.011905
vt 0.905795 0.012400
vt 0.905941 0.012432
vt 0.901719 0.133500
vt 0.039033 0.598388
vt 0.039037 0.745844
vt 0.028425 0.746408
vt 0.028420 0.606613
vt 0.888911 0.034799
vt 0.883765 0.182443
vt 0.872938 0.182066
vt 0.878084 0.034421
vt 0.981649 0.890184
vt 0.869076 0.807587
vt 0.876088 0.799021
vt 0.876089 0.799021
vt 0.995200 0.886415
vt 0.915781 0.049090
vt 0.911218 0.188583
vt 0.900405 0.188288
vt 0.904970 0.048699
vt 0.922503 0.039942
vt 0.920058 0.187660
vt 0.919753 0.187673
vt 0.922196 0.040243
vt 0.916084 0.048840
vt 0.911514 0.188567
s 1
usemtl wood
f 1/1/1 2/2/2 3/2/3
f 1/1/1 3/2/3 4/1/4
f 2/3/5 5/4/6 6/4/7
f 2/3/5 6/4/7 3/3/8
f 7/5/9 8/6/10 9/6/11
f 7/5/9 9/6/11 10/5/11
f 5/7/12 11/8/12 12/8/12
f 5/7/12 12/8/12 6/7/12
f 8/6/13 1/9/13 4/9/14
f 8/6/13 4/9/14 9/6/14
f 11/8/15 7/10/15 10/10/16
f 11/8/15 10/10/16 12/8/16
f 1/1/1 8/6/17 7/5/18
f 1/1/1 7/5/18 11/8/19
f 1/1/1 11/8/19 5/7/20
f 1/1/1 5/7/20 2/3/2
f 3/2/3 6/4/21 12/8/21
f 3/2/3 12/8/21 10/10/21
f 3/2/3 10/10/21 9/6/21
f 3/2/3 9/6/21 4/9/4
f 13/11/22 14/12/23 15/13/23
f 13/11/22 15/13/23 16/14/24
f 13/11/25 17/15/26 18/16/27
f 13/11/25 18/16/27 14/12/28
f 19/17/29 20/18/30 21/19/30
f 19/17/29 21/19/30 22/20/29
f 16/21/24 23/22/31 24/23/31
f 16/21/24 24/23/31 13/24/22
f 17/25/32 25/26/32 26/27/32
f 17/25/32 26/27/32 27/28/32
f 13/24/25 24/23/33 25/26/34
f 13/24/25 25/26/34 17/25/26
f 28/29/35 29/30/36 20/31/37
f 28/29/35 20/31/37 19/32/38
f 30/33/39 29/34/39 28/35/39
f 30/33/39 28/35/39 18/16/39
f 30/33/39 18/16/39 31/36/39
f 32/37/40 21/19/40 20/18/40
f 32/37/40 20/18/40 33/38/40
f 34/39/41 23/40/41 16/41/41
f 34/39/41 16/41/41 15/42/41
f 34/39/41 15/42/41 35/43/41
f 26/27/42 25/26/42 24/23/42
f 26/27/42 24/23/42 23/22/42
f 26/27/42 23/22/42 34/44/42
f 33/45/43 20/31/43 29/30/43
f 33/45/43 29/30/43 30/46/43
f 14/12/44 19/47/29 22/48/29
f 14/12/44 22/48/29 15/13/44
f 18/16/45 28/35/35 19/47/38
f 18/16/45 19/47/38 14/12/46
f 18/16/39 17/15/39 27/49/39
f 18/16/39 27/49/39 31/36/39
f 15/42/41 22/50/41 21/51/41
f 15/42/41 21/51/41 32/52/41
f 15/42/41 32/52/41 35/43/41
f 36/53/47 37/54/48 38/55/48
f 36/53/47 38/55/48 39/56/47
f 36/53/47 39/56/47 40/57/47
f 41/58/39 42/59/39 43/60/39
f 41/61/39 43/60/39 44/62/39
f 45/63/49 46/64/49 47/65/49
f 45/66/49 47/65/49 48/67/49
f 49/68/41 36/69/41 40/70/41
f 49/68/41 40/70/41 46/71/41
f 49/68/41 46/71/41 45/72/41
f 48/73/50 47/74/51 42/75/51
f 48/76/50 42/75/51 41/77/50
f 50/78/52 37/54/52 36/53/53
f 50/78/52 36/53/53 49/79/53
f 51/80/54 38/55/55 37/54/56
f 51/80/54 37/54/56 50/78/57
f 39/56/58 38/55/59 51/80/60
f 39/56/58 51/80/60 44/81/61
f 39/56/58 44/81/61 43/82/58
f 52/83/62 53/84/63 54/85/64
f 52/83/62 54/85/64 55/86/65
f 56/87/20 57/88/20 58/89/20
f 56/87/20 58/89/20 59/90/20
f 60/91/66 61/92/66 62/93/66
f 60/91/67 62/93/67 57/94/67
f 60/91/68 57/94/68 56/95/68
f 63/96/69 64/97/69 61/98/69
f 63/96/69 61/98/69 60/99/69
f 59/100/20 58/101/20 65/101/20
f 59/100/70 65/101/71 53/102/72
f 59/100/70 53/102/72 52/103/70
f 64/97/73 63/96/74 55/104/75
f 64/97/73 55/104/75 54/105/73
