# Blender 4.0.2
# www.blender.org
mtllib zadeldak_wall_triangle_carcass_4500.mtl
o zadeldak_wall_triangle_carcass_4500
v -0.013863 0.192225 -2.055955
v -0.037675 0.192225 -2.055955
v -0.023819 0.192222 2.055956
v -0.000007 0.192222 2.055956
v -0.037674 0.142225 -2.142560
v -0.023818 0.142222 2.142559
v -0.012862 0.143225 -2.140826
v -0.012863 0.191225 -2.057687
v 0.000993 0.191222 2.057688
v 0.000994 0.143222 2.140827
v -0.013862 0.142225 -2.142560
v -0.000006 0.142222 2.142559
v -0.000008 1.307780 0.024015
v -0.000008 1.321506 0.000015
v -0.023820 1.321506 0.000015
v -0.023820 1.307780 0.024015
v 0.000992 1.306780 0.024015
v 0.000992 1.320505 0.000515
v -0.000007 1.307780 -0.023985
v -0.000007 1.306780 -0.024985
v -0.023820 1.306780 -0.024985
v -0.023820 1.307780 -0.023985
v -0.023820 1.306780 0.025015
v -0.000422 1.306780 0.025015
v -0.000008 1.306366 0.025015
v -0.000008 0.192174 0.025030
v 0.000992 0.192175 0.024030
v 0.000993 1.306780 -0.022985
v 0.000993 1.305780 -0.023985
v 0.000993 0.192207 -0.023971
v 0.000992 0.192191 0.000030
v -0.023820 0.192208 -0.024971
v -0.000007 0.192208 -0.024971
v -0.023820 0.192174 0.025030
v -0.023820 0.192191 0.000030
v -0.023819 0.192089 2.058193
v -0.000421 0.192089 2.058193
v -0.000006 0.192296 2.057835
v -0.000002 1.379257 -0.000000
v -0.023815 1.379257 -0.000000
v 0.000993 0.191762 1.960549
v 0.000998 1.322761 -0.000000
v 0.000998 1.378104 -0.000000
v 0.000994 0.191759 2.056761
v -0.023819 0.191762 1.958542
v -0.023815 1.321608 -0.000000
v -0.000002 1.321607 -0.000000
v -0.000007 0.191762 1.958542
v -0.023819 0.191759 2.058281
v -0.000321 0.191759 2.058281
v 0.000494 0.191759 2.057765
v -0.012868 0.191762 -2.054761
v 0.000992 1.378103 -0.000000
v 0.000992 1.322678 -0.000000
v -0.012868 0.191762 -1.958760
v -0.037680 0.191762 -2.056760
v -0.023820 1.379257 -0.000000
v -0.000008 1.379257 -0.000000
v -0.013868 0.191762 -2.056760
v -0.037680 0.191762 -1.956760
v -0.023820 1.321523 -0.000000
v -0.023820 1.379257 -0.000000
v -0.013868 0.191762 -1.956760
v -0.000008 1.321523 -0.000000
v -0.000007 1.379257 -0.000000
vn -0.0000 0.9565 -0.2917
vn -0.0000 0.9659 -0.2591
vn -0.0000 1.0000 -0.0000
vn -1.0000 -0.0056 0.0032
vn -1.0000 0.0056 0.0034
vn -1.0000 0.0058 0.0034
vn 1.0000 0.0056 -0.0034
vn 1.0000 0.0059 -0.0034
vn 1.0000 -0.0055 -0.0032
vn 1.0000 -0.0056 -0.0032
vn -0.0000 -1.0000 -0.0000
vn 0.7050 0.7092 -0.0024
vn 0.7091 0.7051 -0.0024
vn 0.7091 -0.7051 -0.0023
vn 0.7051 -0.7091 -0.0023
vn -0.0001 0.8660 -0.5000
vn 0.0006 0.8660 -0.5000
vn 0.0002 0.8660 -0.5000
vn -0.0000 0.8660 -0.5000
vn -0.0000 0.8660 0.5000
vn 0.0001 0.8660 0.5000
vn -0.0000 0.8661 0.4999
vn -0.0000 0.8026 0.5965
vn -0.0000 0.8681 0.4965
vn -0.0000 0.7946 0.6072
vn 0.6017 0.6045 0.5220
vn 0.5857 0.5856 0.5604
vn 0.5304 0.7358 0.4210
vn 0.5275 0.7375 0.4218
vn -0.0000 0.7946 -0.6072
vn -0.0000 0.7067 -0.7075
vn -0.0000 0.7070 -0.7072
vn -0.0000 0.7070 0.7072
vn 0.7071 -0.0000 0.7071
vn 0.5000 0.5000 0.7071
vn 0.4997 0.4999 0.7074
vn 0.8139 0.4634 -0.3505
vn 0.8164 0.4083 -0.4083
vn 0.8165 0.4082 -0.4083
vn 0.8135 0.4578 -0.3587
vn 1.0000 -0.0000 -0.0000
vn -0.0000 -0.0000 -1.0000
vn -1.0000 -0.0000 -0.0000
vn -0.0000 -0.0000 1.0000
vn 0.7071 -0.0000 -0.7071
vn -0.0000 0.8681 -0.4965
vn 0.7476 0.5764 -0.3299
vn 0.7451 0.5789 -0.3311
vn -0.0000 0.8662 0.4997
vn -0.0000 0.8659 0.5002
vn -0.0000 0.8662 0.4996
vn 0.9605 -0.2381 -0.1441
vn 1.0000 -0.0050 -0.0031
vn 1.0000 0.0019 0.0011
vn 0.9615 0.2350 0.1424
vn -0.0000 -0.8662 -0.4997
vn -0.9940 0.0960 0.0527
vn -1.0000 0.0026 0.0014
vn -0.9854 -0.1483 -0.0841
vn -0.9616 -0.2407 -0.1319
vn 0.7031 -0.6160 -0.3554
vn 0.7070 -0.6126 -0.3534
vn 0.7081 -0.6116 -0.3528
vn 0.7120 -0.6082 -0.3509
vn -0.0000 0.2579 0.9662
vn -0.0000 0.2582 0.9661
vn -0.0000 0.2585 0.9660
vn -0.0000 0.2590 0.9659
vn 0.4991 0.3613 0.7876
vn 0.4992 0.3615 0.7875
vn 0.4989 0.3610 0.7879
vn 0.4996 0.3624 0.7868
vn 0.4996 0.3623 0.7869
vn 0.4996 0.3622 0.7869
vn 0.7066 0.6130 0.3535
vn 0.7073 0.6123 0.3532
vn 0.7076 0.6121 0.3530
vn 0.7078 0.6119 0.3530
vn 0.7067 0.6129 0.3535
vn 0.7080 0.6117 0.3529
vn 0.9999 -0.0118 -0.0003
vn 1.0000 -0.0000 -0.0067
vn 0.9999 -0.0119 -0.0003
vn 1.0000 -0.0001 -0.0067
vn 0.9999 -0.0123 -0.0000
vn -0.0000 0.8658 -0.5004
vn -0.0000 0.8652 -0.5015
vn -1.0000 -0.0000 0.0071
vn -0.9999 0.0117 -0.0000
vn -0.0000 -0.8660 0.5000
vn -0.0000 0.8648 -0.5021
vn 0.7105 0.6073 -0.3555
vn 0.7060 0.6112 -0.3577
vn 0.7105 0.6073 -0.3554
vn 0.7085 -0.6133 0.3491
vn 0.7034 -0.6177 0.3517
vn 0.7084 -0.6134 0.3491
vt 0.063198 0.603152
vt 0.052373 0.602772
vt 0.051493 0.602741
vt 0.062318 0.603122
vt 0.135905 0.657212
vt 0.124192 0.675958
vt 0.124195 0.675953
vt 0.135906 0.657211
vt 0.126968 0.682697
vt 0.117000 0.663963
vt 0.116997 0.663958
vt 0.126968 0.682696
vt 0.089880 0.577578
vt 0.079055 0.577205
vt 0.079895 0.577234
vt 0.090720 0.577608
vt 0.113003 0.650566
vt 0.112704 0.650171
vt 0.112415 0.649790
vt 0.113142 0.650751
vt 0.112554 0.649973
vt 0.112853 0.650366
vt 0.089869 0.590949
vt 0.089570 0.590556
vt 0.089846 0.590921
vt 0.089736 0.590773
vt 0.089713 0.590744
vt 0.090013 0.591141
vt 0.089172 0.652658
vt 0.128876 0.686160
vt 0.138844 0.704894
vt 0.103813 0.534512
vt 0.153485 0.586749
vt 0.120530 0.508594
vt 0.105095 0.537499
vt 0.121812 0.511581
vt 0.132637 0.511955
vt -0.094262 0.467974
vt -0.066720 0.442430
vt -0.004715 0.495802
vt 0.276479 0.721681
vt 0.365138 0.768636
vt 0.304021 0.696143
vt 0.111396 0.575056
vt 0.138938 0.549517
vt 0.138639 0.549124
vt -0.009504 0.444950
vt 0.017739 0.419017
vt 0.041025 0.478833
vt -0.177331 0.474869
vt -0.126803 0.508759
vt -0.127101 0.508362
vt 0.035627 0.944381
vt 0.040933 0.944378
vt 0.040939 0.955211
vt 0.035633 0.955214
vt 0.032596 0.954480
vt 0.032596 0.954170
vt 0.037791 0.954167
vt 0.033639 0.953520
vt 0.038834 0.953205
vt 0.038945 0.953518
vt 0.865608 0.392279
vt 0.865616 0.391967
vt 0.876443 0.392344
vt 0.876434 0.392656
vt 0.894138 0.401938
vt 0.894131 0.401525
vt 0.904867 0.401701
vt 0.891464 0.396255
vt 0.902195 0.396019
vt 0.902317 0.396283
vt 0.904768 0.394788
vt 0.904476 0.394672
vt 0.908652 0.267001
vt 0.908943 0.267141
vt 0.902077 0.396851
vt 0.901970 0.396589
vt 0.902039 0.396538
vt 0.901110 0.398363
vt 0.901068 0.398051
vt 0.901361 0.398166
vt 0.916542 0.400723
vt 0.916737 0.400488
vt 0.917049 0.400724
vt 0.916168 0.401289
vt 0.916668 0.401287
vt 0.916466 0.401531
vt 0.039040 0.831598
vt 0.039043 0.952017
vt 0.038822 0.952237
vt 0.038822 0.952251
vt 0.033626 0.952252
vt 0.039040 0.831473
vt 0.033626 0.952373
vt 0.033734 0.828409
vt 0.880774 0.268287
vt 0.876576 0.388723
vt 0.865749 0.388346
vt 0.869947 0.267910
vt 0.805813 0.761170
vt 0.702732 0.685538
vt 0.702685 0.685229
vt 0.705813 0.680943
vt 0.805546 0.760974
vt 0.706112 0.681163
vt 0.806242 0.754629
vt 0.904393 0.394720
vt 0.908645 0.267000
vt 0.893667 0.394544
vt 0.893659 0.394550
vt 0.897840 0.266732
vt 0.918635 0.273547
vt 0.916641 0.394044
vt 0.916338 0.393810
vt 0.918333 0.273411
vt 0.026541 0.944384
vt 0.031847 0.944382
vt 0.031853 0.955214
vt 0.026547 0.955219
vt 0.031090 0.953703
vt 0.036286 0.953705
vt 0.036507 0.954012
vt 0.030440 0.954206
vt 0.035857 0.954515
vt 0.030551 0.954519
vt 0.033626 0.952724
vt 0.028431 0.952726
vt 0.028427 0.825020
vt 0.028427 0.825346
vt 0.681366 0.662918
vt 0.684502 0.658630
vt 0.684814 0.658592
vt 0.706225 0.681245
vt 0.709673 0.676919
vt 0.806835 0.748208
vt 0.806939 0.748285
vt 0.972595 -0.036968
vt 0.983246 -0.036580
vt 0.983368 -0.036494
vt 0.895292 -0.002374
vt 0.906098 -0.001900
vt 0.901348 0.135653
vt 0.890538 0.135276
vt 0.985043 0.507796
vt 0.985003 0.640468
vt 0.974390 0.638929
vt 0.985225 0.509289
vt 0.975537 0.640467
vt 0.975427 0.502417
vt 0.870902 0.004769
vt 0.873507 0.137278
vt 0.862680 0.136901
vt 0.870900 0.004769
vt 0.860071 0.004392
vt 0.982525 0.986740
vt 0.982521 0.986796
vt 0.882577 0.884361
vt 0.994155 0.989118
vt 0.893306 0.894707
vt 0.899700 0.885549
vt 0.993653 0.987403
vt 0.899242 0.883508
vt 0.995482 0.975153
vt 0.905114 0.035595
vt 0.904909 0.168494
vt 0.904608 0.168470
vt 0.904021 0.041778
vt 0.904724 0.173317
vt 0.903713 0.041768
vt 0.904841 -0.015129
vt 0.904771 -0.015060
vt 0.894034 -0.015447
vt 0.906586 -0.016843
vt 0.895844 -0.017161
vt 0.895844 -0.017236
vt 0.892181 -0.023839
vt 0.892059 -0.023785
vt 0.891937 -0.023872
vt 0.891052 -0.031239
vt 0.890808 -0.031272
vt 0.890869 -0.031342
vt 0.891560 0.138398
vt 0.896751 0.000615
vt 0.896904 0.000561
vt 0.891674 0.136861
vt 0.895569 -0.000849
vt 0.895721 -0.000817
vt 0.891733 0.133350
vt 0.897030 -0.004348
vt 0.892031 0.133387
vt 0.053486 0.577007
vt 0.053498 0.745075
vt 0.042886 0.745640
vt 0.053492 0.577253
vt 0.042884 0.745915
vt 0.042879 0.585478
vt 0.888774 0.017260
vt 0.883786 0.185122
vt 0.872959 0.184745
vt 0.877947 0.016882
vt 1.007459 0.891194
vt 0.878249 0.796381
vt 0.885261 0.787815
vt 1.007374 0.891125
vt 0.885181 0.787758
vt 1.020925 0.887356
vt 0.917142 0.031621
vt 0.911010 0.191256
vt 0.900197 0.190961
vt 0.906331 0.031225
vt 0.922729 0.028534
vt 0.920013 0.190334
vt 0.920013 0.190338
vt 0.932163 0.020555
vt 0.930019 0.188587
vt 0.929716 0.188601
vt 0.933239 0.016027
vt 0.929836 0.184438
vt 0.932934 0.016328
vt 0.920750 0.187148
vt 0.927044 0.026796
vt 0.927349 0.026546
vt 0.920856 0.189382
vt 0.926308 0.029228
vt 0.921150 0.189365
s 1
f 1/1/1 2/2/2 3/3/3
f 1/1/1 3/3/3 4/4/3
f 2/5/4 5/6/4 6/7/5
f 2/5/4 6/7/5 3/8/6
f 7/9/7 8/10/8 9/11/9
f 7/9/7 9/11/9 10/12/10
f 5/13/11 11/14/11 12/15/11
f 5/13/11 12/15/11 6/16/11
f 8/17/12 1/18/12 4/19/13
f 8/20/12 4/21/13 9/22/13
f 11/23/14 7/24/14 10/25/15
f 11/26/14 10/27/15 12/28/15
f 1/29/1 8/30/16 7/31/17
f 1/32/1 7/33/17 11/34/18
f 1/35/1 11/36/18 5/37/19
f 1/38/1 5/39/19 2/40/2
f 3/41/20 6/42/20 12/43/20
f 3/44/20 12/45/20 10/46/21
f 3/47/20 10/48/21 9/49/20
f 3/50/20 9/51/20 4/52/22
f 13/53/23 14/54/24 15/55/24
f 13/53/23 15/55/24 16/56/25
f 13/57/26 17/58/27 18/59/28
f 13/60/26 18/61/28 14/62/29
f 19/63/30 20/64/31 21/65/32
f 19/63/30 21/65/32 22/66/30
f 16/67/25 23/68/33 24/69/33
f 16/70/25 24/71/33 13/72/23
f 17/73/34 25/74/34 26/75/34
f 17/73/34 26/75/34 27/76/34
f 13/77/26 24/78/35 25/79/36
f 13/80/26 25/81/36 17/82/27
f 28/83/37 29/84/38 20/85/39
f 28/86/37 20/87/39 19/88/40
f 30/89/41 29/90/41 28/91/41
f 30/89/41 28/92/41 18/93/41
f 30/94/41 18/95/41 31/96/41
f 32/97/42 21/98/42 20/99/42
f 32/97/42 20/99/42 33/100/42
f 34/101/43 23/102/43 16/103/43
f 34/101/43 16/103/43 15/104/43
f 34/105/43 15/106/43 35/107/43
f 26/75/44 25/74/44 24/108/44
f 26/109/44 24/108/44 23/110/44
f 26/75/44 23/111/44 34/112/44
f 33/113/45 20/114/45 29/115/45
f 33/113/45 29/115/45 30/116/45
f 14/117/46 19/118/30 22/119/30
f 14/117/46 22/119/30 15/120/46
f 18/121/47 28/122/37 19/123/40
f 18/124/47 19/125/40 14/126/48
f 18/127/41 17/128/41 27/129/41
f 18/95/41 27/130/41 31/96/41
f 15/131/43 22/132/43 21/133/43
f 15/134/43 21/135/43 32/136/43
f 15/106/43 32/137/43 35/107/43
f 36/138/49 37/139/50 38/140/22
f 36/141/49 38/142/22 39/143/51
f 36/141/49 39/143/51 40/144/51
f 41/145/52 42/146/41 43/147/53
f 41/148/54 43/149/55 44/150/41
f 45/151/56 46/152/56 47/153/56
f 45/154/56 47/153/56 48/155/56
f 49/156/57 36/157/43 40/158/43
f 49/159/57 40/160/43 46/161/58
f 49/162/59 46/163/60 45/164/43
f 48/165/61 47/166/62 42/167/62
f 48/168/63 42/169/64 41/170/63
f 50/171/65 37/172/65 36/173/66
f 50/174/67 36/175/68 49/176/68
f 51/177/69 38/178/70 37/179/71
f 51/180/72 37/181/73 50/182/74
f 39/183/75 38/184/76 51/185/77
f 39/186/75 51/187/77 44/188/78
f 39/189/79 44/190/80 43/191/79
f 52/192/81 53/193/82 54/194/82
f 52/195/83 54/196/84 55/197/85
f 56/198/19 57/199/19 58/200/86
f 56/198/19 58/200/87 59/201/19
f 60/202/88 61/203/88 62/204/88
f 60/202/3 62/204/3 57/204/3
f 60/205/89 57/206/89 56/207/89
f 63/208/90 64/209/90 61/210/90
f 63/208/90 61/210/90 60/211/90
f 59/212/19 58/213/87 65/214/91
f 59/215/92 65/216/93 53/217/93
f 59/218/94 53/219/93 52/220/94
f 64/221/95 63/222/96 55/223/96
f 64/224/97 55/225/96 54/226/97
