# Blender 4.0.2
# www.blender.org
mtllib tri_window_3500_glass.mtl
o tri_window_3500_glass
v 0.025000 0.245000 1.187624
v 0.025000 1.117764 0.147501
v 0.025000 0.245000 0.147501
v 0.045000 0.245000 1.187624
v 0.045000 1.117764 0.147501
v 0.045000 0.245000 0.147501
v 0.025000 0.245000 -0.147501
v 0.025000 1.117764 -0.147501
v 0.025000 0.245000 -1.187624
v 0.045000 0.245000 -0.147501
v 0.045000 1.117764 -0.147501
v 0.045000 0.245000 -1.187624
vn -1.0000 -0.0000 -0.0000
vn 1.0000 -0.0000 -0.0000
vn -0.0000 -1.0000 -0.0000
vn -0.0000 -0.0000 -1.0000
vn -0.0000 0.7660 0.6428
vn -0.0000 -0.0000 1.0000
vn -0.0000 0.7660 -0.6428
vt 1.432819 -0.647541
vt 1.951635 -0.647541
vt 1.737274 -0.392074
vt 1.367541 1.273039
vt 1.063086 1.528506
vt 0.848725 1.273039
vt 0.658048 2.208299
vt 0.260627 2.208299
vt 0.260627 2.200657
vt 0.658048 2.200657
vt 2.591828 0.960912
vt 2.258359 0.960912
vt 2.258359 0.953270
vt 2.591828 0.953270
vt 2.525828 2.076300
vt 2.015831 2.076301
vt 2.015831 2.068658
vt 2.525829 2.068658
s 0
usemtl glass
f 1/1/1 2/2/1 3/3/1
f 4/4/2 6/5/2 5/6/2
f 1/7/3 3/8/3 6/9/3 4/10/3
f 3/11/4 2/12/4 5/13/4 6/14/4
f 2/15/5 1/16/5 4/17/5 5/18/5
f 10/11/6 11/12/6 8/13/6 7/14/6
f 9/4/1 7/5/1 8/6/1
f 12/7/3 10/8/3 7/9/3 9/10/3
f 12/1/2 11/2/2 10/3/2
f 11/15/7 12/16/7 9/17/7 8/18/7
