# Blender 4.0.2
# www.blender.org
mtllib wall_potdeksel.mtl
o wall_potdeksel
v 2.772949 0.000000 0.074030
v 2.772949 0.000000 0.050030
v 2.772950 0.180382 0.063691
v 2.772950 0.000999 0.074967
v 2.772950 0.362361 0.050030
v 2.772949 0.181180 0.074030
v 2.772949 0.181180 0.050030
v 2.772950 0.361562 0.063691
v 2.772950 0.182179 0.074967
v 2.772949 0.181180 0.064440
v 2.772949 0.543541 0.050030
v 2.772949 0.362361 0.074030
v 2.772949 0.542743 0.063691
v 2.772949 0.363360 0.074967
v 2.772949 0.362361 0.064440
v 2.772949 0.724721 0.050030
v 2.772949 0.543541 0.074030
v 2.772949 0.544540 0.074967
v 2.772949 0.543541 0.064440
v 2.772949 0.724721 0.074030
v 2.772949 0.725720 0.074967
v 2.772949 0.723923 0.063691
v 2.772949 0.724721 0.064440
v 2.772950 1.087082 0.050030
v 2.772950 0.905901 0.074030
v 2.772950 0.905901 0.050030
v 2.772950 1.086283 0.063691
v 2.772950 0.906900 0.074967
v 2.772950 0.905103 0.063691
v 2.772950 0.905901 0.064440
v 2.772950 1.087082 0.074030
v 2.772950 1.088081 0.074967
v 2.772950 1.087082 0.064440
v 2.772950 1.268262 0.074030
v 2.772950 1.268262 0.050030
v 2.772950 1.448644 0.063691
v 2.772950 1.269261 0.074967
v 2.772950 1.267464 0.063691
v 2.772950 1.268262 0.064440
v 2.772950 1.449442 0.074030
v 2.772950 1.449442 0.050030
v 2.772950 1.450441 0.074967
v 2.772950 1.449442 0.064440
v 2.772949 1.630622 0.074030
v 2.772949 1.630622 0.050030
v 2.772950 1.631621 0.074967
v 2.772950 1.629824 0.063691
v 2.772949 1.630622 0.064440
v 2.772950 1.992983 0.050030
v 2.772949 1.811803 0.074030
v 2.772949 1.811803 0.050030
v 2.772950 1.992185 0.063691
v 2.772950 1.812802 0.074967
v 2.772950 1.811004 0.063691
v 2.772949 1.811803 0.064440
v 2.772949 1.992983 0.074030
v 2.772950 2.173365 0.063691
v 2.772950 1.993982 0.074967
v 2.772949 1.992983 0.064440
v 2.772949 2.174163 0.074030
v 2.772949 2.174163 0.050030
v 2.772950 2.175162 0.074967
v 2.772949 2.174163 0.064440
v -0.002073 0.181180 0.064440
v -0.002073 1.269261 0.074967
v -0.002073 1.448644 0.063691
v -0.002073 0.181180 0.074030
v -0.002073 2.174163 0.074030
v -0.002073 2.175162 0.074967
v -0.002073 0.363360 0.074967
v -0.002073 0.542743 0.063691
v -0.002073 2.174163 0.064440
v -0.002073 1.268262 0.074030
v -0.002073 0.543541 0.050030
v -0.002073 1.268262 0.064440
v -0.002073 0.362361 0.074030
v -0.002073 0.362361 0.064440
v -0.002073 1.450441 0.074967
v -0.002073 1.449442 0.050030
v -0.002073 0.544540 0.074967
v -0.002073 1.449442 0.074030
v -0.002073 0.724721 0.050030
v -0.002073 1.449442 0.064440
v -0.002073 0.543541 0.074030
v -0.002073 0.543541 0.064440
v -0.002073 1.631621 0.074967
v -0.002073 1.630622 0.050030
v -0.002073 0.725720 0.074967
v -0.002073 1.630622 0.074030
v -0.002073 1.629824 0.063691
v -0.002073 1.630622 0.064440
v -0.002073 0.724721 0.074030
v -0.002073 0.723923 0.063691
v -0.002073 0.724721 0.064440
v -0.002073 1.812802 0.074967
v -0.002073 1.992185 0.063691
v -0.002073 1.811803 0.050030
v -0.002073 1.992983 0.050030
v -0.002073 0.906900 0.074967
v -0.002073 1.811803 0.074030
v -0.002073 1.811803 0.064440
v -0.002073 0.905901 0.074030
v -0.002073 0.000000 0.050030
v -0.002073 0.000000 0.074030
v -0.002073 0.905103 0.063691
v -0.002073 0.905901 0.064440
v -0.002073 0.000999 0.074967
v -0.002073 1.993982 0.074967
v -0.002073 2.173365 0.063691
v -0.002073 1.088081 0.074967
v -0.002073 1.992983 0.074030
v -0.002073 0.182179 0.074967
v -0.002073 0.361562 0.063691
v -0.002073 1.992983 0.064440
v -0.002073 1.087082 0.074030
v -0.002073 0.362361 0.050030
v -0.002073 1.087082 0.064440
v -0.002073 0.180382 0.063691
v -0.002073 2.174163 0.050030
v -0.002073 1.268262 0.050030
v -0.002073 1.267464 0.063691
v -0.002073 1.811004 0.063691
v -0.002073 0.905901 0.050030
v -0.002073 1.086283 0.063691
v -0.002073 1.087082 0.050030
v -0.002073 0.181180 0.050030
v 2.772950 2.200000 0.073406
v 2.772949 2.200000 0.050030
v -0.002073 2.200000 0.050030
v -0.002073 2.200000 0.073406
vn -0.0000 -0.6841 0.7293
vn -0.0000 0.0627 0.9980
vn -0.0000 -1.0000 -0.0000
vn -0.0000 -0.6842 0.7293
vn -0.0000 -0.0000 -1.0000
vn -0.0000 -0.6841 0.7294
vn 1.0000 -0.0000 -0.0000
vn -1.0000 -0.0000 -0.0000
vn -0.0000 1.0000 -0.0000
vt 0.932251 1.135734
vt 0.932252 1.133942
vt 1.798785 1.133942
vt 1.798785 1.135734
vt 0.932251 0.800408
vt 0.932251 0.744956
vt 1.798784 0.744956
vt 1.798784 0.800408
vt 0.932251 0.167494
vt 0.932251 0.164516
vt 1.798784 0.164516
vt 1.798784 0.167494
vt 0.932251 0.087043
vt 0.932251 0.085255
vt 1.798784 0.085255
vt 1.798784 0.087044
vt 0.932256 2.345882
vt 1.798795 2.345882
vt 1.798795 2.403091
vt 0.932256 2.403091
vt 0.932251 1.047125
vt 0.932251 0.991673
vt 1.798784 0.991673
vt 1.798784 1.047125
vt 0.932251 0.555480
vt 0.932251 0.553691
vt 1.798784 0.553691
vt 1.798784 0.555480
vt 0.932252 0.743167
vt 1.798784 0.743167
vt 0.932256 1.958677
vt 1.798795 1.958677
vt 1.798795 2.015887
vt 0.932256 2.015887
vt 0.932251 0.082277
vt 1.798784 0.082277
vt 0.932251 0.637718
vt 0.932251 0.635930
vt 1.798784 0.635930
vt 1.798784 0.637718
vt 0.932252 0.989884
vt 1.798784 0.989884
vt 0.932252 0.740189
vt 1.798784 0.740189
vt 0.932251 0.226523
vt 0.932251 0.224734
vt 1.798784 0.224734
vt 1.798784 0.226523
vt 0.932251 0.882647
vt 0.932251 0.827195
vt 1.798784 0.827195
vt 1.798784 0.882647
vt 0.932252 0.986906
vt 1.798784 0.986906
vt 0.932256 2.268441
vt 1.798795 2.268441
vt 1.798795 2.325651
vt 0.932256 2.325651
vt 0.932251 0.718169
vt 0.932251 0.662717
vt 1.798784 0.662717
vt 1.798784 0.718169
vt 0.932252 0.825406
vt 1.798784 0.825407
vt 0.932256 1.339150
vt 1.798795 1.339151
vt 1.798795 1.396360
vt 0.932256 1.396360
vt 0.932251 0.802196
vt 1.798784 0.802197
vt 0.932252 0.660928
vt 1.798784 0.660928
vt 0.932252 0.822428
vt 1.798784 0.822428
vt 0.932251 1.048914
vt 1.798784 1.048914
vt 0.932251 0.471452
vt 0.932251 0.416000
vt 1.798784 0.416000
vt 1.798784 0.471452
vt 0.932252 0.657950
vt 1.798784 0.657950
vt 0.932256 1.416591
vt 1.798795 1.416591
vt 1.798795 1.473801
vt 0.932256 1.473801
vt 0.932251 0.964886
vt 0.932251 0.909434
vt 1.798784 0.909434
vt 1.798784 0.964886
vt 0.932252 0.414211
vt 1.798784 0.414211
vt 0.932256 1.726355
vt 1.798795 1.726355
vt 1.798795 1.783565
vt 0.932256 1.783565
vt 0.932251 0.884436
vt 1.798784 0.884436
vt 0.932252 0.907645
vt 1.798784 0.907645
vt 0.932252 0.411233
vt 1.798784 0.411233
vt 0.932251 0.719958
vt 1.798784 0.719958
vt 0.932251 0.306973
vt 0.932251 0.251522
vt 1.798784 0.251522
vt 1.798784 0.306974
vt 0.932252 0.904667
vt 1.798784 0.904667
vt 0.932256 1.881237
vt 1.798795 1.881237
vt 1.798795 1.938446
vt 0.932256 1.938446
vt 0.932251 0.389213
vt 0.932251 0.333761
vt 1.798784 0.333761
vt 1.798784 0.389213
vt 0.932251 0.249733
vt 1.798784 0.249733
vt 0.932256 1.803796
vt 1.798795 1.803796
vt 1.798795 1.861005
vt 0.932256 1.861005
vt 0.932251 0.473241
vt 1.798784 0.473241
vt 0.932251 0.331972
vt 1.798784 0.331972
vt 0.932252 1.076610
vt 0.932252 1.069145
vt 1.798785 1.069145
vt 1.798785 1.076610
vt 0.932251 0.246755
vt 1.798784 0.246755
vt 0.932251 0.966675
vt 1.798784 0.966675
vt 0.932252 1.078402
vt 1.798785 1.078402
vt 0.932251 0.498239
vt 1.798784 0.498239
vt 0.932251 0.328994
vt 1.798784 0.328994
vt 0.932256 1.648914
vt 1.798795 1.648914
vt 1.798795 1.706124
vt 0.932256 1.706124
vt 0.932256 1.261710
vt 1.798795 1.261710
vt 1.798795 1.318919
vt 0.932256 1.318919
vt 0.932251 0.580478
vt 1.798784 0.580478
vt 0.932252 0.496450
vt 1.798784 0.496450
vt 0.932256 2.191000
vt 1.798795 2.191000
vt 1.798795 2.248210
vt 0.932256 2.248210
vt 0.932251 0.169282
vt 1.798784 0.169283
vt 0.932251 0.308762
vt 1.798784 0.308762
vt 0.932252 0.578689
vt 1.798784 0.578689
vt 0.932256 2.113559
vt 1.798795 2.113559
vt 1.798795 2.170768
vt 0.932256 2.170768
vt 0.932252 0.493472
vt 1.798784 0.493472
vt 0.932251 0.391001
vt 1.798784 0.391001
vt 0.932252 0.575711
vt 1.798784 0.575711
vt 0.858184 -0.027822
vt 0.858184 -0.020194
vt 0.800975 -0.020194
vt 0.743765 -0.020194
vt 0.686556 -0.020194
vt 0.629347 -0.020194
vt 0.572137 -0.020194
vt 0.514928 -0.020194
vt 0.457719 -0.020194
vt 0.400509 -0.020194
vt 0.343300 -0.020194
vt 0.286090 -0.020194
vt 0.228881 -0.020194
vt 0.171672 -0.020194
vt 0.163513 -0.020194
vt 0.163513 -0.027624
vt 0.171356 -0.028120
vt 0.171672 -0.027822
vt 0.171672 -0.024774
vt 0.171924 -0.024536
vt 0.228566 -0.028120
vt 0.228881 -0.027822
vt 0.228881 -0.024774
vt 0.229133 -0.024536
vt 0.285775 -0.028120
vt 0.286090 -0.027822
vt 0.286090 -0.024774
vt 0.286342 -0.024536
vt 0.342984 -0.028120
vt 0.343300 -0.027822
vt 0.343300 -0.024774
vt 0.343552 -0.024536
vt 0.400194 -0.028120
vt 0.400509 -0.027822
vt 0.400509 -0.024774
vt 0.400761 -0.024536
vt 0.457403 -0.028120
vt 0.457719 -0.027822
vt 0.457719 -0.024774
vt 0.457970 -0.024536
vt 0.514612 -0.028120
vt 0.514928 -0.027822
vt 0.514928 -0.024774
vt 0.515180 -0.024536
vt 0.571822 -0.028120
vt 0.572137 -0.027822
vt 0.572137 -0.024774
vt 0.572389 -0.024536
vt 0.629031 -0.028120
vt 0.629347 -0.027822
vt 0.629347 -0.024774
vt 0.629599 -0.024536
vt 0.686241 -0.028120
vt 0.686556 -0.027822
vt 0.686556 -0.024774
vt 0.686808 -0.024536
vt 0.743450 -0.028120
vt 0.743765 -0.027822
vt 0.743765 -0.024774
vt 0.744018 -0.024536
vt 0.800659 -0.028120
vt 0.800975 -0.027822
vt 0.800975 -0.024774
vt 0.801227 -0.024536
vt 0.857869 -0.028120
vt 0.878416 -0.027829
vt 0.878731 -0.028127
vt 0.935373 -0.024543
vt 0.935625 -0.024781
vt 0.935626 -0.027829
vt 0.935941 -0.028127
vt 0.992583 -0.024543
vt 0.992835 -0.024781
vt 0.992835 -0.027829
vt 0.993150 -0.028127
vt 1.049792 -0.024543
vt 1.050044 -0.024781
vt 1.050044 -0.027829
vt 1.050360 -0.028127
vt 1.107001 -0.024543
vt 1.107253 -0.024781
vt 1.107253 -0.027829
vt 1.107569 -0.028127
vt 1.164210 -0.024543
vt 1.164463 -0.024781
vt 1.164463 -0.027829
vt 1.164778 -0.028127
vt 1.221420 -0.024543
vt 1.221672 -0.024781
vt 1.221672 -0.027829
vt 1.221987 -0.028127
vt 1.278629 -0.024543
vt 1.278882 -0.024781
vt 1.278882 -0.027829
vt 1.279196 -0.028127
vt 1.335839 -0.024543
vt 1.336091 -0.024781
vt 1.336091 -0.027829
vt 1.336406 -0.028127
vt 1.393048 -0.024543
vt 1.393300 -0.024781
vt 1.393300 -0.027829
vt 1.393616 -0.028127
vt 1.450258 -0.024543
vt 1.450510 -0.024781
vt 1.450510 -0.027829
vt 1.450825 -0.028127
vt 1.507467 -0.024543
vt 1.507719 -0.024781
vt 1.507719 -0.027829
vt 1.508035 -0.028127
vt 1.564677 -0.024543
vt 1.564928 -0.024781
vt 1.564929 -0.027829
vt 1.565244 -0.028127
vt 1.573087 -0.027631
vt 1.573087 -0.020201
vt 1.564928 -0.020201
vt 1.507719 -0.020201
vt 1.450510 -0.020201
vt 1.393300 -0.020201
vt 1.336091 -0.020201
vt 1.278882 -0.020201
vt 1.221672 -0.020201
vt 1.164463 -0.020201
vt 1.107253 -0.020201
vt 1.050044 -0.020201
vt 0.992835 -0.020201
vt 0.935625 -0.020201
vt 0.878416 -0.020201
vt 0.932256 1.620525
vt 1.798795 1.620525
vt 1.798795 1.628683
vt 0.932256 1.628683
vt 1.797079 0.110771
vt 1.797078 0.118101
vt 0.927007 0.118101
vt 0.927007 0.110771
vt 1.798784 0.094722
vt 0.932251 0.094722
s 0
usemtl wood
f 64/1/1 118/2/1 3/3/1 10/4/1
f 66/5/2 65/6/2 37/7/2 36/8/2
f 67/9/3 64/10/3 10/11/3 6/12/3
f 69/13/4 68/14/4 60/15/4 62/16/4
f 71/21/2 70/22/2 14/23/2 13/24/2
f 72/25/6 109/26/6 57/27/6 63/28/6
f 65/6/6 73/29/6 34/30/6 37/7/6
f 68/14/3 72/35/3 63/36/3 60/15/3
f 75/37/4 121/38/4 38/39/4 39/40/4
f 70/22/6 76/41/6 12/42/6 14/23/6
f 73/29/3 75/43/3 39/44/3 34/30/3
f 77/45/1 113/46/1 8/47/1 15/48/1
f 90/49/2 78/50/2 42/51/2 47/52/2
f 76/41/3 77/53/3 15/54/3 12/42/3
f 93/59/2 80/60/2 18/61/2 22/62/2
f 78/50/6 81/63/6 40/64/6 42/51/6
f 83/69/4 66/5/4 36/8/4 43/70/4
f 80/60/6 84/71/6 17/72/6 18/61/6
f 81/63/3 83/73/3 43/74/3 40/64/3
f 85/75/1 71/21/1 13/24/1 19/76/1
f 122/77/2 86/78/2 46/79/2 54/80/2
f 84/71/3 85/81/3 19/82/3 17/72/3
f 105/87/2 88/88/2 21/89/2 29/90/2
f 86/78/6 89/91/6 44/92/6 46/79/6
f 91/97/6 90/49/6 47/52/6 48/98/6
f 88/88/6 92/99/6 20/100/6 21/89/6
f 89/91/3 91/101/3 48/102/3 44/92/3
f 94/103/1 93/59/1 22/62/1 23/104/1
f 96/105/2 95/106/2 53/107/2 52/108/2
f 92/99/3 94/109/3 23/110/3 20/100/3
f 124/115/2 99/116/2 28/117/2 27/118/2
f 95/106/6 100/119/6 50/120/6 53/107/6
f 101/125/6 122/77/6 54/80/6 55/126/6
f 99/116/6 102/127/6 25/128/6 28/117/6
f 104/129/3 103/130/3 2/131/3 1/132/3
f 100/119/3 101/133/3 55/134/3 50/120/3
f 106/135/1 105/87/1 29/90/1 30/136/1
f 118/2/2 107/137/2 4/138/2 3/3/2
f 109/26/2 108/139/2 58/140/2 57/27/2
f 102/127/3 106/141/3 30/142/3 25/128/3
f 121/38/2 110/151/2 32/152/2 38/39/2
f 107/137/6 104/129/6 1/132/6 4/138/6
f 108/139/6 111/153/6 56/154/6 58/140/6
f 113/46/2 112/159/2 9/160/2 8/47/2
f 114/161/6 96/105/6 52/108/6 59/162/6
f 110/151/6 115/163/6 31/164/6 32/152/6
f 111/153/3 114/169/3 59/170/3 56/154/3
f 117/171/6 124/115/6 27/118/6 33/172/6
f 112/159/6 67/9/6 6/12/6 9/160/6
f 115/163/3 117/173/3 33/174/3 31/164/3
f 1/175/7 2/176/7 7/177/7 5/178/7 11/179/7 16/180/7 26/181/7 24/182/7 35/183/7 41/184/7 45/185/7 51/186/7 49/187/7 61/188/7 128/189/7 127/190/7 62/191/7 60/192/7 63/193/7 57/194/7 58/195/7 56/196/7 59/197/7 52/198/7 53/199/7 50/200/7 55/201/7 54/202/7 46/203/7 44/204/7 48/205/7 47/206/7 42/207/7 40/208/7 43/209/7 36/210/7 37/211/7 34/212/7 39/213/7 38/214/7 32/215/7 31/216/7 33/217/7 27/218/7 28/219/7 25/220/7 30/221/7 29/222/7 21/223/7 20/224/7 23/225/7 22/226/7 18/227/7 17/228/7 19/229/7 13/230/7 14/231/7 12/232/7 15/233/7 8/234/7 9/235/7 6/236/7 10/237/7 3/238/7 4/239/7
f 104/240/8 107/241/8 118/242/8 64/243/8 67/244/8 112/245/8 113/246/8 77/247/8 76/248/8 70/249/8 71/250/8 85/251/8 84/252/8 80/253/8 93/254/8 94/255/8 92/256/8 88/257/8 105/258/8 106/259/8 102/260/8 99/261/8 124/262/8 117/263/8 115/264/8 110/265/8 121/266/8 75/267/8 73/268/8 65/269/8 66/270/8 83/271/8 81/272/8 78/273/8 90/274/8 91/275/8 89/276/8 86/277/8 122/278/8 101/279/8 100/280/8 95/281/8 96/282/8 114/283/8 111/284/8 108/285/8 109/286/8 72/287/8 68/288/8 69/289/8 130/290/8 129/291/8 119/292/8 98/293/8 97/294/8 87/295/8 79/296/8 120/297/8 125/298/8 123/299/8 82/300/8 74/301/8 116/302/8 126/303/8 103/304/8
f 127/309/9 128/310/9 129/311/9 130/312/9
f 127/313/2 130/314/2 69/13/2 62/16/2
usemtl wood_black
f 79/17/5 41/18/5 35/19/5 120/20/5
f 74/31/5 11/32/5 5/33/5 116/34/5
f 87/55/5 45/56/5 41/57/5 79/58/5
f 82/65/5 16/66/5 11/67/5 74/68/5
f 97/83/5 51/84/5 45/85/5 87/86/5
f 123/93/5 26/94/5 16/95/5 82/96/5
f 98/111/5 49/112/5 51/113/5 97/114/5
f 125/121/5 24/122/5 26/123/5 123/124/5
f 126/143/5 7/144/5 2/145/5 103/146/5
f 119/147/5 61/148/5 49/149/5 98/150/5
f 120/155/5 35/156/5 24/157/5 125/158/5
f 116/165/5 5/166/5 7/167/5 126/168/5
f 129/305/5 128/306/5 61/307/5 119/308/5
