# Blender 4.0.2
# www.blender.org
mtllib roof_tri_window_3500.mtl
o roof_tri_window_3500
v 0.004000 0.202571 1.505799
v -0.000000 0.204000 1.497873
v 0.004000 0.200000 1.504863
v 0.004000 1.377508 0.105564
v 0.004000 1.376079 0.102500
v -0.000000 1.371501 0.106500
v 0.004000 0.204000 0.102500
v 0.004000 0.200000 0.106500
v -0.000000 0.204000 0.106500
v 0.004000 0.242571 1.395900
v 0.004000 0.240000 1.394964
v -0.000000 0.236000 1.409954
v 0.004000 1.291728 0.145564
v -0.000000 1.302877 0.138500
v 0.004000 1.290299 0.142500
v 0.004000 0.244000 0.142500
v -0.000000 0.236000 0.138500
v 0.004000 0.240000 0.146500
v 0.030000 0.242571 1.395900
v 0.030000 0.240000 1.394964
v 0.030000 1.290299 0.142500
v 0.030000 1.291728 0.145564
v 0.030000 0.240000 0.146500
v 0.030000 0.244000 0.142500
v 0.056000 0.202571 1.505799
v 0.056000 0.200000 1.504863
v 0.060000 0.204000 1.497873
v 0.056000 1.377508 0.105564
v 0.060000 1.371501 0.106500
v 0.056000 1.376079 0.102500
v 0.056000 0.204000 0.102500
v 0.060000 0.204000 0.106500
v 0.056000 0.200000 0.106500
v 0.056000 0.242571 1.395900
v 0.060000 0.236000 1.409954
v 0.056000 0.240000 1.394964
v 0.056000 1.291728 0.145564
v 0.056000 1.290299 0.142500
v 0.060000 1.302877 0.138500
v 0.056000 0.244000 0.142500
v 0.056000 0.240000 0.146500
v 0.060000 0.236000 0.138500
v 0.056000 0.202571 -1.505799
v 0.060000 0.204000 -1.497873
v 0.056000 0.200000 -1.504863
v 0.056000 1.377508 -0.105564
v 0.056000 1.376079 -0.102500
v 0.060000 1.371501 -0.106500
v 0.056000 0.204000 -0.102500
v 0.056000 0.200000 -0.106500
v 0.060000 0.204000 -0.106500
v 0.056000 0.242571 -1.395900
v 0.056000 0.240000 -1.394964
v 0.060000 0.236000 -1.409954
v 0.056000 1.291728 -0.145564
v 0.060000 1.302877 -0.138500
v 0.056000 1.290299 -0.142500
v 0.056000 0.244000 -0.142500
v 0.060000 0.236000 -0.138500
v 0.056000 0.240000 -0.146500
v 0.030000 0.242571 -1.395900
v 0.030000 0.240000 -1.394964
v 0.030000 1.290299 -0.142500
v 0.030000 1.291728 -0.145564
v 0.030000 0.240000 -0.146500
v 0.030000 0.244000 -0.142500
v 0.004000 0.202571 -1.505799
v 0.004000 0.200000 -1.504863
v 0.000000 0.204000 -1.497873
v 0.004000 1.377508 -0.105564
v 0.000000 1.371501 -0.106500
v 0.004000 1.376079 -0.102500
v 0.004000 0.204000 -0.102500
v -0.000000 0.204000 -0.106500
v 0.004000 0.200000 -0.106500
v 0.004000 0.242571 -1.395900
v 0.000000 0.236000 -1.409954
v 0.004000 0.240000 -1.394964
v 0.004000 1.291728 -0.145564
v 0.004000 1.290299 -0.142500
v 0.000000 1.302877 -0.138500
v 0.004000 0.244000 -0.142500
v 0.004000 0.240000 -0.146500
v 0.000000 0.236000 -0.138500
vn -0.0000 -0.0000 1.0000
vn -0.0000 -1.0000 -0.0000
vn -0.0000 -0.7660 -0.6428
vn -0.0000 -0.0000 -1.0000
vn -0.0000 1.0000 -0.0000
vn -1.0000 -0.0000 -0.0000
vn 1.0000 -0.0000 -0.0000
vn -0.0000 0.7660 -0.6428
vn -0.0000 -0.7660 0.6428
vn -0.8930 -0.1539 0.4229
vn -0.8250 0.5122 -0.2388
vn -0.5773 -0.5774 -0.5773
vn -0.9681 0.0857 -0.2355
vn -0.9563 -0.2649 0.1235
vn -0.9045 0.3015 0.3015
vn 0.8930 -0.1540 0.4229
vn 0.8250 0.5122 -0.2388
vn 0.5773 -0.5774 -0.5773
vn 0.9681 0.0857 -0.2355
vn 0.9563 -0.2649 0.1235
vn 0.9045 0.3015 0.3015
vn 0.8930 -0.1540 -0.4229
vn 0.8250 0.5122 0.2388
vn 0.5773 -0.5774 0.5773
vn 0.9681 0.0857 0.2355
vn 0.9563 -0.2649 -0.1235
vn 0.9045 0.3015 -0.3015
vn -0.8930 -0.1539 -0.4229
vn -0.8250 0.5122 0.2388
vn -0.5774 -0.5774 0.5773
vn -0.9681 0.0857 0.2355
vn -0.9563 -0.2649 -0.1235
vn -0.9045 0.3015 -0.3015
vn -0.7071 -0.5417 -0.4545
vn -0.7071 -0.0000 0.7071
vn -0.7071 0.7071 -0.0000
vn -0.7071 0.5417 0.4545
vn -0.7071 -0.0000 -0.7071
vn -0.7071 -0.7071 -0.0000
vn -0.0000 0.7071 0.7071
vn -0.0000 0.3420 -0.9397
vn -0.0000 -0.9063 0.4226
vn 0.7071 -0.5417 -0.4545
vn 0.7071 -0.0000 0.7071
vn 0.7071 0.7071 -0.0000
vn 0.7071 0.5417 0.4545
vn 0.7071 -0.0000 -0.7071
vn 0.7071 -0.7071 -0.0000
vn -0.0000 -0.7071 -0.7071
vn -0.0000 -0.3420 0.9397
vn -0.0000 0.9063 -0.4226
vn 0.7071 -0.5417 0.4545
vn 0.7071 0.5417 -0.4545
vn -0.0000 0.7071 -0.7071
vn -0.0000 0.3420 0.9397
vn -0.0000 -0.9063 -0.4226
vn -0.7071 -0.5417 0.4545
vn -0.7071 0.5417 -0.4545
vn -0.0000 -0.7071 0.7071
vn -0.0000 -0.3420 -0.9397
vn -0.0000 0.9063 0.4226
vn -0.0000 0.7660 0.6428
vt 0.358165 0.192957
vt 0.358165 0.178341
vt 0.946352 0.178341
vt 0.946352 0.192957
vt 0.016572 0.836670
vt 0.802675 0.836670
vt 0.802675 0.865902
vt 0.016572 0.865902
vt 0.290000 0.228916
vt 0.290000 0.214300
vt 0.984867 0.214300
vt 0.984867 0.228916
vt 1.014845 0.264875
vt 0.355950 0.264875
vt 0.355950 0.235642
vt 1.014845 0.235642
vt 0.290000 0.199684
vt 0.984867 0.199684
vt 0.984867 0.214300
vt 0.290000 0.214300
vt 0.718771 0.872628
vt 0.718771 0.887245
vt 0.016935 0.887245
vt 0.016935 0.872628
vt 0.630092 0.955790
vt 0.648081 0.973779
vt -0.134092 0.973779
vt -0.084668 0.955789
vt 0.977118 0.124955
vt 1.015696 0.142944
vt 0.359374 0.142944
vt 0.377364 0.124955
vt 0.358165 0.163724
vt 0.946352 0.163725
vt 0.946352 0.178341
vt 0.358165 0.178341
vt 0.630092 0.997751
vt -0.084668 0.997751
vt -0.134092 0.979762
vt 0.648081 0.979762
vt 0.745139 0.829943
vt -0.034966 0.829943
vt -0.034966 0.800711
vt 0.745139 0.800711
vt 0.977118 0.302901
vt 0.377363 0.302901
vt 0.359374 0.284912
vt 1.015696 0.284912
vt -0.050846 0.998182
vt 0.882206 0.998182
vt 0.920784 1.016172
vt -0.100270 1.016171
vt 0.718771 0.901861
vt 0.016935 0.901861
vt 0.016935 0.887245
vt 0.718771 0.887245
vt -0.050846 0.859469
vt -0.100270 0.841480
vt 0.920785 0.841480
vt 0.882207 0.859469
vt 0.946352 0.192957
vt 0.802675 0.865902
vt 0.290000 0.228916
vt 0.984867 0.228916
vt 1.014845 0.264875
vt 0.984867 0.199684
vt 0.718771 0.872628
vt 0.648081 0.973779
vt 0.946352 0.163725
vt 0.648081 0.979762
vt 0.718771 0.901861
vt 0.016935 0.901861
vt 0.882207 0.859469
vt -0.104200 0.839232
vt -0.104463 0.839954
vt 1.015648 0.235642
vt 1.012271 0.233394
vt 0.014323 0.865902
vt 0.016572 0.868151
vt 0.719297 0.872628
vt 0.721019 0.870380
vt 0.288297 0.231164
vt 0.289392 0.228916
vt 0.381861 0.122706
vt 0.377363 0.124955
vt 0.379612 0.122706
vt 0.803201 0.836670
vt 0.798745 0.834421
vt 0.923358 1.018421
vt 0.923760 1.017559
vt 0.355950 0.267123
vt 0.353701 0.264875
vt 0.986570 0.197435
vt 0.985265 0.199684
vt 0.947155 0.163725
vt 0.948600 0.161476
vt 0.014687 0.901861
vt 0.014687 0.904110
vt 0.875136 0.861717
vt 0.875939 0.861718
vt 0.355950 0.267123
vt 0.353701 0.264875
vt 0.985265 0.199684
vt 0.947155 0.163725
vt 0.014687 0.901861
vt 0.986570 0.231164
vt 0.970047 0.122706
vt 0.014686 0.870380
vt -0.104200 0.839232
vt 0.923358 0.839231
vt 1.018269 0.145192
vt 0.359374 0.145193
vt 0.798745 0.868150
vt 0.014686 0.887245
vt 0.014686 0.872628
vt 0.721019 0.872628
vt 0.721019 0.887245
vt 0.948600 0.178341
vt 0.948600 0.192957
vt 0.288297 0.197435
vt 0.355916 0.161476
vt 0.721019 0.904109
vt -0.104200 1.018420
vt 1.012271 0.267123
vt 0.016572 0.834421
vt 0.014686 0.887245
vt 0.721019 0.887245
vt 0.721019 0.901861
vt 0.948600 0.163725
vt 0.948600 0.178341
vt 0.014323 0.836670
vt 0.804923 0.836670
vt 0.804923 0.865902
vt 1.017093 0.235642
vt 1.017093 0.264875
vt 0.875136 0.861718
vt -0.042419 0.861717
vt 0.648081 0.976027
vt -0.138022 0.976027
vt 0.721019 0.872628
vt 0.948600 0.192957
vt 0.948600 0.163725
vt 0.014323 0.836670
vt 0.804923 0.836670
vt -0.034966 0.829943
vt -0.034966 0.800711
vt 0.745139 0.800711
s 0
usemtl white
f 16/1/1 24/2/1 21/3/1 15/4/1
f 33/5/2 26/6/2 3/7/2 8/8/2
f 13/9/3 22/10/3 19/11/3 10/12/3
f 30/13/4 31/14/4 7/15/4 5/16/4
f 37/17/3 34/18/3 19/19/3 22/20/3
f 11/21/5 20/22/5 23/23/5 18/24/5
f 17/25/6 9/26/6 2/27/6 12/28/6
f 14/29/6 6/30/6 9/31/6 17/32/6
f 40/33/1 38/34/1 21/35/1 24/36/1
f 42/37/7 35/38/7 27/39/7 32/40/7
f 67/41/8 70/42/8 46/43/8 43/44/8
f 39/45/7 42/46/7 32/47/7 29/48/7
f 35/49/7 39/50/7 29/51/7 27/52/7
f 36/53/5 41/54/5 23/55/5 20/56/5
f 12/57/6 2/58/6 6/59/6 14/60/6
f 58/1/4 66/2/4 63/3/4 57/61/4
f 75/5/2 68/6/2 45/62/2 50/8/2
f 55/63/9 64/10/9 61/11/9 52/64/9
f 72/65/1 73/14/1 49/15/1 47/16/1
f 79/17/9 76/66/9 61/19/9 64/20/9
f 53/67/5 62/22/5 65/23/5 60/24/5
f 59/25/7 51/68/7 44/27/7 54/28/7
f 56/29/7 48/30/7 51/31/7 59/32/7
f 82/33/4 80/69/4 63/35/4 66/36/4
f 84/37/6 77/38/6 69/39/6 74/70/6
f 81/45/6 84/46/6 74/47/6 71/48/6
f 77/49/6 81/50/6 71/51/6 69/52/6
f 78/71/5 83/72/5 65/55/5 62/56/5
f 54/57/7 44/58/7 48/59/7 56/73/7
f 1/74/10 2/58/10 3/75/10
f 4/76/11 5/16/11 6/77/11
f 7/78/12 8/8/12 9/79/12
f 10/80/13 11/21/13 12/81/13
f 13/9/14 14/82/14 15/83/14
f 16/84/15 17/85/15 18/86/15
f 25/87/16 26/6/16 27/88/16
f 28/89/17 29/51/17 30/90/17
f 31/14/18 32/91/18 33/92/18
f 34/18/19 35/93/19 36/94/19
f 37/95/20 38/34/20 39/96/20
f 40/97/21 41/54/21 42/98/21
f 43/74/22 44/58/22 45/75/22
f 46/76/23 47/16/23 48/77/23
f 49/78/24 50/8/24 51/79/24
f 52/80/25 53/67/25 54/81/25
f 55/99/26 56/73/26 57/100/26
f 58/84/27 59/85/27 60/86/27
f 67/87/28 68/6/28 69/88/28
f 70/89/29 71/51/29 72/90/29
f 73/14/30 74/101/30 75/102/30
f 76/66/31 77/93/31 78/103/31
f 79/104/32 80/69/32 81/96/32
f 82/105/33 83/72/33 84/98/33
f 12/106/34 14/82/34 13/9/34 10/12/34
f 14/29/35 17/32/35 16/84/35 15/107/35
f 17/108/36 12/81/36 11/21/36 18/24/36
f 1/109/37 4/110/37 6/59/37 2/58/37
f 5/111/38 7/112/38 9/31/38 6/30/38
f 8/8/39 3/7/39 2/113/39 9/79/39
f 18/24/40 23/23/40 24/114/40 16/115/40
f 20/22/41 11/21/41 10/116/41 19/117/41
f 15/4/42 21/3/42 22/118/42 13/119/42
f 34/18/43 37/17/43 39/120/43 35/93/43
f 38/34/44 40/33/44 42/121/44 39/96/44
f 41/54/45 36/53/45 35/122/45 42/98/45
f 27/52/46 29/51/46 28/89/46 25/123/46
f 29/124/47 32/91/47 31/14/47 30/13/47
f 32/125/48 27/88/48 26/6/48 33/5/48
f 40/97/40 24/126/40 23/55/40 41/54/40
f 19/127/41 34/128/41 36/53/41 20/56/41
f 37/129/42 22/130/42 21/35/42 38/34/42
f 7/78/49 31/131/49 33/5/49 8/8/49
f 25/132/50 1/133/50 3/7/50 26/6/50
f 4/134/51 28/135/51 30/13/51 5/16/51
f 54/57/52 56/73/52 55/136/52 52/137/52
f 56/29/47 59/32/47 58/84/47 57/107/47
f 59/108/45 54/81/45 53/67/45 60/24/45
f 43/109/53 46/110/53 48/59/53 44/58/53
f 47/111/44 49/112/44 51/31/44 48/30/44
f 50/138/48 45/139/48 44/27/48 51/68/48
f 60/24/54 65/23/54 66/114/54 58/115/54
f 62/22/55 53/67/55 52/140/55 61/117/55
f 57/61/56 63/3/56 64/118/56 55/141/56
f 76/66/57 79/17/57 81/120/57 77/93/57
f 80/69/38 82/33/38 84/121/38 81/96/38
f 83/72/36 78/71/36 77/122/36 84/98/36
f 69/52/58 71/51/58 70/89/58 67/123/58
f 71/124/35 74/91/35 73/14/35 72/65/35
f 74/125/39 69/88/39 68/6/39 75/5/39
f 82/105/54 66/126/54 65/55/54 83/72/54
f 61/127/55 76/128/55 78/71/55 62/56/55
f 79/142/56 64/130/56 63/35/56 80/69/56
f 49/78/59 73/143/59 75/5/59 50/8/59
f 67/144/60 43/133/60 45/62/60 68/6/60
f 46/134/61 70/135/61 72/65/61 47/16/61
f 25/41/62 28/145/62 4/146/62 1/147/62
