# Blender 4.0.2
# www.blender.org
mtllib zadeldak_wall_triangle_blockhut_6000.mtl
o zadeldak_wall_triangle_blockhut_6000
v -0.052022 0.318224 2.588868
v -0.052022 0.318224 -2.588868
v -0.052022 0.146224 -2.886775
v -0.052022 0.146224 2.886775
v -0.048022 0.142224 -2.893703
v -0.048022 0.142224 2.893704
v -0.028022 0.142224 -2.893703
v -0.028022 0.142224 2.893704
v -0.024022 0.146224 -2.886775
v -0.024022 0.146224 2.886775
v -0.024022 0.318224 -2.588869
v -0.024022 0.318224 2.588868
v -0.028022 0.322224 -2.581940
v -0.028022 0.322224 2.581940
v -0.048022 0.322224 -2.581940
v -0.048022 0.322224 2.581940
v -0.052022 0.498224 2.277106
v -0.052022 0.498224 -2.277105
v -0.052022 0.326224 -2.575012
v -0.052022 0.326224 2.575012
v -0.024022 0.326224 -2.575012
v -0.024022 0.326224 2.575012
v -0.024022 0.498224 -2.277105
v -0.024022 0.498224 2.277106
v -0.028022 0.502224 -2.270177
v -0.028022 0.502224 2.270177
v -0.048022 0.502224 -2.270177
v -0.048022 0.502224 2.270177
v -0.052022 0.678224 1.965342
v -0.052022 0.678224 -1.965342
v -0.052022 0.506224 -2.263249
v -0.052022 0.506224 2.263249
v -0.024022 0.506224 -2.263249
v -0.024022 0.506224 2.263249
v -0.024022 0.678224 -1.965342
v -0.024022 0.678224 1.965342
v -0.028022 0.682224 -1.958414
v -0.028022 0.682224 1.958414
v -0.048022 0.682224 -1.958414
v -0.048022 0.682224 1.958414
v -0.052022 0.858224 1.653579
v -0.052022 0.858224 -1.653579
v -0.052022 0.686224 -1.951486
v -0.052022 0.686224 1.951486
v -0.024022 0.686224 -1.951486
v -0.024022 0.686224 1.951486
v -0.024022 0.858224 -1.653579
v -0.024022 0.858224 1.653579
v -0.028022 0.862224 -1.646651
v -0.028022 0.862224 1.646651
v -0.048022 0.862224 -1.646651
v -0.048022 0.862224 1.646651
v -0.052022 1.038224 1.341815
v -0.052022 1.038225 -1.341815
v -0.052022 0.866225 -1.639722
v -0.052022 0.866224 1.639723
v -0.024022 0.866225 -1.639722
v -0.024022 0.866224 1.639723
v -0.024022 1.038225 -1.341815
v -0.024022 1.038224 1.341815
v -0.028022 1.042225 -1.334887
v -0.028022 1.042224 1.334887
v -0.048022 1.042225 -1.334887
v -0.048022 1.042224 1.334887
v -0.052022 1.218225 1.030051
v -0.052022 1.218225 -1.030051
v -0.052022 1.046225 -1.327958
v -0.052022 1.046225 1.327958
v -0.024022 1.046225 -1.327958
v -0.024022 1.046225 1.327958
v -0.024022 1.218225 -1.030051
v -0.024022 1.218225 1.030051
v -0.028022 1.222225 -1.023123
v -0.028022 1.222225 1.023123
v -0.048022 1.222225 -1.023123
v -0.048022 1.222225 1.023123
v -0.052022 1.398225 0.718288
v -0.052022 1.398225 -0.718288
v -0.052022 1.226225 -1.016195
v -0.052022 1.226225 1.016195
v -0.024022 1.226225 -1.016195
v -0.024022 1.226225 1.016195
v -0.024022 1.398225 -0.718288
v -0.024022 1.398225 0.718288
v -0.028022 1.402225 -0.711360
v -0.028022 1.402225 0.711360
v -0.048022 1.402225 -0.711360
v -0.048022 1.402225 0.711360
v -0.052022 1.578225 -0.406525
v -0.052022 1.578225 0.406525
v -0.052022 1.406225 -0.704432
v -0.052022 1.406225 0.704432
v -0.024022 1.406225 -0.704432
v -0.024022 1.406225 0.704432
v -0.024022 1.578225 0.406525
v -0.024022 1.578225 -0.406525
v -0.028022 1.582225 -0.399597
v -0.028022 1.582225 0.399597
v -0.048022 1.582225 -0.399597
v -0.048022 1.582225 0.399597
v -0.052022 1.758225 0.094762
v -0.052022 1.758225 -0.094762
v -0.052022 1.586225 -0.392669
v -0.052022 1.586225 0.392669
v -0.024022 1.586225 -0.392669
v -0.024022 1.586225 0.392669
v -0.024022 1.758225 -0.094762
v -0.024022 1.758225 0.094762
v -0.028022 1.762225 -0.087834
v -0.028022 1.762225 0.087834
v -0.048022 1.762225 -0.087834
v -0.048022 1.762225 0.087834
v -0.052022 1.766225 -0.080906
v -0.052022 1.812937 0.000000
v -0.052022 1.766225 0.080906
v -0.024022 1.766225 -0.080906
v -0.024022 1.766225 0.080906
v -0.024022 1.812937 0.000000
vn -1.0000 -0.0000 -0.0000
vn -0.7071 -0.7071 -0.0000
vn -0.0000 -1.0000 -0.0000
vn 0.7071 -0.7071 -0.0000
vn 1.0000 -0.0000 -0.0000
vn 0.7071 0.7071 -0.0000
vn -0.0000 1.0000 -0.0000
vn -0.7071 0.7071 -0.0000
vn -0.7072 -0.7071 -0.0000
vn 0.7072 -0.7071 -0.0000
vn -0.0000 0.8660 -0.5000
vn -0.0000 0.8660 0.5000
vt 1.598595 0.608995
vt 0.498381 0.608995
vt 0.435079 0.572447
vt 1.661897 0.572447
vt -0.316981 0.923077
vt 0.909815 0.923077
vt 0.911285 0.923927
vt -0.318499 0.923927
vt -0.318479 0.923927
vt 0.911286 0.923927
vt 0.911286 0.928177
vt -0.318478 0.928177
vt -0.317027 0.929027
vt -0.318472 0.928177
vt 0.909813 0.929027
vt -0.317004 0.609845
vt 0.909814 0.609845
vt 0.846512 0.646393
vt -0.253702 0.646393
vt -0.253722 0.646393
vt 0.846510 0.646393
vt 0.845042 0.647243
vt -0.252209 0.647243
vt 1.597125 0.933277
vt 0.499854 0.933277
vt 0.499854 0.929027
vt 1.597125 0.929027
vt 1.597143 0.609845
vt 0.499855 0.609845
vt 0.498379 0.608995
vt 1.598572 0.608995
vt 1.532349 0.003824
vt 0.564628 0.003824
vt 0.501326 -0.032725
vt 1.595651 -0.032725
vt -0.250737 0.954526
vt 0.843570 0.954526
vt 0.845038 0.955376
vt -0.252250 0.955376
vt -0.250778 0.958776
vt -0.252207 0.957926
vt 0.845042 0.957926
vt 0.843566 0.958776
vt -0.250758 0.118568
vt 0.843568 0.118568
vt 0.780266 0.155116
vt -0.187456 0.155116
vt -0.187475 0.155116
vt 0.780262 0.155116
vt 0.778796 0.155966
vt -0.185964 0.155966
vt 0.566100 0.933277
vt 0.566100 0.937527
vt 1.530878 0.937526
vt 1.530879 0.933277
vt 1.530896 0.004673
vt 0.566103 0.004674
vt 0.564625 0.003824
vt 1.532330 0.003823
vt 1.466102 0.042072
vt 0.630874 0.042072
vt 0.567572 0.005524
vt 1.529404 0.005523
vt 1.529386 0.005523
vt 0.567569 0.005524
vt 1.530896 0.004673
vt 0.777318 0.156816
vt -0.184530 0.156816
vt -0.184511 0.156816
vt 0.777321 0.156816
vt 0.714019 0.193364
vt -0.121209 0.193364
vt -0.121227 0.193364
vt 0.714015 0.193364
vt 0.712551 0.194214
vt -0.119719 0.194214
vt 1.464632 0.941776
vt 0.632347 0.941777
vt 0.632347 0.937527
vt 1.464633 0.937527
vt 1.464648 0.042922
vt 0.632350 0.042922
vt 0.630870 0.042072
vt 1.466085 0.042072
vt 1.399856 0.080320
vt 0.697120 0.080320
vt 0.633818 0.043772
vt 1.463158 0.043772
vt 1.463140 0.043772
vt 0.633814 0.043772
vt 1.464648 0.042922
vt 0.711071 0.195064
vt -0.118283 0.195064
vt -0.118265 0.195064
vt 0.711075 0.195064
vt 0.647773 0.231612
vt -0.054963 0.231612
vt -0.054970 0.231613
vt 0.647771 0.231612
vt 0.646293 0.232462
vt -0.053514 0.232462
vt 1.398385 0.946026
vt 0.698593 0.946026
vt 0.698593 0.941777
vt 1.398386 0.941777
vt 1.398401 0.081170
vt 0.698598 0.081170
vt 0.697115 0.080320
vt 1.399839 0.080320
vt 1.333610 0.118568
vt 0.763367 0.118568
vt 0.700065 0.082020
vt 1.396912 0.082020
vt -0.053488 0.232462
vt 0.646301 0.232462
vt 0.644829 0.233312
vt -0.052016 0.233312
vt -0.052019 0.233313
vt 0.644828 0.233313
vt 0.581526 0.269861
vt 0.011284 0.269861
vt 1.333608 0.887378
vt 0.763366 0.887379
vt 0.764839 0.886529
vt 1.332138 0.886529
vt 1.332142 0.886529
vt 0.764841 0.886529
vt 0.764839 0.882279
vt 1.332137 0.882279
vt 0.763366 0.881429
vt 1.333606 0.881429
vt 0.077530 0.270711
vt 0.515280 0.270711
vt 0.578582 0.307259
vt 0.014228 0.307259
vt 0.014226 0.307259
vt 0.578581 0.307259
vt 0.580055 0.308109
vt 0.012757 0.308109
vt 0.012756 0.308109
vt 0.580054 0.308109
vt 0.578581 0.308959
vt 0.014226 0.308959
vt 0.014228 0.308959
vt 0.578582 0.308959
vt 0.515280 0.345507
vt 0.077530 0.345507
vt 0.077524 0.345507
vt 0.515277 0.345507
vt 0.513811 0.346357
vt 0.079009 0.346357
vt 1.265892 0.950276
vt 0.831086 0.950276
vt 0.831086 0.946026
vt 1.265893 0.946026
vt 0.079023 0.269861
vt 0.513818 0.269861
vt 0.515269 0.270711
vt 0.077509 0.270711
vt 1.201117 0.683791
vt 0.895860 0.683791
vt 0.832558 0.647243
vt 1.264419 0.647243
vt 0.080454 0.955376
vt 0.512325 0.955376
vt 0.513804 0.956226
vt 0.078996 0.956226
vt 0.080495 0.959626
vt 0.079009 0.958776
vt 0.513811 0.958776
vt 0.512346 0.959626
vt 0.080474 0.683792
vt 0.512335 0.683792
vt 0.449033 0.720340
vt 0.143776 0.720340
vt 1.201098 0.893328
vt 0.895848 0.893328
vt 0.897344 0.892478
vt 1.199664 0.892478
vt 1.199646 0.892478
vt 0.897332 0.892478
vt 0.897333 0.888229
vt 1.199646 0.888228
vt 0.897336 0.888229
vt 0.895872 0.887379
vt 1.201136 0.887379
vt 1.199651 0.888229
vt 1.134871 0.383755
vt 0.962106 0.383755
vt 0.898804 0.347207
vt 1.198173 0.347207
vt 1.198167 0.347207
vt 0.898800 0.347207
vt 0.897320 0.346357
vt 1.199626 0.346357
vt 0.145254 0.384606
vt 0.447565 0.384605
vt 0.446085 0.385455
vt 0.146715 0.385455
vt 0.146721 0.385455
vt 0.446089 0.385455
vt 0.382787 0.422004
vt 0.210023 0.422004
vt 0.210034 0.422004
vt 0.382796 0.422004
vt 0.381319 0.422854
vt 0.211500 0.422854
vt 1.133399 0.954526
vt 0.963579 0.954526
vt 0.963579 0.950276
vt 1.133400 0.950276
vt 1.133381 0.384605
vt 0.963565 0.384605
vt 0.962102 0.383755
vt 1.134865 0.383755
vt 1.068624 0.756888
vt 1.028352 0.756888
vt 0.965050 0.720340
vt 1.131926 0.720340
vt 0.212973 0.956226
vt 0.379847 0.956226
vt 0.381311 0.957076
vt 0.211489 0.957076
vt 0.212962 0.960476
vt 0.211477 0.959626
vt 0.381301 0.959626
vt 0.379839 0.960476
vt 0.212967 0.756888
vt 0.379843 0.756888
vt 0.316541 0.793436
vt 0.276269 0.793436
vt 1.068629 0.899278
vt 1.028357 0.899278
vt 1.029835 0.898428
vt 1.067163 0.898428
vt 1.067153 0.898428
vt 1.029825 0.898428
vt 1.029826 0.894178
vt 1.067153 0.894178
vt 1.029829 0.894178
vt 1.028348 0.893328
vt 1.068619 0.893328
vt 1.067157 0.894178
vt 1.048488 0.803362
vt 1.031297 0.793436
vt 1.065680 0.793436
vt 0.279218 0.957076
vt 0.313601 0.957076
vt 0.315064 0.957926
vt 0.277736 0.957926
vt 0.279208 0.961326
vt 0.277731 0.960476
vt 0.315059 0.960476
vt 0.313592 0.961326
vt 0.279213 0.829984
vt 0.313597 0.829984
vt 0.296405 0.839910
vt 0.000000 0.000000
s 0
usemtl wood
f 1/1/1 2/2/1 3/3/1 4/4/1
f 4/5/2 3/6/2 5/7/2 6/8/2
f 6/9/3 5/10/3 7/11/3 8/12/3
f 10/13/4 8/14/4 7/11/4 9/15/4
f 10/16/5 9/17/5 11/18/5 12/19/5
f 12/20/6 11/21/6 13/22/6 14/23/6
f 14/24/7 13/25/7 15/26/7 16/27/7
f 16/28/8 15/29/8 2/30/8 1/31/8
f 17/32/1 18/33/1 19/34/1 20/35/1
f 20/36/2 19/37/2 15/38/2 16/39/2
f 22/40/4 14/41/4 13/42/4 21/43/4
f 22/44/5 21/45/5 23/46/5 24/47/5
f 24/48/6 23/49/6 25/50/6 26/51/6
f 27/52/3 25/53/3 26/54/3 28/55/3
f 28/56/8 27/57/8 18/58/8 17/59/8
f 29/60/1 30/61/1 31/62/1 32/63/1
f 32/64/2 31/65/2 27/57/2 28/66/2
f 26/51/4 25/50/4 33/67/4 34/68/4
f 34/69/5 33/70/5 35/71/5 36/72/5
f 36/73/6 35/74/6 37/75/6 38/76/6
f 38/77/7 37/78/7 39/79/7 40/80/7
f 40/81/8 39/82/8 30/83/8 29/84/8
f 41/85/1 42/86/1 43/87/1 44/88/1
f 44/89/2 43/90/2 39/82/2 40/91/2
f 38/76/4 37/75/4 45/92/4 46/93/4
f 46/94/5 45/95/5 47/96/5 48/97/5
f 48/98/6 47/99/6 49/100/6 50/101/6
f 50/102/7 49/103/7 51/104/7 52/105/7
f 52/106/8 51/107/8 42/108/8 41/109/8
f 53/110/1 54/111/1 55/112/1 56/113/1
f 56/113/9 55/112/9 51/107/9 52/106/9
f 50/114/10 49/115/10 57/116/10 58/117/10
f 58/118/5 57/119/5 59/120/5 60/121/5
f 60/122/6 59/123/6 61/124/6 62/125/6
f 62/126/7 61/127/7 63/128/7 64/129/7
f 63/128/8 54/130/8 53/131/8 64/129/8
f 65/132/1 66/133/1 67/134/1 68/135/1
f 68/136/2 67/137/2 63/138/2 64/139/2
f 62/140/4 61/141/4 69/142/4 70/143/4
f 70/144/5 69/145/5 71/146/5 72/147/5
f 72/148/6 71/149/6 73/150/6 74/151/6
f 74/152/7 73/153/7 75/154/7 76/155/7
f 76/156/8 75/157/8 66/158/8 65/159/8
f 77/160/1 78/161/1 79/162/1 80/163/1
f 80/164/2 79/165/2 75/166/2 76/167/2
f 82/168/4 74/169/4 73/170/4 81/171/4
f 82/172/5 81/173/5 83/174/5 84/175/5
f 84/176/6 83/177/6 85/178/6 86/179/6
f 86/180/7 85/181/7 87/182/7 88/183/7
f 87/184/8 78/185/8 77/186/8 88/187/8
f 90/188/1 89/189/1 91/190/1 92/191/1
f 92/192/2 91/193/2 87/194/2 88/195/2
f 86/196/4 85/197/4 93/198/4 94/199/4
f 94/200/5 93/201/5 96/202/5 95/203/5
f 95/204/6 96/205/6 97/206/6 98/207/6
f 98/208/7 97/209/7 99/210/7 100/211/7
f 100/212/8 99/213/8 89/214/8 90/215/8
f 101/216/1 102/217/1 103/218/1 104/219/1
f 104/220/2 103/221/2 99/222/2 100/223/2
f 106/224/4 98/225/4 97/226/4 105/227/4
f 106/228/5 105/229/5 107/230/5 108/231/5
f 108/232/6 107/233/6 109/234/6 110/235/6
f 110/236/7 109/237/7 111/238/7 112/239/7
f 111/240/8 102/241/8 101/242/8 112/243/8
f 114/244/1 113/245/1 115/246/1
f 115/247/2 113/248/2 111/249/2 112/250/2
f 117/251/4 110/252/4 109/253/4 116/254/4
f 117/255/5 116/256/5 118/257/5
f 5/258/11 3/258/11 2/258/11 15/258/11 13/258/11 11/258/11 9/258/11 7/258/11
f 25/258/11 23/258/11 21/258/11 13/258/11 15/258/11 19/258/11 18/258/11 27/258/11
f 37/258/11 35/258/11 33/258/11 25/258/11 27/258/11 31/258/11 30/258/11 39/258/11
f 49/258/11 47/258/11 45/258/11 37/258/11 39/258/11 43/258/11 42/258/11 51/258/11
f 61/258/11 59/258/11 57/258/11 49/258/11 51/258/11 55/258/11 54/258/11 63/258/11
f 73/258/11 71/258/11 69/258/11 61/258/11 63/258/11 67/258/11 66/258/11 75/258/11
f 87/258/11 85/258/11 83/258/11 81/258/11 73/258/11 75/258/11 79/258/11 78/258/11
f 97/258/11 96/258/11 93/258/11 85/258/11 87/258/11 91/258/11 89/258/11 99/258/11
f 109/258/11 107/258/11 105/258/11 97/258/11 99/258/11 103/258/11 102/258/11 111/258/11
f 111/258/11 113/258/11 114/258/11 118/258/11 116/258/11 109/258/11
f 112/258/12 110/258/12 117/258/12 118/258/12 114/258/12 115/258/12
f 98/258/12 106/258/12 108/258/12 110/258/12 112/258/12 101/258/12 104/258/12 100/258/12
f 86/258/12 94/258/12 95/258/12 98/258/12 100/258/12 90/258/12 92/258/12 88/258/12
f 74/258/12 82/258/12 84/258/12 86/258/12 88/258/12 77/258/12 80/258/12 76/258/12
f 62/258/12 70/258/12 72/258/12 74/258/12 76/258/12 65/258/12 68/258/12 64/258/12
f 50/258/12 58/258/12 60/258/12 62/258/12 64/258/12 53/258/12 56/258/12 52/258/12
f 38/258/12 46/258/12 48/258/12 50/258/12 52/258/12 41/258/12 44/258/12 40/258/12
f 26/258/12 34/258/12 36/258/12 38/258/12 40/258/12 29/258/12 32/258/12 28/258/12
f 17/258/12 20/258/12 16/258/12 14/258/12 22/258/12 24/258/12 26/258/12 28/258/12
f 1/258/12 4/258/12 6/258/12 8/258/12 10/258/12 12/258/12 14/258/12 16/258/12
