# Blender 4.0.2
# www.blender.org
mtllib tiled_roof_headstock_5000.mtl
o tiled_roof_headstock_5000
v 0.200000 2.005201 0.037500
v 0.000000 2.005201 0.037500
v 0.000000 2.016283 0.037500
v 0.200000 2.016283 0.037500
v 0.000000 1.950660 0.102500
v 0.200000 1.950660 0.102500
v 0.200000 0.200000 0.102500
v 0.000000 0.200000 0.102500
v 0.200000 2.005201 -0.037500
v 0.000000 2.005201 -0.037500
v 0.000000 2.016283 -0.037500
v 0.200000 2.016283 -0.037500
v 0.000000 1.950660 -0.102500
v 0.200000 1.950660 -0.102500
v 0.200000 0.200000 -0.102500
v 0.000000 0.200000 -0.102500
vn -0.0000 -0.0000 1.0000
vn -0.0000 -1.0000 -0.0000
vn 1.0000 -0.0000 -0.0000
vn -0.0000 0.7660 0.6428
vn -0.0000 1.0000 -0.0000
vn -0.0000 -0.0000 -1.0000
vn -0.0000 0.7660 -0.6428
vn -1.0000 -0.0000 -0.0000
vt 0.343387 0.541646
vt 0.343387 0.484237
vt 0.845914 0.484236
vt 0.845914 0.541646
vt 0.597798 0.335994
vt 0.540387 0.335994
vt 0.540387 0.339175
vt 0.597798 0.339175
vt 0.576265 0.527294
vt 0.635110 0.527294
vt 0.635111 0.584704
vt 0.576265 0.584704
vt 0.851937 0.442614
vt 0.851937 0.464143
vt 0.836282 0.482802
vt 0.333752 0.482801
vt 0.333752 0.423956
vt 0.836280 0.423956
vt 0.497326 0.667600
vt 0.554736 0.667599
vt 0.554737 0.685358
vt 0.497327 0.685359
vt 0.561913 0.584704
vt 0.561913 0.563175
vt 0.619323 0.563175
vt 0.619323 0.584704
vt 0.845915 0.541647
vt 0.845915 0.599056
vt 0.343387 0.599056
vt 0.482974 0.335997
vt 0.482974 0.339178
vt 0.540384 0.339177
vt 0.540384 0.335996
vt 0.475798 0.470232
vt 0.475798 0.452474
vt 0.533207 0.452474
vt 0.533207 0.470232
vt 0.851935 0.487106
vt 0.851936 0.508635
vt 0.836280 0.527294
vt 0.333752 0.527294
vt 0.333752 0.468449
vt 0.836279 0.468448
vt 0.855116 0.487106
vt 0.855117 0.508635
vt 0.855118 0.442614
vt 0.855118 0.464144
s 0
usemtl wood
f 8/1/1 7/2/1 6/3/1 5/4/1
f 4/5/1 3/6/1 2/7/1 1/8/1
f 15/9/2 7/10/2 8/11/2 16/12/2
f 9/13/3 1/14/3 6/15/3 7/16/3 15/17/3 14/18/3
f 5/19/4 6/20/4 1/21/4 2/22/4
f 11/23/5 3/24/5 4/25/5 12/26/5
f 16/1/6 13/27/6 14/28/6 15/29/6
f 12/30/6 9/31/6 10/32/6 11/33/6
f 13/34/7 10/35/7 9/36/7 14/37/7
f 2/38/8 10/39/8 13/40/8 16/41/8 8/42/8 5/43/8
f 3/44/8 11/45/8 10/39/8 2/38/8
f 12/46/3 4/47/3 1/14/3 9/13/3
