# Blender 4.0.2
# www.blender.org
mtllib balk_117x35x220.mtl
o balk_117x35x220
v -0.022865 -0.000365 1.845447
v -0.022865 0.000191 1.847154
v -0.023099 0.000422 1.846033
v -0.000233 -0.117591 2.200006
v -0.000233 -0.001165 2.200001
v 0.000000 -0.001165 2.199002
v 0.000000 -0.117591 2.199005
v -0.034767 -0.117635 0.000004
v -0.035000 -0.117635 0.001004
v -0.035000 -0.001208 0.001000
v 0.000000 -0.001208 0.001000
v 0.000000 -0.001165 2.199002
v -0.000233 -0.000378 2.199002
v -0.000233 -0.000422 0.001000
v 0.000000 -0.117591 2.199005
v -0.000233 -0.118378 2.199005
v -0.000233 -0.118422 0.001004
v 0.000000 -0.117635 0.001004
v -0.035000 -0.001165 2.199002
v -0.035000 -0.001208 0.001000
v -0.034767 -0.000422 0.001000
v -0.034767 -0.000378 2.199002
v -0.034767 -0.118378 2.199005
v -0.035000 -0.117591 2.199005
v -0.035000 -0.117635 0.001004
v -0.034767 -0.118422 0.001004
v -0.000233 -0.001165 2.200001
v -0.034767 -0.001165 2.200001
v -0.034767 -0.000378 2.199002
v -0.000233 -0.000378 2.199002
v -0.000233 -0.118378 2.199005
v -0.000233 -0.117591 2.200006
v -0.034767 -0.117591 2.200006
v -0.034767 -0.118378 2.199005
v -0.035000 -0.117591 2.199005
v -0.034767 -0.117591 2.200006
v -0.034767 -0.001165 2.200001
v -0.035000 -0.001165 2.199002
v -0.034767 -0.118422 0.001004
v -0.034767 -0.117635 0.000004
v -0.000233 -0.117635 0.000004
v -0.000233 -0.118422 0.001004
v -0.000233 -0.001208 0.000000
v -0.000233 -0.117635 0.000004
v 0.000000 -0.117635 0.001004
v 0.000000 -0.001208 0.001000
v -0.034767 -0.001208 0.000000
v -0.000233 -0.001208 0.000000
v -0.000233 -0.000422 0.001000
v -0.034767 -0.000422 0.001000
v -0.034767 -0.118378 2.199005
v -0.034767 -0.117591 2.200006
v -0.035000 -0.117591 2.199005
v -0.000233 -0.117635 0.000004
v 0.000000 -0.117635 0.001004
v -0.000233 -0.118422 0.001004
v -0.000233 -0.117591 2.200006
v -0.000233 -0.118378 2.199005
v 0.000000 -0.117591 2.199005
v 0.000000 -0.001165 2.199002
v -0.000233 -0.001165 2.200001
v -0.000233 -0.000378 2.199002
v -0.034767 -0.000378 2.199002
v -0.034767 -0.001165 2.200001
v -0.035000 -0.001165 2.199002
v -0.000233 -0.001208 0.000000
v 0.000000 -0.001208 0.001000
v -0.000233 -0.000422 0.001000
v -0.034767 -0.117635 0.000004
v -0.034767 -0.118422 0.001004
v -0.035000 -0.117635 0.001004
v -0.034767 -0.001208 0.000000
v -0.034767 -0.000422 0.001000
v -0.035000 -0.001208 0.001000
v 0.000000 -0.001208 0.001000
v 0.000000 -0.117635 0.001004
v 0.000000 -0.117591 2.199005
v 0.000000 -0.117591 2.199005
v 0.000000 -0.001165 2.199002
v 0.000000 -0.001208 0.001000
v -0.034767 -0.000378 2.199002
v -0.034767 -0.000422 0.001000
v -0.000233 -0.000422 0.001000
v -0.000233 -0.118378 2.199005
v -0.034767 -0.118378 2.199005
v -0.034767 -0.118422 0.001004
v -0.000233 -0.118422 0.001004
v -0.035000 -0.001165 2.199002
v -0.035000 -0.001208 0.001000
v -0.035000 -0.117635 0.001004
v -0.035000 -0.117635 0.001004
v -0.035000 -0.117591 2.199005
v -0.035000 -0.001165 2.199002
v -0.000233 -0.001165 2.200001
v -0.034767 -0.001165 2.200001
v -0.034767 -0.117591 2.200006
v -0.000233 -0.117591 2.200006
v -0.034767 -0.117635 0.000004
v -0.034767 -0.001208 0.000000
v -0.000233 -0.001208 0.000000
v -0.000233 -0.001208 0.000000
v -0.000233 -0.117635 0.000004
v -0.034767 -0.117635 0.000004
v -0.000233 -0.000378 2.199002
vn -0.9245 -0.3624 0.1181
vn -0.9741 -0.0000 -0.2263
vn -0.9739 -0.0000 -0.2271
vn -0.9737 -0.0000 -0.2278
vn -0.9740 -0.0000 -0.2267
vn -0.9738 -0.0000 -0.2273
vn 0.9587 0.2843 -0.0000
vn 0.9587 0.2845 -0.0000
vn 0.9587 -0.2844 -0.0000
vn 0.9587 -0.2845 -0.0000
vn 0.9588 -0.2842 -0.0000
vn 0.9587 -0.2843 -0.0000
vn -0.9587 -0.2843 -0.0000
vn -0.0000 -0.7856 -0.6187
vn -0.0000 -0.7855 -0.6189
vn -0.0000 -0.7865 0.6176
vn -0.0000 -0.7863 0.6178
vn -0.9739 -0.0000 0.2270
vn -0.9737 -0.0000 0.2280
vn -0.9739 -0.0000 0.2271
vn -0.9741 -0.0000 0.2263
vn -0.0000 -0.7858 -0.6184
vn -0.9738 -0.0000 0.2274
vn -0.0000 -0.7860 0.6182
vn -0.0000 -0.7862 0.6180
vn -0.9357 -0.2775 0.2180
vn 0.9357 -0.2773 -0.2182
vn 0.9357 -0.2773 0.2180
vn -0.9356 -0.2775 -0.2185
vn 0.9356 -0.2774 -0.2185
vn -0.9356 -0.2775 0.2183
vn -0.9357 -0.2773 -0.2182
vn 0.9357 -0.2774 0.2180
vn 1.0000 -0.0000 -0.0000
vn -0.0000 1.0000 -0.0000
vn -0.0000 -1.0000 -0.0000
vn -1.0000 -0.0000 -0.0000
vn -0.0000 -0.0000 1.0000
vn -0.0000 -0.0000 -1.0000
vt 0.836442 0.220953
vt 0.839160 0.219598
vt 0.847283 0.242699
vt 0.408243 0.070703
vt 0.341720 0.068295
vt 0.341443 0.069483
vt 0.408440 0.071950
vt 0.479204 0.001761
vt 0.480435 0.001511
vt 0.482456 0.068507
vt 0.086238 0.998831
vt 0.085124 0.000698
vt 0.103653 0.999104
vt 0.102539 0.000971
vt 0.019030 0.998906
vt 0.001615 0.998633
vt 0.000500 0.000500
vt 0.017915 0.000773
vt 0.188276 0.999302
vt 0.187162 0.001170
vt 0.169747 0.000896
vt 0.170861 0.999029
vt 0.272899 0.999500
vt 0.255484 0.999227
vt 0.254370 0.001095
vt 0.271786 0.001368
vt 0.342059 0.001747
vt 0.340864 0.001476
vt 0.340481 0.068501
vt 0.409438 0.070974
vt 0.408582 0.004155
vt 0.409821 0.003949
vt 0.408859 0.002967
vt 0.341861 0.000500
vt 0.479439 0.000563
vt 0.412638 0.001739
vt 0.412396 0.000500
vt 0.414685 0.068256
vt 0.411434 0.001511
vt 0.413454 0.068507
vt 0.481252 0.068279
vt 0.414451 0.069454
vt 0.481494 0.069517
vt 0.340107 0.999425
vt 0.338994 0.001293
s 0
usemtl 
f 1/1/1 2/2/1 3/3/1
f 4/4/2 5/5/3 6/6/3
f 6/6/4 7/7/5 4/4/5
f 8/8/6 9/9/6 10/10/6
f 12/11/7 11/12/7 13/13/7
f 14/14/8 13/13/8 11/12/8
f 15/15/9 16/16/9 17/17/9
f 17/17/10 18/18/10 15/15/10
f 19/19/11 20/20/11 21/21/11
f 21/21/12 22/22/12 19/19/12
f 23/23/13 24/24/13 25/25/13
f 25/25/13 26/26/13 23/23/13
f 27/5/14 28/27/14 29/28/14
f 29/28/15 30/29/15 27/5/15
f 31/30/16 32/4/16 33/31/16
f 33/31/17 34/32/17 31/30/17
f 35/33/18 36/31/18 37/27/19
f 37/27/20 38/34/20 35/33/21
f 39/35/22 40/8/22 41/36/22
f 41/36/22 42/37/22 39/35/22
f 43/38/23 44/36/23 45/39/23
f 45/39/23 46/40/23 43/38/23
f 47/41/24 48/38/24 49/42/24
f 49/42/25 50/43/25 47/41/25
f 51/32/26 52/31/26 53/33/26
f 54/36/27 55/39/27 56/37/27
f 57/4/28 58/30/28 59/7/28
f 60/6/29 61/5/29 62/29/29
f 63/28/30 64/27/30 65/34/30
f 66/38/31 67/40/31 68/42/31
f 69/8/32 70/35/32 71/9/32
f 72/41/33 73/43/33 74/10/33
f 76/18/34 75/12/34 77/15/34
f 79/11/34 78/15/34 80/12/34
f 82/21/35 81/22/35 83/14/35
f 84/44/36 85/23/36 86/26/36
f 86/26/36 87/45/36 84/44/36
f 88/19/37 89/20/37 90/25/37
f 91/25/37 92/24/37 93/19/37
f 94/5/38 95/27/38 96/31/38
f 96/31/38 97/4/38 94/5/38
f 98/8/39 99/41/39 100/38/39
f 101/38/39 102/36/39 103/8/39
f 104/13/35 83/14/35 81/22/35
