# Blender 4.0.2
# www.blender.org
mtllib isoolated_plate_headstock_3500.mtl
o isoolated_plate_headstock_3500
v 0.200000 0.200000 0.102501
v 0.000000 0.200000 0.102501
v 0.000000 1.300267 0.000000
v 0.200000 1.214267 0.102501
v 0.000000 1.214267 0.102501
v 0.200000 1.300267 0.000000
v 0.200000 0.200000 -0.102501
v 0.000000 0.200000 -0.102501
v 0.200000 1.214267 -0.102501
v 0.000000 1.214267 -0.102501
vn -0.0000 0.7661 0.6427
vn 1.0000 -0.0000 -0.0000
vn -1.0000 -0.0000 -0.0000
vn -0.0000 -0.0000 1.0000
vn -0.0000 0.7661 -0.6427
vn -0.0000 -0.0000 -1.0000
vn -0.0000 -1.0000 -0.0000
vt 0.521453 0.416855
vt 0.479829 0.416855
vt 0.479829 0.354637
vt 0.521453 0.354637
vt 0.000000 0.544504
vt 0.000000 0.480730
vt 0.315528 0.480730
vt 0.342282 0.512617
vt 0.315529 0.544504
vt 0.000000 0.416957
vt 0.000000 0.353182
vt 0.315528 0.353182
vt 0.342282 0.385069
vt 0.315529 0.416957
vt 0.479829 0.354637
vt 0.479829 0.416855
vt 0.277023 0.416855
vt 0.277023 0.354637
vt 0.303984 0.417057
vt 0.303984 0.479275
vt 0.277230 0.479275
vt 0.277230 0.417057
vt 0.315529 0.479275
vt 0.000000 0.479275
vt 0.000000 0.417057
vt 0.315529 0.417057
vt 0.242012 0.608177
vt 0.178238 0.608177
vt 0.178238 0.545959
vt 0.242012 0.545959
s 0
usemtl wood
f 3/1/1 5/2/1 4/3/1 6/4/1
f 1/5/2 7/6/2 9/7/2 6/8/2 4/9/2
f 8/10/3 2/11/3 5/12/3 3/13/3 10/14/3
f 4/15/4 5/16/4 2/17/4 1/18/4
f 3/19/5 6/20/5 9/21/5 10/22/5
f 9/23/6 7/24/6 8/25/6 10/26/6
f 2/27/7 8/28/7 7/29/7 1/30/7
