# Blender 4.0.2
# www.blender.org
mtllib zadeldak_beam_3500.mtl
o zadeldak_beam_3500
v -0.000240 0.147440 -1.990997
v -0.000240 1.296433 -0.000901
v -0.000240 1.196433 -0.000901
v -0.000240 0.047440 -1.990997
v -0.000240 1.196433 0.000839
v -0.000240 0.047440 1.990997
v -0.100240 0.147440 -1.990997
v -0.100240 0.047440 -1.990997
v -0.100240 1.196433 -0.000901
v -0.100240 1.296433 -0.000901
v -0.100240 1.196433 0.000839
v -0.000240 1.296433 0.000901
v -0.000240 0.147440 1.990997
v -0.100240 0.147440 1.990997
v -0.100240 0.047440 1.990997
v -0.100240 1.296433 0.000901
vn 1.0000 -0.0000 -0.0000
vn -0.0000 0.8660 0.5000
vn -1.0000 -0.0000 -0.0000
vn -0.0000 1.0000 -0.0000
vn -0.0000 -0.0000 -1.0000
vn -0.0000 -1.0000 -0.0000
vn -0.0000 0.8660 -0.5000
vn -0.0000 -0.8660 -0.5000
vn -0.0000 -0.0000 1.0000
vn -0.0000 -0.8660 0.5000
vt 1.201157 1.161978
vt 0.636774 1.151211
vt 0.654123 1.110548
vt 1.218506 1.121315
vt 0.043079 0.100495
vt 0.043000 0.099814
vt 0.072152 0.094795
vt 0.072231 0.095475
vt 0.881786 1.465702
vt 1.601613 1.466604
vt 1.601645 1.435321
vt 0.881818 1.434419
vt 1.352783 1.252806
vt 1.369249 1.293878
vt 0.803494 1.287787
vt 0.787028 1.246715
vt 0.178024 0.095726
vt 0.207272 0.099813
vt 0.207207 0.100495
vt 0.177959 0.096409
vt 1.251405 0.725451
vt 1.268754 0.684788
vt 0.704371 0.674021
vt 0.687022 0.714684
vt 1.352783 1.334458
vt 0.787028 1.328367
vt 0.803494 1.369439
vt 1.369249 1.375530
vt 1.594131 0.866771
vt 1.594163 0.835487
vt 1.595364 0.835489
vt 1.595332 0.866773
vt 1.020656 1.088780
vt 1.020105 1.111730
vt 0.969485 1.110252
vt 0.970036 1.087302
vt 0.131900 0.091074
vt 0.111081 0.091074
vt 0.111081 0.090102
vt 0.131900 0.090102
vt 0.874304 0.865869
vt 0.874336 0.834586
vt 0.001088 1.287597
vt 0.785120 1.282745
vt 0.784946 1.248671
vt 0.000914 1.253523
vt 1.118011 1.091921
vt 1.067391 1.090443
vt 1.066840 1.113393
vt 1.117460 1.114871
vt 0.001088 1.325283
vt 0.000914 1.291209
vt 0.784946 1.286357
vt 0.785120 1.320431
s 1
usemtl wood
f 1/1/1 2/2/1 3/3/1 4/4/1
f 2/5/1 12/6/1 5/7/1 3/8/1
f 13/9/2 12/10/2 16/11/2 14/12/2
f 7/13/3 8/14/3 9/15/3 10/16/3
f 10/17/3 9/18/3 11/19/3 16/20/3
f 13/21/1 6/22/1 5/23/1 12/24/1
f 14/25/3 16/26/3 11/27/3 15/28/3
f 2/29/4 10/30/4 16/31/4 12/32/4
f 4/33/5 8/34/5 7/35/5 1/36/5
f 5/37/6 11/38/6 9/39/6 3/40/6
f 1/41/7 7/42/7 10/30/7 2/29/7
f 5/43/8 6/44/8 15/45/8 11/46/8
f 6/47/9 13/48/9 14/49/9 15/50/9
f 3/51/10 9/52/10 8/53/10 4/54/10
