# Blender 4.0.2
# www.blender.org
mtllib zadeldak_beam_3000.mtl
o zadeldak_beam_3000
v -0.000240 0.147427 -1.741005
v -0.000240 1.152092 -0.000891
v -0.000240 1.052092 -0.000891
v -0.000240 0.047427 -1.741005
v -0.000240 1.052092 0.000849
v -0.000240 0.047427 1.741005
v -0.100240 0.147427 -1.741005
v -0.100240 0.047427 -1.741005
v -0.100240 1.052092 -0.000891
v -0.100240 1.152092 -0.000891
v -0.100240 1.052092 0.000849
v -0.000240 0.147427 1.741005
v -0.000240 1.152092 0.000891
v -0.100240 0.147427 1.741005
v -0.100240 0.047427 1.741005
v -0.100240 1.152092 0.000891
vn 1.0000 -0.0000 -0.0000
vn -0.0000 0.8660 0.5000
vn -1.0000 -0.0000 -0.0000
vn -0.0000 1.0000 -0.0000
vn -0.0000 -0.0000 -1.0000
vn -0.0000 -1.0000 -0.0000
vn -0.0000 0.8660 -0.5000
vn -0.0000 -0.8660 -0.5000
vn -0.0000 -0.0000 1.0000
vn -0.0000 -0.8660 0.5000
vt 1.270411 0.920161
vt 0.703551 0.909347
vt 0.720737 0.869064
vt 1.287597 0.879878
vt 0.022290 0.100495
vt 0.022206 0.099769
vt 0.053303 0.094415
vt 0.053388 0.095141
vt 0.796933 1.581889
vt 1.526241 1.582802
vt 1.526273 1.551541
vt 0.796965 1.550627
vt 1.371780 0.320467
vt 1.388092 0.361155
vt 0.819855 0.355037
vt 0.803542 0.314350
vt 0.081857 0.089126
vt 0.113057 0.093485
vt 0.112988 0.094214
vt 0.081788 0.089854
vt 1.320659 0.317189
vt 1.337845 0.276906
vt 0.770985 0.266092
vt 0.753799 0.306375
vt 1.390623 0.364434
vt 0.822385 0.358317
vt 0.838698 0.399004
vt 1.406935 0.405122
vt 1.528182 1.545114
vt 1.528214 1.513853
vt 1.529414 1.513855
vt 1.529382 1.545116
vt 0.904458 1.087248
vt 0.903870 1.111730
vt 0.849872 1.110154
vt 0.850460 1.085672
vt 0.326610 0.251238
vt 0.304402 0.251238
vt 0.304402 0.250201
vt 0.326610 0.250202
vt 0.798874 1.544201
vt 0.798906 1.512939
vt 0.644585 0.964127
vt 1.432059 0.959254
vt 1.431887 0.925499
vt 0.644413 0.930373
vt 0.964127 1.087248
vt 0.910129 1.085672
vt 0.909541 1.110154
vt 0.963539 1.111730
vt 0.644585 1.008094
vt 0.644413 0.974340
vt 1.431887 0.969466
vt 1.432059 1.003221
s 1
usemtl wood
f 1/1/1 2/2/1 3/3/1 4/4/1
f 2/5/1 13/6/1 5/7/1 3/8/1
f 12/9/2 13/10/2 16/11/2 14/12/2
f 7/13/3 8/14/3 9/15/3 10/16/3
f 10/17/3 9/18/3 11/19/3 16/20/3
f 12/21/1 6/22/1 5/23/1 13/24/1
f 14/25/3 16/26/3 11/27/3 15/28/3
f 2/29/4 10/30/4 16/31/4 13/32/4
f 4/33/5 8/34/5 7/35/5 1/36/5
f 5/37/6 11/38/6 9/39/6 3/40/6
f 1/41/7 7/42/7 10/30/7 2/29/7
f 5/43/8 6/44/8 15/45/8 11/46/8
f 6/47/9 12/48/9 14/49/9 15/50/9
f 3/51/10 9/52/10 8/53/10 4/54/10
