# Blender 4.0.2
# www.blender.org
mtllib zadeldak_roof_side_small_4500.mtl
o zadeldak_roof_side_small_4500
v 0.133730 1.470304 -0.000850
v 0.134730 1.471804 -0.000020
v 0.133730 1.470304 0.000880
v 0.115730 1.470304 0.000880
v 0.114730 1.471805 -0.000020
v 0.115730 1.470304 -0.000850
v 0.133730 1.664244 -0.000850
v 0.133730 1.664244 0.000850
v 0.134730 1.663745 -0.000020
v 0.115730 1.664244 0.000880
v 0.115730 1.664244 -0.000850
v 0.114730 1.663744 0.000020
v 0.115730 0.032728 2.490844
v 0.115730 0.033228 2.491704
v 0.114730 0.033957 2.490704
v 0.114730 0.225588 2.490704
v 0.115730 0.225168 2.491704
v 0.115730 0.226667 2.490844
v 0.133730 0.226667 2.490844
v 0.133730 0.225168 2.491704
v 0.134730 0.225588 2.490704
v 0.134730 0.033957 2.490704
v 0.133730 0.033228 2.491704
v 0.133730 0.032728 2.490844
v 0.114730 0.225587 -2.490704
v 0.115730 0.225167 -2.491704
v 0.115730 0.033227 -2.491704
v 0.114730 0.033956 -2.490704
v 0.115730 0.226666 -2.490844
v -0.115210 1.664244 0.000880
v 0.113730 1.664244 0.000850
v 0.113730 1.664245 -0.000850
v -0.115210 1.664244 -0.000850
v 0.133730 0.226666 -2.490844
v 0.133730 0.225167 -2.491704
v 0.114730 1.663745 -0.000020
v 0.114746 0.225584 2.490704
v 0.114746 0.207894 2.490704
v 0.114730 1.645744 -0.000020
v 0.115730 0.032727 -2.490844
v 0.113746 0.226664 2.490844
v -0.116194 0.225583 -2.490704
v -0.116210 1.663744 0.000020
v -0.115194 0.226666 -2.490844
v -0.115194 0.206667 2.490844
v 0.113746 0.206667 2.490845
v 0.113746 0.207164 2.491704
v -0.115194 0.207164 2.491704
v 0.113730 1.644244 0.000880
v 0.113730 1.644245 -0.000880
v -0.115210 1.644244 0.000880
v -0.116210 1.645744 -0.000020
v -0.115210 1.644244 -0.000850
v -0.116194 0.207894 2.490704
v -0.116194 0.225584 2.490704
v -0.115194 0.225164 2.491704
v -0.115194 0.226667 2.490844
v 0.113746 0.225164 2.491704
v -0.115194 0.225163 -2.491704
v 0.113746 0.226663 -2.490844
v 0.114746 0.225583 -2.490704
v 0.113746 0.225163 -2.491704
v -0.115194 0.206666 -2.490844
v -0.116194 0.207893 -2.490704
v -0.115194 0.207163 -2.491704
v 0.113746 0.207163 -2.491704
v 0.113746 0.206666 -2.490845
v 0.134730 0.033956 -2.490704
v 0.133730 0.032727 -2.490844
v 0.133730 0.033227 -2.491704
v 0.114746 0.207893 -2.490704
v 0.134730 0.225587 -2.490704
vn 0.8320 -0.5547 -0.0000
vn -0.8322 -0.5544 -0.0000
vn 0.4466 0.8948 -0.0000
vn -0.4472 0.8944 -0.0000
vn -0.7495 -0.5722 0.3329
vn -0.5499 0.4157 0.7244
vn 0.5499 0.4157 0.7244
vn 0.7495 -0.5722 0.3329
vn -0.7071 -0.0000 -0.7071
vn -0.6627 -0.6486 0.3744
vn -0.6825 0.6330 0.3655
vn -0.7051 -0.6141 -0.3545
vn -0.6476 -0.6599 -0.3810
vn 0.0004 0.8660 0.5000
vn -0.0000 0.4976 0.8674
vn -0.7071 -0.0000 0.7071
vn -0.0000 1.0000 -0.0000
vn 1.0000 -0.0000 -0.0000
vn -0.0000 -1.0000 -0.0000
vn -1.0000 -0.0000 -0.0000
vn -0.0000 -0.8660 -0.5000
vn -0.5498 0.4159 -0.7244
vn 0.7071 -0.0000 0.7071
vn -0.0000 -0.8645 0.5026
vn -0.0000 -0.0000 1.0000
vn -0.0000 1.0000 0.0003
vn -0.0000 0.4976 -0.8674
vn -0.7051 -0.6141 0.3545
vn 0.6834 0.6322 0.3650
vn 0.6833 0.6323 0.3651
vn -0.6842 0.6316 -0.3647
vn 0.7051 -0.6141 -0.3545
vn -0.0000 -0.8656 0.5007
vn 0.6472 -0.6602 -0.3812
vn 0.4467 0.8947 0.0005
vn 0.8319 -0.5549 -0.0003
vn -0.8320 -0.5547 -0.0000
vn 0.7496 -0.5729 0.3315
vn -0.7495 -0.5732 0.3313
vn -0.5504 0.4147 0.7246
vn 0.5500 0.4156 0.7245
vn -0.5504 0.4148 -0.7245
vn -0.6834 0.6322 -0.3650
vn -0.7494 -0.5724 -0.3328
vn -0.0000 -1.0000 -0.0003
vn 0.5500 0.4154 -0.7245
vn -0.7494 -0.5734 -0.3311
vn -0.0000 -0.8657 -0.5005
vn 0.7043 -0.6148 -0.3549
vn 0.6471 -0.6602 -0.3812
vn -0.0000 0.8660 0.5000
vn 0.6797 0.6352 -0.3668
vn -0.6831 0.6324 0.3652
vn 0.6555 -0.6540 0.3776
vn 0.7494 -0.5724 -0.3328
vn -0.7045 -0.6146 -0.3549
vn -0.0000 0.8660 -0.5000
vn -0.0000 -0.8660 0.5000
vn -0.0000 0.4970 0.8678
vn -0.6472 -0.6602 -0.3811
vn 0.7043 -0.6148 0.3549
vn 0.5498 0.4159 -0.7244
vn 0.7496 -0.5730 -0.3314
vn 0.7071 -0.0000 -0.7071
vn -0.0000 -0.0000 -1.0000
vn -0.7045 -0.6146 0.3549
vn -0.0000 0.4970 -0.8678
vn -0.6623 -0.6489 0.3746
vn -0.0000 -0.8645 -0.5026
vn 0.6794 0.6355 -0.3669
vn 0.7051 -0.6141 0.3545
vn 0.6623 -0.6489 0.3746
vt 0.085316 0.001911
vt 0.084856 0.002170
vt 0.085346 0.002371
vt 0.030689 0.016595
vt 0.030819 0.016074
vt 0.030329 0.016295
vt 0.032840 0.042673
vt 0.033190 0.042353
vt 0.032810 0.042293
vt 0.018676 0.065910
vt 0.018656 0.066380
vt 0.018966 0.066160
vt 0.080604 0.004414
vt 0.080375 0.004354
vt 0.080245 0.004741
vt 0.001917 0.092458
vt 0.001970 0.092458
vt 0.002371 0.092398
vt 0.030819 0.092457
vt 0.030417 0.092458
vt 0.030369 0.092457
vt 0.032768 0.063662
vt 0.032966 0.064009
vt 0.033190 0.063918
vt 0.093051 0.100837
vt 0.093097 0.100643
vt 0.144614 0.101747
vt 0.144484 0.101941
vt 1.449988 1.502215
vt 1.463708 1.503035
vt 1.488811 0.740128
vt 0.890600 0.911497
vt 0.915401 0.148536
vt 0.929464 0.149088
vt 0.905240 0.911817
vt 0.319132 1.635796
vt 0.343355 0.873059
vt 0.357978 0.873707
vt 1.345650 1.454800
vt 1.384499 0.692712
vt 1.359370 1.455621
vt 0.938958 0.149382
vt 0.915460 0.912137
vt 0.002371 0.023677
vt 0.001990 0.018853
vt 0.001586 0.018883
vt 0.001968 0.023707
vt 0.090680 0.103208
vt 0.142113 0.104312
vt 0.142243 0.104118
vt 0.090726 0.103014
vt 0.038213 0.037931
vt 0.042673 0.036171
vt 0.042503 0.035741
vt 0.038043 0.037501
vt 1.214753 1.242256
vt 1.237515 0.479237
vt 1.206401 0.452903
vt 1.183590 1.215880
vt 0.000111 0.059869
vt 0.004561 0.061639
vt 0.004741 0.061219
vt 0.000281 0.059439
vt 1.067986 1.070893
vt 1.092901 0.307976
vt 1.060209 0.332316
vt 1.035230 1.095272
vt 1.369951 1.626013
vt 1.393454 0.863260
vt 1.403465 0.863576
vt 1.379246 1.626313
vt 0.089633 0.073492
vt 0.090087 0.073432
vt 0.089686 0.073492
vt 0.130228 0.064001
vt 0.079655 0.073311
vt 0.079732 0.073492
vt 0.130389 0.064168
vt 0.002371 0.087702
vt 0.001953 0.082854
vt 0.001727 0.082869
vt 0.002145 0.087717
vt 0.039239 0.106682
vt 0.090087 0.100646
vt 0.089517 0.095876
vt 0.038669 0.101912
vt 0.063487 0.092218
vt 0.089977 0.035388
vt 0.089967 0.035378
vt 0.063467 0.092208
vt 0.002371 0.075833
vt 0.001968 0.075863
vt 0.001586 0.071039
vt 0.001990 0.071009
vt 0.661430 1.024092
vt 0.656535 1.796950
vt 0.645366 1.801746
vt 0.650700 1.024932
vt 0.335751 1.635796
vt 0.374573 0.873710
vt 0.359975 0.873060
vt 1.706917 0.086408
vt 1.702509 0.851686
vt 1.691097 0.852045
vt 1.696127 0.079188
vt 0.953029 0.149714
vt 0.930090 0.912727
vt 1.714547 1.552820
vt 1.717937 0.777640
vt 1.707097 0.781659
vt 1.703115 1.548039
vt 1.644878 0.000388
vt 1.659503 0.000648
vt 1.622264 0.763371
vt 1.060541 0.068751
vt 1.090530 0.012187
vt 1.089951 0.011912
vt 1.059953 0.068476
vt 1.469845 0.721318
vt 1.446349 1.484070
vt 1.432607 1.484041
vt 0.090087 0.035138
vt 0.059158 0.027996
vt 0.059138 0.027986
vt 0.059268 0.027746
vt 0.063357 0.092458
vt 0.032528 0.085106
vt 0.032408 0.085346
vt 0.032518 0.085096
vt 0.051656 0.025208
vt 0.051477 0.025926
vt 0.052156 0.026078
vt 0.011854 0.035285
vt 0.011364 0.034950
vt 0.010995 0.035561
vt 0.001872 0.028449
vt 0.002371 0.028007
vt 0.001464 0.027716
vt 0.020569 0.035058
vt 0.021302 0.035561
vt 0.021336 0.034882
vt 0.004242 0.033190
vt 0.003834 0.032457
vt 0.004741 0.032748
vt 0.930902 0.994472
vt 0.945542 0.994792
vt 0.969766 0.232063
vt 0.955703 0.231511
vt 0.035701 0.005435
vt 0.042183 0.007112
vt 0.042673 0.006578
vt 0.036078 0.004873
vt 0.028449 0.089760
vt 0.028091 0.090087
vt 0.028220 0.089700
vt 0.011087 0.075360
vt 0.011854 0.075184
vt 0.011820 0.075863
vt 0.066380 0.011578
vt 0.065521 0.011854
vt 0.065890 0.011243
vt 1.062912 0.272633
vt 1.062324 0.272358
vt 1.092322 0.215794
vt 1.092901 0.216069
vt 1.315749 0.764291
vt 1.310547 1.541048
vt 1.299500 1.545708
vt 1.682676 0.916853
vt 1.666298 1.699635
vt 1.671826 0.927853
vt 1.673907 0.084668
vt 1.669925 0.851048
vt 1.740107 0.783400
vt 1.729317 0.776179
vt 1.724287 1.549037
vt 1.735699 1.548677
vt 1.699775 1.706867
vt 1.704546 0.936363
vt 1.681357 0.855829
vt 1.684747 0.080648
vt 0.011854 0.004056
vt 0.006424 0.000611
vt 0.006273 0.001235
vt 0.011798 0.004741
vt 0.739131 0.921594
vt 0.728281 0.932594
vt 0.722753 1.704376
vt 0.006587 1.427172
vt 0.033190 1.371159
vt 0.027226 1.368641
vt 0.000672 1.424571
vt 0.030397 0.089740
vt 0.030819 0.089996
vt 0.030594 0.090087
vt 1.811229 0.005647
vt 1.807550 0.787078
vt 1.796731 0.775660
vt 1.800259 0.000527
vt 1.689650 1.706917
vt 0.761001 0.941104
vt 0.756230 1.711608
vt 0.077418 0.022077
vt 0.050248 0.077856
vt 0.051060 0.078234
vt 0.078234 0.022431
vt 0.001228 0.948287
vt 0.005045 0.167022
vt 0.016595 0.180792
vt 1.488811 0.792740
vt 1.472562 1.574157
vt 1.483609 1.569497
vt 0.018966 0.094828
vt 0.018516 0.094828
vt 0.018564 0.094829
vt 0.955762 0.995112
vt 0.979260 0.232357
vt 0.056397 0.020466
vt 0.056897 0.021336
vt 0.056218 0.021184
vt 0.033330 0.050479
vt 0.033707 0.049917
vt 0.040302 0.051622
vt 0.039812 0.052156
vt 0.011854 0.013539
vt 0.011798 0.014224
vt 0.006273 0.010718
vt 0.006424 0.010094
vt 0.471248 1.367904
vt 0.465333 1.365303
vt 0.491887 1.309373
vt 0.497851 1.311891
vt 0.746105 1.711658
vt 0.079788 0.024447
vt 0.080604 0.024801
vt 0.053430 0.080604
vt 0.052618 0.080226
vt 1.440254 0.881907
vt 1.455621 0.114412
vt 1.444071 0.100642
vt 0.367137 1.763514
vt 0.376432 1.763814
vt 0.400651 1.001077
vt 0.390640 1.000761
vt 0.089926 0.123269
vt 0.090087 0.123436
vt 0.039429 0.132760
vt 0.039353 0.132579
vt 0.047414 0.085331
vt 0.047187 0.085346
vt 0.046769 0.080498
vt 0.046995 0.080483
vt 0.036869 0.113794
vt 0.036299 0.109024
vt 0.087147 0.102988
vt 0.087717 0.107758
vt 0.970392 0.995702
vt 0.993331 0.232689
vt 1.625912 0.000388
vt 1.603296 0.763371
vt 1.640537 0.000648
vt 0.151726 0.740281
vt 0.114489 1.503003
vt 0.128229 1.503035
s 0
usemtl wood
f 1/1/1 2/2/1 3/3/1
f 4/4/2 5/5/2 6/6/2
f 7/7/3 8/8/3 9/9/3
f 10/10/4 11/11/4 12/12/4
f 13/13/5 14/14/5 15/15/5
f 16/16/6 17/17/6 18/18/6
f 19/19/7 20/20/7 21/21/7
f 22/22/8 23/23/8 24/24/8
f 25/25/9 26/26/9 27/27/9 28/28/9
f 6/29/10 5/30/10 28/31/10
f 12/32/11 16/33/11 18/34/11 10/35/11
f 4/36/12 13/37/12 15/38/12
f 4/39/13 15/40/13 5/41/13
f 10/35/14 18/34/14 19/42/14 8/43/14
f 19/44/15 18/45/15 17/46/15 20/47/15
f 16/48/16 15/49/16 14/50/16 17/51/16
f 7/52/17 11/53/17 10/54/17 8/55/17
f 9/56/18 21/57/18 22/58/18 2/59/18
f 3/60/19 4/61/19 6/62/19 1/63/19
f 5/64/20 15/65/20 16/66/20 12/67/20
f 3/68/21 24/69/21 13/70/21 4/71/21
f 25/72/22 29/73/22 26/74/22
f 22/75/23 21/76/23 20/77/23 23/78/23
f 13/79/24 24/80/24 23/81/24 14/82/24
f 17/83/25 14/84/25 23/85/25 20/86/25
f 30/87/26 31/88/26 32/89/26 33/90/26
f 34/91/27 35/92/27 26/93/27 29/94/27
f 36/95/18 37/96/18 38/97/18 39/98/18
f 6/99/28 28/100/28 40/101/28
f 31/102/29 41/103/29 37/104/29 36/105/29
f 19/42/30 21/106/30 9/107/30 8/43/30
f 42/108/31 43/109/31 33/110/31 44/111/31
f 22/112/32 24/113/32 2/114/32
f 45/115/33 46/116/33 47/117/33 48/118/33
f 24/119/34 3/120/34 2/121/34
f 32/89/35 31/88/35 36/122/35
f 49/123/36 50/124/36 39/125/36
f 33/90/4 43/126/4 30/87/4
f 51/127/37 52/128/37 53/129/37
f 38/130/38 47/131/38 46/132/38
f 45/133/39 48/134/39 54/135/39
f 55/136/40 56/137/40 57/138/40
f 41/139/41 58/140/41 37/141/41
f 42/142/42 44/143/42 59/144/42
f 12/145/43 11/146/43 29/147/43 25/148/43
f 55/149/16 54/150/16 48/151/16 56/152/16
f 40/153/44 28/154/44 27/155/44
f 49/123/45 51/127/45 53/129/45 50/124/45
f 60/156/46 61/157/46 62/158/46
f 63/159/47 64/160/47 65/161/47
f 63/162/48 65/163/48 66/164/48 67/165/48
f 39/166/49 38/167/49 46/168/49
f 39/169/50 46/170/50 49/171/50
f 30/172/51 57/173/51 41/103/51 31/102/51
f 32/174/52 36/175/52 61/176/52 60/177/52
f 49/171/21 46/170/21 45/178/21 51/179/21
f 55/180/53 57/173/53 30/172/53 43/181/53
f 38/182/23 37/183/23 58/184/23 47/185/23
f 39/186/54 50/187/54 67/188/54
f 48/189/25 47/190/25 58/191/25 56/192/25
f 68/193/55 69/194/55 70/195/55
f 52/196/20 54/197/20 55/198/20 43/199/20
f 45/178/56 54/200/56 51/179/56
f 33/110/57 32/174/57 60/177/57 44/111/57
f 50/187/58 53/201/58 63/202/58 67/188/58
f 41/203/59 57/204/59 56/205/59 58/206/59
f 54/207/60 52/208/60 51/209/60
f 36/95/18 39/98/18 71/97/18 61/96/18
f 39/210/61 67/211/61 71/212/61
f 34/213/62 72/214/62 35/215/62
f 11/146/57 7/216/57 34/217/57 29/147/57
f 71/218/63 67/219/63 66/220/63
f 42/221/9 59/222/9 65/223/9 64/224/9
f 71/225/64 66/226/64 62/227/64 61/228/64
f 65/229/65 59/230/65 62/231/65 66/232/65
f 52/196/20 43/199/20 42/198/20 64/197/20
f 63/202/66 53/201/66 64/233/66
f 60/234/67 62/235/67 59/236/67 44/237/67
f 64/238/68 53/239/68 52/240/68
f 9/56/18 2/59/18 68/58/18 72/57/18
f 5/64/20 12/67/20 25/66/20 28/65/20
f 1/241/58 6/242/58 40/243/58 69/244/58
f 68/245/64 70/246/64 35/247/64 72/248/64
f 40/249/69 27/250/69 70/251/69 69/252/69
f 26/253/65 35/254/65 70/255/65 27/256/65
f 34/217/70 7/216/70 9/257/70 72/258/70
f 68/259/71 2/260/71 69/261/71
f 69/262/72 2/263/72 1/264/72
