# Blender 4.0.2
# www.blender.org
mtllib zadeldak_roof_side_small_2500.mtl
o zadeldak_roof_side_small_2500
v -0.114930 1.090729 0.000870
v -0.115284 0.230410 1.491005
v 0.113656 0.230410 1.491005
v 0.114010 1.090729 0.000870
v 0.116010 1.090739 0.000870
v 0.115643 0.230415 1.491005
v 0.133650 0.230414 1.491005
v 0.134010 1.090739 0.000870
v 0.115010 1.090229 -0.000000
v 0.114010 1.070729 0.000870
v 0.115010 1.072229 -0.000000
v -0.115930 1.090229 -0.000000
v -0.114930 1.070729 0.000870
v -0.115930 1.072229 -0.000000
v 0.114656 0.211640 1.490875
v 0.113656 0.210899 1.491865
v 0.113656 0.210410 1.491005
v -0.115284 0.210410 1.491005
v -0.115284 0.210899 1.491865
v -0.116284 0.211640 1.490865
v -0.116284 0.229329 1.490865
v -0.115284 0.228910 1.491865
v 0.113656 0.228910 1.491865
v 0.114656 0.229329 1.490865
v 0.135010 0.898299 -0.000000
v 0.134010 0.896799 0.000870
v 0.116010 0.896799 0.000870
v 0.115010 0.898299 -0.000000
v 0.135010 1.090239 -0.000000
v 0.115010 1.090239 -0.000000
v 0.115643 0.036475 1.491004
v 0.115643 0.036975 1.491864
v 0.114643 0.037571 1.491005
v 0.114653 0.229334 1.490864
v 0.115643 0.228915 1.491865
v 0.133653 0.228915 1.491865
v 0.134643 0.229334 1.490864
v 0.134643 0.037705 1.490864
v 0.133653 0.036975 1.491864
v 0.133650 0.036475 1.491005
v -0.114930 1.070729 -0.000000
v 0.114010 1.070729 -0.000000
v 0.134010 1.090739 -0.000000
v 0.116010 1.090739 -0.000000
v 0.114010 1.090729 -0.000000
v -0.114930 1.090729 -0.000000
v 0.134010 0.896799 -0.000000
v 0.116010 0.896799 -0.000000
v -0.114930 1.090729 -0.000870
v -0.115284 0.230410 -1.491005
v 0.113656 0.230410 -1.491005
v 0.114010 1.090729 -0.000870
v 0.116010 1.090739 -0.000870
v 0.115643 0.230415 -1.491005
v 0.133650 0.230414 -1.491005
v 0.134010 1.090739 -0.000870
v 0.114010 1.070729 -0.000870
v -0.114930 1.070729 -0.000870
v 0.114656 0.211640 -1.490875
v 0.113656 0.210899 -1.491865
v 0.113656 0.210410 -1.491005
v -0.115284 0.210410 -1.491005
v -0.115284 0.210899 -1.491865
v -0.116284 0.211640 -1.490865
v -0.116284 0.229329 -1.490865
v -0.115284 0.228910 -1.491865
v 0.113656 0.228910 -1.491865
v 0.114656 0.229329 -1.490865
v 0.134010 0.896799 -0.000870
v 0.116010 0.896799 -0.000870
v 0.115643 0.036475 -1.491004
v 0.115643 0.036975 -1.491864
v 0.114643 0.037571 -1.491005
v 0.114653 0.229334 -1.490864
v 0.115643 0.228915 -1.491865
v 0.133653 0.228915 -1.491865
v 0.134643 0.229334 -1.490864
v 0.134643 0.037705 -1.490864
v 0.133653 0.036975 -1.491864
v 0.133650 0.036475 -1.491005
vn -0.0000 0.8660 0.5000
vn -0.0000 1.0000 -0.0000
vn 0.4472 0.8945 -0.0000
vn -0.4472 0.8945 -0.0000
vn 0.7497 -0.5751 0.3275
vn -0.7511 -0.5734 0.3272
vn -0.5496 0.4155 0.7247
vn 0.5500 0.4154 0.7245
vn -0.0000 0.4974 0.8675
vn 0.7073 -0.6123 -0.3533
vn 0.6542 -0.6551 -0.3780
vn -1.0000 -0.0000 -0.0002
vn 0.8321 -0.5547 -0.0000
vn -0.8321 -0.5547 -0.0000
vn 0.4471 0.8945 -0.0000
vn -0.4471 0.8945 -0.0000
vn -0.6877 -0.6276 0.3649
vn -0.5545 0.4142 0.7218
vn 0.5540 0.4152 0.7216
vn 0.7527 -0.5700 0.3295
vn -0.6886 -0.6279 -0.3627
vn -0.6538 -0.6553 -0.3784
vn -0.0000 -0.0000 1.0000
vn -0.0000 -0.8644 0.5028
vn -0.0000 -0.8660 -0.5000
vn 1.0000 -0.0000 0.0002
vn -0.6828 0.0003 0.7306
vn -0.0000 0.4975 0.8674
vn 0.7053 0.0002 0.7089
vn 0.6835 0.6320 0.3651
vn -0.0000 -0.8693 0.4943
vn -0.6857 0.6304 0.3638
vn 0.7108 -0.0000 0.7034
vn -0.0000 -1.0000 -0.0000
vn -0.7071 -0.0000 0.7071
vn -0.7053 -0.6138 -0.3546
vn 0.6850 0.6309 0.3644
vn -0.6537 -0.6553 -0.3785
vn -0.6838 0.6320 0.3648
vn 0.7078 -0.6119 -0.3530
vn 0.6540 -0.6552 -0.3781
vn -0.0000 0.8660 -0.5000
vn 0.4473 0.8944 -0.0000
vn -0.4473 0.8944 -0.0000
vn 0.7497 -0.5751 -0.3275
vn -0.7511 -0.5734 -0.3272
vn -0.5496 0.4155 -0.7247
vn 0.5500 0.4154 -0.7245
vn -0.0000 0.4974 -0.8675
vn 0.7073 -0.6123 0.3533
vn 0.6542 -0.6551 0.3780
vn -1.0000 -0.0000 0.0002
vn 0.4472 0.8944 -0.0000
vn -0.4472 0.8944 -0.0000
vn -0.6877 -0.6276 -0.3649
vn -0.5545 0.4142 -0.7218
vn 0.5540 0.4152 -0.7216
vn 0.7527 -0.5700 -0.3295
vn -0.6886 -0.6279 0.3627
vn -0.6538 -0.6553 0.3784
vn -0.0000 -0.0000 -1.0000
vn -0.0000 -0.8644 -0.5028
vn -0.0000 -0.8660 0.5000
vn 1.0000 -0.0000 -0.0002
vn -0.6828 0.0003 -0.7306
vn -0.0000 0.4976 -0.8674
vn 0.7053 0.0002 -0.7089
vn 0.6834 0.6321 -0.3652
vn -0.0000 -0.8693 -0.4943
vn -0.6857 0.6304 -0.3639
vn 0.7108 -0.0000 -0.7034
vn -0.7071 -0.0000 -0.7071
vn -0.7053 -0.6138 0.3546
vn 0.6850 0.6309 -0.3644
vn -0.6537 -0.6553 0.3785
vn -0.6838 0.6320 -0.3648
vn 0.7078 -0.6119 0.3530
vn 0.6540 -0.6552 0.3781
vt 0.537802 1.166393
vt 0.550007 0.639514
vt 0.479902 0.637908
vt 0.467702 1.164793
vt 1.002732 1.736676
vt 1.521767 1.753922
vt 1.521881 1.748496
vt 1.002812 1.731266
vt 1.002547 1.731241
vt 1.002487 1.736686
vt 0.042408 0.090087
vt 0.042673 0.090087
vt 0.042403 0.089747
vt 0.077969 0.080254
vt 0.077974 0.080604
vt 0.078234 0.080254
vt 0.049283 0.090042
vt 0.049785 0.090087
vt 0.049718 0.089798
vt 0.090009 0.023707
vt 0.090087 0.023415
vt 0.089629 0.023451
vt 0.035136 0.011854
vt 0.035561 0.011717
vt 0.035135 0.011389
vt 0.028023 0.026078
vt 0.028449 0.025765
vt 0.028022 0.025639
vt 1.074386 0.049785
vt 1.126091 0.002375
vt 1.125727 0.001981
vt 1.074029 0.049398
vt 1.006870 1.697364
vt 1.533607 1.720855
vt 1.533855 1.720431
vt 1.007350 1.696984
vt 1.134737 1.678078
vt 1.661635 1.658610
vt 1.658751 1.654013
vt 1.131797 1.673408
vt 0.042155 0.041529
vt 0.042673 0.042673
vt 0.042073 0.040624
vt 0.023107 0.033190
vt 0.023707 0.031140
vt 0.023186 0.032289
vt 1.002652 1.730886
vt 1.002532 1.737036
vt 0.045014 0.042673
vt 0.045044 0.042359
vt 0.044651 0.042278
vt 0.018562 0.090038
vt 0.018966 0.090087
vt 0.018875 0.089671
vt 0.028053 0.032706
vt 0.028057 0.033190
vt 0.028449 0.033013
vt 0.023707 0.037440
vt 0.023274 0.037630
vt 0.023368 0.037932
vt 0.388849 1.810786
vt 0.907985 1.825453
vt 0.907834 1.825034
vt 0.668745 1.811206
vt 1.187730 1.825453
vt 0.668305 1.810796
vt 0.437209 1.484535
vt 0.385778 1.532185
vt 0.389523 1.536225
vt 0.440954 1.488575
vt 0.006392 0.071122
vt 0.011854 0.070593
vt 0.011839 0.070355
vt 0.006376 0.070886
vt 0.126730 0.119715
vt 0.100680 0.646097
vt 0.170720 0.649577
vt 0.196770 0.123195
vt 0.720698 1.469845
vt 0.714708 0.950261
vt 0.664289 0.921917
vt 0.670194 1.441457
vt 0.140212 0.000818
vt 0.146585 0.059165
vt 0.146985 0.059268
vt 0.140632 0.000865
vt 0.028394 0.060574
vt 0.022981 0.061125
vt 0.023035 0.061639
vt 0.028449 0.061088
vt 0.020841 0.019017
vt 0.017874 0.023571
vt 0.018317 0.023707
vt 0.021336 0.019069
vt 1.003900 1.702014
vt 1.530692 1.725442
vt 1.004040 1.702424
vt 1.530544 1.725883
vt 1.272147 0.028099
vt 1.262280 0.547636
vt 1.312928 0.519624
vt 1.322861 0.000097
vt 1.002704 1.772859
vt 1.521841 1.787521
vt 1.522001 1.782091
vt 1.002864 1.767429
vt 0.056689 1.729964
vt 0.004187 1.777807
vt 0.004394 1.778039
vt 0.056897 1.730197
vt 1.521867 1.754332
vt 0.158838 0.059024
vt 0.152452 0.001755
vt 0.152050 0.001908
vt 0.158445 0.059268
vt 0.010398 0.064009
vt 0.059268 0.013719
vt 0.059078 0.013534
vt 0.010213 0.063824
vt 0.015550 0.004912
vt 0.018466 0.009483
vt 0.018966 0.009448
vt 0.015997 0.004794
vt 0.083129 1.371976
vt 0.089463 1.429543
vt 0.094829 1.428947
vt 0.088495 1.371380
vt 1.661873 1.659024
vt 1.135207 1.678468
vt 1.522001 1.748080
vt 1.531484 1.644858
vt 1.531336 1.644429
vt 1.004669 1.663834
vt 1.004529 1.664244
vt 0.008137 0.056897
vt 0.056897 0.006497
vt 0.056707 0.006312
vt 0.007947 0.056712
vt 1.773067 1.785151
vt 1.773297 1.784729
vt 1.253700 1.770451
vt 1.375017 1.818341
vt 0.855880 1.803674
vt 0.855420 1.804064
vt 0.004661 0.086597
vt 0.004661 0.090087
vt 0.004741 0.089187
vt 0.004741 0.087502
vt 1.182637 1.190100
vt 1.112537 1.188501
vt 1.124737 0.661615
vt 1.194842 0.663221
vt 0.054025 0.023662
vt 0.054460 0.023418
vt 0.054527 0.023707
vt 0.054449 0.030819
vt 0.054069 0.030563
vt 0.054527 0.030527
vt 0.061214 0.035561
vt 0.061213 0.035096
vt 0.061639 0.035424
vt 0.032764 0.028449
vt 0.032763 0.028010
vt 0.033190 0.028136
vt 0.000451 0.049785
vt 0.000094 0.049398
vt 0.051792 0.001981
vt 0.052156 0.002375
vt 0.075833 0.004741
vt 0.075470 0.004346
vt 0.075863 0.004427
vt 0.035157 0.054478
vt 0.035470 0.054111
vt 0.035561 0.054527
vt 0.032794 0.037448
vt 0.033190 0.037755
vt 0.032798 0.037932
vt 0.052156 0.037440
vt 0.051817 0.037932
vt 0.051723 0.037630
vt 0.590360 1.813157
vt 1.109345 1.827405
vt 1.109496 1.827824
vt 0.675857 1.813577
vt 0.675417 1.813167
vt 1.194842 1.827824
vt 0.515442 1.425267
vt 0.519187 1.429307
vt 0.467756 1.476957
vt 0.464011 1.472917
vt 0.006392 0.073492
vt 0.006376 0.073257
vt 0.011839 0.072725
vt 0.011854 0.072963
vt 0.050867 0.148163
vt 0.120907 0.151643
vt 0.094857 0.678025
vt 0.024817 0.674545
vt 0.142582 0.000818
vt 0.143002 0.000865
vt 0.149355 0.059268
vt 0.148955 0.059165
vt 0.021281 0.067686
vt 0.021336 0.068200
vt 0.015922 0.068751
vt 0.015868 0.068237
vt 0.023212 0.007164
vt 0.023707 0.007216
vt 0.020688 0.011854
vt 0.020245 0.011718
vt 1.002704 1.782341
vt 1.002864 1.776911
vt 1.522001 1.791574
vt 1.521841 1.797004
vt 0.056689 1.670696
vt 0.056897 1.670929
vt 0.004394 1.718771
vt 0.004187 1.718539
vt 0.161209 0.059024
vt 0.160816 0.059268
vt 0.154421 0.001908
vt 0.154823 0.001755
vt 0.008438 0.023878
vt 0.008885 0.023760
vt 0.011854 0.028414
vt 0.011354 0.028449
vt 0.305976 1.312708
vt 0.311342 1.312112
vt 0.317676 1.369679
vt 0.312310 1.370275
vt 1.725883 1.749170
vt 1.198928 1.768556
vt 1.199068 1.768146
vt 1.725735 1.748741
vt 1.614229 1.792263
vt 1.094862 1.777563
vt 1.614459 1.791841
vt 0.839234 1.825453
vt 0.319637 1.811176
vt 0.320097 1.810786
s 0
usemtl wood
f 1/1/1 2/2/1 3/3/1 4/4/1
f 5/5/1 6/6/1 7/7/1 8/8/1
f 43/9/2 44/10/2 5/5/2 8/8/2
f 45/11/3 4/12/3 9/13/3
f 46/14/4 12/15/4 1/16/4
f 15/17/5 16/18/5 17/19/5
f 18/20/6 19/21/6 20/22/6
f 21/23/7 22/24/7 2/25/7
f 3/26/8 23/27/8 24/28/8
f 3/29/9 2/30/9 22/31/9 23/32/9
f 11/33/10 15/34/10 17/35/10
f 11/33/11 17/35/11 10/36/11
f 14/37/12 20/38/12 21/39/12 12/40/12
f 47/41/13 25/42/13 26/43/13
f 27/44/14 28/45/14 48/46/14
f 43/9/15 8/8/15 29/47/15
f 5/5/16 44/10/16 30/48/16
f 31/49/17 32/50/17 33/51/17
f 34/52/18 35/53/18 6/54/18
f 7/55/19 36/56/19 37/57/19
f 38/58/20 39/59/20 40/60/20
f 27/61/21 31/62/21 33/63/21
f 27/64/22 33/65/22 28/66/22
f 19/67/23 16/68/23 23/69/23 22/70/23
f 31/71/24 40/72/24 39/73/24 32/74/24
f 10/75/25 17/76/25 18/77/25 13/78/25
f 29/79/26 37/80/26 38/81/26 25/82/26
f 34/83/27 33/84/27 32/85/27 35/86/27
f 7/87/28 6/88/28 35/89/28 36/90/28
f 15/91/29 24/92/29 23/93/29 16/94/29
f 9/95/26 24/96/26 15/34/26 11/33/26
f 4/97/30 3/98/30 24/96/30 9/95/30
f 28/99/12 33/100/12 34/101/12 30/102/12
f 26/103/25 40/104/25 31/105/25 27/106/25
f 18/107/31 17/108/31 16/109/31 19/110/31
f 30/48/32 34/111/32 6/6/32 5/5/32
f 38/112/33 37/113/33 36/114/33 39/115/33
f 10/116/34 13/117/34 41/118/34 42/119/34
f 21/120/35 20/121/35 19/122/35 22/123/35
f 35/124/23 32/125/23 39/126/23 36/127/23
f 18/128/36 20/38/36 13/129/36
f 7/7/37 37/130/37 29/47/37 8/8/37
f 20/38/38 14/37/38 13/129/38
f 21/131/39 2/132/39 1/133/39 12/134/39
f 1/135/2 4/136/2 45/137/2 46/138/2
f 38/139/40 40/140/40 25/141/40
f 40/142/41 26/143/41 25/144/41
f 26/145/34 27/146/34 48/147/34 47/148/34
f 49/149/42 52/150/42 51/151/42 50/152/42
f 53/5/42 56/8/42 55/7/42 54/6/42
f 43/9/2 56/8/2 53/5/2 44/10/2
f 45/11/43 9/13/43 52/12/43
f 46/14/44 49/16/44 12/15/44
f 59/153/45 61/154/45 60/155/45
f 62/156/46 64/157/46 63/158/46
f 65/159/47 50/160/47 66/161/47
f 51/162/48 68/163/48 67/164/48
f 51/165/49 67/166/49 66/167/49 50/168/49
f 11/33/50 61/35/50 59/34/50
f 11/33/51 57/36/51 61/35/51
f 14/37/52 12/40/52 65/39/52 64/38/52
f 47/41/13 69/43/13 25/42/13
f 70/44/14 48/46/14 28/45/14
f 43/9/53 29/47/53 56/8/53
f 53/5/54 30/48/54 44/10/54
f 71/169/55 73/170/55 72/171/55
f 74/172/56 54/173/56 75/174/56
f 55/175/57 77/176/57 76/177/57
f 78/178/58 80/179/58 79/180/58
f 70/181/59 73/182/59 71/183/59
f 70/184/60 28/185/60 73/186/60
f 63/187/61 66/188/61 67/189/61 60/190/61
f 71/191/62 72/192/62 79/193/62 80/194/62
f 57/195/63 58/196/63 62/197/63 61/198/63
f 29/79/64 25/82/64 78/81/64 77/80/64
f 74/199/65 75/200/65 72/201/65 73/202/65
f 55/203/66 76/204/66 75/205/66 54/206/66
f 59/207/67 60/208/67 67/209/67 68/210/67
f 9/95/64 11/33/64 59/34/64 68/96/64
f 52/97/68 9/95/68 68/96/68 51/98/68
f 28/99/52 30/102/52 74/101/52 73/100/52
f 69/211/63 70/212/63 71/213/63 80/214/63
f 62/215/69 63/216/69 60/217/69 61/218/69
f 30/48/70 53/5/70 54/6/70 74/111/70
f 78/219/71 79/220/71 76/221/71 77/222/71
f 57/116/34 42/119/34 41/118/34 58/117/34
f 65/223/72 66/224/72 63/225/72 64/226/72
f 75/227/61 76/228/61 79/229/61 72/230/61
f 62/128/73 58/129/73 64/38/73
f 55/7/74 56/8/74 29/47/74 77/130/74
f 64/38/75 58/129/75 14/37/75
f 65/231/76 12/232/76 49/233/76 50/234/76
f 49/135/2 46/138/2 45/137/2 52/136/2
f 78/235/77 25/236/77 80/237/77
f 80/238/78 25/239/78 69/240/78
f 69/145/34 47/148/34 48/147/34 70/146/34
