# Blender 4.0.2
# www.blender.org
mtllib zadeldak_roof_side_small_4000.mtl
o zadeldak_roof_side_small_4000
v -0.115196 0.207993 2.240844
v -0.115196 0.208487 2.241704
v -0.116196 0.209217 2.240704
v -0.116210 1.502733 -0.000020
v -0.116196 0.226907 2.240704
v -0.116210 1.520731 0.000020
v 0.133730 1.355292 -0.000850
v 0.133730 1.355292 0.000850
v 0.115730 1.355292 0.000880
v 0.115730 1.355292 -0.000880
v 0.113744 0.207987 2.240845
v 0.113744 0.208487 2.241704
v 0.133730 1.521231 0.000850
v 0.133730 1.521231 -0.000850
v 0.115730 1.521231 -0.000850
v 0.115730 1.521231 0.000850
v 0.115730 0.062047 -2.240844
v 0.133730 0.062047 -2.240845
v 0.114730 1.356792 -0.000020
v 0.114730 0.063277 -2.240704
v 0.134730 0.063277 -2.240704
v 0.133730 0.062547 -2.241704
v 0.133730 0.226486 -2.241704
v 0.134730 0.226907 -2.240704
v 0.134730 0.063277 2.240704
v 0.133730 0.062547 2.241704
v 0.133730 0.062047 2.240845
v 0.114730 0.063277 2.240704
v 0.114730 0.226907 2.240704
v 0.114730 1.520731 -0.000020
v 0.133730 0.227987 -2.240844
v 0.114730 0.226907 -2.240704
v 0.115730 0.227987 -2.240845
v 0.115730 0.226486 -2.241704
v 0.115730 0.062547 -2.241704
v 0.134730 1.520731 -0.000020
v 0.134730 1.356792 0.000020
v 0.114744 0.209217 2.240704
v -0.115196 0.227987 -2.240845
v -0.116196 0.226907 -2.240704
v -0.115210 1.521231 -0.000850
v 0.115730 0.062547 2.241704
v 0.115730 0.226487 2.241704
v 0.133730 0.227987 2.240844
v 0.133730 0.226487 2.241704
v 0.134730 0.226907 2.240704
v 0.115730 0.227987 2.240845
v 0.113730 1.501231 0.000850
v -0.115210 1.501231 0.000880
v 0.113744 0.227987 2.240844
v -0.115196 0.227987 2.240845
v -0.115196 0.226487 2.241704
v 0.113744 0.226487 2.241704
v 0.114730 1.502733 0.000020
v 0.114744 0.226907 2.240704
v 0.113730 1.521231 -0.000850
v 0.114730 1.520731 -0.000020
v 0.114744 0.226907 -2.240704
v 0.113744 0.227987 -2.240844
v 0.115730 0.062047 2.240844
v -0.116196 0.209216 -2.240704
v -0.115210 1.501231 -0.000880
v -0.115196 0.226486 -2.241704
v -0.115196 0.208487 -2.241704
v 0.114744 0.209216 -2.240704
v -0.115210 1.521231 0.000850
v 0.113730 1.521231 0.000850
v 0.113744 0.207986 -2.240845
v 0.113730 1.501231 -0.000850
v -0.115196 0.207993 -2.240844
v 0.113744 0.226486 -2.241704
v 0.113744 0.208487 -2.241704
vn -0.7491 -0.5744 0.3299
vn -1.0000 -0.0000 -0.0000
vn -0.0000 -1.0000 -0.0000
vn -0.0000 -0.8657 0.5005
vn -0.0000 1.0000 -0.0000
vn -0.0004 -0.8660 0.5000
vn -0.6560 -0.6537 0.3773
vn -0.7054 -0.6138 0.3544
vn 0.7071 -0.0000 -0.7071
vn 0.7500 -0.5717 0.3327
vn 0.7498 -0.5719 -0.3326
vn 0.5505 0.4155 -0.7241
vn -0.5508 0.4150 -0.7242
vn -0.7498 -0.5721 -0.3324
vn 0.4470 0.8945 -0.0000
vn -0.8321 -0.5547 -0.0000
vn 0.8321 -0.5547 -0.0000
vn -0.0000 -0.8644 -0.5028
vn 0.7502 -0.5714 0.3326
vn -0.6837 0.6320 -0.3649
vn -0.7071 -0.0000 0.7071
vn 0.5504 0.4153 0.7243
vn 1.0000 -0.0000 -0.0000
vn -0.0000 0.4972 -0.8676
vn -0.0000 0.8660 0.5000
vn -0.4470 0.8945 -0.0000
vn -0.0000 -0.8660 -0.5000
vn -0.0000 0.4972 0.8676
vn 0.7053 -0.6140 -0.3545
vn 0.6797 0.6352 -0.3668
vn -0.0000 -0.0000 1.0000
vn -0.6798 0.6351 -0.3667
vn 0.6630 -0.6483 -0.3743
vn 0.7071 -0.0000 0.7071
vn 0.6624 -0.6488 -0.3746
vn -0.0000 0.8660 -0.5000
vn -0.7071 -0.0000 -0.7071
vn -0.6837 0.6320 0.3649
vn 0.6538 -0.6553 0.3783
vn -0.0000 -0.8644 0.5028
vn -0.6565 -0.6533 0.3771
vn 0.7053 -0.6140 0.3544
vn 0.8324 -0.5542 -0.0000
vn -0.4471 0.8945 -0.0000
vn -0.8324 -0.5542 -0.0000
vn -0.7032 -0.6157 0.3555
vn -0.7054 -0.6138 -0.3544
vn -0.6473 -0.6602 -0.3811
vn -0.0004 -0.8660 -0.5000
vn 0.6836 0.6321 0.3649
vn 0.5504 0.4155 -0.7242
vn -0.6798 0.6351 0.3667
vn -0.5507 0.4148 0.7243
vn -0.7035 -0.6155 -0.3553
vn 0.6545 -0.6548 0.3780
vn -0.6477 -0.6599 -0.3809
vn -0.0000 0.4970 -0.8678
vn -0.7499 -0.5719 0.3325
vn -0.7491 -0.5745 -0.3298
vn 0.7052 -0.6141 -0.3545
vn 0.7501 -0.5717 -0.3323
vn -0.0000 -0.0000 -1.0000
vn -0.0000 -0.8660 0.5000
vn -0.0000 -0.8657 -0.5005
vn -0.0000 0.4971 0.8677
vt 0.033190 0.023401
vt 0.032698 0.023095
vt 0.032328 0.023707
vt 1.825453 0.005856
vt 1.822138 0.708845
vt 1.811323 0.698076
vt 1.814483 0.000736
vt 0.000111 0.109654
vt 0.000281 0.109224
vt 0.004741 0.111004
vt 0.004561 0.111424
vt 0.044720 0.073492
vt 0.073492 0.018008
vt 0.072901 0.017704
vt 0.044123 0.073200
vt 0.012135 0.042673
vt 0.011965 0.042243
vt 0.016425 0.040483
vt 0.016595 0.040913
vt 0.016007 1.364414
vt 0.025297 1.364714
vt 0.047089 0.678558
vt 0.037170 0.678244
vt 0.039017 1.365534
vt 0.061639 0.679206
vt 0.528493 1.300560
vt 0.528670 1.300726
vt 0.468031 1.311007
vt 0.467968 1.310823
vt 0.054116 0.002014
vt 0.054298 0.002371
vt 0.054527 0.002281
vt 1.108423 1.104123
vt 1.130833 0.417789
vt 1.091833 0.446822
vt 1.069353 1.133203
vt 0.009072 0.089730
vt 0.009483 0.089997
vt 0.009254 0.090087
vt 0.037932 0.092458
vt 0.037482 0.092457
vt 0.037520 0.092458
vt 0.051698 0.087717
vt 0.052156 0.087657
vt 0.051759 0.087717
vt 0.030819 0.025741
vt 0.030453 0.026078
vt 0.030590 0.025679
vt 0.037581 0.033190
vt 0.037551 0.032810
vt 0.037931 0.032870
vt 0.080474 0.068751
vt 0.080114 0.068451
vt 0.080604 0.068231
vt 0.045014 0.032730
vt 0.045044 0.033190
vt 0.044554 0.032990
vt 0.085346 0.063994
vt 0.085130 0.064009
vt 0.084707 0.059171
vt 0.084922 0.059156
vt 0.018455 0.037016
vt 0.018299 0.037748
vt 0.018966 0.037932
vt 1.741447 0.963310
vt 1.752926 0.967253
vt 1.755869 0.269854
vt 1.745029 0.273874
vt 0.116268 0.089681
vt 0.177659 0.090087
vt 0.177804 0.089891
vt 0.116298 0.089486
vt 0.056897 0.094829
vt 0.056485 0.094829
vt 0.056447 0.094828
vt 0.572211 1.356051
vt 0.535041 1.324591
vt 0.555566 0.638201
vt 0.592680 0.669615
vt 0.014224 0.082946
vt 0.013833 0.082975
vt 0.013467 0.078152
vt 0.013858 0.078123
vt 1.232176 1.279278
vt 1.253968 0.593126
vt 1.263535 0.593425
vt 1.242396 1.279598
vt 0.040012 0.044574
vt 0.039992 0.045044
vt 0.040302 0.044824
vt 1.712129 0.011883
vt 1.707156 0.706178
vt 1.740557 0.713536
vt 1.744849 0.020393
vt 0.051345 0.034180
vt 0.024603 0.089720
vt 0.025413 0.090087
vt 0.052156 0.034546
vt 0.112995 0.649792
vt 0.078116 1.335935
vt 0.098402 0.649535
vt 1.318119 0.629326
vt 1.303837 0.628986
vt 1.282698 1.315159
vt 1.297328 1.315749
vt 0.048403 1.785151
vt 0.109053 1.777951
vt 0.108483 1.773181
vt 0.047833 1.780381
vt 1.257838 1.314519
vt 1.272478 1.314839
vt 1.294270 0.628687
vt 1.280036 0.628132
vt 1.722979 0.000883
vt 0.007112 0.120223
vt 0.001680 0.116723
vt 0.001527 0.117345
vt 0.007054 0.120907
vt 1.069058 0.253667
vt 1.095272 0.198330
vt 1.089315 0.195800
vt 1.063135 0.251077
vt 0.091856 1.335965
vt 0.118639 0.077828
vt 0.118669 0.077633
vt 0.180175 0.078038
vt 0.180030 0.078234
vt 1.217536 1.278958
vt 1.239734 0.592571
vt 0.002267 1.364384
vt 1.778039 0.275614
vt 1.767249 0.268394
vt 1.762616 0.963662
vt 1.774074 0.964057
vt 0.045044 0.087702
vt 0.044620 0.082864
vt 0.044405 0.082879
vt 0.044828 0.087717
vt 0.303452 1.125772
vt 0.299035 1.821057
vt 0.287933 1.825453
vt 0.292722 1.126612
vt 1.355248 0.753888
vt 1.370275 0.064866
vt 1.358725 0.051096
vt 0.021470 0.000700
vt 0.021852 0.000127
vt 0.028449 0.001827
vt 0.027953 0.002371
vt 0.063487 0.087477
vt 0.089977 0.030647
vt 0.089967 0.030637
vt 0.063467 0.087467
vt 0.078234 0.960814
vt 0.062558 1.664244
vt 0.073623 1.659576
vt 0.090087 0.030397
vt 0.082865 0.025625
vt 0.082845 0.025615
vt 0.082975 0.025375
vt 0.063357 0.087717
vt 0.056235 0.082735
vt 0.056115 0.082975
vt 0.056225 0.082725
vt 1.761261 1.778039
vt 1.771376 1.777989
vt 1.775668 1.084846
vt 0.101146 1.336265
vt 0.122938 0.650109
vt 0.137502 0.650756
vt 0.114866 1.337085
vt 0.528493 1.241292
vt 0.467968 1.251555
vt 0.468031 1.251739
vt 0.528670 1.241458
vt 0.008978 0.009483
vt 0.008588 0.008721
vt 0.009483 0.008996
vt 1.002814 1.095882
vt 0.998849 1.784325
vt 0.987391 1.783931
vt 0.992024 1.088663
vt 0.025315 0.020848
vt 0.026078 0.020634
vt 0.026052 0.021336
vt 0.056134 0.027961
vt 0.056871 0.028449
vt 0.056897 0.027747
vt 0.035694 0.000700
vt 0.042177 0.002371
vt 0.042673 0.001827
vt 0.036076 0.000127
vt 0.966222 1.783578
vt 0.969804 1.094142
vt 0.980644 1.090122
vt 0.977701 1.787521
vt 0.023202 0.023707
vt 0.023707 0.023220
vt 0.022812 0.022945
vt 1.730442 0.713586
vt 0.089629 0.066380
vt 0.089690 0.066380
vt 0.090087 0.066320
vt 1.277817 0.593765
vt 1.257026 1.280188
vt 1.753798 1.065336
vt 1.742948 1.076336
vt 1.737975 1.770631
vt 1.601803 0.704103
vt 1.605280 0.001311
vt 1.616830 0.015081
vt 0.086906 0.029439
vt 0.087717 0.029805
vt 0.060974 0.085346
vt 0.060164 0.084979
vt 0.033190 0.032853
vt 0.032961 0.032791
vt 0.032824 0.033190
vt 0.061639 0.023401
vt 0.060777 0.023707
vt 0.061147 0.023095
vt 0.022553 0.677984
vt 0.464661 0.998746
vt 0.460050 1.697508
vt 0.448985 1.702176
vt 0.046903 0.037016
vt 0.047414 0.037932
vt 0.046747 0.037748
vt 1.066687 0.305823
vt 1.060764 0.303233
vt 1.086944 0.247956
vt 1.092901 0.250486
vt 0.033190 0.060955
vt 0.033132 0.061639
vt 0.027605 0.058077
vt 0.027758 0.057455
vt 0.047091 0.075863
vt 0.046494 0.075571
vt 0.075272 0.020075
vt 0.075863 0.020379
vt 0.074481 1.725883
vt 0.073911 1.721113
vt 0.134561 1.713913
vt 0.135131 1.718683
vt 0.016595 0.085317
vt 0.016229 0.080494
vt 0.015838 0.080523
vt 0.016204 0.085346
s 0
usemtl wood
f 1/1/1 2/2/1 3/3/1
f 4/4/2 3/5/2 5/6/2 6/7/2
f 7/8/3 8/9/3 9/10/3 10/11/3
f 1/12/4 11/13/4 12/14/4 2/15/4
f 13/16/5 14/17/5 15/18/5 16/19/5
f 7/20/6 10/21/6 17/22/6 18/23/6
f 10/21/7 19/24/7 20/25/7
f 10/21/8 20/25/8 17/22/8
f 21/26/9 22/27/9 23/28/9 24/29/9
f 25/30/10 26/31/10 27/32/10
f 19/33/2 28/34/2 29/35/2 30/36/2
f 21/37/11 18/38/11 22/39/11
f 31/40/12 24/41/12 23/42/12
f 32/43/13 33/44/13 34/45/13
f 17/46/14 20/47/14 35/48/14
f 13/49/15 36/50/15 14/51/15
f 10/52/16 9/53/16 19/54/16
f 8/55/17 7/56/17 37/57/17
f 17/58/18 35/59/18 22/60/18 18/61/18
f 38/62/19 12/63/19 11/64/19
f 19/33/2 30/36/2 32/35/2 20/34/2
f 39/65/20 40/66/20 6/67/20 41/68/20
f 29/69/21 28/70/21 42/71/21 43/72/21
f 44/73/22 45/74/22 46/75/22
f 36/76/23 37/77/23 21/78/23 24/79/23
f 31/80/24 23/81/24 34/82/24 33/83/24
f 16/84/25 47/85/25 44/86/25 13/87/25
f 16/88/26 15/89/26 30/90/26
f 48/91/27 11/92/27 1/93/27 49/94/27
f 50/95/28 51/96/28 52/97/28 53/98/28
f 27/99/29 37/100/29 25/101/29
f 24/102/30 31/103/30 14/104/30 36/105/30
f 43/106/31 42/107/31 26/108/31 45/109/31
f 30/110/32 15/111/32 33/112/32 32/113/32
f 54/114/33 11/92/33 48/91/33
f 38/115/34 55/116/34 53/117/34 12/118/34
f 2/119/31 12/120/31 53/121/31 52/122/31
f 27/99/35 8/123/35 37/100/35
f 15/111/36 14/104/36 31/103/36 33/112/36
f 32/124/37 34/125/37 35/126/37 20/127/37
f 30/128/38 29/129/38 47/85/38 16/84/38
f 18/23/39 37/130/39 7/20/39
f 56/131/30 57/132/30 58/133/30 59/134/30
f 60/135/40 27/136/40 26/137/40 42/138/40
f 57/139/23 55/140/23 38/141/23 54/142/23
f 61/143/41 62/144/41 4/145/41
f 40/146/37 63/147/37 64/148/37 61/149/37
f 41/68/36 56/131/36 59/134/36 39/65/36
f 57/139/23 54/142/23 65/141/23 58/140/23
f 66/150/5 67/151/5 56/152/5 41/153/5
f 54/154/42 68/155/42 65/156/42
f 56/152/15 67/151/15 57/157/15
f 48/158/43 69/159/43 54/160/43
f 41/153/44 6/161/44 66/150/44
f 49/162/45 4/163/45 62/164/45
f 61/165/46 70/166/46 62/167/46
f 9/168/47 60/169/47 28/170/47
f 9/168/48 28/170/48 19/171/48
f 8/123/49 27/99/49 60/169/49 9/168/49
f 25/172/34 46/173/34 45/174/34 26/175/34
f 40/176/13 39/177/13 63/178/13
f 67/179/50 50/180/50 55/181/50 57/182/50
f 59/183/51 58/184/51 71/185/51
f 50/186/22 53/187/22 55/188/22
f 5/189/21 3/190/21 2/191/21 52/192/21
f 51/193/52 66/194/52 6/195/52 5/196/52
f 5/197/53 52/198/53 51/199/53
f 3/200/54 49/94/54 1/93/54
f 29/201/53 43/202/53 47/203/53
f 46/204/50 36/205/50 13/87/50 44/86/50
f 54/206/55 69/207/55 68/208/55
f 3/209/56 4/210/56 49/211/56
f 59/212/57 71/213/57 63/214/57 39/215/57
f 60/216/58 42/217/58 28/218/58
f 70/219/59 61/220/59 64/221/59
f 18/23/42 21/222/42 37/130/42
f 66/194/25 51/193/25 50/180/25 67/179/25
f 54/223/60 38/224/60 11/225/60
f 65/226/61 68/227/61 72/228/61
f 48/158/3 49/162/3 62/164/3 69/159/3
f 64/229/62 63/230/62 71/231/62 72/232/62
f 69/207/63 62/167/63 70/166/63 68/208/63
f 65/233/9 72/234/9 71/235/9 58/236/9
f 70/237/64 64/238/64 72/239/64 68/240/64
f 4/4/2 6/7/2 40/6/2 61/5/2
f 34/241/62 23/242/62 22/243/62 35/244/62
f 36/76/23 46/79/23 25/78/23 37/77/23
f 44/245/65 47/246/65 43/247/65 45/248/65
