# Blender 4.0.2
# www.blender.org
mtllib roof_tri_window_3000_glass.mtl
o roof_tri_window_3000_glass
v 0.024000 0.242571 1.145900
v 0.020000 0.244000 1.137974
v 0.024000 0.240000 1.144964
v 0.024000 1.081953 0.145564
v 0.024000 1.080524 0.142500
v 0.020000 1.075946 0.146500
v 0.024000 0.244000 0.142500
v 0.024000 0.240000 0.146500
v 0.020000 0.244000 0.146500
v 0.036000 0.242571 1.145900
v 0.036000 0.240000 1.144964
v 0.040000 0.244000 1.137974
v 0.036000 1.081953 0.145564
v 0.040000 1.075946 0.146500
v 0.036000 1.080524 0.142500
v 0.036000 0.244000 0.142500
v 0.040000 0.244000 0.146500
v 0.036000 0.240000 0.146500
v 0.036000 0.242571 -1.145900
v 0.040000 0.244000 -1.137974
v 0.036000 0.240000 -1.144964
v 0.036000 1.081953 -0.145564
v 0.036000 1.080524 -0.142500
v 0.040000 1.075946 -0.146500
v 0.036000 0.244000 -0.142500
v 0.036000 0.240000 -0.146500
v 0.040000 0.244000 -0.146500
v 0.024000 0.242571 -1.145900
v 0.024000 0.240000 -1.144964
v 0.020000 0.244000 -1.137974
v 0.024000 1.081953 -0.145564
v 0.020000 1.075946 -0.146500
v 0.024000 1.080524 -0.142500
v 0.024000 0.244000 -0.142500
v 0.020000 0.244000 -0.146500
v 0.024000 0.240000 -0.146500
vn -0.0000 -1.0000 -0.0000
vn -0.0000 0.7660 -0.6428
vn -0.0000 -0.0000 -1.0000
vn 1.0000 -0.0000 -0.0000
vn -1.0000 -0.0000 -0.0000
vn -0.0000 -0.0000 1.0000
vn -0.8930 -0.1539 0.4229
vn -0.8250 0.5122 -0.2388
vn -0.5773 -0.5773 -0.5774
vn 0.8930 -0.1539 0.4229
vn 0.8250 0.5122 -0.2388
vn 0.5773 -0.5773 -0.5774
vn 0.8930 -0.1539 -0.4229
vn 0.8250 0.5122 0.2388
vn 0.5773 -0.5773 0.5774
vn -0.8930 -0.1539 -0.4229
vn -0.8250 0.5122 0.2388
vn -0.5773 -0.5773 0.5774
vn -0.7071 0.5417 0.4545
vn -0.7071 -0.0000 -0.7071
vn -0.7071 -0.7071 -0.0000
vn 0.7071 0.5417 0.4545
vn 0.7071 -0.0000 -0.7071
vn 0.7071 -0.7071 -0.0000
vn -0.0000 -0.7071 -0.7071
vn -0.0000 -0.3420 0.9397
vn -0.0000 0.9063 -0.4226
vn 0.7071 0.5417 -0.4545
vn 0.7071 -0.0000 0.7071
vn -0.7071 0.5417 -0.4545
vn -0.7071 -0.0000 0.7071
vn -0.0000 -0.7071 0.7071
vn -0.0000 -0.3420 -0.9397
vn -0.0000 0.9063 0.4226
vn -0.0000 0.7660 0.6428
vt 0.819669 0.295689
vt 0.819669 0.856985
vt 0.812923 0.856985
vt 0.812923 0.295689
vt 0.799224 0.857429
vt 0.799224 0.295163
vt 0.805970 0.295163
vt 0.805970 0.857428
vt 0.297512 0.716929
vt 0.297512 0.246670
vt 0.304258 0.246670
vt 0.304258 0.716929
vt 0.002857 0.574301
vt 0.002857 0.016935
vt 0.470543 0.016935
vt 0.400109 0.353971
vt 0.646276 0.647341
vt 0.400109 0.647341
vt 0.819669 0.295689
vt 0.819669 0.856985
vt 0.812923 0.856985
vt 0.812923 0.295689
vt 0.297512 0.246670
vt 0.304258 0.716929
vt 0.399686 0.351626
vt 0.398926 0.351903
vt 0.297512 0.245867
vt 0.295264 0.249243
vt 0.297512 0.719178
vt 0.295264 0.716929
vt 0.812923 0.295163
vt 0.810675 0.299619
vt 0.473920 0.016409
vt 0.473117 0.014686
vt 0.306507 0.716929
vt 0.304258 0.719178
vt 0.297512 0.245867
vt 0.819669 0.859234
vt 0.821918 0.856985
vt 0.002857 0.014686
vt 0.000608 0.016935
vt 0.648053 0.647618
vt 0.295264 0.716929
vt 0.821918 0.299619
vt 0.002054 0.578757
vt 0.306507 0.249243
vt 0.810675 0.856985
vt 0.812923 0.293441
vt 0.819669 0.293441
vt 0.297512 0.244421
vt 0.304258 0.244421
vt 0.647631 0.648525
vt 0.400109 0.648525
vt 0.398926 0.647341
vt 0.002857 0.014686
vt 0.000608 0.578231
vt 0.812923 0.859234
vt 0.297512 0.244421
vt 0.304258 0.244421
vt 0.799224 0.857429
vt 0.799224 0.295163
vt 0.805970 0.295163
vt 0.805970 0.857429
s 0
usemtl glass
f 3/1/1 8/2/1 18/3/1 11/4/1
f 22/5/2 19/6/2 28/7/2 31/8/2
f 7/9/3 5/10/3 15/11/3 16/12/3
f 12/13/4 17/14/4 14/15/4
f 2/16/5 6/17/5 9/18/5
f 21/19/1 26/20/1 36/21/1 29/22/1
f 25/9/6 23/23/6 33/11/6 34/24/6
f 30/13/5 35/14/5 32/15/5
f 20/16/4 24/17/4 27/18/4
f 1/25/7 2/16/7 3/26/7
f 4/27/8 5/10/8 6/28/8
f 7/9/9 8/29/9 9/30/9
f 10/31/10 11/4/10 12/32/10
f 13/33/11 14/15/11 15/34/11
f 16/12/12 17/35/12 18/36/12
f 19/25/13 20/16/13 21/26/13
f 22/37/14 23/23/14 24/28/14
f 25/38/15 26/20/15 27/39/15
f 28/31/16 29/22/16 30/32/16
f 31/33/17 32/15/17 33/34/17
f 34/40/18 35/14/18 36/41/18
f 1/25/19 4/42/19 6/17/19 2/16/19
f 5/10/20 7/9/20 9/43/20 6/28/20
f 8/2/21 3/1/21 2/44/21 9/39/21
f 12/13/22 14/15/22 13/33/22 10/45/22
f 14/46/23 17/35/23 16/12/23 15/11/23
f 17/47/24 12/32/24 11/4/24 18/3/24
f 7/9/25 16/12/25 18/36/25 8/29/25
f 10/48/26 1/49/26 3/1/26 11/4/26
f 4/50/27 13/51/27 15/11/27 5/10/27
f 19/25/28 22/42/28 24/17/28 20/16/28
f 23/52/29 25/53/29 27/18/29 24/17/29
f 26/54/24 21/26/24 20/16/24 27/18/24
f 30/13/30 32/15/30 31/33/30 28/45/30
f 32/15/31 35/14/31 34/55/31 33/34/31
f 35/14/21 30/13/21 29/56/21 36/41/21
f 25/38/32 34/57/32 36/21/32 26/20/32
f 28/48/33 19/49/33 21/19/33 29/22/33
f 22/58/34 31/59/34 33/11/34 23/23/34
f 4/60/35 1/61/35 10/62/35 13/63/35
