# Blender 4.0.2
# www.blender.org
mtllib isolated_plate_rarter_4000.mtl
o isolated_plate_rarter_4000
v 0.000000 1.777652 0.000000
v 0.000000 0.200000 1.880181
v 0.000000 0.200000 1.561261
v 0.000000 1.510042 0.000000
v 0.200000 0.200000 1.880181
v 0.200000 0.200000 1.561261
v 0.200000 1.777652 0.000000
v 0.200000 1.510042 0.000000
v 0.200000 1.777652 0.000000
v 0.199999 0.200000 -1.880181
v 0.200000 0.200000 -1.561261
v 0.200000 1.510042 0.000000
v -0.000001 0.200000 -1.880181
v 0.000000 0.200000 -1.561261
v 0.000000 1.777652 0.000000
v 0.000000 1.510042 0.000000
vn -1.0000 -0.0000 -0.0000
vn 1.0000 -0.0000 -0.0000
vn -0.0000 0.7660 0.6428
vn -0.0000 -0.0000 -1.0000
vn -0.0000 -0.7660 -0.6428
vn -0.0000 -1.0000 -0.0000
vn -0.0000 0.7660 -0.6428
vn -0.0000 -0.0000 1.0000
vn -0.0000 -0.7660 0.6428
vt -0.043153 0.261845
vt -0.119155 0.325618
vt 0.644384 0.325619
vt 0.590871 0.261845
vt -0.043897 0.060154
vt 0.601064 0.060155
vt 0.655499 -0.004719
vt -0.121210 -0.004719
vt -0.118418 0.289509
vt -0.118418 0.351727
vt 0.634030 0.351727
vt 0.634030 0.289510
vt 0.644384 0.289309
vt 0.644384 0.227091
vt 0.590872 0.227091
vt 0.590872 0.289309
vt 0.577656 0.289309
vt 0.577656 0.227091
vt -0.041963 0.227091
vt -0.041963 0.289309
vt -0.043153 0.289309
vt -0.043153 0.227091
vt -0.119155 0.227091
vt -0.119155 0.289309
s 0
usemtl wood
f 3/1/1 2/2/1 1/3/1 4/4/1
f 6/5/2 8/6/2 7/7/2 5/8/2
f 2/9/3 5/10/3 7/11/3 1/12/3
f 1/13/4 7/14/4 8/15/4 4/16/4
f 4/17/5 8/18/5 6/19/5 3/20/5
f 3/21/6 6/22/6 5/23/6 2/24/6
f 11/1/2 10/2/2 9/3/2 12/4/2
f 14/5/1 16/6/1 15/7/1 13/8/1
f 10/9/7 13/10/7 15/11/7 9/12/7
f 9/13/8 15/14/8 16/15/8 12/16/8
f 12/17/9 16/18/9 14/19/9 11/20/9
f 11/21/6 14/22/6 13/23/6 10/24/6
