# Blender 4.0.2
# www.blender.org
mtllib gutter_bracket.mtl
o gutter_bracket
v -0.015000 2.386726 0.167007
v -0.015000 2.385025 0.169948
v -0.015000 2.382395 0.171983
v -0.015000 2.387281 0.163789
v -0.015000 2.387281 0.158873
v -0.015000 2.308104 0.068434
v -0.015000 2.313028 0.104721
v -0.015000 2.367856 0.164059
v -0.015000 2.368355 0.167004
v -0.015000 2.370058 0.169949
v -0.015000 2.372689 0.171983
v -0.015000 2.375669 0.172670
v -0.015000 2.379415 0.172670
v 0.015000 2.386726 0.167007
v 0.015000 2.385025 0.169948
v 0.015000 2.382395 0.171983
v 0.015000 2.387281 0.163789
v 0.015000 2.387281 0.158873
v 0.015000 2.308104 0.068434
v 0.015000 2.313028 0.104721
v 0.015000 2.367856 0.164059
v 0.015000 2.368355 0.167004
v 0.015000 2.370058 0.169949
v 0.015000 2.372689 0.171983
v 0.015000 2.375669 0.172670
v 0.015000 2.379415 0.172670
v -0.015000 2.366022 0.157604
v -0.015000 2.352954 0.145158
v -0.015000 2.362148 0.150605
v 0.015000 2.352954 0.145158
v 0.015000 2.366022 0.157604
v 0.015000 2.362148 0.150605
v -0.015000 2.363293 0.000000
v 0.015000 2.363293 0.000000
v -0.015000 2.313035 0.000000
v -0.015000 2.308104 0.004931
v -0.015000 2.309549 0.001444
v 0.015000 2.308104 0.004931
v 0.015000 2.313035 0.000000
v 0.015000 2.309549 0.001444
v -0.015000 2.326815 0.125743
v -0.015000 2.341516 0.139117
v 0.015000 2.341516 0.139117
v 0.015000 2.326815 0.125743
v -0.015000 2.384816 0.166315
v -0.015000 2.383491 0.168607
v -0.015000 2.381518 0.170132
v -0.015000 2.385281 0.163617
v -0.015000 2.385281 0.158873
v -0.015000 2.310104 0.068299
v -0.015000 2.314949 0.104003
v -0.015000 2.369810 0.163617
v -0.015000 2.370267 0.166315
v -0.015000 2.371592 0.168607
v -0.015000 2.373565 0.170132
v -0.015000 2.375896 0.170670
v -0.015000 2.379187 0.170670
v 0.015000 2.384816 0.166315
v 0.015000 2.383491 0.168607
v 0.015000 2.381518 0.170132
v 0.015000 2.385281 0.163617
v 0.015000 2.385281 0.158873
v 0.015000 2.310104 0.068299
v 0.015000 2.314949 0.104003
v 0.015000 2.369810 0.163617
v 0.015000 2.370267 0.166315
v 0.015000 2.371592 0.168607
v 0.015000 2.373565 0.170132
v 0.015000 2.375896 0.170670
v 0.015000 2.379187 0.170670
v -0.015000 2.367883 0.156836
v -0.015000 2.353932 0.143413
v -0.015000 2.363635 0.149162
v 0.015000 2.353932 0.143413
v 0.015000 2.367883 0.156836
v 0.015000 2.363635 0.149162
v -0.015000 2.363293 0.002000
v 0.015000 2.363293 0.002000
v -0.015000 2.313433 0.002000
v -0.015000 2.310104 0.005329
v -0.015000 2.311080 0.002975
v 0.015000 2.310104 0.005329
v 0.015000 2.313433 0.002000
v 0.015000 2.311080 0.002975
v -0.015000 2.328348 0.124434
v -0.015000 2.342675 0.137467
v 0.015000 2.342675 0.137467
v 0.015000 2.328348 0.124434
vn -0.0000 0.7528 0.6582
vn -0.0000 0.4282 0.9037
vn -0.0000 0.9964 0.0853
vn -0.0000 1.0000 -0.0000
vn -0.0000 0.1131 0.9936
vn -0.0000 -0.9244 0.3813
vn -0.0000 -0.9754 0.2205
vn -0.0000 -0.5746 0.8185
vn -0.0000 -0.4885 0.8725
vn -0.0000 -0.4282 0.9037
vn -0.0000 -0.1131 0.9936
vn -0.0000 -0.1951 -0.9808
vn -0.0000 -0.0000 -1.0000
vn -0.0000 0.9402 0.3406
vn -0.0000 -0.9407 0.3392
vn -0.0000 -0.9977 0.0674
vn -0.0000 -0.9367 0.3501
vn -0.0000 -0.7528 0.6582
vn -0.0000 -0.8749 0.4843
vn -0.0000 -0.5097 0.8603
vn -0.0000 -0.9808 -0.1951
vn -0.0000 -0.9238 -0.3828
vn -0.0000 -0.3827 -0.9239
vn -0.0000 -0.7606 0.6492
vn -0.0000 -0.7528 -0.6582
vn -0.0000 -0.4282 -0.9037
vn -0.0000 -0.9964 -0.0852
vn -0.0000 -1.0000 -0.0000
vn -0.0000 -0.1131 -0.9936
vn -0.0000 0.9245 -0.3813
vn -0.0000 0.9754 -0.2205
vn -0.0000 0.5746 -0.8185
vn -0.0000 0.4885 -0.8725
vn -0.0000 0.4282 -0.9037
vn -0.0000 0.1131 -0.9936
vn -0.0000 0.1951 0.9808
vn -0.0000 -0.0000 1.0000
vn -0.0000 -0.9402 -0.3405
vn -0.0000 0.9407 -0.3392
vn -0.0000 0.9977 -0.0674
vn -0.0000 0.9367 -0.3501
vn -0.0000 0.7528 -0.6582
vn -0.0000 0.8749 -0.4843
vn -0.0000 0.5097 -0.8603
vn -0.0000 0.9808 0.1951
vn -0.0000 0.9239 0.3827
vn -0.0000 0.3827 0.9239
vn -0.0000 0.7606 -0.6492
vn -1.0000 -0.0000 -0.0000
vn 1.0000 -0.0000 -0.0000
vt 0.090245 0.136639
vt 0.090871 0.136639
vt 0.090871 0.146337
vt 0.090245 0.146337
vt 0.088542 0.136639
vt 0.088542 0.146337
vt 0.087049 0.146337
vt 0.087049 0.136639
vt 0.086156 0.133627
vt 0.086853 0.133627
vt 0.086853 0.143262
vt 0.086156 0.143262
vt 0.141671 0.095801
vt 0.141671 0.105337
vt 0.139442 0.105337
vt 0.139442 0.095801
vt 0.134541 0.144174
vt 0.124716 0.144174
vt 0.124716 0.140168
vt 0.134541 0.140168
vt 0.088656 0.133627
vt 0.088656 0.143262
vt 0.087888 0.143262
vt 0.087888 0.133627
vt 0.146283 0.040310
vt 0.136806 0.040310
vt 0.136806 0.024862
vt 0.146283 0.024862
vt 0.089425 0.136639
vt 0.089425 0.146337
vt 0.138572 0.105337
vt 0.138572 0.095801
vt 0.089757 0.115112
vt 0.080243 0.115112
vt 0.080243 0.103696
vt 0.089757 0.103696
vt 0.137781 0.105337
vt 0.137781 0.095801
vt 0.089376 0.133627
vt 0.089376 0.143262
vt 0.144310 0.095801
vt 0.144310 0.105337
vt 0.134541 0.136674
vt 0.124716 0.136674
vt 0.080243 0.134772
vt 0.089757 0.134772
vt 0.089757 0.135453
vt 0.080243 0.135453
vt 0.146283 0.041099
vt 0.136806 0.041099
vt 0.134541 0.149637
vt 0.124716 0.149637
vt 0.080243 0.096572
vt 0.089757 0.096572
s 1
usemtl zinc_black
f 2/1/1 3/2/2 16/3/2 15/4/1
f 4/5/3 17/6/3 18/7/4 5/8/4
f 3/9/2 13/10/5 26/11/5 16/12/2
f 27/13/6 31/14/6 21/15/7 8/16/7
f 42/17/8 43/18/8 30/19/9 28/20/9
f 11/21/10 24/22/10 25/23/11 12/24/11
f 39/25/12 35/26/12 33/27/13 34/28/13
f 1/29/14 2/1/1 15/4/1 14/30/14
f 8/16/7 21/15/7 22/31/15 9/32/15
f 1/29/14 14/30/14 17/6/3 4/5/3
f 6/33/16 19/34/16 20/35/17 7/36/17
f 12/24/11 25/23/11 26/11/5 13/10/5
f 9/32/15 22/31/15 23/37/18 10/38/18
f 10/39/18 23/40/18 24/22/10 11/21/10
f 27/13/6 29/41/19 32/42/19 31/14/6
f 29/43/20 28/20/9 30/19/9 32/44/20
f 38/45/21 36/46/21 37/47/22 40/48/22
f 40/49/23 37/50/23 35/26/12 39/25/12
f 36/46/21 38/45/21 19/34/16 6/33/16
f 43/18/8 42/17/8 41/51/24 44/52/24
f 7/36/17 20/35/17 44/53/24 41/54/24
f 46/1/25 59/4/25 60/3/26 47/2/26
f 48/5/27 49/8/28 62/7/28 61/6/27
f 47/9/26 60/12/26 70/11/29 57/10/29
f 71/13/30 52/16/31 65/15/31 75/14/30
f 86/17/32 72/20/33 74/19/33 87/18/32
f 55/21/34 56/24/35 69/23/35 68/22/34
f 83/25/36 78/28/37 77/27/37 79/26/36
f 45/29/38 58/30/38 59/4/25 46/1/25
f 52/16/31 53/32/39 66/31/39 65/15/31
f 45/29/38 48/5/27 61/6/27 58/30/38
f 50/33/40 51/36/41 64/35/41 63/34/40
f 56/24/35 57/10/29 70/11/29 69/23/35
f 53/32/39 54/38/42 67/37/42 66/31/39
f 54/39/42 55/21/34 68/22/34 67/40/42
f 71/13/30 75/14/30 76/42/43 73/41/43
f 73/43/44 76/44/44 74/19/33 72/20/33
f 82/45/45 84/48/46 81/47/46 80/46/45
f 84/49/47 83/25/36 79/26/36 81/50/47
f 80/46/45 50/33/40 63/34/40 82/45/45
f 87/18/32 88/52/48 85/51/48 86/17/32
f 51/36/41 85/54/48 88/53/48 64/35/41
f 10/39/49 11/21/49 55/21/49 54/39/49
f 4/5/49 5/8/49 49/8/49 48/5/49
f 11/21/49 12/24/49 56/24/49 55/21/49
f 2/1/49 1/29/49 45/29/49 46/1/49
f 1/29/49 4/5/49 48/5/49 45/29/49
f 12/24/49 13/10/49 57/10/49 56/24/49
f 9/32/49 10/38/49 54/38/49 53/32/49
f 3/2/49 2/1/49 46/1/49 47/2/49
f 13/10/49 3/9/49 47/9/49 57/10/49
f 8/16/49 9/32/49 53/32/49 52/16/49
f 6/33/49 7/36/49 51/36/49 50/33/49
f 24/22/50 23/40/50 67/40/50 68/22/50
f 18/7/50 17/6/50 61/6/50 62/7/50
f 25/23/50 24/22/50 68/22/50 69/23/50
f 14/30/50 15/4/50 59/4/50 58/30/50
f 17/6/50 14/30/50 58/30/50 61/6/50
f 26/11/50 25/23/50 69/23/50 70/11/50
f 23/37/50 22/31/50 66/31/50 67/37/50
f 15/4/50 16/3/50 60/3/50 59/4/50
f 16/12/50 26/11/50 70/11/50 60/12/50
f 22/31/50 21/15/50 65/15/50 66/31/50
f 20/35/50 19/34/50 63/34/50 64/35/50
f 5/8/13 18/7/13 62/7/13 49/8/13
f 29/41/49 27/13/49 71/13/49 73/41/49
f 31/14/50 32/42/50 76/42/50 75/14/50
f 28/20/49 29/43/49 73/43/49 72/20/49
f 32/44/50 30/19/50 74/19/50 76/44/50
f 27/13/49 8/16/49 52/16/49 71/13/49
f 21/15/50 31/14/50 75/14/50 65/15/50
f 34/28/4 33/27/4 77/27/4 78/28/4
f 38/45/50 40/48/50 84/48/50 82/45/50
f 37/47/49 36/46/49 80/46/49 81/47/49
f 40/49/50 39/25/50 83/25/50 84/49/50
f 35/26/49 37/50/49 81/50/49 79/26/49
f 36/46/49 6/33/49 50/33/49 80/46/49
f 19/34/50 38/45/50 82/45/50 63/34/50
f 39/25/50 34/28/50 78/28/50 83/25/50
f 33/27/49 35/26/49 79/26/49 77/27/49
f 43/18/50 44/52/50 88/52/50 87/18/50
f 41/51/49 42/17/49 86/17/49 85/51/49
f 7/36/49 41/54/49 85/54/49 51/36/49
f 44/53/50 20/35/50 64/35/50 88/53/50
f 42/17/49 28/20/49 72/20/49 86/17/49
f 30/19/50 43/18/50 87/18/50 74/19/50
