# Blender 4.0.2
# www.blender.org
mtllib window_800x1200_frame.mtl
o window_800x1200_frame
v 0.109609 0.628100 -0.018010
v 0.107614 0.629947 -0.017863
v 0.107614 0.627942 -0.015857
v 0.107614 0.600258 -0.015857
v 0.107614 0.598253 -0.017863
v 0.109609 0.600100 -0.018010
v 0.107633 0.598243 -0.348000
v 0.107626 0.600250 -0.350000
v 0.109626 0.600090 -0.348000
v 0.107614 0.629947 -0.348000
v 0.109610 0.628100 -0.348000
v 0.107610 0.627940 -0.350000
v 0.084015 0.626137 -0.014043
v 0.084014 0.628142 -0.016049
v 0.082021 0.625990 -0.015890
v 0.084020 0.626128 -0.350000
v 0.082020 0.625980 -0.348000
v 0.084014 0.628133 -0.348000
v 0.084021 0.600057 -0.016049
v 0.084021 0.602063 -0.014043
v 0.082026 0.602210 -0.015890
v 0.084021 0.600057 -0.348000
v 0.082026 0.602210 -0.348000
v 0.084026 0.602062 -0.350000
v 0.109609 0.628100 0.018010
v 0.107614 0.627942 0.015857
v 0.107614 0.629947 0.017863
v 0.107614 0.600258 0.015857
v 0.109609 0.600100 0.018010
v 0.107614 0.598252 0.017863
v 0.107633 0.598243 0.348000
v 0.109626 0.600090 0.348000
v 0.107626 0.600250 0.350000
v 0.107614 0.629947 0.348000
v 0.107610 0.627940 0.350000
v 0.109610 0.628100 0.348000
v 0.084015 0.626137 0.014043
v 0.082021 0.625990 0.015890
v 0.084014 0.628142 0.016049
v 0.084021 0.626128 0.350000
v 0.084014 0.628133 0.348000
v 0.082021 0.625980 0.348000
v 0.084021 0.600057 0.016049
v 0.082026 0.602210 0.015890
v 0.084021 0.602063 0.014043
v 0.084021 0.600057 0.348000
v 0.084027 0.602062 0.350000
v 0.082027 0.602210 0.348000
v 0.109626 0.072000 0.014000
v 0.107633 0.072000 0.015847
v 0.107626 0.070000 0.013840
v 0.107610 0.070000 -0.013851
v 0.107614 0.072000 -0.015857
v 0.109610 0.072000 -0.014010
v 0.109610 1.168000 -0.014010
v 0.107614 1.168000 -0.015857
v 0.107610 1.170000 -0.013851
v 0.107633 1.168000 0.015847
v 0.109626 1.168000 0.014000
v 0.107626 1.170000 0.013840
v 0.084026 0.070000 0.012028
v 0.084021 0.072000 0.014033
v 0.082026 0.072000 0.011880
v 0.082026 1.168000 0.011880
v 0.084021 1.168000 0.014033
v 0.084026 1.170000 0.012028
v 0.084021 0.070000 -0.012038
v 0.082021 0.072000 -0.011890
v 0.084014 0.072000 -0.014043
v 0.084014 1.168000 -0.014043
v 0.082021 1.168000 -0.011890
v 0.084021 1.170000 -0.012038
v 0.033000 0.022000 -0.400000
v 0.031000 0.022000 -0.398000
v 0.033000 0.020000 -0.398000
v 0.033000 0.020000 0.398000
v 0.031000 0.022000 0.398000
v 0.033000 0.022000 0.400000
v 0.033000 1.218000 -0.400000
v 0.033000 1.220000 -0.398000
v 0.031000 1.218000 -0.398000
v 0.033000 1.218000 0.400000
v 0.031000 1.218000 0.398000
v 0.033000 1.220000 0.398000
v 0.033000 1.168000 -0.350000
v 0.031000 1.172000 -0.352000
v 0.033000 1.170000 -0.348000
v 0.033000 0.072000 -0.350000
v 0.033000 0.070000 -0.348000
v 0.031000 0.068000 -0.352000
v 0.033000 0.070000 0.348000
v 0.033000 0.072000 0.350000
v 0.031000 0.068000 0.352000
v 0.033000 1.168000 0.350000
v 0.033000 1.170000 0.348000
v 0.031000 1.172000 0.352000
v 0.143000 1.218000 -0.400000
v 0.145000 1.218000 -0.398000
v 0.143000 1.220000 -0.398000
v 0.143000 0.022000 -0.400000
v 0.143000 0.020000 -0.398000
v 0.145000 0.022000 -0.398000
v 0.143000 0.020000 0.398000
v 0.143000 0.022000 0.400000
v 0.145000 0.022000 0.398000
v 0.143000 1.218000 0.400000
v 0.143000 1.220000 0.398000
v 0.145000 1.218000 0.398000
v 0.096000 0.070000 -0.348000
v 0.096000 0.072000 -0.350000
v 0.098000 0.072000 -0.348000
v 0.096000 1.170000 -0.348000
v 0.098000 1.168000 -0.348000
v 0.096000 1.168000 -0.350000
v 0.096000 1.170000 0.348000
v 0.096000 1.168000 0.350000
v 0.098000 1.168000 0.348000
v 0.096000 0.070000 0.348000
v 0.098000 0.072000 0.348000
v 0.096000 0.072000 0.350000
v 0.143000 1.153858 -0.335858
v 0.143000 1.155858 -0.333858
v 0.145000 1.157858 -0.337858
v 0.145000 0.082142 -0.337858
v 0.143000 0.084142 -0.333858
v 0.143000 0.086142 -0.335858
v 0.145000 0.082142 0.337858
v 0.143000 0.086142 0.335858
v 0.143000 0.084142 0.333858
v 0.143000 1.153858 0.335858
v 0.145000 1.157858 0.337858
v 0.143000 1.155858 0.333858
v 0.100000 0.084142 -0.333858
v 0.098000 0.082142 -0.337858
v 0.100000 0.086142 -0.335858
v 0.100000 1.155858 0.333858
v 0.098000 1.157858 0.337858
v 0.100000 1.153858 0.335858
v 0.100000 0.084142 0.333858
v 0.100000 0.086142 0.335858
v 0.098000 0.082142 0.337858
v 0.100000 1.155858 -0.333858
v 0.100000 1.153858 -0.335858
v 0.098000 1.157858 -0.337858
vn -0.0000 -0.0000 -1.0000
vn -0.0764 0.9971 -0.0000
vn -0.0764 -0.9971 -0.0000
vn 0.0766 -0.0000 0.9971
vn 1.0000 0.0003 -0.0000
vn -1.0000 -0.0002 -0.0000
vn -0.0000 -0.0000 1.0000
vn 0.0766 -0.0000 -0.9971
vn -0.0000 -1.0000 -0.0000
vn -1.0000 -0.0000 0.0002
vn -0.0766 -0.0000 -0.9971
vn -0.0766 -0.0000 0.9971
vn -0.0000 1.0000 -0.0000
vn 1.0000 -0.0000 -0.0006
vn -1.0000 -0.0000 -0.0000
vn 1.0000 -0.0000 -0.0000
vn 0.5775 0.5773 0.5772
vn 0.5775 -0.5773 0.5773
vn 0.5468 -0.5901 -0.5939
vn 0.5466 0.5906 -0.5936
vn -0.5773 0.5774 0.5774
vn -0.6058 0.5609 -0.5643
vn -0.5772 -0.5775 0.5774
vn -0.6057 -0.5611 -0.5642
vn 0.5775 0.5773 -0.5773
vn 0.5775 -0.5773 -0.5773
vn 0.5468 -0.5901 0.5939
vn 0.5466 0.5906 0.5936
vn -0.5773 0.5774 -0.5774
vn -0.6058 0.5609 0.5643
vn -0.5772 -0.5775 -0.5774
vn -0.6057 -0.5611 0.5642
vn 0.5468 -0.5939 0.5901
vn 0.5466 -0.5937 -0.5906
vn 0.5466 0.5937 -0.5906
vn 0.5468 0.5939 0.5901
vn -0.6057 -0.5642 0.5611
vn -0.6056 0.5642 0.5611
vn -0.6058 -0.5643 -0.5609
vn -0.6058 0.5643 -0.5609
vn 0.5773 0.5774 0.5774
vn 0.5773 0.5774 -0.5774
vn 0.5773 -0.5774 0.5774
vn 0.5773 -0.5774 -0.5774
vn 0.9045 0.3015 -0.3015
vn 0.9045 -0.3015 -0.3015
vn 0.9045 -0.3015 0.3015
vn 0.9045 0.3015 0.3015
vn -0.5774 -0.5773 0.5774
vn -0.5774 0.5774 0.5773
vn -0.5774 0.5773 -0.5773
vn -0.5774 -0.5774 -0.5774
vn 0.5774 -0.5773 -0.5773
vn 0.5773 0.5773 -0.5774
vn 0.5773 0.5773 0.5774
vn 0.5774 -0.5773 0.5773
vn -0.9045 0.3015 -0.3015
vn -0.9045 -0.3015 -0.3015
vn -0.9045 -0.3015 0.3015
vn -0.9045 0.3015 0.3015
vn 0.7337 -0.0000 0.6795
vn 0.6796 -0.7335 0.0001
vn 0.0003 0.7071 0.7071
vn 0.6794 0.7337 -0.0000
vn 0.0003 -0.7071 0.7071
vn 0.7071 0.0004 -0.7071
vn -0.0542 0.7050 -0.7071
vn -0.0542 -0.7050 -0.7071
vn -0.7337 0.6795 -0.0000
vn -0.6795 -0.0002 0.7337
vn -0.7071 -0.0002 -0.7071
vn -0.7335 -0.6796 -0.0000
vn 0.7337 -0.0000 -0.6795
vn 0.6796 -0.7335 -0.0001
vn 0.0003 0.7071 -0.7071
vn 0.0003 -0.7071 -0.7071
vn 0.7071 0.0004 0.7071
vn -0.0542 0.7050 0.7071
vn -0.0542 -0.7050 0.7071
vn -0.6795 -0.0002 -0.7337
vn -0.7071 -0.0002 0.7071
vn 0.7071 -0.7071 -0.0004
vn 0.6793 -0.0000 -0.7339
vn -0.0542 -0.7071 0.7050
vn -0.0542 -0.7071 -0.7050
vn -0.0542 0.7071 -0.7050
vn -0.7071 0.7071 0.0002
vn 0.6797 -0.0000 0.7335
vn -0.7338 -0.0000 -0.6794
vn 0.7071 0.7071 -0.0004
vn -0.0542 0.7071 0.7050
vn -0.7336 -0.0000 0.6796
vn -0.7071 -0.7071 0.0002
vn 0.7071 -0.0000 -0.7071
vn 0.7071 -0.7071 -0.0000
vn 0.7071 -0.0000 0.7071
vn 0.7071 0.7071 -0.0000
vn -0.7071 -0.0000 0.7071
vn -0.7071 0.7071 -0.0000
vn -0.7071 -0.0000 -0.7071
vn -0.7071 -0.7071 -0.0000
vn -0.0000 0.7071 -0.7071
vn -0.0000 -0.7071 0.7071
vn -0.0000 0.7071 0.7071
vn -0.0000 -0.7071 -0.7071
vt 0.213409 0.704274
vt 0.224699 0.704274
vt 0.223954 0.713896
vt 0.214142 0.713892
vt 0.263112 0.665721
vt 0.128512 0.665721
vt 0.128512 0.656071
vt 0.263852 0.656071
vt 0.128512 0.633459
vt 0.263112 0.633466
vt 0.263852 0.643114
vt 0.128512 0.643114
vt 0.210913 0.704277
vt 0.211649 0.713925
vt 0.200362 0.713925
vt 0.201098 0.704274
vt 0.263917 0.691227
vt 0.263917 0.702643
vt 0.129377 0.702643
vt 0.129377 0.691224
vt 0.263917 0.654440
vt 0.128512 0.654436
vt 0.128512 0.644745
vt 0.263917 0.644745
vt 0.226460 0.713896
vt 0.227193 0.704278
vt 0.237005 0.704275
vt 0.237750 0.713896
vt 0.129317 0.631828
vt 0.128577 0.622177
vt 0.263917 0.622177
vt 0.263917 0.631828
vt 0.128512 0.619247
vt 0.128512 0.609592
vt 0.263852 0.609592
vt 0.263112 0.619239
vt 0.197866 0.713922
vt 0.188052 0.713924
vt 0.187316 0.704274
vt 0.198602 0.704274
vt 0.250056 0.713895
vt 0.240244 0.713892
vt 0.239510 0.704274
vt 0.250800 0.704274
vt 0.263917 0.598266
vt 0.263917 0.607961
vt 0.128512 0.607961
vt 0.128512 0.598270
vt 0.590084 0.574068
vt 0.143235 0.574068
vt 0.143235 0.564376
vt 0.590084 0.564376
vt 0.102464 0.260805
vt 0.590084 0.260805
vt 0.590084 0.305653
vt 0.102464 0.305653
vt 0.590084 0.596635
vt 0.143235 0.596635
vt 0.143235 0.586984
vt 0.590084 0.586984
vt 0.590084 0.585354
vt 0.143235 0.585354
vt 0.143235 0.575699
vt 0.590084 0.575698
vt 0.252561 0.713896
vt 0.253295 0.704278
vt 0.263107 0.704275
vt 0.263851 0.713896
vt 0.590084 0.562746
vt 0.143235 0.562746
vt 0.143235 0.551326
vt 0.590084 0.551326
vt 0.102464 0.404434
vt 0.126985 0.379914
vt 0.565563 0.379914
vt 0.590084 0.404434
vt 0.265548 0.644745
vt 0.590084 0.644745
vt 0.590084 0.689593
vt 0.265548 0.689593
vt 0.590084 0.352132
vt 0.102464 0.352132
vt 0.102464 0.307284
vt 0.590084 0.307284
vt 0.590084 0.643114
vt 0.265547 0.643114
vt 0.265547 0.598266
vt 0.590084 0.598266
vt 0.590084 0.549695
vt 0.143235 0.549695
vt 0.143235 0.524009
vt 0.590084 0.524009
vt 0.590084 0.807594
vt 0.306318 0.807594
vt 0.310453 0.803459
vt 0.585949 0.803459
vt 0.590084 0.691223
vt 0.565563 0.715744
vt 0.290068 0.715744
vt 0.265548 0.691224
vt 0.143235 0.446836
vt 0.590084 0.446836
vt 0.590084 0.472522
vt 0.143235 0.472522
vt 0.121219 0.445205
vt 0.102464 0.426451
vt 0.590084 0.426451
vt 0.571329 0.445205
vt 0.143235 0.474153
vt 0.590084 0.474153
vt 0.585949 0.478288
vt 0.147370 0.478288
vt 0.571329 0.406065
vt 0.590084 0.424820
vt 0.102464 0.424820
vt 0.121219 0.406065
vt 0.284302 0.782666
vt 0.265548 0.763912
vt 0.590084 0.763912
vt 0.571329 0.782666
vt 0.020922 0.811614
vt 0.304688 0.811614
vt 0.300553 0.815749
vt 0.025057 0.815749
vt 0.590084 0.353762
vt 0.565563 0.378283
vt 0.126985 0.378283
vt 0.102464 0.353763
vt 0.020922 0.784297
vt 0.304688 0.784297
vt 0.304688 0.809983
vt 0.020922 0.809983
vt 0.590084 0.834911
vt 0.306318 0.834911
vt 0.306318 0.809225
vt 0.590084 0.809225
vt 0.571329 0.743526
vt 0.590084 0.762281
vt 0.265548 0.762281
vt 0.284302 0.743526
vt 0.026688 0.817380
vt 0.298922 0.817379
vt 0.298922 0.834911
vt 0.026688 0.834911
vt 0.584318 0.801829
vt 0.312084 0.801829
vt 0.312084 0.784297
vt 0.584318 0.784297
vt 0.149001 0.479918
vt 0.584318 0.479918
vt 0.584318 0.497450
vt 0.149001 0.497450
vt 0.584318 0.516612
vt 0.149001 0.516612
vt 0.149001 0.499081
vt 0.584318 0.499081
vt 0.590084 0.522378
vt 0.143235 0.522378
vt 0.147370 0.518243
vt 0.585949 0.518243
vt 0.265548 0.741895
vt 0.290068 0.717375
vt 0.565563 0.717375
vt 0.590084 0.741895
vt 0.263917 0.667352
vt 0.263977 0.666598
vt 0.264732 0.667416
vt 0.212467 0.713987
vt 0.211714 0.714740
vt 0.225517 0.704272
vt 0.224764 0.703459
vt 0.129377 0.666599
vt 0.129377 0.667352
vt 0.128561 0.667417
vt 0.200280 0.704337
vt 0.201158 0.703521
vt 0.214202 0.714708
vt 0.213325 0.713894
vt 0.211731 0.704340
vt 0.210853 0.703524
vt 0.128512 0.643929
vt 0.127697 0.643174
vt 0.187251 0.703459
vt 0.186498 0.704212
vt 0.198667 0.703459
vt 0.199420 0.704212
vt 0.128512 0.620000
vt 0.127697 0.619182
vt 0.264732 0.631763
vt 0.263917 0.632581
vt 0.264670 0.598206
vt 0.263852 0.597450
vt 0.264732 0.622117
vt 0.263917 0.621362
vt 0.263917 0.608776
vt 0.264670 0.609529
vt 0.127697 0.609532
vt 0.128512 0.608776
vt 0.590084 0.586106
vt 0.590899 0.585288
vt 0.238693 0.704272
vt 0.239446 0.703459
vt 0.143235 0.563499
vt 0.142420 0.562681
vt 0.143235 0.586106
vt 0.142419 0.585288
vt 0.590899 0.575638
vt 0.590084 0.574883
vt 0.143235 0.574883
vt 0.142419 0.574128
vt 0.590899 0.564316
vt 0.590084 0.563561
vt 0.143235 0.563561
vt 0.142419 0.564316
vt 0.590084 0.425635
vt 0.590084 0.424820
vt 0.590491 0.425227
vt 0.590084 0.643929
vt 0.590899 0.644745
vt 0.264732 0.643114
vt 0.265547 0.643929
vt 0.102464 0.425635
vt 0.102056 0.426043
vt 0.122849 0.405250
vt 0.122034 0.405250
vt 0.305503 0.834911
vt 0.305503 0.835726
vt 0.590899 0.834911
vt 0.590899 0.835726
vt 0.305503 0.784297
vt 0.305503 0.783482
vt 0.102464 0.306468
vt 0.101649 0.305653
vt 0.590899 0.305653
vt 0.590084 0.306468
vt 0.590899 0.689593
vt 0.590084 0.690408
vt 0.590899 0.598266
vt 0.590084 0.597450
vt 0.305503 0.809225
vt 0.306318 0.808410
vt 0.020922 0.810798
vt 0.020515 0.811206
vt 0.305503 0.809983
vt 0.304688 0.810798
vt 0.590084 0.808410
vt 0.590899 0.809225
vt 0.025873 0.834911
vt 0.025873 0.835726
vt 0.291699 0.716559
vt 0.290883 0.716559
vt 0.565563 0.379914
vt 0.563932 0.379098
vt 0.564748 0.379098
vt 0.128615 0.379098
vt 0.127800 0.379098
vt 0.312084 0.802644
vt 0.311269 0.802644
vt 0.299737 0.816564
vt 0.299737 0.817379
vt 0.585133 0.801829
vt 0.585133 0.802644
vt 0.025873 0.817380
vt 0.025873 0.816564
vt 0.200298 0.714740
vt 0.128512 0.632643
vt 0.263052 0.632651
vt 0.199540 0.713987
vt 0.200276 0.704337
vt 0.211736 0.704339
vt 0.212472 0.713987
vt 0.213344 0.703459
vt 0.224764 0.703459
vt 0.212591 0.704272
vt 0.225517 0.704272
vt 0.224772 0.713898
vt 0.201158 0.703459
vt 0.210853 0.703461
vt 0.223894 0.714711
vt 0.263052 0.620055
vt 0.128513 0.620062
vt 0.187229 0.713862
vt 0.186493 0.704212
vt 0.263917 0.632643
vt 0.129377 0.632643
vt 0.264674 0.609530
vt 0.263935 0.619177
vt 0.128561 0.702579
vt 0.128561 0.691289
vt 0.127697 0.619181
vt 0.127697 0.609531
vt 0.128512 0.597454
vt 0.264732 0.598206
vt 0.264732 0.608021
vt 0.127697 0.608021
vt 0.127697 0.598210
vt 0.590899 0.551391
vt 0.590899 0.562681
vt 0.143235 0.563561
vt 0.239426 0.713894
vt 0.251743 0.713898
vt 0.252477 0.704276
vt 0.253355 0.703462
vt 0.263046 0.703459
vt 0.590084 0.586169
vt 0.143235 0.586169
vt 0.263917 0.714711
vt 0.252497 0.714711
vt 0.263924 0.704272
vt 0.264669 0.713898
vt 0.590899 0.574128
vt 0.569698 0.405250
vt 0.285933 0.742711
vt 0.569698 0.742711
vt 0.569698 0.446021
vt 0.122849 0.446021
vt 0.569698 0.783482
vt 0.285933 0.783482
vt 0.590084 0.425635
vt 0.102464 0.425635
vt 0.265548 0.643929
vt 0.590084 0.643929
vt 0.590084 0.405250
vt 0.102464 0.405250
vt 0.265547 0.597450
vt 0.020107 0.809983
vt 0.020107 0.784297
vt 0.590899 0.809225
vt 0.590899 0.643114
vt 0.264732 0.689593
vt 0.264732 0.644745
vt 0.264732 0.598266
vt 0.148185 0.498265
vt 0.585133 0.498265
vt 0.563932 0.716559
vt 0.311269 0.801829
vt 0.311269 0.784297
vt 0.299737 0.834911
vt 0.585133 0.784297
vt 0.263917 0.678768
vt 0.129377 0.678772
s 0
usemtl white
f 12/1/1 8/2/1 24/3/1 16/4/1
f 2/5/2 10/6/2 18/7/2 14/8/2
f 7/9/3 5/10/3 19/11/3 22/12/3
f 20/13/4 4/14/4 3/15/4 13/16/4
f 29/17/5 25/18/5 36/19/5 32/20/5
f 15/21/6 17/22/6 23/23/6 21/24/6
f 35/25/7 40/26/7 47/27/7 33/28/7
f 27/29/2 39/30/2 41/31/2 34/32/2
f 31/33/3 46/34/3 43/35/3 30/36/3
f 45/37/8 37/38/8 26/39/8 28/40/8
f 61/41/9 67/42/9 52/43/9 51/44/9
f 38/45/6 44/46/6 48/47/6 42/48/6
f 63/49/10 64/50/10 71/51/10 68/52/10
f 79/53/7 73/54/7 100/55/7 97/56/7
f 69/57/11 70/58/11 56/59/11 53/60/11
f 50/61/12 58/62/12 65/63/12 62/64/12
f 57/65/13 72/66/13 66/67/13 60/68/13
f 54/69/14 55/70/14 59/71/14 49/72/14
f 108/73/15 131/74/15 127/75/15 105/76/15
f 75/77/13 76/78/13 103/79/13 101/80/13
f 78/81/1 82/82/1 106/83/1 104/84/1
f 84/85/9 80/86/9 99/87/9 107/88/9
f 88/89/1 85/90/1 114/91/1 110/92/1
f 119/93/16 111/94/16 134/95/16 141/96/16
f 105/97/15 127/98/15 124/99/15 102/100/15
f 94/101/7 92/102/7 120/103/7 116/104/7
f 96/105/16 83/106/16 77/107/16 93/108/16
f 117/109/16 119/110/16 141/111/16 137/112/16
f 90/113/16 74/114/16 81/115/16 86/116/16
f 86/117/16 81/118/16 83/119/16 96/120/16
f 113/121/16 117/122/16 137/123/16 144/124/16
f 102/125/15 124/126/15 123/127/15 98/128/15
f 87/129/13 95/130/13 115/131/13 112/132/13
f 91/133/9 89/134/9 109/135/9 118/136/9
f 93/137/16 77/138/16 74/139/16 90/140/16
f 142/141/13 136/142/13 132/143/13 122/144/13
f 139/145/9 133/146/9 125/147/9 129/148/9
f 138/149/7 140/150/7 128/151/7 130/152/7
f 135/153/1 143/154/1 121/155/1 126/156/1
f 111/157/16 113/158/16 144/159/16 134/160/16
f 98/161/15 123/162/15 131/163/15 108/164/15
f 1/165/17 2/166/17 3/167/17
f 4/14/18 5/168/18 6/169/18
f 7/170/19 8/2/19 9/171/19
f 10/172/20 11/173/20 12/174/20
f 13/16/21 14/175/21 15/176/21
f 16/4/22 17/177/22 18/178/22
f 19/179/23 20/13/23 21/180/23
f 22/12/24 23/181/24 24/182/24
f 25/183/25 26/39/25 27/184/25
f 28/40/26 29/185/26 30/186/26
f 31/33/27 32/187/27 33/188/27
f 34/32/28 35/189/28 36/190/28
f 37/191/29 38/45/29 39/192/29
f 40/193/30 41/31/30 42/194/30
f 43/35/31 44/195/31 45/196/31
f 46/34/32 47/197/32 48/198/32
f 49/199/33 50/61/33 51/200/33
f 52/43/34 53/201/34 54/202/34
f 55/70/35 56/203/35 57/204/35
f 58/62/36 59/205/36 60/206/36
f 61/207/37 62/64/37 63/208/37
f 64/50/38 65/209/38 66/210/38
f 67/211/39 68/52/39 69/212/39
f 70/213/40 71/51/40 72/214/40
f 73/215/41 74/216/41 75/217/41
f 76/78/42 77/218/42 78/219/42
f 79/220/43 80/86/43 81/221/43
f 82/222/44 83/106/44 84/223/44
f 85/224/45 86/116/45 87/225/45
f 88/226/46 89/134/46 90/227/46
f 91/133/47 92/228/47 93/229/47
f 94/230/48 95/130/48 96/231/48
f 97/56/49 98/232/49 99/233/49
f 100/55/50 101/234/50 102/235/50
f 103/79/51 104/236/51 105/237/51
f 106/238/52 107/88/52 108/239/52
f 109/135/53 110/240/53 111/241/53
f 112/242/54 113/121/54 114/243/54
f 115/131/55 116/244/55 117/245/55
f 118/136/56 119/246/56 120/247/56
f 121/248/57 122/144/57 123/249/57
f 124/99/58 125/250/58 126/251/58
f 127/252/59 128/253/59 129/254/59
f 130/255/60 131/74/60 132/256/60
f 133/257/46 134/95/46 135/258/46
f 136/142/48 137/259/48 138/260/48
f 139/145/47 140/261/47 141/262/47
f 142/141/45 143/263/45 144/264/45
f 3/15/61 4/14/61 6/169/61 1/265/61
f 5/10/62 7/9/62 9/266/62 6/267/62
f 2/268/63 14/269/63 13/16/63 3/15/63
f 1/165/64 11/173/64 10/6/64 2/5/64
f 4/14/65 20/13/65 19/270/65 5/271/65
f 8/2/66 12/1/66 11/272/66 9/273/66
f 12/1/67 16/4/67 18/178/67 10/274/67
f 7/275/68 22/276/68 24/3/68 8/2/68
f 14/8/69 18/7/69 17/22/69 15/21/69
f 15/277/70 21/278/70 20/13/70 13/16/70
f 16/4/71 24/3/71 23/279/71 17/177/71
f 21/24/72 23/23/72 22/12/72 19/11/72
f 25/183/73 29/185/73 28/40/73 26/39/73
f 29/280/74 32/281/74 31/33/74 30/36/74
f 26/39/75 37/38/75 39/282/75 27/283/75
f 27/29/64 34/32/64 36/284/64 25/285/64
f 30/36/76 43/35/76 45/286/76 28/287/76
f 32/20/77 36/19/77 35/288/77 33/289/77
f 34/32/78 41/31/78 40/193/78 35/189/78
f 33/290/79 47/291/79 46/34/79 31/33/79
f 38/45/69 42/48/69 41/292/69 39/192/69
f 37/293/80 45/294/80 44/46/80 38/45/80
f 42/48/81 48/47/81 47/295/81 40/296/81
f 43/35/72 46/34/72 48/47/72 44/46/72
f 51/297/82 52/298/82 54/69/82 49/72/82
f 53/212/83 56/299/83 55/70/83 54/69/83
f 50/61/84 62/64/84 61/207/84 51/200/84
f 52/43/85 67/42/85 69/300/85 53/201/85
f 56/301/86 70/302/86 72/66/86 57/65/86
f 66/67/87 72/66/87 71/303/87 64/304/87
f 49/305/88 59/306/88 58/62/88 50/61/88
f 68/52/89 71/51/89 70/213/89 69/212/89
f 57/65/90 60/68/90 59/307/90 55/308/90
f 60/68/91 66/67/91 65/309/91 58/310/91
f 62/64/92 65/63/92 64/50/92 63/49/92
f 63/49/93 68/52/93 67/211/93 61/311/93
f 85/224/94 88/312/94 90/113/94 86/116/94
f 89/313/95 91/314/95 93/137/95 90/140/95
f 92/315/96 94/316/96 96/105/96 93/108/96
f 95/317/97 87/318/97 86/117/97 96/120/97
f 81/115/96 74/114/96 73/319/96 79/320/96
f 74/321/97 77/218/97 76/78/97 75/77/97
f 77/107/94 83/106/94 82/222/94 78/215/94
f 83/322/95 81/221/95 80/86/95 84/85/95
f 97/56/98 100/55/98 102/235/98 98/232/98
f 101/80/99 103/79/99 105/97/99 102/100/99
f 104/323/100 106/324/100 108/73/100 105/76/100
f 107/88/101 99/87/101 98/325/101 108/239/101
f 87/129/102 112/132/102 114/326/102 85/327/102
f 91/133/103 118/136/103 120/328/103 92/228/103
f 115/131/104 95/130/104 94/230/104 116/244/104
f 109/135/105 89/134/105 88/226/105 110/240/105
f 84/85/105 107/88/105 106/238/105 82/329/105
f 103/79/102 76/78/102 78/219/102 104/236/102
f 75/77/104 101/80/104 100/330/104 73/331/104
f 99/87/103 80/86/103 79/220/103 97/332/103
f 119/110/96 117/109/96 116/104/96 120/103/96
f 113/158/94 111/157/94 110/92/94 114/91/94
f 117/122/97 113/121/97 112/132/97 115/131/97
f 111/94/95 119/93/95 118/136/95 109/135/95
f 123/333/100 124/334/100 126/156/100 121/155/100
f 124/99/101 127/98/101 129/335/101 125/250/101
f 127/75/98 131/74/98 130/255/98 128/253/98
f 131/163/99 123/162/99 122/250/99 132/335/99
f 125/147/105 133/146/105 135/336/105 126/337/105
f 132/143/104 136/142/104 138/260/104 130/338/104
f 139/145/103 129/148/103 128/339/103 140/261/103
f 142/141/102 122/144/102 121/248/102 143/263/102
f 140/150/96 138/149/96 137/112/96 141/111/96
f 143/154/94 135/153/94 134/160/94 144/159/94
f 136/142/97 142/141/97 144/124/97 137/123/97
f 133/146/95 139/145/95 141/96/95 134/95/95
f 6/340/5 9/341/5 11/173/5 1/165/5
